<svg id="Layer_1" height="512" viewBox="0 0 512 512" width="512" xmlns="http://www.w3.org/2000/svg" data-name="Layer 1"><path d="m256.6179 13.9286c-137.1859 0-248.4179 110.5371-248.4179 247.8027 0 136.042 111.2321 247.7959 248.418 247.7959s247.182-111.7539 247.182-247.7959c0-137.2656-109.9963-247.8027-247.1822-247.8027zm-61.7956 368.0537h-63.0314v-217.4307h63.0314zm-29.6618-230.7949c-16.0668 0-28.4259-12.1475-28.4259-29.1485 0-15.791 12.3591-29.1553 28.4259-29.1553 16.0668 1.2168 29.6618 13.3643 29.6618 29.1553 0 17.001-13.595 29.1485-29.6618 29.1485zm245.946 230.7949h-61.7954v-134.8323c0-15.791-4.9435-26.7216-23.4823-26.7216-32.1336 0-38.3131 26.7216-38.3131 26.7216v134.8323h-61.7957v-217.4307h61.7956v20.6514c8.6513-6.0772 30.8978-20.6514 61.7954-20.6514 19.7746 0 61.7954 12.1475 61.7954 85.0322v132.3985z" fill-rule="evenodd"/></svg>