<?xml version="1.0" encoding="UTF-8"?>
<svg xmlns="http://www.w3.org/2000/svg" xmlns:xlink="http://www.w3.org/1999/xlink" width="24px" height="24px" viewBox="0 0 24 24" version="1.1">
<g id="surface1">
<path d="M 16.132812 14.507812 C 16.042969 14.507812 15.953125 14.539062 15.882812 14.601562 C 15.8125 14.65625 15.78125 14.859375 15.78125 15.207031 L 15.78125 15.382812 L 15.800781 15.40625 L 16.445312 15.40625 L 16.46875 15.382812 L 16.46875 14.953125 C 16.46875 14.65625 16.355469 14.507812 16.132812 14.507812 Z M 13.332031 14.492188 C 13.195312 14.496094 13.066406 14.558594 12.984375 14.667969 L 12.984375 17.203125 C 13.097656 17.324219 13.214844 17.386719 13.332031 17.386719 L 13.398438 17.386719 C 13.550781 17.386719 13.628906 17.269531 13.628906 17.035156 L 13.628906 14.878906 C 13.609375 14.621094 13.511719 14.492188 13.332031 14.492188 Z M 9.273438 13.902344 L 10.035156 13.902344 L 10.035156 17.027344 C 10.035156 17.207031 10.09375 17.296875 10.207031 17.296875 L 10.257812 17.296875 C 10.375 17.296875 10.523438 17.195312 10.703125 16.992188 L 10.703125 13.902344 L 11.46875 13.902344 L 11.46875 17.976562 L 10.703125 17.976562 L 10.703125 17.539062 L 10.695312 17.539062 C 10.386719 17.871094 10.09375 18.035156 9.808594 18.035156 L 9.792969 18.035156 C 9.640625 18.042969 9.496094 17.96875 9.40625 17.847656 C 9.320312 17.753906 9.273438 17.484375 9.273438 17.035156 Z M 16.113281 13.804688 L 16.195312 13.804688 C 16.902344 13.804688 17.257812 14.230469 17.257812 15.085938 L 17.257812 16.027344 L 15.800781 16.027344 L 15.78125 16.050781 L 15.78125 16.75 C 15.78125 17.167969 15.878906 17.378906 16.082031 17.378906 L 16.148438 17.378906 C 16.21875 17.375 16.289062 17.355469 16.347656 17.320312 C 16.429688 17.261719 16.46875 17.101562 16.46875 16.839844 L 16.46875 16.523438 L 17.257812 16.523438 L 17.257812 16.699219 C 17.257812 17.019531 17.230469 17.261719 17.167969 17.421875 C 17.007812 17.867188 16.65625 18.085938 16.113281 18.085938 C 15.953125 18.089844 15.792969 18.058594 15.648438 18 C 15.21875 17.804688 15.003906 17.429688 15.003906 16.875 L 15.003906 14.96875 C 15.003906 14.800781 15.035156 14.640625 15.09375 14.484375 C 15.3125 14.03125 15.652344 13.804688 16.113281 13.804688 Z M 12.222656 12.453125 L 12.984375 12.453125 L 12.984375 14.222656 L 13 14.222656 C 13.222656 13.972656 13.445312 13.847656 13.671875 13.851562 C 14.171875 13.851562 14.417969 14.199219 14.417969 14.902344 L 14.417969 17.136719 C 14.417969 17.269531 14.402344 17.402344 14.375 17.53125 C 14.261719 17.859375 14.0625 18.023438 13.777344 18.023438 L 13.671875 18.023438 C 13.429688 18.023438 13.207031 17.910156 13 17.6875 L 12.984375 17.6875 L 12.984375 17.976562 L 12.222656 17.976562 Z M 6.636719 12.453125 L 9.28125 12.453125 L 9.28125 13.242188 L 8.410156 13.242188 L 8.386719 13.265625 L 8.386719 17.976562 L 7.53125 17.976562 L 7.53125 13.265625 L 7.507812 13.242188 L 6.636719 13.242188 Z M 11.34375 11.023438 C 10.265625 11.023438 9.347656 11.035156 8.59375 11.066406 C 7.617188 11.085938 7.089844 11.121094 7.011719 11.175781 C 6.542969 11.335938 6.203125 11.59375 5.992188 11.941406 C 5.84375 12.226562 5.761719 12.421875 5.75 12.535156 C 5.675781 13.328125 5.636719 14.15625 5.636719 15.019531 L 5.636719 15.433594 C 5.636719 16.160156 5.660156 16.785156 5.703125 17.3125 C 5.703125 18.015625 5.894531 18.527344 6.28125 18.855469 C 6.597656 19.132812 6.917969 19.292969 7.242188 19.335938 C 8.433594 19.40625 9.808594 19.4375 11.367188 19.4375 L 12.558594 19.4375 C 13.84375 19.4375 14.976562 19.417969 15.957031 19.375 C 16.535156 19.375 16.941406 19.308594 17.175781 19.183594 C 17.644531 18.945312 17.960938 18.589844 18.125 18.125 C 18.203125 17.992188 18.257812 17.121094 18.285156 15.515625 L 18.285156 14.945312 C 18.285156 14.234375 18.261719 13.640625 18.21875 13.171875 C 18.21875 12.46875 18.042969 11.960938 17.6875 11.644531 C 17.476562 11.394531 17.140625 11.21875 16.679688 11.117188 C 15.5 11.054688 14.125 11.023438 12.5625 11.023438 Z M 11.867188 6.914062 L 12.007812 6.9375 C 12.140625 6.992188 12.207031 7.097656 12.207031 7.257812 L 12.207031 9.371094 C 12.207031 9.644531 12.097656 9.78125 11.875 9.78125 L 11.867188 9.78125 C 11.664062 9.78125 11.5625 9.671875 11.5625 9.449219 L 11.5625 7.199219 C 11.5625 7.035156 11.664062 6.941406 11.867188 6.914062 Z M 13.664062 6.300781 L 13.640625 6.324219 L 13.640625 9.648438 C 13.640625 9.796875 13.65625 9.941406 13.6875 10.085938 C 13.765625 10.335938 13.929688 10.460938 14.179688 10.460938 C 14.460938 10.460938 14.753906 10.292969 15.0625 9.960938 L 15.0625 10.371094 L 15.082031 10.394531 L 15.824219 10.394531 L 15.84375 10.371094 L 15.84375 6.324219 L 15.824219 6.300781 L 15.082031 6.300781 L 15.0625 6.324219 L 15.0625 9.40625 C 14.882812 9.601562 14.738281 9.699219 14.625 9.699219 L 14.59375 9.699219 C 14.476562 9.699219 14.417969 9.589844 14.417969 9.371094 L 14.417969 6.324219 L 14.394531 6.300781 Z M 11.867188 6.207031 C 11.5625 6.207031 11.3125 6.289062 11.121094 6.449219 C 10.878906 6.597656 10.757812 6.921875 10.757812 7.414062 L 10.757812 9.164062 C 10.757812 9.335938 10.765625 9.503906 10.789062 9.671875 C 10.945312 10.226562 11.308594 10.503906 11.875 10.503906 L 12.246094 10.460938 C 12.746094 10.296875 13 9.949219 13 9.40625 L 13 7.222656 C 13 7.101562 12.976562 6.976562 12.933594 6.863281 C 12.746094 6.425781 12.414062 6.207031 11.933594 6.207031 Z M 7.921875 4.855469 L 7.90625 4.871094 L 8.03125 5.292969 C 8.628906 7.191406 8.925781 8.175781 8.925781 8.246094 L 8.925781 10.371094 L 8.949219 10.394531 L 9.78125 10.394531 L 9.804688 10.371094 L 9.804688 8.144531 C 9.804688 8.097656 10.140625 7.007812 10.808594 4.871094 L 10.804688 4.871094 L 10.789062 4.855469 L 9.921875 4.855469 L 9.390625 7.0625 L 9.339844 7.0625 C 9.175781 6.378906 9.03125 5.8125 8.902344 5.359375 C 8.828125 5.023438 8.78125 4.855469 8.761719 4.855469 Z M 11.960938 0.53125 C 18.375 0.53125 23.578125 5.730469 23.578125 12.148438 C 23.578125 18.5625 18.375 23.761719 11.960938 23.761719 C 5.546875 23.761719 0.347656 18.5625 0.347656 12.148438 C 0.347656 5.730469 5.546875 0.53125 11.960938 0.53125 Z M 11.960938 0.53125 "/>
</g>
</svg>
