<?xml version="1.0" encoding="UTF-8"?>
<svg xmlns="http://www.w3.org/2000/svg" xmlns:xlink="http://www.w3.org/1999/xlink" width="24px" height="24px" viewBox="0 0 24 24" version="1.1">
<g id="surface1">
<path d="M 12.027344 0.652344 C 5.597656 0.652344 0.382812 5.835938 0.382812 12.269531 C 0.382812 18.644531 5.597656 23.882812 12.027344 23.882812 C 18.460938 23.882812 23.617188 18.644531 23.617188 12.269531 C 23.617188 5.835938 18.460938 0.652344 12.027344 0.652344 Z M 9.132812 17.90625 L 6.175781 17.90625 L 6.175781 7.714844 L 9.132812 7.714844 Z M 7.742188 7.085938 C 6.988281 7.085938 6.410156 6.515625 6.410156 5.71875 C 6.410156 4.980469 6.988281 4.355469 7.742188 4.355469 C 8.496094 4.410156 9.132812 4.980469 9.132812 5.71875 C 9.132812 6.515625 8.496094 7.085938 7.742188 7.085938 Z M 19.269531 17.90625 L 16.375 17.90625 L 16.375 11.585938 C 16.375 10.84375 16.140625 10.332031 15.273438 10.332031 C 13.765625 10.332031 13.476562 11.585938 13.476562 11.585938 L 13.476562 17.90625 L 10.582031 17.90625 L 10.582031 7.714844 L 13.476562 7.714844 L 13.476562 8.679688 C 13.882812 8.398438 14.925781 7.714844 16.375 7.714844 C 17.300781 7.714844 19.269531 8.28125 19.269531 11.699219 Z M 19.269531 17.90625 "/>
</g>
</svg>
