<?xml version="1.0" encoding="UTF-8"?>
<svg xmlns="http://www.w3.org/2000/svg" xmlns:xlink="http://www.w3.org/1999/xlink" width="24px" height="24px" viewBox="0 0 24 24" version="1.1">
<g id="surface1">
<path d="M 12 9.375 C 13.621094 9.375 14.9375 10.671875 14.9375 12.269531 C 14.9375 13.867188 13.621094 15.160156 12 15.160156 C 10.378906 15.160156 9.0625 13.867188 9.0625 12.269531 C 9.0625 10.671875 10.378906 9.375 12 9.375 Z M 12 8.21875 C 9.726562 8.21875 7.886719 10.03125 7.886719 12.269531 C 7.886719 14.503906 9.726562 16.316406 12 16.316406 C 14.273438 16.316406 16.113281 14.503906 16.113281 12.269531 C 16.113281 10.03125 14.273438 8.21875 12 8.21875 Z M 16.242188 7.246094 C 15.605469 7.253906 15.09375 7.777344 15.101562 8.414062 C 15.109375 9.050781 15.628906 9.5625 16.265625 9.558594 C 16.902344 9.554688 17.417969 9.039062 17.417969 8.402344 C 17.410156 7.757812 16.882812 7.242188 16.242188 7.246094 Z M 9.128906 5.984375 L 14.871094 5.984375 C 16.738281 5.984375 18.253906 7.476562 18.253906 9.316406 L 18.253906 15.222656 C 18.253906 17.058594 16.738281 18.550781 14.871094 18.550781 L 9.128906 18.550781 C 7.261719 18.550781 5.746094 17.058594 5.746094 15.222656 L 5.746094 9.316406 C 5.746094 7.476562 7.261719 5.984375 9.128906 5.984375 Z M 8.585938 4.835938 C 6.367188 4.835938 4.566406 6.605469 4.566406 8.792969 L 4.566406 15.742188 C 4.566406 17.929688 6.367188 19.703125 8.585938 19.703125 L 15.414062 19.703125 C 17.632812 19.703125 19.433594 17.929688 19.433594 15.742188 L 19.433594 8.792969 C 19.433594 6.605469 17.632812 4.835938 15.414062 4.835938 Z M 12 0.652344 C 18.414062 0.652344 23.617188 5.851562 23.617188 12.269531 C 23.617188 18.683594 18.414062 23.882812 12 23.882812 C 5.585938 23.882812 0.382812 18.683594 0.382812 12.269531 C 0.382812 5.851562 5.585938 0.652344 12 0.652344 Z M 12 0.652344 "/>
</g>
</svg>
