<?xml version="1.0" encoding="UTF-8"?>
<svg xmlns="http://www.w3.org/2000/svg" xmlns:xlink="http://www.w3.org/1999/xlink" width="24px" height="24px" viewBox="0 0 24 24" version="1.1">
<g id="surface1">
<path d="M 11.960938 0.363281 C 14.125 0.386719 16.078125 0.921875 17.824219 1.957031 C 19.550781 2.976562 20.984375 4.421875 21.992188 6.152344 C 23.023438 7.90625 23.550781 9.875 23.578125 12.050781 C 23.515625 15.027344 22.578125 17.570312 20.757812 19.679688 C 18.941406 21.789062 16.613281 23.09375 14.203125 23.59375 L 14.203125 15.246094 L 16.484375 15.246094 L 17 11.964844 L 13.546875 11.964844 L 13.546875 9.816406 C 13.53125 9.371094 13.671875 8.929688 13.945312 8.582031 C 14.222656 8.230469 14.707031 8.042969 15.402344 8.027344 L 17.484375 8.027344 L 17.484375 5.152344 C 17.457031 5.140625 17.171875 5.105469 16.636719 5.039062 C 16.027344 4.964844 15.414062 4.929688 14.800781 4.925781 C 13.410156 4.929688 12.3125 5.320312 11.503906 6.097656 C 10.699219 6.875 10.285156 8 10.265625 9.46875 L 10.265625 11.964844 L 7.640625 11.964844 L 7.640625 15.246094 L 10.265625 15.246094 L 10.265625 23.59375 C 7.308594 23.09375 4.980469 21.789062 3.164062 19.679688 C 1.347656 17.570312 0.40625 15.027344 0.347656 12.050781 C 0.371094 9.875 0.898438 7.90625 1.929688 6.152344 C 2.9375 4.421875 4.375 2.976562 6.097656 1.957031 C 7.84375 0.921875 9.796875 0.386719 11.960938 0.363281 Z M 11.960938 0.363281 "/>
</g>
</svg>
