<svg id="Layer_1" enable-background="new 0 0 66 66" height="512" viewBox="0 0 66 66" width="512" xmlns="http://www.w3.org/2000/svg"><g><g><path d="m16.387 26.419c-2.098 4.225-.968 10.327 1.232 14.172 5.391 9.42 18.498 11.637 26.533 3.735 4.763-4.685 6.289-12.262 3.71-18.425-5.296-12.657-23.841-14.85-31.475.518zm19.397-9.412-.131.131-.195-.195c.108.023.218.039.326.064zm-5.275-.273c.526-.069 1.053-.109 1.577-.119l-.848.848zm3.211-.058-.088.088-.11-.11c.066.004.132.016.198.022zm-4.303.261-.725.725-.441-.441c.388-.111.775-.203 1.166-.284zm-3.805 1.295.433.432-1.143 1.143-.669-.669c.287-.289.258-.356 1.379-.906zm-4.787 3.545.429.429-1.069 1.069-.363-.363c.322-.394.657-.772 1.003-1.135zm-2.75 3.637.809.809-1.343 1.343-.393-.393c.284-.635.574-1.166.927-1.759zm-1.068 11.153c.091.035.159.065.262-.038l.497-.497.794.794-1.096 1.096c-.169-.438-.32-.892-.457-1.355zm-.107-.355c-.123-.445-.224-.901-.314-1.359l.826.826c-.095.094-.435.424-.512.533zm-.452-2.164c-.088-.597-.145-1.197-.167-1.795l.981.981zm-.013-4.436.778.778-.936.936c.015-.582.067-1.155.158-1.714zm.502-1.943.251.251-.498.498c.072-.255.155-.504.247-.749zm1.514 12.359c.004-.004.011-.002.015-.006l.073-.073.994.994-.296.297c-.262-.374-.523-.749-.75-1.145-.013-.022-.024-.045-.036-.067zm25 3.586c-6.663 6.552-17.906 6.081-23.93-1.953l.365-.365.948.948c.049.049.112.073.177.073s.128-.024.177-.073c.098-.098.098-.256 0-.354l-.948-.948.931-.932c.098-.098.098-.256 0-.354s-.256-.098-.354 0l-.931.932-.994-.994 1.198-1.198c.098-.098.098-.256 0-.354-.098-.097-.256-.099-.354 0l-1.198 1.198c-.06-.06-.814-.815-.876-.873.141-.046 1.175-1.114 1.28-1.219.224.077.362-.096.294-.294l.292-.292c.098-.098.098-.256 0-.354s-.256-.098-.354 0l-.263.263-.794-.794.815-.815c.098-.098.098-.256 0-.354-.098-.097-.256-.099-.354 0l-.815.815-.944-.944.794-.794.248.248c.049.049.112.073.177.073s.128-.024.177-.073c.098-.098.098-.256 0-.354l-.248-.248.994-.994c.098-.098.098-.256 0-.354s-.256-.098-.354 0l-.994.994-1.094-1.093 1.044-1.044.154.154c.049.049.112.073.177.073s.128-.024.177-.073c.098-.098.098-.256 0-.354l-.154-.154.696-.696c.098-.098.098-.256 0-.354s-.256-.098-.354 0l-.696.696-.894-.894.869-.869.471.471c.049.049.112.073.177.073s.128-.024.177-.073c.098-.098.098-.256 0-.354l-.471-.471 1.349-1.349c.241.199.533-.109.341-.341.147-.147.282-.289.108-.462-.167-.167-.309-.044-.456.102l-.886-.886c.365-.581.753-1.138 1.165-1.67l.315.315-1.02 1.021c-.098.098-.098.256 0 .354.049.049.112.073.177.073s.128-.024.177-.073l1.02-1.021.591.591c.049.049.112.073.177.073s.128-.024.177-.073c.098-.098.098-.256 0-.354l-.591-.591 1.069-1.069.598.598c.049.049.112.073.177.073.064 0 .128-.024.177-.073.098-.098.098-.256 0-.354l-.598-.598c.256-.256.696-.563.453-.807-.098-.098-.256-.098-.354 0l-.453.453-.424-.424c.279-.277.562-.549.855-.805l-.033.033c-.098.098-.098.256 0 .354.049.049.112.073.177.073s.128-.024.177-.073l.197-.197.899.899c.049.049.113.073.177.073s.128-.024.177-.073c.098-.098.098-.256 0-.354l-.899-.899.969-.969.669.669-.098.098c-.098.098-.098.256 0 .354.049.049.112.073.177.073.127 0 .185-.081.275-.171.307.307.649-.058.354-.353l1.144-1.143.347.347c.049.049.112.073.177.073s.128-.024.177-.073c.098-.098.098-.256 0-.354l-.347-.347c.265-.265.767-.616.515-.869-.098-.098-.256-.098-.354 0l-.515.515-.295-.295c.529-.238 1.066-.447 1.611-.625l.625.625-.846.846c-.098.098-.098.256 0 .354.049.049.112.073.177.073s.128-.024.177-.073l.846-.846.378.378c.049.049.112.073.177.073s.128-.024.177-.073c.098-.098.098-.256 0-.354l-.378-.378 1.019-1.018.936.936c.052.123.002.07.12.12.178.178.338.371.531.178.098-.098.098-.256 0-.354l-.042-.061 1.209-1.19c0-.001 0 .036 0 .036s-.035 0-.033 0l.493.474-.646.637c-.235.235.124.575.354.345l.646-.647.234.234c.049.049.112.073.177.073s.128-.024.177-.073c.098-.098.098-.256 0-.354l-.235-.235.366-.366c.078.011.157.016.235.028l.713.713-.072.072c-.098.098-.098.256 0 .354.049.049.112.073.177.073s.128-.024.177-.073l.072-.072c.267.267.619-.089.353-.354l.334-.334c.148.04.297.077.444.122l.237.237-.497.497c-.098.098-.098.256 0 .354.049.049.112.073.177.073s.128-.024.177-.073l.497-.497c.246.246.534.672.78.426.098-.098.098-.256 0-.354l-.292-.292c11.459 4.407 13.283 18.4 5.586 25.97z"/></g><g><path d="m64.811 32.892c-.248-4.521-.859-5.507-8.101-6.132-.306-1.385-.729-2.726-1.261-3.991-.329-.791-.702-1.558-1.109-2.285 3.629-6.268 4.86-7.018 2.087-9.206-.322-.25-.657-.549-1.004-.859-3.333-2.978-4.457-3.271-9.667 1.055-2.091-1.33-4.335-2.346-6.679-3.024-.454-1.731-.913-3.462-1.372-5.184-.471-1.812-1.202-2.479-3.502-2.201-2.027.255-5.416-.149-6.401 2.412-.553 1.453-.796 3.174-.949 4.716-2.487.612-4.945 1.645-7.15 3.002-6.922-4.058-6.093-4.208-9.295-.633-1.273 1.424-2.858 3.195-1.957 5.224.623 1.397 1.621 2.735 2.559 3.888-2.376 3.474-3.131 5.732-3.499 7.476-1.231.329-2.495.66-4.26 1.124-2.798.763-2.242 2.099-2.094 4.817.106 1.91.239 4.287 2.309 5.083 1.497.576 3.246.808 4.814.966.741 2.494 1.766 4.711 3.121 6.761-4.369 7.485-4.366 6.521-.845 9.672 1.162 1.042 2.48 2.223 4.008 2.223.412 0 .82-.088 1.212-.263 1.702-.758 3.329-2.083 4.782-3.3 1.924 1.047 3.966 1.834 6.08 2.343 1.754 6.632 1.633 8.419 4.19 8.419.185 0 1.684-.143 2.258-.174 1.908-.105 4.283-.235 5.078-2.31.687-1.795.921-4.095 1.097-6.241 1.935-.551 3.8-1.329 5.554-2.317.059.036.116.07.174.103 8.438 4.887 7.279 5.05 10.573 1.375 1.275-1.426 2.863-3.2 1.962-5.223-.811-1.816-2.256-3.54-3.654-5.206l-.003-.004c.997-1.739 1.79-3.609 2.362-5.568.044-.011.088-.023.132-.034 1.754-.459 3.504-.924 5.257-1.389 1.135-.301 2.226-.464 2.845-1.192.85-.997.432-2.443.348-3.923zm-1.048-.739-.62-.62c.116-.116.475-.425.48-.58.069.382.11.787.14 1.2zm-.31-1.872-.751-.751.224-.225c.236.27.406.601.527.976zm.136.523c.008.04.02.078.027.119-.004-.04-.023-.077-.046-.111.006-.005.013-.004.019-.008zm-33.738 32.927.59-.59.82.82c-.494.046-1.008.078-1.41-.23zm3.385-3.385c.029.15.992 1.07 1.108 1.186l-1.221 1.221-1.147-1.147zm2.437 2.515-.512.512c-.066.066-.071.155-.048.239-.363.071-.748.117-1.144.148.035-.203-.334-.494-.493-.653l1.221-1.221zm-.622-1.329.95-.951.975.975-.95.951zm.976 1.683.09.09c-.09.043-.192.073-.289.108zm-3.258-.108-.561.562c-.059.059-.07.136-.058.213-.128.01-.254.022-.377.036.011-.076-.001-.152-.059-.211l-.919-.919.828-.828zm-.025.733.379-.379.337.337c-.002-.001-.716.042-.716.042zm3.814-.801-.178-.178.914-.914c-.163.457-.268.741-.736 1.092zm12.901-7.54.768-.768.758.758c-.433.433.039.668.247.46l.107-.107 1.118 1.117c-.643.032-2.44-1.135-2.998-1.46zm3.733-3.733.758.758-1.15 1.15-.758-.758zm-1.504 1.504.758.758-1.107 1.107-.758-.758zm1.288 3.502-1.284-1.284 1.107-1.107c.102.102 1.152 1.17 1.276 1.242-.314.386-.682.874-1.099 1.149zm2.286-7.522-.583-.583.471-.471c.199.272.386.545.565.819-.206-.076-.289.072-.453.235zm.844-10.822c-.087.023-.175.044-.263.065l.629-.629.37.37c-.245.064-.49.13-.736.194zm3.23-.853-.201-.201.903-.903.726.726c-.476.127-.952.253-1.428.378zm-.554-.554-.733-.733.903-.903.733.734zm-.353.354-.598.598c-.143.038-.286.076-.429.113l-.575-.575.869-.869zm2.886-.322c-.085-.101-.83-.841-.923-.934l1.481-1.481.665.665-1.283 1.284c-.098.098-.098.256 0 .354.049.049.112.073.177.073s.128-.024.177-.073l2.038-2.039c.098-.098.098-.256 0-.354s-.256-.098-.354 0l-.401.401-.701-.701c.047-.195-.087-.329-.282-.282l-1.184-1.184c-.098-.098-.256-.098-.354 0s-.098.256 0 .354l1.148 1.148-1.481 1.481-.733-.734 1.196-1.196c.098-.098.098-.256 0-.354s-.256-.098-.354 0l-1.196 1.196-.129-.129c-.097-.097-.255-.098-.354 0-.098.098-.098.256 0 .354l.129.129-.903.903-.842-.842c-.098-.098-.256-.098-.354 0s-.098.256 0 .354l.842.842-.869.869-.842-.842c-.098-.098-.256-.098-.354 0s-.098.256 0 .354l.842.842-.91.91c-.098.098-.098.256 0 .354.044.044.102.062.16.066-.005.013-.018.022-.022.036-.586 2.094-1.434 4.085-2.52 5.918-.108.183-.09.414.047.576l.229.274c.592.706 1.19 1.423 1.742 2.147l-.522.522c-.138-.138-.282-.242-.438-.085-.098.098-.098.256 0 .354l1.022 1.022-.518.518-.325-.324c-.232-.232-.588.119-.354.354l.325.324c-.314.314.022.686.354.354.118.118 1.499 1.562 1.666 1.562.221 0 .334-.269.177-.427l-1.489-1.489.518-.518c.115.115.497.554.657.554.221 0 .334-.269.177-.427l-.48-.481c.111-.111.242-.207.258-.346 1.641 2.616.976 3.161-1.497 6.003-.085-.098-1.129-1.137-1.224-1.233l1.15-1.15c.126.126.793.851.955.851.221 0 .334-.269.177-.427l-.778-.778c.273-.273.786-.634.534-.887-.253-.253-.614.261-.887.534-.1-.1-.783-.801-.905-.871-.011-.022-.009-.048-.027-.066-.098-.098-.256-.098-.354 0l-2.79 2.79c-.268-.268-.622-.773-.874-.52-.098.098-.098.256 0 .354l.521.52-.862.862c-1.174-.683-2.348-1.368-3.521-2.047-.121-.07-.25-.147-.364-.229-.161-.116-.373-.126-.544-.027-6.436 3.726-6.138 1.252-6.368 3.79l-.433-.432.304-.304c.098-.098.098-.256 0-.354s-.256-.098-.354 0l-.326.326c-.223-.105-.415.085-.309.309l-.215.215c-.098.098-.098.256 0 .354.049.049.112.073.177.073s.128-.024.177-.073l.192-.192.725.725c-.054.558-.118 1.11-.194 1.654-.059-.126-.589-.634-.695-.74l.663-.663c.098-.098.098-.256 0-.354s-.256-.098-.354 0l-.663.663-.315-.315c-.098-.098-.256-.098-.354 0s-.098.256 0 .354l.315.315-.561.561c-.098.098-.098.256 0 .354.049.049.112.073.177.073s.128-.024.177-.073l.561-.561.663.663c.049.049.112.073.177.073.063 0 .125-.025.174-.072-.108.718-.263 1.397-.45 2.045l-1.12-1.12.354-.354c.098-.098.098-.256 0-.354s-.256-.098-.354 0l-.354.354-.783-.783c-.098-.098-.256-.098-.354 0s-.098.256 0 .354l.783.783-.95.951c-.116-.116-1.036-1.079-1.186-1.108l.781-.781c.098-.098.098-.256 0-.354s-.256-.098-.354 0l-2.317 2.317c-.229-.229-.465-.569-.693-.34s.111.465.34.693l-.828.828-.783-.783c-.232-.232-.588.119-.354.354l.783.783-.549.549c-.246-.472-1.571-5.649-1.707-6.163l-.299-1.132c-.045-.185-.19-.328-.375-.37-3.493-.795-6.656-2.541-6.656-2.541-.115 0-.229.04-.321.117-1.469 1.231-3.133 2.626-4.81 3.373-1.798.8-3.786-1.599-5.21-2.702-1.444-1.108-1.336-1.584-.67-2.735l.784-1.352c.714-1.232 1.43-2.465 2.148-3.695.098-.167.09-.374-.019-.534-1.442-2.121-2.508-4.431-3.258-7.062-.056-.198-.228-.341-.433-.361-1.585-.154-3.401-.365-4.889-.938-1.876-.721-1.52-3.564-1.777-5.59-.257-2.117.307-2.108 2.243-2.616 1.259-.331 2.521-.663 3.777-.999.186-.049.325-.2.362-.388.335-1.732 1.027-4.003 3.615-7.713.128-.184.118-.432-.024-.604-4.618-5.588-2.736-5.581.037-9.159 1.488-1.909 1.376-1.497 7.399 2.04.16.094.36.092.521-.009 2.279-1.443 4.855-2.521 7.45-3.118.21-.048.365-.226.386-.441.567-6.087 1.363-6.269 5.13-6.478.591-.033 2.003-.163 2.179-.163.993 0 1.295.283 1.615 1.518.484 1.815.968 3.638 1.445 5.46.045.172.179.308.35.355 2.462.681 4.813 1.75 6.987 3.176.186.122.426.107.596-.035 1.426-1.193 2.947-2.415 4.49-3.103 1.793-.802 3.797 1.602 5.205 2.691 1.963 1.549 1.505 1.278-2.48 8.166-.09.155-.09.346 0 .501.443.763.846 1.578 1.196 2.421.554 1.317.984 2.721 1.281 4.172.045.217.227.379.448.398 1.162.099 5.035.387 6.297 1.247l-.208.208c-.236-.217-.565.118-.347.351-.22.235.111.566.347.351l.879.879c-.105.083-.34.326-.435.42l-.502-.502c-.098-.098-.256-.098-.354 0s-.098.256 0 .354l.502.502-.774.774c-.098.098-.098.256 0 .354.049.049.112.073.177.073s.128-.024.177-.073l.774-.774.712.712c.049.049.112.073.177.073.042 0 .078-.027.116-.048.228 3.819.75 3.571-2.473 4.424z"/></g><g><path d="m27.093 21.861c-5.589 2.839-8.979 9.615-5.156 16.296 3.793 6.627 13.012 8.185 18.665 2.626 3.351-3.296 4.424-8.626 2.609-12.962-2.339-5.589-9.519-9.314-16.118-5.96zm12.807 18.21c-5.063 4.979-13.554 3.777-17.097-2.41-1.415-2.475-2.155-6.376-.831-9.044 4.855-9.78 16.785-8.849 20.316-.409 1.661 3.968.68 8.847-2.388 11.863z"/></g><g><path d="m33.819 31.696v-3.826c0 .155 1.131.413 1.709.789.538.351.953-.605.595-.839-.739-.48-2.304-.802-2.304-.972 0-.676.148-1.523-.5-1.523-.63 0-.5.761-.5 1.402 0-.004-.379-.021-.469-.021-4.891.023-4.76 5.133.469 5.79v4.372s-.96.021-2.96-1.238c-.594-.372-1.148.603-.608.944 4.196 2.638 3.569.088 3.569 3.088h1v-1.691c0-.013 1.323-.215 1.916-.601 1.102-.716 1.654-2.072 1.314-3.224-.568-1.92-3.231-2.45-3.231-2.45zm-1.448-3.99c.697.003.449-.405.449 3.761-3.569-.375-4.243-3.8-.449-3.761zm2.819 8.826c-.432.281-1.371.417-1.371.429v-4.24s1.911.488 2.271 1.708c.215.726-.172 1.63-.9 2.103z"/></g><g><path d="m16.251 20.583c.03 0 .062-.001.093-.005.138-.014.237-.137.224-.274s-.131-.232-.274-.223c-.117.011-.239-.03-.373-.127.773-1.017 1.642-1.955 2.593-2.81.233.225.485.43.767.591.039.022.082.033.124.033.087 0 .171-.045.217-.126.068-.12.027-.273-.093-.341-.235-.134-.445-.304-.641-.489.842-.72 1.747-1.371 2.707-1.953l.352.659c.045.084.132.132.221.132.04 0 .08-.009.117-.029.122-.065.168-.216.104-.338l-.366-.686c.978-.562 2.015-1.045 3.097-1.453.204.317.456.603.773.807.042.027.089.04.136.04.082 0 .162-.041.21-.114.075-.116.042-.271-.074-.346-.225-.146-.407-.345-.563-.563 1.372-.481 2.765-.812 4.164-1 .041.324.016.787.32.787.151 0 .267-.133.248-.281l-.072-.57c1.03-.113 2.061-.144 3.087-.101l.144.642c.026.116.13.195.244.195.018 0 .036-.002.055-.006.135-.03.22-.164.189-.299l-.114-.507c.88.06 1.753.18 2.618.354l-.051.968c-.01.138.094.512.231.512h.018c.13 0 .24-.345.249-.477l.046-.776c.925.21 1.838.423 2.732.764-.03.304-.009.583.093.869.036.102.133.151.235.151.028 0 .057-.012.084-.022.13-.046.198-.193.151-.323-.061-.171-.079-.355-.077-.537.638.262 1.266.555 1.882.884-.132.326-.385.728-.076.854.127.051.274-.01.325-.138l.192-.475c.451.254.897.52 1.333.811.115.077.271.045.347-.069s.046-.27-.069-.347c-.465-.31-.941-.592-1.422-.861l.224-.555c.052-.128-.01-.274-.138-.326-.13-.052-.274.01-.325.138l-.203.501c-.65-.345-1.313-.651-1.987-.923.056-.167.128-.327.235-.465.085-.109.065-.266-.044-.351-.11-.086-.267-.065-.351.044-.136.175-.229.376-.302.586-.919-.346-1.857-.622-2.807-.834l.038-.545c.01-.138-.094-.257-.231-.267-.133-.018-.258.094-.267.232l-.034.476c-.914-.181-1.837-.307-2.768-.363l-.239-1.066c-.03-.134-.16-.218-.299-.189-.135.03-.22.164-.189.299l.21.94c-1.009-.036-2.023-.004-3.037.108l-.127-1.006c-.017-.136-.134-.235-.279-.217-.137.017-.234.142-.217.279l.127 1.008c-1.462.196-2.918.544-4.351 1.052-.116-.277-.192-.439-.185-.74.003-.138-.106-.123-.245-.123-.001 0-.003 0-.005 0-.136 0-.247-.024-.25.112-.008.364.083.654.222.99-1.083.412-2.121.863-3.102 1.425l-.181-.356c-.065-.123-.219-.176-.338-.111-.122.065-.168.212-.104.334l.195.363c-.997.603-1.936 1.278-2.809 2.025-.177-.225-.334-.465-.449-.728-.056-.127-.199-.184-.329-.129-.38.168.145.863.405 1.187-.956.859-1.83 1.802-2.61 2.821-.018-.022-.033-.037-.051-.06-.256-.333-.546-.711-1.013-.798-.144-.027-.267.065-.292.2-.025.136.064.267.2.292.279.052.497.336.74.654.024.031.066.081.105.128-.726.999-1.364 2.067-1.909 3.194l-1.095-1.023c-.102-.093-.259-.088-.354.012-.095.101-.089.259.012.354l1.215 1.136c-.402.889-.754 1.809-1.036 2.764-.039.132.037.271.169.311.024.007.048.01.071.01.108 0 .208-.07.24-.179.259-.877.577-1.725.94-2.545l.131.122c.049.045.109.067.171.067.066 0 .134-.027.183-.08.095-.101.089-.259-.012-.353l-.252-.235c.537-1.134 1.171-2.208 1.895-3.212.182.124.388.228.631.228z"/></g></g></svg>