<svg id="Layer_1" enable-background="new 0 0 66 66" height="512" viewBox="0 0 66 66" width="512" xmlns="http://www.w3.org/2000/svg"><g><g><g><g><g><g><path d="m29.182 49.094c-5.293 0-8.371-.049-10.314-1.926-1.491-1.439-2.377-20.927-.734-26.153.484-1.539 1.06-2.47 1.761-2.846 1.339-.72 2.94-.736 4.227-.749 22.073-.229 21.917-.513 23.191.62 1.182 1.049 1.182 1.049 1.128 13.718-.013 3.05-.029 6.848-.034 11.59-.001 1.304-.09 2.771-1.129 3.685-.675.594-1.542.765-2.445.9-5.16.77-10.426 1.161-15.651 1.161zm15.125-30.884-.26.002-19.915.208c-1.239.013-2.643.027-3.765.63-.255.137-.76.613-1.28 2.265-1.756 5.586-.495 23.963.481 25.14 3.347 3.231 25.724.994 27.05-.174.726-.639.788-1.8.79-2.935.005-4.744.021-8.542.034-11.593.051-11.989.036-12.231-.792-12.966-.539-.479-1.326-.577-2.343-.577z"/></g></g></g></g></g><g><g><g><g><g><g><g><path d="m49.425 25.844c-.538 0-1.057-.119-1.529-.227-.27-.062-.438-.33-.376-.599.061-.27.329-.44.599-.376.587.133 1.194.274 1.747.159.423-.087.892-.411.929-.841.037-.435-.39-.847-.824-.994-.552-.188-1.195-.113-1.817-.041-.277.037-.522-.165-.554-.439s.165-.523.439-.554c.697-.081 1.487-.173 2.254.086.807.274 1.582 1.058 1.499 2.026-.082.965-.951 1.576-1.723 1.735-.218.047-.433.065-.644.065z"/></g></g></g></g></g><g><g><g><g><g><path d="m47.752 30.505c-.262-.087-.403-.371-.315-.633.087-.261.37-.404.633-.316.459.153.93.308 1.372.259.331-.041.583-.202.676-.432.065-.162.037-.327-.078-.466-.11-.134-.579-.553-1.977-.291-.27.053-.533-.127-.583-.399-.051-.271.127-.533.399-.583 1.817-.343 2.618.253 2.934.638.347.421.434.972.233 1.473-.229.574-.784.968-1.483 1.053-.628.078-1.215-.104-1.811-.303z"/></g></g></g></g></g><g><g><g><g><g><path d="m48.976 35.692c-.658 0-1.609-.064-1.494-.706.049-.271.31-.453.581-.404.459.083.935.168 1.345.06.474-.124.664-.465.602-.723-.093-.386-.761-.675-2.017-.402-.27.063-.537-.112-.595-.382-.059-.27.112-.536.382-.595 2.053-.447 3.009.337 3.203 1.146.2.833-.381 1.678-1.321 1.924-.23.059-.46.082-.686.082z"/></g></g></g></g></g><g><g><g><g><g><path d="m49.264 40.386c-.7 0-1.84-.071-1.707-.752.053-.271.313-.45.587-.395.548.107 1.17.229 1.688.07.528-.163.776-.627.677-.958-.122-.407-.838-.644-2.165-.254-.622.193-.923-.771-.282-.959 2.119-.622 3.148.07 3.405.925.272.903-.33 1.891-1.34 2.203-.287.087-.578.12-.863.12z"/></g></g></g></g></g><g><g><g><g><g><path d="m48.712 44.455c-.355 0-.71-.04-1.057-.121-.269-.063-.436-.332-.373-.601s.333-.437.601-.373c.768.179 1.59.103 2.313-.214.214-.094.345-.18.424-.277.064-.078.08-.166.067-.199-.069-.173-.839-.307-1.583-.436-.322-.056-.685-.118-1.09-.197-.271-.052-.448-.314-.395-.586.052-.271.313-.449.586-.396.398.077.754.138 1.07.193 1.289.223 2.067.357 2.343 1.052.152.386.067.845-.221 1.199-.237.291-.551.453-.797.561-.596.262-1.242.395-1.888.395z"/></g></g></g></g></g></g><g><g><g><g><g><path d="m56.898 24.541c-.014 0-.028 0-.042-.001h-5.32c-.276 0-.5-.224-.5-.5 0-.338.375-.598.673-.5h4.991l3.861-3.861c.195-.195.512-.195.707 0s.195.512 0 .707l-3.982 3.982c-.029.035-.063.065-.101.091-.083.055-.185.082-.287.082z"/></g></g></g></g></g><g><g><g><g><g><path d="m59.1 29.856h-8.387c-.276 0-.5-.224-.5-.5s.224-.5.5-.5h8.387c.276 0 .5.224.5.5s-.223.5-.5.5z"/></g></g></g></g></g><g><g><g><g><g><path d="m58.667 34.734h-7.954c-.276 0-.5-.224-.5-.5s.224-.5.5-.5h7.954c.276 0 .5.224.5.5s-.223.5-.5.5z"/></g></g></g></g></g><g><g><g><g><g><path d="m57.619 39.283h-6.467c-.276 0-.5-.224-.5-.5s.224-.5.5-.5h6.467c.276 0 .5.224.5.5s-.223.5-.5.5z"/></g></g></g></g></g><g><g><g><g><g><path d="m60.998 47.731c-.132 0-.263-.052-.361-.154-1.433-1.498-3.544-3.697-4.097-4.258h-5.195c-.276 0-.5-.224-.5-.5s.224-.5.5-.5h5.4c.118 0 .232.042.321.117.162.136 3.056 3.157 4.293 4.449.191.2.184.516-.016.707-.096.093-.22.139-.345.139z"/></g></g></g></g></g><g><g><g><g><g><path d="m60.752 20.452c-.631-.458-.95-1.268-.813-2.063.127-.736.613-1.296 1.299-1.498.99-.291 2.1.189 2.558 1.078.337.653.274 1.388-.174 2.017-.642.903-1.996 1.101-2.87.466zm.769-2.601c-.45.132-.566.539-.596.709-.073.421.09.847.415 1.083.416.302 1.173.177 1.468-.237.635-.894-.367-1.827-1.287-1.555z"/></g></g></g></g></g><g><g><g><g><g><path d="m60.885 31.366c-.437 0-.844-.128-1.177-.37-.631-.459-.95-1.269-.813-2.063.127-.736.613-1.296 1.299-1.498.988-.291 2.1.188 2.558 1.077.336.653.273 1.388-.174 2.017-.373.524-1.006.837-1.693.837zm-.076-3.019c-.112 0-.224.016-.333.048-.45.132-.566.54-.596.709-.073.421.09.846.415 1.083.416.302 1.171.177 1.468-.238.29-.407.214-.756.1-.978-.192-.373-.616-.624-1.054-.624z"/></g></g></g></g></g><g><g><g><g><g><path d="m60.188 36.243c-.437 0-.844-.128-1.177-.37-.631-.458-.95-1.268-.813-2.063.128-.736.614-1.296 1.3-1.498.987-.287 2.099.189 2.557 1.078.337.653.273 1.388-.174 2.017-.372.524-1.005.836-1.693.836zm-.075-3.019c-.112 0-.224.016-.333.048-.451.132-.567.54-.597.709-.073.421.09.847.415 1.083.415.302 1.172.177 1.468-.237.29-.407.214-.757.1-.978-.192-.374-.615-.625-1.053-.625z"/></g></g></g></g></g><g><g><g><g><g><path d="m59.072 40.792c-.438 0-.844-.128-1.177-.37-.631-.458-.95-1.268-.813-2.062.128-.737.614-1.297 1.3-1.499.987-.288 2.099.19 2.557 1.078.336.653.273 1.388-.175 2.017-.373.523-1.005.836-1.692.836zm-.076-3.019c-.112 0-.224.016-.333.048-.45.132-.567.54-.596.709-.073.421.09.847.416 1.083.416.303 1.172.178 1.467-.237.29-.407.214-.757.1-.979-.193-.373-.617-.624-1.054-.624z"/></g></g></g></g></g><g><g><g><g><g><path d="m61.258 49.783c-.631-.458-.95-1.268-.813-2.062.127-.736.613-1.297 1.299-1.498.989-.29 2.099.189 2.558 1.078.336.653.273 1.388-.174 2.017-.643.902-1.996 1.101-2.87.465zm1.102-2.649c-.112 0-.224.016-.333.048-.45.132-.566.54-.596.709-.073.422.09.847.415 1.083.416.302 1.172.178 1.468-.237.29-.407.214-.757.1-.979-.193-.373-.617-.624-1.054-.624z"/></g></g></g></g></g></g><g><g><g><g><g><path d="m16.37 25.795c-1.455 0-2.197-.665-2.407-1.409-.272-.961.362-2 1.442-2.367.653-.22 1.613-.094 2.385.01l.361.046c.274.032.471.28.439.554s-.272.479-.554.439l-.378-.048c-.597-.08-1.5-.202-1.931-.054-.643.218-.912.754-.801 1.147.149.53 1.029.899 2.652.529.269-.064.537.106.599.376.062.269-.107.537-.376.599-.539.123-1.014.178-1.431.178z"/></g></g></g></g></g><g><g><g><g><g><path d="m16.445 30.782c-.754 0-1.194-.265-1.424-.473-.393-.357-.554-.884-.433-1.409.141-.607.639-1.104 1.298-1.295.675-.196 1.37-.065 1.931.04.271.051.45.312.399.583s-.308.453-.583.399c-.479-.09-1.023-.192-1.467-.062-.374.108-.557.361-.603.561-.023.1-.037.29.131.443.119.11.613.429 1.932-.012.262-.086.545.054.633.316s-.054.545-.315.633c-.6.2-1.095.276-1.499.276z"/></g></g></g></g></g><g><g><g><g><g><path d="m16.836 35.66c-1.35 0-1.988-.629-2.13-1.308-.177-.847.424-1.688 1.369-1.914.653-.157 1.312-.013 1.841.103.27.059.441.325.382.595s-.325.446-.595.382c-.475-.104-.964-.21-1.395-.107-.458.109-.68.468-.624.736.076.364.717.655 1.948.435.273-.046.531.132.58.404.049.271-.132.531-.404.58-.358.064-.681.094-.972.094z"/></g></g></g></g></g><g><g><g><g><g><path d="m16.568 40.345c-1.191 0-1.778-.451-2.043-.769-.369-.443-.464-1.028-.253-1.565.242-.615.819-1.038 1.546-1.131.654-.082 1.272.097 1.816.257.265.078.417.355.338.621-.078.265-.353.42-.621.338-.472-.138-.959-.282-1.406-.224-.359.046-.637.234-.743.504-.045.115-.093.339.09.559.126.151.661.619 2.258.304.273-.056.533.124.587.395.053.271-.124.534-.395.587-.444.087-.834.124-1.174.124z"/></g></g></g></g></g><g><g><g><g><g><path d="m8.798 24.541c-.102 0-.205-.027-.287-.083-.037-.025-.071-.056-.1-.089l-3.982-3.983c-.195-.195-.195-.512 0-.707s.512-.195.707 0l3.861 3.861h5.009c.298-.107.655.115.655.445v.055c0 .276-.224.5-.5.5h-5.327c-.005.005-.024.001-.036.001z"/></g></g></g></g></g><g><g><g><g><g><path d="m14.982 29.856h-8.387c-.276 0-.5-.224-.5-.5s.224-.5.5-.5h8.387c.276 0 .5.224.5.5s-.223.5-.5.5z"/></g></g></g></g></g><g><g><g><g><g><path d="m14.982 34.734h-7.953c-.276 0-.5-.224-.5-.5s.224-.5.5-.5h7.954c.276 0 .5.224.5.5s-.224.5-.501.5z"/></g></g></g></g></g><g><g><g><g><g><path d="m14.544 39.283h-6.468c-.276 0-.5-.224-.5-.5s.224-.5.5-.5h6.467c.276 0 .5.224.5.5.001.276-.223.5-.499.5z"/></g></g></g></g></g><g><g><g><g><g><path d="m3.766 20.822c-.688 0-1.32-.313-1.693-.836-.448-.629-.511-1.364-.174-2.017.458-.889 1.57-1.367 2.557-1.078.686.201 1.172.761 1.3 1.498.137.794-.182 1.604-.813 2.063-.332.242-.74.37-1.177.37zm.076-3.019c-.438 0-.861.251-1.054.625-.114.221-.189.571.1.978.295.415 1.05.54 1.468.237.325-.236.488-.662.415-1.083-.029-.17-.146-.577-.596-.709-.109-.032-.221-.048-.333-.048z"/></g></g></g></g></g><g><g><g><g><g><path d="m4.811 31.366c-.688 0-1.321-.313-1.693-.836-.447-.629-.511-1.364-.174-2.017.458-.889 1.571-1.365 2.557-1.078.687.202 1.172.762 1.3 1.498.138.794-.181 1.604-.813 2.063-.333.242-.74.37-1.177.37zm.076-3.019c-.438 0-.861.251-1.054.625-.114.222-.19.571.1.978.295.415 1.05.54 1.468.238.325-.237.488-.662.415-1.083-.029-.169-.146-.577-.596-.709-.11-.033-.222-.049-.333-.049z"/></g></g></g></g></g><g><g><g><g><g><path d="m5.507 36.243c-.687 0-1.32-.313-1.692-.836-.448-.629-.511-1.364-.175-2.017.458-.889 1.572-1.367 2.557-1.078.687.202 1.172.762 1.3 1.498.137.794-.182 1.604-.813 2.062-.333.243-.739.371-1.177.371zm.076-3.019c-.438 0-.861.251-1.054.625-.114.222-.19.571.1.979.183.257.519.416.878.416h.001c.221 0 .43-.063.589-.179.325-.236.488-.662.416-1.083-.029-.169-.146-.577-.596-.709-.11-.033-.222-.049-.334-.049z"/></g></g></g></g></g><g><g><g><g><g><path d="m6.624 40.792c-.687 0-1.32-.313-1.693-.836-.447-.629-.511-1.364-.174-2.017.459-.889 1.572-1.366 2.557-1.078.687.202 1.172.762 1.3 1.499.137.794-.182 1.604-.813 2.062-.332.242-.739.37-1.177.37zm.076-3.019c-.438 0-.861.251-1.054.625-.114.222-.189.571.1.979.183.257.52.416.878.416.221 0 .431-.063.589-.179.325-.236.488-.662.415-1.083-.029-.17-.146-.577-.596-.709-.108-.033-.22-.049-.332-.049z"/></g></g></g></g></g><g><g><g><g><g><g><path d="m17.315 44.447c-1.1 0-2.205-.358-2.705-.939-.311-.361-.392-.79-.227-1.207.324-.816 2.069-1.767 3.823-1.405.271.056.444.32.389.591-.056.27-.316.445-.591.389-1.328-.276-2.564.474-2.691.794-.015.038-.033.084.054.186.373.432 1.683.753 2.749.504.27-.063.538.104.601.373s-.104.538-.373.601c-.329.077-.679.113-1.029.113z"/></g></g></g></g></g><g><g><g><g><g><path d="m5.002 47.731c-.124 0-.249-.046-.346-.139-.2-.191-.207-.507-.016-.707 1.237-1.292 4.131-4.313 4.293-4.449.09-.076.204-.117.321-.117h5.4c.276 0 .5.224.5.5s-.224.5-.5.5h-5.195c-.537.545-2.658 2.755-4.096 4.258-.098.103-.23.154-.361.154z"/></g></g></g></g></g><g><g><g><g><g><path d="m3.565 50.153c-.687 0-1.32-.313-1.693-.836-.447-.629-.511-1.364-.174-2.017.459-.889 1.573-1.366 2.557-1.078.687.202 1.172.762 1.3 1.499.137.794-.182 1.604-.813 2.062-.333.242-.74.37-1.177.37zm.075-3.019c-.437 0-.861.251-1.054.624-.114.222-.19.571.1.979.183.257.52.416.878.416.221 0 .431-.063.589-.179.325-.236.488-.662.416-1.083-.029-.169-.146-.577-.596-.709-.108-.032-.221-.048-.333-.048z"/></g></g></g></g></g></g><g><g><g><g><g><path d="m42.574 51.664c-.047 0-.094-.002-.142-.006-.965-.082-1.576-.951-1.735-1.722-.158-.765.013-1.513.164-2.172.146-.643 1.122-.423.975.223-.134.587-.272 1.195-.159 1.747.087.423.411.892.841.928.433.039.847-.389.994-.824.188-.554.109-1.225.04-1.816-.032-.274.164-.522.438-.555.278-.033.523.165.555.438.078.662.174 1.486-.086 2.254s-.982 1.505-1.885 1.505z"/></g></g></g></g></g><g><g><g><g><g><path d="m37.262 51.631c-.055 0-.11-.003-.167-.01-.821-.096-1.339-.867-1.426-1.58-.088-.72.179-2.378.936-2.126.262.087.403.371.315.633-.154.459-.313.934-.259 1.372.039.314.259.674.549.708.297.036.607-.292.701-.619.13-.447.028-.99-.062-1.468-.051-.272.127-.533.398-.584.812-.142.832 1.617.624 2.331-.193.675-.814 1.343-1.609 1.343z"/></g></g></g></g></g><g><g><g><g><g><path d="m32.449 51.499c-.007 0-.015 0-.022 0-.829-.013-1.389-.714-1.558-1.36-.182-.696-.154-2.321.624-2.178.272.049.453.309.404.581-.083.459-.168.934-.06 1.345.078.298.326.609.606.613.256.003.552-.326.626-.634.193-.804-.474-1.827.274-1.99.269-.063.536.112.595.382.116.53.26 1.19.104 1.841-.169.699-.768 1.4-1.593 1.4z"/></g></g></g></g></g><g><g><g><g><g><path d="m27.935 52.012c-.813 0-1.495-.669-1.722-1.407-.233-.753-.205-2.736.63-2.568.271.053.448.315.395.586-.107.549-.229 1.172-.069 1.688.119.387.501.766.869.691.177-.037.307-.128.399-.28.51-.851-.505-2.288.284-2.52.268-.079.543.074.621.338.343 1.166.327 2.073-.047 2.696-.236.393-.6.651-1.053.744-.105.021-.207.032-.307.032z"/></g></g></g></g></g><g><g><g><g><g><path d="m23.779 52.169c-.278 0-.563-.102-.801-.295-.296-.242-.462-.571-.562-.798-.502-1.144-.672-3.556.328-3.315.269.063.437.331.374.6-.179.769-.103 1.59.214 2.313.058.132.15.321.277.425.077.063.167.079.198.066.174-.069.307-.838.436-1.581.117-.672.133-1.614.784-1.488.638.123.319.982.202 1.659-.223 1.287-.357 2.063-1.051 2.339-.128.05-.263.075-.399.075z"/></g></g></g></g></g><g><g><g><g><g><path d="m46.446 61.283c-.128 0-.256-.049-.354-.146l-3.982-3.982c-.035-.029-.065-.063-.091-.102-.063-.093-.089-.213-.081-.329v-5.319c0-.276.224-.5.5-.5s.527.224.527.5c0 .061-.01.119-.027.173v4.991l3.861 3.861c.195.195.195.512 0 .707-.098.097-.225.146-.353.146z"/></g></g></g></g></g><g><g><g><g><g><path d="m37.122 60.079c-.276 0-.5-.224-.5-.5v-8.387c0-.276.224-.5.5-.5s.5.224.5.5v8.387c0 .276-.224.5-.5.5z"/></g></g></g></g></g><g><g><g><g><g><path d="m32.244 59.645c-.276 0-.5-.224-.5-.5v-7.954c0-.276.224-.5.5-.5s.5.224.5.5v7.954c0 .277-.223.5-.5.5z"/></g></g></g></g></g><g><g><g><g><g><path d="m27.696 58.598c-.276 0-.5-.224-.5-.5v-6.468c0-.276.224-.5.5-.5s.5.224.5.5v6.467c0 .277-.224.501-.5.501z"/></g></g></g></g></g><g><g><g><g><g><path d="m19.247 61.977c-.132 0-.263-.052-.361-.154-.191-.2-.184-.516.016-.707 1.498-1.433 3.697-3.544 4.258-4.097v-5.195c0-.276.224-.5.5-.5s.5.224.5.5v5.4c0 .118-.042.232-.118.322-.135.161-3.156 3.055-4.449 4.292-.097.093-.222.139-.346.139z"/></g></g></g></g></g><g><g><g><g><g><path d="m47.647 63.878c-.4 0-.799-.134-1.154-.387-.423-.302-.718-.79-.807-1.339-.09-.551.035-1.109.341-1.531.384-.528 1.018-.844 1.695-.844.895 0 1.627.522 1.865 1.332.193.659.061 1.384-.355 1.94-.395.527-.972.829-1.585.829zm.075-3.101c-.359 0-.69.162-.887.432-.151.208-.21.493-.163.782.047.288.193.538.4.686.469.333 1.024.22 1.358-.227.232-.31.304-.696.197-1.06-.133-.452-.554-.613-.905-.613z"/></g></g></g></g></g><g><g><g><g><g><path d="m37.103 63.442c-.4 0-.799-.134-1.155-.387-.423-.301-.717-.789-.807-1.338-.09-.551.034-1.109.341-1.532.384-.528 1.018-.844 1.695-.844.896 0 1.627.523 1.865 1.332.193.659.061 1.384-.356 1.941-.393.527-.97.828-1.583.828zm.075-3.1c-.358 0-.69.162-.887.432-.151.208-.21.493-.163.783.047.288.193.538.4.685.467.332 1.023.22 1.358-.227.231-.31.303-.696.196-1.06-.131-.452-.553-.613-.904-.613z"/></g></g></g></g></g><g><g><g><g><g><path d="m32.226 62.746c-.4 0-.799-.134-1.155-.387-.423-.301-.718-.789-.808-1.339-.09-.551.034-1.109.341-1.531.384-.528 1.018-.844 1.695-.844.896 0 1.627.522 1.865 1.331.194.659.061 1.385-.355 1.941-.393.527-.971.829-1.583.829zm.074-3.101c-.358 0-.69.162-.887.432-.151.208-.21.493-.163.782.047.288.193.538.401.686.467.332 1.023.22 1.358-.227.232-.31.304-.696.197-1.06-.133-.451-.555-.613-.906-.613z"/></g></g></g></g></g><g><g><g><g><g><path d="m27.677 61.629c-.4 0-.799-.134-1.155-.387-.423-.301-.718-.789-.808-1.339-.09-.551.034-1.109.341-1.531.384-.528 1.018-.844 1.695-.844.896 0 1.627.523 1.865 1.332.193.659.061 1.384-.355 1.94-.393.527-.971.829-1.583.829zm.074-3.101c-.358 0-.69.162-.887.432-.151.208-.21.493-.163.782.047.288.193.538.401.686.467.332 1.023.22 1.358-.227.231-.31.303-.696.196-1.059-.132-.453-.554-.614-.905-.614z"/></g></g></g></g></g><g><g><g><g><g><path d="m18.316 64.993c-.4 0-.799-.134-1.155-.387-.423-.301-.718-.789-.807-1.338-.09-.551.034-1.109.341-1.531.384-.528 1.017-.844 1.695-.844.896 0 1.627.522 1.865 1.332.193.659.061 1.384-.356 1.94-.393.526-.971.828-1.583.828zm.074-3.101c-.358 0-.69.162-.887.432-.151.208-.21.493-.163.782.047.288.193.537.4.685.467.332 1.023.22 1.358-.227.232-.31.303-.696.196-1.06-.131-.451-.553-.612-.904-.612z"/></g></g></g></g></g><g><g><g><g><g><path d="m43.906 18.101c-.019 0-.039-.001-.059-.003-.274-.032-.471-.28-.438-.555.07-.541.276-1.797.103-2.309-.147-.435-.577-.854-.994-.824-.43.037-.754.505-.841.928-.114.552.025 1.16.159 1.747.062.269-.107.538-.376.599-.271.061-.538-.107-.599-.376-.15-.659-.321-1.406-.164-2.171.159-.772.77-1.641 1.735-1.723.978-.085 1.753.692 2.026 1.499.222.654.093 1.616-.01 2.388l-.046.358c-.03.255-.245.442-.496.442z"/></g></g></g></g></g><g><g><g><g><g><path d="m36.447 17.792c-.209 0-.404-.132-.474-.341-.576-1.721-.124-2.569.196-2.922.356-.393.882-.557 1.409-.433.607.141 1.104.638 1.295 1.298.196.676.065 1.372-.041 1.932-.051.271-.307.449-.584.398-.271-.051-.45-.313-.398-.584.09-.478.192-1.021.063-1.467-.108-.373-.36-.556-.561-.602-.101-.024-.291-.037-.443.131-.108.12-.429.613.012 1.932.088.262-.054.545-.315.633-.053.017-.106.025-.159.025z"/></g></g></g></g></g><g><g><g><g><g><path d="m33.449 17.817c-.036 0-.071-.004-.107-.012-.27-.059-.44-.326-.381-.595.099-.452.211-.964.107-1.394-.11-.458-.465-.681-.736-.623-.364.076-.656.718-.436 1.948.049.271-.132.531-.404.58-.271.051-.531-.132-.58-.404-.362-2.024.39-2.93 1.215-3.102.853-.177 1.688.425 1.914 1.369.157.653.013 1.312-.104 1.841-.051.233-.258.392-.488.392z"/></g></g></g></g></g><g><g><g><g><g><path d="m26.747 18.417c-.234 0-.444-.166-.49-.404-.123-.632-.277-1.419-.044-2.174.31-1.005 1.292-1.604 2.182-1.337.825.248 1.567 1.288.945 3.402-.078.265-.351.42-.621.338-.265-.078-.417-.355-.338-.621.388-1.32.142-2.037-.275-2.162-.321-.099-.772.132-.938.673-.159.516-.038 1.139.069 1.688.053.271-.124.534-.395.586-.031.008-.063.011-.095.011z"/></g></g></g></g></g><g><g><g><g><g><path d="m42.493 14.167h-.055c-.276 0-.5-.224-.5-.5v-5.325c-.007-.114.019-.231.081-.323.025-.039.056-.072.091-.102l3.982-3.982c.195-.195.512-.195.707 0s.195.512 0 .707l-3.861 3.861v5.009c.018.049.027.101.027.155.001.277-.196.5-.472.5z"/></g></g></g></g></g><g><g><g><g><g><path d="m37.122 14.99c-.276 0-.5-.224-.5-.5v-8.388c0-.276.224-.5.5-.5s.5.224.5.5v8.387c0 .277-.224.501-.5.501z"/></g></g></g></g></g><g><g><g><g><g><path d="m32.244 14.99c-.276 0-.5-.224-.5-.5v-7.954c0-.276.224-.5.5-.5s.5.224.5.5v7.954c0 .276-.223.5-.5.5z"/></g></g></g></g></g><g><g><g><g><g><path d="m27.696 15.314c-.276 0-.5-.224-.5-.5v-6.467c0-.276.224-.5.5-.5s.5.224.5.5v6.467c0 .276-.224.5-.5.5z"/></g></g></g></g></g><g><g><g><g><g><path d="m47.722 5.295c-.678 0-1.312-.316-1.695-.844-.307-.422-.432-.98-.341-1.531.089-.549.384-1.037.807-1.338.899-.64 2.087-.429 2.739.442.417.556.549 1.281.356 1.941-.239.807-.971 1.33-1.866 1.33zm-.649-2.9c-.208.148-.354.398-.4.685-.047.289.012.575.163.782.197.27.528.432.887.432.351 0 .772-.161.906-.613.106-.364.035-.75-.197-1.059-.327-.436-.855-.585-1.359-.227z"/></g></g></g></g></g><g><g><g><g><g><path d="m37.178 6.339c-.677 0-1.311-.315-1.695-.844-.307-.422-.431-.979-.341-1.531.089-.549.384-1.038.807-1.339.9-.641 2.087-.428 2.739.442.417.556.549 1.281.356 1.94-.239.81-.97 1.332-1.866 1.332zm-.649-2.899c-.208.148-.354.398-.4.686-.048.289.011.574.162.782.197.27.528.432.887.432.351 0 .773-.161.906-.613.106-.364.035-.75-.197-1.06-.325-.434-.852-.587-1.358-.227z"/></g></g></g></g></g><g><g><g><g><g><path d="m32.301 7.036c-.678 0-1.312-.316-1.695-.844-.307-.421-.432-.979-.342-1.53.09-.55.384-1.038.808-1.339.899-.64 2.087-.429 2.739.442.416.556.549 1.282.355 1.941-.238.808-.97 1.33-1.865 1.33zm-.65-2.899c-.208.148-.354.398-.401.686-.047.289.013.574.164.781.197.271.528.433.887.433.351 0 .772-.161.905-.613.107-.364.036-.75-.196-1.06-.326-.436-.854-.586-1.359-.227z"/></g></g></g></g></g><g><g><g><g><g><path d="m27.751 8.915c-.677 0-1.311-.315-1.695-.844-.641-.881-.425-2.235.466-2.87.899-.64 2.087-.428 2.739.442.416.556.549 1.282.355 1.941-.237.809-.969 1.331-1.865 1.331zm-.649-2.899c-.436.311-.553 1.033-.237 1.468.197.27.528.432.886.432.351 0 .773-.161.906-.613.107-.364.035-.75-.197-1.06-.328-.439-.856-.584-1.358-.227z"/></g></g></g></g></g><g><g><g><g><g><g><path d="m22.631 18.239c-.227 0-.433-.156-.486-.387-.414-1.775.215-3.677 1.319-3.991.385-.109 1.344-.158 1.982 1.739.231.691.279 1.422.136 2.114-.056.271-.322.444-.59.389-.27-.056-.445-.32-.389-.59.107-.52.071-1.071-.105-1.594-.294-.873-.627-1.14-.761-1.096-.408.116-.95 1.379-.619 2.803.063.269-.105.538-.374.6-.038.008-.076.013-.113.013z"/></g></g></g></g></g><g><g><g><g><g><path d="m23.659 14.663c-.276 0-.5-.224-.5-.5v-5.197c-.544-.537-2.755-2.658-4.258-4.096-.2-.191-.206-.507-.016-.707.191-.2.508-.207.707-.016 1.292 1.237 4.313 4.131 4.449 4.293.076.09.117.204.117.321v5.4c.001.278-.223.502-.499.502z"/></g></g></g></g></g><g><g><g><g><g><path d="m18.39 5.093c-.678 0-1.312-.315-1.695-.844-.641-.881-.425-2.235.466-2.87.9-.641 2.088-.428 2.739.442.417.556.549 1.281.356 1.94-.238.81-.97 1.332-1.866 1.332zm-.649-2.899c-.436.311-.554 1.033-.237 1.468.197.271.528.432.887.432.351 0 .773-.161.906-.613.107-.364.035-.75-.197-1.06-.325-.434-.853-.587-1.359-.227z"/></g></g></g></g></g></g><g><g><g><g><g><path d="m46.29 46.83-4.222-4.222c-.098-.098-.098-.256 0-.354s.256-.098.354 0l4.222 4.222c.098.098.098.256 0 .354s-.257.098-.354 0z"/></g></g></g></g></g><g><g><g><g><g><path d="m26.938 30.611c-.944 0-1.869-.25-2.602-.702-1.798-1.109-2.785-3.663-2.246-5.813.796-3.179 4.632-3.693 7.012-1.769.843.682 1.475 1.635 1.827 2.756.961 3.063-.846 5.528-3.991 5.528zm-3.879-6.273c-.432 1.724.376 3.841 1.801 4.719.579.357 1.316.553 2.078.553 2.443 0 3.803-1.782 3.037-4.229-.293-.932-.813-1.72-1.502-2.278-1.824-1.475-4.807-1.183-5.414 1.235z"/></g></g></g></g></g><g><g><g><g><g><path d="m47.251 45.416-4.254-4.254c-.098-.098-.098-.256 0-.354s.256-.098.354 0l4.254 4.254c.098.098.098.256 0 .354s-.257.098-.354 0z"/></g></g></g></g></g><g><g><g><g><g><path d="m47.196 42.512-3.171-3.171c-.098-.098-.098-.256 0-.354s.256-.098.354 0l3.171 3.171c.098.098.098.256 0 .354-.099.097-.257.097-.354 0z"/></g></g></g></g></g><g><g><g><g><g><path d="m47.548 40.482-2.776-2.776c-.098-.098-.098-.256 0-.354s.256-.098.354 0l2.776 2.776c.098.098.098.256 0 .354-.099.098-.257.098-.354 0z"/></g></g></g></g></g><g><g><g><g><g><path d="m47.489 38.088-2.11-2.11c-.098-.098-.098-.256 0-.354s.256-.098.354 0l2.11 2.11c.098.098.098.256 0 .354-.098.097-.256.097-.354 0z"/></g></g></g></g></g><g><g><g><g><g><path d="m47.412 35.676-1.379-1.379c-.098-.098-.098-.256 0-.354s.256-.098.354 0l1.379 1.379c.098.098.098.256 0 .354-.098.097-.256.097-.354 0z"/></g></g></g></g></g><g><g><g><g><g><path d="m47.469 34.05-1.202-1.202c-.098-.098-.098-.256 0-.354s.256-.098.354 0l1.202 1.202c.098.098.098.256 0 .353-.099.099-.257.099-.354.001z"/></g></g></g></g></g><g><g><g><g><g><path d="m44.427 47.356-4.232-4.232c-.098-.098-.098-.256 0-.353.098-.098.256-.098.354 0l4.232 4.232c.098.098.098.256 0 .354-.099.097-.257.097-.354-.001z"/></g></g></g></g></g><g><g><g><g><g><path d="m42.076 47.564c-.161 0-3.729-3.626-3.843-3.74-.098-.098-.098-.256 0-.354s.256-.098.354 0l3.667 3.667c.098.098.098.256 0 .354-.05.049-.114.073-.178.073z"/></g></g></g></g></g><g><g><g><g><g><path d="m39.381 48.056-3.297-3.297c-.098-.098-.098-.256 0-.353.098-.098.256-.098.354 0l3.297 3.297c.237.236-.125.582-.354.353z"/></g></g></g></g></g><g><g><g><g><g><path d="m36.762 48.332-2.92-2.92c-.098-.098-.098-.256 0-.354s.256-.098.354 0l2.92 2.92c.098.098.098.256 0 .353-.098.099-.256.099-.354.001z"/></g></g></g></g></g><g><g><g><g><g><path d="m34.59 48.636-2.569-2.569c-.098-.098-.098-.256 0-.354s.256-.098.354 0l2.569 2.569c.098.098.098.256 0 .354-.098.097-.256.097-.354 0z"/></g></g></g></g></g><g><g><g><g><g><path d="m32.395 48.729-2.336-2.335c-.098-.098-.098-.256 0-.354s.256-.098.354 0l2.336 2.336c.098.098.098.256 0 .354-.098.097-.257.097-.354-.001z"/></g></g></g></g></g><g><g><g><g><g><path d="m30.168 48.744-2.584-2.584c-.098-.098-.098-.256 0-.354s.256-.098.354 0l2.584 2.584c.098.098.098.256 0 .354s-.257.098-.354 0z"/></g></g></g></g></g><g><g><g><g><g><path d="m27.133 48.932-2.492-2.492c-.098-.098-.098-.256 0-.354s.256-.098.353 0l2.492 2.492c.098.098.098.256 0 .354-.097.098-.255.098-.353 0z"/></g></g></g></g></g><g><g><g><g><g><path d="m24.601 48.549-2.482-2.482c-.098-.098-.098-.256 0-.354s.256-.098.353 0l2.482 2.482c.098.098.098.256 0 .354-.097.097-.255.097-.353 0z"/></g></g></g></g></g><g><g><g><g><g><path d="m22.517 47.959-1.939-1.94c-.098-.098-.098-.256 0-.353.098-.098.256-.098.354 0l1.939 1.94c.098.098.098.256 0 .354-.098.097-.256.097-.354-.001z"/></g></g></g></g></g><g><g><g><g><g><path d="m21.138 47.654c-.098-.098-.098-.256 0-.353l1.962-1.962c.098-.098.256-.098.354 0s.098.256 0 .354l-1.962 1.962c-.098.097-.256.097-.354-.001z"/></g></g></g></g></g><g><g><g><g><g><path d="m22.959 47.935c-.098-.098-.098-.256 0-.354l2.451-2.451c.098-.098.256-.098.353 0 .098.098.098.256 0 .354l-2.451 2.451c-.097.097-.255.097-.353 0z"/></g></g></g></g></g><g><g><g><g><g><path d="m25.295 47.861 2.822-2.822c.098-.098.256-.098.353 0 .098.098.098.256 0 .354l-2.822 2.822c-.232.232-.588-.119-.353-.354z"/></g></g></g></g></g><g><g><g><g><g><path d="m27.723 48.588c-.098-.098-.098-.256 0-.354l3.362-3.362c.098-.098.256-.098.353 0 .098.098.098.256 0 .354l-3.362 3.362c-.097.098-.255.098-.353 0z"/></g></g></g></g></g><g><g><g><g><g><path d="m30.526 47.955 4.227-4.228c.098-.098.256-.098.354 0s.098.256 0 .354l-4.228 4.228c-.232.231-.587-.12-.353-.354z"/></g></g></g></g></g><g><g><g><g><g><path d="m33.235 48.355c-.098-.098-.098-.256 0-.354l4.941-4.941c.098-.098.256-.098.354 0s.098.256 0 .354l-4.941 4.941c-.098.098-.256.098-.354 0z"/></g></g></g></g></g><g><g><g><g><g><path d="m36.224 48.308c-.098-.098-.098-.256 0-.354l5.652-5.652c.098-.098.256-.098.354 0s.098.256 0 .354l-5.652 5.652c-.098.098-.256.098-.354 0z"/></g></g></g></g></g><g><g><g><g><g><path d="m38.56 48.122c-.098-.098-.098-.256 0-.354l6.329-6.329c.098-.098.256-.098.354 0s.098.256 0 .354l-6.329 6.329c-.098.097-.256.097-.354 0z"/></g></g></g></g></g><g><g><g><g><g><path d="m41.409 47.421c-.098-.098-.098-.256 0-.354l4.757-4.757c.098-.098.256-.098.354 0s.098.256 0 .354l-4.757 4.757c-.098.098-.256.098-.354 0z"/></g></g></g></g></g><g><g><g><g><g><path d="m44.958 39.247c-.098-.098-.098-.256 0-.354l2.313-2.312c.098-.098.256-.098.354 0s.098.256 0 .354l-2.313 2.312c-.098.098-.256.098-.354 0z"/></g></g></g></g></g><g><g><g><g><g><path d="m45.239 36.725c-.098-.098-.098-.256 0-.354l2.157-2.157c.098-.098.256-.098.354 0s.098.256 0 .354l-2.157 2.157c-.099.098-.257.098-.354 0z"/></g></g></g></g></g><g><g><g><g><g><path d="m46.079 33.782c-.098-.098-.098-.256 0-.354l.936-.935c.098-.098.256-.098.353 0 .098.098.098.256 0 .354l-.936.935c-.097.098-.255.098-.353 0z"/></g></g></g></g></g><g><g><g><g><g><path d="m25.111 25.352-2.096-2.096c-.098-.098-.098-.256 0-.353.098-.098.256-.098.353 0l2.096 2.096c.098.098.098.256 0 .354-.097.096-.255.096-.353-.001z"/></g></g></g></g></g><g><g><g><g><g><path d="m26.104 24.125-1.87-1.87c-.098-.098-.098-.256 0-.353.098-.098.256-.098.354 0l1.87 1.87c.098.098.098.256 0 .353-.098.098-.257.098-.354 0z"/></g></g></g></g></g><g><g><g><g><g><path d="m27.821 23.405-1.587-1.587c-.098-.098-.098-.256 0-.353.098-.098.256-.098.354 0l1.587 1.587c.098.098.098.256 0 .354-.099.097-.257.097-.354-.001z"/></g></g></g></g></g><g><g><g><g><g><path d="m24.655 26.551-2.046-2.046c-.098-.098-.098-.256 0-.353.098-.098.256-.098.354 0l2.046 2.046c.098.098.098.256 0 .354-.098.097-.256.097-.354-.001z"/></g></g></g></g></g><g><g><g><g><g><path d="m24.082 28.062c-.167 0-1.637-1.533-1.755-1.651-.098-.098-.098-.256 0-.354s.256-.098.354 0l1.578 1.578c.098.098.098.256 0 .354-.049.049-.113.073-.177.073z"/></g></g></g></g></g><g><g><g><g><g><path d="m23.546 28.442c-.098-.098-.098-.256 0-.354l2.05-2.05c.098-.098.256-.098.353 0 .098.098.098.256 0 .354l-2.05 2.05c-.097.097-.255.097-.353 0z"/></g></g></g></g></g><g><g><g><g><g><path d="m22.921 26.161c-.098-.098-.098-.256 0-.354l2.141-2.14c.232-.232.588.119.354.354l-2.141 2.14c-.098.098-.256.098-.354 0z"/></g></g></g></g></g><g><g><g><g><g><path d="m25.889 23.527 1.146-1.146c.098-.098.256-.098.354 0s.098.256 0 .353l-1.146 1.146c-.232.233-.588-.119-.354-.353z"/></g></g></g></g></g></g></svg>