<svg id="Layer_1" enable-background="new 0 0 66 66" height="512" viewBox="0 0 66 66" width="512" xmlns="http://www.w3.org/2000/svg"><g><g><g><g><g><g><g><g><path d="m23.54 55.711c-.136 0-.271-.057-.366-.166-1.766-2.019-3.566-4.127-5.365-6.236-1.788-2.095-3.575-4.19-5.33-6.196-.142-.162-.16-.399-.044-.581.644-1.009 1.296-2.025 1.948-3.035 7.761-12.055 20.752-32.235 41.547-37.186 1.154-.277 2.246-.417 3.246-.417 2.268 0 3.918.712 4.903 2.115 2.561 3.673.009 20.53-16.329 35.13-6.247 5.643-13.403 10.197-20.207 14.278-1.251.746-2.5 1.49-3.758 2.228-.076.045-.161.066-.245.066zm-10.089-12.963c1.68 1.925 3.389 3.928 5.098 5.93 1.707 2 3.414 4.001 5.092 5.924 1.138-.669 2.271-1.344 3.403-2.02 6.76-4.055 13.869-8.578 20.056-14.167 15.251-13.629 18.727-30.2 16.182-33.849-.792-1.128-2.174-1.7-4.107-1.7-.923 0-1.94.132-3.02.391-20.414 4.861-33.272 24.834-40.955 36.767-.585.906-1.17 1.818-1.749 2.724z"/></g></g></g></g></g><g><g><g><g><g><path d="m37.368 64.111c-.129 0-.257-.051-.353-.151-3.15-3.319-6.301-6.643-9.452-9.968l-.623-.657c-.102-.107-.149-.254-.129-.4s.105-.275.232-.351c6.761-4.056 13.871-8.579 20.058-14.168.139-.127.342-.16.516-.086s.29.243.296.432c.304 9.816-3.517 19.247-10.221 25.226-.093.082-.209.123-.324.123zm-9.306-11.006.206.218c3.042 3.21 6.082 6.419 9.124 9.623 6.039-5.586 9.566-14.123 9.564-23.1-5.896 5.178-12.534 9.431-18.894 13.259z"/></g></g></g></g></g><g><g><g><g><g><path d="m14.791 40.247c-.121 0-.239-.045-.329-.128-3.862-3.552-7.716-7.104-11.578-10.664-.193-.178-.21-.478-.038-.676 5.749-6.629 14.901-10.587 24.482-10.587 1.03 0 2.069.046 3.087.138.186.017.345.138.411.311.066.174.027.37-.1.506-6.089 6.468-11.009 13.86-15.526 20.877-.078.121-.205.201-.347.219-.02.003-.041.004-.062.004zm-10.899-11.184c3.603 3.321 7.2 6.636 10.803 9.95 4.284-6.643 8.943-13.594 14.632-19.789-.665-.039-1.334-.059-1.999-.059-9.132 0-17.853 3.692-23.436 9.898z"/></g></g></g></g></g><g><g><g><g><g><path d="m60.757 21.999c-.125 0-.247-.048-.338-.137l-.41-.398c-4.911-4.768-9.816-9.53-14.729-14.307-.111-.108-.164-.262-.142-.416.021-.153.115-.287.251-.361 3.458-1.859 7.004-3.228 10.541-4.069 1.154-.277 2.246-.417 3.246-.417 2.268 0 3.918.712 4.903 2.115 2.712 3.89-1.274 14.355-2.884 17.714-.067.141-.199.241-.353.268-.028.005-.056.008-.085.008zm-14.32-15.073c4.724 4.593 9.443 9.175 14.167 13.761 1.897-4.213 4.81-13.063 2.678-16.121-.792-1.128-2.174-1.7-4.107-1.7-.923 0-1.94.132-3.02.391-3.256.774-6.521 2.007-9.718 3.669z"/></g></g></g></g></g><g><g><g><g><g><path d="m4.82 61.447c-1.166 0-2.322-.12-3.435-.358-.127-.027-.238-.104-.308-.213-.07-.11-.093-.243-.065-.369 1.082-4.782 4.147-9.097 8.197-11.543.194-.118.446-.084.602.08.158.164.18.415.054.605-1.229 1.851-2.124 3.86-2.664 5.978 3.546.644 7.44.124 10.887-1.45.205-.094.448-.035.586.145.138.178.135.429-.008.604-3.271 4.022-8.577 6.521-13.846 6.521zm-2.742-1.213c.894.16 1.815.241 2.742.241 4.27 0 8.563-1.733 11.651-4.62-2.014.669-4.12 1.018-6.19 1.018-1.28 0-2.549-.132-3.771-.394-.129-.027-.24-.103-.31-.213s-.093-.243-.064-.369c.381-1.676.972-3.29 1.762-4.819-2.794 2.285-4.894 5.564-5.82 9.156z"/></g></g></g></g></g></g><g><g><g><g><g><path d="m40.338 30.67c-1.78 0-3.142-.836-3.838-2.355-.916-2.001-.438-4.694 1.163-6.548 1.136-1.316 2.992-2.134 4.846-2.134 2.316 0 4.056 1.227 4.656 3.28.505 1.73.038 3.725-1.218 5.208-1.122 1.324-2.795 2.206-4.712 2.482-.314.045-.613.067-.897.067zm2.172-10.064c-1.579 0-3.154.688-4.11 1.797-1.339 1.551-1.766 3.867-1.014 5.508.373.815 1.189 1.787 2.953 1.787.24 0 .493-.018.758-.057 1.657-.238 3.154-1.021 4.109-2.147 1.032-1.218 1.435-2.908 1.027-4.307-.681-2.33-2.83-2.581-3.723-2.581z"/></g></g></g></g></g><g><g><g><g><g><path d="m34.012 53.112h-6.298c-.134 0-.243-.109-.243-.243s.109-.243.243-.243h6.298c.134 0 .243.109.243.243s-.108.243-.243.243z"/></g></g></g></g></g><g><g><g><g><g><path d="m33.993 54.605h-5.098c-.134 0-.243-.109-.243-.243s.109-.243.243-.243h5.098c.134 0 .243.109.243.243s-.109.243-.243.243z"/></g></g></g></g></g><g><g><g><g><g><path d="m34.816 56.373h-4.256c-.134 0-.243-.109-.243-.243s.109-.243.243-.243h4.256c.134 0 .243.109.243.243s-.109.243-.243.243z"/></g></g></g></g></g><g><g><g><g><g><path d="m35.464 58.296h-3.34c-.134 0-.243-.109-.243-.243s.109-.243.243-.243h3.34c.134 0 .243.109.243.243s-.109.243-.243.243z"/></g></g></g></g></g><g><g><g><g><g><path d="m36.311 59.783h-2.854c-.134 0-.243-.109-.243-.243s.109-.243.243-.243h2.854c.134 0 .243.109.243.243s-.109.243-.243.243z"/></g></g></g></g></g><g><g><g><g><g><path d="m36.834 61.244h-1.813c-.134 0-.243-.109-.243-.243s.109-.243.243-.243h1.813c.134 0 .243.109.243.243s-.109.243-.243.243z"/></g></g></g></g></g><g><g><g><g><g><path d="m33.951 51.349h-3.134c-.134 0-.243-.109-.243-.243s.109-.243.243-.243h3.134c.134 0 .243.109.243.243s-.109.243-.243.243z"/></g></g></g></g></g><g><g><g><g><g><path d="m36.586 49.503h-2.693c-.134 0-.243-.109-.243-.243s.109-.243.243-.243h2.693c.134 0 .243.109.243.243s-.109.243-.243.243z"/></g></g></g></g></g><g><g><g><g><g><path d="m38.459 47.606h-1.695c-.134 0-.243-.109-.243-.243s.109-.243.243-.243h1.695c.134 0 .243.109.243.243s-.108.243-.243.243z"/></g></g></g></g></g><g><g><g><g><g><path d="m40.306 46.35h-2.029c-.134 0-.243-.109-.243-.243s.109-.243.243-.243h2.029c.134 0 .243.109.243.243s-.109.243-.243.243z"/></g></g></g></g></g><g><g><g><g><g><path d="m41.705 45.35h-1.762c-.134 0-.243-.109-.243-.243s.109-.243.243-.243h1.762c.134 0 .243.109.243.243s-.109.243-.243.243z"/></g></g></g></g></g><g><g><g><g><g><path d="m31.868 54.689c-.134 0-.243-.109-.243-.243v-4.032c0-.134.109-.243.243-.243s.243.109.243.243v4.032c0 .134-.109.243-.243.243z"/></g></g></g></g></g><g><g><g><g><g><path d="m30.073 55.282c-.134 0-.243-.109-.243-.243v-3.087c0-.134.109-.243.243-.243s.243.109.243.243v3.087c0 .134-.109.243-.243.243z"/></g></g></g></g></g><g><g><g><g><g><path d="m33.534 58.095c-.134 0-.243-.109-.243-.243v-4.029c0-.134.109-.243.243-.243s.243.109.243.243v4.029c0 .134-.109.243-.243.243z"/></g></g></g></g></g><g><g><g><g><g><path d="m32.022 57.786c-.134 0-.243-.109-.243-.243v-1.849c0-.134.109-.243.243-.243s.243.109.243.243v1.849c0 .135-.109.243-.243.243z"/></g></g></g></g></g><g><g><g><g><g><path d="m34.79 60.27c-.134 0-.243-.109-.243-.243v-2.333c0-.134.109-.243.243-.243s.243.109.243.243v2.333c0 .134-.109.243-.243.243z"/></g></g></g></g></g><g><g><g><g><g><path d="m35.943 61.401c-.134 0-.243-.109-.243-.243v-1.542c0-.134.109-.243.243-.243s.243.109.243.243v1.542c0 .135-.108.243-.243.243z"/></g></g></g></g></g><g><g><g><g><g><path d="m36.02 49.375c-.134 0-.243-.109-.243-.243v-1.436c0-.134.109-.243.243-.243s.243.109.243.243v1.436c0 .134-.108.243-.243.243z"/></g></g></g></g></g><g><g><g><g><g><path d="m38.097 47.434c-.134 0-.243-.109-.243-.243v-1.161c0-.134.109-.243.243-.243s.243.109.243.243v1.161c0 .134-.109.243-.243.243z"/></g></g></g></g></g><g><g><g><g><g><path d="m39.968 46.222c-.134 0-.243-.109-.243-.243v-1.462c0-.134.109-.243.243-.243s.243.109.243.243v1.462c0 .134-.108.243-.243.243z"/></g></g></g></g></g><g><g><g><g><g><path d="m40.696 30.249c-.062 0-.124-.024-.172-.071l-2.027-2.027c-.095-.095-.095-.249 0-.344s.249-.095.344 0l2.027 2.027c.095.095.095.249 0 .344-.047.047-.109.071-.172.071z"/></g></g></g></g></g><g><g><g><g><g><path d="m42.136 29.873c-.062 0-.124-.024-.172-.071l-1.654-1.654c-.095-.095-.095-.249 0-.344s.249-.095.344 0l1.654 1.654c.095.095.095.249 0 .344-.047.047-.11.071-.172.071z"/></g></g></g></g></g><g><g><g><g><g><path d="m43.785 29.087c-.062 0-.124-.024-.172-.071l-1.765-1.765c-.095-.095-.095-.249 0-.344s.249-.095.344 0l1.765 1.765c.095.095.095.249 0 .344-.048.048-.11.071-.172.071z"/></g></g></g></g></g><g><g><g><g><g><path d="m45.019 28.05c-.062 0-.124-.024-.172-.071l-1.556-1.556c-.095-.095-.095-.249 0-.344s.249-.095.344 0l1.556 1.556c.095.095.095.249 0 .344-.048.047-.11.071-.172.071z"/></g></g></g></g></g><g><g><g><g><g><path d="m45.963 26.261c-.062 0-.124-.024-.172-.071l-1.272-1.272c-.095-.095-.095-.249 0-.344s.249-.095.344 0l1.272 1.272c.095.095.095.249 0 .344-.048.047-.11.071-.172.071z"/></g></g></g></g></g><g><g><g><g><g><path d="m46.17 24.289c-.062 0-.124-.024-.172-.071l-1.203-1.203c-.095-.095-.095-.249 0-.344s.249-.095.344 0l1.203 1.203c.095.095.095.249 0 .344-.048.047-.11.071-.172.071z"/></g></g></g></g></g><g><g><g><g><g><path d="m38.581 29.471c-.062 0-.124-.024-.172-.071-.095-.095-.095-.249 0-.344l2.814-2.814c.095-.095.249-.095.344 0s.095.249 0 .344l-2.814 2.814c-.047.048-.11.071-.172.071z"/></g></g></g></g></g><g><g><g><g><g><path d="m41.037 29.809c-.062 0-.124-.024-.172-.071-.095-.095-.095-.249 0-.344l3.088-3.088c.095-.095.249-.095.344 0s.095.249 0 .344l-3.088 3.088c-.047.047-.11.071-.172.071z"/></g></g></g></g></g><g><g><g><g><g><path d="m44.383 28.151c-.062 0-.124-.024-.172-.071-.095-.095-.095-.249 0-.344l1.784-1.784c.095-.095.249-.095.344 0s.095.249 0 .344l-1.784 1.784c-.047.047-.11.071-.172.071z"/></g></g></g></g></g><g><g><g><g><g><path d="m44.752 24.928c-.062 0-.124-.024-.172-.071-.095-.095-.095-.249 0-.344l1.244-1.244c.095-.095.249-.095.344 0s.095.249 0 .344l-1.244 1.244c-.048.047-.11.071-.172.071z"/></g></g></g></g></g><g><g><g><g><g><path d="m14.444 38.741c-.134 0-.243-.109-.243-.243v-4.054c0-.134.109-.243.243-.243s.243.109.243.243v4.054c0 .135-.109.243-.243.243z"/></g></g></g></g></g><g><g><g><g><g><path d="m16.289 35.676c-.134 0-.243-.109-.243-.243v-2.698c0-.134.109-.243.243-.243s.243.109.243.243v2.698c0 .134-.108.243-.243.243z"/></g></g></g></g></g><g><g><g><g><g><path d="m18.204 33.075c-.134 0-.243-.109-.243-.243v-2.079c0-.134.109-.243.243-.243s.243.109.243.243v2.079c0 .134-.109.243-.243.243z"/></g></g></g></g></g><g><g><g><g><g><path d="m20.323 30.659c-.134 0-.243-.109-.243-.243v-1.919c0-.134.109-.243.243-.243s.243.109.243.243v1.919c0 .134-.109.243-.243.243z"/></g></g></g></g></g><g><g><g><g><g><path d="m21.416 28.558c-.134 0-.243-.109-.243-.243v-2.62c0-.134.109-.243.243-.243s.243.109.243.243v2.62c0 .134-.108.243-.243.243z"/></g></g></g></g></g><g><g><g><g><g><path d="m12.188 36.328c-.134 0-.243-.109-.243-.243v-3.076c0-.134.109-.243.243-.243s.243.109.243.243v3.076c0 .134-.108.243-.243.243z"/></g></g></g></g></g><g><g><g><g><g><path d="m10.479 35.106c-.134 0-.243-.109-.243-.243v-2.606c0-.134.109-.243.243-.243s.243.109.243.243v2.606c0 .134-.109.243-.243.243z"/></g></g></g></g></g><g><g><g><g><g><path d="m9.043 33.944c-.134 0-.243-.109-.243-.243v-2.606c0-.134.109-.243.243-.243s.243.109.243.243v2.606c0 .134-.108.243-.243.243z"/></g></g></g></g></g><g><g><g><g><g><path d="m7.266 32.296c-.134 0-.243-.109-.243-.243v-2.12c0-.134.109-.243.243-.243s.243.109.243.243v2.12c0 .134-.108.243-.243.243z"/></g></g></g></g></g><g><g><g><g><g><path d="m5.421 30.724c-.134 0-.243-.109-.243-.243v-1.232c0-.134.109-.243.243-.243s.243.109.243.243v1.232c0 .135-.109.243-.243.243z"/></g></g></g></g></g><g><g><g><g><g><path d="m9.036 30.039h-4.368c-.134 0-.243-.109-.243-.243s.109-.243.243-.243h4.368c.134 0 .243.109.243.243s-.109.243-.243.243z"/></g></g></g></g></g><g><g><g><g><g><path d="m10.849 31.679h-4.13c-.134 0-.243-.109-.243-.243s.109-.243.243-.243h4.129c.134 0 .243.109.243.243s-.108.243-.242.243z"/></g></g></g></g></g><g><g><g><g><g><path d="m12.759 34.209h-3.579c-.134 0-.243-.109-.243-.243s.109-.243.243-.243h3.579c.134 0 .243.109.243.243s-.109.243-.243.243z"/></g></g></g></g></g><g><g><g><g><g><path d="m14.31 35.713h-3.762c-.134 0-.243-.109-.243-.243s.109-.243.243-.243h3.762c.134 0 .243.109.243.243s-.109.243-.243.243z"/></g></g></g></g></g><g><g><g><g><g><path d="m15.357 37.695h-2.417c-.134 0-.243-.109-.243-.243s.109-.243.243-.243h2.417c.134 0 .243.109.243.243s-.109.243-.243.243z"/></g></g></g></g></g><g><g><g><g><g><path d="m18.011 34.141h-2.952c-.134 0-.243-.109-.243-.243s.109-.243.243-.243h2.952c.134 0 .243.109.243.243s-.109.243-.243.243z"/></g></g></g></g></g><g><g><g><g><g><path d="m19.178 31.748h-2.204c-.134 0-.243-.109-.243-.243s.109-.243.243-.243h2.204c.134 0 .243.109.243.243s-.109.243-.243.243z"/></g></g></g></g></g><g><g><g><g><g><path d="m20.785 30.039h-2.239c-.134 0-.243-.109-.243-.243s.109-.243.243-.243h2.239c.134 0 .243.109.243.243s-.109.243-.243.243z"/></g></g></g></g></g><g><g><g><g><g><path d="m21.782 27.646h-1.596c-.134 0-.243-.109-.243-.243s.109-.243.243-.243h1.596c.134 0 .243.109.243.243s-.109.243-.243.243z"/></g></g></g></g></g></g><g><g><g><g><g><path d="m51.102 7.394c-.062 0-.124-.024-.172-.071l-1.904-1.904c-.095-.095-.095-.249 0-.344s.249-.095.344 0l1.904 1.904c.095.095.095.249 0 .344-.047.048-.109.071-.172.071z"/></g></g></g></g></g><g><g><g><g><g><path d="m53.006 6.269c-.062 0-.124-.024-.172-.071l-1.731-1.731c-.095-.095-.095-.249 0-.344s.249-.095.344 0l1.731 1.731c.095.095.095.249 0 .344-.047.048-.11.071-.172.071z"/></g></g></g></g></g><g><g><g><g><g><path d="m55.364 5.47c-.062 0-.124-.024-.172-.071l-1.882-1.884c-.095-.095-.095-.249 0-.344s.249-.095.344 0l1.883 1.883c.095.095.095.249 0 .344-.048.048-.11.072-.173.072z"/></g></g></g></g></g><g><g><g><g><g><path d="m56.925 4.348c-.062 0-.124-.024-.172-.071l-1.41-1.41c-.095-.095-.095-.249 0-.344s.249-.095.344 0l1.41 1.41c.095.095.095.249 0 .344-.048.047-.11.071-.172.071z"/></g></g></g></g></g><g><g><g><g><g><path d="m58.635 4.155c-.062 0-.124-.024-.172-.071l-1.477-1.477c-.095-.095-.095-.249 0-.344s.249-.095.344 0l1.477 1.477c.095.095.095.249 0 .344-.047.047-.109.071-.172.071z"/></g></g></g></g></g><g><g><g><g><g><path d="m60.602 4.131c-.062 0-.124-.024-.172-.071l-1.756-1.755c-.095-.095-.095-.249 0-.344s.249-.095.344 0l1.756 1.755c.095.095.095.249 0 .344-.048.047-.11.071-.172.071z"/></g></g></g></g></g><g><g><g><g><g><path d="m62.251 4.309c-.062 0-.124-.024-.172-.071l-1.588-1.588c-.095-.095-.095-.249 0-.344s.249-.095.344 0l1.588 1.588c.095.095.095.249 0 .344-.048.047-.11.071-.172.071z"/></g></g></g></g></g><g><g><g><g><g><path d="m49.313 7.811c-.062 0-.124-.024-.172-.071l-1.759-1.759c-.095-.095-.095-.249 0-.344s.249-.095.344 0l1.759 1.759c.095.095.095.249 0 .344-.047.047-.11.071-.172.071z"/></g></g></g></g></g><g><g><g><g><g><path d="m48.03 7.913c-.062 0-.124-.024-.172-.071-.095-.095-.095-.249 0-.344l2.409-2.409c.095-.095.249-.095.344 0s.095.249 0 .344l-2.409 2.409c-.047.047-.11.071-.172.071z"/></g></g></g></g></g><g><g><g><g><g><path d="m52.054 6.096c-.062 0-.124-.024-.172-.071-.095-.095-.095-.249 0-.344l2.124-2.124c.095-.095.249-.095.344 0s.095.249 0 .344l-2.124 2.124c-.048.047-.11.071-.172.071z"/></g></g></g></g></g><g><g><g><g><g><path d="m54.909 5.36c-.062 0-.124-.024-.172-.071-.095-.095-.095-.249 0-.344l1.971-1.971c.095-.095.249-.095.344 0s.095.249 0 .344l-1.971 1.971c-.047.048-.11.071-.172.071z"/></g></g></g></g></g><g><g><g><g><g><path d="m58.413 3.846c-.062 0-.124-.024-.172-.071-.095-.095-.095-.249 0-.344l1.085-1.085c.095-.095.249-.095.344 0s.095.249 0 .344l-1.085 1.085c-.047.047-.109.071-.172.071z"/></g></g></g></g></g><g><g><g><g><g><path d="m60.36 3.846c-.062 0-.124-.024-.172-.071-.095-.095-.095-.249 0-.344l.74-.74c.095-.095.249-.095.344 0s.095.249 0 .344l-.74.74c-.048.047-.11.071-.172.071z"/></g></g></g></g></g></g></svg>