<svg id="Layer_1" enable-background="new 0 0 66 66" height="512" viewBox="0 0 66 66" width="512" xmlns="http://www.w3.org/2000/svg"><g><g><g><g><g><g><g><g><g><path d="m18.109 60.776c-.486 0-.973-.018-1.458-.055-.209-.016-.386-.16-.443-.361-.058-.201.016-.417.185-.541 2.502-1.837 4.632-4.426 6.191-7.517-13.676-1.176-21.314-11.44-21.573-20.684-.244-8.846 5.758-16.119 11.813-19.403 6.531-3.539 13.843-3.939 21.221-3.805 6.321.118 12.984.641 18.892 3.652 6.566 3.352 11.142 9.633 11.939 16.391 1.144 9.709-5.792 24.052-24.207 24.052 0 0 .001 0 0 0-.992 0-2.038-.039-3.109-.115-.929-.066-1.914-.1-3.004-.105-1.068 1.51-2.316 2.851-3.712 3.985-3.573 2.906-8.096 4.506-12.735 4.506zm-.051-1.001h.052c4.409 0 8.708-1.521 12.104-4.281 1.388-1.129 2.623-2.473 3.67-3.994.094-.135.248-.216.412-.216 1.219 0 2.31.035 3.335.108 20.647 1.471 27.344-13.567 26.254-22.822-.76-6.43-5.129-12.415-11.401-15.617-5.727-2.919-12.254-3.428-18.456-3.543-7.163-.131-14.364.237-20.726 3.684-5.788 3.138-11.524 10.074-11.291 18.496.251 8.967 7.827 18.943 21.375 19.769.165.01.315.101.399.244.085.142.094.317.023.467-1.438 3.073-3.41 5.712-5.75 7.705z"/></g></g></g></g></g><g><g><g><g><g><g><g><path d="m28.716 40.627c-.168 0-.333-.015-.494-.045-1.235-.225-2.16-1.259-2.247-2.515-.089-1.295-.189-2.761.07-4.29.337-1.988 1.265-3.699 2.614-4.82 1.528-1.27 3.262-1.615 4.79-1.919.415-.083.752-.15 1.079-.232 1.612-.401 2.875-1.226 3.465-2.266.488-.859.428-2.051-.13-2.552-.421-.378-1.331-.49-2.068-.248-1.131.373-2.046 1.345-2.614 2.096-.888 1.172-2.674 1.423-3.851.532-.585-.443-.963-1.087-1.063-1.815-.101-.727.089-1.45.532-2.035 1.492-1.971 3.317-3.354 5.278-4 2.64-.869 5.56-.326 7.46 1.381 2.473 2.223 3.004 6.245 1.235 9.356-1.35 2.375-3.806 4.11-6.915 4.884-.437.108-.885.199-1.333.289-.933.186-1.896.377-2.354.757-.329.273-.593.837-.706 1.509-.15.888-.08 1.911-.005 2.993.104 1.512-1.042 2.827-2.554 2.932-.062.006-.126.008-.189.008zm7.926-20.021c.749 0 1.437.233 1.89.639.907.815 1.056 2.515.331 3.79s-2.216 2.275-4.092 2.742c-.343.086-.694.156-1.048.226-1.49.297-3.091.616-4.425 1.724-1.165.967-1.971 2.465-2.267 4.218-.24 1.411-.144 2.814-.059 4.052.055.801.643 1.458 1.43 1.602.103.019.207.028.314.028l.122-.004c.962-.066 1.69-.903 1.624-1.865-.079-1.143-.153-2.224.017-3.229.154-.914.538-1.684 1.054-2.112.652-.542 1.693-.749 2.796-.968.434-.087.866-.173 1.287-.279 2.842-.708 5.075-2.273 6.288-4.408 1.542-2.712 1.097-6.203-1.034-8.118-1.637-1.47-4.179-1.934-6.479-1.175-1.767.581-3.425 1.844-4.794 3.653-.282.372-.402.832-.339 1.295.064.463.305.873.677 1.155.751.567 1.885.405 2.45-.338.653-.864 1.723-1.989 3.099-2.442.373-.124.762-.186 1.158-.186z"/></g></g></g></g></g></g><g><g><g><g><g><path d="m28.593 48.032c-.934 0-1.819-.457-2.312-1.192-.44-.659-.589-1.517-.417-2.419.217-1.135.93-2.094 1.859-2.503 1.057-.467 2.159-.211 2.909.656.649.748.974 1.877.83 2.876-.167 1.158-1.013 2.152-2.104 2.473-.245.072-.502.109-.765.109zm.194-5.35c-.211 0-.433.051-.661.151-.633.279-1.123.959-1.279 1.776-.12.632-.023 1.243.266 1.675.39.583 1.265.888 1.964.68.713-.209 1.286-.891 1.397-1.656.104-.725-.129-1.541-.596-2.079-.217-.25-.581-.547-1.091-.547z"/></g></g></g></g></g></g></g><g><g><g><g><g><path d="m4.01 52.3c-2.981-2.745-2.826-7.456-1.687-10.948 3.02-9.263 11.661-15.491 19.717-20.361 8.203-4.96 16.797-9.472 25.543-13.411 4.004-1.803 9.802-3.845 13.92-.78 3.002 2.235 5.109 7.483 1.166 14.919-.13.244-.432.337-.676.208s-.337-.432-.207-.676c3.646-6.876 1.804-11.65-.881-13.649-3.692-2.75-9.138-.809-12.912.891-8.709 3.922-17.267 8.415-25.435 13.355-7.9 4.774-16.367 10.862-19.284 19.814-1.043 3.198-1.22 7.478 1.414 9.903 3.53 3.25 9.558 1.285 14.399-.294l.503-.164c.263-.084.545.059.63.321s-.059.544-.321.63l-.502.164c-5.101 1.662-11.427 3.723-15.387.078z"/></g></g></g></g></g><g><g><g><g><g><path d="m46.858 52.173-.585-.191c-.263-.085-.405-.368-.32-.63.086-.263.369-.407.631-.32l.586.191c4.902 1.607 11.002 3.608 14.549.342 2.633-2.423 2.458-6.705 1.415-9.903-2.919-8.952-11.386-15.04-19.284-19.816-8.172-4.941-16.73-9.434-25.436-13.355-3.774-1.7-9.221-3.64-12.912-.891-2.677 1.993-4.52 6.751-.906 13.6.129.244.035.547-.209.676-.242.128-.546.036-.676-.209-3.908-7.408-1.8-12.64 1.193-14.868 4.118-3.064 9.917-1.023 13.92.78 8.743 3.937 17.337 8.449 25.543 13.411 8.055 4.871 16.697 11.099 19.718 20.362 1.139 3.493 1.293 8.204-1.688 10.948-3.98 3.662-10.384 1.563-15.539-.127z"/></g></g></g></g></g></g><g><g><g><g><g><path d="m41.483 51.481-4.036-4.036c-.098-.098-.098-.256 0-.353.098-.098.256-.098.354 0l4.036 4.036c.098.098.098.256 0 .354-.098.097-.256.098-.354-.001z"/></g></g></g></g></g><g><g><g><g><g><path d="m44.408 51.346-3.9-3.9c-.098-.098-.098-.256 0-.353.098-.098.256-.098.354 0l3.9 3.9c.098.098.098.256 0 .354-.097.096-.255.097-.354-.001z"/></g></g></g></g></g><g><g><g><g><g><path d="m48.021 49.132-2.971-2.97c-.098-.098-.098-.256 0-.354s.256-.098.354 0l2.971 2.97c.098.098.098.256 0 .354-.098.097-.256.099-.354 0z"/></g></g></g></g></g><g><g><g><g><g><path d="m51.232 48.591-2.923-2.923c-.098-.098-.098-.256 0-.354s.256-.098.353 0l2.923 2.923c.098.098.098.256 0 .354-.097.097-.255.099-.353 0z"/></g></g></g></g></g><g><g><g><g><g><path d="m54.678 46.113-2.321-2.321c-.098-.098-.098-.256 0-.354s.256-.098.354 0l2.321 2.321c.098.098.098.256 0 .354-.098.097-.256.099-.354 0z"/></g></g></g></g></g><g><g><g><g><g><path d="m57.349 43.749-1.931-1.931c-.098-.098-.098-.256 0-.354.098-.099.256-.097.354 0l1.931 1.931c.098.098.098.256 0 .353-.098.098-.256.099-.354.001z"/></g></g></g></g></g><g><g><g><g><g><path d="m59.861 41.422-2.271-2.271c-.098-.098-.098-.256 0-.354s.256-.098.354 0l2.271 2.271c.098.098.098.256 0 .354-.097.097-.255.099-.354 0z"/></g></g></g></g></g><g><g><g><g><g><path d="m61.749 39.36-1.69-1.69c-.098-.098-.098-.256 0-.354s.256-.098.353 0l1.691 1.69c.098.098.098.256 0 .354-.097.097-.256.099-.354 0z"/></g></g></g></g></g><g><g><g><g><g><path d="m62.85 36.61-1.705-1.705c-.098-.098-.098-.256 0-.354s.256-.098.353 0l1.705 1.705c.098.098.098.256 0 .354-.097.097-.255.098-.353 0z"/></g></g></g></g></g><g><g><g><g><g><path d="m63.381 34.18-1.249-1.249c-.098-.098-.098-.256 0-.354s.256-.098.354 0l1.249 1.249c.098.098.098.256 0 .354-.098.097-.256.098-.354 0z"/></g></g></g></g></g><g><g><g><g><g><path d="m37.397 50.457-2.518-2.517c-.098-.098-.098-.256 0-.354s.256-.098.354 0l2.518 2.517c.098.098.098.256 0 .354-.098.097-.256.098-.354 0z"/></g></g></g></g></g><g><g><g><g><g><path d="m34.253 51.756-2.73-2.731c-.098-.098-.098-.256 0-.354s.256-.098.354 0l2.73 2.731c.098.098.098.256 0 .354-.098.097-.256.099-.354 0z"/></g></g></g></g></g><g><g><g><g><g><path d="m31.704 53.552-2.157-2.157c-.098-.098-.098-.256 0-.354s.256-.098.354 0l2.157 2.157c.098.098.098.256 0 .353-.097.098-.256.099-.354.001z"/></g></g></g></g></g><g><g><g><g><g><path d="m29.411 55.345-2.217-2.217c-.098-.098-.098-.256 0-.354s.256-.098.354 0l2.217 2.217c.098.098.098.256 0 .354-.097.097-.256.099-.354 0z"/></g></g></g></g></g><g><g><g><g><g><path d="m26.945 56.836-2.182-2.182c-.098-.098-.098-.256 0-.353.098-.098.256-.098.353 0l2.182 2.182c.098.098.098.256 0 .354-.096.096-.254.097-.353-.001z"/></g></g></g></g></g><g><g><g><g><g><path d="m24.68 58.018-1.611-1.611c-.098-.098-.098-.256 0-.354s.256-.098.354 0l1.611 1.611c.098.098.098.256 0 .354-.098.097-.256.098-.354 0z"/></g></g></g></g></g><g><g><g><g><g><path d="m22.753 58.916-1.323-1.323c-.098-.098-.098-.256 0-.354s.256-.098.354 0l1.323 1.323c.098.098.098.256 0 .354-.098.097-.256.098-.354 0z"/></g></g></g></g></g><g><g><g><g><g><path d="m20.161 59.716-.822-.823c-.098-.098-.098-.256 0-.354.098-.099.256-.097.354 0l.822.823c.098.098.098.256 0 .354-.097.096-.255.099-.354 0z"/></g></g></g></g></g><g><g><g><g><g><path d="m18.547 59.797c-.098-.098-.098-.256 0-.354l4.773-4.773c.098-.098.256-.098.354 0s.098.256 0 .354l-4.774 4.773c-.097.097-.255.099-.353 0z"/></g></g></g></g></g><g><g><g><g><g><path d="m22.164 59.232c-.098-.098-.098-.256 0-.354l5.189-5.189c.098-.098.256-.098.354 0s.098.256 0 .354l-5.189 5.189c-.097.098-.256.099-.354 0z"/></g></g></g></g></g><g><g><g><g><g><path d="m27.647 56.18c-.098-.098-.098-.256 0-.354l4.482-4.482c.098-.098.256-.098.354 0s.098.256 0 .354l-4.483 4.482c-.097.097-.255.098-.353 0z"/></g></g></g></g></g><g><g><g><g><g><path d="m29.06 51.885c-.098-.098-.098-.256 0-.354l2.982-2.983c.098-.098.256-.098.354 0s.098.256 0 .354l-2.982 2.983c-.098.097-.256.099-.354 0z"/></g></g></g></g></g><g><g><g><g><g><path d="m32.62 50.981c-.098-.098-.098-.256 0-.354l3.406-3.406c.098-.098.256-.098.354 0s.098.256 0 .354l-3.406 3.406c-.097.097-.256.098-.354 0z"/></g></g></g></g></g><g><g><g><g><g><path d="m36.237 50.642c-.098-.098-.098-.256 0-.354l3.247-3.248c.098-.098.256-.098.354 0s.098.256 0 .354l-3.247 3.248c-.097.097-.255.098-.354 0z"/></g></g></g></g></g><g><g><g><g><g><path d="m38.554 51.603c-.098-.098-.098-.256 0-.354l4.949-4.949c.098-.098.256-.098.354 0s.098.256 0 .354l-4.949 4.949c-.098.097-.256.098-.354 0z"/></g></g></g></g></g><g><g><g><g><g><path d="m41.267 51.08 4.9-4.9c.098-.098.256-.098.354 0s.098.256 0 .354l-4.9 4.9c-.235.233-.587-.122-.354-.354z"/></g></g></g></g></g><g><g><g><g><g><path d="m46.692 49.229c-.098-.098-.098-.256 0-.354l5.892-5.892c.098-.098.256-.098.354 0s.098.256 0 .354l-5.892 5.892c-.097.097-.255.098-.354 0z"/></g></g></g></g></g><g><g><g><g><g><path d="m51.221 48.002c-.064 0-.128-.024-.177-.073-.098-.098-.098-.256 0-.354l5.624-5.624c.098-.098.256-.098.354 0s.098.256 0 .354l-5.624 5.624c-.049.049-.113.073-.177.073z"/></g></g></g></g></g><g><g><g><g><g><path d="m56.526 44.538c-.098-.098-.098-.256 0-.354l3.278-3.278c.232-.232.588.119.354.354l-3.278 3.278c-.097.097-.255.098-.354 0z"/></g></g></g></g></g><g><g><g><g><g><path d="m57.826 40.469c-.098-.098-.098-.256 0-.354l2.694-2.694c.098-.098.256-.098.354 0s.098.256 0 .354l-2.694 2.694c-.097.097-.255.098-.354 0z"/></g></g></g></g></g><g><g><g><g><g><path d="m60.821 36.399c-.098-.098-.098-.256 0-.354l1.576-1.576c.098-.098.256-.098.354 0s.098.256 0 .354l-1.576 1.576c-.097.098-.255.099-.354 0z"/></g></g></g></g></g><g><g><g><g><g><path d="m47.07 51.539c-.064 0-.128-.024-.177-.073-.098-.098-.098-.256 0-.354l3.122-3.122c.098-.098.256-.098.354 0s.098.256 0 .354l-3.122 3.122c-.049.048-.112.073-.177.073z"/></g></g></g></g></g><g><g><g><g><g><path d="m46.583 50.639-1.515-1.514c-.098-.098-.098-.256 0-.354s.256-.098.354 0l1.515 1.514c.098.098.098.256 0 .354-.097.097-.256.098-.354 0z"/></g></g></g></g></g><g><g><g><g><g><path d="m44.828 50.674c-.098-.098-.098-.256 0-.354l1.129-1.13c.237-.235.585.122.354.354l-1.129 1.13c-.099.099-.257.096-.354 0z"/></g></g></g></g></g></g><g><g><g><g><g><path d="m29.055 47.482c-.064 0-.128-.024-.177-.073l-1.212-1.212c-.098-.098-.098-.256 0-.354.099-.098.257-.097.354 0l1.212 1.212c.098.098.098.256 0 .354-.049.049-.114.073-.177.073z"/></g></g></g></g></g><g><g><g><g><g><path d="m29.661 46.698c-.065 0-.128-.024-.177-.073l-.963-.963c-.098-.098-.098-.256 0-.354s.256-.098.354 0l.963.963c.098.098.098.256 0 .354-.049.048-.112.073-.177.073z"/></g></g></g></g></g><g><g><g><g><g><path d="m30.505 45.261c-.064 0-.128-.024-.177-.073l-1.059-1.059c-.098-.098-.098-.256 0-.354s.256-.098.353 0l1.059 1.059c.098.098.098.256 0 .354-.048.048-.112.073-.176.073z"/></g></g></g></g></g><g><g><g><g><g><path d="m27.486 47.232c-.064 0-.128-.024-.177-.073-.098-.098-.098-.256 0-.354l1.4-1.401c.098-.098.256-.098.354 0s.098.256 0 .354l-1.4 1.401c-.049.049-.112.073-.177.073z"/></g></g></g></g></g><g><g><g><g><g><path d="m29.411 45.272c-.063 0-.128-.024-.177-.073-.098-.098-.098-.256 0-.354l1.007-1.007c.098-.098.256-.098.354 0s.098.256 0 .354l-1.007 1.007c-.049.048-.112.073-.177.073z"/></g></g></g></g></g></g></svg>