<svg id="Layer_1" enable-background="new 0 0 66 66" height="512" viewBox="0 0 66 66" width="512" xmlns="http://www.w3.org/2000/svg"><g><g><g><g><g><g><g><g><g><path d="m34.115 65h-.02c-1.716-.005-3.458-.964-4.143-2.28-.512-.984-.408-2.079.291-3.083 1.672-2.404 4.812-3.175 7.12-1.311.603.487 1.033 1.087 1.245 1.734.398 1.22-.011 2.687-1.018 3.65-.855.82-2.121 1.29-3.475 1.29zm-3.051-4.791c-.49.704-.565 1.394-.224 2.05.514.988 1.915 1.737 3.258 1.741l.017.5v-.5c1.098 0 2.113-.369 2.784-1.011.735-.704 1.04-1.756.759-2.618-.72-2.207-4.483-3.193-6.594-.162z"/></g></g></g></g></g><g><g><g><g><g><path d="m38.294 59.714-.701-.713.351.357-.299-.409.736.678z"/></g></g></g></g></g><g><g><g><g><g><path d="m31.425 63.197h-.91c-6.83 0-14.754-.048-15.135-.114-.843-.132-1.474-1.476-1.405-2.218.077-.864.929-1.399 2.28-1.428 4.872-.115 9.753-.221 14.634-.328l1.17-.025-.79.863c-.074.081-.142.169-.202.257-.536.77-.579 1.517-.129 2.225zm-1.476-3.066c-4.56.099-9.119.199-13.672.307-.629.014-1.277.18-1.307.518-.032.341.37 1.079.576 1.142.366.037 6.435.095 14.193.099-.199-.675-.129-1.38.21-2.066z"/></g></g></g></g></g><g><g><g><g><g><path d="m36.874 63.188.48-.771c.399-.642.512-1.406.301-2.044-.157-.473-.531-.928-.864-1.396l.943-.022c15.749-.361 15.789-.523 16.789-.12 1.59.641 1.963 2.862-.776 3.608-2.043.555-3.833.638-15.964.738zm1.687-3.252c.015.04.03.081.043.122.223.676.207 1.416-.034 2.116 11.793-.101 13.106-.205 14.913-.696 1.573-.429 1.579-1.348.665-1.715-.749-.302-1.976-.144-15.587.173z"/></g></g></g></g></g></g><g><g><g><g><g><path d="m32.207 58.979.003-.787c.008-1.99.016-3.784.024-5.242l.003-.484.484-.013c.931-.024 1.853-.057 2.784-.098l.51-.022.012.51c.038 1.568.068 3.151.099 4.728l.021 1.075-.66-.203c-.831-.256-1.731-.183-2.566.205zm1.024-5.54c-.006 1.176-.013 2.541-.019 4.033.625-.182 1.274-.228 1.908-.135-.026-1.321-.052-2.646-.082-3.962-.602.025-1.204.046-1.807.064z"/></g></g></g></g></g></g><g><g><g><g><g><g><path d="m35.87 53.355c-9.005 0-7.052-.317-17.014-.317-2.84 0-5.963-.314-7.596-2.643-1.708-2.438-1.283-8.465 1.364-10.648 1.575-1.299 3.677-1.438 5.872-1.474l29.404-.467c5.06 0 6.767 1.566 7.611 6.981.468 3.004.225 4.905-.789 6.164-.974 1.21-2.665 1.826-5.481 1.997-3.065.186-6.178.31-9.25.367-1.373.026-2.747.04-4.121.04zm18.654-8.413c-.769-4.932-2.068-6.136-6.623-6.136-.704.006 1.771-.032-29.389.467-2.011.032-3.926.152-5.252 1.245-2.215 1.827-2.608 7.266-1.181 9.302 1.369 1.954 4.194 2.217 6.776 2.217 32.533.001 37.117 2.195 35.669-7.095z"/></g></g></g></g></g><g><g><g><g><g><g><path d="m15.971 44.216c-.098-.098-.098-.256 0-.354l2.477-2.476c.098-.098.256-.098.354 0s.098.256 0 .354l-2.477 2.477c-.098.097-.257.097-.354-.001z"/></g></g></g></g></g><g><g><g><g><g><path d="m16.078 45.868c-.098-.098-.098-.256 0-.354l4.014-4.014c.098-.098.256-.098.354 0s.098.256 0 .354l-4.014 4.014c-.098.098-.256.098-.354 0z"/></g></g></g></g></g><g><g><g><g><g><path d="m16.164 47.628c-.098-.098-.098-.256 0-.354l5.887-5.887c.098-.098.256-.098.354 0s.098.256 0 .354l-5.887 5.887c-.098.097-.256.097-.354 0z"/></g></g></g></g></g><g><g><g><g><g><path d="m16.229 49.344c-.098-.098-.098-.256 0-.354l7.514-7.514c.098-.098.256-.098.354 0s.098.256 0 .354l-7.514 7.514c-.099.098-.257.098-.354 0z"/></g></g></g></g></g><g><g><g><g><g><path d="m18.31 49.28c-.098-.098-.098-.256 0-.353l7.439-7.439c.098-.098.256-.098.354 0s.098.256 0 .353l-7.439 7.439c-.099.098-.257.098-.354 0z"/></g></g></g></g></g><g><g><g><g><g><path d="m20.621 49.441c-.146-.207.023-.323.208-.455l7.468-7.472c.098-.098.256-.098.354 0s.098.256 0 .354c-.249.249-7.397 7.423-7.681 7.633-.116.079-.27.051-.349-.06z"/></g></g></g></g></g><g><g><g><g><g><path d="m23.492 49.607c-.098-.097-.132-.221-.036-.319 0 0 .035-.035.035-.036l7.845-7.844c.098-.098.256-.098.354 0s.098.256 0 .354l-7.811 7.811c-.099.097-.289.13-.387.034z"/></g></g></g></g></g><g><g><g><g><g><path d="m25.79 49.772c-.098-.098-.098-.256 0-.354l5.62-5.62c.098-.098.256-.098.353 0 .098.098.098.256 0 .354l-5.62 5.62c-.097.098-.255.098-.353 0z"/></g></g></g></g></g><g><g><g><g><g><path d="m28.789 49.506c-.098-.098-.098-.256 0-.354l2.709-2.709c.098-.098.256-.098.354 0s.098.256 0 .354l-2.709 2.709c-.099.098-.257.098-.354 0z"/></g></g></g></g></g><g><g><g><g><g><g><g><path d="m40.464 44.232c-.573 0-.979-.527-1.084-1.048-.078-.385.009-.768.24-1.05.253-.311.646-.464 1.049-.398.574.096.909.633.944 1.115.031.424-.129.83-.429 1.086-.23.196-.472.295-.72.295zm.019-2.011c-.184 0-.357.083-.477.229-.137.168-.186.393-.137.634.064.318.304.647.594.647.125 0 .258-.059.395-.175.179-.153.275-.403.255-.67-.02-.279-.212-.605-.527-.658-.035-.005-.069-.007-.103-.007z"/></g></g></g></g></g><g><g><g><g><g><path d="m40.464 48.175c-.573 0-.979-.527-1.084-1.048-.078-.385.009-.768.24-1.05.253-.311.646-.466 1.049-.398.573.095.909.633.944 1.115.031.424-.129.83-.429 1.086-.23.196-.472.295-.72.295zm.019-2.01c-.184 0-.357.083-.477.229-.137.168-.186.393-.137.634.064.318.304.647.594.647.125 0 .258-.059.395-.175.179-.153.275-.403.255-.669-.02-.28-.212-.606-.527-.658-.035-.006-.069-.008-.103-.008z"/></g></g></g></g></g></g><g><g><g><g><g><g><path d="m44.137 44.232c-.573 0-.979-.527-1.084-1.048-.078-.385.009-.768.24-1.049.254-.312.647-.465 1.049-.398.574.096.909.633.944 1.115.031.424-.129.83-.429 1.086-.23.195-.472.294-.72.294zm.02-2.011c-.184 0-.358.083-.478.23-.137.167-.185.393-.137.634.064.318.304.647.594.647.125 0 .258-.059.395-.175.179-.153.274-.403.255-.67-.02-.28-.211-.605-.527-.658-.034-.006-.069-.008-.102-.008z"/></g></g></g></g></g><g><g><g><g><g><path d="m44.137 48.175c-.573 0-.979-.527-1.084-1.048-.078-.385.009-.768.24-1.049.254-.311.647-.466 1.049-.398.574.095.909.633.944 1.115.031.424-.129.83-.429 1.086-.23.195-.472.294-.72.294zm.02-2.01c-.184 0-.358.083-.478.23-.137.167-.185.393-.137.634.064.318.304.647.594.647.125 0 .258-.059.395-.175.179-.153.274-.403.255-.669-.02-.28-.211-.606-.527-.658-.034-.007-.069-.009-.102-.009z"/></g></g></g></g></g></g><g><g><g><g><g><g><path d="m47.81 44.232c-.573 0-.979-.527-1.085-1.048-.078-.386.01-.768.24-1.05.254-.311.647-.464 1.049-.398.574.096.909.633.944 1.115.03.424-.13.83-.429 1.086-.229.196-.471.295-.719.295zm.02-2.011c-.184 0-.358.083-.477.229-.137.168-.186.393-.137.635.064.318.305.647.595.647.125 0 .258-.059.395-.175.178-.153.274-.404.254-.67-.02-.279-.212-.605-.527-.658-.036-.006-.07-.008-.103-.008z"/></g></g></g></g></g><g><g><g><g><g><path d="m47.81 48.175c-.573 0-.979-.527-1.085-1.047-.078-.386.01-.769.24-1.05.254-.311.647-.466 1.049-.398.573.095.909.633.944 1.115.03.424-.13.83-.429 1.085-.229.196-.471.295-.719.295zm.02-2.01c-.184 0-.358.083-.477.229-.137.168-.186.393-.137.635.064.318.305.646.595.646.125 0 .258-.059.395-.175.178-.153.274-.403.254-.67-.02-.28-.212-.605-.527-.658-.036-.005-.07-.007-.103-.007z"/></g></g></g></g></g></g></g></g></g><g><g><g><g><g><g><path d="m35.869 34.952c-4.151 0-8.354-.119-12.491-.354-.779-.043-1.68-.021-2.632.004-.614.016-1.25.033-1.89.033-2.84 0-5.963-.314-7.596-2.643-1.713-2.444-1.286-8.462 1.364-10.647 2.275-1.876 2.779-1.424 34.807-1.937 1.923-.026 4-.005 5.573 1.227 1.695 1.328 2.169 3.569 2.509 5.751.337 2.164.571 4.614-.932 6.31-1.32 1.489-3.447 1.736-5.338 1.85-3.065.186-6.178.31-9.25.367-1.375.026-2.749.039-4.124.039zm-13.494-1.378c.371 0 .725.007 1.059.026 5.483.311 11.041.416 16.54.313 12.693-.237 15.714.09 14.55-7.373-.322-2.067-.728-4.013-2.137-5.118-1.316-1.031-3.204-1.043-4.941-1.014l-28.934.463c-2.011.032-3.926.152-5.252 1.245-2.241 1.849-2.592 7.289-1.181 9.302 1.37 1.954 4.194 2.217 6.777 2.217.631 0 1.258-.017 1.864-.032.575-.015 1.132-.029 1.655-.029z"/></g></g></g></g></g><g><g><g><g><g><g><path d="m15.971 25.814c-.098-.098-.098-.256 0-.354l2.477-2.477c.098-.098.256-.098.354 0s.098.256 0 .354l-2.477 2.477c-.098.098-.257.098-.354 0z"/></g></g></g></g></g><g><g><g><g><g><path d="m16.078 27.466c-.098-.098-.098-.256 0-.354l4.014-4.013c.098-.098.256-.098.354 0s.098.256 0 .353l-4.014 4.013c-.098.099-.256.099-.354.001z"/></g></g></g></g></g><g><g><g><g><g><path d="m16.164 29.225c-.098-.098-.098-.256 0-.354l5.887-5.887c.098-.098.256-.098.354 0s.098.256 0 .354l-5.887 5.887c-.098.098-.256.098-.354 0z"/></g></g></g></g></g><g><g><g><g><g><path d="m16.229 30.942c-.098-.098-.098-.256 0-.354l7.514-7.514c.098-.098.256-.098.354 0s.098.256 0 .354l-7.514 7.514c-.099.097-.257.097-.354 0z"/></g></g></g></g></g><g><g><g><g><g><path d="m18.31 30.878c-.098-.098-.098-.256 0-.354l7.439-7.439c.098-.098.256-.098.354 0s.098.256 0 .353l-7.439 7.439c-.099.098-.257.098-.354.001z"/></g></g></g></g></g><g><g><g><g><g><path d="m20.621 31.038c-.146-.207.023-.323.208-.455l7.468-7.472c.098-.098.256-.098.354 0s.098.256 0 .354c-.249.249-7.397 7.423-7.681 7.633-.116.08-.27.052-.349-.06z"/></g></g></g></g></g><g><g><g><g><g><path d="m23.492 31.205c-.098-.097-.132-.221-.036-.319 0 0 .035-.035.035-.036l7.845-7.844c.098-.098.256-.098.354 0s.098.256 0 .354l-7.811 7.811c-.099.097-.289.13-.387.034z"/></g></g></g></g></g><g><g><g><g><g><path d="m25.79 31.37c-.098-.098-.098-.256 0-.354l5.62-5.62c.098-.098.256-.098.353 0 .098.098.098.256 0 .353l-5.62 5.62c-.097.099-.255.099-.353.001z"/></g></g></g></g></g><g><g><g><g><g><path d="m28.789 31.104c-.098-.098-.098-.256 0-.353l2.709-2.709c.098-.098.256-.098.354 0s.098.256 0 .354l-2.709 2.709c-.099.096-.257.096-.354-.001z"/></g></g></g></g></g><g><g><g><g><g><g><g><path d="m40.464 25.83c-.573 0-.979-.527-1.084-1.048-.178-.875.508-1.577 1.289-1.448.574.096.909.633.944 1.115.031.424-.129.83-.429 1.086-.23.196-.472.295-.72.295zm.02-2.012c-.39 0-.715.368-.614.864.064.318.304.647.594.647.125 0 .258-.059.395-.175.179-.153.275-.403.255-.67-.02-.279-.212-.605-.527-.658-.035-.005-.069-.008-.103-.008z"/></g></g></g></g></g><g><g><g><g><g><path d="m40.464 29.773c-.573 0-.979-.527-1.084-1.048-.178-.876.507-1.58 1.289-1.448.573.095.909.633.944 1.115.031.424-.129.83-.429 1.086-.23.196-.472.295-.72.295zm.019-2.011c-.389 0-.714.367-.614.864.064.318.304.647.594.647.125 0 .258-.059.395-.175.179-.153.275-.403.255-.669-.02-.28-.212-.606-.527-.658-.035-.006-.069-.009-.103-.009z"/></g></g></g></g></g></g><g><g><g><g><g><g><path d="m44.137 25.83c-.573 0-.979-.527-1.084-1.048-.078-.385.009-.768.24-1.049.254-.31.645-.463 1.049-.398.574.096.909.633.944 1.115.031.424-.129.83-.429 1.086-.23.195-.472.294-.72.294zm.02-2.012c-.184 0-.358.084-.478.23-.137.168-.185.393-.137.634.064.318.304.647.594.647.125 0 .258-.059.395-.175.179-.153.274-.403.255-.67-.02-.28-.211-.605-.527-.658-.034-.005-.068-.008-.102-.008z"/></g></g></g></g></g><g><g><g><g><g><path d="m44.137 29.773c-.573 0-.979-.527-1.084-1.048-.078-.385.009-.768.24-1.049.254-.311.647-.466 1.049-.398.574.095.909.633.944 1.115.031.424-.129.83-.429 1.086-.23.195-.472.294-.72.294zm.02-2.011c-.184 0-.358.083-.478.23-.137.167-.185.393-.137.634.064.318.304.647.594.647.125 0 .258-.059.395-.175.179-.153.274-.403.255-.669-.02-.28-.211-.606-.527-.658-.034-.006-.069-.009-.102-.009z"/></g></g></g></g></g></g><g><g><g><g><g><g><path d="m47.81 25.83c-.573 0-.979-.527-1.085-1.048-.078-.386.01-.768.24-1.05.254-.31.644-.465 1.049-.398.574.096.909.633.944 1.115.03.424-.13.83-.429 1.086-.229.196-.471.295-.719.295zm.02-2.012c-.184 0-.358.084-.477.23-.137.167-.186.393-.137.634.064.318.305.647.595.647.125 0 .258-.059.395-.175.178-.153.274-.404.254-.67-.02-.279-.212-.605-.527-.658-.035-.005-.069-.008-.103-.008z"/></g></g></g></g></g><g><g><g><g><g><path d="m47.81 29.773c-.572 0-.979-.527-1.084-1.047-.078-.386.01-.769.24-1.05.254-.311.647-.466 1.049-.398.573.095.909.633.944 1.115.03.424-.13.83-.429 1.085-.23.196-.472.295-.72.295zm.02-2.011c-.184 0-.358.083-.477.229-.137.168-.186.393-.137.635.064.318.304.646.594.646.126 0 .259-.059.396-.175.178-.153.274-.403.254-.669-.02-.28-.212-.606-.527-.658-.036-.005-.07-.008-.103-.008z"/></g></g></g></g></g></g></g></g></g><g><g><g><g><g><g><path d="m35.864 16.55c.023 0-5.578.038-12.486-.354-.779-.044-1.681-.02-2.632.004-.614.016-1.249.032-1.888.032-2.841 0-5.965-.314-7.598-2.643-1.708-2.438-1.283-8.464 1.364-10.647 1.576-1.299 3.677-1.438 5.873-1.474l28.934-.462c1.911-.028 3.999-.006 5.573 1.227 1.695 1.328 2.169 3.569 2.509 5.751.337 2.164.571 4.615-.932 6.31-1.32 1.489-3.447 1.736-5.338 1.851-4.434.268-8.935.405-13.379.405zm13.318-1.404c4.751-.289 6.166-1.722 5.342-7.008-.322-2.067-.728-4.013-2.137-5.118-1.316-1.031-3.207-1.045-4.941-1.014l-28.933.463c-2.011.032-3.926.152-5.252 1.245-2.215 1.827-2.607 7.266-1.181 9.302 1.369 1.954 4.195 2.217 6.778 2.217 10.588 0 16.027.781 30.324-.087z"/></g></g></g></g></g><g><g><g><g><g><g><path d="m16.147 7.485c-.064 0-.128-.024-.177-.073-.098-.098-.098-.256 0-.353l2.477-2.477c.098-.098.256-.098.354 0s.098.256 0 .354l-2.477 2.477c-.049.048-.113.072-.177.072z"/></g></g></g></g></g><g><g><g><g><g><path d="m16.078 9.064c-.098-.098-.098-.256 0-.354l4.014-4.013c.098-.098.256-.098.354 0s.098.256 0 .354l-4.014 4.013c-.098.097-.256.097-.354 0z"/></g></g></g></g></g><g><g><g><g><g><path d="m16.164 10.823c-.098-.098-.098-.256 0-.354l5.887-5.887c.098-.098.256-.098.354 0s.098.256 0 .353l-5.887 5.887c-.098.099-.256.099-.354.001z"/></g></g></g></g></g><g><g><g><g><g><path d="m16.229 12.54c-.098-.098-.098-.256 0-.354l7.514-7.514c.098-.098.256-.098.354 0s.098.256 0 .353l-7.514 7.514c-.099.098-.257.098-.354.001z"/></g></g></g></g></g><g><g><g><g><g><path d="m18.31 12.475c-.098-.098-.098-.256 0-.354l7.439-7.439c.098-.098.256-.098.354 0s.098.256 0 .354l-7.439 7.439c-.099.098-.257.098-.354 0z"/></g></g></g></g></g><g><g><g><g><g><path d="m20.621 12.636c-.147-.208.024-.324.21-.456l7.466-7.471c.098-.098.256-.098.354 0s.098.256 0 .354l-7.681 7.633c-.116.08-.27.051-.349-.06z"/></g></g></g></g></g><g><g><g><g><g><path d="m23.492 12.802c-.098-.097-.132-.221-.036-.319 0-.001.035-.035.035-.036l7.845-7.844c.098-.098.256-.098.354 0s.098.256 0 .353l-7.811 7.811c-.099.098-.289.132-.387.035z"/></g></g></g></g></g><g><g><g><g><g><path d="m25.79 12.968c-.098-.098-.098-.256 0-.353l5.62-5.62c.098-.098.256-.098.353 0 .098.098.098.256 0 .353l-5.62 5.62c-.097.098-.255.098-.353 0z"/></g></g></g></g></g><g><g><g><g><g><path d="m28.789 12.701c-.098-.098-.098-.256 0-.354l2.709-2.709c.098-.098.256-.098.354 0s.098.256 0 .354l-2.709 2.709c-.099.098-.257.098-.354 0z"/></g></g></g></g></g><g><g><g><g><g><g><g><path d="m40.464 7.427c-.573 0-.979-.527-1.084-1.048-.177-.874.505-1.577 1.289-1.447.573.095.909.632.944 1.114.031.424-.129.83-.429 1.086-.23.196-.472.295-.72.295zm0-.5c.125 0 .258-.059.395-.175.179-.153.275-.403.255-.67-.02-.279-.212-.605-.527-.657-.979-.165-.942 1.502-.123 1.502z"/></g></g></g></g></g><g><g><g><g><g><path d="m40.464 11.371c-.573 0-.979-.527-1.084-1.048-.178-.876.507-1.579 1.289-1.448.573.095.909.633.944 1.115.031.424-.129.83-.429 1.086-.23.196-.472.295-.72.295zm0-.5c.125 0 .258-.059.395-.175.179-.153.275-.403.255-.669-.02-.28-.212-.605-.527-.658-.979-.166-.942 1.502-.123 1.502z"/></g></g></g></g></g></g><g><g><g><g><g><g><path d="m44.137 7.427c-.573 0-.979-.527-1.084-1.048-.176-.869.496-1.575 1.289-1.447.574.095.909.633.944 1.114.031.424-.129.83-.429 1.086-.23.196-.472.295-.72.295zm-.595-1.147c.064.318.304.648.594.648.125 0 .258-.059.395-.175.179-.153.274-.403.255-.67-.02-.28-.211-.605-.527-.657-.429-.074-.826.313-.717.854z"/></g></g></g></g></g><g><g><g><g><g><path d="m44.137 11.371c-.573 0-.979-.527-1.084-1.048-.341-1.68 2.108-2.063 2.233-.333.031.424-.129.83-.429 1.086-.23.196-.472.295-.72.295zm-.595-1.147c.064.318.304.647.594.647.125 0 .258-.059.395-.175.179-.153.274-.403.255-.669-.073-1.029-1.443-.789-1.244.197z"/></g></g></g></g></g></g><g><g><g><g><g><g><path d="m47.81 7.427c-.573 0-.979-.527-1.085-1.048-.176-.874.501-1.574 1.289-1.448.573.095.909.632.944 1.114.057.798-.548 1.382-1.148 1.382zm-.595-1.147c.064.318.305.648.595.648.319 0 .686-.346.649-.845-.073-1.024-1.445-.794-1.244.197z"/></g></g></g></g></g><g><g><g><g><g><path d="m46.725 10.323c-.177-.882.512-1.579 1.289-1.448.573.095.909.633.944 1.115.104 1.451-1.886 2.047-2.233.333zm1.105-.963c-.388 0-.715.366-.614.864.217 1.072 1.306.647 1.244-.198-.02-.28-.212-.605-.527-.658-.036-.006-.07-.008-.103-.008z"/></g></g></g></g></g></g></g></g></g></g><g><g><g><g><g><path d="m52.255 51.955-2.247-2.247c-.098-.098-.098-.256 0-.354s.256-.098.354 0l2.247 2.247c.098.098.098.256 0 .354s-.256.098-.354 0z"/></g></g></g></g></g><g><g><g><g><g><path d="m53.389 50.714-1.911-1.911c-.098-.098-.098-.256 0-.354s.256-.098.354 0l1.911 1.911c.098.098.098.256 0 .354s-.257.098-.354 0z"/></g></g></g></g></g><g><g><g><g><g><path d="m54.064 49.468-1.343-1.343c-.098-.098-.098-.256 0-.354s.256-.098.354 0l1.343 1.343c.098.098.098.256 0 .354s-.256.098-.354 0z"/></g></g></g></g></g><g><g><g><g><g><path d="m54.711 48.192-1.255-1.254c-.098-.098-.098-.256 0-.354s.256-.098.353 0l1.255 1.254c.098.098.098.256 0 .354-.097.098-.255.098-.353 0z"/></g></g></g></g></g><g><g><g><g><g><path d="m54.759 46.601-1.077-1.076c-.098-.098-.098-.256 0-.354s.256-.098.354 0l1.077 1.076c.098.098.098.256 0 .354s-.257.098-.354 0z"/></g></g></g></g></g><g><g><g><g><g><path d="m50.404 51.743-1.696-1.696c-.098-.098-.098-.256 0-.354s.256-.098.354 0l1.696 1.696c.098.098.098.256 0 .354s-.256.098-.354 0z"/></g></g></g></g></g><g><g><g><g><g><path d="m48.367 51.685-1.242-1.242c-.098-.098-.098-.256 0-.354s.256-.098.354 0l1.242 1.242c.098.098.098.256 0 .354-.098.097-.257.097-.354 0z"/></g></g></g></g></g><g><g><g><g><g><path d="m47.078 51.809-1.309-1.31c-.098-.098-.098-.256 0-.354s.256-.098.354 0l1.309 1.309c.098.098.098.256 0 .354-.099.098-.257.098-.354.001z"/></g></g></g></g></g><g><g><g><g><g><path d="m45.121 52.282-1.33-1.331c-.098-.098-.098-.256 0-.354s.256-.098.354 0l1.331 1.331c.098.098.098.256 0 .354-.1.098-.258.098-.355 0z"/></g></g></g></g></g><g><g><g><g><g><path d="m43.624 52.208c-.163 0-1.187-1.084-1.303-1.2-.098-.098-.098-.256 0-.354s.256-.098.354 0l1.126 1.126c.098.098.098.256 0 .354-.05.049-.114.074-.177.074z"/></g></g></g></g></g><g><g><g><g><g><path d="m41.322 52.271-1.037-1.037c-.098-.098-.098-.256 0-.354s.256-.098.354 0l1.037 1.037c.098.098.098.256 0 .354s-.256.098-.354 0z"/></g></g></g></g></g><g><g><g><g><g><path d="m39.457 52.272-.698-.698c-.098-.098-.098-.256 0-.354s.256-.098.354 0l.698.698c.098.098.098.256 0 .354-.098.097-.256.097-.354 0z"/></g></g></g></g></g><g><g><g><g><g><path d="m37.997 52.507-.877-.877c-.098-.098-.098-.256 0-.354s.256-.098.353 0l.877.878c.233.232-.119.588-.353.353z"/></g></g></g></g></g><g><g><g><g><g><path d="m37.12 52.591c-.098-.098-.098-.256 0-.353l1.466-1.466c.098-.098.256-.098.354 0s.098.256 0 .354l-1.466 1.466c-.099.097-.257.097-.354-.001z"/></g></g></g></g></g><g><g><g><g><g><path d="m39.607 52.237 2.184-2.184c.098-.098.256-.098.354 0s.098.256 0 .354l-2.184 2.184c-.233.232-.588-.119-.354-.354z"/></g></g></g></g></g><g><g><g><g><g><path d="m42.377 52.648c-.098-.098-.098-.256 0-.354l2.291-2.291c.098-.098.256-.098.354 0s.098.256 0 .354l-2.291 2.291c-.098.097-.256.097-.354 0z"/></g></g></g></g></g><g><g><g><g><g><path d="m44.864 52.308c-.098-.098-.098-.256 0-.354l2.351-2.351c.098-.098.256-.098.353 0 .098.098.098.256 0 .354l-2.351 2.352c-.097.097-.255.097-.353-.001z"/></g></g></g></g></g><g><g><g><g><g><path d="m47.012 52.308c-.098-.098-.098-.256 0-.354l2.654-2.654c.098-.098.256-.098.354 0s.098.256 0 .354l-2.654 2.654c-.098.098-.256.098-.354 0z"/></g></g></g></g></g><g><g><g><g><g><path d="m50.298 52.155c-.064 0-.128-.024-.177-.073-.098-.098-.098-.256 0-.354l2.672-2.672c.098-.098.256-.098.354 0s.098.256 0 .354c-.126.125-2.688 2.745-2.849 2.745z"/></g></g></g></g></g><g><g><g><g><g><path d="m53.068 48.312c-.064 0-.128-.024-.177-.073-.098-.098-.098-.256 0-.354l1.143-1.144c.098-.098.256-.098.354 0s.098.256 0 .354l-1.143 1.144c-.049.048-.113.073-.177.073z"/></g></g></g></g></g><g><g><g><g><g><path d="m53.569 48.902.912-.911c.098-.098.256-.098.354 0s.098.256 0 .354l-.912.911c-.233.232-.588-.12-.354-.354z"/></g></g></g></g></g><g><g><g><g><g><path d="m53.06 32.07-2.486-2.486c-.098-.098-.098-.256 0-.353.098-.098.256-.098.354 0l2.486 2.486c.098.098.098.256 0 .354-.099.097-.257.097-.354-.001z"/></g></g></g></g></g><g><g><g><g><g><path d="m54.255 31.004-2.042-2.042c-.098-.098-.098-.256 0-.354s.256-.098.354 0l2.042 2.042c.098.098.098.256 0 .354s-.256.098-.354 0z"/></g></g></g></g></g><g><g><g><g><g><path d="m54.532 28.681-1.302-1.301c-.098-.098-.098-.256 0-.354s.256-.098.354 0l1.302 1.301c.098.098.098.256 0 .354-.098.097-.257.097-.354 0z"/></g></g></g></g></g><g><g><g><g><g><path d="m51.658 32.873-2.329-2.328c-.098-.098-.098-.256 0-.354s.256-.098.354 0l2.329 2.328c.098.098.098.256 0 .354s-.256.098-.354 0z"/></g></g></g></g></g><g><g><g><g><g><path d="m49.98 33.231-2.007-2.007c-.098-.098-.098-.256 0-.354s.256-.098.354 0l2.007 2.007c.098.098.098.256 0 .354-.098.097-.256.097-.354 0z"/></g></g></g></g></g><g><g><g><g><g><path d="m47.701 32.93-1.254-1.254c-.098-.098-.098-.256 0-.354s.256-.098.354 0l1.254 1.254c.098.098.098.256 0 .354-.098.097-.256.097-.354 0z"/></g></g></g></g></g><g><g><g><g><g><path d="m46.113 33.377-1.249-1.249c-.098-.098-.098-.256 0-.354s.256-.098.354 0l1.248 1.249c.098.098.098.256 0 .354-.097.097-.256.097-.353 0z"/></g></g></g></g></g><g><g><g><g><g><path d="m44.889 33.397-.93-.93c-.098-.098-.098-.256 0-.354s.256-.098.354 0l.93.93c.098.098.098.256 0 .354-.098.097-.256.097-.354 0z"/></g></g></g></g></g><g><g><g><g><g><path d="m42.603 32.862c-.098-.098-.098-.256 0-.354s.256-.098.354 0l.632.632c.098.098.098.256 0 .354-.249.249-.727-.372-.986-.632z"/></g></g></g></g></g><g><g><g><g><g><path d="m42.49 33.711c-.098-.098-.098-.256 0-.354l2.009-2.009c.098-.098.256-.098.354 0s.098.256 0 .354l-2.009 2.009c-.098.097-.257.097-.354 0z"/></g></g></g></g></g><g><g><g><g><g><path d="m44.412 33.993c-.098-.098-.098-.256 0-.354l2.75-2.75c.098-.098.256-.098.353 0 .098.098.098.256 0 .354l-2.75 2.75c-.098.098-.256.098-.353 0z"/></g></g></g></g></g><g><g><g><g><g><path d="m47.069 33.188 3.518-3.518c.098-.098.256-.098.354 0s.098.256 0 .354l-3.518 3.518c-.233.232-.589-.12-.354-.354z"/></g></g></g></g></g><g><g><g><g><g><path d="m49.612 33.428c-.098-.098-.098-.256 0-.354l3.097-3.096c.098-.098.256-.098.354 0s.098.256 0 .354l-3.097 3.096c-.098.097-.256.097-.354 0z"/></g></g></g></g></g><g><g><g><g><g><path d="m51.986 29.697c-.098-.098-.098-.256 0-.354l1.763-1.763c.098-.098.256-.098.354 0s.098.256 0 .354l-1.763 1.763c-.098.098-.256.098-.354 0z"/></g></g></g></g></g><g><g><g><g><g><path d="m53.739 30.941c-.098-.098-.098-.256 0-.354l.754-.754c.098-.098.256-.098.354 0s.098.256 0 .353l-.754.754c-.098.098-.257.098-.354.001z"/></g></g></g></g></g><g><g><g><g><g><path d="m53.513 29.075c-.098-.098-.098-.256 0-.354l1.166-1.166c.098-.098.256-.098.354 0s.098.256 0 .354l-1.166 1.166c-.098.098-.257.098-.354 0z"/></g></g></g></g></g><g><g><g><g><g><path d="m53.005 14.19-2.307-2.306c-.098-.098-.098-.256 0-.354s.256-.098.354 0l2.307 2.306c.098.098.098.256 0 .354s-.256.098-.354 0z"/></g></g></g></g></g><g><g><g><g><g><path d="m54.171 13.075-1.667-1.667c-.098-.098-.098-.256 0-.354s.256-.098.354 0l1.667 1.666c.098.098.098.256 0 .354s-.256.098-.354.001z"/></g></g></g></g></g><g><g><g><g><g><path d="m54.479 11.814-1.546-1.546c-.098-.098-.098-.256 0-.353.098-.098.256-.098.354 0l1.546 1.546c.098.098.098.256 0 .353-.099.098-.257.098-.354 0z"/></g></g></g></g></g><g><g><g><g><g><path d="m54.486 9.777-.888-.888c-.098-.098-.098-.256 0-.353.098-.098.256-.098.353 0l.888.888c.098.098.098.256 0 .354-.097.097-.256.097-.353-.001z"/></g></g></g></g></g><g><g><g><g><g><path d="m50.628 14.428-1.641-1.641c-.098-.098-.098-.256 0-.353.098-.098.256-.098.354 0l1.641 1.641c.098.098.098.256 0 .353s-.256.097-.354 0z"/></g></g></g></g></g><g><g><g><g><g><path d="m48.935 15.206-1.801-1.801c-.098-.098-.098-.256 0-.354s.256-.098.354 0l1.801 1.801c.098.098.098.256 0 .354-.099.098-.257.098-.354 0z"/></g></g></g></g></g><g><g><g><g><g><path d="m46.638 15.049-1.026-1.026c-.098-.098-.098-.256 0-.353.098-.098.256-.098.354 0l1.026 1.026c.098.098.098.256 0 .354-.098.097-.256.097-.354-.001z"/></g></g></g></g></g><g><g><g><g><g><path d="m45.114 15.189-.738-.738c-.098-.098-.098-.256 0-.354s.256-.098.354 0l.738.738c.098.098.098.256 0 .354-.098.097-.256.097-.354 0z"/></g></g></g></g></g><g><g><g><g><g><path d="m44.138 15.258c-.284-.284-.88-.708-.617-.971.098-.098.256-.098.354 0l.617.617c.098.098.098.256 0 .353-.098.099-.257.099-.354.001z"/></g></g></g></g></g><g><g><g><g><g><path d="m42.621 15.357c-.237-.238-.619-.502-.383-.737.098-.098.256-.098.354 0l.383.383c.098.098.098.256 0 .354-.099.097-.257.097-.354 0z"/></g></g></g></g></g><g><g><g><g><g><path d="m42.237 15.687c-.098-.098-.098-.256 0-.354l2.134-2.135c.098-.098.256-.098.354 0s.098.256 0 .354l-2.134 2.135c-.098.097-.256.097-.354 0z"/></g></g></g></g></g><g><g><g><g><g><path d="m44.091 15.095 2.766-2.766c.098-.098.256-.098.354 0s.098.256 0 .353l-2.766 2.766c-.233.233-.589-.118-.354-.353z"/></g></g></g></g></g><g><g><g><g><g><path d="m47.133 15.164c-.098-.098-.098-.256 0-.353l2.872-2.872c.098-.098.256-.098.354 0s.098.256 0 .354l-2.871 2.872c-.099.096-.257.096-.355-.001z"/></g></g></g></g></g><g><g><g><g><g><path d="m49.272 15.021c-.098-.098-.098-.256 0-.354l2.958-2.958c.098-.098.256-.098.354 0s.098.256 0 .354l-2.958 2.958c-.098.098-.256.098-.354 0z"/></g></g></g></g></g><g><g><g><g><g><path d="m52.314 14.213c-.098-.098-.098-.256 0-.353l1.925-1.925c.232-.232.588.119.354.354l-1.925 1.925c-.098.097-.256.097-.354-.001z"/></g></g></g></g></g><g><g><g><g><g><path d="m53.109 10.959c-.064 0-.128-.024-.177-.073-.098-.098-.098-.256 0-.354l1.39-1.389c.098-.098.256-.098.354 0s.098.256 0 .354l-1.39 1.389c-.049.048-.113.073-.177.073z"/></g></g></g></g></g><g><g><g><g><g><path d="m53.645 9.127c-.098-.098-.098-.256 0-.353l.767-.767c.233-.233.588.118.354.352l-.768.767c-.097.098-.255.098-.353.001z"/></g></g></g></g></g><g><g><g><g><g><g><path d="m15.822 15.602h1v4.838h-1z" transform="matrix(.999 .051 -.051 .999 .936 -.806)"/></g></g></g></g></g><g><g><g><g><g><path d="m48.56 15.698h1v4.293h-1z" transform="matrix(1 .014 -.014 1 .247 -.666)"/></g></g></g></g></g></g><g><g><g><g><g><g><path d="m15.822 33.437h1v4.838h-1z" transform="matrix(.999 .051 -.051 .999 1.842 -.783)"/></g></g></g></g></g><g><g><g><g><g><path d="m48.56 33.533h1v4.293h-1z" transform="matrix(1 .014 -.014 1 .493 -.669)"/></g></g></g></g></g></g><g><g><g><g><g><path d="m18.11 17.435-1.414-1.414c-.098-.098-.098-.256 0-.353.098-.098.256-.098.354 0l1.414 1.414c.098.098.098.256 0 .354-.098.097-.256.097-.354-.001z"/></g></g></g></g></g><g><g><g><g><g><path d="m19.625 17.193-1.206-1.205c-.098-.098-.098-.256 0-.354s.256-.098.354 0l1.206 1.206c.098.098.098.256 0 .353-.099.098-.257.098-.354 0z"/></g></g></g></g></g><g><g><g><g><g><path d="m22.395 17.396-1.516-1.516c-.232-.232.119-.588.354-.354l1.516 1.516c.098.098.098.256 0 .354-.099.098-.257.098-.354 0z"/></g></g></g></g></g><g><g><g><g><g><path d="m25.26 17.32-1.44-1.44c-.232-.232.119-.588.354-.354l1.44 1.44c.098.098.098.256 0 .354s-.257.098-.354 0z"/></g></g></g></g></g><g><g><g><g><g><path d="m28.411 17.735c-.167 0-1.62-1.516-1.738-1.635-.098-.098-.098-.256 0-.354s.256-.098.354 0l1.562 1.562c.098.098.098.256 0 .354-.05.049-.114.073-.178.073z"/></g></g></g></g></g><g><g><g><g><g><path d="m30.821 17.746-1.559-1.559c-.098-.098-.098-.256 0-.354s.256-.098.354 0l1.559 1.559c.098.098.098.256 0 .354s-.257.098-.354 0z"/></g></g></g></g></g><g><g><g><g><g><path d="m33.189 17.876-1.689-1.688c-.098-.098-.098-.256 0-.354s.256-.098.354 0l1.688 1.689c.098.098.098.256 0 .353-.097.098-.255.098-.353 0z"/></g></g></g></g></g><g><g><g><g><g><path d="m35.232 17.462-.923-.923c-.098-.098-.098-.256 0-.354s.256-.098.353 0l.923.923c.098.098.098.256 0 .354-.097.097-.255.097-.353 0z"/></g></g></g></g></g><g><g><g><g><g><path d="m36.879 17.353-1.34-1.34c-.098-.098-.098-.256 0-.354s.256-.098.353 0l1.34 1.34c.098.098.098.256 0 .354-.097.097-.255.097-.353 0z"/></g></g></g></g></g><g><g><g><g><g><path d="m38.898 17.309-1.209-1.209c-.098-.098-.098-.256 0-.354s.256-.098.354 0l1.209 1.209c.098.098.098.256 0 .354-.098.097-.256.097-.354 0z"/></g></g></g></g></g><g><g><g><g><g><path d="m40.543 17.549-1.142-1.142c-.098-.098-.098-.256 0-.354s.256-.098.354 0l1.142 1.142c.098.098.098.256 0 .354s-.256.098-.354 0z"/></g></g></g></g></g><g><g><g><g><g><path d="m42.076 17.37-1.007-1.007c-.098-.098-.098-.256 0-.354s.256-.098.354 0l1.007 1.007c.098.098.098.256 0 .354s-.257.098-.354 0z"/></g></g></g></g></g><g><g><g><g><g><path d="m18.626 19.864-1.632-1.631c-.098-.098-.098-.256 0-.354s.256-.098.354 0l1.632 1.631c.098.098.098.256 0 .354s-.256.098-.354 0z"/></g></g></g></g></g><g><g><g><g><g><path d="m16.857 19.794 1.689-1.69c.098-.098.256-.098.354 0s.098.256 0 .354l-1.689 1.689c-.233.233-.588-.119-.354-.353z"/></g></g></g></g></g><g><g><g><g><g><path d="m16.994 17.548c-.098-.098-.098-.256 0-.354l1.361-1.361c.098-.098.256-.098.354 0s.098.256 0 .354l-1.361 1.361c-.098.098-.256.098-.354 0z"/></g></g></g></g></g><g><g><g><g><g><path d="m19.274 17.275c-.098-.098-.098-.256 0-.354l1.256-1.256c.098-.098.256-.098.353 0 .098.098.098.256 0 .353l-1.256 1.256c-.097.099-.255.099-.353.001z"/></g></g></g></g></g><g><g><g><g><g><path d="m21.828 17.503c-.098-.098-.098-.256 0-.354l1.37-1.37c.098-.098.256-.098.354 0s.098.256 0 .353l-1.37 1.37c-.099.099-.257.099-.354.001z"/></g></g></g></g></g><g><g><g><g><g><path d="m24.518 17.366c-.098-.098-.098-.256 0-.354l1.545-1.545c.098-.098.256-.098.354 0s.098.256 0 .354l-1.545 1.545c-.099.098-.257.098-.354 0z"/></g></g></g></g></g><g><g><g><g><g><path d="m27.345 17.104 1.385-1.385c.098-.098.256-.098.354 0s.098.256 0 .353l-1.385 1.385c-.233.233-.589-.119-.354-.353z"/></g></g></g></g></g><g><g><g><g><g><path d="m31.038 17.378 1.457-1.457c.098-.098.256-.098.353 0 .098.098.098.256 0 .353l-1.457 1.457c-.232.232-.587-.119-.353-.353z"/></g></g></g></g></g><g><g><g><g><g><path d="m32.999 17.776c-.098-.098-.098-.256 0-.353l1.387-1.387c.098-.098.256-.098.354 0s.098.256 0 .354l-1.387 1.387c-.099.097-.257.097-.354-.001z"/></g></g></g></g></g><g><g><g><g><g><path d="m35.871 17.013 1.173-1.174c.098-.098.256-.098.354 0s.098.256 0 .353l-1.173 1.174c-.233.233-.588-.119-.354-.353z"/></g></g></g></g></g><g><g><g><g><g><path d="m38.999 17.166h-1.355c-.138 0-.25-.112-.25-.25s.112-.25.25-.25h1.355c.138 0 .25.112.25.25s-.112.25-.25.25z"/></g></g></g></g></g><g><g><g><g><g><path d="m39.427 17.32c-.098-.098-.098-.256 0-.354l.909-.908c.098-.098.256-.098.354 0s.098.256 0 .354l-.909.908c-.098.098-.256.098-.354 0z"/></g></g></g></g></g><g><g><g><g><g><path d="m41.114 16.83.77-.769c.098-.098.256-.098.354 0s.098.256 0 .354l-.77.769c-.233.232-.589-.118-.354-.354z"/></g></g></g></g></g><g><g><g><g><g><path d="m17.547 35.787-1.562-1.562c-.098-.098-.098-.256 0-.354s.256-.098.353 0l1.562 1.562c.098.098.098.256 0 .354-.097.098-.255.098-.353 0z"/></g></g></g></g></g><g><g><g><g><g><path d="m19.189 35.765-1.539-1.54c-.098-.098-.098-.256 0-.354s.256-.098.354 0l1.539 1.54c.098.098.098.256 0 .354-.098.097-.256.097-.354 0z"/></g></g></g></g></g><g><g><g><g><g><path d="m20.963 35.659-1.434-1.434c-.098-.098-.098-.256 0-.354s.256-.098.354 0l1.434 1.434c.098.098.098.256 0 .354s-.256.098-.354 0z"/></g></g></g></g></g><g><g><g><g><g><path d="m23.117 35.893-1.411-1.411c-.098-.098-.098-.256 0-.354s.256-.098.353 0l1.411 1.411c.098.098.098.256 0 .354-.097.097-.255.097-.353 0z"/></g></g></g></g></g><g><g><g><g><g><path d="m25.1 36.04-1.473-1.473c-.098-.098-.098-.256 0-.354s.256-.098.354 0l1.473 1.473c.098.098.098.256 0 .354-.098.097-.256.097-.354 0z"/></g></g></g></g></g><g><g><g><g><g><path d="m26.884 35.647-1.165-1.165c-.098-.098-.098-.256 0-.354s.256-.098.354 0l1.165 1.165c.098.098.098.256 0 .354-.098.097-.257.097-.354 0z"/></g></g></g></g></g><g><g><g><g><g><path d="m17.407 37.312-1.123-1.123c-.098-.098-.098-.256 0-.354s.256-.098.354 0l1.123 1.123c.098.098.098.256 0 .354s-.256.098-.354 0z"/></g></g></g></g></g><g><g><g><g><g><path d="m17.267 38.495-.854-.854c-.098-.098-.098-.256 0-.354s.256-.098.354 0l.854.854c.098.098.098.256 0 .354-.099.097-.257.097-.354 0z"/></g></g></g></g></g><g><g><g><g><g><path d="m28.75 35.634-1.195-1.195c-.098-.098-.098-.256 0-.354s.256-.098.353 0l1.195 1.195c.233.233-.119.589-.353.354z"/></g></g></g></g></g><g><g><g><g><g><path d="m31.056 35.379-.812-.812c-.098-.098-.098-.256 0-.354s.256-.098.354 0l.812.812c.232.233-.12.588-.354.354z"/></g></g></g></g></g><g><g><g><g><g><path d="m33.085 35.444-.92-.92c-.098-.098-.098-.256 0-.354s.256-.098.354 0l.92.92c.098.098.098.256 0 .354s-.256.098-.354 0z"/></g></g></g></g></g><g><g><g><g><g><path d="m34.391 35.384-.646-.646c-.098-.098-.098-.256 0-.353.098-.098.256-.098.353 0 .288.288.909.737.646.999-.098.098-.256.098-.353 0z"/></g></g></g></g></g><g><g><g><g><g><path d="m36.179 35.337-.812-.813c-.098-.098-.098-.256 0-.354s.256-.098.354 0l.813.813c.098.098.098.256 0 .354-.099.097-.257.097-.355 0z"/></g></g></g></g></g><g><g><g><g><g><path d="m38.273 35.595-1.113-1.113c-.098-.098-.098-.256 0-.354s.256-.098.353 0l1.113 1.113c.098.098.098.256 0 .354-.097.097-.255.097-.353 0z"/></g></g></g></g></g><g><g><g><g><g><path d="m40.858 35.618-1.051-1.051c-.098-.098-.098-.256 0-.354s.256-.098.353 0l1.051 1.051c.098.098.098.256 0 .354-.097.098-.255.098-.353 0z"/></g></g></g></g></g><g><g><g><g><g><path d="m41.6 34.652c-.098-.098-.098-.256 0-.354s.256-.098.354 0l.595.595c.098.098.098.256 0 .353-.247.248-.693-.337-.949-.594z"/></g></g></g></g></g><g><g><g><g><g><path d="m43.328 35.527-.704-.704c-.233-.232.119-.588.354-.354l.704.704c.098.098.098.256 0 .354s-.256.098-.354 0z"/></g></g></g></g></g><g><g><g><g><g><path d="m16.455 38.366c-.098-.098-.098-.256 0-.354l1.324-1.324c.098-.098.256-.098.354 0s.098.256 0 .354l-1.324 1.324c-.098.098-.256.098-.354 0z"/></g></g></g></g></g><g><g><g><g><g><path d="m17.352 35.708 1.088-1.088c.098-.098.256-.098.353 0 .098.098.098.256 0 .354l-1.088 1.088c-.232.232-.588-.12-.353-.354z"/></g></g></g></g></g><g><g><g><g><g><path d="m20.126 35.933c-.098-.098-.098-.256 0-.354l.966-.967c.098-.098.256-.098.354 0s.098.256 0 .354l-.966.967c-.098.098-.256.098-.354 0z"/></g></g></g></g></g><g><g><g><g><g><path d="m22.603 35.323 1.135-1.135c.098-.098.256-.098.354 0s.098.256 0 .354l-1.135 1.135c-.233.232-.589-.119-.354-.354z"/></g></g></g></g></g><g><g><g><g><g><path d="m25.463 35.933c-.098-.098-.098-.256 0-.354l1.094-1.094c.098-.098.256-.098.353 0 .098.098.098.256 0 .354l-1.094 1.094c-.097.098-.255.098-.353 0z"/></g></g></g></g></g><g><g><g><g><g><path d="m29.259 35.451 1.086-1.085c.098-.098.256-.098.354 0s.098.256 0 .354l-1.086 1.085c-.233.232-.589-.119-.354-.354z"/></g></g></g></g></g><g><g><g><g><g><path d="m31.624 35.569 1.229-1.229c.098-.098.256-.098.354 0s.098.256 0 .354l-1.229 1.229c-.233.232-.588-.119-.354-.354z"/></g></g></g></g></g><g><g><g><g><g><path d="m36.118 35.923c-.098-.098-.098-.256 0-.354l1.054-1.053c.098-.098.256-.098.354 0s.098.256 0 .354l-1.054 1.053c-.098.098-.257.098-.354 0z"/></g></g></g></g></g><g><g><g><g><g><path d="m38.404 35.649 1.234-1.235c.098-.098.256-.098.353 0 .098.098.098.256 0 .354l-1.234 1.235c-.232.231-.587-.12-.353-.354z"/></g></g></g></g></g><g><g><g><g><g><path d="m40.533 35.726c-.098-.098-.098-.256 0-.354l1.16-1.161c.232-.232.588.119.354.354l-1.16 1.161c-.098.098-.257.098-.354 0z"/></g></g></g></g></g></g></svg>