<svg id="Layer_1" enable-background="new 0 0 66 66" height="512" viewBox="0 0 66 66" width="512" xmlns="http://www.w3.org/2000/svg"><g><g><g><g><g><g><g><g><g><g><path d="m2.25 51.222c-.752-.567-1.24-1.554-1.244-2.511-.003-.758.297-1.406.844-1.824.086-.066.192-.103.302-.104 14.456-.069 61.626-.294 61.642-.294.832 0 1.304 1.87 1.182 2.732-.135.934-.708 1.72-1.572 2.157-.85.432-1.815.489-2.647.489h-.107c-.282 0-5.218.04-12.007.095-45.523.371-44.473.712-46.393-.74zm.092-3.439c-.276.28-.337.65-.336.926.002.646.343 1.335.848 1.716 2.341 1.773 8.796.444 57.901.444 3.209 0 3.813-1.764 2.858-3.378-3.525.017-57.687.275-61.271.292z"/></g></g></g></g></g><g><g><g><g><g><path d="m7.519 47.759c-.275 0-.5-.224-.5-.499l-.04-25.83c-.007-4.551.968-6.654 6.76-7.089 13.311-.996 26.926-.802 40.468.582 3.137.319 4.087 1.36 4.068 4.453l-.167 27.527c-.002.275-.226.497-.5.497-.001 0-.002 0-.003 0-.276-.002-.499-.226-.497-.503l.167-27.527c.015-2.423-.4-3.17-3.17-3.453-13.482-1.377-27.038-1.572-40.292-.578-5.037.377-5.841 1.779-5.834 6.089l.04 25.83c0 .276-.223.501-.5.501z"/></g></g></g></g></g></g><g><g><g><g><g><path d="m11.962 47.745c-.006 0-.011 0-.017 0-.276-.01-.492-.241-.483-.517.313-9.169.316-18.52.767-27.791.013-.266.233-.476.498-.476 0 0 27.088-.032 41.152-.003.273.001.496.221.499.494.099 8.9-.048 18.134-.188 27.062l-.008.474c-.004.276-.255.495-.508.492-.276-.005-.496-.231-.492-.508l.008-.474c.139-8.758.282-17.808.193-26.542-13.069-.023-36.55 0-40.179.003-.426 9.061-.435 18.179-.743 27.301-.009.272-.23.485-.499.485z"/></g></g></g></g></g></g><g><g><g><g><g><path d="m27.6 49.844c-.273 0-.495-.218-.5-.49-.005-.276.215-.505.49-.51l11.458-.215h.01c.272 0 .495.218.5.49.005.276-.215.505-.49.51l-11.458.215c-.004 0-.007 0-.01 0z"/></g></g></g></g></g><g><g><g><g><g><g><path d="m34.454 40.62c-.016 0-.032-.001-.048-.002-2.439-.229-5.859-1.021-8.296-3.488-2.357-2.388-3.089-6.039-1.738-8.683.865-1.694 2.54-3.02 4.597-3.636 1.694-.506 3.644-.556 5.801-.146 2.122.405 3.748 1.126 4.971 2.205 1.552 1.371 2.325 3.332 2.019 5.117-.192 1.119-.813 2.227-1.795 3.203-.949.944-2.025 1.555-3.112 1.764-1.327.252-2.681-.122-3.54-.979-1.688-1.686-.689-3.401.113-4.78.315-.542.614-1.055.769-1.549.083-.264.366-.411.627-.328.264.083.41.363.328.627-.19.602-.53 1.188-.859 1.754-.877 1.505-1.358 2.482-.271 3.569.627.626 1.643.896 2.645.703.89-.171 1.788-.686 2.596-1.49.582-.578 1.316-1.51 1.514-2.663.245-1.425-.42-3.072-1.694-4.198-1.084-.957-2.555-1.602-4.496-1.973-1.996-.38-3.788-.338-5.326.121-1.797.538-3.252 1.68-3.993 3.133-1.16 2.27-.504 5.435 1.559 7.524 2.227 2.255 5.404 2.982 7.679 3.195.275.026.477.27.451.545-.028.261-.246.455-.501.455z"/></g></g></g></g></g><g><g><g><g><g><path d="m30.756 35.255c-.768 0-1.458-.392-1.744-1.018-.324-.714-.063-1.473.236-2.12.272-.589.604-1.264 1.108-1.833.573-.649 1.293-1.05 2.024-1.13.913-.101 1.796.329 2.199 1.067.132.242.042.546-.2.679-.242.13-.546.042-.679-.2-.204-.375-.716-.613-1.212-.552-.484.053-.976.336-1.385.798-.414.469-.706 1.066-.948 1.59-.204.441-.392.94-.234 1.286.158.344.645.476 1.015.42.486-.069.947-.363 1.415-.685.229-.156.539-.098.695.129.156.228.099.539-.129.695-.548.376-1.141.751-1.841.85-.106.017-.214.024-.32.024z"/></g></g></g></g></g></g></g><g><g><g><g><g><path d="m56.53 51.412-1.762-1.762c-.098-.098-.098-.256 0-.353.098-.098.256-.098.354 0l1.762 1.762c.098.098.098.256 0 .354-.097.096-.255.097-.354-.001z"/></g></g></g></g></g><g><g><g><g><g><path d="m58.525 51.233-1.978-1.977c-.098-.098-.098-.256 0-.354s.256-.098.354 0l1.978 1.978c.098.098.098.256 0 .353s-.256.098-.354 0z"/></g></g></g></g></g><g><g><g><g><g><path d="m60.747 50.887-1.731-1.73c-.098-.098-.098-.256 0-.354s.256-.098.354 0l1.731 1.73c.098.098.098.256 0 .354-.099.099-.257.097-.354 0z"/></g></g></g></g></g><g><g><g><g><g><path d="m62.571 50.54-1.68-1.68c-.098-.098-.098-.256 0-.354s.256-.098.354 0l1.68 1.68c.098.098.098.256 0 .354-.097.097-.255.098-.354 0z"/></g></g></g></g></g><g><g><g><g><g><path d="m63.712 49.606-1.24-1.24c-.098-.098-.098-.256 0-.354s.256-.098.353 0l1.24 1.24c.098.098.098.256 0 .354-.097.097-.255.098-.353 0z"/></g></g></g></g></g><g><g><g><g><g><path d="m54.21 51.215-1.613-1.613c-.098-.098-.098-.256 0-.354s.256-.098.353 0l1.613 1.613c.098.098.098.256 0 .354-.096.097-.255.098-.353 0z"/></g></g></g></g></g><g><g><g><g><g><path d="m51.361 51.083-1.234-1.235c-.098-.098-.098-.256 0-.353.098-.098.256-.098.353 0l1.234 1.235c.098.098.098.256 0 .354-.095.095-.254.098-.353-.001z"/></g></g></g></g></g><g><g><g><g><g><path d="m48.974 51.411-1.068-1.069c-.098-.098-.098-.256 0-.354.099-.099.257-.097.354 0l1.068 1.069c.098.098.098.256 0 .354-.097.096-.255.099-.354 0z"/></g></g></g></g></g><g><g><g><g><g><path d="m46.61 51.368-1.075-1.076c-.098-.098-.098-.256 0-.354.099-.099.257-.097.354 0l1.075 1.076c.234.235-.121.586-.354.354z"/></g></g></g></g></g><g><g><g><g><g><path d="m44.549 51.478-.989-.988c-.098-.098-.098-.256 0-.354.097-.098.255-.098.354 0l.989.988c.098.098.098.256 0 .354-.099.099-.258.097-.354 0z"/></g></g></g></g></g><g><g><g><g><g><path d="m42.437 51.682c-.064 0-.128-.024-.177-.073l-.922-.922c-.098-.098-.098-.256 0-.354s.256-.098.354 0l.745.745 1.408-1.408c.098-.098.256-.098.354 0s.098.256 0 .354l-1.585 1.585c-.049.049-.113.073-.177.073z"/></g></g></g></g></g><g><g><g><g><g><path d="m44.695 51.23c-.098-.098-.098-.256 0-.354l1.939-1.939c.098-.098.256-.098.354 0s.098.256 0 .354l-1.939 1.939c-.097.097-.255.099-.354 0z"/></g></g></g></g></g><g><g><g><g><g><path d="m47.115 51.074 1.551-1.551c.098-.098.256-.098.354 0s.098.256 0 .354l-1.551 1.551c-.234.233-.587-.121-.354-.354z"/></g></g></g></g></g><g><g><g><g><g><path d="m49.634 51.329c-.098-.098-.098-.256 0-.354l1.763-1.762c.098-.099.256-.097.354 0 .098.098.098.256 0 .354l-1.763 1.762c-.097.096-.255.099-.354 0z"/></g></g></g></g></g><g><g><g><g><g><path d="m52.201 51.428c-.098-.098-.098-.256 0-.354l3.079-3.079c.098-.098.256-.098.354 0s.098.256 0 .354l-3.079 3.079c-.097.097-.255.098-.354 0z"/></g></g></g></g></g><g><g><g><g><g><path d="m55.411 51.329c-.098-.098-.098-.256 0-.354l3.036-3.036c.098-.098.256-.098.354 0s.098.256 0 .354l-3.036 3.036c-.097.097-.256.098-.354 0z"/></g></g></g></g></g><g><g><g><g><g><path d="m57.979 51.329c-.098-.098-.098-.256 0-.354l2.577-2.577c.098-.098.256-.098.354 0s.098.256 0 .354l-2.577 2.577c-.098.097-.256.098-.354 0z"/></g></g></g></g></g><g><g><g><g><g><path d="m60.3 51.379c-.098-.098-.098-.256 0-.354l2.302-2.303c.097-.098.255-.098.354 0 .098.098.098.256 0 .354l-2.302 2.303c-.099.099-.258.096-.354 0z"/></g></g></g></g></g><g><g><g><g><g><path d="m61.633 48.112 1.182-1.182c.098-.098.256-.098.353 0 .098.098.098.256 0 .354l-1.182 1.182c-.234.234-.586-.121-.353-.354z"/></g></g></g></g></g><g><g><g><g><g><path d="m50.858 47.463-5.345-5.344c-.098-.098-.098-.256 0-.354s.256-.098.354 0l5.345 5.344c.098.098.098.256 0 .353-.098.098-.256.099-.354.001z"/></g></g></g></g></g><g><g><g><g><g><path d="m52.637 46.749c-.065 0-.128-.024-.177-.073l-4.019-4.02c-.098-.098-.098-.256 0-.354s.256-.098.354 0l4.019 4.02c.098.098.098.256 0 .354-.049.048-.113.073-.177.073z"/></g></g></g></g></g><g><g><g><g><g><path d="m53.252 44.078c-.065 0-.128-.024-.177-.073l-2.782-2.782c-.098-.098-.098-.256 0-.353.098-.098.256-.098.354 0l2.782 2.782c.098.098.098.256 0 .354-.049.047-.113.072-.177.072z"/></g></g></g></g></g><g><g><g><g><g><path d="m53.192 41.97-2.183-2.183c-.098-.098-.098-.256 0-.354s.256-.098.354 0l2.183 2.183c.098.098.098.256 0 .354-.097.098-.255.099-.354 0z"/></g></g></g></g></g><g><g><g><g><g><path d="m53.336 39.008-1.43-1.43c-.098-.098-.098-.256 0-.353.098-.098.256-.098.354 0l1.43 1.43c.098.098.098.256 0 .354-.098.096-.256.097-.354-.001z"/></g></g></g></g></g><g><g><g><g><g><path d="m53.44 36.781-1.115-1.115c-.098-.098-.098-.256 0-.354s.256-.098.353 0l1.115 1.115c.098.098.098.256 0 .354-.097.097-.255.098-.353 0z"/></g></g></g></g></g><g><g><g><g><g><path d="m46.022 46.45-3.077-3.077c-.098-.098-.098-.256 0-.354s.256-.098.354 0l3.077 3.077c.098.098.098.256 0 .354-.098.097-.256.098-.354 0z"/></g></g></g></g></g><g><g><g><g><g><path d="m42.877 46.472-2.442-2.442c-.098-.098-.098-.256 0-.354s.256-.098.354 0l2.442 2.442c.098.098.098.256 0 .353-.098.098-.256.1-.354.001z"/></g></g></g></g></g><g><g><g><g><g><path d="m39.097 46.397-1.77-1.77c-.098-.098-.098-.256 0-.354s.256-.098.354 0l1.769 1.77c.098.098.098.256 0 .354-.097.097-.255.098-.353 0z"/></g></g></g></g></g><g><g><g><g><g><path d="m35.566 46.689-1.404-1.404c-.098-.098-.098-.256 0-.353.098-.098.256-.098.354 0l1.404 1.404c.098.098.098.256 0 .354-.098.096-.256.097-.354-.001z"/></g></g></g></g></g><g><g><g><g><g><path d="m32.45 46.802-1.276-1.277c-.098-.098-.098-.256 0-.354.098-.099.256-.097.354 0l1.276 1.277c.098.098.098.256 0 .354-.097.096-.255.098-.354 0z"/></g></g></g></g></g><g><g><g><g><g><path d="m29.416 46.754-.812-.811c-.098-.098-.098-.256 0-.354s.256-.098.353 0l.813.811c.098.098.098.256 0 .354-.097.097-.256.098-.354 0z"/></g></g></g></g></g><g><g><g><g><g><path d="m28.484 47.436c-.098-.098-.098-.256 0-.354l3.012-3.012c.098-.098.256-.098.354 0s.098.256 0 .354l-3.012 3.012c-.097.097-.255.099-.354 0z"/></g></g></g></g></g><g><g><g><g><g><path d="m30.935 47.257c-.098-.098-.098-.256 0-.354l2.941-2.941c.098-.098.256-.098.354 0s.098.256 0 .354l-2.941 2.941c-.098.097-.256.098-.354 0z"/></g></g></g></g></g><g><g><g><g><g><path d="m34.041 46.839c-.098-.098-.098-.256 0-.354l4.157-4.157c.098-.098.256-.098.354 0s.098.256 0 .354l-4.157 4.157c-.097.097-.256.098-.354 0z"/></g></g></g></g></g><g><g><g><g><g><path d="m37.149 47.078c-.098-.098-.098-.256 0-.353l3.634-3.635c.098-.098.256-.098.354 0s.098.256 0 .354l-3.634 3.635c-.098.096-.256.097-.354-.001z"/></g></g></g></g></g><g><g><g><g><g><path d="m40.076 46.659c-.098-.098-.098-.256 0-.354l3.65-3.65c.098-.098.256-.098.354 0s.098.256 0 .354l-3.65 3.65c-.097.097-.255.098-.354 0z"/></g></g></g></g></g><g><g><g><g><g><path d="m43.064 46.839c-.098-.098-.098-.256 0-.354l5.298-5.298c.098-.098.256-.098.354 0s.098.256 0 .354l-5.298 5.298c-.098.097-.256.098-.354 0z"/></g></g></g></g></g><g><g><g><g><g><path d="m46.231 46.599c-.098-.098-.098-.256 0-.354l4.066-4.066c.098-.098.256-.098.354 0s.098.256 0 .354l-4.066 4.066c-.098.097-.256.099-.354 0z"/></g></g></g></g></g><g><g><g><g><g><path d="m50.293 46.659c-.098-.098-.098-.256 0-.354l2.748-2.748c.098-.098.256-.098.354 0s.098.256 0 .354l-2.748 2.748c-.097.097-.256.098-.354 0z"/></g></g></g></g></g><g><g><g><g><g><path d="m50.95 43.493c-.098-.098-.098-.256 0-.353l2.242-2.242c.098-.098.256-.098.354 0s.098.256 0 .354l-2.242 2.242c-.097.096-.255.097-.354-.001z"/></g></g></g></g></g><g><g><g><g><g><path d="m51.187 40.34c-.064 0-.128-.024-.177-.073-.098-.098-.098-.256 0-.354l1.823-1.822c.099-.099.257-.097.354 0 .098.098.098.256 0 .354l-1.823 1.822c-.049.048-.114.073-.177.073z"/></g></g></g></g></g><g><g><g><g><g><path d="m52.025 36.86c-.098-.098-.098-.256 0-.354l1.417-1.417c.098-.098.256-.098.354 0s.098.256 0 .354l-1.417 1.417c-.097.097-.255.098-.354 0z"/></g></g></g></g></g><g><g><g><g><g><path d="m16.232 29.298c-.098-.098-.098-.256 0-.353l5.203-5.203c.098-.098.256-.098.354 0s.098.256 0 .354l-5.203 5.203c-.098.096-.256.097-.354-.001z"/></g></g></g></g></g><g><g><g><g><g><path d="m18.441 28.762-1.762-1.762c-.098-.098-.098-.256 0-.353.098-.098.256-.098.354 0l1.762 1.762c.098.098.098.256 0 .353-.098.098-.256.099-.354 0z"/></g></g></g></g></g><g><g><g><g><g><path d="m20.042 27.237-1.641-1.641c-.098-.098-.098-.256 0-.354s.256-.098.353 0l1.641 1.641c.098.098.098.256 0 .354-.096.097-.255.098-.353 0z"/></g></g></g></g></g><g><g><g><g><g><path d="m21.606 26.272c-.064 0-.128-.024-.177-.073l-1.814-1.815c-.098-.098-.098-.256 0-.354.099-.099.257-.098.353 0l1.815 1.815c.098.098.098.256 0 .354-.05.049-.114.073-.177.073z"/></g></g></g></g></g><g><g><g><g><g><path d="m16.727 42.731c-.098-.098-.098-.256 0-.354l3.842-3.842c.098-.098.256-.098.354 0s.098.256 0 .354l-3.842 3.842c-.098.097-.256.098-.354 0z"/></g></g></g></g></g><g><g><g><g><g><path d="m17.961 42.555-1.234-1.235c-.098-.098-.098-.256 0-.354.098-.099.256-.097.354 0l1.234 1.235c.098.098.098.256 0 .353-.097.098-.255.1-.354.001z"/></g></g></g></g></g><g><g><g><g><g><path d="m18.95 41.638-1.13-1.13c-.098-.098-.098-.256 0-.354s.256-.098.354 0l1.13 1.13c.098.098.098.256 0 .354-.097.098-.255.099-.354 0z"/></g></g></g></g></g><g><g><g><g><g><path d="m19.834 40.548-.814-.816c-.098-.098-.098-.256 0-.354.098-.099.256-.097.354 0l.814.816c.098.098.098.256 0 .354-.097.096-.255.099-.354 0z"/></g></g></g></g></g><g><g><g><g><g><path d="m20.484 39.679-.9-.899c-.098-.098-.098-.256 0-.354.097-.097.255-.099.353 0l.9.899c.098.098.098.256 0 .354-.098.099-.256.097-.353 0z"/></g></g></g></g></g></g><g><g><g><g><g><path d="m22.35 16.78c-.136 0-.247-.108-.25-.245-.003-.138.106-.252.245-.255l13.133-.273h.005c.136 0 .247.108.25.245.003.138-.107.252-.245.255l-13.133.273c-.001 0-.003 0-.005 0z"/></g></g></g></g></g><g><g><g><g><g><path d="m24.624 17.725c-.122 0-.23-.09-.247-.214l-.252-1.719c-.02-.137.074-.264.211-.283.133-.021.264.075.283.211l.252 1.719c.021.137-.074.264-.211.283-.011.002-.024.003-.036.003z"/></g></g></g></g></g><g><g><g><g><g><path d="m27.306 17.539c-.128 0-.236-.097-.249-.226l-.161-1.665c-.013-.138.088-.26.225-.274.155-.022.26.088.273.225l.161 1.665c.013.138-.088.26-.225.273-.009.002-.016.002-.024.002z"/></g></g></g></g></g><g><g><g><g><g><path d="m29.709 17.56c-.1 0-.193-.06-.232-.158l-.543-1.366c-.051-.128.012-.273.141-.324.127-.049.272.011.324.141l.543 1.366c.051.128-.012.273-.141.324-.03.011-.061.017-.092.017z"/></g></g></g></g></g><g><g><g><g><g><path d="m32.303 17.457c-.101 0-.196-.062-.234-.162l-.648-1.719c-.048-.129.017-.273.146-.322.128-.049.273.017.322.146l.648 1.719c.048.129-.017.273-.146.322-.029.011-.059.016-.088.016z"/></g></g></g></g></g></g></svg>