<svg id="Layer_1" enable-background="new 0 0 66 66" height="512" viewBox="0 0 66 66" width="512" xmlns="http://www.w3.org/2000/svg"><g><path d="m19.298 35.194c-.903.55-1.679 1.326-2.272 2.29-.367.597-.871 1.416-1.026 2.145-.195.911.005 1.954.207 2.668.491 1.735 1.621 3.224 3.102 4.084 1.021.593 2.191.882 3.363.882 1.648 0 3.299-.571 4.541-1.672 1.551-1.375 2.396-3.484 2.203-5.504-.261-2.734-2.438-5.145-5.178-5.732-1.676-.358-3.477-.052-4.94.839zm3.831.029c0 .064.024.127.073.176l.826.826-.698.698-.617-.617.475-.475c.098-.098.098-.256 0-.354s-.256-.098-.354 0l-.475.475-.626-.626c.364-.07.732-.118 1.102-.118.098-.001.196.01.294.015zm-2.016.776c-.098-.098-.256-.098-.354 0l-.583.583-.423-.423.162-.162c.392-.229.811-.409 1.245-.538l.846.846-1.054 1.054-.423-.423.583-.583c.099-.098.099-.256.001-.354zm-3.809 6.376.481.481-.213.213c-.109-.222-.186-.459-.268-.694zm-.33-2.498.455.455-.485.485c-.029-.32-.029-.642.03-.94zm.172-.535c.196-.458.501-.958.76-1.379.042-.068.092-.129.137-.195.063 0 .127-.024.175-.073l.047-.047.924.924-1.407 1.407zm11.274.841c.163 1.708-.554 3.494-1.871 4.661-1.812 1.606-4.646 1.889-6.739.674-.808-.47-1.474-1.178-1.973-2.008l.3-.3.117.117c.098.098.256.098.354 0s.098-.256 0-.354l-.118-.117 1.506-1.506c.098-.098.098-.256 0-.354s-.256-.098-.354 0l-1.506 1.506-1.02-1.02c-.024-.024-.057-.023-.086-.036-.008-.043-.014-.088-.022-.131.01.001.018.012.028.012.064 0 .128-.024.177-.073l.567-.567.778.778c.098.098.256.098.354 0s.098-.256 0-.354l-.778-.778 1.407-1.407.669.669c.098.098.256.098.354 0s.098-.256 0-.354l-.716-.716c.013-.161-.1-.274-.261-.261l-.971-.971.781-.781.423.423-.405.405c-.098.098-.098.256 0 .354s.256.098.353 0l.405-.405.423.423-.373.373c-.098.098-.098.256 0 .354s.256.098.354 0l.373-.373.432.432c.098.098.256.098.354 0s.098-.256 0-.354l-.432-.432 1.054-1.054.617.617-.228.228c-.098.098-.098.256 0 .354s.256.098.354 0l1.279-1.279.473.473c.084.084.211.107.331.009.085.026.143.058.246-.044l.486-.486.363.363c.098.098.256.098.354 0 .03-.03.034-.071.045-.109.957.909 1.62 2.118 1.742 3.399zm-3.268-4.451c.01.018.007.04.023.055l.389.389-.439.439-.39-.39.165-.165c.098-.098.098-.256 0-.354s-.256-.098-.354 0l-.165.165-.573-.573c.073.013.147.019.219.035.391.084.764.229 1.125.399z"/><path d="m1.303 45.099c.238 3.023 1.788 2.786 4.808 2.392.646-.083 1.294-.168 1.944-.23l.388-.033c.568 1.166 1.253 2.244 2.041 3.213l-.41.642c-.2.317-.405.633-.61.95-3.139 4.844-2.566 4.127.824 6.958 2.909 2.455 3.626-.266 6.746-3.821 1.101.406 2.256.69 3.442.846.074.326.147.65.217.979 1.282 5.672 1.071 5.88 3.599 5.656 5.816-.586 4.78-.388 4.219-7.542 1.219-.451 2.361-1.034 3.402-1.738 6.38 4.054 5.287 3.84 8.376.083 2.296-2.72.071-3.525-3.166-6.19.662-1.367 1.114-2.798 1.349-4.263 1.485-.322 2.979-.596 4.397-1.071 1.632-.549 1.169-1.583.863-4.625-.286-3.388-2.234-2.625-6.144-2.188-.597-1.459-1.417-2.816-2.444-4.043.133-.207.268-.414.402-.622 1.889-2.906 1.09-1.998 1.141-1.385.049.545.434.793.799 1.163 3.324 3.324 2.798 2.329 6.458-1.067.729.355 1.502.636 2.305.838.206 1.761.268 2.895.529 4.087.292 1.331 1.141 1.105 3.7 1.105 2.588 0 1.885-2.241 1.966-5.223.872-.227 1.703-.545 2.479-.948l.895.72c.674.548 1.372 1.115 2.119 1.595 1.178.753 1.661-.122 3.208-1.653 2.024-1.93.236-2.881-1.748-4.889.555-.906.977-1.868 1.258-2.867 1.205-.125 2.216-.209 3.224-.429.242-.054.583-.179.829-.471.36-.423.249-.86.259-1.385.03-4.027-.048-3.837-4.338-3.802-.316-1.06-.786-2.068-1.402-3.006.908-1.124 2.23-2.463 2.155-3.421-.051-.548-.437-.782-.799-1.156-2.749-2.749-2.524-2.86-5.842.471-.913-.473-1.931-.835-3.015-1.046-.13-1.245-.213-2.265-.435-3.283-.054-.242-.179-.583-.473-.831-.437-.365-.725-.252-2.941-.27-.565-.016-1.338-.039-1.847.583-.648.79-.383 2.094-.398 4.181-.457.151-.904.33-1.335.534-.473.227-.908.469-1.322.736-4.071-3.287-3.478-3.06-6.054-.524-2.01 1.91-.28 2.811 1.821 4.954-.513.767-.856 1.42-1.044 1.985-.083.248-.149.511-.199.799-3.307.374-4.497.223-4.402 2.104.003.069.007.135.007.194l-.015 1.555c-.016.563-.038 1.335.583 1.851.805.66 2.279.353 4.506.403.311.843.702 1.637 1.169 2.37-.98 1.217-1.73 2.104-2.34 3.033 1.286-2.304.717-2.119-2.259-4.608-2.65-2.249-3.494-.156-5.99 2.933-1.391-.553-2.905-.907-4.438-1.021-1.407-6.431-.844-5.839-5.685-5.356-3.671.289-2.551 2.658-2.159 6.702-1.254.557-2.461 1.287-3.588 2.217-.267-.168-.38-.238-1.137-.73-4.747-3.085-4.135-2.708-7.005.802-2.322 2.743-.017 3.533 3.278 6.271-.614 1.157-.999 2.116-1.173 2.922-.083.376-.134.777-.157 1.218-.354.08-.711.156-1.068.232-5.353 1.144-4.775.946-4.323 5.46zm37.982-14.468.415-.415.864.864c-.539.358-.821.027-1.279-.449zm1.52-1.52c.009.014.006.031.018.043l.388.388-.739.739-.419-.419zm.88.906c-.252.261-.475.496-.734.745l-.126-.126.739-.739zm9.754.419-.121-.121.122-.122c0 .03-.002.06-.002.09-.001.051.001.102.001.153zm4.98-1.492.536-.536.984.984-.422.422c-.362-.276-.719-.562-1.069-.846zm4.674-8.065.195-.195.157.157c-.072.007-.228.026-.352.038zm1.838-1.226-.671.671c-.129.129-.096.377.142.413-.107.014-.214.023-.321.035l-.441-.441.984-.984zm1.012.733c-.148.177-1.192.299-1.424.331.136-.05.713-.657.818-.762.064 0 .128-.024.177-.073s.073-.113.073-.177l.382-.382-.002.31c-.001.085.002.18.007.277.006.133.019.41-.028.473l.38.325zm-.93-3.565-.161.161c-.109-.109-.117-.134-.234-.17.149 0 .268.003.395.009zm-22.658 8.543c.136-.172.145-.412.021-.593-2.007-2.941-.726-3.084-2.381-3.122-4.821-.058-3.716.646-3.903-3.047-.02-.409-.042-.558.311-.635.804-.175 1.663-.264 2.493-.35.585-.061 1.467.009 1.535-.555.045-.378.114-.704.213-.997.184-.554.558-1.229 1.144-2.062.132-.188.119-.442-.032-.615-3.373-3.887-3.623-2.082-.827-5.168.277-.305.353-.422.662-.224 4.696 3.016 2.079 2.967 5.133 1.505 2.367-1.119 1.876.256 1.876-3.892.003-.38.007-.853.202-1.091.185-.226.538-.233 1.044-.217.057 0 2.283-.001 2.327.036.06.05.112.155.14.28.218 1 .309 2.13.434 3.344 0 .005.011.099.012.103.001.006.013.11.013.116.03.219.2.393.418.427.523.082 1.061.212 1.595.385 2.582.856 1.633 1.535 3.436-.353.236-.247.473-.495.75-.773.266-.26.596-.584.898-.611.289-.036.521.195.875.566l.159.165c.203.207.942.963 1.156 1.157.296.27.422.35.223.661-.559.871-1.132 1.517-1.986 2.608-.212.164-.258.465-.104.684 2.694 3.828.339 3.795 3.356 3.731.303-.006.612-.011.928-.013-.036.012-.075.014-.104.043-.204.204.018.371.211.564.027.128.053.154.182.182l.658.658c.098.098.256.098.354 0 .258-.257-.296-.649-.572-.925l.134-.134c.12.018.287-.057.363-.217.396.25.274 1.241.271 1.731-.162 0-.573.469-.688.584l-.784-.784c-.098-.098-.256-.098-.354 0s-.098.256 0 .354l.125.125-.984.984-.746-.746c-.098-.098-.256-.098-.354 0s-.098.256 0 .354l.746.746-.63.631c-.256.026-.462.109-.531.386-1.213 4.91-3.001 2.18.618 5.819 1.307 1.312.447 1.193-1.25 3.097-.272.305-.356.434-.667.233-.185-.119-.364-.258-.545-.388l.362-.363.245.245c.233.233.589-.118.354-.353l-.245-.245.89-.89c.237.237.498.612.732.378.098-.098.098-.256 0-.354l-.547-.547c-.003-.003-.002-.008-.005-.011s-.008-.002-.011-.005l-.55-.55c.255-.255.688-.557.446-.799-.243-.243-.544.191-.799.446-.183-.183-.338-.377-.535-.181-.098.098-.098.256 0 .354l.181.181-.181.181c-.098.098-.098.256 0 .354s.256.098.354 0l.181-.181.381.381-.89.89-.984-.984.613-.613c.098-.098.098-.256 0-.354s-.256-.098-.354 0l-.612.613-.52-.52c-.098-.098-.256-.098-.354 0s-.098.256 0 .354l.52.52-.575.575c-1.757-1.41-.381-.404-4.182.459-.34.077-.383.333-.393.643-.213-.109-.315.058-.487.231l-.219-.219c-.098-.098-.256-.098-.354 0s-.098.256 0 .354l.219.219-.181.181c-.098.098-.098.256 0 .353.098.098.256.098.354 0l.181-.181.481.482c.003.196.002.393.006.589.067 3.17.05 2.297-3.083 2.446-.593.026-.551-.009-.663-.597l.828-.828 1.029 1.029c-.036.09-.035.191.037.264.108.108.183.075.275.033.224.174.49-.059.351-.305l.957-.957c.17-.017.238-.136.208-.286.015-.078.006-.159-.055-.22-.041-.042-.096-.056-.15-.062l-1.006-1.006c-.027-.027-.063-.028-.096-.04l.139-.139c.098-.098.098-.256 0-.354s-.256-.098-.354 0l-1.335 1.335c-.157-.157-.3-.303-.478-.125-.098.098-.098.256 0 .354l.125.125-.577.577c-.844-5.679.538-2.738-3.508-4.862-.184-.097-.408-.07-.564.068-.206.183-.408.372-.602.561-.306.296-.6.603-.895.91l-.117-.117.676-.676c.024.007.044.029.069.029.064 0 .128-.024.177-.073.098-.098.098-.256 0-.354-.107-.107-.101-.101-.101-.101s-.001 0-.001 0l-.885-.885c-.098-.098-.256-.098-.354 0s-.098.256 0 .353l.709.709-.645.645-.388-.388c-.012-.012-.03-.009-.043-.018l.454-.454c.098-.098.098-.256 0-.353-.098-.098-.256-.098-.354 0l-1.531 1.527c-.328-.329-.686.021-.354.354l-.411.411c-1.601-1.628-1.894-.789 1.42-4.91zm9.432 6.143c.012.033.013.07.04.096l.935.935-.871.871-1.003-1.003zm-47.537 13.018.562.562-.459.459c-.021-.152-.083-.822-.103-1.021zm8.776 13.776.572-.572.655.655c.024.13.06.166.19.19l.211.211c-.606.342-1.085-.031-1.628-.484zm1.754-1.754.573.573-.829.829-.573-.573zm.276 1.934-.179-.179.829-.829.113.113c-.237.298-.483.625-.763.895zm1.074-1.291-.07-.07.581-.581c-.011.014-.503.64-.511.651zm10.946 4.01-.868-.868.671-.671.868.868zm10.538-6.677.42-.42.651.651c-.096.096-.156.15-.102.311-.326-.17-.649-.351-.969-.542zm.773-.773.75-.75.651.651-.75.75zm.469 1.469c.043-.01.089-.017.122-.051l.06-.06.214.214c-.12-.004-.253-.032-.396-.103zm1.092-.469c-.072.101-.157.215-.243.318l-.313-.313.75-.75.219.219c-.262.319-.253.305-.413.526zm2.728-19.001c.004.058.022.116.067.161l.077.077-.453.453-.584-.584c.39-.049.513-.068.893-.107zm-1.924.232-.343.343-.27-.27c.205-.025.409-.047.613-.073zm-31.07 3.836c.013-1.139.166-2.168 1.41-4.421.111-.202.071-.453-.098-.609-3.417-3.15-5.251-3.058-3.484-5.145.09-.11 1.998-2.497 2.137-2.525.555-.096 3.088 1.608 3.561 1.915 3.11 2.025.548.724 5.989-1.547.801-.335-.626-4.993.003-5.957.392-.601 2.449-.547 4.007-.788 1-.153 1.055-.306 1.935 3.884.677 3.224.199.516 5.572 2.819.204.087.44.03.582-.14 3.231-3.897 2.949-4.649 5.044-2.894.127.104 2.252 1.776 2.285 1.937.101.546-1.613 3.096-1.916 3.562-1.614 2.481-.04.32 2.088 5.924.08.212.296.342.518.32.065-.007.129-.016.194-.023l.547.547-.307.307c-.098.098-.098.256 0 .354s.256.098.354 0l.307-.307.751.751c.098.098.256.098.354 0s.098-.256 0-.354l-.751-.751.568-.568.748.748c.005.057.022.115.066.158.044.044.101.061.158.066l.143.143c.098.098.256.098.354 0s.098-.256 0-.354l-.079-.079.453-.453.384.384c.232.232.588-.119.354-.354l-.384-.384.24-.24c.837.145.897.778.969 1.643.034.338.213 2.183.265 2.519.188 1.211.264.971-5.044 2.182-.221.032-.394.207-.424.427-.217 1.601-.713 3.163-1.475 4.642-.099.193-.063.429.091.583.317.317 2.62 2.08 3.004 2.39 1.364 1.103 1.329 1.524.453 2.576-.069-.124-1.108-1.144-1.208-1.244-.098-.098-.256-.098-.354 0s-.098.256 0 .354c.105.105 1.146 1.18 1.287 1.226l-.651.792-.185-.185.201-.2c.098-.098.098-.256 0-.354s-.256-.098-.354 0l-.201.201-.651-.651.458-.458c.098-.098.098-.256 0-.354s-.256-.098-.354 0l-.458.458-.079-.079c-.098-.098-.256-.098-.354 0s-.098.256 0 .354l.079.079-.75.75-.355-.355c-.098-.098-.256-.098-.354 0s-.098.256 0 .354l.355.355-.511.511c-5.25-3.246-1.459-1.994-7.349.032-.215.074-.353.288-.336.514.09 1.201.072.86.132 1.41l-.234.234-.808-.809c-.098-.098-.256-.098-.354 0s-.098.256 0 .354l.809.809-.415.414c-.098.098-.098.256 0 .354s.256.098.354 0l.414-.414c.117.117.243.276.38.303.524 4.065.474 3.786-2.306 4.066l.645-.645.274.274c.098.098.256.098.353 0 .098-.098.098-.256 0-.354l-.274-.274 1.006-1.006.021.021c.049.049.113.073.177.073s.128-.024.177-.073c.098-.098.098-.256 0-.354l-1.617-1.617c-.098-.098-.256-.098-.353 0-.098.098-.098.256 0 .354l1.242 1.242-1.006 1.006-.868-.868.767-.765c.098-.098.098-.256 0-.354s-.256-.098-.354 0l-.767.767-.119-.119c-.098-.098-.256-.098-.353 0-.098.098-.098.256 0 .354l.119.119-.671.671-.395-.395c-.098-.098-.256-.098-.354 0s-.098.256 0 .354l.395.395-.671.671c-.098.098-.098.256 0 .354.283.283.74-.387 1.024-.671l.893.893c.011.01.027.008.038.016l-.59.059c-.112.01-.235.028-.362.048-1.001.156-1.034.354-1.92-3.797-.944-4.433.171-1.813-4.841-3.792-.059-.023-.122-.035-.184-.035-.138 0-.273.057-.37.164-.25.276-.494.559-.727.842-.057.069-.111.142-.167.211l-.954-.954c-.098-.098-.256-.098-.354 0s-.098.256 0 .354l.995.995c-.024.03-.048.06-.071.09-.04-.238-.284-.265-.411-.138l-1.124 1.124-.573-.573.914-.914c.098-.098.098-.256 0-.354s-.256-.098-.354 0l-1.042 1.045c-.022.011-.048.009-.067.028-.018.018-.016.045-.028.067l-.958.958-.158-.159c-.098-.098-.256-.098-.354 0-.19.19-.016.337.159.512l-.606.606c-.313-.257-1.329-1.095-1.656-1.334-.504-.368-.738-.53-.459-1.091.509-1.018 1.155-2.016 1.78-2.98 2.305-3.552 1.276-.949-1.104-6.086-.396-.853-5.362.714-6.369.056-.171-.113-.274-.28-.349-.481.14-.047 1.771-1.712 1.875-1.816.098-.098.098-.256 0-.354s-.256-.098-.353 0l-.838.838c-.103-.103-.874-.889-.991-.963 0-.002-.187-1.745-.187-1.747l.265.265c-.029.168.073.308.273.273l1.147 1.147c.098.098.256.098.353 0 .098-.098.098-.256 0-.354l-1.105-1.106.705-.705 1.374 1.374c.098.098.256.098.354 0 .261-.261-.317-.671-.597-.95.154-.021.836-.751.948-.863l1.2 1.201c.098.098.256.098.353 0 .098-.098.098-.256 0-.354-.032-.032-1.318-1.314-1.343-1.352 1-.214 1.762-.195 1.768-.783zm-2.353.912.021.021c-.111.111-.842.795-.863.948l-.556-.556c.002-.03-.012-.054-.021-.083.473-.118.944-.227 1.419-.33zm-2.127.53-.636.636-.319-.319c.235-.146.675-.237.955-.317z"/><path d="m47.099 14.466c-.722.339-1.367.859-1.89 1.534-.321.416-.762.984-.94 1.526-.223.677-.158 1.478-.064 2.03.227 1.341.955 2.549 1.996 3.315.875.644 1.954.966 3.033.966 1.05 0 2.1-.305 2.961-.918 1.276-.906 2.081-2.422 2.101-3.955.026-2.075-1.414-4.063-3.423-4.726-1.229-.407-2.603-.323-3.774.228zm.671.846c-.009-.009-.022-.006-.032-.013.315-.127.642-.209.979-.255l.275.275-.607.607zm-.425.172c-.001.066.021.132.071.182l.081.081c-.062.001-.124.024-.172.071l-.241.241-.253-.253c.163-.122.336-.227.514-.322zm-.888.655.273.273-.588.589-.249-.249c.044-.057.089-.117.131-.171.127-.164.284-.299.433-.442zm-1.238 1.699c.067-.205.211-.442.375-.678l.213.213c-.051.095-.053.21.027.29.108.108.195.077.29.026l.72.72-.946.947-.777-.777c0-.286.032-.54.098-.741zm-.029 1.55c-.002-.013-.003-.024-.005-.036l.358.358-.211.211c-.053-.176-.11-.35-.142-.533zm8.106-.437c-.015 1.219-.659 2.427-1.68 3.152-1.406.999-3.434.983-4.823-.039-.551-.405-.979-.978-1.269-1.629l.373-.373.358.358c.098.098.256.098.354 0s.098-.256 0-.354l-.358-.358 1.176-1.176c.098-.098.098-.256 0-.353-.049-.049-.114-.073-.178-.073l-.753-.753.589-.589.598.598c.098.098.256.098.354 0s.098-.256 0-.354l-.598-.598.241-.241c.048-.047.07-.11.071-.172l.367.367c.01.046.018.093.053.128s.083.044.128.053l.457.457c.098.098.256.098.354 0s.098-.256 0-.354l-.371-.371.607-.607.871.871c.098.098.256.098.354 0s.098-.256 0-.354l-.871-.871.244-.244c.01-.01.007-.024.014-.034.204.034.406.081.603.146 1.579.525 2.755 2.143 2.735 3.767z"/><path d="m11.582 36.763c-.48 1.316-.669 2.693-.474 4.007.018.124.125.213.247.213.012 0 .025-.001.037-.003.137-.02.231-.147.21-.284-.176-1.184-.017-2.423.394-3.616l.842.645c.107.084.266.064.35-.046.084-.109.063-.266-.046-.35l-.968-.743c.336-.814.801-1.592 1.373-2.308l.42.407c.098.095.256.095.354-.006.096-.099.093-.257-.006-.354l-.443-.429c.747-.842 1.335-1.332 2.336-1.951l.668.493c.111.081.267.059.35-.053.082-.111.059-.268-.053-.35l-.503-.372c.769-.43 1.613-.786 2.514-1.077l.124.134c.095.102.254.106.353.013.089-.082.09-.208.031-.307.687-.197 1.408-.35 2.156-.466l.529.703c.085.112.243.131.35.049.11-.083.132-.24.049-.35l-.365-.484c.346-.043.695-.083 1.052-.109.138-.01.241-.13.231-.267-.01-.139-.14-.238-.268-.231-.464.034-.918.084-1.364.146l-.629-.835c-.084-.111-.241-.132-.35-.049-.11.083-.132.24-.049.35l.473.628c-.755.128-1.481.295-2.174.504l-.977-1.053c-.094-.101-.252-.107-.353-.013-.102.094-.107.252-.013.353l.816.88c-.924.314-1.784.702-2.572 1.161l-.803-.594c-.109-.08-.267-.059-.35.053-.082.111-.059.268.053.35l.639.472c-.94.603-1.513 1.083-2.262 1.924l-.555-.538c-.098-.096-.256-.093-.354.006-.096.099-.093.257.006.354l.578.56c-.585.726-1.075 1.511-1.429 2.337l-.662-.507c-.108-.085-.267-.064-.35.046-.084.109-.063.266.046.35z"/><path d="m41.944 15.087c-.279.435-1.358 2.262-.868 2.427.134.045.274-.029.317-.157.235-.695.564-1.36.961-1.984l.378.264c.113.079.269.052.348-.062.079-.113.051-.269-.062-.348l-.383-.267c.554-.776 1.221-1.472 1.977-2.045l.379.236c.116.073.271.038.344-.08.073-.117.038-.271-.08-.344l-.196-.122c.087-.058.171-.122.26-.177.679-.417 1.419-.744 2.19-.973l.282.186c.114.076.27.045.346-.071.058-.087.037-.188-.019-.269.632-.144 1.278-.223 1.924-.235l.017.028c.072.119.227.155.343.083.041-.025.058-.067.078-.107.338.01.676.032 1.009.08.132.013.263-.075.283-.212.019-.137-.075-.264-.212-.283-.408-.059-.821-.081-1.236-.086l-.585-.963c-.072-.118-.226-.153-.344-.084-.118.072-.155.226-.084.344l.432.71c-.723.035-1.443.151-2.143.341l-.593-.392c-.116-.078-.27-.045-.346.071-.076.115-.044.27.071.346l.251.166c-.674.231-1.325.524-1.927.894-.158.097-.309.207-.462.314l-.47-.293c-.116-.073-.27-.038-.344.08-.073.117-.038.272.08.344l.303.189c-.737.581-1.391 1.271-1.939 2.038l-.922-.643c-.272-.189-.556.221-.286.41z"/></g></svg>