<svg id="Layer_1" enable-background="new 0 0 66 66" height="512" viewBox="0 0 66 66" width="512" xmlns="http://www.w3.org/2000/svg"><g><path d="m24.4 59.585c12.14 0 19.779-11.816 16.144-22.548-2.468-6.81-7.459-9.072-10.376-10.942-.292-.187-.586-.375-.888-.555-.647-.382-1.513-.847-2.49-1.047-2.147-.439-4.583.026-6.892.54-3.102.696-5.676 1.911-7.649 3.612-1.247 1.075-2.339 2.407-3.249 3.958-2.473 4.237-3.103 9.563-1.686 14.249 2.072 6.891 8.587 12.733 17.086 12.733zm-16.686-18.539c.097.097.255.098.354 0l.552-.552 1.355 1.355-1.204 1.204-1.184-1.184c-.006-.764.026-1.528.12-2.287l.559.559-.552.552c-.097.097-.097.255 0 .353zm.703 2.36-.666.666c-.068-.489-.117-.979-.141-1.473zm-.145 3.157c-.084-.278-.138-.563-.206-.845l1.306 1.306-.687.686c-.146-.38-.296-.758-.413-1.147zm18.407-21.067-.124.125-.18-.18c.071.012.145.017.215.031.03.006.059.017.089.024zm-6.563.512c.605-.135 1.218-.26 1.831-.371l.663.663-1.23 1.23c-.098.098-.098.256 0 .354.097.097.255.098.354 0l1.23-1.23 1.064 1.064c.097.097.255.098.354 0 .098-.098.098-.256 0-.354l-1.066-1.064.251-.252c.098-.098.098-.256 0-.353-.098-.098-.256-.098-.354 0l-.251.251-.418-.418c1.06-.168 2.005-.252 3.027-.184l.629.629-1.155 1.154c-.098.098-.098.256 0 .353.099.099.257.096.354 0l1.155-1.154 1.586 1.586c.097.097.255.098.354 0 .098-.098.098-.256 0-.353l-1.586-1.586.266-.266c.019-.019.017-.045.028-.067 1.325.455 2.483 1.405 3.705 2.075 12.126 6.731 11.108 19.075 5.65 25.377 0 0 0 0-.001 0-7.674 8.892-22.729 6.801-27.681-4.867l.849-.85.893.893c.097.097.255.098.354 0 .098-.098.098-.256 0-.354l-.894-.893 1.669-1.669c.098-.098.098-.256 0-.354s-.256-.098-.354 0l-1.667 1.672-1.876-1.876c-.007-.039-.009-.078-.016-.117.01-.008.025-.005.034-.014l.903-.903 1.516 1.516c.097.097.255.098.354 0 .098-.098.098-.256 0-.354l-1.516-1.516 1.269-1.269c.057-.005.115-.022.158-.066.044-.044.061-.101.066-.158l.429-.429c.098-.098.098-.256 0-.354s-.256-.098-.354 0l-.364.364-1.355-1.354 1.606-1.606.688.688c.097.097.255.098.354 0 .098-.098.098-.256 0-.354l-.688-.688.27-.27c.098-.098.098-.256 0-.354s-.256-.098-.354 0l-.27.27-1.154-1.154 1.154-1.154 1.063 1.063c.097.097.255.098.354 0 .098-.098.098-.256 0-.354l-1.063-1.063 1.757-1.757 1.084 1.084c.097.097.255.098.354 0 .098-.098.098-.256 0-.354l-1.084-1.084.104-.104c.098-.098.098-.256 0-.353-.098-.098-.256-.098-.354 0l-.104.104-.953-.953 1.656-1.656 1.461 1.461c.097.097.255.098.354 0 .098-.098.098-.256 0-.354l-1.461-1.461 1.137-1.137c.026-.026.027-.063.039-.095l1.056 1.056-.879.883c-.098.098-.098.256 0 .354.097.097.255.098.354 0l.878-.878.158.158c.097.097.255.098.354 0 .098-.098.098-.256 0-.354l-.158-.158 1.004-1.004c.098-.098.098-.256 0-.354s-.256-.098-.353 0l-1.004 1.004-1.28-1.28c.54-.308 1.111-.589 1.715-.843l1.648 1.647-.2.2c-.098.098-.098.256 0 .354.097.097.255.098.354 0l.247-.248c.005 0 .01.006.015.006.064 0 .128-.024.177-.073.053-.053.071-.123.067-.192l1.176-1.176.878.877c.097.097.255.098.354 0 .098-.098.098-.256 0-.354l-.878-.877.879-.879c.098-.098.098-.256 0-.354s-.256-.098-.354 0l-.878.879-.729-.728c.199-.049.384-.117.592-.163zm-5.48 2.199c-.037.012-.078.015-.107.044l-1.137 1.137-.201-.201c.447-.363.92-.705 1.429-1.018.007.012.007.026.016.038zm4.332-1.881.928.928-1.128 1.128-1.497-1.496c.542-.207 1.108-.393 1.697-.56zm-6.171 3.174.241.241-1.656 1.656-.201-.201c.502-.622 1.042-1.189 1.616-1.696zm-2.933 3.608c.313-.535.657-1.031 1.015-1.508l.151.151-.05.05c-.098.098-.098.256 0 .354.097.097.255.098.353 0l.05-.049.953.953-1.757 1.757-.702-.702c-.098-.098-.256-.098-.353 0-.098.098-.098.256 0 .354l.702.702-1.154 1.154-.2-.2c-.098-.098-.256-.098-.354 0s-.098.256 0 .354l.2.2-.25.25c-.098.098-.098.256 0 .354.097.097.255.098.354 0l.25-.25 1.154 1.154-1.606 1.601-.653-.652c-.048-.048-.11-.07-.173-.072.324-2.094 1.007-4.133 2.07-5.955z"/><path d="m41.572 57.518c5.335-6.163 6.778-15.112 4.154-22.336 5.065-5.358 3.266-2.89 3.045-5.747-.078-1.023.296-2.281 1.312-2.789.938-.48 2.23-.143 3.26.121.346.085.534-.205.783-.469 1.071-1.135 2.143-2.271 3.206-3.406.186-.199.168-.521-.028-.711-2.864-2.771 1.027-7.276 4.369-4.554.202.165.499.147.68-.045.814-.865 1.649-1.807 2.137-2.975v-.002c.811-1.96.473-4.181.201-5.967-.727-4.67-1.879-6.279-7.051-7.296-2.457-.485-5.063-.905-7.554-.252-4.599 1.206-6.787 4.552-19.512 18.984-3.431-1.944-6.619-1.648-11.987-.45-15.578 3.498-19.761 18.34-16.601 28.791 5.238 17.423 27.793 22.767 39.586 9.103zm-21.51 6.254.235-.235.352.352c-.197-.034-.392-.078-.587-.117zm2.783.38.04-.04.048.048c-.029-.002-.059-.005-.088-.008zm.721.043c.001-.065-.022-.13-.072-.18l-.256-.256 1.027-1.027.796.797-.14.14c-.098.098-.098.256 0 .354.097.097.255.098.354 0l.139-.139.309.309c-.717.035-1.437.032-2.157.002zm3.23-1.693 1.415 1.414c.003.003.008.002.012.005-.683.113-1.374.187-2.067.236.042-.092.043-.199-.033-.274l-.354-.354zm4.473.681c.024-.084.019-.174-.047-.24l-.68-.68 1.228-1.228.48.48-.312.312c-.098.098-.098.256 0 .354.097.097.255.098.354 0l.312-.312.483.483c.233.233.589-.118.354-.354l-.483-.483 1.343-1.343 1.136 1.136c-1.001.59-2.027 1.194-4.168 1.875zm4.619-2.13-1.234-1.234 1.4-1.4 1.49 1.49c-.534.406-1.085.789-1.656 1.144zm4.926-4.188c-.302.35-.635.676-.962 1.007-.001-.063-.024-.125-.072-.173l-.784-.784 1.228-1.228.853.853c-.089.107-.171.219-.263.325.001-.001.001 0 0 0zm.579-.717-.815-.815.997-.998.662.662c-.268.394-.549.777-.844 1.151zm4.175-17.793-.332-.332.208-.208c.042.18.087.359.124.54zm.269 1.647c.044.36.075.72.101 1.081l-.587-.586.48-.479c.004-.005.002-.012.006-.016zm-.18 6.494-.45-.45.616-.616c-.044.357-.104.711-.166 1.066zm-.313.394c-.019.033-.035.067-.048.104-.062.178-.035.372.071.506.02.025.053.023.079.039-.115.515-.249 1.025-.4 1.53-.008-.01-.005-.025-.014-.035l-1.429-1.43c.025-.012.055-.01.076-.031l1.175-1.174zm-1.041 2.122.376.376c.049.049.112.073.177.073.031 0 .057-.024.087-.036-.173.545-.366 1.082-.581 1.611-.009-.015-.006-.034-.019-.046l-.976-.976.89-.89c.03-.031.035-.073.046-.112zm-.314 2.331c.049.049.112.073.177.073.013 0 .023-.013.036-.015-.251.587-.526 1.163-.828 1.725l-1.56-1.56 1.199-1.199zm-10.754-32.773c10.579-12.006 12.924-15.414 17.104-16.51 2.28-.6 4.763-.198 7.106.266 4.753.934 5.597 2.232 6.256 6.467.253 1.662.567 3.729-.137 5.431-.364.875-.987 1.639-1.634 2.344-3.851-2.737-8.716 2.101-5.643 5.976-1.103 1.175-2.051 2.18-2.994 3.18-1.243-.316-2.547-.54-3.663.031-1.476.738-2.444 2.846-1.453 5.378l-2.85 3.014c-3.274-7.901-10.09-11.169-13.88-13.551zm-14.431 2.033c2.947-.657 6.036-1.252 8.672-.714 1 .205 13.58 5.36 17.41 15.912.161.475.301.955.427 1.439l-.43.43-.053-.053c-.097-.097-.255-.098-.354 0-.098.098-.098.256 0 .354l.053.053-.686.686c-.098.098-.098.256 0 .354.097.097.255.098.354 0l.686-.686.439.439c.085.085.214.107.333.009.049.273.093.546.131.82-.097-.063-.223-.067-.309.019l-.48.48-.111-.111c-.098-.098-.256-.097-.354 0-.098.098-.098.256 0 .354l.111.111-.513.513c-.098.098-.098.256 0 .354.099.099.257.097.354 0l.514-.513.745.745c.049.049.113.073.177.073.018 0 .032-.017.049-.021.037.814.036 1.629-.016 2.441l-1.066-1.066c-.01-.009-.024-.007-.035-.014l.941-.94c.098-.098.098-.256 0-.353-.097-.097-.255-.098-.354 0l-1.424 1.423c-.098.098-.098.256 0 .354.099.099.257.096.354 0l.15-.15c.008.011.005.025.014.034l1.354 1.354c-.042.011-.087.017-.12.05l-.913.913-.313-.313c-.098-.098-.256-.098-.354 0s-.098.256 0 .354l.312.312-1.175 1.174c-.084.084-.081.209-.02.306-.033.012-.069.013-.095.04-.098.098-.098.256 0 .354l.805.805c-.04.011-.082.015-.113.047l-.89.889-.197-.197c-.098-.098-.256-.098-.354 0s-.098.256 0 .354l.197.197-2.21 2.21c-.236.236.124.583.354.353l.657-.657 1.664 1.664c-.192.336-.39.669-.6.994l-.596-.596.506-.507c.098-.098.098-.256 0-.354s-.256-.098-.353 0l-.506.506-.887-.887c-.098-.098-.256-.098-.354 0s-.098.256 0 .354l.887.887-.997.998-1.146-1.146c-.098-.098-.256-.098-.354 0s-.098.256 0 .354l1.146 1.146-1.228 1.228-1.174-1.175c-.098-.098-.256-.098-.354 0s-.098.256 0 .354l1.174 1.175-1.117 1.117c-.098.098-.098.256 0 .354.097.097.255.098.353 0l1.117-1.117.784.784c.049.049.112.073.177.073.004 0 .007-.004.011-.004-.535.524-1.096 1.025-1.687 1.494-.01-.017-.007-.039-.022-.054l-1.497-1.496 1.118-1.118c.098-.098.098-.256 0-.354s-.256-.098-.353 0l-1.118 1.118-.543-.542c-.098-.098-.256-.098-.354 0s-.098.256 0 .354l.543.542-1.4 1.4-.571-.571c-.097-.097-.255-.099-.354 0-.098.098-.098.256 0 .354l.571.571-1.343 1.343-.48-.48.688-.688c.098-.098.098-.256 0-.353-.098-.098-.256-.098-.354 0l-.688.688-.168-.168c-.098-.098-.256-.098-.353 0-.098.098-.098.256 0 .354l.168.168-1.228 1.228-.83-.83c-.098-.098-.256-.098-.354 0s-.098.256 0 .354l.83.829-.945.945c-.098.098-.098.256 0 .354.097.097.255.098.354 0l.945-.945.68.68c.005.005.014.003.019.008-.753.224-1.521.404-2.297.546.05-.095.052-.208-.027-.288l-1.415-1.414 1.692-1.692c.098-.098.098-.256 0-.354s-.256-.098-.353 0l-3.072 3.072-.796-.797 1.047-1.047c.098-.098.098-.256 0-.354s-.256-.098-.354 0l-2.428 2.428-.715-.715c-.098-.098-.256-.098-.354 0s-.098.256 0 .354l.715.715-.197.197c-.041.041-.055.095-.061.148-.276-.027-.55-.061-.825-.099-.009-.012-.006-.029-.016-.039l-.782-.782 2.148-2.148c.098-.098.098-.256 0-.353-.098-.098-.256-.098-.354 0l-2.148 2.148-.427-.427c-.098-.098-.256-.098-.354 0s-.098.256 0 .354l.427.427-.471.471c-8.182-1.86-14.345-8.266-16.529-15.529-2.982-9.885.826-24.155 15.865-27.53z"/><path d="m12.586 45.214c-.677 6.707 7.425 9.713 11.524 5.076 1.842-2.081 2.171-5.34.783-7.749-3.1-5.372-11.628-4.038-12.307 2.673zm2.835-3.599c.214-.192.442-.366.685-.522l-.604.604zm1.211-.342.651.651-.777.777-.651-.651zm.354-.354c.107-.107.314-.287.364-.418.086-.028.175-.051.263-.076.038.145 1.172 1.241 1.279 1.348l-.525.526zm-1.925 1.043.204.204c.052.123.003.071.121.121l.768.768c-.101.101-1.287 1.277-1.369 1.389l-.788-.789c.255-.636.615-1.206 1.064-1.693zm-1.47 4.559 1.432 1.432-.766.766c-.367-.662-.59-1.407-.666-2.198zm9.772 3.108c-2.215 2.503-6.654 2.685-8.827-.481l.841-.841.389.389c.097.097.255.098.354 0 .098-.098.098-.256 0-.354l-.389-.389 1.604-1.604c.098-.098.098-.256 0-.354s-.256-.098-.353 0l-1.604 1.604c-.107-.107-1.661-1.703-1.81-1.735.007-.545.001-.845.249-1.681l2.155 2.155c.097.097.255.098.353 0s.098-.256 0-.354l-1.207-1.207c.01-.008.024-.005.034-.014l1.355-1.356.688.688c.097.097.255.098.354 0 .098-.098.098-.256 0-.354l-.688-.688.777-.777.375.375-.3.301c-.098.098-.098.256 0 .353.097.096.255.099.354 0l.3-.3.325.324c.097.097.255.098.354 0 .098-.098.098-.256 0-.354l-.325-.325.525-.526.457.457c.097.097.255.098.354 0 .098-.098.098-.256 0-.354l-.457-.457.886-.887c.026-.026.027-.062.039-.094l.553.553-.803.803c-.098.098-.098.256 0 .354.097.097.255.098.354 0l.803-.803.19.19c.097.097.255.098.353 0s.098-.256 0-.353l-.201-.201c.069-.098.072-.229-.015-.317-.088-.088-.219-.085-.317-.015l-.43-.43c4.198 1.529 4.688 6.415 2.351 9.059zm-3.32-9.316.181.181c-.032.012-.068.013-.094.039l-.886.887-1.117-1.117c.692-.121 1.168-.125 1.916.01z"/><path d="m40.198 20.832c3.269-.853 16.63-15.227 11.241-15.6 0 0-.532-.35-2.642 1.441-2.358 2.001-7.493 7.186-9.582 9.757-.1.123-.218.254-.342.393-2.883 3.226-.023 4.359 1.325 4.009zm11.173-14.602c.036.002.079.009.122.021-.038.002-.077-.006-.112.014-.018.01-.194.132-.175.136-.066 0-.13.026-.177.073l-.106.106-.179-.179c.186-.098.418-.19.627-.171zm-1.051.454.249.25-.202.202c-.098.098-.098.256 0 .354.099.099.257.096.354 0l.23-.23c.027.01.05.033.079.033.063 0 .128-.024.177-.073.071-.071.072-.168.041-.256l.079-.079c.102-.03.18-.091.235-.136.021-.017.042-.034.064-.047.038-.022.054-.061.075-.096-.017.103-.052.235-.127.446-1.405 3.949-6.877 9.357-10.2 11.975-.73.575-1.467 1.123-2.304.736l.68-.68.217.217c.097.097.255.098.354 0 .098-.098.098-.256 0-.353l-.218-.218.765-.765.179.179c.099.099.257.096.354 0 .098-.098.098-.256 0-.354l-.179-.179 1.946-1.946c.098-.098.098-.256 0-.353-.098-.098-.256-.098-.354 0l-.125.125-.686-.686c.281-.304.575-.592.863-.888l.192.193-.26.26c-.098.098-.098.256 0 .354.097.097.255.098.354 0l.26-.26.361.362c.099.099.257.096.354 0 .098-.098.098-.256 0-.353l-.361-.362 1.06-1.06.172.172c.097.097.255.098.353 0s.098-.256 0-.354l-.172-.172.719-.719.028.029c.097.097.255.098.354 0 .098-.098.098-.256 0-.354l-.595-.595c.341-.351.693-.696 1.039-1.044l.215.215-.046.046c-.098.098-.098.256 0 .354.097.097.255.098.354 0l.046-.046.004.004c.096.097.255.099.354 0 .098-.098.098-.256 0-.353l-.004-.004 1.021-1.021c.087.025.145.05.241-.047.067-.067.071-.156.047-.241l.96-.96c.057-.004.115-.022.159-.066s.061-.101.066-.158l.104-.104c.098-.098.098-.256 0-.354s-.256-.098-.354 0l-.039.04-.099-.099c.008-.007.015-.013.022-.02.179-.161.36-.319.545-.461zm-8.653 8.435.67.67-1.467 1.467-.562-.562c.441-.533.892-1.06 1.359-1.575zm7.71-7.626.122.122-.862.862-.184-.184c.287-.255.594-.519.924-.8zm-1.293 1.139.199.199-.988.988-.216-.216c.183-.182.358-.368.545-.547.148-.143.307-.283.46-.424zm-2.75 2.724.212.212-.719.719-.209-.209c.238-.24.48-.479.716-.722zm-1.069 1.077.208.208-1.06 1.06-.197-.198c.045-.045.474-.498 1.049-1.07zm-4.285 4.64.536.536-.765.765-.483-.483c.117-.139.237-.274.351-.402.131-.147.255-.285.361-.416zm-1.019 1.218.436.436-.709.709c-.198-.357.039-.807.273-1.145z"/></g></svg>