<svg id="Layer_1" enable-background="new 0 0 66 66" height="512" viewBox="0 0 66 66" width="512" xmlns="http://www.w3.org/2000/svg"><g><path d="m51.436 45.207c6.192 0 9.014-1.224 8.89-6.967l-.229-10.739c-.112-5.107-2.735-6.236-8.526-6.401-3.958-.114-34.408-.308-37.008-.308-6.212.011-9.013 1.233-8.889 6.971l.229 10.732c.084 4.857 2.344 6.231 8.525 6.407 3.789.109 33.067.304 36.87.304.051.001.097.001.138.001zm-1.782-23.142-.541.541-.556-.556c.393.005.764.01 1.097.015zm-6.314.856c-.012-.026-.011-.056-.032-.078l-.858-.858c.621.006 1.228.011 1.809.017zm-2.741-.101-.859-.859c.578.005 1.147.01 1.704.015zm-2.841.104-.987-.987c.66.005 1.314.011 1.958.016zm9.113-.894-.536.536-.548-.548c.374.004.737.008 1.084.012zm-15.078.609-.747-.747c.483.003.967.007 1.452.011.004.007.004.015.009.022zm-13.94-.832-.497.497-.502-.502c.308.001.644.003.999.005zm-3.289-.014c.206 0 .603.001 1.131.004l-.921.921-.918-.918c.238-.004.475-.007.708-.007zm-1.908.046-1.007 1.007-.809-.809c.583-.103 1.196-.163 1.816-.198zm-5.738 17.178.943.943-.726.726c-.137-.515-.194-1.073-.217-1.669zm-.022-.881-.04-1.866.953.953zm-.1-4.664 1.039 1.039-.995.995zm-.055-2.586.836.836-.801.801zm.164-.542-.063-.064c-.032-.032-.075-.036-.115-.047l-.052-2.427c.017.013.037.016.056.023l1.31 1.31-1.089 1.089c-.031.032-.036.075-.047.116zm-.063-3.111c-.048-.048-.111-.072-.174-.072 0-.636.031-1.254.149-1.828l.967.967-.938.938zm.472 13.981.9-.9.05.05c.098.098.256.098.353 0 .098-.098.098-.256 0-.354l-.05-.05.731-.731c.098-.098.098-.256 0-.354s-.256-.098-.354 0l-.731.731-1.041-1.041 1.038-1.038c.083.004.139-.02.187-.069.052-.052.072-.119.069-.187l.399-.399c.098-.098.098-.256 0-.354s-.256-.098-.354 0l-.35.35-.988-.988 1.185-1.185c.003-.003.007-.001.01-.004s.002-.007.004-.01l.859-.859c.098-.098.098-.256 0-.354s-.256-.098-.353 0l-.689.689-1.17-1.17.912-.912.6.6c.098.098.256.098.353 0 .098-.098.098-.256 0-.354l-.6-.6.724-.724c.098-.098.098-.256 0-.354s-.256-.098-.354 0l-.724.725-.739-.738c.041-.011.083-.016.115-.048l1.088-1.089.19.19c.098.098.256.098.354 0s.098-.256 0-.354l-.19-.19.655-.655c.098-.098.098-.256 0-.354s-.256-.098-.354 0l-.655.655-1.195-1.195.938-.938.292.292c.098.098.256.098.353 0 .098-.098.098-.256 0-.354l-.292-.292.826-.826c.098-.098.098-.256 0-.354s-.256-.098-.353 0l-.826.826-1.172-1.172c.271-.811.641-1.231 1.162-1.643l.354.354-.908.908c-.098.098-.098.256 0 .354s.256.098.353 0l.908-.908 1.017 1.017c.098.098.256.098.354 0s.098-.256 0-.354l-1.017-1.017.689-.689c.098-.098.098-.256 0-.353-.098-.098-.256-.098-.354 0l-.689.689-.299-.299c.517-.312 1.125-.525 1.78-.678.011.039.016.081.047.113l.934.934-.676.676c-.098.098-.098.256 0 .353.098.098.256.098.354 0l.676-.675.356.356c.098.098.256.098.354 0s.098-.256 0-.353l-.357-.357 1.273-1.273 1.144 1.144-.185.185c-.098.098-.098.256 0 .354s.256.098.354 0l.184-.185.111.111c.098.098.256.098.354 0s.098-.256 0-.354l-.111-.111 1.144-1.145.731.731-.34.34c-.098.098-.098.256 0 .354s.256.098.354 0l.34-.34.695.695c.098.098.256.098.354 0s.098-.256 0-.354l-.695-.695.542-.542c.084-.084.081-.209.02-.306.442.002.903.005 1.403.008l.298.298-.986.985c-.098.098-.098.256 0 .354s.256.098.354 0l.986-.985 1.008 1.008c.098.098.256.098.354 0s.098-.256 0-.353l-1.008-1.008.29-.29c.723.004 1.492.009 2.291.014l.121.121-.985.985c-.098.098-.098.256 0 .354s.256.098.354 0l.985-.985.871.871c.098.098.256.098.354 0s.098-.256 0-.354l-.871-.871.114-.115c.708.005 1.431.009 2.177.014l.178.178-1.114 1.114c-.098.098-.098.256 0 .354s.256.098.354 0l1.114-1.114.996.995c.098.098.256.098.353 0 .098-.098.098-.256 0-.354l-.995-.995.169-.169s0-.001.001-.002c.797.005 1.607.011 2.428.017l-1.32 1.32c-.098.098-.098.256 0 .354s.256.098.354 0l1.554-1.553.989.989-.469.469c-.098.098-.098.256 0 .354s.256.098.354 0l.509-.509c.014.003.026.017.04.017.064 0 .128-.024.177-.073.06-.06.07-.14.056-.217l.745-.745 1.198 1.198c.098.098.256.098.354 0s.098-.256 0-.354l-1.224-1.224c.897.007 1.793.014 2.681.021l-1.119 1.12c-.098.098-.098.256 0 .354s.256.098.354 0l1.218-1.218 1.349 1.349c.098.098.256.098.354 0 .06-.06.07-.139.057-.216l1.159-1.159 1.137 1.137c.098.098.256.098.354 0 .009-.01.007-.024.014-.035.007.001.012.008.019.008.064 0 .128-.024.177-.073l1.011-1.011 1.012 1.012c.049.049.113.073.177.073.008 0 .014-.008.022-.009.008.051.02.103.059.142.098.098.256.098.354 0l1.393-1.393c.039 0 .077.001.115.001l.909.908-.569.559c-.098.098-.098.256 0 .354s.256.098.354 0l.561-.561.085.085c.233.233.589-.118.353-.354l-.085-.085.882-.881c.103.001.212.002.313.004.012.023.01.05.029.07l.848.848-.579.579c-.098.098-.098.256 0 .354s.256.098.354 0l.579-.579.603.603c.098.098.256.098.354 0s.098-.256 0-.354l-.603-.603.883-.883c.331.006.614.011.848.016l.364.364-.621.621c-.098.098-.098.256 0 .354s.256.098.354 0l.622-.622.722.722c.098.098.256.098.354 0s.098-.256 0-.354l-.722-.722.313-.313c6.065.331 6.451 2.42 6.515 5.38l.229 10.739c.037 1.697-.027 3.311-1.2 4.414 0 0 0 .001-.001.001-1.492 1.412-4.235 1.53-6.69 1.53-3.141-.008-33.144-.192-36.978-.304-3.252-.092-6.205-.471-7.146-2.689z"/><path d="m64.991 40.709-.269-15.782c-.103-5.954-1.588-8.882-9.92-9.179-4.644-.168-40.391-.454-43.445-.454-8.408.021-10.472 2.784-10.348 10.004l.269 15.773c.085 6.024 1.671 8.895 9.92 9.188 4.421.161 38.849.447 43.29.447 8.37 0 10.631-2.554 10.503-9.997zm-1.013-.757-.819-.819.739-.738c.034-.035.042-.081.052-.125zm-.064-3.718-.079-.079.076-.076zm-61.636 4.822-.269-15.776c-.114-6.586 1.451-8.966 9.349-8.986 3.051 0 38.77.285 43.407.453 7.781.279 8.862 2.773 8.956 8.197l.179 10.439-.418.418-1.007-1.007c-.098-.098-.256-.098-.353 0-.098.098-.098.256 0 .354l1.007 1.007-.737.737c-.098.098-.098.256 0 .354s.256.098.353 0l.737-.737.445.445.021 1.208c-.011-.043-.017-.087-.05-.121-.098-.098-.256-.098-.354 0l-.77.77c-.086-.027-.179-.024-.247.044s-.071.161-.044.248l-.362.362c-.098.098-.098.256 0 .354s.256.098.353 0l.331-.331 1.185 1.185.001.055c.018 1.058.009 2.091-.101 3.063l-1.374-1.374 1.143-1.143c.098-.098.098-.256 0-.354s-.256-.098-.354 0l-1.188 1.188c-.072-.007-.144.009-.199.064s-.071.127-.064.199l-.545.545c-.098.098-.098.256 0 .354s.256.098.353 0l.5-.5 1.646 1.646c-.106.623-.275 1.209-.517 1.754l-.674-.674.302-.302c.098-.098.098-.256 0-.353-.098-.098-.256-.098-.354 0l-.301.301-.534-.534c-.098-.098-.256-.098-.353 0-.098.098-.098.256 0 .354l.534.534-1.136 1.136-.331-.331c-.098-.098-.256-.098-.354 0s-.098.256 0 .354l.331.331-1.076 1.075c-.051.051-.072.119-.069.186l-.889-.889 2.273-2.273c.098-.098.098-.256 0-.354s-.256-.098-.354 0l-2.273 2.273-.838-.839c-.098-.098-.256-.098-.354 0s-.098.256 0 .354l.838.839-1.406 1.406-1.507-1.508 1.539-1.539c.098-.098.098-.256 0-.354s-.256-.098-.354 0l-1.539 1.539-.534-.534c-.098-.098-.256-.098-.354 0s-.098.256 0 .354l.534.534-1.44 1.44-1.576-1.576.994-.994c.098-.098.098-.256 0-.354s-.256-.098-.354 0l-2.517 2.517-.5-.5c-.098-.098-.256-.098-.354 0s-.098.256 0 .353l.5.5-.636.636c-.098.098-.098.256 0 .353.021.021.051.02.076.032-.949-.007-1.976-.015-3.058-.023.006-.005.014-.003.019-.008l.297-.297.205.205c.098.098.256.098.353 0 .098-.098.098-.256 0-.354l-.205-.205 2.846-2.846c.098-.098.098-.256 0-.354s-.256-.098-.354 0l-2.846 2.846-.974-.974c-.098-.098-.256-.098-.353 0-.098.098-.098.256 0 .354l.974.974-.297.297c-.098.098-.098.256 0 .353.004.004.01.002.013.006-.99-.008-2.022-.016-3.092-.025l.132-.132c.043-.011.087-.017.121-.05.033-.033.039-.078.05-.121l2.772-2.771c.098-.098.098-.256 0-.354s-.256-.098-.354 0l-2.68 2.68-.966-.966 1.074-1.074c.098-.098.098-.256 0-.354s-.256-.098-.354 0l-1.074 1.074-.09-.094c-.098-.098-.256-.098-.354 0s-.098.256 0 .354l.094.094-1 1-.865-.865.673-.673c.098-.098.098-.256 0-.354s-.256-.098-.354 0l-.691.691c-.095-.054-.213-.057-.295.024-.081.082-.079.199-.024.295l-1.017 1.018-.932-.933.514-.514c.098-.098.098-.256 0-.354s-.256-.098-.354 0l-.559.559c-.072-.007-.144.009-.199.064s-.071.127-.064.199l-1.248 1.248-.966-.966.72-.72c.098-.098.098-.256 0-.354s-.256-.098-.354 0l-1.6 1.6-.399-.399c-.098-.098-.256-.098-.354 0s-.098.256 0 .353l.399.399-.299.299c-9.017-.085-17.592-.182-19.649-.256-7.696-.273-8.878-2.706-8.955-8.203zm49.69 8.289c-.095.095-.094.246-.004.344-.429-.003-.903-.006-1.407-.01l-1.037-1.037 1.169-1.169 1.575 1.576zm.651.057.294.294c-.181-.001-.382-.002-.584-.004zm-2.773.272c-.444-.003-.906-.007-1.394-.01.027-.012.058-.011.08-.033l.636-.636zm-15.647-.127 1.093-1.093.932.933-.177.177c-.613-.006-1.229-.012-1.848-.017zm-2.247-.267-.063-.063.526-.526.847.847c-.422-.004-.845-.008-1.267-.012.028-.085.025-.178-.043-.246zm5.98-.894.882.882c-.055.096-.057.214.024.295.016.016.04.014.059.024-.709-.006-1.425-.012-2.148-.018zm1.209 1.198c.004.003.009.003.013.006-.009 0-.017 0-.026 0 .004-.003.008-.003.013-.006zm.335-.007c.087-.087.084-.217.016-.314l1.011-1.011.966.966-.263.263c-.035.035-.042.082-.052.126-.564-.005-1.136-.009-1.715-.014.011-.009.027-.006.037-.016zm15.165.129c-.272-.001-.731-.004-1.318-.007.068-.098.071-.228-.016-.315l-.335-.335 1.44-1.44 1.507 1.508-.026.026c-.098.098-.098.256 0 .354s.256.098.354 0l1.786-1.786 1.254 1.254c.233.233.589-.118.353-.354l-.128-.128c.003 0 .006.004.009.004.064 0 .128-.024.177-.073l1.076-1.075.881.881c-1.841 1.347-4.549 1.486-7.014 1.486zm7.396-1.813-.909-.909 1.136-1.136.792.792c-.352.625-.508.795-1.019 1.253z"/><path d="m17.058 30.124c-.066.053-.131.105-.194.15-.12.083-.243.163-.367.239l-.002-.308c-.039-3.283-3.285-2.834-2.927-.392.012.081.023.161.031.237.009.101.01.203.015.305-.046.01-.093.018-.128.053l-.059.059c-.099-.062-.2-.123-.293-.189-.067-.048-.132-.1-.198-.152-1.37-1.09-2.498-.133-2.532.867-.022.995.865 1.542 1.709 2.045-.846.49-1.793.964-1.7 1.954.071.793.855 1.244 1.547 1.22.612-.019 1.135-.325 1.559-.574l.079-.047c-.001.181-.001.361-.001.538-.038 2.825 2.993 2.645 2.948-.45 2.655 1.553 4.268-.933 1.848-2.346l-.513-.297.306-.182c2.832-1.708.754-4.239-1.128-2.73zm1.195.501c.169.029.326.213.329.394.009.286-.28.555-.608.782l-.427-.427.098-.098c.096-.096.095-.249.003-.347.011-.009.023-.017.034-.026.277-.22.402-.31.571-.278zm-1.636.974-.315.315-.095-.095c.011-.005.023-.003.034-.008.118-.065.248-.14.376-.212zm-1.453-2.604c.127.106.214.273.261.478-.087-.108-.25-.264-.348-.362.135-.136.043-.047.087-.116zm-.541 1.947.022.021-.022.022c0-.014 0-.029 0-.043zm-.017-.724c-.005-.087-.004-.174-.012-.261-.009-.096-.023-.193-.037-.29-.002-.013-.003-.021-.004-.033l.17-.17.338.338c.098.098.256.098.354 0 .029-.029.031-.068.043-.103.02.16.032.32.035.468-.03.012-.064.012-.088.037l-.407.406zm.892.599.002.295-.148-.148zm-.821 6.016c-.025-.075-.044-.163-.057-.266l.161.161zm-.714-2.718c-.041.041-.054.094-.061.147-.018.008-.038.005-.056.015-.006-.007-.003-.018-.01-.025l-.509-.509.511-.511c.098-.098.098-.256 0-.354-.08-.08-.195-.078-.29-.026-.041-.097-.101-.185-.195-.24l-.856-.51.339-.339 1.74 1.74zm-.955.663c-.088.052-.18.105-.274.156l-.3-.3.538-.538.44.44zm-1.605-3.758c.006-.181.163-.365.342-.396.155-.028.292.063.565.281-.171.198-.001.33.173.504-.098.098-.333.315-.399.436-.357-.238-.688-.522-.681-.825zm.848 3.092-.169.169-.042-.042c.025-.015.158-.096.211-.127zm-.621.423v.001l.098.098c-.284.284.079.628.354.354l.163.163c-.599.186-1.149-.122-.615-.616zm6.257-.339c.247.145.696.421.696.706-.017.188-.332.403-.824.253l-.972-.972c-.098-.098-.256-.098-.354 0-.065.065-.07.152-.049.235l-.089-.054c-.154-.095-.348-.097-.504-.008-.157.088-.254.255-.254.436l.007.864c.002.117-.006.213-.009.319l-.4.4-.537-.537c0-.374 0-.751.005-1.124.002-.143-.07-.266-.171-.361l.497-.497.446.446c.098.098.256.098.354 0s.098-.256 0-.354l-.446-.446.51-.51c.098-.098.098-.256 0-.354s-.256-.098-.354 0l-.51.51-1.537-1.537c.162.091.325.182.487.27.154.084.34.08.491-.008.181-.106.245-.27.248-.478.122.086.231.069.316-.015l.063-.063 1.059 1.059c.049.049.113.073.177.073.046 0 .087-.027.127-.053.016.003.028.018.044.018.064 0 .128-.024.177-.073l.613-.613.346.346-.901.537c-.152.09-.246.253-.246.43s.093.34.245.431c.238.141.475.277.711.413z"/><path d="m28.869 30.274c-.12.083-.244.163-.368.239-.006-.965-.044-1.974-.906-2.454-.897-.49-2.148.089-2.063 1.382-.055.098-.056.211.031.295.041.291.061.439.067.86-.171-.102-.336-.207-.492-.317-2.418-1.729-3.995.967-1.324 2.579l.302.18-.509.295c-2.166 1.245-1.001 2.915.357 2.88.612-.019 1.135-.325 1.559-.574l.079-.047v.084c-.014.009-.033.006-.045.019-.098.098-.098.256 0 .354l.045.045v.038c-.034 2.507 2.022 2.332 2.667 1.144.288-.534.287-1.122.28-1.594.408.238.908.515 1.481.532 1.354.06 2.516-1.619.367-2.878l-.513-.296.305-.182c2.65-1.598 1.096-4.316-1.32-2.584zm-1.758-1.34c.333.185.382.782.388 1.276l.007 1.161c0 .176.093.34.245.43.029.017.063.016.093.027l-.086.086-.95-.95.406-.406c.232-.233-.119-.588-.354-.354l-.24.24c-.007-.254-.008-.378-.039-.614.094.05.18.082.288-.027.223-.223-.095-.448-.324-.678.076-.214.385-.291.566-.191zm-3.362 1.69c.156-.029.293.064.568.284.023.018.047.035.07.053l-.095.095-.166-.166c-.098-.098-.256-.098-.354 0s-.098.256 0 .353l.166.166-.184.183c-.551-.484-.368-.905-.005-.968zm-.212 4.364.193.193c-.102-.032-.194-.085-.253-.151.01-.007.047-.029.06-.042zm.79-2.99c-.054-.033-.109-.071-.164-.106l.13-.13.531.531zm.037 3.11-.473-.473.538-.539.51.509c.049.049.113.073.177.073s.128-.024.177-.073c.098-.098.098-.256 0-.354l-.469-.469c.178-.103.356-.205.535-.31.144-.086.229-.239.238-.406l.436.436-.612.613c-.098.098-.098.256 0 .354.018.018.044.016.066.027l-.473.282c-.206.12-.427.244-.65.33zm2.401 1.896c.087-.043.153-.071.135-.231l.635-.635c-.015.25-.047.478-.145.66-.126.23-.449.44-.625.206zm3.127-2.808c.479.28.713.517.696.704v.003c-.015.167-.277.315-.521.309-.357-.01-.741-.235-1.082-.436-.125-.072-.248-.147-.371-.222l-.37-.37c-.098-.098-.256-.098-.354 0-.046.046-.066.106-.069.166-.008.004-.018.002-.026.007-.157.088-.254.255-.254.436l.007.847c-.089-.033-.188-.033-.259.039l-.68.68c-.003-.072-.009-.139-.008-.22 0-.472 0-.951.007-1.423.003-.182-.093-.35-.25-.44-.077-.045-.164-.067-.25-.067-.035 0-.066.021-.101.028l.378-.378.446.446c.098.098.256.098.354 0s.098-.256 0-.354l-.446-.446.51-.51c.098-.098.098-.256 0-.354s-.256-.098-.354 0l-.51.51-1.74-1.74.159-.159c.352.229.718.437 1.078.632.153.083.34.08.491-.008.142-.084.228-.233.24-.396l.898.898c.092.092.192.091.304.02.016.003.028.018.044.018.064 0 .128-.024.177-.073l.612-.613.551.551-.558.332c-.152.09-.246.253-.246.43s.093.34.245.431c.24.142.48.28.719.417zm-.216-2.2-.032.019-.641-.641.011-.011c.143-.088.286-.174.429-.272.083-.059.163-.123.244-.188.277-.221.404-.308.57-.279.169.029.326.213.329.394.012.374-.481.72-.91.978z"/><path d="m41.066 30.124c-.066.053-.131.105-.194.15-.12.083-.243.163-.368.239l-.002-.308c-.005-.495-.018-1.653-.903-2.146-.97-.531-2.265.103-2.023 1.753.012.08.024.161.031.237.016.174.022.349.026.527l-.011.011c-.167-.099-.328-.201-.48-.309-.067-.048-.132-.1-.198-.152-1.828-1.455-4.175.917-.823 2.912-.846.49-1.792.964-1.7 1.955.09.993 1.257 1.717 2.995.71.011-.008.025-.005.035-.014.002-.002.001-.005.003-.007.024-.014.051-.029.074-.042l.078-.047v.538c-.034 2.503 2.021 2.335 2.667 1.145.245-.452.279-.939.281-1.366.009-.039.009-.07 0-.109 0-.039.001-.082 0-.12 2.65 1.55 4.274-.926 1.848-2.346l-.513-.297.305-.182c2.827-1.706.759-4.242-1.128-2.732zm1.195.501c.169.029.326.213.329.394.007.232-.188.451-.435.647l-.292-.292.098-.098c.098-.098.098-.256 0-.354-.061-.061-.142-.07-.221-.055.236-.185.366-.271.521-.242zm-1.165.69.06.06-.539.539-.199-.199c.218-.12.445-.254.678-.4zm-2.483-1.136c-.014-.251.007-.103-.03-.377.162.008.341-.222.457-.338.11.11.312.343.448.384.016.202.015.372.016.573l-.19.19c-.219-.22-.455-.572-.701-.432zm.032-1.175c.011.036.016.074.043.104l-.16.16c.005-.185.05-.203.117-.264zm1.155 5.352c-.158.088-.255.255-.255.436l.007.864c.003.233.003.445-.017.635l-.083.083-.681-.681c-.045-.045-.104-.064-.163-.067.001-.305 0-.609.004-.912.001-.076-.024-.147-.055-.214.025-.012.055-.01.076-.031l.613-.613.445.446c.034.034.079.04.123.051-.005.001-.01 0-.014.003zm-1.521-.241c-.034.034-.04.079-.051.123-.039-.01-.076-.031-.117-.031-.001 0-.003.001-.004.001l-.465-.465.511-.511c.098-.098.098-.256 0-.354s-.256-.098-.353 0l-.205.205c.001-.014.011-.027.011-.041 0-.177-.093-.34-.246-.43l-.71-.423c.046-.009.094-.018.13-.054l.372-.372 1.74 1.74zm-2.075.029.443-.256c.091-.052.183-.106.274-.159l.015.015-.538.538c-.154-.155-.115-.109-.194-.138zm-.793-3.124c.006-.181.163-.365.342-.396.155-.028.292.063.567.283.08.063.159.126.24.184.004.003.008.005.012.007.007.052.02.104.06.144l.167.167-.372.372c-.069.068-.071.161-.044.248l-.052-.031c-.433-.261-.928-.608-.92-.978zm.466 3.33c-.006.135.07.188.167.284-.276.276.076.631.354.354l.08.08c-.815.365-1.582-.047-.601-.718zm1.14.428c-.026.015-.052.03-.078.045l-.188-.188.538-.538.325.325zm1.592 1.461.489.489-.269.269c-.013.012-.009.031-.019.045-.126-.114-.196-.389-.201-.803zm3.287-2.043c.479.28.714.518.696.704v.002c-.014.155-.233.288-.467.303l-1.021-1.022c-.098-.098-.256-.098-.354 0s-.098.256 0 .354l.24.24h-.001c-.168-.097-.332-.198-.498-.299l-.187-.113c-.079-.048-.167-.071-.256-.072.09-.098.091-.249-.004-.344l-.445-.446.51-.51c.098-.098.098-.256 0-.354s-.256-.098-.354 0l-.51.51-1.238-1.238c.125.031.257.029.371-.037.15-.088.244-.25.247-.424l.002-.155c.004-.216.007-.436.005-.658l.327.327-.063.063c-.098.098-.098.256 0 .354s.256.098.354 0l.063-.063.247.247c.041.096.101.183.194.238.019.011.042.009.062.018l.557.557c.087.087.186.095.304.021.016.003.028.018.044.018.064 0 .128-.024.177-.073l.612-.613.23.23c-.02.012-.04.026-.059.038l-1.033.615c-.152.09-.246.253-.246.43s.093.34.245.431c.237.141.474.276.709.412z"/><path d="m52.557 35.679c2.647 1.548 4.276-.928 1.848-2.346l-.513-.297.306-.182c2.831-1.708.757-4.239-1.128-2.731-.065.053-.131.105-.193.15-.12.083-.243.163-.367.239l-.002-.308c-.006-.495-.019-1.653-.904-2.146-.578-.316-1.333-.18-1.754.319-.539.635-.225 1.37-.211 2.217-.087-.051-.166-.107-.249-.161-.006-.008-.004-.019-.011-.026 0 0-.226-.126-.231-.13-.067-.048-.132-.1-.198-.152-1.888-1.507-3.971 1.014-1.126 2.731l.303.18c-3.018 1.745-1.321 3.214-.153 3.175.612-.019 1.135-.325 1.559-.574l.079-.047v.174c-.034.069-.034.139 0 .208v.156c-.041 2.825 2.99 2.648 2.945-.449zm1.138-4.775c.277-.222.404-.309.57-.279.169.029.326.213.329.394.012.369-.471.711-.896.968l-.612-.612.099-.099c.006-.006.004-.015.009-.021.086-.055.172-.104.257-.163.083-.059.163-.123.244-.188zm-2.181.467c0 .176.093.34.245.43.047.028.1.032.151.043l-.069.069-.95-.95.407-.407c.232-.233-.119-.588-.354-.354l-.311.311c-.01-.493-.027-.578-.048-.728.26.26.602-.105.369-.338l-.338-.338c.127-.127.057-.058.097-.139.888-.52.795 1.401.801 2.401zm-3.757-.747c.157-.029.293.064.568.284.037.029.075.057.112.086l-.062.062c-.176-.176-.328-.358-.52-.166-.098.098-.098.256 0 .353l.166.166-.216.217c-.601-.503-.423-.937-.048-1.002zm1.745 3.491c-.098.098-.098.256 0 .354.006.006.015.004.021.009l-.127.076c.058-.096.061-.218-.022-.301l-.497-.497c.162-.093.325-.187.487-.284.152-.09.245-.253.245-.43 0-.021-.013-.039-.016-.059l.52.52zm-1.669 1.087c-.127-.017-.246-.072-.325-.15.081-.035.038.01.111-.063zm.502-3.204c-.039-.024-.079-.052-.119-.077l.159-.159.642.642zm.091 3.09-.453-.453.539-.539.509.509c.047.047.108.068.17.07l-.171.102c-.187.111-.389.225-.594.311zm2.37 1.937c.044-.01.09-.017.124-.052.056-.056.071-.129.063-.202l.558-.558c-.018.22-.055.419-.144.583-.116.215-.418.428-.601.229zm.753-2.234.007.816c-.067-.002-.134.019-.185.07l-.697.697-.059-.059c-.002-.06-.007-.113-.006-.179 0-.472 0-.951.007-1.423.002-.182-.093-.35-.25-.441-.077-.044-.163-.066-.248-.066l.351-.351.446.446c.098.098.256.098.354 0s.098-.256 0-.354l-.446-.446.51-.51c.098-.098.098-.256 0-.354s-.256-.098-.353 0l-.51.51-1.74-1.74.13-.13c.338.217.688.416 1.033.603.153.083.341.08.491-.008.151-.089.245-.249.248-.424v-.038l.964.964c.092.092.192.091.304.02.082.016.136.03.221-.055l.612-.612.523.523-.604.36c-.152.09-.246.253-.246.43s.093.34.245.431c.238.141.475.277.711.413l.538.312c.248.145.696.421.696.706-.015.167-.271.315-.521.309-.357-.01-.741-.235-1.083-.436-.062-.036-.123-.074-.185-.111l-.482-.482c-.098-.098-.256-.098-.353 0-.04.04-.053.092-.06.144-.037.011-.076.009-.11.028-.156.09-.253.257-.253.437z"/></g></svg>