<svg id="Layer_1" enable-background="new 0 0 66 66" height="512" viewBox="0 0 66 66" width="512" xmlns="http://www.w3.org/2000/svg"><g><path d="m37.672 38.059c.006.173.171.315.373.19.009.003.014.009.023.012-.357.899-.19.466-1.729 4.768-.251.688-.446 1.479.015 2.128.66.94 2.209.813 5.182 1.027.203.018.413.032.625.032.554 0 1.111-.1 1.547-.501.84-.749.626-2.033.524-2.65 0-.002 0-.003-.001-.005-.343-1.935-.84-4.846-.84-4.846 1.324-.704 1.718-2.313 1.419-3.762-.36-1.813-1.912-3.943-3.787-4.224-1.79-.277-4.028 1.482-4.723 2.766-.899 1.634-.549 4.072 1.372 5.065zm-.85-3.099c-.008-.323.038-.651.137-.967l1.069 1.069-.54.54-.625-.625c-.011-.011-.028-.008-.041-.017zm.312.995-.074.075c-.033-.077-.062-.156-.088-.236zm-.05 8.372c-.031-.28.081-.645.196-.958l.08-.222.453.452zm.518-1.645c-.019-.019-.045-.016-.067-.028l.281-.787c.056-.005.113-.021.156-.064l.101-.101.818.818-.725.725zm1.025-3.077.418.418-.885.885.455-1.272c.003-.01.008-.02.012-.031zm5.202-4.955c.232 1.121-.054 2.396-1.165 2.792-.229.082-.366.316-.325.556l.071.417c.275 1.604.551 3.213.835 4.815.303 1.822-.205 2.077-1.63 1.956-.534-.039-3.768-.204-4.24-.444l.79-.79.33.33c.098.098.256.098.354 0s.098-.256 0-.354l-.33-.33.862-.862c.018-.011.041-.008.056-.023.016-.016.013-.038.023-.056l.657-.657c.098-.098.098-.256 0-.354s-.256-.098-.354 0l-.52.52-.818-.818.972-.972.274.274c.098.098.256.098.353 0 .098-.098.098-.256 0-.354l-.274-.274.514-.514c.098-.098.098-.256 0-.353-.098-.098-.256-.098-.354 0l-.514.514-.577-.577c.061-.157.116-.311.179-.469l.198-.504c.105-.273-.042-.579-.335-.66l.968-.968c.098-.098.098-.256 0-.354s-.256-.098-.354 0l-1.149 1.149c-.443-.18-.735-.407-1.015-.805l.173-.173c.277.277.67.832.928.574s-.298-.651-.574-.928l.54-.54.273.273c.098.098.256.098.354 0s.098-.256 0-.354l-.273-.273.848-.848.071.071c.098.098.256.098.354 0s.098-.256 0-.354l-.184-.184c-.012-.031-.012-.065-.037-.09s-.059-.025-.09-.037l-.961-.962.694-.694 1.025 1.025c.098.098.256.098.354 0s.098-.256 0-.353l-.07-.07.417-.417.764.764c.098.098.256.098.354 0s.098-.256 0-.354l-.765-.765c.1-.1.145-.134.216-.243 1.028.62 1.878 1.95 2.107 3.101zm-3.431-3.421c-.014.078-.004.158.056.219l.347.347-.417.417-.602-.602.334-.334c.098-.024.189-.035.282-.047zm-2.017 1.075-.077-.077c.167-.132.342-.254.522-.368zm2.885-.974-.111.112-.201-.201c.105.019.209.051.312.089zm-3.34 1.226.102.102-.471.471c-.098.098-.098.256 0 .354s.256.098.354 0l.471-.471.848.848-.848.848-1.214-1.214c.004-.007.006-.015.01-.022.162-.303.43-.618.748-.916z"/><path d="m22.516 44.879c-.161 4.698 1.161 6.596 6.644 6.756l19.714.544c5.009.143 8.656-.871 10.376-6.39.737-2.353.794-4.8.849-7.166.051-2.271.109-4.845-.478-7.277-.767-3.117-2.575-5.783-5.639-6.836-.132-3.642-.272-7.277-.413-10.921-.079-1.992-.169-4.249-1.049-6.232-1.406-3.173-4.881-5.536-9.069-6.168-9.469-1.446-17.142 5.458-16.699 13.472.015.276.245.501.525.472l5.124-.281c.26-.014.466-.225.474-.485.004-.144.028-.288.045-.432.014.002.025.016.04.016.064 0 .128-.024.177-.073l1.399-1.399.963.963c.098.098.256.098.354 0s.098-.256 0-.354l-.963-.963 1.464-1.464.899.899c.098.098.256.098.353 0 .098-.098.098-.256 0-.354l-.051-.051 1.221-1.222.703.703c.098.098.256.098.354 0s.098-.256 0-.354l-.703-.703.761-.761c.098-.098.098-.256 0-.354s-.256-.098-.354 0l-.761.761-.662-.662c1.081-.281 2.144-.35 3.077-.314-.04.011-.082.016-.113.047l-.163.164-.105-.106c-.098-.098-.256-.098-.354 0s-.098.256 0 .354l.106.106-.833.833c-.098.098-.098.256 0 .353.098.098.256.098.354 0l.833-.833.639.639c-.042.092-.043.199.033.275.108.108.183.075.275.033l.338.338c.049.049.113.073.177.073s.128-.024.177-.073c.098-.098.098-.256 0-.354l-.315-.315.939-.939 1.541 1.542c.098.098.256.098.354 0s.098-.256 0-.354l-1.418-1.418c2.264.61 3.805 1.964 4.373 4.858.354 1.75.25 3.036.075 10.115-5.682-.421-11.48-.606-17.247-.547-6.778.068-8.455 3.081-8.057 9.933.222 3.911-.158 7.982-.284 11.906zm14.03 5.741c.098.098.256.098.354 0s.098-.256 0-.354l-.181-.181.689-.689c-.019.082-.013.167.051.231l.974.974-.18.181c-.028.028-.031.067-.042.102l-2.228-.062.384-.384zm4.077.331-1.535-.042c.001-.001.002 0 .003-.001.079-.079.077-.192.028-.286l.817-.817.864.864c.021.021.05.019.075.031zm8.279.228-4.578-.126.693-.693.611.611c.098.098.256.098.353 0 .098-.098.098-.256 0-.354l-.611-.611.917-.917.797.798-.577.577c-.098.098-.098.256 0 .354s.256.098.354 0l.577-.577.432.432c.098.098.256.098.354 0s.098-.256 0-.354l-.432-.432 1.314-1.314 1.076 1.076-.498.498c-.098.098-.098.256 0 .354s.256.098.354 0l.498-.498.933.933c.098.098.256.098.354 0s.098-.256 0-.353l-.933-.933 1.353-1.353.956.956-.736.736c-.098.098-.098.256 0 .354s.256.098.353 0l.736-.736.584.584c.098.098.256.098.354 0s.098-.256 0-.354l-.584-.584 1.512-1.512 1.074 1.074c-2.067 2.395-4.415 2.458-7.59 2.364zm.558-2.959 1.353-1.353 1.075 1.075-1.353 1.353zm3.135-.277 1.512-1.512.956.956-1.512 1.512zm4.212.481-1.037-1.037.798-.798.699.699c.049.049.113.073.177.073.025 0 .044-.021.068-.028-.213.39-.449.753-.705 1.091zm2.292-9.824v.008c-.01 0-.018.01-.029.012l-.561-.561.612-.612c-.006.386-.013.771-.022 1.153zm-.035.651c.007.002.012.007.019.008-.014.563-.034 1.128-.065 1.694-.008.003-.016.006-.024.01-.011-.021-.009-.046-.026-.063l-.776-.776zm-.093 2.395c-.041.542-.1 1.081-.18 1.617l-.719-.719zm-.348 2.156c.021.021.051.02.077.032-.086.468-.198.931-.33 1.389l-1.488-1.488.837-.837zm-25.575-30.544c.143-.548.369-1.084.679-1.587l.454.454zm1.487-1.486-.52-.52c.401-.55.889-1.051 1.459-1.469l.525.525zm3.887-2.191-1.222 1.222-.495-.495.154-.154c.098-.098.098-.256 0-.354s-.256-.098-.354 0l-.154.154-.454-.454c.056-.035.108-.077.165-.11.49-.284.995-.498 1.501-.666zm2.847-.767.162-.162c.098-.098.098-.256 0-.354-.027-.027-.065-.029-.099-.041.311.016.612.038.886.071.217.026.411.072.616.108.003.011.008.02.013.03l-.962.962zm2.955-1.068c.038-.091.038-.193-.036-.267-.098-.098-.256-.098-.354 0l-.11.111c-.437-.108-.897-.195-1.387-.254-1.791-.213-4.419-.179-6.778 1.189-2.026 1.185-3.42 3.248-3.652 5.352l-4.172.229c-.048-7.234 6.978-13.246 15.565-11.928 3.021.456 6.789 2.162 8.306 5.585.803 1.808.885 3.871.964 5.865.136 3.524.272 7.041.401 10.564-1.164-.295-2.672-.44-3.87-.534.177-7.143.287-8.502-.093-10.381-.614-3.127-2.3-4.767-4.784-5.531zm-20.709 37.166c.126-3.924.509-8.02.281-11.998-.433-7.479 1.934-8.824 7.069-8.875 5.724-.061 11.681.117 17.686.579 5.333.416 8.694 1.255 10.099 6.964.408 1.689.486 3.428.479 5.15l-.973.974-.498-.498c-.098-.098-.256-.098-.353 0-.098.098-.098.256 0 .354l.498.498-.26.26c-.098.098-.098.256 0 .354s.256.098.354 0l.26-.26.52.52-.837.837-.419-.419c-.098-.098-.256-.098-.353 0-.098.098-.098.256 0 .354l.443.443c-.04.092-.041.197.034.272.108.108.182.073.272.034l.8.8c.008.008.021.006.03.012l-.926.926-.855-.855c-.098-.098-.256-.098-.354 0s-.098.256 0 .354l.855.855-.837.837-.299-.3c-.098-.098-.256-.098-.354 0s-.098.256 0 .353l.3.3-.697.696c-.098.098-.098.256 0 .354s.256.098.354 0l.696-.696 1.671 1.671c-.153.449-.33.88-.533 1.284-.012-.038-.015-.079-.045-.109l-.699-.699.509-.509c.098-.098.098-.256 0-.354s-.256-.098-.354 0l-.509.509-1.53-1.53c-.098-.098-.256-.098-.354 0s-.098.256 0 .354l1.53 1.53-.798.798-.956-.957.356-.356c.098-.098.098-.256 0-.354s-.256-.098-.353 0l-.356.356-1.054-1.054c-.098-.098-.256-.098-.354 0s-.098.256 0 .354l1.054 1.054-1.512 1.512-1.075-1.075 1.072-1.071c.098-.098.098-.256 0-.354s-.256-.098-.354 0l-1.072 1.071-.141-.141c-.098-.098-.256-.098-.354 0s-.098.256 0 .353l.141.141-1.353 1.353-.26-.26c-.098-.098-.256-.098-.354 0s-.098.256 0 .354l.26.26-1.314 1.313-.797-.798 2.087-2.087c.098-.098.098-.256 0-.354s-.256-.098-.354 0l-2.087 2.087-.22-.22c-.098-.098-.256-.098-.354 0s-.098.256 0 .354l.22.22-.917.917-.935-.935c-.098-.098-.256-.098-.354 0s-.098.256 0 .353l.935.935-.855.855c-.049.048-.072.112-.073.175l-2.425-.067.968-.968.722.722c.049.049.113.073.177.073s.128-.024.177-.073c.098-.098.098-.256 0-.354l-.722-.722 2.16-2.16c.098-.098.098-.256 0-.354s-.256-.098-.354 0l-2.16 2.16-.419-.419c-.098-.098-.256-.098-.354 0s-.098.256 0 .354l.419.419-.74.74c-.012-.025-.01-.054-.031-.075l-.864-.864 1.088-1.088c.098-.098.098-.256 0-.354s-.256-.098-.354 0l-1.088 1.088-.141-.141c-.098-.098-.256-.098-.353 0-.098.098-.098.256 0 .354l.141.141-.798.798-.974-.974c-.064-.064-.149-.07-.23-.051l1.189-1.189c.232-.232-.119-.588-.354-.354l-2.052 2.052-.379-.379c-.098-.098-.256-.098-.354 0s-.098.256 0 .354l.379.379-.538.538c-.051.051-.072.117-.07.184l-6.215-.171c-4.846-.141-5.814-1.513-5.671-5.724z"/><path d="m6.961 26.699c-.409.799-.842 2.056-1.03 2.987-.573 2.852 3.037 4.914 5.563 2.753 1.672-1.431 1.957-4.053.484-6.061-1.505-2.052-3.903-1.854-5.017.321zm3.883 4.981c-1.792 1.535-4.325.155-3.932-1.796.172-.853.567-2 .94-2.729.752-1.469 2.23-1.673 3.32-.185 1.163 1.585.94 3.626-.328 4.71z"/><path d="m17.864 33.116v-7.62c0-.276-.224-.5-.5-.5s-.5.224-.5.5v7.62c0 .276.224.5.5.5.277 0 .5-.223.5-.5z"/><path d="m14.231 42.305c-1.462 1.99-1.202 4.618.484 6.061 1.155.988 2.883 1.17 4.108.44 2.184-1.298 1.577-3.929.426-6.18-1.111-2.17-3.51-2.378-5.018-.321zm5.066 3.506c.156.777-.276 1.715-.985 2.137-.872.517-2.111.374-2.947-.341-1.267-1.084-1.492-3.126-.328-4.71 1.289-1.76 3.363-1.555 4.26 2.914z"/><path d="m9.345 41.424c0-.276-.224-.5-.5-.5s-.5.224-.5.5v7.62c0 .276.224.5.5.5s.5-.224.5-.5z"/><path d="m18.823 64.268c2.184-1.298 1.576-3.929.426-6.181-1.109-2.166-3.506-2.381-5.018-.321-.674.919-1.011 2.023-.948 3.108.179 3.119 3.362 4.689 5.54 3.394zm-3.786-5.91c1.079-1.473 2.562-1.299 3.321.185.873 1.707 1.592 3.892-.046 4.866-2.451 1.454-5.504-2.016-3.275-5.051z"/><path d="m8.845 56.384c-.276 0-.5.224-.5.5v7.62c0 .276.224.5.5.5s.5-.224.5-.5v-7.62c0-.276-.224-.5-.5-.5z"/><path d="m29.272 57.766c-1.469 2.004-1.192 4.626.484 6.061 2.525 2.162 7.679.409 4.533-5.74-1.061-2.076-3.462-2.439-5.017-.321zm4.082 5.642c-.873.518-2.111.374-2.947-.341-1.26-1.078-1.5-3.114-.328-4.709 1.077-1.47 2.56-1.303 3.32.185.874 1.705 1.592 3.892-.045 4.865z"/><path d="m23.887 56.384c-.276 0-.5.224-.5.5v7.62c0 .276.224.5.5.5s.5-.224.5-.5v-7.62c0-.276-.224-.5-.5-.5z"/><path d="m48.948 58.087c-1.108-2.162-3.501-2.384-5.018-.321-1.49 2.033-1.165 4.65.485 6.061 2.525 2.161 7.678.411 4.533-5.74zm-4.212.271c1.077-1.464 2.555-1.315 3.321.185 2.704 5.273-1.342 5.937-2.992 4.524-1.261-1.078-1.497-3.116-.329-4.709z"/><path d="m52.388 57.766c-1.49 2.033-1.165 4.65.485 6.061 1.151.985 2.878 1.172 4.108.441 3.969-2.359-.945-11.466-4.593-6.502zm4.082 5.642c-.872.516-2.112.374-2.947-.341-.629-.538-1.035-1.379-1.085-2.25-.167-2.909 3.659-6.321 5.017.455.156.777-.276 1.715-.985 2.136z"/><path d="m38.544 65.004c.276 0 .5-.224.5-.5v-7.62c0-.276-.224-.5-.5-.5s-.5.224-.5.5v7.62c0 .276.224.5.5.5z"/><path d="m26.577 30.522c-.098-.098-.256-.098-.354 0s-.098.256 0 .354l.689.689-.516.516c-.098.098-.098.256 0 .354s.256.098.354 0l.516-.516 1.852 1.852-1.53 1.969c-.085.109-.065.266.044.351.107.084.265.066.351-.044l1.492-1.92.04.04c.098.098.256.098.354 0s.098-.256 0-.354l-.084-.084 2.855-3.674c.078-.1.069-.241-.021-.33l-.696-.696c-.006-.055-.021-.11-.063-.152s-.097-.057-.152-.063l-.668-.668.226-.226c.098-.098.098-.256 0-.354s-.256-.098-.354 0l-.226.226-.858-.858.223-.223c.098-.098.098-.256 0-.354s-.256-.098-.354 0l-.242.242c-.094-.05-.208-.052-.287.028-.079.079-.077.193-.028.287l-2.916 2.916c-.098.098-.098.256 0 .354s.256.098.354 0l1.22-1.22c-.001.066.022.131.072.181l.732.732-1.335 1.335zm1.995 1.995 1.334-1.335.56.561c.047.047.11.07.172.071l-1.211 1.559zm2.3-1.003c-.01-.044-.017-.09-.052-.125l-.56-.56 1.378-1.378.471.471zm.412-2.417-1.378 1.378-.598-.599 1.378-1.378zm-3.062-.306c-.05-.05-.115-.073-.181-.072l1.432-1.432.858.858-1.378 1.378zm.732 1.439.599.599-1.334 1.335-.599-.599z"/><path d="m40.281 3.353c-.697.081-1.38.236-2.053.424l-.36-.625c-.07-.12-.222-.16-.342-.092-.12.069-.161.222-.092.342l.304.526c-.645.206-1.275.45-1.884.748-.147-.17-.279-.354-.38-.553-.063-.124-.214-.173-.336-.11-.123.063-.173.213-.11.336.1.198.229.381.368.556-.726.388-1.41.848-2.059 1.355l-.363-.453c-.086-.108-.244-.125-.351-.039-.108.086-.125.244-.039.351l.355.443c-.608.51-1.161 1.079-1.674 1.684-.193-.266-.354-.555-.475-.864-.05-.128-.194-.192-.324-.142-.128.05-.192.195-.142.324.152.39.362.751.615 1.08-.457.582-.885 1.186-1.241 1.838-.066.122-.022.273.099.339.12.066.273.023.339-.099.327-.598.716-1.156 1.132-1.693.139.142.287.276.445.399.109.085.266.065.351-.043.085-.109.065-.266-.043-.351-.155-.121-.297-.255-.432-.397.507-.607 1.055-1.177 1.661-1.686l.335.418c.087.109.244.125.351.039.108-.086.125-.244.039-.351l-.327-.408c.66-.515 1.354-.984 2.096-1.371.19.174.394.333.618.458.124.067.274.022.34-.097.067-.121.023-.273-.097-.34-.129-.071-.251-.155-.367-.247.569-.268 1.154-.493 1.755-.679l.327.567c.068.118.221.161.341.091.12-.069.161-.222.091-.341l-.27-.468c.609-.163 1.227-.297 1.855-.37.137-.016.235-.14.22-.277-.015-.14-.142-.238-.276-.222z"/></g></svg>