<svg id="Layer_1" enable-background="new 0 0 66 66" height="512" viewBox="0 0 66 66" width="512" xmlns="http://www.w3.org/2000/svg"><g><path d="m35.797 29.909c.2-2.979-.502-5.802-1.977-7.949-1.243-1.808-3.157-3.31-5.536-4.344-3.353-1.458-6.973-1.741-10.193-.798-1.596.468-3.092 1.239-4.449 2.292-1.744 1.354-3.099 3.098-4.028 5.032-.053.007-.108.021-.149.062-.082.082-.079.2-.024.295-1.523 3.406-1.722 7.361-.311 10.85 1.585 3.913 5.095 6.986 9.159 8.02 4.006 1.02 8.43.095 11.813-2.544 3.279-2.56 5.407-6.64 5.695-10.916zm-9.3-11.899-.059.059-.113-.113c.057.018.115.035.172.054zm-2.169-.521-.503.503-.657-.657c.386.033.772.089 1.16.154zm-2.796-.203-.552.552-.478-.478c.341-.038.684-.063 1.03-.074zm-2.265.267-.631.631-.369-.369c.036-.011.07-.026.105-.036.295-.087.593-.162.895-.226zm-2.169 2.168-1.006-1.006c.533-.283 1.085-.519 1.649-.719l.541.541zm-3.172.457.397.397-1.722 1.722-.391-.391c.512-.625 1.086-1.203 1.716-1.728zm-2.617 3.763c.097.097.255.098.354 0l.938-.938.674.675c-.097-.063-.222-.066-.307.019l-1.828 1.828-.738-.737c.403-.878.905-1.713 1.493-2.49l.351.351-.938.938c-.096.099-.096.257.001.354zm-2.056 7.784.573.573-.423.423c-.063-.331-.114-.663-.15-.996zm.771 3.154.196.196c-.029.039-.05.082-.053.128-.033-.078-.078-.15-.109-.229-.013-.032-.022-.064-.034-.095zm8.511 7.52c-2.738-.696-5.194-2.401-6.9-4.67l1.459-1.459c.098-.098.098-.256 0-.354s-.256-.098-.354 0l-1.402 1.402c-.416-.602-.771-1.242-1.073-1.909.044.033.092.06.144.06.053 0 .1-.027.144-.06l1.123 1.123c.097.097.255.098.353 0s.098-.256 0-.354l-1.114-1.114 1.227-1.227c.098-.098.098-.256 0-.354s-.256-.098-.354 0l-1.227 1.227-.746-.746c-.036-.036-.084-.044-.13-.054-.057-.2-.105-.405-.155-.61l.649-.649.726.726c.099.099.257.096.353 0 .098-.098.098-.256 0-.354l-.726-.726.969-.968c.234-.234-.12-.587-.354-.353l-.969.968-.899-.9c-.024-.024-.058-.024-.088-.036-.045-.887.009-1.778.146-2.657l.872.872-.899.899c-.098.098-.098.256 0 .353.097.097.255.098.354 0l.899-.899.649.649c.097.097.255.098.353 0s.098-.256 0-.354l-.649-.649 1.081-1.081c.098-.098.098-.256 0-.354s-.256-.098-.353 0l-1.081 1.081-1.125-1.125c.17-.84.428-1.662.755-2.458l.593.592-.86.863c-.098.098-.098.256 0 .354.097.097.255.098.354 0l.861-.861.797.796c.097.097.255.098.353 0s.098-.256 0-.354l-.797-.796 1.828-1.828c.085-.085.082-.21.019-.307l.204.204c.097.097.255.098.354 0 .098-.098.098-.256 0-.354l-.945-.945 1.722-1.722.951.951c.098.097.256.098.354 0s.098-.256 0-.354l-.951-.951.438-.438c.098-.098.098-.256 0-.354s-.256-.098-.353 0l-.438.438-.363-.363c.428-.328.874-.617 1.33-.884l1.101 1.101-.361.361c-.098.098-.098.256 0 .353.097.097.256.098.353 0l1.899-1.899.671.671c.097.097.255.098.354 0 .098-.098.098-.256 0-.354l-.671-.671.719-.719c.095-.095.094-.246.004-.344.056-.01.111-.021.167-.03l.747.747-.861.861c-.098.098-.098.256 0 .354.097.097.255.098.354 0l.861-.861.749.749c.097.097.255.098.354 0 .098-.098.098-.256 0-.354l-.749-.749.907-.907c.135.003.271.015.406.022-.031.088-.029.184.041.255l.784.784-.323.323c-.098.098-.098.256 0 .354.099.099.257.096.354 0l.323-.323.749.749c.097.097.255.098.354 0 .098-.098.098-.256 0-.354l-.749-.749.607-.606c.046-.046.066-.106.069-.166.207.043.413.103.619.155.008.05.019.102.058.14l.554.554-.707.707c-.098.098-.098.256 0 .354.097.097.256.098.354 0l.707-.707.673.673c.097.097.255.098.354 0 .098-.098.098-.256 0-.354l-.673-.673.219-.219c.292.107.586.205.875.33.001 0 .002.001.003.001l.272.272-.4.4c-.098.098-.098.256 0 .354.099.099.257.096.353 0l.4-.4.877.877c.097.097.255.098.354 0 .098-.098.098-.256 0-.354l-.432-.432c1.545.884 2.804 1.997 3.683 3.275 1.348 1.962 1.988 4.56 1.803 7.315-.269 3.997-2.254 7.808-5.312 10.194-3.074 2.399-7.272 3.303-10.956 2.367z"/><path d="m30.627 47.086c1.424 3.11 4.546 4.507 7.327 4.013 2.596 4.908 10.578 11.261 10.664 11.328 1.641 1.277 3.361 2.57 5.46 2.57 3.377 0 5.002-2.958 3.431-5.963-.688-1.305-1.818-2.321-2.726-3.137-10.227-9.24-10.318-9.503-11.9-10.208.149-2.528-1.403-6.736-4.667-7.643 1.326-2.535 2.13-5.348 2.322-8.186.266-4.001-.675-7.791-2.65-10.671-1.673-2.428-4.244-4.444-7.436-5.83-4.51-1.963-9.376-2.342-13.701-1.07-2.146.628-4.157 1.663-5.976 3.076-6.57 5.099-9.119 14.272-6.065 21.811 2.122 5.255 6.833 9.385 12.296 10.776 1.415.36 2.876.538 4.344.538 3.06 0 6.146-.78 8.911-2.268.108.277.226.561.366.864zm23.486 9.555c1.08.97 1.95 1.797 2.509 2.858 1.493 2.853-.659 5.126-3.572 4.372-1.419-.366-2.639-1.315-3.815-2.23-2.192-1.733-8.108-6.898-10.289-10.789.5-.178 1.152-.52 1.715-.967.057-.045.118-.084.173-.131.983-.839 1.655-2.005 1.913-3.034.609.312 1.255.774 1.927 1.382 3.145 2.852 6.292 5.694 9.439 8.539zm-12.823-14.129c3.08 7.624-7.145 11.15-10.149 3.221 2.561-1.535 4.936-3.941 6.593-6.8 1.794.393 2.879 1.887 3.556 3.579zm-24.038 4.471c-5.159-1.314-9.61-5.216-11.614-10.183-2.891-7.133-.473-15.816 5.747-20.647 1.72-1.335 3.618-2.313 5.646-2.906 1.587-.467 3.252-.699 4.947-.699 2.684 0 5.441.581 8.073 1.727 3.021 1.311 5.445 3.206 7.011 5.479 1.849 2.695 2.728 6.26 2.477 10.038-.82 12.187-11.892 19.832-22.287 17.191z"/><path d="m16.933 25.454c-.265-.039-.528.146-.569.419-.388 2.546-.59 5.143-.601 7.719-.001.276.222.501.498.502h.002c.275 0 .499-.222.5-.498.012-2.528.21-5.076.59-7.574.041-.271-.146-.526-.42-.568z"/><path d="m19.9 26.42c-1.874 1.718-1.385 4.79-.92 5.791 1.04 2.234 3.827 2.219 5.047-.012.829-1.516.949-4.822-.471-6.025-.973-.824-2.612-.714-3.656.246zm3.25 5.299c-.812 1.483-2.566 1.567-3.264.07-.464-1-.632-3.417.689-4.633 1-.916 2.966-1.015 3.04 1.947.031 1.165-.112 1.971-.465 2.616z"/><path d="m43.778 11.879c-.265-.039-.528.145-.569.419-.387 2.54-.589 5.137-.602 7.72-.001.276.222.501.497.502h.003c.275 0 .499-.222.5-.497.013-2.534.211-5.083.59-7.574.042-.274-.146-.529-.419-.57z"/><path d="m46.745 12.845c-1.868 1.712-1.386 4.789-.919 5.79 1.033 2.23 3.823 2.225 5.046-.01.566-1.034.612-2.211.589-3.121-.106-4.13-3.341-3.923-4.716-2.659zm3.25 5.299c-.817 1.493-2.571 1.558-3.263.069-.465-1-.633-3.421.689-4.631 1-.917 2.966-1.013 3.04 1.947.02.785-.015 1.791-.466 2.615z"/><path d="m54.87 11.879c-.267-.039-.528.145-.569.419-.387 2.54-.589 5.137-.602 7.72-.001.276.222.501.497.502h.003c.275 0 .499-.222.5-.497.013-2.534.211-5.083.59-7.574.042-.274-.146-.529-.419-.57z"/><path d="m56.513 15.77c-.02.887.008 2.015.403 2.865 1.04 2.234 3.826 2.219 5.047-.011.566-1.036.612-2.212.589-3.121-.138-5.41-5.946-3.847-6.039.267zm4.574 2.374c-.814 1.487-2.567 1.564-3.264.07-.312-.671-.326-1.703-.31-2.421.018-.778.428-1.687.999-2.211 1-.917 2.965-1.035 3.04 1.947.031 1.164-.113 1.971-.465 2.615z"/><path d="m43.107 23.066c-.001 0-.002 0-.003 0-.275.001-.498.227-.497.502.013 2.583.215 5.18.602 7.72.037.247.251.425.493.425.025 0 .051-.002.076-.006.273-.042.461-.296.419-.569-.379-2.492-.577-5.04-.59-7.574-.001-.275-.224-.498-.5-.498z"/><path d="m45.826 24.951c-.395.846-.423 1.975-.404 2.865.023 1.045.555 2.221 1.323 2.925 1.352 1.241 4.609 1.53 4.716-2.658.024-.91-.022-2.087-.589-3.121-1.242-2.272-4.034-2.194-5.046-.011zm1.595 5.054c-.571-.524-.982-1.433-.999-2.211-.094-4.413 2.652-4.034 3.573-2.352.451.824.486 1.83.466 2.615-.074 2.961-2.04 2.863-3.04 1.948z"/><path d="m54.199 23.066c-.001 0-.002 0-.003 0-.275.001-.498.227-.497.502.013 2.583.215 5.18.602 7.72.037.247.251.425.493.425.025 0 .051-.002.076-.006.273-.042.461-.296.419-.569-.379-2.492-.577-5.04-.59-7.574-.001-.275-.225-.498-.5-.498z"/><path d="m61.493 30.987c.903-.765 1.037-2.024 1.06-2.904.023-.909-.022-2.085-.589-3.121-1.424-2.599-5.57-2.604-5.45 2.854.067 3.034 3.205 4.68 4.979 3.171zm-3.98-3.193c-.102-4.416 2.654-4.028 3.573-2.352.353.645.496 1.452.466 2.616-.074 2.962-2.04 2.864-3.04 1.947-.571-.524-.981-1.433-.999-2.211z"/><path d="m4.748 48.862c-.001 0-.002 0-.002 0-.276.001-.499.226-.498.503.012 2.574.214 5.171.601 7.719.037.248.251.425.493.425.025 0 .051-.002.076-.006.272-.041.461-.296.419-.569-.379-2.5-.577-5.048-.589-7.574-.001-.276-.225-.498-.5-.498z"/><path d="m7.466 50.747c-.396.851-.423 1.978-.403 2.865.023 1.045.556 2.221 1.323 2.925 1.04.954 2.681 1.074 3.656.246.903-.766 1.037-2.024 1.059-2.905.134-5.437-4.341-5.913-5.635-3.131zm1.595 5.053c-.571-.524-.981-1.433-.999-2.211-.117-5.053 4.156-4.442 4.039.264-.074 2.959-2.039 2.864-3.04 1.947z"/><path d="m15.84 48.862c-.001 0-.002 0-.002 0-.276.001-.499.226-.498.503.012 2.574.214 5.171.601 7.719.037.248.251.425.493.425.025 0 .051-.002.076-.006.273-.041.461-.296.419-.569-.379-2.5-.577-5.048-.589-7.574-.001-.276-.225-.498-.5-.498z"/><path d="m18.557 50.746c-.395.849-.423 1.977-.403 2.865.065 3.026 3.198 4.681 4.979 3.172 1.403-1.189 1.307-4.496.47-6.025-1.232-2.258-4.022-2.21-5.046-.012zm3.93 5.274c-.652.554-1.732.332-2.334-.22-1.321-1.212-1.154-3.631-.689-4.631.722-1.55 2.472-1.375 3.263.069.618 1.129.746 3.946-.24 4.782z"/><path d="m19.721 1.002c-.001 0-.002 0-.003 0-.275.002-.498.227-.497.503.013 2.576.215 5.173.602 7.719.037.248.251.425.493.425.025 0 .051-.002.076-.006.272-.041.461-.296.419-.569-.379-2.498-.577-5.046-.59-7.574-.001-.276-.224-.498-.5-.498z"/><path d="m23.359 8.676c1.067.979 2.707 1.054 3.657.246 1.396-1.185 1.312-4.488.47-6.025-1.235-2.261-4.029-2.206-5.046-.011-.466 1-.95 4.076.919 5.79zm-.013-5.368c.718-1.544 2.469-1.381 3.263.07.621 1.135.743 3.948-.239 4.783-.653.553-1.735.331-2.335-.22-1.321-1.212-1.153-3.633-.689-4.633z"/><path d="m30.813 1.002c-.001 0-.002 0-.003 0-.275.002-.498.227-.497.503.013 2.582.215 5.18.601 7.719.037.248.251.425.493.425.025 0 .051-.002.076-.006.273-.042.461-.296.419-.569-.379-2.492-.577-5.04-.59-7.574 0-.276-.223-.498-.499-.498z"/><path d="m33.532 2.886c-.466 1-.95 4.075.919 5.79 1.034.949 2.675 1.08 3.656.247 1.436-1.217 1.277-4.554.471-6.026-1.233-2.252-4.027-2.21-5.046-.011zm3.929 5.274c-.649.553-1.73.332-2.334-.22-1.321-1.211-1.153-3.632-.688-4.632.707-1.522 2.456-1.404 3.263.07.621 1.136.742 3.948-.241 4.782z"/><path d="m43.607 1.5c-.001-.275-.225-.498-.5-.498-.001 0-.002 0-.003 0-.275.002-.498.227-.497.503.013 2.582.215 5.18.602 7.719.037.248.251.425.493.425.025 0 .051-.002.076-.006.273-.042.461-.296.419-.569-.379-2.492-.577-5.04-.59-7.574z"/><path d="m50.872 2.897c-1.232-2.252-4.027-2.21-5.046-.011-.466 1-.95 4.075.919 5.79 1.034.949 2.675 1.08 3.656.247 1.436-1.217 1.277-4.554.471-6.026zm-1.117 5.263c-.649.553-1.73.332-2.334-.22-1.321-1.211-1.153-3.632-.689-4.632.707-1.522 2.456-1.404 3.263.07.622 1.136.742 3.948-.24 4.782z"/><path d="m54.699 1.5c-.001-.275-.225-.498-.5-.498-.001 0-.002 0-.003 0-.275.002-.498.227-.497.503.013 2.582.215 5.18.602 7.719.037.248.251.425.493.425.025 0 .051-.002.076-.006.273-.042.461-.296.419-.569-.379-2.492-.577-5.04-.59-7.574z"/><path d="m61.964 2.897c-1.229-2.246-4.02-2.217-5.047-.01-.465 1-.953 4.071.92 5.79 1.033.947 2.673 1.081 3.656.246 1.415-1.2 1.293-4.52.471-6.026zm-3.452 5.043c-1.321-1.21-1.154-3.631-.689-4.632.718-1.541 2.467-1.385 3.264.069.353.645.496 1.452.466 2.616-.075 2.96-2.04 2.864-3.041 1.947z"/><path d="m30.718 26.174c-.972-.823-2.612-.714-3.657.246-1.87 1.718-1.385 4.79-.919 5.79 1.026 2.215 3.824 2.225 5.046-.011.829-1.514.947-4.823-.47-6.025zm-.408 5.545c-.804 1.47-2.562 1.578-3.263.069-.465-1-.631-3.419.688-4.632.604-.552 1.684-.771 2.335-.22.982.833.863 3.645.24 4.783z"/></g></svg>