<svg id="Layer_1" enable-background="new 0 0 66 66" height="512" viewBox="0 0 66 66" width="512" xmlns="http://www.w3.org/2000/svg"><g><path d="m62.967 31.787c-5.477-4.764-13.229 3.332-9.336 8.355-2.323 2.223-4.648 4.454-6.971 6.693-1.524-2.096-4.425-3.165-7.244-1.706-1.295-2.444-2.578-4.887-3.864-7.331 2.568-2.537 5.136-5.075 7.708-7.613 6.223 4.692 13.774-3.892 8.542-9.125-1.099-1.105-2.719-1.8-4.322-1.73-4.314.201-8.681 6.219-4.988 10.207-2.479 2.445-4.953 4.891-7.427 7.336-.526-1-5.655-10.746-6.986-13.266 2.82-1.967 3.218-5.485 2.026-7.81-1.646-3.224-6.44-4.739-9.964-.718-1.175 1.342-1.805 2.945-1.775 4.451-5.807 3.144-11.282 6.906-16.3 11.187l-.128-27.825c-.001-.275-.225-.4-.5-.4-.001 0-.002 0-.002 0-.276 0-.499.128-.498.405.288 63.165-.003 60.595.785 60.595l60.361-1.262c.276-.006.495-.214.489-.49s-.221-.463-.511-.479l-59.852 1.3-.075-16.474c3.169-1.843 6.134-4.038 9.038-6.683 1.629 1.699 4.297 2.478 6.922 1.443 1.022 1.663 2.044 3.333 3.059 5.004-3.132 4.451.023 8.958 4.681 9.036 6.394 0 8.69-8.065 3.764-11.211 1.738-1.718 3.474-3.43 5.21-5.145 1.248 2.371 2.493 4.743 3.749 7.114-5.561 3.95-3.204 10.847 2.798 10.948 2.134 0 4.188-1.069 5.36-2.788.862-1.255 1.199-2.792 1.013-4.26.074-.102.084-.234-.043-.332-.095-.519-.261-1.024-.495-1.503 2.373-2.286 4.744-4.563 7.117-6.832 6.164 5.496 14.772-3.796 8.659-9.091zm-15.749-4.395.826.826-.797.797-.826-.826zm1.068 2.937c0 .001.001.002.001.002 0 .001-.001.001-.002.001 0-.001.001-.002.001-.003zm-.002-.248c-.072-.116-.581-.61-.683-.713l.797-.797.682.682c-.101.1-.725.707-.796.828zm-1.391-.713-.714.714c-.084.084-.081.209-.02.305-.172-.03-.341-.073-.51-.119.238-.038.269-.283.14-.412l-.518-.518.796-.796zm-1.466.834c-.249-.08-.488-.179-.724-.295l.214-.214zm1.109.231.711-.711c.096.096.583.591.69.674-.797.13-.927.082-1.401.037zm2.345-.274c.273-.273 2.078-2.078 2.282-2.282.286.077.398-.241.238-.401l-1.73-1.73.969-.969.681.681-.254.254c-.158.158-.044.427.177.427.148 0 .316-.212.431-.328.113.113.509.55.656.573-.43 1.884-1.77 3.19-3.45 3.775zm3.54-4.308-.393-.393.435-.435c.009.276-.007.552-.042.828zm-4.893-5.521c2.469-.059 4.509 1.7 4.875 4.047l-.728.728-.681-.681.414-.414c.233-.233-.119-.587-.354-.354l-.414.414c-.209-.209-.397-.466-.608-.255s.046.399.255.608l-.969.969-.139-.139c-.232-.233-.588.119-.354.354l.139.139c-.268.268.083.624.353.354l1.458 1.459-1.342 1.341-.682-.682.938-.938c.098-.098.098-.256 0-.354s-.256-.098-.354 0l-.938.938-.826-.826.855-.855c.232-.232-.119-.588-.354-.354l-2.005 2.005c-.203-.203-.375-.43-.579-.226-.098.098-.098.256 0 .354l.226.226-.797.797-.685-.685c-.098-.098-.256-.098-.354 0s-.098.256 0 .354l.686.686c-.114.114-.254.221-.281.358-4.783-2.902-.774-9.182 3.245-9.368zm-17.801-1.623-.47-.471.426-.426c.039.297.056.596.044.897zm-4.937-5.059c1.976-.049 3.649 1.088 4.424 2.605.156.305.267.632.353.966l-.664.664-.682-.682.414-.414c.232-.232-.119-.588-.354-.354l-.414.414c-.208-.208-.396-.466-.608-.255-.212.212.046.4.255.608l-.969.969-.14-.14c-.232-.232-.588.119-.354.354l.14.14c-.267.267.083.624.354.353l1.458 1.458-1.343 1.343-.682-.681.938-.938c.098-.098.098-.256 0-.354s-.256-.098-.354 0l-.938.938-.824-.824.855-.855c.232-.232-.119-.588-.354-.354l-2.005 2.005c-.203-.203-.375-.43-.579-.226s.023.376.226.579l-.797.797-.686-.686c-.232-.233-.588.119-.354.354l.686.686c-.203.203-.43.375-.226.579.097.097.255.098.354 0l.226-.226c.115.115.533.591.694.591.221 0 .334-.269.177-.427l-.518-.518.797-.797.826.826-.714.714c-.098.098-.098.256 0 .354.097.097.255.098.354 0l.714-.714c.34.34.795 1.017 1.039.608.045.071.072.122.197.122.161 0 .978-.874 1.103-1 .01-.007.039-.036.046-.046l1.53-1.53c.087.024.144.047.239-.048.098-.098.098-.256 0-.354l-1.73-1.73.969-.969.682.682-.255.255c-.158.158-.044.427.177.427.148 0 .316-.212.431-.328l.515.515c.108.108.182.074.273.033-.159 1.337-1.441 3.354-2.505 3.354-.001 0-.001.248-.002.249-.851.509-1.839.922-2.874.922-2.811 0-4.762-1.89-4.939-3.917-.249-2.854 2.646-5.971 5.418-6.097zm.722 9.211c-.073-.116-.58-.608-.683-.712l.797-.797.682.681c-.1.101-.724.707-.796.828zm-1.066-2.687.826.826-.797.797-.826-.826zm-12.943 13.182c2.919-5.059 8.925-3.567 9.56.94l-.471.471-.682-.682c.249-.249.653-.529.414-.768-.238-.238-.519.166-.768.414l-.255-.255c-.232-.232-.588.119-.354.354l.255.255-.969.969c-.166-.166-.309-.323-.493-.14-.184.184-.026.327.14.493-.267.267.083.624.354.353l1.458 1.458-1.343 1.343-.682-.682.938-.938c.232-.232-.119-.588-.354-.354l-.938.938-.824-.823.854-.854c.232-.232-.119-.588-.354-.354l-2.005 2.005-.226-.226c-.232-.232-.588.119-.354.354l.226.226-.797.797-.686-.686c-.232-.232-.588.119-.354.354l.688.684-.226.226c-.158.158-.044.427.177.427.148 0 .289-.186.403-.299.266.266.619.77.871.517.252-.252-.251-.604-.517-.871l.797-.797.825.825-.715.715c-.158.158-.044.427.177.427.161 0 .766-.662.892-.788.34.34.796 1.018 1.039.608.069.11-.01.028.093.079-3.911 1.183-8.339-2.307-5.794-6.715zm6.173 6.586 2.403-2.403c.286.079.399-.241.239-.401l-1.73-1.73.969-.969.682.682-.255.255c-.233.233.12.587.354.354l.255-.255.45.45c-.327 1.933-1.581 3.334-3.367 4.017zm-.476-.199c-.073-.115-.581-.61-.683-.712l.796-.797.682.682c-.099.099-.723.706-.795.827zm-1.065-2.688.825.825-.797.797-.825-.825zm4.977-1.768-.167-.167.169-.169c.002.113.003.224-.002.336zm10.14 13.364-.187-.187.179-.179c.008.122.009.244.008.366zm-.089-.993-.452.452-.682-.681.414-.414c.232-.232-.119-.588-.354-.354l-.414.414c-.208-.208-.396-.467-.608-.255s.046.399.255.608l-.969.969-.14-.14c-.232-.233-.588.119-.354.354l.141.141c-.268.268.084.623.353.354l1.458 1.458-1.343 1.343-.682-.682.938-.938c.232-.232-.119-.588-.354-.354l-.938.938-.826-.826.854-.854c.232-.232-.119-.588-.354-.354l-2.005 2.005c-.203-.203-.375-.429-.579-.226-.204.204.023.377.226.579l-.797.797-.686-.686c-.232-.232-.588.119-.354.354l.686.686c-.203.203-.43.375-.226.579.205.205.377-.024.58-.226.115.115.534.591.695.591.221 0 .334-.269.177-.427l-.518-.518.797-.797.826.826-.715.715c-.234.234.121.586.354.354l.715-.715c.34.34.796 1.018 1.039.608.045.071.072.122.197.122.161 0 .978-.874 1.103-1 0 0 1.556-1.556 1.576-1.575.086.023.143.047.238-.048.098-.098.098-.256 0-.354l-1.73-1.73.969-.969.682.681-.255.255c-.158.158-.044.427.177.427.148 0 .317-.213.432-.328l.495.495c-.106.794-.385 1.564-.836 2.225-2.227 3.265-7.376 3.043-9.078-.277-1.618-3.109 1.788-7.516 5.237-7.516 2.023 0 4.169 1.449 4.635 3.914zm-3.843 5.429c-.072-.115-.581-.61-.683-.712l.797-.797.682.682c-.101.1-.724.706-.796.827zm-1.066-2.688.826.826-.797.797-.826-.826zm2.4-7.192c-2.313-.973-4.939-.234-6.828 1.826-.938-1.543-1.881-3.086-2.826-4.622 3.795-2.185 4.104-7.228 1.156-9.784-5.394-4.696-12.864 3.047-9.603 7.996-2.714 2.477-5.484 4.543-8.422 6.299l-.06-12.896c5.041-4.382 10.57-8.221 16.438-11.43.861 3.472 5.139 5.258 8.704 3.518 1.366 2.585 6.582 12.495 7.108 13.495-1.888 1.866-3.776 3.728-5.667 5.598zm35.271-7.022-.169-.169.166-.166c.007.111.003.223.003.335zm-24.452 10.051c3.324-2.064 6.979.275 7.28 3.6l-.25.25-.681-.681c.249-.249.653-.529.414-.768-.238-.238-.519.166-.768.414l-.255-.255c-.232-.232-.588.119-.354.354l.255.255-.969.969c-.164-.165-.309-.324-.493-.139-.184.184-.026.328.139.493-.268.268.083.624.353.354l1.458 1.458-1.342 1.342-.682-.682.938-.938c.232-.232-.119-.588-.354-.354l-.938.938-.824-.825.855-.854c.232-.232-.119-.588-.354-.354l-2.005 2.005-.226-.226c-.232-.232-.588.119-.354.354l.226.226-.797.797-.685-.687c-.232-.233-.588.119-.354.354l.686.686-.226.226c-.158.158-.044.427.177.427.148 0 .289-.186.402-.299.266.266.619.77.871.518s-.251-.605-.517-.871l.797-.797.826.826-.714.714c-.158.158-.044.427.177.427.161 0 .765-.662.891-.787.099.099.607.627.731.691-.47.127-.956.2-1.45.2-5.313-.092-6.944-6.238-1.884-9.361zm3.639 8.827c-.071-.115-.582-.611-.684-.713l.797-.797.682.682c-.1.1-.724.707-.795.828zm-1.066-2.688.826.826-.797.797-.826-.826zm1.805 2.624 2.14-2.14c.022.006.039.026.062.026s.042-.02.065-.027c-.548.978-1.321 1.668-2.267 2.141zm2.423-2.433c-.044-.142-1.67-1.733-1.775-1.839l.969-.969.681.681c-.209.209-.466.396-.254.608.097.097.255.098.354 0l.254-.254.222.222c-.072.536-.219 1.061-.451 1.551zm12.241-11.085c-3.476-.059-6.369-3.203-4.201-6.962 2.403-4.166 7.334-4.048 9.099-.579.205.401.348.834.432 1.281l-.442.442-.682-.682c.249-.249.653-.529.414-.768-.238-.238-.519.166-.768.414l-.255-.255c-.232-.232-.588.119-.354.354l.255.255-.969.969c-.165-.165-.31-.324-.493-.139-.184.184-.026.328.139.493-.268.268.083.624.353.354l1.458 1.458-1.343 1.343-.682-.682.938-.938c.232-.232-.119-.588-.354-.354l-.938.938-.826-.826.854-.854c.098-.098.098-.256 0-.354s-.256-.098-.354 0l-2.005 2.005-.226-.226c-.232-.232-.588.119-.354.354l.226.226-.797.797-.686-.686c-.234-.233-.587.12-.354.354l.686.686-.226.226c-.158.158-.044.427.177.427.148 0 .289-.186.403-.299l.518.518c.096.096.255.099.354 0 .252-.252-.251-.605-.518-.871l.797-.797.826.826-.714.715c-.158.158-.044.427.177.427.161 0 .765-.662.891-.788.34.34.798 1.019 1.039.607.01.016.007.036.021.05.097.097.255.098.354 0 1.039-1.039.958-.939.958-.939s-.136.118 1.544-1.563c.022.006.039.025.061.025.221 0 .334-.269.177-.427l-1.73-1.73.969-.969.682.682c-.208.208-.466.396-.255.608.097.097.255.098.354 0l.255-.255.482.482c-.358 2.918-2.885 4.627-5.367 4.627zm1.496-.841c-.071-.115-.582-.611-.683-.713l.797-.797.682.682c-.1.1-.725.707-.796.828zm-1.065-2.689.826.826-.797.797-.826-.826z"/></g></svg>