<svg id="Layer_1" enable-background="new 0 0 66 66" height="512" viewBox="0 0 66 66" width="512" xmlns="http://www.w3.org/2000/svg"><g><g><g id="XMLID_1_"><path d="m54.86 33.4 1.25 1.25 1.61-1.61-1.24-1.25zm-1.77-1.77 1.42 1.42 1.61-1.62-1.41-1.41zm1.42 2.13-1.34 1.35 1.24 1.24 1.35-1.34zm-3.12-.42 1.42 1.41 1.34-1.35-1.41-1.41zm-1.5 1.5 1.41 1.41 1.15-1.14-1.41-1.42zm8.82-.82-.63-.63-1.61 1.62.73.73c.1.1.1.26 0 .36-.05.05-.11.07-.18.07-.16 0-.78-.68-.91-.81l-1.35 1.35c.25.24-.11.59-.35.35l-.46.46c-.1.1-.25.1-.35 0-.25-.24.2-.55.46-.81l-1.25-1.24-1.15 1.14 1.36 1.36c.16.16.05.43-.18.43-.16 0-1.42-1.32-1.53-1.44l-.36.36c-.1.1-.26.1-.36 0-.22-.23.13-.47.36-.71l-1.42-1.42-2.59 2.6c-.1.1-.26.09-.35 0-.1-.1-.1-.26 0-.36l2.59-2.59-.65-.65-1.79 1.79c-.1.1-.26.1-.35 0-.1-.1-.1-.26 0-.35l4.84-4.85c.23-.23.59.13.35.36l-2.69 2.69.65.65 1.14-1.15c-.21-.21-.5-.42-.29-.64.22-.22.43.07.65.29l1.35-1.35c-.21-.24.11-.55.35-.35l2.4-2.4c.1-.1.26-.1.36 0 .09.1.09.25 0 .35l-.44.43 1.42 1.42.5-.5c.1-.1.26-.1.35 0 .1.1.1.26 0 .35l-.5.5 1.25 1.25 1.04-1.04c.1-.1.26-.1.36 0s.1.26 0 .36l-1.04 1.04.62.63c.1.09.1.25 0 .35-.05.05-.11.07-.17.07-.07 0-.13-.02-.18-.07z"/><path d="m41.38 56.55c.05.05.07.11.07.17l-.09.06z"/><path d="m33.17 13.24c-.06-.01-.12-.01-.18-.01h.18z"/><path d="m33.17 22.87c2.61-.11 3.48-2.45.92-3.8-.35-.18-.92-.31-.92-.44zm-1-10.16c-3.27-.04-4.14 3.04-.98 4.31.26.1-.02.18.98.27zm0 11.1c-2-.14-2.62-.6-3.64-1.36-.73-.54.01-1.2.55-.8.85.63 2.09 1.03 3.09 1.17v-4.49c-5.21-.59-5.26-6.68 0-6.62v-1.48h1v1.59c0 .01-.02.07.06.08 1.04.25 1.81.78 2.72 1.25.6.31.17 1.27-.39.99-.79-.41-1.54-.85-2.39-.9v-.01h-.18c.06 0 .12 0 .18.01 0 5.99-.35 4.18 1.47 5.15 1.14.6 2.15 1.7 1.86 3.13-.31 1.56-2.33 2.31-3.33 2.35v1.36c0 1-1 1-1 0z"/><path d="m21.94 23.6c-4.31-8.29 2.53-16.71 8.61-17.63 9.85-1.5 16.54 8.18 13.23 16.43-3.75 9.39-17.05 10.41-21.84 1.2zm.89-.46c4.38 8.41 16.56 7.54 20.03-1.11 2.78-6.97-2.22-15.22-10.28-15.22-7.57 0-13.64 8.85-9.75 16.33z"/><path d="m10.36 34.66c-.1.1-.25.1-.35 0s-.1-.26 0-.36l.69-.68-.87-.87-.95.94 1.55 1.54.94-.94-.32-.32zm1.1 1.61.94-.95-.68-.68-.94.95zm-.41-3.01 1.28-1.28-.87-.87-1.28 1.28zm2.31-.25-1.28 1.28.68.68 1.27-1.28zm-1.55-2.25.88.87 1.59-1.6c.1-.09.26-.09.36 0 .09.1.09.26 0 .36l-1.6 1.6.32.31 1.39-1.38c.09-.1.25-.1.35 0s.1.25 0 .35l-1.39 1.39.68.68 1.47-1.47c.1-.1.25-.1.35 0s.1.26 0 .36l-1.47 1.46 1.75 1.75c.1.1.1.26 0 .35-.05.05-.11.08-.17.08-.17 0-1.81-1.71-1.93-1.82l-1.28 1.27.88.88c.15.16.04.43-.18.43-.16 0-.93-.83-1.05-.95l-.95.94.12.12c.16.16.05.43-.17.43-.14 0-.2-.1-.3-.2l-.66.67c-.1.1-.26.1-.36 0-.09-.1-.09-.26 0-.36l.67-.66-.68-.68-1.51 1.5c-.1.1-.25.1-.35 0-.1-.09-.1-.25 0-.35l1.5-1.5-1.54-1.55-.9.91c-.1.09-.26.09-.36 0-.09-.1-.09-.26 0-.36l.91-.9c-.23-.23-.55-.46-.33-.68s.45.1.68.33l.94-.95c-.29-.29.07-.64.36-.35l2.11-2.12c.1-.1.26-.1.36 0 .25.25-.23.58-.49.84zm1.19 1.9-.32-.32-1.28 1.28.32.32z"/><path d="m57.55 50.9-.87-.87-1.26 1.26.87.87zm-.34 2.8c-.16-.02-.81-.72-.92-.83l-1.1 1.1.32.33c.63-.15 1.2-.35 1.7-.6zm-1.27-1.19-.88-.87-1.1 1.1.87.88zm-2.33.59-1.44 1.43c-.03.13-.05.16-.18.18l-.02.03c1.1-.05 2.09-.15 2.96-.32zm-1.2-1.2-1.35 1.35.84.84 1.35-1.35zm-2.87 2.89c.59 0 1.15-.01 1.69-.03l.32-.32-.84-.83-1.05 1.04c-.05.14-.03.1-.12.14zm-.13-2.49-.95.95.95.94.94-.94zm-4.18 1.39-1 .99c.01.03.03.05.03.07.75.01 1.46.02 2.16.03.87 0 1.71.01 2.53.01-.02-.12.03-.17.1-.24l-.94-.94-.97.96c-.1.1-.25.09-.35 0-.1-.1-.1-.26 0-.36l.96-.96c-.1-.11-.97-.94-1.01-1.08l-1.16 1.16 1.01 1.01c.16.16.05.42-.17.42-.07 0-.13-.02-.18-.07zm-3.22.55c.18.17.34.3.18.5.71 0 .72 0 1.46.01l-1.07-1.07zm-.21.5-.14-.14-.14.14zm-.79 1.43.43-.43h-.76l-.06.05zm-.88-2.06c.11.1.52.48.56.62h.12l.5-.49-.66-.66zm-.08.62-.27-.27-.28.27zm-1.03 1 .48.48.42-.42-.06-.06zm-.28-2.34-.45.45.7.7.43-.44c-.1-.09-.61-.59-.68-.71zm-.8.81-.54.53h1.08zm-.64 1.53.47.47.47-.47zm21.65-6.82c.13.12.98.92.98 1.08.1-.1.14-.17.27-.19.08-.29.15-.59.22-.92l-.72-.71zm-.69 1.99c.27.28.84.68.58.94-.1.09-.26.09-.35 0l-.59-.59-1.26 1.26.77.77c.08.08.08.2.02.3 1.1-.6 1.9-1.5 2.45-2.83l-.59.58c-.09.1-.25.1-.35 0-.1-.09-.1-.25 0-.35l.74-.74c-.16 0-.45-.35-.57-.47.06.09.06.22-.02.3zm-22.43 4.89.07-.07h-.15zm.32-1.5-.44.43.88.01zm-2.46.43h.93l-.47-.47zm.7-1.41c-.11.05-.23.09-.35.12l.11.12zm-1.29.27-.29.29.51.51.48-.48c-.13-.13-.23-.19-.19-.37-.17.03-.34.05-.51.05zm-.28 2.14.33.32.33-.32zm-.37-1.5-.21.21c.09.1.15.14.12.28l.58.01zm-1.04 1.62.12-.13h-.25zm1.63-8.02c-2.04 0-3.01 2.23-1.93 3.72 1.55 2.16 4.73.66 4.33-1.76-.23-1.35-1.37-1.96-2.4-1.96zm-3.56 7.98.09-.09h-.18zm-6.05.12.86.86.78-.79-.29-.29-1.12-.01zm-.71 0-.07-.07c-.09.13-.19.28-.29.43zm-13.01-1.26 21.59.05c.06-.11.14-.18.24-.28l-.13-.12c-.23-.24.12-.59.35-.36l.13.13.58-.58c-4.07-.77-3.52-6.68.57-6.68 3.11 0 4.48 3.51 2.52 5.66.12.11.1.27.01.36l-1.06 1.06.67.68c.06-.13.5-.55.61-.65l-.2-.2c-.23-.24.12-.59.35-.35l.2.19 1.45-1.44c.1-.1.26-.1.35 0 .1.09.1.25 0 .35l-1.44 1.45.51.51c.07-.12.48-.5.57-.6l-.25-.26c-.23-.23.13-.58.36-.35l.25.25 1.3-1.29c.09-.1.25-.1.35 0 .25.25-.26.61-.53.88.12.07.62.58.72.68l.55-.55c-.05-.2.09-.34.29-.29l.7-.7c.24-.24.59.12.36.35l-.68.67.66.66.57-.57c-.24-.24-.6-.49-.37-.72.23-.22.48.13.72.37l1.85-1.85c.23-.24.58.12.35.35l-1.85 1.85.97.98.97-.97-.68-.69c-.1-.09-.1-.25 0-.35.09-.1.25-.1.35 0l.68.68 2.38-2.37c.09-.09.25-.09.35 0 .1.1.1.26 0 .36l-.93.92c.15.04.98.91 1.08 1.02l.95-.95c-.27-.27.09-.62.35-.35l.9-.9c.23-.23.59.12.35.35l-.89.9.94.94 1.35-1.35c-.19-.19-.4-.35-.2-.55s.36.01.56.2l.41-.41c.24-.24.59.12.35.35l-.41.41.84.85 1.11-1.1c-.24-.25-.63-.51-.39-.75.23-.23.5.15.74.39l1.36-1.36c.05-.12.02-.1.15-.15l.65-.64c.23-.24.58.12.35.35l-.54.54.87.88.83-.83c.08-.09.21-.08.3-.03l-.43-.43-.35.34c-.1.1-.25.1-.35 0-.23-.23.11-.46.34-.69l-.11-.12c-.24-.24.12-.59.35-.36l.12.12.74-.74-.59-.59c-.23-.23.12-.59.36-.35l.59.58c.16-.17.31-.33.49-.15.19.19.03.33-.14.48l.46.44c.25-1.6.25-2.99.25-2.99h-27.72-28.06l-.01 4.05c-.02 4.58 1.24 5.38 4.74 5.38zm10.84 4.86.41-.41-.14-.14c-.09.18-.18.36-.27.55zm.77-.77.89-.89-.36-.36c-.11.11-.22.27-.38.26-.14.24-.27.49-.4.74zm.35.36.23.23c.16.16.05.43-.17.43-.15 0-.29-.18-.41-.3l-.54.53c3.53-.16 13.77-.14 23.11-.19l.61-.01c-.29-.54-.8-1.34-1.66-2.9l-.12-.11c-.16-.27-.27-.56-.57-.56l-.7.49c0-.06-.02-.12-.07-.17l-.02.23.09-.06c0 .19-.25.36-.44.17l-.15.14c-.04.05-.11.07-.17.07-.22 0-.34-.27-.18-.42l.14-.15-.38-.38-.78.79c-.24.23-.6-.12-.34-.37l-.52-.52-.5.51c.14.14.25.28.09.44s-.3.05-.44-.09c-.31.31-.65-.06-.36-.35l-.82-.83-.42.42.35.35c.23.23-.12.59-.35.35l-.35-.35c-.12.12-.5.55-.66.55-.22 0-.33-.26-.17-.42l.47-.48-.42-.43h-.86l-.68.68c.19.2.41.36.21.57-.2.2-.38-.02-.57-.22-.12.12-.37.42-.52.42-.22 0-.34-.27-.18-.42l.35-.35-.64-.64c-.07.12-.3.34-.4.44.16.15.3.3.12.47-.17.18-.32.03-.47-.13-.14.14-.44.48-.61.48-.07 0-.13-.05-.18-.1-.25-.25.21-.68.43-.96l-.48-.73h-.3l-.43.68.07.32c.23.22-.06.65-.43.27l-.52.53c-.1.09-.26.1-.36 0-.25-.26.26-.61.53-.88l-.45-.44h-.47l-.33.33.35.36c.16.16.05.43-.17.43-.16 0-.42-.32-.54-.43-.26.26-.61.76-.86.51-.26-.25.24-.6.51-.87l-.34-.34h-.75l-.3.29.48.48c.16.16.04.43-.18.43-.16 0-.54-.44-.65-.55l-.8.8c.07.09.07.22-.01.31-.19.19-.34.02-.51-.15.03.04-1-1-1.03-1.03l-.88.87.95.94c.15.16.04.42-.18.42-.15 0-.29-.18-.41-.3zm10.89-57.12c-14.22 0-22.12 20.02-9.04 29.06 14 9.71 32.15-7.28 22.09-22.13-2.98-4.41-7.73-6.93-13.05-6.93zm-15.96 61.25c.6 1.14 5.39.52 21.96.7 6.72.09 7.76.18 8.76-.36.57-.32 1.1-1.11.95-1.71-.17-.68-1.25-1.07-2.96-1.07-24.04.15-27.17-.14-28.5 1.39-.23.27-.39.72-.21 1.05zm-6.22-51.89s3.59-.16 7.11-.26c6.87-14.07 24.34-12.69 30.22-.52 2.1-.01 3.58 0 4.21.03 6.91.37 9.06 2.46 9.57 9.32.63 8.73.71 17.59.24 26.34-.59 10.42-6.27 9.57-18.32 9.49.43.77 1.82 3.27 2.22 4.06 2.59.08 3.4 1.02 3.61 1.82.28 1.11-.53 2.33-1.44 2.83-.82.44-1.53.55-3.59.55-28 0-27.74.12-28.5-1.3-.35-.67-.21-1.55.35-2.18.6-.69 1.34-1.09 3.08-1.32.29-.68.63-1.38.98-2.05 0-.08.02-.13.1-.19.45-.86.92-1.65 1.34-2.28l-11.85-.03c-4.02 0-5.76-1.22-5.74-6.28l.12-32.12c0-5.83 3.49-5.87 6.29-5.91zm6.64.75c-2.95.08-6.58.25-6.62.25-2.85.04-5.31-.04-5.31 4.81l-.1 27.07h55.81c.37-8 .28-16.24-.31-24.34-.47-6.33-2.24-7.95-8.63-8.29-.56-.03-1.85-.05-3.71-.04 4.27 10.81-2.79 21.49-13.27 23.08-12.78 2.01-22.62-10.94-17.86-22.54z"/></g></g></g></svg>