<svg id="Layer_1" enable-background="new 0 0 66 66" height="512" viewBox="0 0 66 66" width="512" xmlns="http://www.w3.org/2000/svg"><g><g><path d="m20.44 23.425c-5.339 7.875-3.498 11.997-2.764 16.469.422 2.572 1.362 5.048 2.695 7.269.027.138.042.112.084.144 11.205 18.333 40.61 8.477 38.917-15.509-1.4-19.873-27.741-24.878-38.932-8.373zm24.963-7.921-.126.126-.224-.224c.116.034.234.062.35.098zm-3.334-.744-.063.063-.085-.086c.049.007.098.015.148.023zm-2.689-.219-.322.322-.328-.328c.077-.001.51.003.65.006zm-6.732 2.797-.586-.586.883-.883c.232-.232-.119-.588-.354-.354l-.883.883-.45-.45c.611-.236 1.236-.435 1.87-.613l.609.609-1.075 1.075c-.088.088-.085.221-.014.319zm-1.888-1.181.594.594-.918.918-.937-.937c.414-.205.834-.397 1.261-.575zm2.92-.978c.348-.088.701-.162 1.055-.232l-.644.644zm3.536-.574-.661.661-.535-.535c.395-.053.794-.094 1.196-.126zm-13.049 5.922c.422-.412.857-.805 1.306-1.177l1.096 1.096-1.242 1.242zm1.695-1.495c.345-.272.697-.532 1.057-.78l.256.256-.918.919zm1.483-1.062c.316-.208.638-.407.964-.597l-.78.78zm-3.538 2.904.402.402c-.129.061-1.443 1.399-1.546 1.502l-.282-.282c.455-.566.927-1.112 1.426-1.622zm-1.744 2.011.246.246-1.383 1.383c.378-.58.556-.872 1.137-1.629zm-2.639 4.226.422.422-1.102 1.102c.191-.488.417-.996.68-1.524zm.241-.466c.215-.408.45-.827.712-1.26.179.223.339.047.509-.123l.616.616-1.302 1.302zm-.195 16.261 1.143 1.143-.488.488c-.24-.534-.463-1.076-.655-1.631zm-.327-1.034c-.105-.367-.198-.738-.28-1.111.103-.087.433-.422.529-.518l.939.939-.939.939zm-.394-1.693c-.005-.024-.089-.436-.137-.714l.425.425zm-.775-4.179.182.182c-.188.229.097.542.341.341l.884.884-.971.971c-.14-.713-.332-1.708-.436-2.378zm-.11-.818c-.003-.022-.006-.043-.008-.065l1.254-1.254.676.676-1.282 1.282zm-.065-.716c-.042-.614-.043-1.246.008-1.905l.949.949zm.497-4.525.621.621-.987.987c.083-.515.203-1.05.366-1.608zm3.177 17.109c.255.255.682.82.928.574.098-.098.098-.256 0-.354l-.798-.798 1.142-1.142c.232-.232-.119-.588-.354-.354l-1.142 1.142-.703-.703c-.067-.131-.136-.26-.2-.392l.62-.62c.286.286.633-.074.354-.354l.979-.979c.232-.232-.119-.588-.354-.354l-.979.979-1.221-1.222.939-.939c.337.337.673-.034.354-.354l.482-.482c.232-.232-.119-.588-.354-.354l-.482.482-.939-.939 1.354-1.354c.098-.098.098-.256 0-.354s-.256-.098-.354 0l-1.354 1.354-.752-.752c.146-.036 2.163-2.092 2.269-2.198.098-.098.098-.256 0-.354s-.256-.098-.354 0l-.82.82-.878-.878 1.585-1.585c.186-.186-.002-.522-.282-.383l-.697-.697.906-.906c.232-.232-.119-.588-.354-.354l-.906.906-1.04-1.04 1.201-1.201c.272.272.648.804.903.549s-.278-.631-.549-.903l1.136-1.136c.232-.232-.119-.588-.354-.354l-1.136 1.136-.81-.81c.005-.015.008-.03.014-.045.257.134 1.511-1.253 1.725-1.467l1.031 1.031c.098.098.256.098.354 0s.098-.256 0-.354l-1.031-1.031 1.302-1.302c.12.12.322.371.475.371.221 0 .334-.269.177-.427l-.336-.329c.039-.189-.088-.316-.277-.277l-.654-.654 1.424-1.424c.12.12 1.057 1.116 1.219 1.116.221 0 .334-.269.177-.427l-1.043-1.043c.103-.103 1.441-1.417 1.502-1.546l.456.456-.873.873c-.232.232.119.588.354.354l.873-.873c.126.126.748.806.909.806.221 0 .334-.269.177-.427l-.733-.733 1.242-1.242c.114.114.513.57.674.57.221 0 .334-.269.177-.427l-.622-.622c-.057-.118.015-.046-.103-.103l-.439-.437.918-.919c.121.121 1.052 1.111 1.214 1.111.221 0 .334-.269.177-.427l-1.037-1.037 1.151-1.151c.098-.098.098-.256 0-.354-.012-.012-.03-.009-.043-.018.012-.006.024-.012.036-.018l1.056 1.056c-.255.255-.693.559-.449.803.098.098.256.098.354 0l.449-.449c.154.154.306.313.486.133.098-.098.098-.256 0-.354l-.133-.133.918-.918.761.761c.098.098.256.098.354 0 .178-.178.032-.321-.126-.479.044.032.091.059.143.059.163 0 1.136-1.033 1.252-1.148l.843.843c.098.098.256.098.354 0s.098-.256 0-.354l-.843-.843 1.04-1.04.717.717-.106.106c-.158.158-.044.427.177.427.13 0 .191-.087.283-.179l.365.365c.098.098.256.098.354 0 .229-.229-.124-.478-.365-.719l1.062-1.062c.024-.001.049-.001.073-.002l.661.661-.469.469c-.158.158-.044.427.177.427.159 0 .531-.427.646-.542l.758.758c.232.232.588-.119.354-.354l-.758-.758.655-.655c.353.018.704.048 1.054.083l.532.532-.267.268c-.158.158-.044.427.177.427.149 0 .327-.224.444-.341l.957.957c.232.232.588-.119.354-.354l-.957-.958.323-.323c.445.077.886.167 1.324.271l-.562.562c-.158.158-.044.427.177.427.161 0 .647-.543.768-.664l.535.535-.348.348c-.158.158-.044.427.177.427.154 0 .406-.303.525-.421l1.011 1.011c.232.232.588-.119.354-.354l-1.011-1.011.298-.298c7.177 2.452 11.865 7.927 12.447 16.183 1.601 22.781-26.072 32.313-36.908 15.18z"/></g><g><path d="m52.389 11.153c-3.98-2.128-8.543-3.253-13.197-3.253-16.881 0-26.602 14.051-27.904 23.38-.43 3.08.599 6.894 1.086 9.851 3.242 19.758 25.588 27.303 40.747 16.133 14.372-10.589 17.545-36.341-.732-46.111zm.139 45.307c-14.424 10.626-36.021 3.676-39.167-15.491-.471-2.884-1.487-6.655-1.083-9.55 2.289-16.406 22.395-28.604 39.639-19.385 17.602 9.41 14.413 34.256.611 44.426z"/></g><g><path d="m44.923 33.172c-1.075-.449-2.439-.557-3.439-.654v-5.284c1 .321 1.79.777 2.607 1.229.286.16.684.009.784-.266 1.122-3.073 1.465-3.075.965-3.537-1.199-1.108-2.356-1.917-4.356-2.384 0-2.272.88-1.773-3.953-2.018-.143-.003-.032.042-.131.137-.099.094.084.225.084.362v1.195c-5 .708-8.14 4.187-8.593 7.352-.665 4.644 3.945 5.823 8.593 6.407v6.871c-2-.246-2.994-.998-4.799-2.932-.178-.189-.587-.212-.791-.052-.406.32-.913.588-1.388.873-1.512.904-1.76.837-1.341 1.565 1.748 3.028 4.32 5.148 8.32 5.811v1.476c0 .276-.243.333.034.333h3.657c.276 0 .309-.057.309-.333 0-2.057-.183-1.454.483-1.652 4.792-1.412 6.667-4.995 6.824-7.876.16-2.976-1.358-5.576-3.869-6.623zm-4.439-.776c-1-.16-2-.428-2-.775v-4.463c0-.086.132-.153.322-.207.031-.008-.056-.018-.024-.025.845-.217 1.702-.036 1.702.011zm-3.64-3.103c.02-.502-.359-1.009.641-1.438v3.01c-1.001-.501-.662-1.052-.641-1.572zm1.64-8.008 2 .134v.597c0-.061-2-.288-2-.198zm.189 14.884c.018.007-.176.014-.159.022 2.432 1.052 1.97 1.207 1.97 5.279 0 .19-.221.359-.407.508-.345.267-.617.525-1.459.662-.01.002.213.002.203.004-.184.028-.336.043-.336.045v-6.669c-.001.051.06.094.188.149zm1.811 11.809v.68h-2v-.631c0 .041.532-.154.912-.154l-.233-.216c.497 0 .917.177 1.402.106.005 0-.081.216-.081.215zm.208-1.026c-.115.019-.23-.176-.346-.161-.387.049-.777-.132-1.172-.132-.401 0-.817.181-1.207.133-.081-.01-.162.09-.242.078-3.088-.454-5.979-2.27-7.709-5.001.548-.375 1.218-.67 2.015-1.225 2.072 2.105 3.901 2.817 5.246 2.988.064.036.133.066.21.071 3.79.237 6.026-3.309 4.152-6.228-.376-1.456-2.824-1.847-3.983-2.817-.005 0-.01.085-.01.085-2.268-.599-8.66-.674-7.997-5.306.734-5.123 9.338-9.445 15.362-4.264-.278.731-.565 1.41-.846 2.136-1.168-.638-2.368-1.222-3.751-1.426-.097-.014-.197-.109-.292-.118-.215-.022-.433-.108-.655-.108-.084 0-.149.092-.23.098-3.678.27-5.401 4.342-2.11 6.485.036.048.276.103.328.136 1.314.837 2.03.974 4.03 1.091v-.002s-.172.099-.154.099l-.204.093c1.177 0 2.425.031 3.508.483 2.115.882 3.393 3.075 3.254 5.624-.183 3.35-2.856 6.465-7.197 7.188z"/></g><g><path d="m56.658 9.464 3.725.148c.015.114.029.23.044.344l.38 2.91c.033.252.248.436.495.436.021 0 .043-.001.065-.004.274-.036.467-.287.431-.56l-.38-2.91c-.008-.058-.015-.174-.022-.232l3.069.064h.021c.267 0 .488-.153.499-.422.011-.276-.204-.48-.479-.49l-3.236-.114c-.186-1.516-.335-3.05-.271-4.567.012-.276-.203-.506-.479-.517-.273-.012-.509.204-.521.48-.064 1.537.075 3.072.257 4.577l-3.557-.141c-.276-.021-.509.203-.52.48-.012.274.203.507.479.518z"/></g><g><path d="m9.803 23.094-3.04.103-.521-3.803c-.038-.273-.292-.469-.563-.427-.273.037-.465.29-.427.563l.508 3.702-4.292.146c-.276.009-.492.381-.482.657.009.27.231.623.499.623h.018l4.391-.29c.111.847.194 1.69-.064 2.495-.084.263.061.509.324.593.051.017.102.006.152.006.212 0 .408-.144.476-.356.311-.973.233-1.982.114-2.908l2.942-.102c.276-.009.492-.241.482-.518-.009-.276-.235-.512-.517-.484z"/></g><g><path d="m63.018 57.479-2.607.22-.276-2.625c-.029-.275-.278-.479-.549-.445-.275.029-.474.275-.445.549l.274 2.604-2.412.204c-.275.023-.479.265-.456.54.022.261.24.458.498.458.014 0 .028 0 .042-.002l2.433-.206.268 2.546c.027.257.244.448.497.448.018 0 .035-.001.053-.003.275-.029.474-.275.445-.549l-.266-2.526 2.586-.219c.275-.023.479-.265.456-.54-.024-.273-.263-.483-.541-.454z"/></g></g></svg>