<svg id="Layer_1" enable-background="new 0 0 66 66" height="512" viewBox="0 0 66 66" width="512" xmlns="http://www.w3.org/2000/svg"><g><path d="m60.057 42.073c-.16-.008-.324-.012-.486-.018.431-1.726-.649-3.507-2.02-4.388-2.828-1.816-16.458-2.123-19.702-2.144l-.356-5.366c7.998.014 13.758-.599 17.179-3.195 2.52-1.913 3.786-4.983 3.15-7.639-.733-3.055-4.176-5.646-7.919-4.298.451-1.41.242-3.041-.632-4.343-1.62-2.409-5.402-3.608-8.997-1.387-.423-2.267-2.11-4.063-4.151-5.012-5.979-2.779-13.065 1.869-12.485 8.784-5.369.254-8.138 6.016-5.915 10.933 1.585 3.505 5.518 6.265 10.892 6.265 1.033 0 2.109-.098 3.227-.292 1.544.107 3.096.155 4.649.177l.357 5.375c-4.753.009-20.095.784-23.081 3.432-.772.683-1.26 1.846-1.022 2.888l-4.506-.09c-2.923-.057-4.877.798-5.209 3.691-.118 1.039-.03 2.132.054 3.189.037.455.073.906.091 1.344l.209 4.935c.035.802.117 1.541.7 2.093-.962.815-1.85 1.715-2.606 2.725-.882 1.18-.545 2.336 1.144 2.336l20.147-.276c1.903-.027 2.375-1.454.908-2.618l-2.061-1.636c.872-.729 1.012-1.932 1.021-3.137l.067-8.408c.024-3.059-1.018-3.967-3.792-4.024l-5.113-.102c-.326-.703.046-1.644.63-2.161 2.002-1.769 13.492-3.168 22.486-3.181l.392 5.908-7.226-.053c-2.459-.036-3.536.812-3.577 3.668l-.165 11.446c-.018 1.389.641 1.865 2.097 1.901 1.598.042 3.206.064 4.807.079l.085 1.99-.613-.005s-.003 0-.004 0c-.274 0-.498.221-.5.496s.22.502.496.504l8.969.074c.005-.605.02-.386-.064-1.001l-1.011-.008-.068-2c4.296.03 6.064.561 6.073-2.583l.026-12.187c.004-1.721-.673-2.259-2.162-2.27l-6.159-.045-.392-5.916c2.86.019 16.514.328 19.095 1.985 1.142.733 2.004 2.24 1.533 3.53-4.894.041-6.055 2.214-6.232 6.051-.363 8.042-.14 2.861-.251 8.122-.092 4.225 1.55 5.402 6.024 5.634 4.561.234 6.541-.8 6.657-5.314l.253-9.995c.081-3.335-1.345-4.297-4.941-4.463zm-23.29-12.922.315-.315.321.321c-.212-.001-.424-.003-.636-.006zm5.416-.501-.701-.701 1.626-1.626c.004.005.002.011.007.016l1.203 1.203-1.077 1.077c-.097.097-.096.252-.001.35-.393.026-.784.064-1.177.085.043-.011.088-.017.121-.05.096-.098.096-.256-.001-.354zm1.442.292 1.046-1.046.702.702c.097.097.255.098.354 0 .098-.098.098-.256 0-.354l-.702-.702 1.56-1.56 1.152 1.152-.545.545c-.098.098-.098.256 0 .354.097.097.255.098.354 0l.545-.545.613.613c.097.097.255.098.354 0 .098-.098.098-.256 0-.354l-.613-.613 1.089-1.089 1.645 1.645c-2.471.887-5.214 1.083-7.554 1.252zm4.42-4.42c.011.019.008.043.025.06l1.109 1.109-1.089 1.089-1.152-1.152zm-21.154 3.781.936.936c-.576-.03-1.134-.098-1.677-.196zm1.351.949c.058-.081.058-.178.009-.263.012-.008.028-.005.039-.016l1.09-1.09c.006.054.021.108.062.149l.829.829c-.022.083-.017.171.048.237.038.038.089.049.139.057-.762.084-1.501.114-2.216.097zm3.486-.274c-.215.038-.426.065-.638.095-.001-.062-.024-.124-.071-.172l-.075-.075 1.92-1.919c.098-.098.098-.256 0-.354-.098-.097-.256-.099-.354 0l-1.921 1.92-.795-.795c-.041-.042-.095-.056-.149-.062l.748-.748c.098-.098.098-.256 0-.354s-.256-.098-.354 0l-2.104 2.104c-.004.004-.003.011-.007.016l-.685-.685.625-.625c.098-.098.098-.256 0-.354s-.256-.098-.354 0l-1.566 1.566-.482-.482c-.098-.098-.256-.098-.354 0s-.098.256 0 .354l.536.536c-3.402-.762-5.898-2.882-7.016-5.356-2.583-5.707 2.412-10.95 7-9.248 1.055.391 1.984 1.233 2.549 2.312.129.244.432.337.676.211.244-.129.339-.431.211-.676-.679-1.295-1.805-2.311-3.088-2.785-.433-.16-.885-.245-1.343-.297-.619-6.147 5.693-10.407 11.063-7.914 1.904.886 3.474 2.609 3.662 4.789-.097.163-.092.369.019.533-.019.934-.291 1.84-.816 2.552-.164.223-.116.536.105.699.224.165.536.117.699-.105.663-.899 1.004-2.044 1.011-3.215 3.054-2.163 6.533-1.469 8.059.799.866 1.288.93 3.047.154 4.276-.041.065-.061.135-.07.206-.934.619-1.716 1.464-2.183 2.485-.114.251-.004.548.247.663.253.113.549.004.663-.247 1.568-3.435 6.628-4.226 8.967-.54l-.748.749c-.098.098-.098.256 0 .354.096.096.255.099.354 0l.641-.642c.161.323.3.657.384 1.01.03.126.032.25.052.375-.051.008-.102.019-.141.058l-.424.424-1.077-1.077c-.098-.098-.256-.098-.354 0s-.098.256 0 .354l1.077 1.077-.964.964-.2-.2c-.098-.098-.256-.098-.354 0s-.098.256 0 .354l.2.2-.576.576c-.098.098-.098.256 0 .354.097.097.255.098.354 0l.576-.576.742.742c.097.097.255.098.354 0 .098-.098.098-.256 0-.354l-.742-.742 1.605-1.605c.122 2.297-1.289 4.455-2.912 5.686-.742.564-1.564.993-2.427 1.34-.012-.036-.014-.075-.043-.104l-1.711-1.711.995-.995 1.465 1.466-.764.764c-.098.098-.098.256 0 .354.097.097.255.098.354 0l2.453-2.453c.09.035.158.065.261-.038.072-.072.073-.172.038-.261l.795-.795c.098-.098.098-.256 0-.354s-.256-.098-.354 0l-.768.768-1.465-1.466.197-.197c.098-.098.098-.256 0-.354s-.256-.098-.354 0l-1.859 1.859-.387-.387c-.097-.097-.255-.099-.354 0-.098.098-.098.256 0 .354l.387.388-.995.995-1.109-1.109c-.017-.017-.041-.014-.06-.025l1.012-1.012c.098-.098.098-.256 0-.354s-.256-.098-.354 0l-2.437 2.437-.419-.419c-.098-.098-.256-.098-.354 0s-.098.256 0 .354l.419.419-1.56 1.56-1.203-1.203c-.004-.004-.011-.003-.016-.007l.962-.962c.098-.098.098-.256 0-.354s-.256-.098-.354 0l-2.933 2.933-1.047-1.046c-.099-.099-.257-.097-.354 0-.098.098-.098.256 0 .354l1.047 1.046-.67.67c-.098.098-.098.256 0 .354.097.097.255.098.354 0l.67-.67.701.701c.038.038.088.049.137.057-1.295.067-2.592.096-3.889.102-.011-.022-.009-.048-.028-.066l-.614-.614 2.905-2.905c.098-.098.098-.256 0-.354s-.256-.098-.354 0l-2.905 2.905-.764-.764c-.098-.097-.256-.099-.354 0-.098.098-.098.256 0 .354l.764.764-.325.325c-.094.094-.092.242-.005.34-.576-.009-1.151-.017-1.726-.037.024-.084.02-.174-.047-.24l-.451-.451 1.962-1.962c.098-.098.098-.256 0-.354s-.256-.098-.354 0l-1.962 1.962-.576-.576c-.098-.098-.256-.098-.354 0s-.098.256 0 .354l.576.576-.576.576c-.007.007-.005.019-.011.027-.343-.02-.688-.027-1.031-.051-.033-.009-.074-.005-.113.003zm20.815-5.944 1.465 1.466-1.309 1.309-1.465-1.466zm-18.411 6.05c-.198-.008-.395-.02-.592-.029l.281-.281zm-18.686 13.816 1.42.029-.696.696zm-.768-.016-.992.992-1.033-1.032zm-3.603.74-.828-.828 1.624.033zm-2.858-.869 1.054.021-1.206 1.206-.952-.952.034-.034c.065-.065.07-.151.05-.234.327-.013.664-.016 1.02-.007zm-1.96.126.149.149-.994.994-.478-.478c.31-.301.559-.501 1.323-.665zm-2.053 2.705c.097.097.256.098.354 0l.855-.855.488.488-1.394 1.394-.455-.455c-.019-.019-.046-.017-.068-.028.008-.193.017-.385.038-.57.072-.634.287-1.186.591-1.628l.447.447-.855.855c-.098.096-.098.254-.001.352zm-.127 1.811c.097.097.255.098.354 0l.076-.076 1.12 1.12-1.183 1.183-.181-.181c-.035-.035-.082-.043-.128-.053-.018-.277-.034-.55-.057-.832-.047-.587-.09-1.183-.101-1.766l.176.176-.076.076c-.097.097-.097.255 0 .353zm.325 7.818.109.11-.087.087c-.007-.065-.017-.129-.022-.197zm.463-.244-.501-.501-.063-1.486c.047-.001.09-.026.13-.054l1.159 1.159c.031.031.073.035.112.046zm-.434-2.749c-.046-.046-.105-.065-.165-.068l-.07-1.663c.055-.006.11-.021.151-.063l.097-.097.951.952-.952.952zm18.321 8.57-20.148.276c-.658.001-.811-.09-.328-.736.788-1.054 1.714-1.996 2.737-2.82.436.12.877.14 1.199.153l12.84.469c.533.019 1.05.026 1.574-.102l2.427 1.926c.7.555.636.822-.301.834zm-1.117-6.398c-.02 2.542-.765 2.806-2.546 2.739l-12.84-.469c-.676-.024-1.422-.068-1.69-.68l1.663-1.663c.098-.098.098-.256 0-.354-.057-.057-.132-.07-.207-.061-.001-.062-.024-.125-.072-.173l-1.146-1.146.952-.952.043.043c.099.099.257.096.354 0 .098-.098.098-.256 0-.354l-.043-.043.419-.419c.098-.098.098-.256 0-.354s-.256-.098-.354 0l-.419.419-.951-.952 1.183-1.183.023.023c.097.097.255.098.354 0 .098-.098.098-.256 0-.354l-.024-.021.579-.579c.098-.098.098-.256 0-.354s-.256-.098-.354 0l-.579.579-1.12-1.12 1.394-1.394.362.362c.096.096.255.099.354 0 .098-.098.098-.256 0-.354l-.362-.362.229-.229c.098-.098.098-.256 0-.354s-.256-.098-.354 0l-.229.229-.488-.488.994-.994.951.951-.349.349c-.098.098-.098.256 0 .354.099.099.257.096.354 0l.349-.349.287.288c.099.099.257.096.354 0 .098-.098.098-.256 0-.354l-.287-.288 1.331-1.331.973.973-.623.623c-.098.098-.098.256 0 .354.096.096.255.099.354 0l.688-.689c.057-.005.114-.022.157-.065s.06-.101.065-.157l.891-.891 1.171 1.17c.049.049.113.073.177.073.103 0 .141-.039.192-.109.085.023.142.047.237-.048l1.024-1.023.838.839c.008.051.02.103.059.142s.091.051.142.059l.255.255c.099.099.257.096.354 0 .098-.098.098-.256 0-.354l-.178-.178.905-.905c.035-.035.042-.081.052-.126l.883.883-.013.013c-.098.098-.098.256 0 .354.097.097.255.098.354 0l.041-.041c.089.032.153.061.255-.041.071-.071.072-.167.041-.255l.711-.711c.033-.033.038-.076.049-.118.029.003.059.007.088.011l.942.942c.097.097.255.098.354 0 .083-.083.08-.203.023-.299.446.562.501 1.433.494 2.301zm-.505-10.82-.093-.093c.099.085.085.085.093.093zm-1.918-.592-.495.495-.522-.522.695.014c.109.002.214.009.322.013zm18.124.45-.013.013-.013-.013zm-2.847-.021-.276.276-.28-.28zm-4.062 2.105-1.071-1.071.74-.74c.09-.09.087-.228.011-.326l.347.003.901.901-.914.914c-.087.088-.084.221-.014.319zm-1.424-1.425-.505-.505c.343-.151.763-.196 1.213-.204zm2.163-.704 1.077.008-.534.535zm-3.787 11.132.001-.075.037.037zm.392.316.037.037c-.024-.001-.049-.001-.073-.002zm-.381-1.087.009-.641.634-.634.612.612c.033.033.077.039.119.049l-.994.994zm.02-1.359.008-.532.262.262zm.154-1.093c-.038-.038-.088-.048-.137-.057l.007-.469.458-.458.637.637c.102.102.199.083.3.022l-.795.795zm-.12-1.243.003-.187.092.092zm.012-.884.013-.89c.011.019.008.042.024.058.097.097.255.098.354 0l.469-.469.656.656-1.08 1.08zm.037-1.186c-.014.014-.011.034-.021.05l.014-.994.475.475zm12.103 13.532-5.269-.043-.085-1.991c3.573.027.652.004 5.286.036zm4.565-2.966c-.039 0-.111-.017-.116-.001-.006 0-10.11-.07-10.116-.07-.142-.059-.252-.047-.376-.003-1.698-.015-3.402-.036-5.095-.081-1.136-.027-1.13-.282-1.122-.888l.024-1.643c2.381.076 4.772.118 7.165.118 3.701 0 7.406-.095 11.08-.277l-.003 1.233c-.005 1.373-.293 1.612-1.441 1.612zm1.467-13.797-.022 9.953c-5.77.285-11.614.34-17.401.177.078-.098.081-.238-.01-.329l-.071-.071 1.542-1.542c.098-.098.098-.256 0-.354s-.256-.098-.354 0l-.264.264c-.011-.042-.016-.086-.049-.119l-.612-.612 1.216-1.216c.098-.098.098-.256 0-.354s-.256-.098-.354 0l-.345.345c.058-.096.061-.217-.022-.3l-.637-.637 1.217-1.217c.098-.098.098-.256 0-.354-.001-.001-.003-.001-.004-.002-.008-.05-.019-.102-.058-.141l-.73-.73 1.257-1.257c.098-.098.098-.256 0-.354s-.256-.098-.354 0l-1.257 1.257-.818-.818.004-.281c.012-.802.091-1.667.589-2.175l.558.558-.995.995c-.098.098-.098.256 0 .354.097.097.255.098.354 0l.995-.995 1.187 1.187c.097.097.255.098.354 0 .138-.138.071-.283-.067-.42.121.088.234.07.318-.015l.914-.914.601.601c.097.097.255.098.354 0 .098-.098.098-.256 0-.354l-.601-.601.883-.883.276.002.639.639-.51.51c-.098.098-.098.256 0 .354.097.097.255.098.354 0l.51-.51.778.778c.097.097.255.098.354 0 .098-.098.098-.256 0-.354l-.778-.778.625-.625 1.407.01.372.372-.671.671c-.098.098-.098.256 0 .354.097.097.255.098.354 0l.671-.671.997.997c.097.097.255.098.354 0 .098-.098.098-.256 0-.354l-.997-.997.361-.361 1.083.008.293.293-.651.651c-.098.098-.098.256 0 .354.097.097.255.098.354 0l.651-.651.841.841c.097.097.255.098.354 0 .098-.098.098-.256 0-.354l-.841-.841.112-.112c.048-.048.07-.11.071-.172l1.379.01.093.093-.631.631c-.098.098-.098.256 0 .354.097.097.255.098.354 0l.631-.631.773.773c.097.097.255.098.354 0 .098-.098.098-.256 0-.354l-.773-.773.086-.086.783.006.282.282-.187.187c-.098.098-.098.256 0 .354.096.096.255.099.354 0l.187-.187.308.308c.097.097.255.098.354 0 .098-.098.098-.256 0-.354l-.308-.308.265-.266c.768.02 1.017.125 1.015 1.261zm18.366 1.759-.241 9.507-10.691.004c0-.021 0-.043.001-.064l.17-.17c.084.018.137.036.226-.053.062-.062.07-.146.053-.226l1.324-1.325c.098-.098.098-.256 0-.354-.239-.239-.524.171-.772.419l-.616-.616.555-.555.234.234c.097.097.255.098.354 0 .098-.098.098-.256 0-.354l-.234-.234.263-.263c.098-.098.098-.256 0-.354s-.256-.098-.354 0l-.263.263-.515-.515 1.101-1.101.29.29c.097.097.255.098.354 0 .098-.098.098-.256 0-.354l-.319-.319c.031-.088.03-.185-.041-.255s-.167-.072-.255-.041l-.544-.544.837-.837c.098-.098.098-.256 0-.354s-.256-.098-.354 0l-.837.84-.445-.445c.012-.199.025-.396.035-.599.002-.048.005-.094.007-.142.011.02.008.044.025.061.097.097.255.098.354 0l.469-.469 1.019 1.019c.097.097.255.098.354 0 .098-.098.098-.256 0-.354l-1.019-1.019.745-.745.337-.01.574.573-.449.449c-.098.098-.098.256 0 .354.097.097.255.098.354 0l.449-.449.47.47c.096.096.255.099.354 0 .098-.098.098-.256 0-.354l-.47-.47.63-.63.482-.014.18.18-.51.51c-.098.098-.098.256 0 .354.097.097.255.098.354 0l.51-.51.775.776c.099.099.257.096.354 0 .077-.077.076-.186.031-.279.022-.011.048-.009.067-.028l.49-.49.654.654c.097.097.255.098.354 0 .098-.098.098-.256 0-.354l-.031-.031c.054-.006.108-.021.15-.062l.691-.692.353.353-.065.065c-.098.098-.098.256 0 .354.097.097.255.098.354 0l.065-.065.289.29c.099.099.257.096.354 0 .098-.098.098-.256 0-.354l-.289-.29.492-.492c.017-.017.014-.04.025-.06l.359-.011c-.006.097-.004.188-.007.287zm-3.04.411-.357-.357.246-.246.645-.019-.472.472c-.042.042-.056.096-.062.15zm-1.275-.567.211.211-.49.49c-.01.01-.007.025-.015.036l-.504-.505.214-.214zm-6.483 8.763-.12-.12c.003-.288.008-.576.011-.865 0-.046.002-.094.002-.141l.005-.005.616.616zm-.081-2.897c.004-.004.011-.002.015-.006l.005-.005.515.515-.55.55c.004-.351.008-.701.015-1.054zm.016-.722c.012-.399.041-.794.061-1.192.001 0 .002.002.004.002.064 0 .128-.024.177-.073l.348-.348.515.515-1.101 1.101zm.093-1.822c.006-.09.007-.182.014-.272l.129.129zm.177-2.855.41.41-.469.469c-.008.008-.005.021-.012.029.016-.309.038-.612.071-.908zm.416-.292.718-.021-.37.37zm2.47-.074.496-.015-.255.255zm6.314-.189.344-.01-.177.177zm-3.892-3.231c.437 0 .875.016 1.301.035 2.108.099 3.684.417 3.94 2.154l-10.281.308c.728-2.095 2.821-2.497 5.04-2.497zm-.573 17.812c-3.418-.177-5.021-.811-5.079-3.826l10.666-.004c-.165 3.473-1.887 4.017-5.587 3.83z"/><path d="m56.609 44.952h.007l2.249-.031c.276-.004.497-.231.493-.507-.004-.274-.227-.493-.5-.493-.002 0-.005 0-.007 0l-2.249.031c-.275.004-.497.23-.493.507.004.273.226.493.5.493z"/><path d="m59.903 44.896h.004l1.044-.009c.276-.002.498-.229.496-.504s-.226-.496-.5-.496c-.001 0-.003 0-.004 0l-1.044.009c-.276.002-.498.229-.496.504s.225.496.5.496z"/><path d="m59.012 57.472c-.665.051-1.437.453-1.623 1.122-.244.867.165 1.68.975 1.931.697.217 1.739-.001 2.204-.633.365-.496.354-1.231-.028-1.749-.34-.458-.927-.712-1.528-.671zm.751 1.827c-.187.254-.79.368-1.103.271-.444-.138-.335-.61-.309-.705.049-.175.413-.37.735-.395.258-.026.517.09.648.268.124.164.135.416.029.561z"/><path d="m36.664 56.065c-.001 0-.001 0 0 0-.437.007-.823.201-1.048.533-.193.284-.229.63-.097.948.273.653 1.123.849 1.73.374.351-.273.513-.704.415-1.096-.107-.428-.528-.749-1-.759zm-.03 1.068c-.046.036-.103.058-.195.035.014-.034.11-.101.198-.103z"/><path d="m17.896 59.222-9.979-.002c-.138 0-.25.112-.25.25s.112.25.25.25l9.979.002c.138 0 .25-.112.25-.25s-.113-.25-.25-.25z"/><path d="m15.997 51.578.732-.732c.098-.098.098-.256 0-.354s-.256-.098-.354 0l-.732.732-.657-.657 1.28-1.28c.098-.098.098-.256 0-.354-.097-.097-.255-.099-.354 0l-1.28 1.28-.56-.56c-.098-.098-.256-.098-.354 0s-.098.256 0 .354l.56.56-.801.8c-.079-.016-.161-.007-.223.054s-.07.143-.054.222l-.745.745c-.098.098-.098.256 0 .354.099.099.257.096.354 0l.707-.707.657.657-.623.623c-.098.098-.098.256 0 .354.097.097.255.098.354 0l.623-.623.709.709c.097.097.255.098.354 0 .098-.098.098-.256 0-.354l-.709-.709.762-.762 1.019 1.019c.097.097.255.098.354 0 .098-.098.098-.256 0-.354zm-1.469.762-.657-.657.762-.762.657.657z"/><path d="m41.008 49.606-1.07 1.07-1.036-1.036 1.292-1.292c.098-.098.098-.256 0-.354s-.256-.098-.354 0l-1.292 1.292-.519-.519c-.098-.098-.256-.098-.354 0s-.098.256 0 .354l.519.519-1.823 1.823c-.098.098-.098.256 0 .354.097.097.255.098.354 0l1.823-1.823 1.036 1.036-.868.868-.729-.729c-.098-.098-.256-.098-.354 0s-.098.256 0 .354l.729.729-.223.223c-.098.098-.098.256 0 .354.097.097.255.098.354 0l.223-.223.478.478c.097.097.255.098.354 0 .098-.098.098-.256 0-.354l-.478-.478.868-.868.235.235c.097.097.255.098.354 0 .098-.098.098-.256 0-.354l-.235-.235 1.07-1.07c.098-.098.098-.256 0-.354s-.256-.097-.354 0z"/><path d="m60.712 53.135.036-.036c.098-.098.098-.256 0-.354-.097-.097-.255-.099-.354 0l-.036.036-.489-.489 1.179-1.179c.098-.098.098-.256 0-.354s-.256-.098-.354 0l-1.179 1.179-.224-.224c-.098-.098-.256-.098-.354 0s-.098.256 0 .354l.224.224-.573.573-.097-.097c-.097-.097-.255-.099-.354 0-.098.098-.098.256 0 .354l.097.097-.771.771c-.098.098-.098.256 0 .354.097.097.255.098.354 0l.771-.771 1.205 1.205c.099.099.257.096.354 0 .098-.098.098-.256 0-.354l-.368-.369c.005-.004.013-.002.018-.007l.561-.56.525.525c.097.097.255.098.354 0 .098-.098.098-.256 0-.354zm-1.268.56c-.005.005-.003.012-.007.018l-.493-.494.573-.573.489.489z"/><path d="m33.881 12.698c.098-.098.098-.256 0-.354l-.874-.874 1.305-1.305.713.713c.097.097.255.098.354 0 .098-.098.098-.256 0-.354l-.713-.713.225-.225c.098-.098.098-.256 0-.354s-.256-.098-.354 0l-.225.228-.903-.903 1.298-1.298c.098-.098.098-.256 0-.354s-.256-.098-.354 0l-1.298 1.298-.742-.743.255-.255c.098-.098.098-.256 0-.354-.097-.097-.255-.099-.354 0l-.255.255-.305-.305c-.098-.098-.256-.098-.354 0s-.098.256 0 .354l.305.305-1.305 1.305-.358-.358c-.098-.098-.256-.098-.354 0s-.098.256 0 .354l.358.358-.571.571c-.098.098-.098.256 0 .354.097.097.255.098.354 0l.572-.572.743.743-1.241 1.241c-.098.098-.098.256 0 .354.097.097.255.098.354 0l1.241-1.241.903.903-.518.518c-.098.098-.098.256 0 .354.097.097.255.098.354 0l.518-.518.874.874c.096.095.254.097.352-.002zm-3.227-3.58 1.305-1.305.743.743-1.305 1.305zm1.097 1.096 1.305-1.305.903.903-1.305 1.305z"/><path d="m24.481 19.13-.276.276-.796-.796.896-.896c.098-.098.098-.256 0-.354s-.256-.098-.354 0l-.896.896-.759-.759c-.098-.098-.256-.098-.354 0s-.098.256 0 .354l.759.759-.529.529-.947-.947c-.098-.098-.256-.098-.354 0s-.098.256 0 .354l.947.947-.839.839c-.098.098-.098.256 0 .354.097.097.255.098.354 0l.839-.839.796.796-.545.545c-.098.098-.098.256 0 .354.097.097.255.098.354 0l.545-.545.287.287c.097.097.255.098.354 0 .098-.098.098-.256 0-.354l-.287-.287.535-.535c.119.097.247.076.331-.009.092-.092.089-.233.009-.331l.283-.283c.098-.098.098-.256 0-.354s-.256-.099-.353-.001zm-1.955.363.529-.529.796.796-.529.529z"/><path d="m41.815 14.161 1.749-1.749.876.876-1.428 1.428c-.098.098-.098.256 0 .354.097.097.255.098.354 0l1.428-1.428.444.444c.097.097.255.098.354 0 .098-.098.098-.256 0-.354l-.444-.444.476-.476.362.362c.097.097.255.098.354 0 .098-.098.098-.256 0-.354l-.4-.4c.016-.08.008-.162-.054-.224s-.144-.07-.224-.054l-.914-.914.428-.428c.098-.098.098-.256 0-.354s-.256-.098-.354 0l-.428.428-.17-.17c-.098-.098-.256-.098-.354 0s-.098.256 0 .354l.17.17-.476.476-1-1c-.098-.098-.256-.098-.354 0s-.098.256 0 .354l1 1-1.749 1.749c-.098.098-.098.256 0 .354.097.097.255.098.354 0zm2.577-2.577.876.876-.476.476-.876-.876z"/><path d="m48.928 20.472.732-.732 1.212 1.212c.097.097.255.098.354 0 .098-.098.098-.256 0-.354l-1.212-1.212.823-.823 1.08 1.08c.097.097.255.098.354 0 .098-.098.098-.256 0-.354l-1.08-1.08.281-.281c.098-.098.098-.256 0-.354s-.256-.098-.354 0l-.281.281-.305-.305c-.098-.098-.256-.098-.354 0s-.098.256 0 .354l.305.305-.823.823-.198-.198c-.098-.098-.256-.098-.354 0s-.098.256 0 .354l.198.198-.732.732c-.098.098-.098.256 0 .354.097.097.256.098.354 0z"/></g></svg>