<svg id="Layer_1" enable-background="new 0 0 66 66" height="512" viewBox="0 0 66 66" width="512" xmlns="http://www.w3.org/2000/svg"><g><path d="m27.452 31.659c-5.549-2.148-11.564-.941-16.554 2.081-10.565 6.402-12.624 18.292-6.436 25.389 8.133 9.315 28.912 5.563 31.636-11.248.51-3.182.143-6.375-1.016-9.045 1.512-1.405 2.975-2.883 4.357-4.404 4.387 1.458 9.738 1.367 14.386-.774 10.505-4.884 14.133-18.089 8.627-25.848-8.415-11.954-29.424-4.362-32.439 9.935-.755 3.566-.175 7.355 1.568 10.479-2.429 2.118-3.129 2.632-4.129 3.435zm7.658 16.063c-2.569 15.859-22.279 19.475-29.895 10.75-5.758-6.605-3.861-17.779 6.2-23.876 3.264-1.978 6.844-3.035 10.208-3.035 1.71 0 3.396.296 4.948.832-1.55 1.343-2.923 2.855-3.847 4.694-3.039-.719-6.25.106-8.938 1.723-6.573 3.984-7.865 11.475-4.003 15.895 3.583 4.091 12.661 4.826 17.547-1.769l.431.431c.097.097.255.098.354 0 .098-.098.098-.256 0-.354l-.471-.471.821-.821.188.188c.097.097.255.098.354 0 .098-.098.098-.256 0-.354l-.188-.188.75-.75c.098-.098.098-.256 0-.354-.097-.097-.255-.099-.354 0l-.715.715c.135-.278.26-.558.373-.846.036-.012.075-.014.104-.043l.467-.467.226.226c.097.097.255.098.354 0 .098-.098.098-.256 0-.354l-.226-.226 1.199-1.199c.011.002.02.013.032.013.064 0 .128-.024.177-.073.059-.059.07-.138.058-.214.086-.098.088-.246-.006-.339-.077-.078-.188-.076-.282-.03l-.925-.926 1.421-1.421c.098-.098.098-.256 0-.354-.097-.097-.255-.098-.354 0l-.389.389c-.012-.037-.015-.076-.044-.106l-.566-.566c.052-.007.105-.02.146-.06l.886-.886.747.746c.096.096.255.099.354 0 .098-.098.098-.256 0-.354l-.747-.746.794-.794c.062-.062.07-.145.053-.225l.376.376-.019.019c-.098.098-.098.256 0 .354.097.097.255.098.354 0l.034-.034c.103.064.203.079.303-.021.084-.084.081-.207.021-.303l.992-.992c.054-.007.107-.021.148-.062.098-.098.098-.256 0-.354l-.342-.342.387-.387c.729 2.245.913 4.797.504 7.345zm-13.385-8.061c-1.036 3.711.453 5.648 1.966 6.179 1.689.619 3.449-.386 4.878-1.475.172 1.023.16 1.965.031 2.914-.034.06-.04.12-.02.184-.002.015-.005.053-.008.075v.001c-1.508 9.485-13.366 11.833-18.034 6.507-3.413-3.906-2.327-10.686 3.767-14.38 2.356-1.417 5.254-2.2 7.987-1.644-.143.336-.405 1.062-.567 1.639zm11.357 2.487-.798-.798c.092-.079.18-.163.272-.242.231-.2.46-.404.689-.608l.742.742zm-3.768 6.637c.229-.88.269-1.128.336-1.884l.047-.047.906.906-1.157 1.156zm.375-2.647c.006-.307.027-.749-.061-1.48l.704.704c.029.029.069.032.105.044l-.741.74zm.163-1.962-.37-.37c-.009-.044-.013-.09-.023-.133.346-.27.686-.56 1.029-.838l.31.31-.886.886c-.04.039-.053.092-.06.145zm1.026-1.659c.343-.281.689-.55 1.029-.837l.264.264c-.08-.017-.163-.009-.225.053l-.794.794zm2.742-2.348c.229-.205.464-.401.691-.61.039.098.07.2.107.3l-.554.554zm11.921-13.79c0-.001 0-.002.001-.003.905-2.901-1.136-5.089-3.993-4.648-1.256.177-2.473.866-3.589 1.576-.688-1.644-.818-3.488-.481-5.049 1.145-5.412 7.145-9.457 12.412-9.083 9.842.791 9.735 13.951 1.098 17.97-1.488.688-3.152 1.054-4.831 1.001-.463-.01-.891-.045-1.305-.093-.042-.005-.081-.013-.122-.018.02-.031.037-.067.057-.098.28-.447.588-1.039.753-1.555zm5.024 2.357v-.352c.284-.105.57-.208.844-.334.115-.053.219-.124.332-.181v.867zm-6.896 1.409h-.533c.177-.219.354-.44.533-.666zm-2.855 2.769v.559c0 .138.112.25.25.25s.25-.112.25-.25v-1.135c.034-.04.069-.081.103-.121.378-.44.396-.461.881-1.046v.726h-.207c-.138 0-.25.112-.25.25s.112.25.25.25h.207v1.24c0 .034.024.057.036.087h-1.499c-.044 0-.078.027-.114.047-.18-.048-.365-.089-.542-.142.01-.011.55-.619.635-.715zm-9.823-14.962c2.838-13.46 22.748-20.786 30.644-9.564.001 0 .001.001.001.001 5.134 7.232 1.73 19.73-8.231 24.363-3.044 1.403-6.558 1.996-10.427 1.473h1.337c.138 0 .25-.112.25-.25s-.112-.25-.25-.25h-1.553c.012-.029.036-.053.036-.087v-1.24h1.619c.138 0 .25-.112.25-.25s-.112-.25-.25-.25h-1.619v-1.159c0-.044-.027-.077-.047-.114.02-.024.041-.051.061-.076.027-.033.054-.065.081-.098.028.108.111.195.227.195h.55v.475c0 .138.112.25.25.25s.25-.112.25-.25v-.475h1.393c.138 0 .25-.112.25-.25s-.112-.25-.25-.25h-1.393v-.866c.045.042.103.07.169.07h1.638c.051 0 .09-.028.13-.054v1.331c0 .138.112.25.25.25s.25-.112.25-.25v-1.495c.711-.013 1.033-.036 1.86-.182v.623h-1.387c-.138 0-.25.112-.25.25s.112.25.25.25h1.496c.041.03.086.059.141.059s.1-.028.141-.059h.651c.138 0 .25-.112.25-.25s-.112-.25-.25-.25h-.542v-.708c.077-.017 1.065-.287 1.1-.299v.193c-.105.029-.19.111-.19.225s.085.196.19.225v.042c0 .138.112.25.25.25s.25-.112.25-.25v-.018h1.419c.003 0 .004.003.007.003s.004-.003.007-.003h.298c.138 0 .25-.112.25-.25s-.112-.25-.25-.25h-.055v-.892c0-.082-.045-.145-.106-.19 8.964-4.977 8.314-18.637-2.167-19.479-5.73-.408-12.211 3.938-13.467 9.871-.425 1.964-.155 4.111.607 5.82-1.677 1.103-3.263 2.417-4.765 3.698-1.551-2.876-2.045-6.345-1.354-9.609zm1.542 10.767c1.907-1.636 6.675-5.65 9.161-6.002 1.911-.298 3.419.89 2.978 3.027-.397 1.918-4.42 6.339-5.757 7.784-1.503 1.671-3.106 3.291-4.767 4.818-1.792 1.674-3.661 3.266-5.555 4.732-1.166.909-2.978 2.398-4.566 1.819-1-.351-2.239-1.747-1.34-4.968 1.471-5.194 4.83-6.821 9.846-11.21z"/><path d="m27.814 33.864c-.04-.131-.176-.204-.313-.163-.132.041-.205.182-.163.313.05.16.136.301.236.432-.45.485-.875.991-1.275 1.516l-.357-.209c-.118-.071-.271-.031-.342.09-.069.119-.029.271.09.342l.304.178c-.513.711-.979 1.452-1.389 2.22-.164-.097-.325-.202-.464-.334-.102-.095-.26-.09-.354.01-.095.101-.091.259.01.354.175.165.374.298.581.417-.288.593-.54 1.259-.56 1.961-.003.095.019.197.027.296l-.652.161c-.135.033-.216.169-.184.303.034.138.174.216.303.184l.616-.152c.157.587.495 1.154 1.081 1.445.131.064.277.006.335-.112.062-.124.011-.273-.112-.335-.442-.22-.699-.657-.822-1.116l.599-.148c.135-.033.216-.169.184-.303-.033-.134-.172-.219-.303-.184l-.558.138c-.002-.054-.015-.11-.014-.162.018-.621.244-1.215.519-1.775.128.048.249.113.384.143.141.03.269-.058.3-.188.03-.135-.054-.269-.188-.3-.093-.021-.176-.068-.266-.099.403-.75.858-1.476 1.361-2.169l.394.23c.113.068.27.034.342-.09.069-.119.029-.272-.09-.342l-.338-.198c.38-.496.782-.974 1.208-1.433.156.102.325.185.511.22.133.025.265-.063.292-.2.025-.136-.064-.266-.2-.292-.092-.017-.179-.052-.261-.096.406-.416.834-.807 1.274-1.185l.332.337c.096.098.254.1.354.002.098-.097.1-.255.002-.354l-.304-.308c.453-.369.916-.724 1.398-1.049l.502.486c.101.097.259.092.354-.006.096-.1.094-.258-.006-.354l-.413-.4c.228-.145.453-.295.687-.43.119-.069.16-.222.092-.342-.07-.12-.226-.16-.342-.092-.274.158-.54.333-.807.505l-.23-.223c-.1-.096-.258-.093-.354.006-.096.1-.094.258.006.354l.145.14c-.477.326-.936.679-1.384 1.046l-.206-.209c-.1-.099-.258-.1-.354-.004-.099.098-.101.256-.004.354l.18.182c-.445.384-.879.781-1.289 1.202-.045-.065-.081-.136-.105-.211z"/></g></svg>