<svg id="Layer_1" enable-background="new 0 0 66 66" height="512" viewBox="0 0 66 66" width="512" xmlns="http://www.w3.org/2000/svg"><g><path d="m61.353 9.962c-3.452-2.038-17.237-.891-21.116-.473-3.37.359-6.231 1.294-6.684 5.556-.165 1.597-.09 7.508.076 9.127.198 1.893 1.138 3.757 2.818 4.613-.981 1.722-1.819 2.897-1.968 3.676-.317 1.504 1.011 3.126 3.566 1.393 1.63-1.084 3.252-2.169 4.874-3.254l1.658-1.108c3.802.045 7.604.089 11.404.126 6.072.06 8.309-1.51 8.851-8.339.151-1.894.322-4.039-.098-6.102-.475-2.322-1.707-4.223-3.381-5.215zm2.606 9.366-.116-.116c-.001-.063-.024-.125-.072-.173s-.111-.071-.173-.072l-.091-.091c.052-.007.104-.02.144-.06l.342-.342c-.006.287-.02.57-.034.854zm-.115 1.78-.895-.895.594-.594.382.382c-.025.376-.052.747-.081 1.107zm-26.247 7.669c.15-.271.016-.619-.286-.716-1.578-.5-2.506-2.264-2.688-3.992-.158-1.544-.232-7.405-.076-8.92.396-3.727 2.9-4.357 5.796-4.666 3.516-.379 17.331-1.533 20.501.339 1.431.849 2.492 2.509 2.911 4.555.16.784.212 1.593.226 2.4l-.685.685c-.046.046-.066.106-.069.166-.096-.057-.217-.06-.299.022-.098.098-.098.256 0 .354l.262.262-.806.806c-.098.098-.098.256 0 .354.048.048.11.071.173.072.01.018.008.04.023.055l.494.494-.846.846-.177-.177c-.098-.098-.256-.098-.354 0s-.098.256 0 .354l.177.177-.322.322c-.098.098-.098.256 0 .354.099.099.257.096.354 0l.322-.322.876.876c.097.097.256.098.354 0s.098-.256 0-.354l-.876-.876.846-.846.179.179c.049.049.112.073.177.073.005 0 .009-.005.014-.006-.059.663-.136 1.322-.253 1.958-.094-.052-.21-.055-.291.026l-1.017 1.017-.747-.748.244-.244c.232-.232-.119-.588-.354-.354l-.244.244-.727-.728c-.097-.098-.255-.099-.354 0-.098.098-.098.256 0 .354l.727.728-1.304 1.305-.733-.733.048-.048c.098-.098.098-.256 0-.354s-.256-.098-.354 0l-.137.137c-.044.01-.091.017-.125.052-.035.035-.042.081-.052.125l-1.361 1.361-.736-.735c-.098-.098-.256-.098-.354 0s-.098.256 0 .354l.736.736-1.39 1.39-.935-.935 1.531-1.531c.098-.098.098-.256 0-.354s-.256-.098-.354 0l-1.528 1.53-.306-.306c-.098-.098-.256-.098-.354 0s-.098.256 0 .354l.306.306-1.27 1.27-.841-.841 1.213-1.213c.098-.098.098-.256 0-.354s-.256-.098-.354 0l-1.213 1.213-.333-.333c-.097-.098-.255-.098-.354 0-.098.098-.098.256 0 .354l.333.333-1.028 1.028-.933-.935.882-.882c.098-.098.098-.256 0-.354s-.256-.098-.354 0l-.882.882-.104-.104c-.098-.098-.256-.098-.354 0s-.098.256 0 .354l.104.104-1.366 1.366c-.019.019-.017.047-.029.07-.073-.001-.147-.002-.22-.002l-.911-.91.548-.548c.098-.098.098-.256 0-.354s-.256-.098-.354 0l-1.983 1.984-.641-.642c-.089-.088-.223-.086-.32-.014-.07-.005-.14.013-.193.066l-1.287 1.287-.266-.266c-.098-.098-.256-.098-.354 0s-.098.256 0 .354l.266.266-1.162 1.162-.613-.612c.097-.098.098-.256 0-.353-.098-.098-.256-.098-.354 0l-1.194 1.194-.105-.105c-.098-.098-.256-.098-.354 0s-.098.256 0 .354l.105.105-.72.72-.292-.292c-.086-.086-.216-.083-.313-.017.562-1.001 1.145-1.881 1.817-3.112zm25.438-3.331-.445-.446.836-.835c-.104.445-.226.878-.391 1.281zm-3.625 2.942-1.204-1.204 1.273-1.273 1.768 1.767c-.546.349-1.166.571-1.837.71zm-2.291-2.29 1.273-1.273.733.733-1.273 1.273zm2.713-.54 1.304-1.305.747.747-1.304 1.304zm-10.801 2.982c-.625-.007-1.249-.013-1.874-.021l1.09-1.09.935.935-.132.132c-.013.012-.01.03-.019.044zm2.593.029c-.64-.007-1.28-.014-1.919-.021l1.211-1.211.841.841-.105.105c-.079.078-.077.192-.028.286zm.486-.038.044.044c-.029 0-.058-.001-.087-.001zm.445-.262-.091-.091 1.27-1.27.986.986c-.001.065.023.13.072.18.049.049.112.073.177.073.001 0 .002-.001.003-.001l.467.467c-.955-.009-1.91-.021-2.865-.032.064-.099.067-.227-.019-.312zm-10.19 1.5c-.189.126-.38.253-.569.38.001-.065-.022-.131-.072-.18l-.234-.234 1.217-1.217.518.519-.477.477zm-2.67 1.759c.032-.004.06-.02.088-.036-.052.035-.103.069-.155.104zm.205-.205 1.236-1.236.234.234c.028.028.067.031.102.042-.54.361-1.083.723-1.624 1.084.031-.036.046-.079.052-.124zm-4.44 1.335c.036-.192.115-.381.211-.57.002.061.023.123.07.17l.292.292-.573.573c-.031-.14-.035-.298 0-.465zm2.028.365c-.518.353-1.17.79-1.731.511l.631-.631.326.326c.097.097.255.098.354 0 .098-.098.098-.256 0-.354l-.326-.326.72-.72.497.497c.097.097.255.098.354 0 .098-.098.098-.256 0-.354l-.497-.497.84-.84.613.612-.843.843c-.088.088-.085.219-.015.317-.31.207-.615.411-.923.616zm6.989-4.533.536-.536.549.548c-.361-.005-.723-.008-1.085-.012zm11.555.127c.003-.068-.017-.136-.069-.188l-.588-.588 1.39-1.39.745.745c-.066.097-.069.226.017.312.084.084.19.101.313.017l.967.966c-.875.12-1.813.136-2.775.126zm5.63-1.23-.73-.73 1.304-1.304.544.544c.008.008.02.005.029.012-.296.579-.655 1.072-1.147 1.478z"/><path d="m37.53 17.449 23.687.103h.001c.138 0 .249-.111.25-.249s-.111-.25-.249-.251l-23.687-.103h-.001c-.138 0-.249.111-.25.249s.111.25.249.251z"/><path d="m52.74 22.011c-.003-.137-.114-.245-.25-.245-.002 0-.003 0-.005 0l-15.377.293c-.138.003-.248.117-.245.255.003.137.114.245.25.245h.005l15.377-.293c.137-.003.248-.118.245-.255z"/><path d="m1.095 48.337c-.726 6.735 2.754 8.831 8.856 8.869 6.622.041 13.207-.136 19.679-.519 6.431-.381 8.219-2.537 8.149-9.118-.056-5.275-.452-9.208-6.857-12.498-7.192-3.694-16.282-3.787-24.186.941-3.057 1.83-4.955 5.976-5.641 12.325zm7.341 7.79c.02.02.049.018.073.03-.095-.006-.19-.01-.284-.017l.112-.112zm3.213.076.825-.825.821.821c-.549.003-1.097.004-1.646.004zm6.496-.146c.049.049.112.073.177.073s.128-.024.177-.073l.029-.029.1.1c-.745.017-1.491.029-2.236.041.006-.005.015-.003.021-.009.098-.098.098-.256 0-.354l-.405-.405.946-.946 1.22 1.22-.029.029c-.098.097-.098.255 0 .353zm4.485-4.133 1.357 1.357-2.006 2.006-1.357-1.357zm9.809-1.476c.097.097.255.098.354 0l.542-.542.741.741-1.528 1.528-1.835-1.835 1.528-1.528.741.741-.542.542c-.099.097-.099.256-.001.353zm.206 4.035c.097.097.255.098.354 0l.576-.576.732.732c-.807.469-1.762.721-2.772.865 0-.064-.024-.127-.073-.176l-.68-.68 1.767-1.767.673.673-.576.576c-.099.098-.099.256-.001.353zm.256-1.955 1.528-1.528.663.663c.004.004.01.002.014.006l-1.531 1.532zm-.707 0-1.767 1.767-1.835-1.835 1.767-1.767zm-3.955-.422-1.185-1.185 1.767-1.767 1.185 1.185zm-.354.354-2.006 2.006-1.185-1.185 2.006-2.006zm-1.35 3.368c.009.009.023.006.034.014-1.3.064-2.6.119-3.904.165-.011-.021-.009-.046-.026-.064l-.303-.303 2.006-2.006zm-4.518.202c-.025.001-.049.002-.074.003l.038-.038zm-.389-.39-.131.131c-.076.076-.075.184-.032.277-.722.023-1.442.049-2.164.067-.008-.011-.005-.026-.015-.036l-.405-.405 1.391-1.391zm-5.569.519c.01.01.024.007.034.014-.291.004-.583.013-.874.016l.435-.435zm13.513-.47c-.891.053-1.788.092-2.683.136.096-.098.096-.254-.001-.351l-.655-.655 2.006-2.006 1.835 1.835-.302.302c-.098.098-.098.256 0 .354.097.097.255.098.354 0l.302-.302.571.571c-.473.052-.951.088-1.427.116zm5.168-1.323-.812-.812 2.228-2.229c.098-.098.098-.256 0-.354s-.256-.098-.354 0l-.352.352c-.004-.004-.002-.01-.006-.014l-.663-.663 1.088-1.088c.098-.098.098-.256 0-.354s-.256-.098-.354 0l-1.088 1.088-.741-.741 1.869-1.869.688.688c.097.097.255.098.354 0 .098-.098.098-.256 0-.354l-.688-.688.071-.071c.098-.098.098-.256 0-.354s-.256-.098-.354 0l-.071.071-1.049-1.049 1.288-1.288.934.934c.032.681.042 1.356.049 2.005.031 2.601-.074 5.331-2.037 6.79zm1.945-9.545-.535-.535.132-.132c.098-.098.098-.256 0-.354s-.256-.098-.354 0l-.132.132-.746-.746c-.038-.038-.088-.048-.137-.057l1.237-1.238c.298.947.456 1.938.535 2.93zm-6.22-8.861c2.42 1.244 4.553 2.884 5.521 5.438-.133.058-1.323 1.276-1.426 1.379-.098.098-.098.256 0 .354.038.038.088.048.137.057-.098.098-.098.256 0 .354l.746.746-1.288 1.288-.268-.268c-.098-.098-.256-.098-.354 0s-.098.256 0 .354l.362.362c.011.041.016.084.048.117s.076.037.117.048l1.143 1.143-1.869 1.869-.741-.741.316-.316c.098-.098.098-.256 0-.354s-.256-.098-.354 0l-.316.316-.61-.61c-.098-.098-.256-.098-.354 0s-.098.256 0 .354l.61.61-1.528 1.528-1.185-1.185.405-.405c.098-.098.098-.256 0-.354s-.256-.098-.354 0l-.405.405-.2-.2c-.098-.098-.256-.098-.354 0s-.098.256 0 .354l.2.2-1.764 1.765-.61-.61c-.098-.098-.256-.098-.354 0s-.098.256 0 .354l.61.61-2.006 2.006-1.357-1.357.945-.945c.098-.098.098-.256 0-.354s-.256-.098-.354 0l-1.122 1.122-2.182 2.183-.883-.883c-.098-.098-.256-.098-.354 0s-.098.256 0 .354l.883.883-1.391 1.391-1.22-1.22 1.876-1.876c.098-.098.098-.256 0-.354s-.256-.098-.354 0l-1.876 1.876-.029-.029c-.098-.098-.256-.098-.354 0s-.098.256 0 .354l.029.029-.946.946-1.051-1.055c-.098-.098-.256-.098-.354 0s-.098.256 0 .354l1.054 1.054-.796.796c-.239.002-.476 0-.715.001.03-.087.028-.183-.042-.253l-.921-.921 1.438-1.438c.098-.098.098-.256 0-.354s-.256-.098-.354 0l-1.438 1.438-.268-.268c-.098-.098-.256-.098-.354 0s-.098.256 0 .354l.268.268-.877.877-1.02-1.02c-.098-.098-.256-.098-.354 0s-.098.256 0 .354l.969.969c-.293-.001-.588.004-.881.002-.424-.003-.847-.017-1.267-.038.034-.012.072-.014.099-.041.098-.098.098-.256 0-.354l-.097-.099 1.664-1.664c.098-.098.098-.256 0-.354-.099-.098-.257-.098-.353 0l-1.664 1.664-.507-.506c-.098-.098-.256-.098-.354 0s-.098.256 0 .354l.507.507-.401.401c-4.025-.467-6.04-2.553-5.493-7.631.65-6.02 2.387-9.914 5.161-11.574 7.537-4.509 16.256-4.484 23.215-.911z"/><path d="m30.225 22.333c1.238-7.131-4.86-13.356-11.821-12.215 0 0 0 0-.001 0-4.464.728-9.618 5.127-9.78 10.257-.101 3.234 1.246 6.386 3.604 8.43 6.061 5.257 16.501 2.173 17.998-6.472zm-15.245 7.047.158-.158.223.223c.097.097.255.098.354 0 .098-.098.098-.256 0-.354l-.223-.223.821-.821 1.306 1.306c-.037.09-.037.192.037.265.049.049.112.073.177.073.032 0 .058-.024.088-.037l.48.48c.097.097.255.098.354 0 .098-.098.098-.256 0-.354l-.454-.454.822-.822 1.4 1.4c.097.097.255.098.354 0 .098-.098.098-.256 0-.354l-.115-.115c.04-.011.082-.016.114-.047l1.629-1.629 1.514 1.513c-2.777 1.453-6.24 1.431-9.039.108zm2.508-2.508 1.28 1.28-.822.822-1.28-1.28zm5.545-2.278c.033-.033.038-.077.049-.118.009.013.006.03.017.042l.97.97-1.567 1.567-.965-.965zm-.884 2.814-1.629 1.629c-.031.031-.036.074-.047.114l-.998-.998 1.709-1.709zm2.313 1.612c-.003-.004-.002-.009-.005-.012l-1.601-1.6 1.567-1.567.907.907-1.256 1.256c-.098.098-.098.256 0 .354.097.097.255.098.354 0l1.256-1.256.544.544c.006.006.016.004.023.01-.545.521-1.144.98-1.789 1.364zm.314-3.533 1.222-1.222.907.907-1.223 1.223zm1.815 1.83c-.006-.007-.003-.018-.01-.024l-.544-.544 1.223-1.223.254.254c.102.102.165.072.253.042-.347.531-.738 1.033-1.176 1.495zm2.075-3.198c-.205.502-.454.986-.739 1.452-.007-.052-.02-.105-.06-.145l-.254-.254zm.575-1.957c-.09.518-.24 1.024-.417 1.523-.01-.018-.008-.04-.023-.055-.012-.012-.029-.009-.043-.018-.012-.026-.011-.056-.032-.078l-1.622-1.622c.025-.012.054-.01.075-.031l.654-.654.511.511c.099.099.257.096.354 0 .098-.098.098-.256 0-.354l-.511-.511.687-.687c.121.092.24.072.324-.012.089-.089.087-.226.012-.324l.124-.124c.068.812.046 1.631-.093 2.436zm-.304-3.747-.464-.465.418-.418c.182.564.306 1.143.385 1.731-.083-.021-.169-.016-.235.049l-.176.176-.827-.827c-.061-.061-.143-.07-.222-.055l.304-.304.464.465c.099.099.257.096.354 0s.097-.254-.001-.352zm-19.314 1.991c.145-4.617 4.935-8.647 8.941-9.302 3.884-.635 8.389 1.361 10.138 5.909l-.582.583-.138-.138c-.098-.098-.255-.098-.354 0-.098.098-.098.256 0 .354l.138.139-.368.368c-.098.098-.098.256 0 .354.109.109.179.072.267.036-.063.097-.066.223.019.308l.827.827-.678.678-.482-.483c-.097-.097-.255-.099-.354 0-.098.098-.098.256 0 .354l.482.483-.654.654c-.026.026-.027.062-.039.095-.097-.061-.22-.064-.304.02-.098.098-.098.256 0 .354l1.8 1.8-1.022 1.022-.907-.907.37-.37c.098-.098.098-.256 0-.354s-.256-.098-.354 0l-.37.37-.769-.769c-.098-.098-.256-.098-.354 0s-.098.256 0 .354l.769.769-1.222 1.222-.97-.97c-.098-.098-.256-.098-.354 0-.033.033-.038.077-.049.118-.009-.013-.006-.03-.017-.042-.098-.098-.256-.098-.354 0l-1.496 1.496-.368-.368c-.098-.098-.256-.098-.354 0s-.098.256 0 .354l.368.368-1.709 1.709-1.28-1.28.982-.982c.098-.098.098-.256 0-.354s-.256-.098-.354 0l-2.158 2.158-.31-.31c-.098-.098-.256-.098-.354 0s-.098.256 0 .354l.31.31-.821.821-1.256-1.256c-.098-.098-.256-.098-.354 0s-.098.256 0 .354l1.256 1.256-.273.273c-.578-.313-1.134-.663-1.63-1.093-2.129-1.852-3.347-4.709-3.255-7.646z"/></g></svg>