<svg id="Layer_1" enable-background="new 0 0 66 66" height="512" viewBox="0 0 66 66" width="512" xmlns="http://www.w3.org/2000/svg"><g><path d="m56.933 4.921c-16.638-1.172-33.123.679-49.656.811-4.193.033-5.913 1.273-5.965 6.419l-.302 28.589c-.063 5.952 1.881 7.653 7.09 7.653.074 0 .148-.001.223-.001l20.382-.094c.006.079.024.157.068.228.255.409.303.884.141 1.411-.876 2.868-4.537 2.442-7.02 3.465-1.885.777-3.47 2.95-2.522 4.816.67 1.322 2.204 1.755 3.615 2.005 8.045 1.43 20.561 1.839 23.706.073 3.142-1.764 2.716-5.85-1.705-6.708-1.53-.297-3.068-.203-4.402-.736-1.89-.757-3.072-2.697-2.865-4.596l18.434-.085c5.407-.024 6.493-1.862 6.766-5.661l2.001-28.157c.456-6.443-1.203-8.954-7.989-9.432zm-25.212 43.364c.011.02.008.044.025.061l.975.975-.609.609-.528-.528.215-.215c.098-.098.098-.256 0-.354s-.256-.098-.354 0l-.215.215-.758-.758zm-1.951.008 1.108 1.108-.771.771-.186-.186c.134-.601.08-1.175-.158-1.693zm-3.255 5.852-.69-.69c.003-.003.002-.007.004-.01.435-.105.866-.236 1.288-.403l.25.25zm1.093-1.32c.198-.102.39-.215.573-.346l-.459.459zm-2.677.817-.951.951-.613-.613c.511-.13 1.04-.233 1.564-.338zm-2.736.728-.832.831-.174-.174c.303-.266.643-.496 1.006-.657zm-1.565 3.87c-.145-.139-.274-.292-.366-.473-.029-.058-.046-.119-.068-.179l.542.543zm19.584-4.459c1.495.599 3.102.503 4.583.791 3.433.665 3.79 3.518 1.405 4.854-2.665 1.497-14.567 1.32-23.041-.186-.754-.134-1.542-.324-2.135-.689l2.382-2.381c.098-.098.098-.256 0-.354s-.256-.098-.354 0l-1.963 1.962-.98-.981c.076-.555.346-.983.726-1.414l.184.184c-.068.097-.071.228.016.315.085.085.193.101.315.016l.628.629c.097.097.255.098.354 0 .098-.098.098-.256 0-.354l-.617-.617 1.26-1.259.689.689c-.014.078-.004.158.056.218.084.084.138.071.218.056l.146.146c.097.097.255.098.354 0 .098-.098.098-.256 0-.354l-.106-.106 1.138-1.137.701.701c-.068.097-.071.228.016.315.094.094.249.101.351.001.092.038.162.068.266-.036.073-.073.073-.175.037-.265l.879-.879.306.306c.099.099.257.096.354 0 .098-.098.098-.256 0-.354l-.306-.306.577-.577c.098-.098.098-.256 0-.354-.078-.078-.188-.076-.282-.03.064-.051.128-.1.189-.153l.598.598-.42.42c-.098.098-.098.256 0 .354.097.097.255.098.354 0l.453-.453c.087.025.145.049.24-.047.066-.066.071-.156.047-.24l.855-.855c.098-.098.098-.256 0-.354s-.256-.098-.354 0l-.822.822-.593-.593c.113-.122.22-.248.318-.38.122.086.232.069.316-.016l.555-.555.905.905c.097.097.255.098.354 0 .098-.098.098-.256 0-.354l-.905-.905.771-.771.64.64c.012.031.013.066.038.092s.06.026.092.038l.138.138c.097.097.255.098.354 0 .098-.098.098-.256 0-.354l-.026-.026.609-.609.443.443c.097.097.255.098.354 0 .098-.098.098-.256 0-.354l-.443-.443.481-.481c.098-.098.098-.256 0-.354s-.256-.098-.354 0l-.481.481-.685-.685 1.388-.006c.012.023.01.051.029.07l.704.704-.243.243c-.098.098-.098.256 0 .354.097.097.255.098.354 0l.244-.244.331.33c.096.096.255.099.354 0 .098-.098.098-.256 0-.354l-.331-.33.663-.663.741.741c.026.026.063.028.096.04.176 1.992 1.491 3.815 3.492 4.616zm-5.773-5.509.851-.004-.427.427zm2.257.223-.233-.233.253-.001c-.006.079-.017.157-.02.234zm19.453-1.323-47.832.22c-4.168-.004-6.195-.746-6.302-5.677l59.963-.071-.057.796c-.237 3.298-.913 4.709-5.772 4.732zm-17.618-8.105c.007.009.004.021.012.029l1.277 1.277c-.079.084-.077.203-.018.297l-2.154.003c.057-.096.06-.216-.023-.298l-.2-.2zm3.51-.212 1.59 1.59-.02.02c-.055.055-.071.128-.063.201l-2.9.003c.018-.081.011-.165-.052-.228l-.071-.071zm-4.824 1.818h-.292l.146-.146zm13.107-.491-.794-.795 1.319-1.319 1.442 1.442-.611.611c-.098.098-.098.256 0 .354.099.099.257.096.354 0l.611-.611.647.647c.097.097.255.098.354 0 .098-.098.098-.256 0-.354l-.647-.647 1.393-1.393 1.541 1.541-.512.512c-.098.098-.098.256 0 .354.097.097.255.098.354 0l.512-.512.399.399c.097.097.255.098.354 0 .098-.098.098-.256 0-.354l-.399-.399 1.295-1.295 1.468 1.467-.734.734c-.023.023-.023.056-.035.084l-10.378.012.919-.919.794.795c.099.099.257.096.354 0 .098-.098.098-.256 0-.354zm4.422-2.419 1.295-1.295 1.541 1.541-1.295 1.295zm7.929-5.946-.647-.647.746-.746zm-.189 2.664-.556-.556.641-.641zm-.438 6.163-1.122.001-.816-.815 1.251-1.251c.065-.065.07-.152.049-.235l.384.384c.097.097.255.098.354 0 .03-.03.034-.071.045-.109zm-1.829.002-.926.001.464-.464zm.788-2.421-1.251 1.251-1.467-1.467 1.393-1.393 1.56 1.56c-.083-.021-.171-.015-.235.049zm2.914-23.941-1.099 15.469c-.051.008-.103.02-.143.059l-1.004 1.004-.192-.192c-.097-.097-.255-.099-.354 0-.098.098-.098.256 0 .354l.192.192-.93.93c-.098.098-.098.256 0 .354.097.097.255.098.354 0l.93-.93.953.954-.003.046-1.049 1.049-.832-.832c-.098-.098-.256-.098-.354 0s-.098.256 0 .354l.832.832-.684.683c-.098.098-.098.256 0 .354.097.097.255.098.354 0l.685-.685.813.813c.014.014.035.011.052.022l-.241 3.389c-.01-.046-.018-.093-.053-.129l-2.111-2.111.065-.065c.098-.098.098-.256 0-.354s-.256-.098-.354 0l-.065.065-1.152-1.152c-.098-.098-.256-.098-.354 0s-.098.256 0 .354l1.152 1.152-1.393 1.393-1.541-1.541 1.696-1.696c.098-.098.098-.256 0-.354s-.256-.098-.354 0l-1.696 1.696-.709-.709c-.098-.098-.256-.098-.354 0s-.098.256 0 .354l.709.709-1.295 1.295-1.226-1.226c-.098-.098-.256-.098-.354 0s-.098.256 0 .354l1.226 1.226-1.393 1.393-1.442-1.442 3.59-3.591c.098-.098.098-.256 0-.354s-.256-.098-.354 0l-3.591 3.591-.34-.34c-.098-.098-.256-.098-.354 0s-.098.256 0 .354l.34.34-1.319 1.319-1.275-1.276c-.098-.097-.256-.099-.354 0-.098.098-.098.256 0 .354l1.275 1.276-1.176 1.177c-.027.027-.028.064-.04.097l-3.148.004c-.002-.062-.023-.123-.071-.17l-.049-.049 1.246-1.246 1.263 1.262c.097.097.255.098.354 0 .098-.098.098-.256 0-.354l-1.263-1.262 3.429-3.429c.098-.098.098-.256 0-.354s-.256-.098-.354 0l-3.429 3.429-.39-.39c-.098-.099-.256-.097-.354 0-.098.098-.098.256 0 .354l.39.39-1.246 1.246-1.59-1.59 2.916-2.916c.098-.098.098-.256 0-.354s-.256-.098-.354 0l-4.786 4.786-1.275-1.275c-.008-.008-.02-.005-.029-.012l1.116-1.116c.098-.098.098-.256 0-.354s-.256-.098-.354 0l-2.559 2.56-.783-.782c-.099-.099-.257-.097-.354 0-.098.098-.098.256 0 .354l.783.782-.389.39c-.031.031-.034.072-.046.111l-1.751.002-.33-.33 2.025-2.025c.098-.098.098-.256 0-.354-.097-.098-.255-.099-.354 0l-2.025 2.025-.266-.266c-.098-.098-.256-.098-.354 0s-.098.256 0 .354l.266.266-.315.315c-.005.005-.003.012-.007.017l-31.16.034.301-28.555c.048-4.677 1.44-5.4 4.973-5.429 16.521-.13 33.045-1.981 49.578-.812 6.05.424 7.491 2.308 7.061 8.365z"/><path d="m56.26 44.063c-.008.013-.016.026-.022.039-.011.021-.021.041-.029.063-.27.698.789 1.17 1.128.496.333-.677-.685-1.232-1.077-.598z"/><path d="m51.577 43.634c-.217.132-.327.394-.274.65.117.571.859.679 1.132.164.331-.623-.414-1.079-.858-.814z"/><path d="m47.385 43.52-.223.037c-.034.006-.066.015-.098.027-.05-.006-.104.001-.158.015-.268.069-.429.343-.359.609.095.368.467.594.814.531.562-.092.803-.807.414-1.119-.11-.086-.254-.125-.39-.1z"/><path d="m10.31 24.584c.258.227.61.536 1.062.586.14.015.261-.086.275-.221.016-.137-.083-.261-.221-.275-.271-.031-.517-.229-.786-.466l-.085-.074c.477-.469.96-.932 1.45-1.388l.896.593c.114.074.269.046.347-.071.076-.115.044-.271-.071-.347l-.794-.525c.869-.799 1.756-1.578 2.662-2.334.273.109.558.186.854.186.202 0 .362-.065.352-.266-.007-.138-.13-.234-.263-.237-.168.011-.333-.014-.493-.05.599-.491 1.205-.973 1.819-1.445.343.22.708.406 1.089.544.13.046.273-.02.32-.15.047-.129-.021-.272-.15-.32-.287-.104-.561-.247-.826-.404.761-.576 1.532-1.14 2.315-1.687l.65.627c.101.097.259.092.354-.006.096-.1.094-.258-.006-.354l-.582-.561c.634-.436 1.274-.863 1.922-1.278.116-.074.15-.229.075-.345-.073-.116-.228-.149-.345-.075-.681.437-1.354.885-2.02 1.344l-.827-.797c-.1-.096-.258-.093-.354.006-.096.1-.093.258.006.354l.76.733c-.805.563-1.596 1.144-2.378 1.738-.177-.131-.361-.254-.518-.407-.1-.098-.257-.094-.354.004-.097.1-.095.258.004.354.138.134.283.261.434.38-.65.502-1.292 1.014-1.925 1.537-.339-.199-.619-.493-.777-.85-.056-.126-.203-.184-.33-.127-.126.056-.183.203-.127.33.177.4.475.731.831.976-.887.744-1.752 1.513-2.604 2.298l-.845-.559c-.112-.073-.27-.045-.347.071-.076.115-.044.271.071.347l.743.492c-.472.441-.938.888-1.398 1.341l-1.105-.971c-.104-.089-.262-.08-.354.023-.091.104-.08.263.023.354l1.081.945c-.786.784-1.56 1.58-2.31 2.4-.093.102-.086.26.016.354.1.092.258.088.354-.016.753-.823 1.53-1.621 2.319-2.408z"/><path d="m32.713 14.699c.062-.077.091-.177.039-.27-.068-.121-.222-.161-.341-.095-.02.011-.04.024-.06.035l-.409-.373c-.101-.093-.261-.085-.354.016-.093.103-.086.261.016.354l.293.267c-.718.409-1.432.823-2.142 1.246l-.761-.708c-.101-.094-.26-.088-.353.013-.095.101-.089.259.013.353l.653.608c-1.026.618-2.042 1.252-3.051 1.9-.014-.026-.034-.049-.047-.076-.06-.125-.211-.177-.333-.118-.125.06-.178.209-.118.333.023.048.056.089.083.135-1.245.806-2.473 1.638-3.688 2.488-.051-.084-.113-.162-.149-.254-.05-.129-.198-.191-.323-.142-.129.05-.192.195-.142.323.051.129.135.239.209.355-.987.697-1.965 1.407-2.932 2.133l-.283-.362c-.086-.108-.243-.128-.352-.043-.108.086-.128.243-.043.352l.275.351c-1.052.795-2.093 1.604-3.119 2.432-.223-.182-.402-.419-.508-.688-.05-.128-.198-.191-.323-.142-.129.05-.192.194-.142.323.125.32.336.596.591.823-.637.519-1.271 1.043-1.897 1.574-.272-.271-.522-.564-.745-.881-.078-.113-.234-.141-.348-.061-.113.079-.141.235-.061.348.231.329.491.631.772.914-.849.725-1.689 1.461-2.518 2.209-.103.093-.111.251-.019.353.091.104.252.11.353.019.844-.762 1.699-1.512 2.564-2.25.208.182.41.371.64.528.115.078.269.049.348-.064.078-.114.049-.27-.064-.348-.191-.131-.358-.291-.533-.44.639-.541 1.284-1.077 1.934-1.605.211.115.433.207.672.246.145.021.265-.076.287-.207.021-.137-.07-.265-.207-.287-.113-.018-.221-.058-.327-.1.974-.784 1.961-1.55 2.958-2.304l.679.866c.085.109.242.128.351.042.108-.085.128-.242.042-.351l-.67-.855c.97-.727 1.95-1.439 2.941-2.138.417.405.974.671 1.557.671.255 0 .344-.116.337-.264-.007-.138-.133-.24-.262-.238-.462.035-.892-.155-1.224-.454 1.208-.845 2.43-1.671 3.667-2.473.252.269.563.484.912.596.124.043.27-.024.314-.16.043-.131-.028-.272-.16-.314-.242-.079-.461-.221-.645-.399 1.033-.663 2.074-1.313 3.125-1.945l.426.397c.1.094.259.09.353-.013.095-.101.089-.259-.013-.353l-.316-.294c.712-.423 1.427-.84 2.146-1.249l.6.547c.102.094.262.085.354-.016.093-.103.086-.261-.016-.354z"/></g></svg>