<svg id="Capa_1" enable-background="new 0 0 283.599 283.599" height="512" viewBox="0 0 283.599 283.599" width="512" xmlns="http://www.w3.org/2000/svg"><g><g id="XMLID_1_"><path d="m242.17 137.6c.17-.05.34-.11.5-.17-.13.09-.28.14-.5.17z"/><path d="m112.13 158.37c.48.38.55 1.08.17 1.56-.39.47-1.09.54-1.56.16l-2.95-2.39c-2.03 1.99-3.95 4.07-5.74 6.27l2.46 1.69c.51.35.63 1.05.29 1.55-.35.5-1.04.63-1.55.28l-2.58-1.78c-1.4 1.83-2.7 3.73-3.93 5.67.76.67 1.56 1.28 2.44 1.76.54.31.72.98.43 1.51-.31.55-.99.73-1.51.44-.9-.51-1.73-1.12-2.52-1.79-1.19 2.03-2.3 4.09-3.3 6.22.78.49 1.92 1 2.87.6.54-.25 1.21 0 1.46.57.24.55-.01 1.21-.57 1.45-1.63.73-3.14.23-4.68-.67-1.58 3.61-2.9 7.35-3.9 11.18-.15.55-.7.94-1.36.79-.59-.15-.94-.76-.79-1.36 1.06-4.08 2.47-8.06 4.18-11.9-.06-.04-.11-.09-.17-.14-.94-.8-1.83-1.55-2.86-1.83-.59-.16-.94-.77-.78-1.36s.76-.94 1.36-.78c1.39.38 2.44 1.22 3.45 2.07 1.05-2.19 2.2-4.32 3.45-6.4-.88-.98-1.67-2.03-2.29-3.18-.28-.54-.08-1.22.46-1.51.53-.27 1.21-.08 1.5.46.43.8.96 1.53 1.54 2.23 1.16-1.81 2.39-3.57 3.69-5.28l-2.21-1.53c-.5-.35-.63-1.04-.28-1.54.35-.51 1.05-.63 1.54-.29l2.33 1.61c1.82-2.25 3.78-4.38 5.83-6.42l-1.01-.82c-.09.02-.2.03-.28.03-.61-.02-1.09-.52-1.08-1.13l.01-.55c.01-.42.26-.8.65-.97.38-.18.84-.12 1.16.14l2.14 1.73c1.77-1.65 3.59-3.24 5.52-4.73.48-.37 1.17-.29 1.55.2s.28 1.18-.2 1.56c-1.79 1.38-3.49 2.84-5.14 4.37z"/><path d="m64.29 127.49-2.83-2.83-4.98 4.97 2.84 2.84zm2.34 66.58-4.95 4.95c-.01.12-.09.22-.14.34 3.27-.15 6.54-.32 9.8-.62 0-.27.04-.56.05-.83-.39.13-.66.26-1.11-.19zm-1.57-1.57-2.87-2.86-4.66 4.66 2.86 2.87zm-11.71-62.87-2.66-2.66c-.41-.41-.41-1.07-.03-1.51l-4.99 5 3.42 3.43zm-2.54 9.12-1.72-1.73-1.35 1.36c-.12.11-.27.12-.42.17 1.16.13 2.33.22 3.49.2zm.31 58.83 3.28-3.28-4.39-4.38-3.28 3.28zm4.84-1.71-3.66 3.67c2.42-.01 4.84.03 7.27-.06zm-2.81-57.31c2.54-.24 5.02-.82 7.41-1.71l-1.24-1.25-.64.64c-.44.44-1.14.43-1.57 0-.44-.43-.44-1.13 0-1.57l.64-.64-2.83-2.83-4.26 4.26 2.21 2.2c.25.25.32.58.28.9zm28.02 21.59-3.91 3.9c.08.05.19.04.26.11l3.78 3.79c.88-1.68 1.87-3.51 2.94-5.39-.36.05-.59.06-.93-.27zm-7.2 24.3c.87-2.54 1.64-4.41 2.63-6.69-.58-.21-2.29-2.04-2.77-2.52l-4.07 4.07c-.18.18-.42.23-.65.27zm.47-83.24 2.63 2.64c-.36-1.33-.83-2.61-1.4-3.87zm78.11 24.22-3.65-3.65-4.71 4.71 3.65 3.65zm-28.07 9.6-.46-.45-.19.19c.21.1.43.16.65.26zm21.79-3.32-3.65-3.64-5.42 5.42c1.26 1.26 3.94 3.18 2.78 4.35-.21.21-.45.3-.69.3-1.16 0-2.6-2.02-3.66-3.09l-1.11 1.11c-.22.22-.5.33-.78.33-.98 0-1.49-1.19-.79-1.89l1.11-1.11-4.47-4.48-4 4 2.33 2.33c.31.32.32.75.17 1.15 3.62 1.19 7.4 1.81 11.2 1.89 7.29.18 14.63-1.62 20.99-5.21l-6.16-6.17-4.72 4.71 1.71 1.7c.43.44.43 1.14 0 1.57-.44.44-1.14.43-1.57 0l-1.7-1.7-.29.29c-.44.43-1.14.42-1.57 0-.43-.44-.43-1.14 0-1.57zm56.25 44.32 3.37-3.37-3.77-3.76-1.99 1.99c.8 1.66 1.6 3.37 2.39 5.14zm3.54 9.26.76-.76-1.52-1.52c.27.75.53 1.51.76 2.28zm2.33-2.32 3.9-3.9-4.83-4.84-3.91 3.91c.01 0 .02 0 .02.01zm4.96 8.09-4.96-4.96-1.61 1.61c.46 1.76.87 3.53 1.11 5.35.15 1.02.23 2.09.27 3.19zm-33.95-94.99c-.21-2.75-.62-5.48-1.41-8.11l-2.95 2.95c-.16.15-.37.19-.57.23l2.82 2.82zm18.8 60.55 1.02-1.02-.25-.25c-.27.44-.51.85-.77 1.27zm-28-41.26-2.22-2.23-6.02 6.02 2.23 2.22zm30.59 41.81-4.92 4.92c1.1 2.21 2.17 4.45 3.24 6.69l1.45-1.45-.16-.15c-.43-.43-.43-1.13 0-1.57.44-.43 1.14-.43 1.57 0l.15.16 3.23-3.23c.16-.16.37-.2.58-.24zm-27.32-67.84 3.64-3.64c-.41-1.1-.77-2.23-1.29-3.3-14.99-30.46-60.67-29.24-71.5 5.21-4.69 14.91-.74 30.95 10.04 40.86 0 .01.01.01.01.01 2.18 2.02 4.7 3.73 7.4 5.22l.67-.67-3.71-3.72c-.44-.44-.44-1.14 0-1.57.43-.44 1.13-.44 1.56 0l3.72 3.72 4-4.01-.05-.04c-.43-.44-.43-1.14 0-1.57.43-.44 1.13-.44 1.56 0l.05.05 4.92-4.92c.43-.43 1.13-.43 1.57 0 .43.44.43 1.14 0 1.57l-4.92 4.91 4.48 4.48 5.42-5.42-2.65-2.65c-.43-.44-.43-1.14 0-1.57.44-.44 1.14-.44 1.57 0l2.65 2.65 10.43-10.43c.44-.44 1.14-.44 1.57 0 .44.43.44 1.13 0 1.56l-4.15 4.15 3.65 3.65 4.71-4.71-2.18-2.18c-.44-.44-.44-1.14 0-1.57.43-.44 1.13-.43 1.57 0l2.18 2.18 6.02-6.02-2.66-2.65c-.43-.43-.43-1.13 0-1.57.44-.43 1.14-.43 1.57 0l2.65 2.66 5.2-5.2c.05-.04.11-.03.15-.06l-2.62-2.63-.4.41c-.44.43-1.14.43-1.57 0-.44-.44-.44-1.14 0-1.57l.63-.63c-.01-.28.09-.57.32-.79.22-.22.51-.33.79-.32l4.47-4.47-2.65-2.66c-.43-.43-.43-1.13 0-1.56.25-.26.59-.31.91-.27-.04-.33.02-.66.27-.92zm-.13 26.03.34.34c.43.43.43 1.13 0 1.57-.44.43-1.14.43-1.57 0l-.34-.34-6.02 6.02 2.62 2.62c.44.43.44 1.13 0 1.56-.43.43-1.13.44-1.57 0l-2.62-2.62-2.41 2.42c-.43.43-1.14.43-1.56 0-.44-.44-.44-1.14 0-1.57l2.41-2.42-2.23-2.22-4.71 4.71c.44.45 6.17 6.1 6.49 6.64 2.1-1.35 4.12-2.83 5.92-4.59.06-.07.18-.17.28-.24.02-.02.04-.04.05-.06 7.37-7.4 11.22-17.85 11.15-28.25-.26-.01-.52-.1-.73-.3l-2.32-2.33-4.24 4.24 5.18 5.18c.43.44.43 1.14 0 1.57-.44.43-1.14.43-1.57 0l-1.08-1.08c-.03.05-.02.11-.06.15l-5.2 5.2 2.22 2.23 1.03-1.03c.43-.43 1.13-.43 1.57 0 .43.43.43 1.13 0 1.57zm54.96 22.73c-.09-.05-.21-.04-.29-.12l-3.45-3.46-1.78 1.77c1.77.82 3.62 1.4 5.52 1.81zm5.18 55.24-3.48-3.49c-.22-.21-.32-.49-.32-.77l-4.8 4.79 3.56 3.56c.19.18.26.42.28.67zm-13.7 5.63c2.56.2 5.12.29 7.68.39l.09-.09c-.24-.02-.48-.09-.67-.27l-3.56-3.56zm1.98-5.1-4.04-4.04-1.23 1.24.36.36c.44.43.44 1.13 0 1.57-.21.22-.5.32-.78.32-.29 0-.57-.1-.78-.32l-.37-.36-5.32 5.31c2.06.26 4.13.42 6.19.62l-2.32-2.32c-.44-.43-.44-1.13 0-1.57.43-.43 1.13-.43 1.57 0l2.95 2.95zm34.52 3.06-2.7-2.69-4.03 4.03.44.45c.11.1.11.25.16.38 1.45-.1 2.89-.25 4.34-.38zm-14.28-59.28c-.27-.01-.54-.1-.74-.31-.44-.43-.44-1.13 0-1.57l.48-.47-3.48-3.48-2.31 2.31 1.84 1.83c.43.43.43 1.13 0 1.57-.44.43-1.14.43-1.57 0l-1.84-1.83-1.83 1.82c-.44.43-1.14.43-1.57 0-.44-.43-.44-1.13 0-1.56l1.83-1.83-3.93-3.94-2.75 2.77 3.45 3.45c.44.44.44 1.14 0 1.57-.17.17-.4.23-.63.26 4.32.81 8.81.61 13.05-.59zm1.3-.79c-.28.28-.43.47-.63.58-.16.06-.33.12-.5.17.22-.03.37-.08.5-.17.33-.1.65-.2.97-.31-.04-.04-.27-.2-.34-.27zm0-3.13 3.21-3.21-3.48-3.48-3.21 3.21zm3.11 64.54-2.96-2.97-4.22 4.22c2.03-.03 4.06-.06 6.09-.15zm-1.34-62.77c.27.27.32.61.26.96 1.62-.69 3.19-1.49 4.66-2.46l-1.92-1.92-3.2 3.21zm14.61-16.93c.44.44.44 1.14 0 1.57-.43.44-1.13.43-1.56 0l-.86-.85-.75.75c-.43.43-1.13.43-1.56 0-.44-.44-.44-1.14 0-1.57l.74-.75-1.13-1.14-3.48 3.48 2.94 2.94.03-.03c.44-.43 1.14-.43 1.57 0s.43 1.14 0 1.57l-.03.03.75.75c.43.43.43 1.13 0 1.57-.44.43-1.14.43-1.57 0l-.76-.76-4.37 4.38 2.11 2.12c6.52-5.23 9.66-12.55 10-20.26-.5.46-1.13.37-1.51-.02l-.73-.72-3.39 3.39 1.14 1.13 1.25-1.25c.44-.43 1.14-.43 1.57 0s.43 1.13 0 1.56l-1.25 1.26zm1.38-8.52.71.71c-.02-1.62-.2-3.23-.51-4.82-.13-.05-.29-.06-.4-.17l-1.62-1.61-2.01 2.01c-.13.12-.28.21-.44.26-.38.13-.82.05-1.13-.26-.43-.44-.43-1.14 0-1.57l2.01-2.01-.74-.75c-.44-.43-.44-1.13 0-1.57.43-.43 1.13-.43 1.56 0l.75.75.42-.42c-.19-.44-.31-.9-.52-1.33-10.6-21.55-42.76-20.55-50.37 3.66-3.67 11.68-.08 25.41 11.95 32.29l2.27-2.27-2.1-2.1c-.44-.43-.44-1.13 0-1.57.43-.43 1.13-.43 1.57 0l2.08 2.09 8.74-8.74c.43-.43 1.13-.43 1.57 0 .43.44.43 1.14 0 1.57l-4.42 4.42 3.93 3.93 2.31-2.31-2.28-2.28c-.43-.43-.43-1.13 0-1.56.44-.44 1.14-.44 1.57 0l2.28 2.28 3.21-3.21-.75-.75c-.43-.44-.43-1.14 0-1.57s1.14-.43 1.57 0l.75.75 2.2-2.2c.44-.44 1.14-.44 1.57 0 .43.43.43 1.13 0 1.56l-2.2 2.21 3.48 3.48 4.37-4.38-2.93-2.94-.03.03c-.43.43-1.13.43-1.56 0-.44-.43-.44-1.13 0-1.57l.02-.02-.21-.21c-.43-.44-.43-1.14 0-1.57.44-.43 1.14-.43 1.57 0l.21.21 3.48-3.48-.03-.03c-.43-.43-.43-1.13 0-1.56.43-.44 1.13-.44 1.57 0l.02.02 3.39-3.39-1.74-1.74c-.72-.72-.17-1.71.59-1.88.32-.06.67.01.98.32l1.77 1.76c.43-.37 1.08-.38 1.49.03.42.42.41 1.07.03 1.5zm4.55 84.75-2.03-2.03-4.16 4.16.5.52c.22.21.32.49.32.77.24-.02.48-.03.72-.06.5-.06 1.01-.15 1.52-.22zm3.04.1c.2.41.2.9-.14 1.24-.22.21-.5.32-.79.32-.16 0-.3-.11-.45-.19l-.98.99c17.05-3.68 14.6-17.75 7.39-33.08l-.53-1.11c-5.11-10.63-9.64-19.95-17.87-27.48-11.48 9.75-29.29 10.22-40.93.7-5.8 5.15-10.58 11.53-14.18 17.13l.72.72c.41-.18.87-.18 1.21.15.33.33.32.8.15 1.21l10.07 10.07c.44.43.44 1.14 0 1.57-.21.22-.5.32-.78.32-.29 0-.57-.1-.78-.32l-3.61-3.6c-.04.2-.08.41-.24.57l-3.22 3.23 3.76 3.76 2.32-2.32c.43-.43 1.13-.43 1.57 0 .43.44.43 1.14 0 1.57l-2.32 2.32 4.83 4.83.04-.04c.43-.43 1.13-.43 1.57 0 .43.44.43 1.14 0 1.57l-5.51 5.51 4.97 4.96 1.23-1.24-.82-.82c-.44-.44-.44-1.14 0-1.57.43-.44 1.13-.44 1.57 0l.82.82 4.03-4.04c.43-.43 1.13-.43 1.56 0 .44.44.44 1.14 0 1.57l-4.03 4.04 4.03 4.03 6.59-6.58c.43-.44 1.13-.44 1.56 0 .44.43.44 1.13 0 1.57l-.67.67c.28.01.56.11.77.33l3.49 3.48 1.9-1.9c.44-.44 1.14-.44 1.57 0 .44.43.44 1.13 0 1.56l-1.91 1.91 2.02 2.02c.44.43.44 1.13 0 1.57-.22.21-.5.32-.78.32-.7 0-2.29-1.83-2.8-2.34l-4.57 4.57c1.84.05 3.69.12 5.54.12l2.64-2.64 3.22-3.22-.16-.15c-.43-.43-.43-1.13 0-1.57.44-.43 1.14-.43 1.57 0l.15.15 2.4-2.39c.44-.44 1.14-.44 1.57 0 .44.43.44 1.13 0 1.57l-2.4 2.39 2.97 2.97 4.19-4.19c-.09-.36-.06-.74.22-1.02.28-.29.66-.32 1.03-.23l.55-.56c.44-.43 1.14-.43 1.57 0 .44.44.44 1.14 0 1.57l-.4.4 2.7 2.7 4.36-4.36c.24-.23.55-.32.85-.3 0-.01 0-.02.01-.02.43-.44 1.13-.44 1.56 0l2.55 2.54 1.8-1.79c.43-.43 1.13-.44 1.57 0 .43.43.43 1.13 0 1.57zm-225.95 2.34c.95 1.05-.49 2.5-1.54 1.54-.3.3-.33.37-.81.45 3.03.16 6.05.31 9.09.34.04-.13.07-.26.15-.37l-4.42-4.42zm.48-59.46-2.42-2.41-1.15 1.16c1.17.5 2.35.93 3.57 1.25zm1.75-1.37c.44.44.44 1.14 0 1.57-.08.09-.2.08-.31.13.61.13 1.2.31 1.82.39-.09-.05-.2-.03-.27-.11-.44-.43-.44-1.13 0-1.57l1.35-1.35-3.43-3.43-1.76 1.77zm-7.92 55.15 4.11 4.12 2.45-2.45-1.43-1.44c-.43-.43-.44-1.13 0-1.56.43-.44 1.13-.44 1.57 0l1.43 1.43 3.73-3.73c.05-.17.07-.35.2-.48.12-.13.3-.14.47-.19l1.64-1.65c.43-.43 1.13-.43 1.57 0 .43.44.43 1.14 0 1.57l-1.2 1.2 4.39 4.39 4.67-4.67-3.24-3.23c-.43-.44-.43-1.14 0-1.57.44-.44 1.14-.44 1.57 0l3.23 3.23 2.85-2.85c.43-.43 1.13-.44 1.57 0 .43.43.43 1.13 0 1.57l-2.85 2.85 2.87 2.86 3.24-3.25c.44-.43 1.14-.43 1.57 0 .44.44.44 1.14 0 1.57l-3.24 3.25 3.27 3.27c.27-3.31.96-6.13 1.83-9.07.03-.08.04-.16.07-.24-.01 0-.02.01-.03.01-.29 0-.57-.1-.78-.32l-6.85-6.86c-.44-.43-.44-1.13 0-1.57.43-.43 1.13-.43 1.56 0l.66.66c.03-.23.09-.47.27-.66l4.06-4.06-1.84-1.85c-.44-.43-.44-1.13 0-1.57.43-.43 1.13-.43 1.57 0l1.84 1.85 2.7-2.69c.43-.44 1.13-.44 1.57 0 .43.43.43 1.13 0 1.57l-2.7 2.69 2.09 2.09c.72-1.58 1.41-3.05 2.61-5.46.05-.1.09-.19.14-.29l-4.28-4.28c-.15-.16-.18-.35-.22-.55-.04.01-.07.04-.1.04-.29 0-.57-.11-.79-.32-.43-.44-.43-1.14 0-1.57l4.76-4.76-.88-.87c-.43-.44-.43-1.14 0-1.57.44-.44 1.14-.43 1.57 0l.88.87 1.57-1.57c.44-.43 1.14-.43 1.57 0 .43.44.43 1.13 0 1.57l-1.57 1.57 2.14 2.15c.12.11.12.27.18.42.51-.87 1.04-1.76 1.58-2.66.11-.18.2-.35.31-.53-4.32-8.67-8.6-16.14-15.42-22.38-11.24 9.54-28.94 10.42-40.92.69-12.73 11.29-20.84 28.7-23.09 33.91-7.69 17.99-.65 25.27 16.53 27.59 1.35.17 2.71.27 4.06.42-.11-.37-.08-.77.21-1.06l1.85-1.85-1.3-1.29c-.43-.44-.43-1.14 0-1.57.44-.44 1.14-.44 1.57 0l1.27 1.3 9.09-9.08c.43-.43 1.13-.43 1.56 0 .44.43.44 1.13 0 1.57zm.47-56.02 1.72-1.72-2.54-2.55c-.44-.43-.44-1.13 0-1.57s1.14-.43 1.57 0l2.54 2.55 1.77-1.76-.41-.41c-.44-.44-.44-1.14 0-1.57.43-.43 1.13-.43 1.56 0l.41.41 5.71-5.71c.44-.44 1.14-.44 1.57 0 .43.43.43 1.13 0 1.57l-.62.62c.44-.39 1.09-.39 1.5.02l2.67 2.67 4.97-4.98-.65-.64c-.43-.43-.43-1.13 0-1.57.44-.44 1.14-.43 1.57 0l1.2 1.2c.11.06.23.05.32.14.09.08.08.21.13.31l3.39 3.39 4.85-4.85-3.3-3.31-.17.17c-.44.43-1.14.43-1.57 0-.43-.44-.43-1.14 0-1.57l.2-.2c-.35-.44-.37-1.06.04-1.47.4-.4 1.03-.39 1.47-.04l4.64-4.64-.4-.41c-.44-.43-.44-1.13 0-1.57.43-.43 1.13-.43 1.57 0l.4.41 1.61-1.61c.23-.23.53-.34.83-.33.27.01.53.12.74.33.43.43.43 1.13 0 1.56l-1.61 1.61 1.73 1.74c.43.43.43 1.13 0 1.56s-1.13.44-1.57 0l-1.73-1.73-4.61 4.61 4.03 4.04c.02.02.06.01.08.03s.01.06.04.08l.81.82c.43.43.43 1.13 0 1.57-.42.41-1.08.48-1.66-.09l-4.85 4.85 1.36 1.37c.44.43.44 1.13 0 1.57-.43.42-1.13.44-1.57 0l-1.36-1.37-4.97 4.98 1.24 1.24c.23.23.32.53.31.83 13.21-6.07 17.25-19.89 14.96-30.75-.05.09-.04.19-.11.27-.33.32-.81.4-1.2.24-.14-.05-.26-.13-.37-.24l-2.85-2.85-1.12 1.12c-.43.43-1.13.44-1.57 0-.43-.44-.43-1.14 0-1.57l1.25-1.24c-.14-.39-.13-.82.18-1.13.31-.32.74-.32 1.13-.19l1.86-1.85c-11.43-20.01-42.13-18.72-49.59 5-3.29 10.5-.53 21.78 7.04 28.78.01.01.04.02.06.04 1.51 1.39 3.21 2.55 4.99 3.56.13.08.25.16.38.23zm1.92 63.44c-.44-.43-.44-1.13 0-1.57l.18-.18-4.11-4.12-2.17 2.17 1.01 1.02c.44.43.44 1.13 0 1.57-.44.43-1.14.43-1.57 0l-1.01-1.02-1.56 1.56c3.25.35 6.51.61 9.78.8-.2-.04-.4-.07-.55-.23zm238.16-36.98c10.54 22.45 8.54 37.5-16.07 40.56-18.33 2.17-36.17 1.94-53.71-.34-2.23 16.5-13.88 21.14-29.55 23.05-25.61 3.06-50.91 2.69-75.1-.55-14.81-1.92-28.85-6.79-31.38-21.6-15.82 1.45-31.57 1.29-48.29-.96-22.08-2.95-28.12-14.75-20.02-33.7 2.32-5.41 10.7-23.33 23.98-35.24-7.55-8.18-10.2-20.28-6.64-31.61 8.91-28.35 46.44-28.96 58.58-4.28 5.55 11.3 3.44 25.7-4.8 35.15 5.66 5.22 9.7 10.56 15.14 21.15 6.2-9.47 13.03-17.57 20-23.68-10.72-11.13-14.55-27.95-9.61-43.66 12.13-38.62 63.19-39.4 79.71-5.83 7.66 15.62 4.67 35.64-6.97 48.49 8.83 7.89 14.69 17.03 20.26 27.68 3.8-6.73 10-16.11 18.11-23.39-7.56-8.18-10.23-20.29-6.66-31.63 8.93-28.41 46.46-28.92 58.57-4.29 5.55 11.31 3.44 25.7-4.8 35.16 8.69 7.97 12.98 16.47 18.83 28.68zm-73.88 37.56c.14-2.08.08-4.05-.18-5.89-1.01-7.57-4.55-14.98-7.69-21.53-1.57-3.28-3.14-6.58-4.76-9.81-5.71-11.36-11.87-21.9-21.35-30.3-15.4 13.63-40.38 14.83-56.85 1-7.51 6.54-14.91 15.56-21.48 26.22-6.39 10.23-16.64 29.14-15.5 41.29 1.11 13.76 14.25 18.02 27.84 19.79 24.59 3.28 49.49 3.47 73.98.54 13.21-1.62 25.03-5.02 25.99-21.29 0 0 0-.01 0-.02z"/></g></g></svg>