<svg id="Layer_1" enable-background="new 0 0 66 66" height="512" viewBox="0 0 66 66" width="512" xmlns="http://www.w3.org/2000/svg"><g><path d="m22.861 7.448h.003c.276-.002.498-.227.497-.503l-.032-5.257c-.001-.275-.225-.497-.5-.497-.001 0-.002 0-.003 0-.276.002-.499.227-.497.503l.032 5.257c.001.276.225.497.5.497z"/><path d="m25.199 4.748c-.107.444-.085.925.092 1.362.855 2.114 4.052 2.068 5.048-.247.45-1.047.274-2.326-.45-3.258-1.039-1.338-2.64-1.355-3.783-.227-.515.509-.833 1.139-1.099 1.744-.102.231-.015.497.192.626zm1.433-.451c.233-.148.303-.457.155-.69-.061-.097-.15-.165-.25-.202.084-.112.174-.218.273-.316.718-.709 1.622-.732 2.29.129.497.639.625 1.543.321 2.25-.624 1.453-2.672 1.574-3.202.267-.206-.507-.017-1.166.413-1.438z"/><path d="m32.483 7.121c-.018.276.192.513.467.531.011 0 .021.001.032.001.262 0 .482-.204.499-.468.11-1.735.037-3.487-.217-5.209-.041-.273-.294-.466-.567-.422-.273.04-.462.294-.422.567.243 1.653.313 3.335.208 5z"/><path d="m38.214 7.199c.015 0 .031 0 .046-.002.275-.025.477-.269.452-.544l-.441-4.804c-.025-.274-.258-.479-.544-.452-.275.025-.477.268-.452.544l.441 4.804c.024.259.242.454.498.454z"/><path d="m44.737 6.928c1.191-.635 1.854-2.063 1.575-3.393-.56-2.674-4.285-3.603-5.668-.934-.636 1.228-.474 2.711.405 3.687.903 1.005 2.489 1.278 3.688.64zm-3.205-3.868c.97-1.877 3.444-1.026 3.801.679.187.891-.272 1.882-1.066 2.306-.794.423-1.881.236-2.474-.426-.695-.773-.632-1.843-.261-2.559z"/><path d="m25.125 14.199h.002c.275 0 .499-.222.5-.498l.021-4.483c.001-.276-.222-.501-.498-.503-.001 0-.002 0-.002 0-.275 0-.499.222-.5.498l-.021 4.483c-.001.277.222.501.498.503z"/><path d="m30.793 13.821c.011.269.233.479.499.479.007 0 .015 0 .021-.001.276-.012.49-.245.479-.52l-.217-5.101c-.011-.276-.263-.483-.521-.479-.276.012-.49.245-.478.521z"/><path d="m33.022 12.692c.594 1.102 2.084 1.554 3.191.961.789-.422 1.344-1.329 1.484-2.424.102-.789-.029-1.479-.378-1.998-.69-1.025-1.775-1.268-2.828-.631-1.308.791-2.214 2.709-1.469 4.092zm1.986-3.235c.593-.358 1.091-.246 1.481.333.267.396.265.932.215 1.312-.099.775-.459 1.4-.964 1.67-.614.329-1.508.061-1.839-.554-.457-.851.227-2.229 1.107-2.761z"/><path d="m40.56 13.833c.021.002.042.004.063.004.248 0 .464-.185.496-.438.204-1.625.227-3.275.067-4.904-.027-.275-.266-.472-.546-.449-.274.027-.476.271-.449.546.152 1.554.13 3.129-.064 4.682-.036.275.158.525.433.559z"/><path d="m27.789 15.056c-.276.012-.49.245-.478.521l.191 4.381c.012.269.233.479.499.479.007 0 .015 0 .022-.001.276-.012.49-.245.478-.521l-.191-4.381c-.011-.276-.242-.485-.521-.478z"/><path d="m31.894 19.693c.864 1.06 2.691.776 3.323-.779.215-.531.262-1.154.133-1.801-.4-2.007-2.224-2.045-3.118-1.004-.658.766-1.1 2.65-.338 3.584zm1.097-2.933c.466-.543 1.172-.479 1.379.548.063.317.1.788-.079 1.229-.34.836-1.234 1.001-1.622.524-.366-.448-.113-1.794.322-2.301z"/><path d="m38.215 15.107c-.274.036-.466.287-.43.561.222 1.681.187 3.38-.104 5.052-.047.272.135.531.407.578.029.005.058.007.086.007.239 0 .45-.171.492-.415.308-1.771.345-3.572.109-5.354-.036-.272-.289-.464-.56-.429z"/><path d="m49.56 20.59c-10.338 1.988-22.453.39-33.175-.284-.269-.018-.511.19-.53.464-.315 4.479 6.513 10.54 12.512 17.687.069 2.779.403 5.698.459 8.439.003.169.093.326.237.415 2.576 1.593 5.49 2.413 7.458 2.891.321.076.621-.167.618-.491-.036-3.85-.039-7.58-.072-11.266 4.904-4.936 9.283-10.692 13.019-17.113.216-.37-.108-.823-.526-.742zm-2.357 1.375c-.058.004-.116.022-.161.067l-.127.127-.136-.136c.142-.019.283-.039.424-.058zm-10.469 15.382-1.444-1.444 1.668-1.668c.026-.026.027-.062.039-.095l1.387 1.387c.015.015.037.012.055.022-.561.611-1.129 1.21-1.705 1.798zm2.004-2.174-1.697-1.697 1.981-1.981.722.722-.775.775c-.098.098-.098.256 0 .354s.256.098.354 0l.775-.775.303.303c.091.091.242.103.348.002-.66.785-1.314 1.576-1.997 2.329-.008-.01-.005-.023-.014-.032zm6.07-7.505-1.01-1.01 1.489-1.489.324.324c.098.098.256.098.354 0s.098-.256 0-.354l-.324-.324.043-.043c.098-.098.098-.256 0-.353-.098-.098-.256-.098-.354 0l-.043.043-1.175-1.175c-.098-.098-.256-.098-.354 0-.055.055-.071.126-.065.197-.098-.077-.237-.08-.328.011l-3.232 3.232c-.003.003-.002.007-.004.01l-.072-.072c-.098-.098-.256-.098-.354 0s-.098.256 0 .354l.898.898-1.08 1.083c-.098.098-.098.256 0 .354s.256.098.354 0l1.083-1.083 1.267 1.268c.098.098.256.098.354 0s.098-.256 0-.353l-1.267-1.268.656-.656c.098-.098.098-.256 0-.354s-.256-.098-.354 0l-.656.656-.479-.479c.003-.003.008-.002.01-.004l1.652-1.652c-.058.096-.061.217.022.3l.929.929-.315.315c-.098.098-.098.256 0 .354s.256.098.353 0l.315-.315 1.072 1.072c-1.199 1.664-2.465 3.243-3.759 4.782.091-.098.092-.25-.003-.345l-.303-.303.739-.739c.098-.098.098-.256 0-.354s-.256-.098-.354 0l-.739.739-.722-.722 1.331-1.331c.098-.098.098-.256 0-.353-.098-.098-.256-.098-.354 0l-1.331 1.331-.745-.745c-.098-.098-.256-.098-.353 0-.098.098-.098.256 0 .353l.745.745-1.981 1.981-.499-.499c-.098-.098-.256-.098-.354 0s-.098.256 0 .354l.864.865c-.033.012-.069.013-.095.039l-1.771 1.771c-.036.012-.076.014-.104.043s-.031.068-.043.104l-.448.448c-.098.098-.098.256 0 .354s.256.098.354 0l.345-.346 1.45 1.45c-.059.059-.116.122-.175.181-.095.095-.147.224-.146.358.012 1.339.019 2.706.026 4.069-.007-.01-.005-.024-.014-.034l-.849-.849.315-.315c.098-.098.098-.256 0-.354s-.256-.098-.354 0l-.315.315-.998-.998 1.06-1.06c.098-.098.098-.256 0-.354s-.256-.098-.354 0l-1.07 1.07c-.098-.072-.232-.075-.321.014-.091.091-.089.232-.01.33-.079.098-.082.239.01.33.084.084.198.104.321.014l1.007 1.007-.837.837c-.098.098-.098.256 0 .354s.256.098.354 0l.837-.837.849.849c.098.098.256.098.354 0 .01-.01.007-.026.016-.038 0 .007.023 3.7.023 3.705-.098-.08-.24-.082-.331.009l-1.425 1.425c-.098.098-.098.256 0 .354s.256.098.354 0l1.405-1.405c.005.797.008 1.602.015 2.39-.584-.151-1.131-.307-1.655-.469l-1.737-1.737 1.827-1.827.807.807c.098.098.256.098.354 0s.098-.256 0-.354l-.807-.807.132-.132c.098-.098.098-.256 0-.354s-.256-.098-.354 0l-.132.132-.875-.875.132-.132c.098-.098.098-.256 0-.354s-.256-.098-.354 0l-.132.132-1.021-1.021c-.098-.098-.256-.098-.354 0s-.098.256 0 .353l1.021 1.021-1.827 1.827-.683-.683c-.098-.098-.256-.098-.353 0-.098.098-.098.256 0 .354l.683.683-.499.499c-.098.098-.098.256 0 .354s.256.098.354 0l.499-.499 2.269 2.269c-1.369-.482-2.541-1.023-3.608-1.66-.074-2.767-.4-5.632-.456-8.34-.002-.114-.044-.223-.117-.311-6.72-8.034-11.562-11.848-12.359-16.61 9.311.611 19.893 1.878 29.388.75-.007.072.009.144.064.199l.223.223-.53.53c-.098.098-.098.256 0 .354s.256.098.354 0l.53-.53.665.665c-.894 1.417-1.819 2.796-2.775 4.138zm-1.363-1.364-.929-.929c-.083-.083-.204-.08-.3-.022l1.505-1.505c.048-.048.072-.111.072-.175l1.141 1.141zm-11.057 20.21-.875-.875 1.827-1.827.875.875zm15.462-23.421-.582-.582.127-.127c.098-.098.098-.256 0-.354-.047-.047-.108-.068-.169-.07.481-.066.968-.116 1.443-.195-.267.449-.544.887-.819 1.328z"/><path d="m33.065 57.13c.015 0 .03 0 .045-.002.275-.025.478-.268.453-.543l-.44-4.907c-.025-.275-.27-.486-.542-.454-.275.025-.478.268-.454.542l.44 4.908c.023.261.242.456.498.456z"/><path d="m31.585 59.01c-1.459.971-1.62 3.154-.854 4.584.682 1.274 1.939 1.727 3.293 1.163 2.143-.896 2.608-3.914.943-5.432-.927-.845-2.381-.981-3.382-.315zm2.053 4.824c-1.171.49-1.772-.236-2.026-.712-.545-1.02-.436-2.639.527-3.279.619-.413 1.566-.315 2.154.222 1.147 1.045.79 3.165-.655 3.769z"/><path d="m27.131 29.428c.336-.383.637-.796.89-1.234.069-.12.028-.272-.091-.341-.118-.069-.272-.027-.341.091-.227.393-.497.763-.796 1.109l-1.278-1.418c.201-.263.363-.557.464-.87.042-.131-.029-.273-.161-.315s-.272.03-.315.161c-.074.23-.192.444-.333.643l-1.154-1.28.208-.411c.062-.124.013-.274-.11-.336-.123-.061-.274-.014-.336.11l-.121.239-.738-.819c-.093-.103-.251-.112-.353-.018-.103.092-.111.25-.018.353l.868.962-.287.568c-.062.123-.013.273.11.336.125.063.274.012.336-.11l.2-.396 1.068 1.184c-.122.114-.252.22-.395.306-.119.071-.156.225-.085.343.072.12.226.156.343.085.17-.103.325-.227.471-.363l1.273 1.412c-.259.262-.531.511-.825.729-.111.082-.134.239-.052.35.081.11.237.135.35.052.307-.228.591-.487.862-.759l1.426 1.581c.094.104.252.11.353.018.103-.092.111-.25.018-.353z"/></g></svg>