<svg id="Layer_1" enable-background="new 0 0 66 66" height="512" viewBox="0 0 66 66" width="512" xmlns="http://www.w3.org/2000/svg"><g><path d="m9.953 35.012c3.623 2.832 8.731 2.958 13.185 1.781 2.368-.627 4.409-1.529 6.066-2.684 4.617-3.217 7.077-9.104 6.121-14.648-.957-5.546-5.247-10.269-10.674-11.752-7.917-2.166-16.34 2.854-18.776 11.187-1.777 6.079-.23 12.75 4.078 16.116zm-3.118-15.834c2.284-7.814 10.155-12.528 17.552-10.504 4.982 1.361 9.075 5.867 9.953 10.957s-1.469 10.706-5.706 13.658c-1.561 1.087-3.496 1.94-5.751 2.537-4.874 1.287-9.362.704-12.313-1.602-3.978-3.108-5.398-9.361-3.735-15.046z"/><path d="m7.196 38.371c4.562 3.576 11.008 3.751 16.667 2.248.659-.171 1.305-.373 1.937-.589.158 1.091.617 2.062 1.363 2.769.944.883 2.378 1.432 4.067 1.315.049.128.09.255.144.386 1.495 3.479 2.99 6.973 4.472 10.47 1.064 2.455 2.208 4.736 4.495 5.669.605.251 1.26.371 1.923.371 1.556 0 3.164-.662 4.322-1.866 1.451-1.51 2.188-3.745 2.022-6.133 0-.002 0-.003 0-.004-.147-1.915-.877-3.94-2.173-6.021-1.93-3.096-4.782-5.705-8.059-7.411.155-.282.296-.56.407-.838 0-.001.001-.002.001-.003.829-2.114.408-4.504-1.046-5.942-.35-.351-.764-.622-1.227-.819 2.54-3.999 3.567-8.795 2.79-13.276-1.204-7.011-6.63-12.983-13.502-14.862-10.006-2.745-20.667 3.6-23.764 14.161-2.196 7.595-.361 16.091 5.161 20.375zm26.595-2.787h-.235c.077-.073.159-.14.235-.215zm-2.06 1.507v.662h-.995c.278-.173.556-.346.82-.529.06-.042.115-.091.175-.133zm-3.091 4.133h-1.268c-.049 0-.088.028-.127.053-.267-.471-.409-.955-.469-1.396h.617v.672c0 .138.112.25.25.25s.25-.112.25-.25v-.673h.76c-.002.012-.013.02-.013.032zm-.747-1.844v-.142c.007-.003.014-.007.021-.01 1.072-.463 1.521-.727 1.919-.948v1.1zm-.338 2.344h1.085v.889c-.289-.152-.561-.325-.791-.54-.116-.111-.2-.232-.294-.349zm5.744 1.933c.077-.028.155-.058.233-.088.319-.123.64-.263.964-.429l.05.05-1.558 1.558-.731-.731c-.007-.017-.014-.035-.021-.052.012-.003.024-.008.036-.011.337-.071.681-.174 1.027-.297zm1.304 5.858.234.234-.094.094c-.047-.109-.093-.219-.14-.328zm-.975-2.282c-.245-.572-.489-1.147-.734-1.718.018-.011.041-.008.057-.024l.036-.036 1.187 1.187-.514.514c-.022.021-.02.051-.032.077zm11.958.283c1.209 1.941 1.89 3.813 2.025 5.566.144 2.075-.509 4.083-1.746 5.369-1.374 1.428-3.49 1.948-5.145 1.264-1.94-.792-2.979-2.884-3.956-5.139-.158-.373-.318-.743-.476-1.115.123.084.229.067.313-.017.098-.098.098-.256 0-.354l-.182-.182 1.114-1.114c.098-.098.098-.256 0-.354s-.256-.098-.354 0l-1.114 1.114-.288-.288c-.274-.644-.549-1.285-.824-1.929l.236-.236.952.952c.098.098.256.098.354 0s.098-.256 0-.354l-.952-.952.895-.896c.098-.098.098-.256 0-.353-.098-.098-.256-.098-.354 0l-.895.896-1.115-1.115c-.104-.242-.207-.485-.311-.727.025.008.046.03.071.03.064 0 .128-.024.177-.073l.514-.514.483.483c.098.098.256.098.354 0s.098-.256 0-.353l-.483-.483.97-.97c.098-.098.098-.256 0-.354s-.256-.098-.354 0l-.97.969-1.187-1.187 1.558-1.558.443.443-.355.355c-.098.098-.098.256 0 .354s.256.098.354 0l.355-.355 1.131 1.131c.098.098.256.098.354 0s.098-.256 0-.354l-1.131-1.131.847-.847c.098-.098.098-.256 0-.354s-.256-.098-.354 0l-.847.847-.443-.443.063-.063c.098-.098.098-.256 0-.354-.029-.029-.069-.032-.105-.044.136-.083.277-.162.408-.249.102-.068.192-.143.29-.214.157-.113.318-.224.466-.344.011.041.016.084.048.116l1.257 1.257-.46.46c-.098.098-.098.256 0 .354s.256.098.354 0l.466-.466c.046.039.101.065.158.065.064 0 .128-.024.177-.073.092-.092.09-.236.008-.334l.307-.307c.098-.098.098-.256 0-.354s-.256-.098-.354 0l-.301.301-1.257-1.257c-.023-.023-.056-.023-.084-.035.051-.045.093-.095.143-.141.169-.157.335-.316.488-.482.098-.106.187-.216.278-.326.053-.064.112-.125.162-.19l.447.448-.567.567c-.098.098-.098.256 0 .354s.256.098.354 0l.567-.566.478.479c.098.098.256.098.354 0s.098-.256 0-.354l-.351-.351c2.645 1.61 4.93 3.845 6.542 6.431zm-7.734-9.147c-.148.371-.342.743-.585 1.13-.697 1.058-1.781 1.994-3.137 2.709-.909.477-1.794.768-2.665.871-.575.11-1.505.063-2.326-.236v-1.119h1.919c.138 0 .25-.112.25-.25s-.112-.25-.25-.25h-1.918v-1.312c0-.013-.012-.02-.013-.032h.706v.617c0 .138.112.25.25.25s.25-.112.25-.25v-.617h.905c.138 0 .25-.112.25-.25s-.112-.25-.25-.25h-.905v-1.127h1.398v.725c0 .138.112.25.25.25s.25-.112.25-.25v-.725h1.164c.138 0 .25-.112.25-.25s-.112-.25-.25-.25h-1.164v-1.043c.195-.149.395-.291.584-.449.068-.057.131-.12.198-.178h.779v.509c0 .138.112.25.25.25s.25-.112.25-.25v-.509h.786c.138 0 .25-.112.25-.25s-.112-.25-.25-.25h-.786v-.732c.047-.05.091-.103.137-.153.088-.095.177-.189.263-.287.035.019.066.045.109.045h.509v.455c0 .138.112.25.25.25s.25-.112.25-.25v-.455h.248c.138 0 .25-.112.25-.25s-.112-.25-.25-.25h-.248v-.935c.049-.068.104-.129.152-.197.415.15.766.373 1.07.677 1.156 1.146 1.494 3.147.82 4.868zm-2.542-4.688v.276h-.217c.074-.09.144-.185.217-.276zm-32.315-15.406c2.945-10.04 13.056-16.082 22.538-13.475 6.404 1.75 11.66 7.535 12.781 14.067.768 4.432-.314 9.202-2.969 13.091 0 .001 0 .001-.001.002-1.209 1.786-2.675 3.28-4.357 4.442-1.077.748-2.279 1.405-3.588 1.962-.436.185-.883.359-1.341.522 0 0-.001.001-.001.001-.002.001-.003.001-.005.002-.786.29-1.606.547-2.442.763-6.244 1.661-12.003.908-15.798-2.069-5-3.879-6.986-11.807-4.817-19.308z"/><path d="m12.817 18.854c.007.001.015.001.022.001.266 0 .487-.21.499-.478l.203-4.549c.012-.276-.202-.51-.477-.522-.261-.017-.509.201-.522.477l-.203 4.549c-.011.277.202.511.478.522z"/><path d="m16.286 18.855c.195 0 .392-.036.58-.113.619-.252 1.126-.894 1.357-1.717.173-.619.203-1.324.091-2.156-.377-2.805-2.859-2.777-3.293.297-.078.064-.138.15-.167.255-.222.799-.426 1.718-.037 2.507.285.581.868.927 1.469.927zm-.541-2.898c.12-.077.207-.204.227-.357.615-4.799 2.536 1.391.518 2.217-.247.097-.605.019-.776-.33-.201-.408-.108-.982.031-1.53z"/><path d="m20.799 18.854c.007.001.015.001.023.001.266 0 .487-.21.499-.478l.203-4.549c.012-.276-.201-.51-.477-.522-.279-.017-.509.2-.522.477l-.203 4.549c-.012.277.201.511.477.522z"/><path d="m24.269 18.855c.963 0 1.672-.888 1.936-1.83.346-1.236.191-3.801-1.175-4.156-.617-.164-1.283.212-1.649.931-.222.433-.315.914-.378 1.367-.078.063-.137.149-.166.254-.223.798-.427 1.716-.038 2.507.285.581.868.927 1.47.927zm-.542-2.898c.12-.077.207-.205.227-.357.061-.476.123-.968.317-1.345.745-1.455 1.359 1.115.971 2.501-.146.52-.441.926-.77 1.061-.247.097-.604.019-.776-.33-.201-.408-.109-.983.031-1.53z"/><path d="m27.879 18.854c.007.001.015.001.022.001.266 0 .487-.21.499-.478l.203-4.549c.012-.276-.202-.51-.478-.522-.249-.017-.509.201-.521.477l-.203 4.549c-.012.277.202.511.478.522z"/><path d="m13.064 27.557c-.261-.049-.509.201-.522.477l-.203 4.55c-.012.276.202.51.478.521.007.001.015.001.022.001.266 0 .487-.21.499-.478l.203-4.55c.013-.275-.201-.509-.477-.521z"/><path d="m18.314 29.119c-.375-2.787-2.86-2.769-3.293.298-.301.245-.648 1.859-.204 2.762.911 1.85 4.042.998 3.497-3.06zm-2.569 1.089c.12-.077.207-.204.227-.357.622-4.819 2.536 1.396.518 2.216-.247.097-.605.02-.776-.329-.201-.408-.108-.983.031-1.53z"/><path d="m21.046 27.557c-.279-.049-.509.2-.522.477l-.203 4.55c-.012.276.202.51.477.521.007.001.015.001.023.001.266 0 .487-.21.499-.478l.203-4.55c.013-.275-.201-.509-.477-.521z"/><path d="m23.002 29.418c-.078.063-.137.149-.166.253-.223.798-.427 1.716-.038 2.508.286.581.87.927 1.47.927.195 0 .391-.036.58-.113.892-.362 1.755-1.592 1.448-3.874-.376-2.776-2.857-2.795-3.294.299zm2.24 1.589c-.144.512-.446.928-.77 1.059-.247.099-.604.02-.776-.329-.201-.408-.108-.982.032-1.529.12-.077.207-.204.227-.357.061-.476.124-.968.316-1.346.455-.884.901-.243 1.035.747.092.694.071 1.268-.064 1.755z"/><path d="m28.125 27.557c-.249-.049-.509.201-.521.477l-.203 4.55c-.012.276.202.51.478.521.007.001.015.001.022.001.266 0 .487-.21.499-.478l.203-4.55c.012-.275-.202-.509-.478-.521z"/><path d="m9.081 20.432c-.26-.033-.509.201-.521.477l-.203 4.55c-.012.276.202.51.478.522.007.001.015.001.022.001.266 0 .487-.21.499-.478l.203-4.55c.012-.276-.202-.51-.478-.522z"/><path d="m14.331 21.993c-.087-.646-.368-1.766-1.266-1.999-.762-.201-1.749.322-2.028 2.298-.301.242-.648 1.858-.204 2.761.901 1.829 4.048 1.034 3.498-3.06zm-2.569 1.09c.121-.076.208-.204.227-.357.07-.55.261-1.855.824-1.765.736.195.902 3.489-.306 3.98-.534.212-1.154-.252-.745-1.858z"/><path d="m16.542 20.909-.203 4.55c-.012.276.202.51.478.522.231.031.508-.176.521-.477l.203-4.55c.012-.276-.201-.51-.477-.521-.279-.034-.509.2-.522.476z"/><path d="m22.313 21.994c-.087-.646-.367-1.767-1.266-2-.763-.202-1.749.325-2.028 2.298-.301.242-.648 1.858-.204 2.761.903 1.832 4.05 1.028 3.498-3.059zm-2.569 1.089c.121-.076.208-.204.227-.357.294-2.316 1.139-2.175 1.351-.598.094.693.073 1.267-.063 1.753-.453 1.62-2.116 1.564-1.515-.798z"/><path d="m24.418 25.504.203-4.55c.028-.645-.968-.729-.999-.045l-.203 4.55c-.029.66.97.713.999.045z"/><path d="m25.943 25.053c.679 1.379 2.786 1.321 3.406-.902.347-1.234.191-3.802-1.174-4.156-.766-.202-1.75.327-2.028 2.298-.301.241-.648 1.857-.204 2.76zm.929-1.97c.121-.076.208-.204.227-.357.07-.552.261-1.853.824-1.765.71.186.941 3.474-.307 3.98-.534.211-1.153-.253-.744-1.858z"/><path d="m31.024 25.98c.007.001.015.001.023.001.266 0 .487-.21.499-.478l.203-4.55c.012-.276-.201-.51-.477-.521-.268-.033-.509.2-.522.477l-.203 4.55c-.012.276.201.51.477.521z"/><path d="m42.227 17.108c.133 0 .244-.104.25-.239l.203-4.549c.006-.138-.101-.254-.238-.261-.161-.007-.255.102-.261.239l-.203 4.549c-.006.138.101.254.239.261z"/><path d="m47.37 15.461c.164-.585.191-1.258.084-2.057-.332-2.463-2.419-2.551-2.815.418-.074.026-.134.087-.157.168-.21.754-.405 1.618-.054 2.33.613 1.242 2.399 1.075 2.942-.859zm-2.449-1.179c.098-.023.177-.105.19-.211.338-2.65 1.596-2.457 1.847-.601.514 3.832-2.956 4.263-2.037.812z"/><path d="m50.209 17.108c.133 0 .244-.104.25-.239l.203-4.549c.006-.138-.101-.254-.238-.261-.154-.007-.255.102-.261.239l-.203 4.549c-.006.138.101.254.238.261z"/><path d="m55.352 15.461c.165-.586.192-1.259.084-2.057-.299-2.237-1.816-2.22-2.445-.988-.223.436-.307.941-.369 1.406-.074.026-.134.087-.157.168-.21.754-.405 1.618-.054 2.33.61 1.241 2.4 1.075 2.941-.859zm-2.449-1.179c.098-.023.177-.105.19-.211.061-.475.129-1.012.342-1.428.469-.915 1.291-.757 1.504.827.098.729.075 1.336-.07 1.856-.166.593-.517 1.062-.917 1.224-.409.168-.888-.032-1.094-.45-.25-.511-.121-1.193.045-1.818z"/><path d="m57.503 12.059c-.163-.007-.255.102-.261.239l-.203 4.549c-.006.138.101.254.239.261h.011c.133 0 .244-.104.25-.239l.203-4.549c.006-.138-.101-.254-.239-.261z"/><path d="m42.216 31.359h.011c.133 0 .244-.104.25-.239l.203-4.55c.006-.138-.101-.254-.238-.261-.161.001-.255.101-.261.239l-.203 4.55c-.006.138.101.254.238.261z"/><path d="m44.429 30.57c.322.654 1.087.956 1.731.693 1.925-.78 1.653-5.025.213-5.4-1.059-.278-1.576 1.02-1.733 2.209-.247.088-.627 1.654-.211 2.498zm.492-2.037c.099-.023.177-.105.191-.212.1-.781.378-2.179 1.135-1.974.931.242 1.216 3.847-.275 4.453-.417.169-.886-.025-1.095-.451-.251-.509-.123-1.192.044-1.816z"/><path d="m50.198 31.359h.011c.133 0 .244-.104.25-.239l.203-4.55c.006-.138-.101-.254-.238-.261-.154.001-.255.101-.261.239l-.203 4.55c-.007.138.1.254.238.261z"/><path d="m55.435 27.655c-.298-2.231-1.811-2.229-2.445-.989-.223.436-.307.941-.369 1.406-.074.026-.135.087-.157.168-1.217 4.374 3.615 4.17 2.971-.585zm-2.532.878c.099-.023.177-.105.191-.212.34-2.658 1.597-2.455 1.847-.6.526 3.913-2.939 4.189-2.038.812z"/><path d="m57.503 26.309c-.163.001-.255.101-.261.239l-.203 4.55c-.006.138.101.254.239.261h.011c.133 0 .244-.104.25-.239l.203-4.55c.006-.138-.101-.254-.239-.261z"/><path d="m42.216 24.233h.011c.133 0 .244-.104.25-.239l.203-4.549c.006-.138-.101-.254-.238-.261-.161-.023-.255.101-.261.239l-.203 4.549c-.006.138.101.254.238.261z"/><path d="m47.454 20.53c-.33-2.454-2.416-2.575-2.815.417-.074.026-.134.087-.157.168-1.216 4.368 3.612 4.166 2.972-.585zm-2.533.877c.098-.024.177-.106.19-.211.338-2.651 1.596-2.456 1.847-.6.515 3.838-2.956 4.26-2.037.811z"/><path d="m50.198 24.233h.011c.133 0 .244-.104.25-.239l.203-4.549c.006-.138-.101-.254-.238-.261-.154-.023-.255.101-.261.239l-.203 4.549c-.007.138.1.254.238.261z"/><path d="m52.411 23.445c.611 1.242 2.401 1.074 2.941-.859.165-.586.192-1.259.084-2.056-.298-2.226-1.809-2.232-2.445-.989-.223.436-.307.941-.369 1.406-.074.026-.134.087-.157.168-.21.754-.405 1.618-.054 2.33zm.492-2.038c.098-.024.177-.106.19-.211.061-.475.129-1.012.342-1.428.472-.92 1.292-.751 1.504.828.098.729.075 1.335-.07 1.854-.397 1.421-1.583 1.642-2.011.773-.25-.509-.121-1.191.045-1.816z"/><path d="m57.503 19.184c-.163-.023-.255.101-.261.239l-.203 4.549c-.006.138.101.254.239.261h.011c.133 0 .244-.104.25-.239l.203-4.549c.006-.138-.101-.254-.239-.261z"/><path d="m61.483 18.738c-.58-.154-1.104.294-1.364.803-.223.436-.307.941-.369 1.406-.074.026-.134.087-.157.168-.21.755-.405 1.619-.054 2.33.243.493.737.788 1.245.788.164 0 .328-.03.486-.095 1.929-.787 1.646-5.026.213-5.4zm-.402 4.938c-.415.169-.885-.025-1.094-.451-.252-.51-.123-1.192.044-1.817.098-.024.177-.106.19-.211.061-.475.129-1.012.342-1.428.169-.33.498-.624.793-.546.931.241 1.218 3.844-.275 4.453z"/><path d="m64.631 19.184c-.163-.023-.255.101-.261.239l-.203 4.549c-.006.138.101.254.239.261h.011c.133 0 .244-.104.25-.239l.203-4.549c.005-.138-.101-.254-.239-.261z"/><path d="m9.22 43.488c-.162.01-.255.101-.261.239l-.203 4.55c-.006.138.101.254.238.261h.011c.133 0 .244-.104.25-.239l.203-4.55c.007-.138-.1-.254-.238-.261z"/><path d="m12.938 48.442c1.923-.778 1.651-5.024.214-5.399-.583-.152-1.104.293-1.364.803-.222.435-.307.939-.369 1.406-.074.026-.135.087-.157.168-.21.755-.404 1.619-.054 2.33.323.656 1.087.954 1.73.692zm-1.238-2.73c.098-.023.177-.105.19-.211.064-.498.13-1.013.343-1.429 1.238-2.418 2.546 3.083.518 3.907-.416.169-.886-.025-1.095-.45-.251-.51-.122-1.192.044-1.817z"/><path d="m16.941 43.727-.203 4.55c-.006.138.101.254.239.261h.011c.133 0 .244-.104.25-.239l.203-4.55c.015-.334-.486-.341-.5-.022z"/><path d="m21.134 43.043c-1.044-.274-1.571.985-1.734 2.209-.074.026-.134.087-.157.168-.21.754-.405 1.618-.054 2.33.323.656 1.087.954 1.731.692 1.96-.793 1.606-5.036.214-5.399zm-.401 4.936c-.414.169-.886-.025-1.095-.45-.251-.511-.123-1.193.044-1.817.098-.023.177-.105.191-.211.1-.781.373-2.171 1.136-1.974.999.26 1.179 3.861-.276 4.452z"/><path d="m24.282 43.488c-.165.01-.255.101-.261.239l-.203 4.55c-.015.329.484.357.499.021l.203-4.55c.006-.137-.101-.253-.238-.26z"/><path d="m8.959 57.978-.203 4.549c-.006.138.101.254.238.261h.011c.133 0 .244-.104.25-.239l.204-4.549c.006-.138-.101-.254-.239-.261-.162-.022-.255.101-.261.239z"/><path d="m14.149 61.141c.164-.584.191-1.257.084-2.056-.327-2.446-2.413-2.574-2.814.417-.074.026-.135.087-.157.168-1.023 3.676 2.167 4.039 2.887 1.471zm-2.449-1.178c.098-.023.177-.105.19-.211.1-.777.378-2.186 1.136-1.975.962.25 1.18 3.858-.275 4.453-.736.297-1.571-.317-1.051-2.267z"/><path d="m16.977 62.788h.011c.133 0 .244-.104.25-.239l.202-4.549c.006-.138-.101-.254-.238-.261-.156-.023-.255.101-.261.239l-.203 4.549c-.006.138.101.254.239.261z"/><path d="m19.401 59.502c-.074.026-.135.087-.157.168-1.215 4.368 3.611 4.17 2.971-.585-.327-2.446-2.419-2.575-2.814.417zm1.332 2.728c-.417.169-.886-.026-1.095-.451-.251-.511-.123-1.192.043-1.816.099-.023.177-.105.191-.212.06-.474.129-1.01.342-1.428 1.241-2.416 2.546 3.079.519 3.907z"/><path d="m24.021 57.978-.203 4.549c-.006.138.101.254.238.261h.011c.133 0 .244-.104.25-.239l.203-4.549c.006-.138-.101-.254-.239-.261-.164-.022-.254.101-.26.239z"/><path d="m2.092 50.614c-.163-.007-.255.102-.261.239l-.203 4.549c-.006.138.101.254.238.261h.011c.133 0 .244-.104.249-.239l.203-4.549c.008-.138-.099-.254-.237-.261z"/><path d="m4.66 50.971c-.223.436-.307.94-.369 1.406-.074.026-.135.087-.157.168-.21.755-.404 1.62-.054 2.33.595 1.21 2.388 1.111 2.941-.859.164-.584.191-1.257.084-2.057-.298-2.223-1.809-2.233-2.445-.988zm-.088 1.866c.099-.022.177-.105.191-.211.338-2.649 1.597-2.457 1.847-.601.519 3.886-2.941 4.203-2.038.812z"/><path d="m9.813 50.853-.203 4.549c-.006.138.101.254.239.261h.011c.133 0 .244-.104.25-.239l.203-4.549c.006-.138-.101-.254-.238-.261-.158-.007-.256.102-.262.239z"/><path d="m15.087 51.959c-.326-2.435-2.412-2.584-2.814.418-.074.026-.135.087-.157.168-.21.755-.404 1.62-.054 2.33.595 1.21 2.388 1.111 2.941-.859.164-.585.191-1.258.084-2.057zm-.566 1.922c-.399 1.422-1.584 1.64-2.011.773-.251-.51-.122-1.192.044-1.817.098-.023.177-.105.19-.211.5-3.885 2.508-1.359 1.777 1.255z"/><path d="m16.94 55.663c.133 0 .244-.104.25-.239l.203-4.549c.006-.138-.101-.254-.239-.261-.166-.007-.255.102-.261.239l-.203 4.549c-.006.138.101.254.238.261z"/><path d="m22.215 51.959c-.297-2.222-1.809-2.234-2.445-.988-.223.437-.307.94-.369 1.406-.074.026-.134.087-.157.168-1.198 4.306 3.616 4.213 2.971-.586zm-1.483 3.145c-.728.302-1.57-.316-1.05-2.268.098-.023.177-.105.191-.211.06-.474.129-1.011.342-1.428 1.232-2.4 2.556 3.08.517 3.907z"/><path d="m24.021 50.853-.203 4.549c-.006.138.101.254.238.261h.011c.133 0 .244-.104.25-.239l.203-4.549c.014-.322-.484-.368-.499-.022z"/></g></svg>