<svg id="Layer_1" enable-background="new 0 0 66 66" height="512" viewBox="0 0 66 66" width="512" xmlns="http://www.w3.org/2000/svg"><g><path d="m19.379 26.343c.799.386 1.643.579 2.511.579.886 0 1.796-.202 2.704-.604 2.147-.953 3.793-3.057 4.295-5.491.528-2.572-.348-5.264-2.182-6.696-1.805-1.411-4.496-1.635-6.857-.569-3.607 1.627-5.191 4.433-4.348 7.696.604 2.333 2.017 4.186 3.877 5.085zm-2.908-5.336c-.022-.085-.032-.164-.05-.247l2.059 2.06c.001.001.003 0 .003.001l-.798.798c-.54-.74-.959-1.624-1.214-2.612zm6.443-7.116c.316 0 .626.029.929.078l.236.236c-.05.008-.102.019-.141.058l-.416.416-.779-.779c.057-.002.114-.009.171-.009zm-.825.062.427.427c-.069-.004-.137.016-.19.068l-.945.945-.976-.977c.551-.234 1.118-.387 1.684-.463zm-5.496 3.938 1.176 1.176-.847.847c-.098.098-.098.256 0 .354.097.097.255.098.354 0l.847-.847 1.347 1.347c.097.097.256.098.353 0 .098-.098.098-.256 0-.354l-1.347-1.347.795-.795c.098-.098.098-.256 0-.354s-.256-.098-.354 0l-.795.796-1.282-1.282c-.009-.009-.022-.006-.032-.013.298-.564.697-1.048 1.142-1.459l.469.469-1.002 1.003c-.098.098-.098.256 0 .353.097.097.255.098.354 0l1.002-1.003 1.965 1.965c.097.097.255.098.354 0 .098-.098.098-.256 0-.354l-1.965-1.965.569-.569c.098-.098.098-.256 0-.354s-.256-.098-.353 0l-.569.569-.442-.442c.543-.433 1.12-.769 1.639-1.023.009.047.018.096.055.133l1.002 1.003-.444.444c-.098.098-.098.256 0 .354.097.097.255.098.354 0l.444-.444.507.507c.099.099.257.096.353 0 .098-.098.098-.256 0-.353l-.507-.507.945-.945c.052-.052.072-.121.068-.19l.523.523c.012.037.015.077.044.106s.069.032.106.044l.086.086c.097.097.255.098.354 0 .091-.091.089-.232.01-.33l.423-.423c.039-.039.05-.09.058-.141l.368.368c.097.097.255.098.353 0s.098-.256 0-.354l-.262-.262c.463.169.9.392 1.282.69 1.541 1.204 2.271 3.498 1.817 5.707-.438 2.123-1.863 3.955-3.722 4.779-1.52.675-3.033.688-4.373.039-.684-.33-1.292-.823-1.813-1.432l1.548-1.548c.098-.098.098-.256 0-.354s-.256-.098-.354 0l-.36.36c-.001-.001 0-.002-.001-.003l-2.428-2.428c-.028-.028-.066-.03-.101-.042-.066-.791.047-1.492.287-2.105z"/><path d="m19.816 31.899c.086.689.17 1.382.236 2.075.028.291.301.504.604.441.991-.216 1.999-.152 3.102-.182.286-.008.511-.256.484-.549-.063-.643-.052-1.292.035-1.932 1.518-.378 3.009-1.057 4.301-2.018.652.509 1.424 1.1 2.042 1.608.234.191.578.133.739-.118.543-.854 1.356-1.573 2.061-2.316.2-.213.177-.547-.046-.73-.625-.514-1.168-1.113-1.619-1.785.836-1.246 1.475-2.643 1.864-4.078.83-.101 1.811-.229 2.605-.301.3-.028.508-.313.442-.607-.222-.997-.151-2.034-.182-3.1-.008-.281-.242-.505-.549-.483-.622.061-1.254.048-1.888-.036-.146-1.81-.662-3.528-1.507-5.009.346-.446.692-.894 1.052-1.333.19-.231.133-.578-.118-.738-.86-.546-1.57-1.355-2.316-2.062-.203-.193-.543-.184-.732.047-.247.304-.518.589-.809.851-1.463-1.015-3.223-1.622-5.134-1.77-.087-.725-.145-1.125-.225-1.937-.03-.289-.302-.503-.605-.439-.986.215-1.996.152-3.097.182-.292.008-.514.265-.483.55.069.704.048 1.41-.064 2.105-1.474.419-2.998 1.178-4.176 1.924-1-.781-1.517-1.178-2.138-1.688-.243-.196-.582-.126-.738.117-.548.852-1.352 1.571-2.063 2.318-.2.213-.177.547.046.73.546.45 1.032.97 1.45 1.55-1.048 1.32-1.722 2.781-2.007 4.352-.761.092-1.538.198-2.295.268-.298.029-.505.311-.441.604.218.995.151 2.029.182 3.097.008.286.252.509.551.483.719-.075 1.453-.048 2.189.078.387 1.505.905 2.864 1.753 4.271-.508.652-1.093 1.413-1.602 2.028-.192.233-.136.579.117.74.86.547 1.571 1.356 2.317 2.062.201.19.538.186.729-.044.414-.5.886-.95 1.405-1.342 1.358 1.081 2.908 1.807 4.528 2.116zm-6.343-1.819c-.537-.528-1.03-1.039-1.636-1.497.333-.414 1.132-1.443 1.489-1.901.132-.167.144-.398.029-.578-.942-1.483-1.603-3.211-1.876-4.565-.039-.197-.192-.351-.389-.392-.758-.158-1.522-.223-2.268-.191-.009-.755.004-1.452-.1-2.21.389-.043 1.664-.201 2.153-.26.227-.026.407-.202.439-.427.23-1.646.932-3.168 2.084-4.523.144-.169.159-.413.037-.598-.416-.633-.902-1.21-1.451-1.718.523-.527 1.052-1.05 1.497-1.636.357.286 1.592 1.249 2.016 1.581.169.134.406.144.587.024 1.229-.817 2.892-1.661 4.486-2.07.189-.049.33-.199.368-.387.144-.712.2-1.437.171-2.162.758-.008 1.456.004 2.213-.1.064.578.15 1.261.223 1.837.029.243.23.428.475.439 2.018.085 3.858.718 5.323 1.831.185.14.439.135.618-.01.314-.256.611-.535.888-.833.539.53 1.027 1.038 1.635 1.497-.328.413-.614.786-.937 1.203-.127.164-.14.39-.031.567.928 1.513 1.469 3.326 1.565 5.242.011.232.181.425.409.467.667.122 1.336.172 2.008.145 0 .726 0 1.51.098 2.217-.581.062-1.057.124-2.43.292-.208.024-.379.175-.428.378-.375 1.54-1.063 3.045-1.988 4.354-.116.164-.123.38-.018.551.445.722.983 1.375 1.603 1.948-.53.538-1.04 1.03-1.497 1.635-.676-.539-1.27-.987-1.942-1.52-.183-.145-.441-.144-.622.001-1.353 1.077-2.959 1.801-4.541 2.143-.199.043-.351.202-.387.402-.115.657-.16 1.323-.134 1.987-.759.008-1.455-.004-2.216.1-.07-.647-.15-1.293-.231-1.936-.028-.222-.2-.399-.422-.432-1.718-.257-3.299-.999-4.7-2.204-.173-.148-.422-.161-.609-.033-.57.39-1.093.84-1.561 1.342z"/><path d="m55.888 25.393c-1.657-1.296-4.129-1.502-6.298-.524-3.311 1.494-4.765 4.07-3.989 7.069.555 2.14 1.852 3.841 3.56 4.666.734.354 1.511.532 2.308.532.813 0 1.649-.185 2.483-.555 1.972-.875 3.481-2.805 3.94-5.038.488-2.362-.318-4.833-2.004-6.15zm-8.698 2.55.869.869-.972.972c-.086.086-.083.215-.017.312l-.436-.436c-.043-.043-.1-.06-.157-.065.119-.632.376-1.179.713-1.652zm-.62 3.745c-.145-.56-.186-1.071-.16-1.544l1.803 1.803-1.126 1.127c-.214-.434-.39-.897-.517-1.386zm10.343-.347c-.395 1.922-1.684 3.58-3.367 4.326-1.37.61-2.737.623-3.949.037-.909-.439-1.698-1.214-2.273-2.192.018-.011.04-.008.056-.023l1.188-1.189.49.49c.097.097.255.098.354 0 .098-.098.098-.256 0-.354l-.49-.49.919-.919c.098-.098.098-.256 0-.354s-.256-.098-.354 0l-.919.919-1.439-1.439c.122.083.227.067.312-.017l.972-.972.764.764c.097.097.255.098.353 0s.098-.256 0-.354l-.764-.764.294-.294c.098-.098.098-.256 0-.354-.097-.097-.255-.099-.354 0l-.294.294-.91-.91c.431-.49.939-.889 1.442-1.203l1.558 1.559c.099.099.257.096.354 0 .098-.098.098-.256 0-.353l-1.465-1.466c.212-.115.419-.218.612-.305.267-.121.541-.213.815-.292l.562.561-.506.506c-.098.098-.098.256 0 .354.096.097.255.099.354 0l.506-.506.701.701c.097.097.255.098.354 0 .098-.098.098-.256 0-.354l-.71-.71c.074-.098.077-.234-.012-.324-.09-.09-.227-.086-.324-.012l-.351-.351c.339-.062.679-.1 1.014-.1 1.068 0 2.084.314 2.869.928 1.391 1.09 2.05 3.163 1.638 5.162z"/><path d="m64.988 32.053c-.201-.902-.137-1.818-.164-2.818-.008-.274-.241-.513-.549-.484-.552.055-1.115.044-1.677-.028-.137-1.635-.604-3.186-1.362-4.525.31-.398.62-.799.941-1.192.191-.233.133-.579-.119-.738-.778-.494-1.427-1.233-2.104-1.875-.205-.195-.543-.182-.73.046-.219.267-.457.518-.71.749-1.325-.911-2.913-1.458-4.638-1.599l-.003-.022c-.07-.567-.142-1.135-.197-1.707-.03-.291-.303-.502-.605-.439-.899.196-1.815.137-2.815.165-.292.008-.514.264-.483.549.063.63.044 1.261-.054 1.88-1.335.382-2.714 1.073-3.767 1.736-.621-.486-1.355-1.052-1.925-1.519-.236-.194-.579-.13-.737.117-.5.778-1.232 1.427-1.875 2.107-.199.209-.178.545.046.729.487.401.921.863 1.295 1.377-.941 1.194-1.55 2.513-1.813 3.931-1 .122-1.424.18-2.06.24-.302.029-.506.315-.441.605.197.898.137 1.815.165 2.814.008.291.263.513.551.484.644-.067 1.3-.043 1.957.065.33 1.336.86 2.651 1.58 3.853-.456.584-.989 1.277-1.441 1.824-.192.235-.134.58.117.74.778.494 1.431 1.236 2.106 1.875.203.194.541.183.729-.044.369-.445.787-.846 1.247-1.196 1.225.973 2.624 1.628 4.086 1.913.077.617.152 1.238.211 1.859.028.289.299.505.604.441.905-.197 1.82-.137 2.82-.165.286-.008.511-.256.484-.549-.057-.574-.047-1.152.027-1.722 1.326-.334 2.682-.936 3.882-1.82.631.496 1.177.904 1.834 1.444.244.198.584.125.739-.118.492-.774 1.236-1.432 1.875-2.105.201-.214.175-.549-.046-.73-.558-.459-1.045-.994-1.452-1.594.751-1.123 1.326-2.383 1.682-3.678.757-.092 1.615-.204 2.346-.271.301-.025.508-.311.443-.605zm-3.244-.073c-.208.024-.379.175-.428.378-.342 1.401-.967 2.768-1.807 3.954-.116.164-.123.381-.018.552.401.65.884 1.238 1.437 1.754-.452.452-.924.924-1.311 1.427-.292-.232-1.354-1.06-1.735-1.358-.183-.145-.441-.144-.622.001-1.24.988-2.708 1.639-4.122 1.945-.199.043-.352.202-.387.402-.104.586-.145 1.181-.124 1.776-.657.005-1.285 0-1.937.085-.063-.575-.134-1.15-.206-1.721-.028-.222-.2-.399-.422-.432-1.558-.233-2.992-.906-4.264-2-.173-.148-.423-.161-.609-.033-.508.349-.976.75-1.396 1.197-.477-.468-.89-.898-1.428-1.31.267-.334 1.033-1.318 1.33-1.698.132-.167.144-.399.029-.578-.851-1.339-1.457-2.916-1.705-4.147-.039-.197-.191-.351-.388-.392-.678-.142-1.359-.197-2.034-.178 0-.632-.005-1.317-.085-1.931.357-.039 1.486-.18 1.92-.233.225-.026.406-.202.438-.427.21-1.493.846-2.873 1.891-4.102.143-.169.159-.412.037-.598-.372-.567-.807-1.086-1.296-1.545.472-.487.879-.868 1.309-1.428.354.283 1.381 1.083 1.803 1.414.17.134.405.144.587.024 1.097-.728 2.609-1.504 4.077-1.882.187-.048.328-.198.366-.386.128-.636.182-1.286.159-1.936.677-.01 1.238.005 1.933-.085.055.492.134 1.112.198 1.631.029.243.231.428.475.438 1.831.077 3.501.651 4.829 1.661.185.14.44.135.619-.01.274-.225.537-.469.782-.731.466.461.902.908 1.427 1.311-.253.319-.569.727-.828 1.061-.127.164-.14.391-.03.568.841 1.371 1.332 3.016 1.42 4.758.012.232.181.425.409.467.597.109 1.203.152 1.795.135 0 .639.001 1.314.083 1.937-.496.057-1.631.199-2.171.265z"/><path d="m33.39 43.37c-1.543-1.206-3.841-1.398-5.859-.489-3.078 1.389-4.43 3.786-3.707 6.577.515 1.989 1.721 3.569 3.31 4.337 3.25 1.571 7.31-.761 8.124-4.704.45-2.197-.3-4.496-1.868-5.721zm-4.443.085-.18.18-.103-.103c.094-.028.188-.055.283-.077zm-1.004.337c.078-.035.158-.061.236-.092.012.031.013.067.038.092l.196.196-.009.009c-.098.098-.098.256 0 .354.097.097.255.098.353 0l.009-.009.516.515-1.189 1.189c-.04.04-.053.093-.06.145l-.465-.465.046-.046c.098-.098.098-.256 0-.354s-.256-.098-.353 0l-.046.046-.729-.728c.496-.371 1.015-.652 1.457-.852zm-1.846 1.168.765.765-1.416 1.415-.539-.539c.265-.66.697-1.203 1.19-1.641zm-1.427 3.583c-.062-.513-.036-.983.063-1.408l.368.368c-.074.098-.077.234.012.324.083.083.2.105.324.013l1.435 1.435c.097.097.155.072.243.046l-.8.8-1.53-1.53c-.032-.032-.074-.037-.115-.048zm.838 2.385c-.286-.477-.511-1.01-.671-1.578l1.125 1.125zm8.77-2.039c-.694 3.362-4.101 5.268-6.71 4.005-.689-.333-1.301-.88-1.792-1.565.021-.011.046-.009.064-.027l.475-.475.325.325c.097.097.255.098.354 0 .098-.098.098-.256 0-.354l-.325-.325.889-.889c.098-.098.098-.256 0-.354-.084-.084-.209-.081-.305-.02.052-.095.055-.211-.026-.291l-1.427-1.424 1.416-1.415.941.941c.097.097.255.098.354 0 .098-.098.098-.256 0-.354l-.208-.208c.052-.007.105-.02.145-.06l1.189-1.189.103.103c.097.097.255.098.354 0 .098-.098.098-.256 0-.354l-.276-.276c-.001-.002-.001-.004-.002-.005s-.004-.001-.005-.002l-.689-.688.659-.659c.123-.009.246-.02.367-.02.072 0 .14.013.212.016l.831.831c.097.097.255.098.354 0 .098-.098.098-.256 0-.353l-.369-.369c.59.131 1.141.365 1.602.725 1.273.995 1.876 2.897 1.5 4.73z"/><path d="m41.662 46.949c-.008-.283-.251-.51-.549-.483-.497.048-1.005.041-1.51-.022-.13-1.496-.558-2.915-1.249-4.144.28-.362.563-.725.854-1.081.191-.232.133-.578-.118-.738-.711-.452-1.32-1.141-1.94-1.728-.203-.192-.542-.185-.731.047-.192.236-.402.459-.628.667-1.218-.831-2.672-1.332-4.249-1.465-.023-.163-.132-1.055-.183-1.567-.028-.293-.308-.503-.604-.438-.827.18-1.737.127-2.594.151-.292.008-.514.264-.483.549.056.569.04 1.141-.047 1.705-1.201.347-2.446.962-3.443 1.587-.573-.448-1.222-.948-1.757-1.387-.24-.196-.582-.127-.738.117-.462.72-1.136 1.314-1.729 1.941-.2.213-.177.547.046.73.439.362.833.779 1.173 1.244-.857 1.095-1.414 2.303-1.66 3.599-.597.072-1.301.164-1.873.218-.297.028-.505.31-.441.604.177.817.128 1.744.15 2.595.008.293.265.513.551.483.582-.06 1.178-.041 1.774.056.274 1.135.771 2.394 1.445 3.525-.442.565-.878 1.136-1.315 1.665-.192.235-.134.58.117.74.708.451 1.323 1.142 1.939 1.728.205.194.542.181.729-.044.333-.401.71-.764 1.123-1.082 1.123.888 2.403 1.487 3.742 1.751.07.562.138 1.126.191 1.69.028.291.301.504.605.441.834-.182 1.74-.128 2.6-.152.285-.008.511-.255.484-.549-.052-.518-.044-1.041.021-1.557 1.247-.319 2.476-.875 3.553-1.666.52.406 1.19.922 1.671 1.317.232.192.579.134.739-.118.459-.722 1.139-1.316 1.729-1.941.2-.211.177-.548-.046-.73-.506-.416-.948-.9-1.319-1.443.685-1.031 1.21-2.182 1.537-3.364.688-.084 1.475-.187 2.142-.247.302-.028.507-.315.442-.606-.182-.817-.129-1.745-.151-2.598zm-2.889 2.5c-.208.024-.379.175-.429.378-.313 1.288-.887 2.547-1.662 3.641-.116.164-.123.381-.017.552.365.592.803 1.129 1.304 1.602-.411.416-.801.799-1.163 1.264-.257-.205-1.255-.983-1.573-1.231-.183-.144-.441-.144-.622.001-1.147.914-2.504 1.511-3.794 1.79-.199.043-.351.202-.387.402-.094.532-.133 1.071-.116 1.609-.592.006-1.119 0-1.717.074-.057-.519-.121-1.037-.186-1.553-.028-.223-.2-.399-.422-.432-1.433-.214-2.752-.833-3.921-1.838-.172-.148-.42-.162-.609-.033-.461.317-.887.68-1.271 1.084-.4-.4-.818-.817-1.264-1.163.202-.253.967-1.236 1.204-1.54.132-.167.143-.398.029-.578-.786-1.237-1.346-2.696-1.57-3.82-.112-.566-1.661-.57-2.237-.558 0-.553-.006-1.172-.073-1.711.298-.034 1.365-.165 1.734-.21.226-.026.407-.202.438-.427.192-1.372.777-2.641 1.738-3.771.144-.169.159-.413.037-.598-.339-.517-.732-.989-1.175-1.408.421-.433.777-.77 1.162-1.265.268.215 1.35 1.059 1.636 1.283.169.134.406.144.587.024 1.011-.671 2.4-1.385 3.756-1.734.186-.048.328-.198.366-.386.117-.58.167-1.17.149-1.759.59-.006 1.118 0 1.714-.074.05.447.121 1.01.179 1.47.029.243.23.428.475.438 1.684.071 3.219.599 4.441 1.527.184.139.439.135.619-.011.247-.201.48-.419.699-.65.399.399.826.823 1.265 1.163-.238.3-.501.641-.742.951-.127.165-.14.391-.03.568.774 1.262 1.226 2.776 1.307 4.379.012.232.181.425.409.467.542.098 1.077.141 1.628.126 0 .561.003 1.168.072 1.717-.462.054-1.459.178-1.968.24z"/><path d="m40.607 14.981c.012 0 .023 0 .034-.001.275-.019.484-.257.466-.533l-.442-6.575c-.018-.276-.278-.473-.532-.465-.275.018-.484.257-.466.533l.442 6.575c.018.264.237.466.498.466z"/><path d="m47.366 14.666h.004c.276-.002.498-.228.496-.504-.017-2.106-.22-4.221-.604-6.288-.05-.272-.308-.453-.583-.4-.272.051-.45.312-.399.583.373 2.009.57 4.065.587 6.113.001.274.225.496.499.496z"/><path d="m51.016 10.428c-.194.855-.104 1.744.291 2.473 1.21 2.227 4.878 2.241 5.393-1.216.174-1.161-.112-2.296-.785-3.114-1.882-2.29-5.331-.859-4.979 1.647.01.078.038.149.08.21zm1.389-1.579c.805-.763 2.071-.454 2.737.356.486.591.699 1.462.569 2.331-.369 2.468-2.75 2.314-3.525.887-.456-.842-.332-2.004.31-2.892.157-.216.115-.516-.091-.682z"/><path d="m61.627 14.875c.02 0 .038-.001.058-.003.274-.031.472-.279.441-.553l-.729-6.418c-.031-.275-.286-.474-.554-.44-.274.031-.472.278-.44.553l.729 6.419c.028.254.244.442.495.442z"/><path d="m44.195 45.6c-.272.051-.45.312-.399.583.373 2.009.57 4.065.587 6.113.002.275.226.496.5.496h.004c.276-.002.498-.228.496-.504-.017-2.106-.22-4.221-.604-6.288-.051-.271-.31-.453-.584-.4z"/><path d="m48.452 48.344c.011.078.039.149.081.211-.194.854-.104 1.743.291 2.472 1.205 2.218 4.873 2.254 5.393-1.216.174-1.161-.112-2.296-.785-3.114-1.902-2.309-5.327-.829-4.98 1.647zm4.776 1.319c-.373 2.496-2.763 2.29-3.525.887-.456-.842-.331-2.004.311-2.892.156-.217.114-.517-.092-.683.808-.766 2.074-.449 2.737.357.486.591.699 1.462.569 2.331z"/><path d="m58.359 45.587c-.274.031-.472.278-.44.553l.729 6.418c.029.255.245.443.496.443.02 0 .038-.001.058-.003.274-.031.472-.279.44-.553l-.729-6.417c-.031-.276-.285-.48-.554-.441z"/><path d="m1.408 35.114c-.271.051-.45.312-.399.583.373 2.009.57 4.066.587 6.113.002.275.225.496.5.496h.004c.276-.002.498-.228.496-.504-.017-2.106-.22-4.221-.605-6.288-.05-.271-.31-.45-.583-.4z"/><path d="m5.665 37.858c.011.079.04.15.081.211-.194.855-.104 1.744.292 2.471 1.203 2.22 4.872 2.254 5.392-1.215.175-1.16-.111-2.295-.785-3.115-1.887-2.291-5.331-.855-4.98 1.648zm4.776 1.319c-.369 2.469-2.753 2.312-3.524.886-.457-.841-.332-2.002.31-2.892.156-.217.114-.517-.092-.682.804-.762 2.069-.456 2.737.357.487.592.7 1.463.569 2.331z"/><path d="m15.572 35.101c-.274.031-.472.279-.44.553l.728 6.417c.029.255.245.444.496.444.02 0 .038-.001.058-.003.274-.031.472-.278.441-.553l-.729-6.418c-.031-.275-.285-.475-.554-.44z"/></g></svg>