<svg id="Layer_1" enable-background="new 0 0 66 66" height="512" viewBox="0 0 66 66" width="512" xmlns="http://www.w3.org/2000/svg"><g><g id="XMLID_1_"><path d="m48.77 47.98c.61.32 1.36.35 2.21.36l1.1.02c.27 0 .49.23.49.51l-.03 1.69c-.01.52-.02 1.07.14 1.54.43 1.34 1.7 1.12 2.22.1.32-.61.35-1.36.36-2.19l.02-1.11c.01-.27.23-.48.5-.48h.01l1.53.02c.56.01 1.08.02 1.56-.12.47-.14.85-.42.99-.75.28-.62-.13-1.34-.65-1.69-.49-.34-1.07-.19-1.68-.19-.56.01-1.14.01-1.7.01-.14 0-.27-.05-.36-.15-.09-.09-.15-.22-.14-.36l.02-1.53c.01-.53.02-1.08-.12-1.56-.4-1.42-1.76-1.35-2.44-.34-.25.37-.23.72-.2 1.21.03.55.02 1.61.02 2.17 0 .14-.05.26-.15.36-.09.09-.23.14-.35.14l-1.7-.02c-.51-.01-1.06-.02-1.55.14-1.35.43-1.1 1.7-.1 2.22zm-.46.89c-1.85-.97-1.89-3.38.26-4.06.63-.21 1.26-.2 1.87-.19l1.18.01c0-.44 0-1.16-.02-1.6-.03-.56-.07-1.19.38-1.84 1.2-1.77 3.61-1.54 4.22.63.18.62.17 1.25.16 1.85l-.01 1.03c.39 0 .79 0 1.18-.01.9-.01 1.48-.17 2.26.36 1.72 1.17 1.6 3.59-.63 4.23-.62.18-1.25.17-1.84.16l-1.05-.02-.01.6c-.01.96-.05 1.83-.47 2.64-.95 1.85-3.37 1.9-4.06-.25-.21-.62-.2-1.29-.19-1.87l.02-1.19-.6-.01c-.97-.01-1.84-.05-2.65-.47z"/><path d="m19.76 14.78.48.49.32-.32c-.07-.02-.14-.05-.22-.07-.12-.02-.25-.04-.37-.06-.07-.02-.14-.03-.21-.04zm26.73 24.67s.01-.01.02-.01c-.02-.01-.03-.01-.04-.02.01.01.01.02.02.03zm-.51-16.16c.2.23.47.38.73.41.03-.14.06-.28.09-.42l-.26-.26-.25.26c-.09.08-.19.1-.31.01zm-.35-.55c.06.17.16.33.28.47-.05-.09-.06-.21.02-.29l.26-.25-.4-.4-.22.23c.02.08.03.16.06.24zm.11-2.71-.2.2c0 .06 0 .13-.01.19-.03.47-.07 1-.05 1.46l.07-.07c.01-.03.01-.07.04-.09.03-.03.06-.03.1-.04l.7-.71c.07-.06.15-.07.23-.05zm-23.6-4.33c-.35-.25-.72-.46-1.11-.61 0 .15-.31.41-.43.53l.81.81zm-1.47 15.52.71-.71-.44-.44c-.01.03-.01.06-.03.08l-.66.65zm18.1-16.03-.68-.68-.24.24c.32.11.63.26.92.44zm-23.34-.7.5.5.84-.84-.34-.34c-.07-.06-.07-.14-.06-.22-.09.04-.17.09-.26.14-.01.05-.02.09-.05.13zm.5 1.21-1.3 1.3.34.34c.47-.13.96-.16 1.44-.08-.07-.1-.07-.23.02-.31l.37-.38zm-.03 32.4-.82.82c.54 0 1.08 0 1.62-.01zm.2-2.44-.97.97.77.77.97-.97zm20.75-35.27c.06.01.12.02.16.07.06.05.07.13.07.2l.89.9.86-.86-.6-.6c-.1-.09-.1-.25 0-.35.03-.03.05-.04.08-.05.09-.04.19-.02.27.05l.12.12c-.03-.1-.06-.19-.07-.29-.11.04-.21.08-.32.12-.5.19-.99.43-1.46.69zm-.28 21.69c.4.18.81.33 1.23.43.07-.11.59-.62.69-.72l-.82-.82-.34.35.53.53c.1.09.1.25 0 .35-.09.1-.25.1-.35 0l-.53-.52zm.36 18.11-.75.75c.52 0 1.04-.01 1.57-.02-.05 0-.11-.02-.15-.05zm-.16-39.13-1.32 1.31.73.73c.1-.05.21-.06.29.03.08.08.08.19.03.29l.64.64c.1.1.1.25 0 .35s-.26.1-.36 0l-.62-.62-1.02 1.03v.01c.1-.04.19-.08.28-.11.6-.19 1.24-.22 1.86-.11l.45-.45-.02-.03c-.1-.1-.1-.25 0-.35s.26-.1.35 0l.03.02.71-.71-.83-.82-.71.71c-.1.1-.26.1-.35 0-.1-.1-.1-.25 0-.35l.71-.72zm-1.87.76.2.2 1.31-1.31-.04-.04c-.52.34-1.01.73-1.47 1.15zm12.76 26.68c.12-.09.24-.18.37-.27-.04-.02-.08-.05-.13-.08 0 .07-.02.13-.07.18zm-.75-15.82c0-.01 0-.02.01-.03l-.02.02zm.23-1.96c.05-.89.01-1.71-.11-2.5l-.83-.83-.54.54c-.05.05-.12.07-.18.07-.03 0-.05-.02-.08-.03.08.39.12.78.14 1.15l.2.2.64-.65c.1-.09.26-.09.36 0 .1.1.1.26 0 .36l-.65.65zm-.13 1.34c.04-.3.07-.59.09-.87-.02.01-.04.03-.07.03-.06 0-.13-.02-.17-.07l-.06-.06c.02.08.01.17-.05.23l-.6.6.39.39.22-.21c.07-.07.16-.07.25-.04zm-29.79 24.01.87-.87-.77-.76-.87.87zm-.07-29.85.84-.84-.87-.87-.84.84zm-.03-2.42.47-.46c.02-.03.06-.03.09-.04-.03-.09-.06-.18-.08-.26-.31.11-.61.23-.91.38.03.01.06.01.09.04zm.04 34.86c.07.07.07.16.04.25.26-.01.52-.01.77-.02-.07-.1-.07-.23.02-.32l.51-.51-1.28-1.28-.97.97zm16.36-32.59.08-.08c.3-.37.67-.68 1.08-.92l-.59-.59-1.08 1.08zm.06-2.77c.02.01.04 0 .06.02l.45.45.23-.23c.1-.1.26-.1.36 0 .09.1.09.26 0 .36l-.23.23.33.33 1.03-1.02-.71-.71-.6.6c-.1.09-.26.09-.35 0-.1-.1-.1-.26 0-.36l.6-.6-.22-.21c-.34.35-.65.74-.95 1.14zm-1.15 8.65.36.36c.11-.23.19-.4.2-.92zm.42-4.5-.42.42.3.29c0-.04 0-.08 0-.12.02-.2.06-.39.12-.59zm-.04 2.17-.46.46.61.62c-.04-.42-.09-.67-.15-1.08zm-.16-4.41 1.09-1.08-.43-.43c-.3.44-.56.9-.79 1.38zm-.97 6.78.05-.04-.06-.05c.01.03.01.06.01.09zm.4-4.48 1.08-1.08-.51-.51-.66.66c-.06.23-.12.45-.17.68zm.44 5.22c-.11-.08-.35-.33-.44-.43l-.32.32c.03.21.06.41.09.62.26-.12.49-.3.67-.51zm9.72-10.53.71.71.5-.5c-.39-.23-.79-.39-1.21-.53.08.1.08.23 0 .32zm-22.14 30.22-.74.75.38.38c.04.03.04.08.05.12.04-.19.09-.37.15-.55.07-.21.15-.42.24-.62zm-.2-11.26-.86.85.42.42.86-.86zm.34-15.19-1.2 1.21c.57-.23 1.2-.31 1.77-.19.01 0 .02 0 .03.01l.21-.22zm-1.54-.59.59.59c.05.05.07.11.07.18l.53-.53-.72-.72zm-.96 17.22.6-.59-.96-.96s0 0-.01-.01l-.71.71.34.34c.1.1.1.26 0 .36-.1.09-.26.09-.35 0l-.34-.34-.4.39c.64.3 1.32.47 1.99.52-.06-.01-.11-.02-.16-.06-.09-.1-.09-.26 0-.36zm1.38-16.21c-.17 0-.63-.51-.77-.65l-.84.83.29.29c.23.23-.12.59-.35.36l-.3-.3-.37.38c-.02.02-.05.02-.08.03.47.11.91.29 1.29.58.09-.11.21-.19.32-.29-.18-.11-.15-.27-.01-.41l-.22-.22c-.1-.1-.1-.26 0-.35.1-.1.25-.1.35 0l.22.22zm-.43 15.97c-.11.12-.6.65-.75.66.34.02.71.02 1.05-.03.01-.06.03-.12.07-.17l.04-.04zm.16 16.05-.46.46c.31-.01.62-.02.93-.04-.03-.01-.06-.01-.08-.03zm-.01-33.88c-.17-.07-.33-.16-.49-.27-.18-.14-.33-.32-.46-.52l-.41.41.87.87zm4.9 6.67.07-.07-.08-.08c0 .05 0 .1.01.15zm-.11-4.02-.31.31.84.84.08-.08c-.18-.38-.38-.74-.61-1.07zm-.56 11.39.41.41c.2-.45.37-.89.51-1.33zm-.55 10.72-.13-.12-1.07 1.07.15.15c.34-.41.69-.77 1.05-1.1zm.01-22.59.44.44.35-.35c-.24-.29-.5-.55-.77-.79l-.78.79c.09.1.09.26 0 .35-.05.05-.11.08-.18.08s-.13-.03-.18-.08l-.04.03c.35.15.66.36.95.62l.3-.3-.44-.44c-.1-.09-.1-.25 0-.35s.26-.1.35 0zm.13 1.45c.26.31.49.67.66 1.06.01-.02.01-.04.02-.06l.47-.47-.84-.84zm.54 11.25-.48-.48-1.11 1.11.52.52c.1.1.1.26 0 .36s-.26.1-.35 0l-.05-.05-.72.72c.08.1.08.24-.01.33-.08.08-.2.1-.32.01l-.88.88c.1-.04.21-.07.31-.11.16-.06.31-.14.46-.23.22-.12.43-.25.64-.41 0-.01.01-.01.01-.01.62-.46 1.18-1.09 1.63-1.82.16-.26.29-.52.42-.79-.02-.01-.05-.01-.07-.03zm-8.92-12.75 1.3-1.3-.51-.51-1.3 1.3zm-.12.58-1 .99.17.17c.31-.36.69-.66 1.12-.86zm-1.48 6.02c0-.05.01-.09.01-.14l-.08.07zm1.08 24.76-.82.81c-.05.05-.11.07-.17.07.54.01 1.08.03 1.63.03.01-.01.01-.03.02-.04l1.12-1.13-.76-.76-.82.81c-.01.05-.02.11-.06.15s-.09.05-.14.06zm-.34-31.52-.43.44c-.05.05-.12.07-.18.07-.01 0-.01 0-.01 0-.11.18-.2.38-.29.56l.3.31.99-.99zm-1.34 2.11.37-.38-.17-.17c-.07.18-.14.37-.2.55zm32.18 22.16c.19.19.54.44.46.67.39-.54.89-1.13 1.37-1.61.02-.02.04-.03.05-.05-.01-.01-.02 0-.03-.01l-.39-.39-1.35 1.35c-.03.03-.07.03-.11.04zm-.81-12.34.49.49.11-.11c.1-.1.25-.1.35 0s.1.26 0 .36l-.1.1.15.16c.07.07.07.17.03.26.06-.08.12-.16.17-.24.61-.99 1.03-2.06 1.35-3.07-.06 0-.12-.03-.17-.07l-.13-.13-.85.86.41.41c.09.09.09.25 0 .35-.1.1-.26.1-.36 0l-.41-.41zm-.34 16.09c.14-.41.33-.86.47-1.15-.18.02-.34-.21-.48-.35l-.8.8c.06 0 .13.02.19.07zm.34-1.85c.1.1.24.22.31.34.21-.42.58-1.04.87-1.44-.12.07-.14.07-.25 0 .01.08.01.16-.06.23zm.41-29.96-.56.57.8.79.61-.61c.01-.01.01-.01.01-.01-.27-.28-.55-.52-.86-.74zm.08 16.92-1 1 .05.05c.1.1.1.26 0 .35-.1.1-.26.1-.35 0l-.06-.05-.74.75.27.27c.94-.54 1.7-1.32 2.31-2.21-.13.09-.24.07-.33-.01zm-.36 18.98c.75 7.17 9.12 9.97 15.04 6.77 2.53-1.37 4.45-3.81 5.12-6.52.68-2.78.03-5.86-1.69-8.04-1.74-2.22-4.62-3.57-7.56-3.57-.06 0-.12 0-.18 0-1.69.03-3.47.5-5.02 1.4 0 0-.32.18-.69.42-3.35 2.22-5.39 6.03-5.02 9.54zm-30.77-30.02-1 1c0 .01-.01.02-.01.04l.55.55.16-.17c.09-.43.26-.84.51-1.21zm-.46 2.29-.78.78v.49l.69.69.37-.38c-.02-.14-.04-.28-.06-.42-.05-.35-.09-.7-.11-1.05zm-.74.04.39-.39-.3-.3c-.04.23-.07.45-.09.69zm.03 2.53.26-.26-.31-.31c.01.19.03.38.05.57zm.62.1-.55.54c.03.23.06.46.09.69.34-.18.62-.49.76-.84.02-.04.02-.09.03-.13-.04-.01-.09-.02-.12-.05zm-1.34 24.63-.42-.42-1.04 1.04c1.08.04 2.18.08 3.3.1-.06 0-.12-.02-.17-.07-.1-.1-.1-.26 0-.35l.74-.74-1.41-1.41-1.07 1.08.42.42c.1.1.1.26.01.35-.1.1-.26.1-.36 0zm-3.65-.14.53-.53-.69-.69-.49.48.59.59c.04.04.05.09.06.15zm1.58.16c-.1.1-.25.1-.35 0l-.35-.34-.61.61c-.1.1-.25.1-.35 0-.06-.05-.07-.13-.07-.2-.09.04-.16.08-.27-.03l-.58-.58-.72.71c1.07.29 2.25.37 3.36.41-.01-.07 0-.15.06-.2l1.17-1.18-.76-.76-.87.87.34.34c.1.1.1.26 0 .35zm32.12-34.72.76.76c.73.03 1.4.31 1.96.74.6.47 1.08 1.12 1.37 1.83.11.26.18.51.24.77l.54-.54-.48-.48c-.1-.1-.1-.26 0-.36s.26-.1.35 0l.49.49c.1-.1.25-.1.35 0s.1.25 0 .35l.32.32c-.02-.06-.02-.12-.04-.17-.17-.67-.42-1.3-.73-1.88l-.9.9c-.1.1-.26.1-.36 0s-.1-.25 0-.35l.99-.99h.01c-.23-.38-.49-.74-.77-1.06-.01 0-.01 0-.01.01l-.61.61.21.21c.1.09.1.25 0 .35s-.25.1-.35 0l-.21-.21-.11.11c-.07.08-.18.09-.28.06-.03-.02-.05-.04-.08-.06-.09-.1-.09-.26 0-.35l.11-.11-.79-.79-.46.45c-.1.09-.25.09-.35 0-.1-.1-.1-.26 0-.36l.45-.45-.71-.72-.25.26c.1.09.1.25 0 .34-.09.1-.24.11-.35.01zm1.36 35.04-1.3 1.3.95.95c.35-.02.7-.02 1.04-.05-.14-.44-.35-1.27-.43-1.94 0 0 .02.02-.26-.26zm-1.19-16.09c.11-.04.23-.07.34-.12.05-.02.1-.05.16-.08l-.15-.15zm.16-2.73-.74.74.93.93.74-.74zm-.01-18.04c-.34-.06-.7-.13-1.06-.25l1.05 1.05c.11-.1.57-.6.71-.64-.32-.09 0-.05-.7-.16zm-.61 38.52-.7.7c.44-.02.89-.05 1.33-.07zm-1.45-21.06.97.97.75-.74-.27-.27c-.09-.09-.09-.25 0-.35.1-.1.26-.1.36 0l.3.3c.08-.01.16 0 .22.06s.07.14.05.22l.97.97 1.01-1.01-.49-.49-.08.08c-.1.1-.26.1-.36 0-.1-.09-.1-.25 0-.35l.08-.08-.22-.23c-.1-.09-.1-.25 0-.35.09-.1.25-.1.35 0l.23.23 1.04-1.04-.08-.08c-.1-.1-.1-.26 0-.36.09-.09.25-.09.35 0l.08.08.86-.85-.63-.63c-.1-.1-.1-.26 0-.35.09-.1.25-.1.35 0l.63.62.04-.04c.1-.1.26-.1.36 0s.1.26 0 .35l-.05.05.1.09c.06-.22.13-.45.19-.66.05-.19.09-.38.14-.57-.81-.14-1.52-.84-1.79-1.61-.6-1.7.36-3.71-.55-5.88-1.18-2.81-4.09-2.13-4.49-.86-.12.37-.6.46-.85.18-1.65-1.86-4.81-.89-5.07 1.63-.14 1.35.64 2.91.06 4.42-.31.79-.97 1.4-1.77 1.68.08.42.16.83.25 1.24.58 2.77 1.61 4.74 3.08 5.86.52.39.52.36.77.5.08-.11.4-.42.5-.52l-.48-.49c-.1-.09-.1-.25 0-.35s.25-.1.35 0l.49.48.34-.34-.74-.74c-.1-.1-.1-.26 0-.35.1-.1.26-.1.35 0l.74.74 1.18-1.18.01-.01c.1-.1.26-.1.35 0 .01.01.01.02.02.03zm.91-14.81c-.1.1-.26.1-.36 0s-.1-.25 0-.35l.04-.04c-.03.01-.04.03-.07.03-.06 0-.13-.02-.17-.07l-.43-.43-.71.72.89.89c.47-.42 1.1-.69 1.74-.79l-.45-.44zm-1.29 17.14 1-1.01-.82-.81-1 1zm-.48 1.19c.62.09 1.23.11 1.83.02l.93-.93-.93-.93-1 1 .41.41c.1.1.1.26 0 .36-.1.09-.26.09-.35 0l-.41-.41zm1.06 18.08.9-.9-1.51-1.5-1.53 1.53.67.67c.1.1.1.26 0 .35-.04.04-.09.05-.14.06.51-.01 1.03 0 1.55-.02-.01-.07.01-.14.06-.19zm1.5-37.9-1.75-1.75-.85.85.82.83.56-.56c.1-.1.26-.1.36 0 .1.09.1.25 0 .35l-.56.56.42.43c.07.06.07.15.05.24zm-.99 35.55c-.1-.1-.1-.25 0-.35l.95-.95-.39-.38c-.01-.01-.01-.03-.01-.04l-1.32 1.32 1.51 1.5 1.3-1.3-.74-.74-.94.94c-.1.1-.26.1-.36 0zm-8.37-28.21.07-.07-.07-.07zm.04.98.47.47.54-.54-.63-.63-.4.41c0 .09.01.19.02.29zm.13-2.57c-.03.03-.08.04-.12.05-.02.23-.03.47-.04.71l.41.41.74-.75c0-.03 0-.07 0-.11l-.65-.65zm-.56 31.54-.74.73c.82.03 1.66.06 2.5.08s1.68.03 2.54.03l1.1-1.1-1.25-1.25-.92.92.51.51c.1.09.1.25 0 .35s-.26.1-.35 0l-.51-.5-.95.94c-.05.05-.11.07-.17.07s-.13-.02-.18-.07c-.1-.1-.1-.26 0-.36l.94-.94-.97-.97-1.3 1.3c.01.07-.01.13-.06.19-.05.05-.12.07-.18.07-.01 0-.01 0-.01 0zm-1.3-1.2-1.85 1.84c1 .05.83.04 1.78.07.02-.03.02-.07.05-.1l.91-.92zm-4.19 1.61c-.01-.01-.01-.01-.01-.01-.02-.02-.02-.04-.03-.06-.01.01 0 .02-.01.03s-.03.01-.05.02c.03 0 .06.01.1.02zm.23.04c.57.09 1.16.14 1.73.17-.07-.09-.07-.23.02-.32l.33-.33-.77-.77-1.2 1.2c-.03.03-.07.04-.11.05zm-.68-.13-1.02-1.02-.53.54c.49.21 1.01.37 1.55.48zm-.93-23.83c.04-.15.07-.29.11-.44-.71-.15-1.31-.76-1.54-1.42-.25-.7-.21-1.42-.16-2.11l.02-.28c.07-1.15-.04-2.02-.34-2.73-.36-.86-1.05-1.49-1.79-1.64-.75-.16-1.79.19-2.01.88-.05.17-.19.3-.37.34-.17.03-.36-.02-.48-.16-.63-.71-1.69-1-2.6-.71-.9.29-1.6 1.15-1.7 2.1-.05.45.03.94.11 1.45.12.79.25 1.61-.06 2.42-.27.68-.84 1.22-1.53 1.47.07.35.14.69.21 1.03.7 3.37 2.01 4.76 3.32 5.49.03-.14.34-.42.45-.53l-.48-.48c-.1-.1-.1-.26 0-.36.1-.09.26-.09.35 0l.49.49 1.58-1.59c.1-.09.26-.09.35 0 .1.1.1.26 0 .36l-.52.52c0 .01.01 0 .01.01l.96.96.85-.86-.4-.41c-.1-.1-.1-.26 0-.35.09-.1.25-.1.35 0l.41.41.65-.66c.04-.04.09-.05.14-.05-.01-.08 0-.16.06-.22.1-.09.25-.09.35 0l.16.16v-.01l1.11-1.11-.23-.22c-.1-.1-.1-.26 0-.36.1-.09.26-.09.35 0l.23.23 1.19-1.18c.07-.08.18-.08.28-.03.04-.14.08-.28.12-.41zm.96.27c-.31 1.13-.77 2.59-1.57 3.88-.44.72-.99 1.35-1.59 1.86.03.07.06.14.09.21.69 1.66 2.02 3.06 3.92 4.18 3.34-1.56 5.82-1.74 7.69-3.28.5-.41.87-.9 1.12-1.44-.06-.04-.13-.09-.19-.13-1.66-1.27-2.82-3.44-3.45-6.45-.67-3.16-1.15-6.52-.19-9.68 1.14-3.77 4.38-6.78 8.23-7.67.25-.05.5.09.59.33.08.24-.03.5-.26.61-.06.3.13.73.42.94.35.27.85.36 1.37.44 3.34.55 5.59 3.28 6.35 6.27.13.53.22 1.07.28 1.64l.03.03c.1.09.1.24.01.34.14 1.9-.12 4.04-.82 6.58-.38 1.37-.89 2.97-1.8 4.44-.51.83-1.15 1.56-1.85 2.15.04.1.08.2.12.3.9 2.12 2.67 3.87 5.27 5.22.32-.17.65-.34 1.02-.49 1.38-.58 2.81-.88 4.23-.9 3.32-.04 6.58 1.45 8.55 3.95 1.9 2.41 2.62 5.82 1.86 8.89v.01c-.73 2.98-2.83 5.66-5.61 7.16-3.69 1.99-8.25 1.79-11.5 0-1.83-1.01-3.3-2.63-4.18-4.58-2.43.2-4.88.28-7.3.28-9.15 0-12.43-.22-14.65-2.23-4.23.32-8.3.23-12.57.05-2.34-.08-4.99-.33-6.63-2.18-2.06-2.34-1.85-6.79 2.48-9.72 3.34-2.25 6.67-2.3 8.67-3.94.41-.34.73-.74.94-1.19-.04-.03-.08-.05-.12-.08-1.46-1.12-2.48-3.02-3.03-5.66-.58-2.76-1.01-5.7-.16-8.46 1-3.31 3.83-5.95 7.22-6.73.24-.06.5.08.58.33.08.24-.03.5-.26.61-.04.1.11.51.38.71.3.23.72.3 1.17.37 2.92.47 4.92 2.89 5.58 5.51.53 2.1.4 4.49-.44 7.52zm-.7-2.58-.47-.47-.34.34c.02.08.03.17.06.24.05.15.14.28.24.41zm-.11.82c.06.04.13.06.19.07.02-.11.05-.22.07-.32zm.06-3.97.49.5c-.01-.32-.03-.63-.07-.93zm-.07 2.33.43.42c.05-.32.08-.64.11-.96zm.13 25.59 1.06 1.06c.02.02.01.04.03.06 0 0 0-.02.01-.02l1.2-1.2-.49-.49c-.1-.1-.1-.25 0-.35s.26-.1.35 0l.49.48 1.14-1.14c.1-.1.26-.1.36 0 .09.1.09.26 0 .36l-1.15 1.14.77.76 1.18-1.17-.29-.28c-.09-.1-.09-.26 0-.36.1-.09.26-.09.36 0l.28.29 1.43-1.43c.1-.1.25-.1.35 0s.1.25 0 .35l-1.43 1.43.9.89 1.25-1.25-.28-.28c-.1-.1-.1-.25 0-.35.09-.1.25-.1.35 0l.28.28.87-.86c.09-.1.25-.1.35 0s.1.25 0 .35l-.86.86.97.98.92-.92-.29-.29c-.09-.09-.09-.25 0-.35.1-.1.26-.1.36 0l.28.28 1.54-1.54c.1-.1.26-.1.35 0 .1.1.1.25 0 .35l-1.54 1.55 1.25 1.25 1.53-1.53-.3-.31c-.1-.1-.1-.26 0-.36.09-.09.25-.09.35 0l.31.31 1.32-1.32c.1-.1.25-.1.35 0 .01.01.01.03.02.04.1-.09.25-.09.34.01l.39.38.77-.77c.23-.24.59.12.35.35l-.77.77.74.75c.1-.1.11-.12.21-.2.02-.78.11-1.58.4-2.57l-.81-.8c-.05-.06-.07-.12-.07-.19l-.29.29c-.1.1-.26.1-.35 0-.1-.1-.1-.26 0-.36l1.34-1.34c-.04-.1-.05-.21.03-.29.08-.07.19-.07.29-.02l.89-.9c.05-.05.11-.07.17-.07l-.43-.44c-.1-.09-.1-.25 0-.35.07-.07.16-.07.24-.05 0-.05.02-.11.06-.15l1.39-1.39c-.03-.08-.03-.18.04-.24.07-.07.16-.08.25-.05l.34-.34c.1-.1.26-.1.36 0 .1.09.1.25 0 .35l-.32.31.31.31c-.05-.09-.05-.2.03-.28l1.07-1.07c.02-.02.05-.01.07-.03-2.06-1.26-3.85-3.01-4.73-5.21-2.17 1.37-4.93 1.2-7.03.08-.31.63-.76 1.19-1.35 1.68-2.12 1.74-4.81 1.91-8.13 3.51-.73.34-1.35.69-1.9 1.07-.32.21-.66.46-1 .76 0 0 0 0-.01 0-.99.86-2.01 2.04-2.51 3.6-.62 1.85-.27 3.89.87 5.19.06.07.14.14.21.21.36.36.78.65 1.24.88l.66-.66-.18-.18c-.1-.1-.1-.26 0-.36.1-.09.26-.09.35 0l.18.18 2.18-2.17c.1-.1.25-.1.35 0s.1.26 0 .36zm-.42-28.27.51-.51c.05-.05.13-.07.2-.06-.04-.21-.08-.42-.13-.62-.06-.23-.13-.45-.21-.66-.01.03-.01.06-.04.08-.08.09-.2.11-.32.02l-.47.47c-.05.05-.12.07-.18.07-.04 0-.07-.02-.1-.04.08.23.15.47.19.7zm.9 16.73c-1.8-1.17-3.07-2.61-3.78-4.3-1.81 1.11-4.16 1.06-6.07.07-.28.54-.67 1.01-1.16 1.42-2.15 1.75-5.63 1.9-8.75 4-3.84 2.6-3.93 6.36-2.29 8.23.54.61 1.24 1 2.02 1.27.01-.01 0-.03.02-.04l.86-.87-.25-.25c-.1-.1-.1-.26 0-.36.1-.09.25-.09.35 0l.26.26.5-.5c-.08-.1-.08-.23.01-.32s.22-.08.32-.01l.89-.89c.1-.1.25-.1.35 0s.1.25 0 .35l-.88.88.69.69.87-.86-.2-.21c-.1-.1-.1-.26 0-.35.09-.1.25-.1.35 0l.2.2.56-.56c.1-.1.26-.1.36 0 .09.1.09.26 0 .36l-.56.55.77.77 1.07-1.07-.41-.41c-.1-.1-.1-.26 0-.35.1-.1.25-.1.35 0l.41.4 1.26-1.26c.1-.09.26-.09.36 0 .09.1.09.26 0 .36l-1.26 1.26 1.4 1.4.74-.74-1.07-1.07c-.1-.1-.1-.26 0-.35.1-.1.26-.1.35 0l1.07 1.07 2.2-2.19c0-.01 0-.01 0-.01l-.21-.2c-.09-.1-.09-.26 0-.36.1-.09.26-.09.36 0l1.32 1.33.05-.04c.09-.1.25-.1.35 0s.1.25 0 .35l-.04.04.38.39c.1.1.1.26 0 .35-.1.1-.25.1-.35 0l-.39-.38-.87.87 1.28 1.27.51-.51c.1-.1.26-.1.36 0 .09.1.09.26 0 .36l-.51.51.38.39c.1.1.1.25 0 .35-.01.02-.03.01-.05.02.36-.01.72-.02 1.08-.04-.86-1.27-1.24-3.1-.89-4.86-.12.1-.25.08-.34-.01l-.38-.38-.57.56c-.09.09-.25.09-.35 0-.1-.1-.1-.26 0-.36l.56-.56-.41-.41c-.1-.1-.1-.26 0-.35.1-.1.26-.1.36 0l.41.41.74-.75-.39-.38c-.09-.1-.09-.26 0-.35.1-.1.26-.1.36 0l.38.38.61-.61c.07-.07.17-.07.26-.04.06-.1.12-.2.19-.29l-.25-.24c-.06 0-.12-.03-.17-.07-.05-.05-.08-.12-.08-.18l-.33-.33c-.1-.1-.1-.26 0-.36.1-.09.26-.09.35 0l.29.29 1.07-1.08-.08-.08c-.1-.09-.1-.25 0-.35s.26-.1.35 0l.08.08.17-.16c.09-.1.25-.1.35 0 .1.09.1.25 0 .35l-.16.16.15.15c.28-.24.57-.45.84-.64-.04.02-.07.05-.11.05-.03 0-.06-.03-.1-.04-.04.05-.11.07-.17.07s-.13-.02-.18-.07c-.09-.09-.08-.23-.01-.32l-.34-.35c-.1-.09-.1-.25 0-.35.09-.1.25-.1.35 0l.33.33.55-.55c.1-.09.26-.09.36 0 .09.1.09.26 0 .36l-.58.57c.04.08.04.17-.02.24.01 0 .02-.01.03-.01.34-.24.72-.46 1.11-.68.04-.02.07-.04.1-.06zm-.18-15.3-.72-.73-.41.41c0 .18-.01.36-.01.51l-.02.29c-.02.29-.04.56-.04.83l.1-.1c-.02-.08-.01-.17.05-.23.07-.07.15-.07.23-.05l.6-.6c.1-.09.25-.09.35 0 0-.09 0-.19 0-.28-.04-.01-.09-.02-.13-.05z"/></g></g></svg>