<svg id="Layer_1" enable-background="new 0 0 66 66" height="512" viewBox="0 0 66 66" width="512" xmlns="http://www.w3.org/2000/svg"><g><path d="m42.717 28.75c-6.332-8.615-19.541-2.136-17.553 6.552.411 1.809 1.456 3.595 3.104 5.309 1.804 1.875 3.817 3.063 5.821 3.434 7.876 1.525 13.79-8.225 8.628-15.295zm-7.386-3.036c.515.04 1.025.118 1.524.246l-.639.639zm-4.327.802-.121.12-.045-.045c.055-.027.111-.05.166-.075zm-2.872 2.048.963.963-1.044 1.044c-.104-.104-.744-.755-.856-.833.274-.412.438-.649.937-1.174zm-1.879 6.874 1.224 1.224-.514.514c-.311-.577-.547-1.157-.71-1.738zm.96 2.196.618-.618.414.414c.097.097.255.098.354 0 .098-.098.098-.256 0-.354l-.414-.414.622-.622c.098-.098.098-.256 0-.354s-.256-.098-.354 0l-.622.622-1.772-1.773c-.003-.003-.008-.002-.012-.005-.211-1.489.098-2.995.889-4.369l.762.762c-.254.254-.692.558-.448.802s.548-.194.802-.448l1.124 1.124c-.098-.072-.232-.075-.32.014l-.914.914-1.073-1.074c-.098-.098-.256-.098-.354 0s-.098.256 0 .354l1.073 1.074-1 1c-.098.098-.098.256 0 .354.097.097.255.098.354 0l1-1 .969.969c.097.097.255.098.354 0 .098-.098.098-.256 0-.354l-.969-.969.914-.914c.088-.088.086-.222.014-.32l.406.406c.097.097.255.098.354 0 .098-.098.098-.256 0-.354l-1.577-1.577 1.044-1.044.597.597c.097.097.255.098.354 0 .098-.098.098-.256 0-.353l-.597-.597.173-.172c.098-.098.098-.256 0-.354s-.256-.098-.354 0l-.173.172-.958-.958c.569-.537 1.203-1.002 1.884-1.382l.155.155-1.369 1.368c-.098.098-.098.256 0 .354.099.099.257.096.354 0l1.368-1.368 1.002 1.002c.099.099.257.096.354 0 .098-.098.098-.256 0-.354l-1.002-1.002.678-.678c.051-.051.072-.118.07-.184.157-.052.312-.111.47-.154l.943.943-.853.853c-.098.098-.098.256 0 .354.097.097.255.098.354 0l.853-.853.007.007c.099.099.257.097.354 0 .098-.098.098-.256 0-.354l-.007-.007.375-.376c.098-.098.098-.256 0-.353-.098-.098-.256-.098-.354 0l-.375.375-.714-.715c.559-.112 1.045-.174 1.602-.175.012.033.013.069.04.096l1.211 1.212c-.034.089-.033.188.039.26.103.103.169.073.26.039l.438.438c.099.099.257.096.354 0 .098-.098.098-.256 0-.353l-.41-.41.827-.827c.421.137.833.295 1.23.49l-.167.167-.338-.338c-.098-.098-.256-.098-.354 0s-.098.256 0 .354l.338.338-.191.191c-.098.098-.098.256 0 .353.097.097.255.098.353 0l.191-.191.673.673c.097.097.255.098.354 0 .098-.098.098-.256 0-.354l-.673-.673.206-.206c.023-.022.022-.054.034-.081 1.11.621 2.1 1.459 2.858 2.491 4.618 6.325-.632 15.079-7.635 13.722-1.8-.334-3.628-1.421-5.286-3.145-.728-.751-1.315-1.515-1.781-2.283z"/><path d="m11.413 64.944c1.927-.333 4.684-2.892 6.827-4.983.565.072 1.13.132 1.68.171 7.611.527 15.317.792 23.02.792 3.682 0 7.363-.061 11.032-.182 1.704-.056 3.618-.232 4.771-1.621.916-1.12.993-2.613.993-4.043.078-13.55.156-27.108.226-40.659 0-.006-.005-.011-.005-.017.054-.078.094-.168.096-.27.005-.276-.215-.504-.491-.509h-.029c-3.319-5.094-7.679-9.537-12.348-12.541-.007-.005-.017-.003-.025-.007-.074-.043-.155-.075-.247-.075h-.001c-.004 0-.008.002-.013.002-30.745.529-30.203.308-32.127 1.314-3.917 2.076-3.505 7.583-3.286 9.221.419 3.163.148 28.403-.24 39.203-1.521 1.442-3.211 3.071-4.279 5.064-1.091 2.027-1.32 4.212-.627 5.996.832 2.144 3.079 3.496 5.073 3.144zm10.108-19.101c.82-.877 1.64-1.754 2.464-2.627.766.867 1.588 1.663 2.336 2.301-.76.895-1.518 1.789-2.273 2.688-.566-.752-1.55-1.704-2.527-2.362zm5.579.302c.312.244.625.475.941.692l-.31.31-.801-.801c.057-.067.114-.134.17-.201zm.243-1.078c-1.001-.811-2.03-1.813-2.961-2.923-1.808-2.108-2.981-4.304-3.488-6.525-1.771-7.751 5.63-14.765 13.159-14.962.118-.003.235-.005.354-.005 4.479 0 8.868 2.212 11.523 5.83 2.716 3.72 3.467 8.732 1.958 13.082-2.142 6.193-8.209 9.808-14.115 8.698-2.202-.421-4.365-1.496-6.43-3.195zm-5.236 10.738.576.576-1.096 1.096-.493-.493c.364-.409.406-.456 1.013-1.179zm-1.35 1.548.477.477-1.299 1.299c-.258-.019-.519-.04-.781-.065.178-.18 1.082-1.136 1.603-1.711zm38.183-38.864-.517-.517.506-.506c.011-.011.008-.029.017-.042-.002.355-.004.71-.006 1.065zm-.027 4.953-.648-.648.655-.656c-.002.435-.005.869-.007 1.304zm-.013 2.206-.681-.681.688-.688c-.001.456-.004.913-.007 1.369zm-.584-12.047-.929-.017-.001-.001c-.095-.094-.244-.093-.342-.005l-6.601-.119c-2.43-.044-3.121-.571-3.116-3.325.004-1.5.023-2.905.043-4.311.016-1.106.029-2.226.037-3.378 4.09 2.795 7.902 6.694 10.909 11.156zm-2.219 1.636c.053-.095.056-.212-.025-.293s-.198-.078-.293-.025l-.369-.369 2.158.039-1.06 1.06zm-1.627.955-.824-.824.322-.322c.098-.098.098-.256 0-.353-.098-.098-.256-.098-.353 0l-.322.322-.512-.512 1.909.034.718.718zm-3.708-1.726-.548.549-.587-.587c.287.022.561.029.799.033zm-10.725-12.289c.008-.017.018-.033.021-.052.35-.006.699-.013 1.049-.019l-.57.57zm-3.121.004-.25.25-.241-.241c.163-.003.327-.006.491-.009zm-4.79.085c.743-.013 1.487-.026 2.23-.04l-1.135 1.135zm-3.807.067c.905-.016 1.811-.032 2.717-.048l-1.382 1.382zm-2.852 1.899-1.258-1.258.578-.578c.849-.015 1.698-.03 2.546-.045l-1.856 1.856c-.006.007-.004.017-.01.025zm-1.611-1.612-.204-.204c.139-.003.277-.005.416-.007zm-2.021-.171-1.701 1.701-1.634-1.635c.532-.02 2.785-.056 3.335-.066zm-6.088.526-.644.644-.189-.189c.111-.073.204-.164.323-.227.166-.088.336-.162.51-.228zm-1.248.746.251.251-.449.449c-.098.098-.098.256 0 .353.099.099.257.096.353 0l.449-.449 2.286 2.287c.097.097.255.098.354 0 .098-.098.098-.256 0-.353l-2.286-2.287.93-.93c.075-.075.074-.18.034-.271.46-.113.934-.181 1.41-.219l.72.72-1.522 1.522c-.098.098-.098.256 0 .354.097.097.255.098.353 0l1.522-1.522.876.876-.079.079c-.098.098-.098.256 0 .354.097.097.255.098.354 0l.079-.079.378.378c.097.097.255.098.354 0 .098-.098.098-.256 0-.354l-.378-.378 1.842-1.842c.061-.061.07-.143.055-.222.191-.003.381-.007.572-.01l.545.545-1.019 1.019c-.098.098-.098.256 0 .353.099.099.257.096.354 0l1.019-1.019 1.684 1.684c.097.097.255.098.354 0 .098-.098.098-.256 0-.353l-.087-.087c.008-.006.018-.003.025-.011l2.01-2.01c.007-.007.005-.019.011-.027.012.029.012.062.036.086l1.488 1.487c.008.051.02.103.059.142s.091.051.142.059l.469.469c.097.097.255.098.354 0 .098-.098.098-.256 0-.354l-.393-.393 1.603-1.604c.012.022.009.049.028.067l1.341 1.341c.012.032.013.067.039.093s.061.026.093.039l.349.349c.097.097.255.098.354 0 .098-.098.098-.256 0-.354l-.238-.238 1.497-1.497c.001-.001.001-.003.001-.004.249-.004.499-.009.748-.013.004.058.022.115.066.159l.425.425-.781.781c-.098.098-.098.256 0 .353.097.097.255.098.354 0l.781-.781.785.785c.097.098.256.098.354 0s.098-.256 0-.353l-.785-.785.616-.616c.552-.01 1.104-.02 1.656-.029l.063.063-.936.936c-.098.098-.098.256 0 .354.096.096.255.099.354 0l.936-.936.52.519c-.008.073.006.147.062.203.049.049.112.073.177.073.01 0 .017-.01.027-.011l.209.209c.096.097.255.099.354 0 .098-.098.098-.256 0-.353l-.169-.163.937-.936c1.527-.027 3.055-.055 4.582-.081-.006 1.306-.022 2.557-.039 3.798-.021 1.409-.04 2.818-.044 4.322-.003 2.06.361 3.701 2.473 4.174l1.061 1.061-.525.525c-.098.098-.098.256 0 .353.097.097.255.098.354 0l.525-.525.707.707c.097.097.255.098.354 0 .098-.098.098-.256 0-.354l-.707-.707.889-.889.604.011.879.879-.887.887c-.098.098-.098.256 0 .354.097.097.255.098.353 0l.887-.887.869.869c-.007.072.009.144.064.199.097.097.255.098.354 0l1.181-1.182.401.401c-.078.098-.08.237.01.328.083.083.206.107.328.011l.224.224c.097.097.255.098.354 0 .098-.098.098-.256 0-.353l-.216-.216 1.118-1.117.484.484c.099.099.257.096.354 0 .098-.098.098-.256 0-.354l-.411-.411.556.01c-.004.848-.01 1.696-.014 2.544-.009-.014-.006-.033-.019-.045-.098-.098-.256-.098-.354 0l-.506.506-.502-.502c-.098-.098-.256-.098-.354 0s-.098.256 0 .354l.502.502-.819.819c-.098.098-.098.256 0 .354.097.097.255.098.353 0l.819-.819.867.867c-.003.531-.006 1.062-.009 1.593l-.346-.346.26-.26c.098-.098.098-.256 0-.354s-.256-.098-.354 0l-.26.26-.525-.525c-.098-.098-.256-.098-.354 0s-.098.256 0 .354l.525.525-.752.752c-.098.098-.098.256 0 .354.097.097.255.098.354 0l.752-.752.695.695c0 .054-.001.107-.001.161-.09-.034-.188-.032-.259.039l-.759.76c-.098-.077-.237-.081-.328.011-.091.091-.088.23-.011.328l-.125.125c-.098.098-.098.256 0 .353.096.097.255.099.354 0l.118-.118.71.711-.782.779c-.09-.036-.191-.036-.264.037-.08.08-.078.195-.026.29-.051.095-.054.21.026.29.104.104.172.074.264.037l.908.909c.041.041.095.055.149.062-.052 9.603-.105 19.208-.16 28.81 0 1.304-.059 2.547-.765 3.41-.885 1.067-2.545 1.208-4.032 1.258-11.106.366-22.318.168-33.337-.575l.985-.985.146.147c.099.099.257.096.354 0 .098-.098.098-.256 0-.354l-.146-.146 1.096-1.096.435.436c.097.097.255.098.354 0 .098-.098.098-.256 0-.354l-.436-.436.415-.415c.098-.098.098-.256 0-.354s-.256-.098-.354 0l-.415.415-.606-.606c.541-.657 1.072-1.322 1.581-2.002.024-.031.046-.064.069-.095l.293.293-1.084 1.084c-.098.098-.098.256 0 .354.097.097.255.098.354 0l1.084-1.084.562.562c.097.097.255.098.354 0 .098-.098.098-.256 0-.354l-.562-.563.447-.447c.098-.098.098-.256 0-.354s-.256-.098-.354 0l-.447.447-.349-.349c.268-.393.46-.743.599-1.181l.446-.446.52.52c.097.097.255.098.353 0s.098-.256 0-.354l-.519-.52.444-.444c.098-.098.098-.256 0-.354s-.256-.098-.354 0l-.444.444-.393-.393c-.08-.35-.223-.714-.424-1.093.158-.188.318-.375.476-.563l.121.121-.413.414c-.098.098-.098.256 0 .354.097.097.255.098.353 0l.413-.414.673.673c.097.097.255.098.354 0 .098-.098.098-.256 0-.354l-.673-.673.925-.925c.098-.098.098-.256 0-.354s-.256-.098-.354 0l-.924.93-.145-.145c-.002-.002-.006-.001-.008-.003.4-.475.801-.949 1.202-1.423l.771.771-.279.279c-.098.098-.098.256 0 .354.097.097.255.098.353 0l.279-.279.053.053c.097.097.255.098.354 0 .098-.098.098-.256 0-.354l-.053-.053.377-.377c1.66 1.074 3.377 1.787 5.124 2.121 6.336 1.194 12.924-2.637 15.247-9.353 1.614-4.655.811-10.019-2.097-14-2.916-3.974-7.824-6.336-12.709-6.234-8.108.214-16.034 7.762-14.108 16.185.515 2.259 1.671 4.479 3.419 6.604-.904.958-1.805 1.919-2.705 2.882-2.832-1.404-4.701.241-6.156 2.07-.603.744-1.514 1.681-2.197 2.347.148-4.542.275-11.107.347-17.542l.326-.326.038.038c.097.097.255.098.354 0 .098-.098.098-.256 0-.354l-.038-.037 1.098-1.098c.098-.098.098-.256 0-.353-.098-.098-.256-.098-.354 0l-1.098 1.098-.312-.312c.005-.472.009-.942.013-1.41l.004-.004.684.685c.099.099.257.096.354 0 .098-.098.098-.256 0-.354l-.684-.685.866-.866c.079.01.132.013.206-.061.057-.057.071-.132.061-.206l.41-.41c.098-.098.098-.256 0-.354s-.256-.098-.354 0l-.366.366-1-1c-.004-.004-.01-.002-.015-.006l.72-.72.253.253c.097.097.255.098.353 0s.098-.256 0-.353l-.253-.253 1.796-1.797c.098-.098.098-.256 0-.354s-.256-.098-.354 0l-1.796 1.797-.854-.854c0-.105.001-.209.001-.314l1.067-1.067.686.686c.097.097.255.098.354 0 .098-.098.098-.256 0-.354l-.686-.686.911-.911c.098-.098.098-.256 0-.354s-.256-.098-.354 0l-.911.912-.983-.983 1.358-1.358.314.313c.097.097.255.098.353 0s.098-.256 0-.354l-.313-.313 1.483-1.483c.098-.098.098-.256 0-.354s-.256-.098-.353 0l-1.483 1.483-1.294-1.294c-.044-.044-.102-.061-.159-.066-.001-.092-.002-.184-.002-.275l1.188-1.188.308.308c.097.097.255.098.354 0 .098-.098.098-.256 0-.354l-.309-.308 1.37-1.37c.098-.098.098-.256 0-.354s-.256-.098-.353 0l-1.37 1.37-.903-.903 1.384-1.384.048.048c.099.099.257.097.354 0 .098-.098.098-.256 0-.353l-.048-.048 1.321-1.32c.098-.098.098-.256 0-.354s-.256-.098-.354 0l-1.32 1.321-1.357-1.358 1.331-1.331.63.63c.097.097.255.098.354 0 .098-.098.098-.256 0-.353l-.63-.63 1.914-1.914c.098-.098.098-.256 0-.353-.098-.098-.256-.098-.354 0l-.418.417-.876-.877 1.117-1.117c.098-.098.098-.256 0-.353-.098-.098-.256-.098-.354 0l-1.116 1.117-1.273-1.274c.308-.575.695-1.085 1.187-1.495zm-1.433 1.957 1.165 1.165-1.144 1.144-.536-.536c.115-.62.276-1.222.515-1.773zm-.404 23.056c.005-.548.009-1.091.012-1.629l.809.809zm.023-3.757.503.503-.508.508c.002-.341.004-.676.005-1.011zm.008-3.148.71.709-.711.711c0-.482.001-.955.001-1.42zm-.011-3.433 1.094 1.094-1.085 1.085c-.001-.759-.004-1.485-.009-2.179zm-.04-3.302.867.867-.842.841c-.006-.606-.015-1.181-.025-1.708zm-.131-3.363.122-.122 1.357 1.358-1.365 1.365c-.028-1.154-.066-2.045-.114-2.601zm-.101-1.052c-.036-.435-.052-.874-.045-1.319.033-.012.071-.013.097-.04l.625-.625.876.877-1.331 1.331zm1.031-2.338 1.144-1.144.876.877-1.144 1.144zm-.707 0-.339.339c.015-.208.031-.416.056-.621zm-4.886 47.938c1.693-3.158 4.939-5.21 7.41-8.255 1.572-1.976 3.206-3.006 5.38-1.556 1.115.673 2.389 1.924 2.942 2.822.913 1.503.585 2.288-.366 3.526-3.486 4.659-9.673 10.745-11.972 11.143-1.573.273-3.314-.831-3.971-2.52-.585-1.511-.375-3.391.577-5.16z"/><path d="m20.464 18.448c.016 0 .031 0 .048-.002.274-.026.476-.27.451-.545l-.563-6.01c-.025-.275-.272-.478-.545-.452-.274.026-.476.27-.451.544l.563 6.011c.024.26.242.454.497.454z"/><path d="m27.352 16.728c1.102-1.116 1.041-2.94-.063-3.847-1.928-1.586-3.975 1.057-3.595 3.055.332 1.748 2.446 2.02 3.658.792zm-.698-3.074c.652.537.673 1.677-.013 2.372-.656.664-1.788.644-1.965-.277-.201-1.057.84-3.031 1.978-2.095z"/><path d="m32.404 17.85c.021 0 .04-.001.061-.003.273-.033.47-.282.437-.556l-.575-4.814c-.033-.275-.289-.469-.556-.438-.273.033-.47.282-.437.556l.575 4.814c.031.254.246.441.495.441z"/><path d="m36.294 16.828c.675.496 1.541.557 2.382.052.905-.543 1.329-1.743.967-2.734-.365-.991-1.465-1.636-2.506-1.461-.956.157-1.619.723-1.818 1.554-.221.923.189 2.012.975 2.589zm-.003-2.358c.105-.438.444-.707 1.008-.8.061-.01.122-.015.183-.015.52 0 1.043.346 1.222.834.2.546-.043 1.233-.541 1.533-.581.348-1.016.191-1.276-.001-.462-.337-.723-1.018-.596-1.551z"/><path d="m40.976 50.626c-.997.591-1.649 2.088-1.425 3.267.332 1.746 2.447 2.022 3.657.793.508-.513.799-1.222.799-1.944 0-1.69-1.621-2.951-3.031-2.116zm1.52 3.358c-.655.665-1.786.643-1.963-.277-.201-1.056.853-3.02 1.978-2.095.306.251.496.685.496 1.131 0 .454-.19.918-.511 1.241z"/><path d="m47.628 49.997c-.273.033-.47.282-.437.556l.575 4.814c.03.254.246.441.495.441.021 0 .04-.001.061-.003.273-.033.47-.282.436-.556l-.575-4.814c-.032-.276-.288-.474-.555-.438z"/><path d="m52.152 54.786c.675.496 1.541.557 2.382.052.905-.543 1.33-1.744.966-2.734-.759-2.071-3.847-1.894-4.323.092-.222.924.188 2.013.975 2.59zm-.003-2.358c.251-1.046 1.993-1.124 2.411.02.201.546-.042 1.233-.54 1.532-.581.348-1.017.19-1.276-.001-.462-.337-.722-1.018-.595-1.551z"/><path d="m9.484 57.478 1.182-1.108c.285.377.583.744.898 1.095.09.102.249.112.353.019.103-.092.111-.25.019-.353-.317-.353-.618-.722-.904-1.103l1.119-1.049.539.503c.106.097.263.086.353-.012.095-.101.089-.259-.012-.353l-.515-.481 1.037-.972c.132.179.242.357.442.45.227.102.511.047.636-.18.067-.121.029-.29-.092-.356s-.267-.039-.333.082c-.074-.034-.236-.273-.285-.34l1.003-.941.296.241c.11.088.266.07.352-.036.087-.107.07-.265-.036-.352l-.245-.199.881-.826.13.183c.079.112.234.14.349.06.112-.08.14-.236.06-.349l-.17-.239 1.059-.993c.101-.094.105-.253.012-.353-.096-.102-.254-.105-.354-.011l-1.01.947-.374-.527c-.081-.113-.236-.138-.35-.059-.112.08-.139.236-.059.349l.414.582-.981.92-.332-.269c-.105-.088-.263-.07-.352.036-.087.107-.07.265.037.352l.278.226-.911.854-.472-.64c-.082-.111-.238-.135-.35-.053-.111.081-.135.238-.053.35l.507.688-1.105 1.036-.232-.216c-.102-.095-.26-.089-.353.013-.095.101-.089.259.013.354l.207.193-1.04.975c-.197-.279-.397-.557-.576-.847-.071-.118-.226-.154-.344-.082s-.154.227-.082.344c.196.319.415.625.633.931l-1.232 1.155c-.1.094-.105.253-.012.353.099.099.257.102.357.008z"/><path d="m37.265 38.529-1.043 1.043c-.098.098-.098.256 0 .354.097.097.255.098.354 0l1.043-1.043.846.846c.097.097.255.098.354 0 .098-.098.098-.256 0-.354l-.846-.846.64-.64.675.675c.096.097.255.099.354 0 .098-.098.098-.256 0-.353l-.675-.675.696-.696.684.684c.097.097.255.098.354 0 .098-.098.098-.256 0-.354l-.684-.684 1.156-1.156c.098-.098.098-.256 0-.354s-.256-.098-.354 0l-1.156 1.156-.667-.667.504-.504c.098-.098.098-.256 0-.354s-.256-.098-.354 0l-.504.504-.022-.022c-.098-.098-.256-.098-.354 0s-.098.256 0 .354l.022.022-.696.696-.334-.334c-.098-.098-.256-.098-.353 0-.098.098-.098.256 0 .354l.334.334-.561.561c-.031.031-.035.072-.046.111l-.168-.168c-.098-.098-.256-.098-.354 0s-.098.256 0 .354zm1.374-2.709.667.667-.696.696-.667-.667zm-1.61 1.609.561-.561.667.667-.639.639-.7-.7c.039-.01.081-.014.111-.045z"/></g></svg>