<svg id="Layer_1" enable-background="new 0 0 66 66" height="512" viewBox="0 0 66 66" width="512" xmlns="http://www.w3.org/2000/svg"><g><path d="m31.324 6.539c.666-.088.511-1.086-.129-.992-14.105 1.831-25.016 13.643-25.598 27.971-.011.276.204.509.479.521h.021c.268 0 .488-.211.5-.479.557-13.786 11.044-25.246 24.727-27.021z"/><path d="m28.097 12.003c-.162.225-.111.537.112.698.222.161.536.112.698-.112 3.628-5.031 7.087-8.221 1.778-9.555l-7.984-2.018c-.278-.073-.541.094-.607.361-.068.268.094.54.361.607 12.613 3.188 11.796 1.487 5.642 10.019z"/><path d="m59.975 31.997c-.271-.035-.527.149-.566.424-2.051 14.268-13.553 25.31-27.827 26.836-.124.013-.229.075-.308.159l-.32-.158 7.591-7.716c.193-.197.191-.514-.006-.707-.196-.192-.513-.192-.707.006l-8.076 8.209c-.112.114-.163.276-.137.435.027.158.128.294.272.364l10.366 5.101c.071.035.146.052.221.052.185 0 .361-.103.448-.279.122-.248.021-.548-.228-.669l-8.026-3.949c14.666-2.032 25.705-13.489 27.726-27.54.04-.275-.15-.529-.423-.568z"/><path d="m28.248 47.613c-.01.285.225.538.54.516 1.551-.124 3.581-.272 5.144-.385.2-.015.372-.147.438-.338.309-.905.51-1.846.6-2.8.828-.299 1.621-.687 2.364-1.156l2.161 2.312c.233.248.573.183.744-.016 1.123-1.305 2.245-2.608 3.368-3.925.13-.151.157-.365.069-.544-.501-1.022-1.146-1.972-1.92-2.824.316-.646.585-1.339.803-2.068l3.576.113c.27.02.537-.222.516-.536-.125-1.72-.252-3.476-.387-5.162-.016-.197-.146-.366-.333-.432-1.021-.358-2.091-.568-3.185-.626-.191-.797-.467-1.559-.819-2.277.639-.603.994-.931 2.367-2.212.217-.205.21-.552-.018-.745-1.313-1.122-2.616-2.243-3.919-3.376-.151-.132-.366-.16-.547-.072-.853.415-1.663.941-2.413 1.565-.756-.453-1.58-.827-2.46-1.117.018-.745.04-1.31.093-2.897.009-.31-.261-.544-.536-.515-1.724.125-3.437.25-5.161.387-.199.016-.369.147-.434.336-.271.79-.457 1.602-.555 2.42-.989.247-1.903.644-2.746 1.155l-1.814-1.941c-.245-.262-.581-.169-.741.015-.871 1.001-1.834 2.125-3.381 3.925-.131.151-.158.366-.07.546.45.921 1.028 1.795 1.723 2.603-.307.721-.556 1.486-.743 2.286-1.146-.04-2.298-.08-3.441-.11-.325.01-.532.254-.513.536l.386 5.159c.015.199.146.371.335.437 1.029.356 2.107.566 3.211.625.176.797.427 1.577.749 2.327-.674.624-1.125 1.049-2.313 2.162-.214.2-.213.547.016.744 2.248 1.939 2.967 2.563 3.925 3.38.151.129.365.157.545.067.742-.365 1.436-.8 2.068-1.294.82.504 1.77.912 2.794 1.163-.026.645-.031.871-.086 2.589zm-2.463-4.785c-.085-.057-.182-.085-.279-.085-.114 0-.229.039-.32.116-.566.474-1.192.893-1.865 1.248-.935-.8-1.85-1.592-3.246-2.796.796-.744 1.353-1.273 2.165-2.02.159-.147.206-.381.115-.578-.416-.898-.72-1.847-.903-2.819-.044-.232-.244-.402-.482-.407-1.027-.021-2.033-.183-2.994-.482l-.319-4.273c1 .028 2.093.067 3.297.109.245.007.459-.16.508-.399.202-.989.503-1.926.895-2.785.083-.181.05-.395-.084-.542-.65-.721-1.199-1.501-1.633-2.324 1.187-1.382 2.045-2.383 2.795-3.248l1.72 1.84c.168.178.438.209.642.073.926-.617 1.972-1.081 3.113-1.32.215-.045.375-.227.395-.445.066-.753.215-1.504.441-2.236 1.426-.111 2.844-.216 4.268-.319-.03.891-.065 1.852-.083 2.728-.005.226.142.426.357.49 1.055.314 2.025.755 2.887 1.312.188.122.435.104.603-.045.676-.598 1.407-1.104 2.18-1.512 1.079.938 2.159 1.868 3.246 2.798-.757.707-1.496 1.392-2.234 2.093-.164.155-.203.4-.097.599.453.843.783 1.762.981 2.733.047.229.247.395.48.399 1.016.019 2.01.182 2.961.481.109 1.396.212 2.792.312 4.181l.007.091-3.411-.107c-.244-.003-.441.146-.5.37-.248.923-.582 1.784-.992 2.562-.101.19-.067.425.082.58.734.765 1.353 1.618 1.839 2.541-.93 1.087-1.857 2.167-2.786 3.245l-2.068-2.212c-.168-.18-.441-.21-.647-.071-.859.588-1.798 1.052-2.788 1.378-.193.063-.329.238-.343.441-.058.872-.217 1.732-.473 2.563-1.023.076-2.651.192-4.259.318.023-.762.05-1.695.084-2.44.012-.246-.158-.463-.399-.513-1.214-.251-2.288-.717-3.168-1.311z"/><path d="m37.171 33.113c0-2.7-2.196-4.896-4.896-4.896s-4.896 2.196-4.896 4.896c0 2.699 2.196 4.896 4.896 4.896s4.896-2.197 4.896-4.896zm-1 0c0 2.149-1.747 3.896-3.896 3.896-.955 0-1.82-.359-2.498-.931l1.796-1.796c.233-.232-.119-.588-.354-.354l-.611.611c-.012-.026-.011-.056-.032-.078l-1.248-1.248 1.208-1.208.513.513c.097.097.255.098.354 0 .098-.098.098-.256 0-.354l-.513-.513.023-.023c.098-.098.098-.256 0-.353-.098-.098-.256-.098-.353 0l-.024.023-.496-.496.743-.742 1.14 1.141c.099.099.257.097.354 0 .098-.098.098-.256 0-.354l-.154-.154.742-.743.627.627c.097.097.255.098.354 0 .098-.098.098-.256 0-.354l-.627-.627.155-.155c.012-.012.009-.029.018-.042 1.601.483 2.779 1.956 2.779 3.714zm-7.756.344c-.01-.115-.035-.226-.035-.344 0-.044.011-.085.013-.129l.228.228-.18.18c-.017.018-.015.044-.026.065zm.029.29c.048.048.111.072.174.072.064 0 .128-.024.177-.073l.18-.18 1.248 1.248c.021.021.052.02.078.032l-.875.875-.135-.135c-.431-.519-.732-1.144-.847-1.839zm1.984-4.043.002.002-.743.742-.123-.123c.254-.248.549-.449.864-.621zm1.717-.474.366.366-.742.743-.645-.645c.06-.088.06-.197-.005-.282.328-.103.669-.17 1.026-.182zm-2.908 1.475.946.946-1.208 1.208-.517-.517c.123-.613.403-1.164.779-1.637z"/><path d="m26.962 27.353.374-.374.059.059c.052.052.115.089.182.089.021 0 .043-.004.064-.012.091-.032.14-.096.149-.192.134.039.27-.043.306-.177s-.043-.271-.177-.306c-.013-.003-.028 0-.042-.002l.151-.151c.098-.098.098-.256 0-.354s-.256-.098-.353 0l-.339.339-.497-.496c-.099-.099-.257-.097-.354 0-.098.098-.098.256 0 .354l.497.496-.374.374-.146-.146c-.098-.098-.256-.098-.354 0s-.098.256 0 .354l.146.146-.724.724-.576-.578c-.098-.098-.256-.098-.354 0s-.098.256 0 .354l.577.577-.847.847c-.098.098-.098.256 0 .354.097.097.255.098.354 0l.847-.847.305.305c.097.097.255.098.354 0 .098-.098.098-.256 0-.354l-.305-.305.724-.724.081.081c.049.049.112.073.177.073s.128-.024.177-.073c.098-.098.098-.256 0-.354z"/><path d="m37.096 37.171.362.362-.401.401-.254-.254c-.099-.099-.257-.097-.353 0-.098.098-.098.256 0 .353l.254.254-.885.885-.416-.416c-.099-.099-.257-.097-.354 0-.098.098-.098.256 0 .354l.416.416-1.708 1.708c-.158.158-.044.427.177.427.064 0 .128-.024.177-.073l1.708-1.708.504.503c.096.096.255.099.354 0 .098-.098.098-.256 0-.354l-.504-.503.885-.885.282.281c.096.096.255.099.354 0 .098-.098.098-.256 0-.354l-.282-.281.401-.401.206.206c.233.233.589-.118.354-.354l-.207-.206.642-.642c.098-.098.098-.256 0-.354s-.256-.098-.354 0l-.642.642-.362-.362c-.098-.098-.256-.098-.354 0-.098.099-.098.257 0 .355z"/></g></svg>