<svg id="Layer_1" enable-background="new 0 0 66 66" height="512" viewBox="0 0 66 66" width="512" xmlns="http://www.w3.org/2000/svg"><g><path d="m18.108 27.627c-1.835 2.228-2.694 7.705 5.066 8.022 2.561.113 5.087.035 7.639-.043 4.435-.138 8.879-.276 13.32-.422 2.079-.055 3.557-.695 3.983-3.292.55-3.313-1.608-6.834-4.812-7.849-2.165-.686-5.602-.285-6.376-2.688.552-.423 1.071-.916 1.499-1.477 1.298-1.705 2.078-3.921 2.454-6.972.834-6.759-1.693-10.25-4.607-11.462-1.745-.734-3.957-.599-5.569.704-1.145.925-2.099-.049-3.584 1.127-.925.747-1.439 1.842-1.746 2.601-1.733 4.302-1.154 9.549 1.475 13.369.626.912 1.328 1.662 2.086 2.254-1.074 2.483-3.042 2.569-5.661 3.243-2.372.598-4.061 1.541-5.167 2.885zm10.562 6.36c.008.051.02.103.059.142l.521.521c-.423.012-.847.02-1.272.029zm2.111.619c-.261.008-.527.015-.79.023l.75-.75.705.706c-.221.007-.443.014-.665.021zm2.265-.897.8.8c-.551.017-1.102.035-1.653.052zm9.118.537c-.609.02-1.217.038-1.825.058.059-.003.118-.022.163-.067.098-.098.098-.256 0-.354l-.25-.25.65-.65zm-.909-1.616 1.077-1.076 1.269 1.268-1.077 1.076zm-.943 1.674c-.252.008-.504.016-.757.024l.342-.342c.118.118.27.311.415.318zm-.414-1.025-1.077-1.077.65-.65 1.077 1.077zm-.354.354-.528.528c-.052.052-.072.119-.069.187-.68.022-1.36.043-2.04.064.003-.002.007-.001.009-.004.087-.087.084-.219.015-.317l1.535-1.536zm-3.43.57c-.065.065-.07.153-.049.236-.551.017-1.103.035-1.654.052.001-.017-.005-.031-.007-.048l1.097-1.098.735.735zm7.989-.019c-.399.013-.797.025-1.196.038l1.047-1.047.92.92c.025.025.059.025.089.037-.288.035-.582.045-.86.052zm3.026-2.455c-.099.604-.394 1.684-1.267 2.145-.19.105-.407.165-.631.209.088-.098.09-.248-.005-.342l-.919-.92 1.183-1.183.372.372-.399.4c-.098.098-.098.256 0 .354s.256.098.354 0l.428-.429c.225.079.365-.097.295-.295l.608-.609c-.01.099-.003.199-.019.298zm.053-.806c-.091-.038-.194-.038-.268.036l-.699.699-1.482-1.482 1.034-1.034 1.094 1.094c.108.108.195.077.289.027.023.219.036.438.032.66zm-16.221-9.373.522-.522.637.637c.098.098.256.098.353 0 .098-.098.098-.256 0-.354l-.637-.637.51-.51.754.754c-.093.098-.094.252.002.348.093.093.243.102.348.003l.242.242c.098.098.256.098.354 0s.098-.256 0-.354l-.24-.24 1.063-1.063.661.662c.098.098.256.098.354 0s.098-.256 0-.354l-.662-.662 1.271-1.271.268.268-.341.343c-.098.098-.098.256 0 .354s.256.098.353 0l.342-.342.471.471c-.433.558-.953 1.059-1.522 1.451-1.519 1.08-3.327 1.504-5.103.776zm1.739-1.739 1.063-1.063.752.752-1.063 1.063zm5.724-4.142c.098.098.256.098.354 0l.438-.438c.029.011.053.035.083.035.055 0 .106-.027.151-.063-.16.652-.348 1.253-.568 1.806l-1.625-1.624c-.025-.025-.061-.026-.092-.038l1.056-1.056.614.614-.411.411c-.098.097-.098.255 0 .353zm1.09-.737.003-.003c0 .002-.001.004-.001.006-.001-.001-.001-.002-.002-.003zm.386-2.296-.289-.289.344-.344c-.02.213-.029.413-.055.633zm-13.6-6.385c1.655-4.099 3.024-1.702 5.031-3.325 1.346-1.088 3.163-1.145 4.555-.559 2.698 1.121 4.006 4.094 4.151 7.185-1.726.957-5.557-.313-7.704-1.744.206-.808.52-2.69-.344-2.621-.275.021-.481.261-.46.537.261 3.407-2.538 6.385-6.102 6.161-.109-1.923.16-3.864.873-5.634zm1.371 12.428c-1.173-1.705-1.895-3.717-2.163-5.789.09.004.181.015.272.015 2.55 0 5.09-1.442 6.22-4.127 2.137 1.368 5.824 2.646 8.038 1.87-.005.206-.008.412-.021.627-.023.012-.051.01-.07.029l-.69.69-.203-.203c-.098-.098-.256-.098-.354 0s-.098.256 0 .354l1.116 1.115c.001.001.002 0 .002.001-.053.37-.112.727-.178 1.07-.091-.038-.193-.038-.267.036l-.184.184-.614-.614.461-.461c.098-.098.098-.256 0-.354s-.256-.098-.353 0l-.461.461-.134-.134c-.098-.098-.256-.098-.353 0-.098.098-.098.256 0 .354l.134.134-1.102 1.102c-.098.098-.098.256 0 .353.032.032.075.037.115.048-.057.096-.059.216.023.298l1.659 1.658c.037.037.086.047.134.055-.238.53-.51 1.014-.814 1.459l-.413-.413.722-.722c.098-.098.098-.256 0-.353-.098-.098-.256-.098-.353 0l-.722.722-.268-.268.86-.86c.098-.098.098-.256 0-.353-.098-.098-.256-.098-.354 0l-.86.86-.756-.756c-.098-.098-.256-.098-.354 0s-.098.256 0 .354l.756.756-1.271 1.271-.752-.752.862-.862c.098-.098.098-.256 0-.353-.098-.098-.256-.098-.354 0l-.862.862-.238-.238c-.098-.098-.256-.098-.354 0s-.098.256 0 .354l.238.238-1.063 1.063-.341-.342c-.098-.098-.256-.098-.354 0s-.098.256 0 .354l.342.342-.51.51-.583-.583c-.098-.098-.256-.098-.354 0s-.098.256 0 .354l.583.583-.649.649c-.219-.116-.435-.241-.647-.39 0 0-.001 0-.001-.001-.788-.554-1.515-1.312-2.163-2.257zm-4.153 7.033c2.334-.598 4.998-.835 6.254-3.629 2.064 1.203 4.337 1.036 6.3-.122 1.203 2.789 4.854 2.379 6.93 3.037 2.111.669 3.681 2.608 4.087 4.759l-.967-.967.079-.079c.098-.098.098-.256 0-.354s-.256-.098-.354 0l-.079.079-.335-.336c-.098-.098-.256-.098-.354 0s-.098.256 0 .354l.335.335-1.063 1.063c-.088-.031-.184-.029-.254.041s-.072.167-.041.254l-.087.087c-.098.098-.098.256 0 .354s.256.098.354 0l.058-.058.756.756-1.183 1.183-1.269-1.269.69-.69c.098-.098.098-.256 0-.353-.098-.098-.256-.098-.354 0l-.69.69-.101-.101c-.098-.098-.256-.098-.354 0s-.098.256 0 .354l.101.101-1.077 1.077-1.077-1.077 1.098-1.099c.098-.098.098-.256 0-.354s-.256-.098-.354 0l-1.099 1.099-.015-.015c-.098-.098-.256-.098-.354 0s-.098.256 0 .354l.015.015-.65.65-.378-.378c-.098-.098-.256-.098-.354 0s-.098.256 0 .354l.378.378-1.525 1.525-.735-.735 2.18-2.18c.098-.098.098-.256 0-.353-.098-.098-.256-.098-.354 0l-2.18 2.18-.186-.186c-.098-.098-.256-.098-.354 0s-.098.256 0 .354l.186.186-1.055 1.055-.687-.696 1.541-1.541c.098-.098.098-.256 0-.354s-.256-.098-.353 0l-1.579 1.579c-.08-.016-.162-.008-.224.054s-.07.144-.054.224l-.922.922-.714-.714 1.018-1.018c.098-.098.098-.256 0-.354s-.256-.098-.354 0l-2.15 2.15-.528-.528c-.039-.039-.091-.051-.142-.059l.985-.985c.098-.098.098-.256 0-.353-.098-.098-.256-.098-.354 0l-1.946 1.946-.506-.506c-.098-.098-.256-.098-.354 0s-.098.256 0 .354l.506.506-.015.015c-1.346.019-2.698.015-4.04-.044-6.826-.279-5.711-4.719-4.337-6.387.967-1.172 2.484-2.006 4.64-2.55z"/><path d="m43.283 64.955c2.374.105 4.303.038 16.605-.369 1.748-.046 2.917-.633 3.254-2.693.444-2.673-1.297-5.514-3.882-6.333-1.744-.552-4.312-.234-4.962-1.993.422-.332.822-.711 1.15-1.143 1.04-1.365 1.663-3.135 1.963-5.571.258-2.092.166-3.738-.292-5.179-1.174-3.751-4.743-5.313-7.404-3.813-.785.44-.586.695-1.512.714-1 .021-2.253.139-3.271 2.658-1.385 3.438-.922 7.632 1.179 10.685.484.706 1.026 1.291 1.61 1.758-.804 1.827-2.419 1.935-4.381 2.435-1.898.479-3.254 1.238-4.145 2.319-1.53 1.86-2.113 6.272 4.088 6.525zm2.42-.969c-.012-.028-.011-.059-.034-.082l-.214-.214.675-.675c-.065.097-.068.225.018.31l.657.657c-.368.007-.733.003-1.102.004zm2.387-.484.438.438c-.298.009-.598.014-.898.022zm1.391.414.394-.394.37.37c-.268.009-.522.017-.764.024zm4.284-1.437 1.018 1.018-.143.143c-.031.031-.036.074-.047.114-.544.017-1.089.035-1.633.052.055-.096.058-.214-.024-.296l-.101-.101zm3.237 1.165c.021.021.05.019.075.031-.608.02-1.215.039-1.823.058l1.426-1.427.652.653-.331.331c-.097.098-.097.257.001.354zm-4.464.176c-.039.001-.078.003-.117.004l.061-.061zm7.321-.233c-.855.028-1.708.054-2.562.081.119-.068.293-.258.39-.355l.156.156c.098.098.256.098.354 0s.098-.256 0-.354l-.156-.156 1.07-1.07.609.609-.501.501c-.098.098-.098.256 0 .354s.256.098.354 0l.501-.501.659.659c-.284.055-.589.069-.874.076zm2.297-1.858c-.059.364-.272 1.228-.918 1.598-.007-.009-.004-.022-.013-.03l-.799-.799.998-.998c.02-.02.019-.049.031-.074l.076.076c.098.098.256.098.354 0s.098-.256 0-.354l-.711-.711.749-.749c.026-.025.026-.061.038-.092.226.686.314 1.414.195 2.133zm-8.721-8.743c-.993.706-2.09.988-3.111.83.055-.006.111-.021.153-.063.098-.098.098-.256 0-.354l-.406-.406.377-.377.757.757c.01.045.017.091.052.126s.081.042.126.052l.093.093c.233.233.589-.118.354-.354l-.006-.006.687-.687.312.312c.098.098.256.098.353 0 .098-.098.098-.256 0-.354l-.312-.312 1.089-1.089.635.635c.018.018.043.015.064.027 0 .001-.001.001-.001.002-.34.45-.759.852-1.216 1.168zm-3.252.819c-.237-.048-.469-.13-.699-.225l.233-.233.406.406c.039.039.091.051.142.059-.027-.005-.055-.002-.082-.007zm.619-1.543.687-.688.669.669-.687.687zm5.009-4.035-.462.463c-.098.098-.098.256 0 .354s.256.098.354 0l.363-.363c-.11.441-.236.852-.381 1.233l-.992-.992.906-.907zm-9.952-6.618c.918-2.271 1.772-1.99 2.772-2.045.814-.039.947-.477 1.575-.829 2.071-1.169 4.963.056 5.96 3.242.207.653.33 1.359.372 2.145-1.405.711-4.408-.4-5.881-1.368.131-.544.183-1.107.14-1.669-.021-.276-.27-.479-.537-.46-.275.021-.481.262-.46.537.197 2.567-1.848 4.87-4.631 4.756-.068-1.474.145-2.956.69-4.309zm1.076 9.744c-.897-1.302-1.452-2.835-1.675-4.415.031.001.062.005.092.005 1.975 0 4.016-1.083 4.971-3.221 1.654 1.034 4.455 1.994 6.215 1.474-.017.483-.052.988-.119 1.535-.051.414-.115.8-.186 1.173-.01 0-.017.01-.027.011l-.281-.281c.037-.09.037-.193-.036-.266-.074-.074-.175-.073-.266-.036l-.433-.434c-.098-.098-.256-.098-.354 0s-.098.256 0 .354l.408.408-.927.927c-.094-.048-.206-.05-.285.029s-.077.191-.029.285l-.519.519c-.098.098-.098.256 0 .354s.256.098.354 0l.499-.499 1.049 1.049c.031.031.072.035.111.046-.169.379-.358.729-.569 1.053l-.621-.621.264-.263c.098-.098.098-.256 0-.354s-.256-.098-.354 0l-.263.263-.955-.955c-.098-.098-.256-.098-.353 0-.098.098-.098.256 0 .354l.955.955-1.089 1.089-.669-.669.566-.566c.098-.098.098-.256 0-.354s-.256-.098-.354 0l-.566.566-.243-.243c-.098-.098-.256-.098-.354 0s-.098.256 0 .354l.243.243-.687.688-.261-.261c-.098-.098-.256-.098-.354 0s-.098.256 0 .354l.261.261-.377.377-.481-.481c-.098-.098-.256-.098-.354 0s-.098.256 0 .354l.481.481-.346.346c-.133-.075-.268-.135-.397-.226-.611-.431-1.178-1.023-1.685-1.762zm-3.349 5.729c1.681-.431 3.957-.646 4.974-2.828 1.645.91 3.429.734 4.898-.098 1.069 2.174 3.865 1.84 5.501 2.358 1.339.424 2.401 1.508 2.915 2.801-.097-.061-.221-.064-.305.02l-.749.749-.401-.401c-.098-.098-.256-.098-.354 0s-.098.256 0 .354l.401.401-.054.054c-.098.098-.098.256 0 .354s.256.098.354 0l.054-.054.324.324c-.025.012-.053.01-.074.031l-.998.998-.609-.609.78-.779c.098-.098.098-.256 0-.354s-.256-.098-.354 0l-.779.779-.376-.376c-.098-.098-.256-.098-.354 0s-.098.256 0 .354l.376.376-1.07 1.07-.652-.653 1.012-1.012c.098-.098.098-.256 0-.353-.098-.098-.256-.098-.354 0l-1.011 1.012-.152-.152c-.098-.098-.256-.098-.354 0s-.098.256 0 .354l.152.152-1.19 1.191-1.018-1.018.613-.613c.098-.098.098-.256 0-.353-.098-.098-.256-.098-.354 0l-.628.628c-.096-.059-.219-.062-.302.021s-.08.206-.021.302l-.945.945-.726-.726c-.098-.098-.256-.098-.354 0s-.098.256 0 .354l.726.726-.325.325c-.031.03-.034.072-.046.11-.321.01-.642.021-.963.031.008-.073-.007-.146-.063-.202l-.504-.504 1.497-1.497c.098-.098.098-.256 0-.354s-.256-.098-.354 0l-1.497 1.497-.204-.204c-.098-.098-.256-.098-.354 0s-.098.256 0 .354l.204.204-.529.529-.549-.549.911-.911c.098-.098.098-.256 0-.354s-.256-.098-.354 0l-.935.935c-.092-.042-.198-.043-.274.033s-.075.182-.033.274l-.552.552-.705-.706c-.086-.086-.213-.083-.31-.018l.994-.993c.098-.098.098-.256 0-.354s-.256-.098-.354 0l-1.73 1.73-.204-.204c-.098-.098-.256-.098-.354 0s-.098.256 0 .354l.204.204-.28.28c-.381-.007-.764.002-1.142-.014-5.965-.248-5.286-5.477.263-6.877z"/><path d="m3.802 58.432c-1.53 1.858-2.113 6.27 4.088 6.523 2.137.095 3.335.068 16.604-.369 1.746-.046 2.917-.63 3.255-2.693.444-2.673-1.297-5.514-3.882-6.333-1.724-.546-4.311-.234-4.962-1.993 3.235-2.542 3.797-8.817 2.821-11.892-.583-1.861-1.862-3.36-3.419-4.008-1.398-.588-3.196-.493-4.516.573-1.087.878-2.777-.655-4.253 2.995-1.385 3.438-.922 7.632 1.179 10.685.484.705 1.026 1.29 1.61 1.758-1.37 3.114-5.786 1.428-8.525 4.754zm10.432 5.48-.104.003.674-.674.633.633c-.4.012-.802.025-1.203.038zm4.182-1.997c.012.022.009.049.028.068l.904.905-.823.823c-.018.018-.016.045-.028.066-.111.004-.223.007-.334.011-.007-.009-.004-.021-.012-.029l-.789-.789zm2.653-.041 1.054 1.054-.757.757c-.166.005-.331.011-.497.016l-.814-.814zm3.047 1.591c-.037.037-.047.086-.056.134-.181.006-.361.011-.541.017l-.689-.689 1.136-1.136.912.912zm-1.282.174c-.246.008-.492.015-.738.023l.381-.381zm-2.65.084c-.332.01-.664.021-.996.032l.514-.514zm-2.689.085c-.335.01-.67.021-1.004.032l.518-.518zm6.071-7.294c2.128.674 3.563 3.014 3.197 5.215v.001c-.242 1.49-.989 1.808-2.053 1.848l.569-.569c.005 0 .009.006.015.006.064 0 .128-.024.177-.073.053-.053.072-.122.067-.191l.623-.623c.098-.098.098-.256 0-.354s-.256-.098-.354 0l-.576.576-.912-.912.914-.914c.098-.098.098-.256 0-.353-.098-.098-.256-.098-.354 0l-.914.914-.558-.558c-.098-.098-.256-.098-.354 0s-.098.256 0 .354l.558.558-1.136 1.136-1.054-1.054 1.456-1.456c.098-.098.098-.256 0-.354s-.256-.098-.354 0l-2.823 2.823-.905-.905c-.019-.019-.045-.017-.068-.028l.728-.728c.098-.098.098-.256 0-.354s-.256-.098-.353 0l-2.096 2.096-.578-.578c-.098-.098-.256-.098-.354 0s-.098.256 0 .354l.578.578-.733.733c-.012-.029-.012-.062-.036-.086l-.728-.729.799-.799c.098-.098.098-.256 0-.354s-.256-.098-.353 0l-.799.799-.292-.292c-.098-.098-.256-.098-.354 0s-.098.256 0 .354l.292.292-.626.626-.904-.905c-.098-.098-.256-.098-.354 0s-.098.256 0 .353l.904.905-.067.067c-.585.018-1.175.032-1.768.043l-.274-.274 2.423-2.423c.098-.098.098-.256 0-.354s-.256-.098-.354 0l-2.418 2.425-.578-.578c-.098-.098-.256-.098-.353 0-.098.098-.098.256 0 .354l.578.578-.284.284c-.815.003-1.631.004-2.44-.031-5.198-.213-4.472-3.537-3.359-4.889 2.44-2.961 6.958-1.336 8.594-4.814 1.603.886 3.356.773 4.897-.099 1.074 2.185 3.863 1.84 5.501 2.359zm-8.043-3.216-.696-.695.57-.57 1.131 1.131c.103.103.279.117.379-.061.007-.005.016-.003.023-.009l.825-.825.524.524c-.08.062-.153.135-.236.192-1.224.871-2.683 1.193-4.121.523l.552-.552.696.695c.098.098.256.098.353 0 .098-.098.098-.256 0-.353zm2.034-3.426.943.943-.746.746-.943-.943zm-.156 2.043-.707.707-.943-.943.707-.707zm1.267.56-.56-.56.746-.746.373.373c.048.048.112.072.175.073-.21.299-.357.503-.734.86zm2.069-4.059c-.084.37-.181.718-.288 1.048l-.535-.535.668-.668zm-10.271-6.807c.77-1.905 1.488-2.014 2.365-2.032 1.844-.041 1.533-1.27 3.672-1.27 2.047 0 3.649 1.684 4.271 3.669.207.653.33 1.359.372 2.145-.428.216-.999.275-1.794.165-1.516-.21-2.853-.722-4.087-1.532.13-.544.183-1.107.14-1.669-.021-.276-.264-.479-.537-.46-.275.021-.481.262-.46.537.198 2.579-1.861 4.874-4.631 4.756-.068-1.474.144-2.955.689-4.309zm1.077 9.744c-.897-1.303-1.452-2.835-1.675-4.416.031 0 .061.005.092.005 2.001 0 4.026-1.104 4.972-3.221 1.3.813 2.703 1.335 4.282 1.554.665.092 1.286.111 1.933-.08-.03.875-.119 1.535-.119 1.535-.027.221-.06.432-.093.641-.173-.036-.226.056-.353.182l-.471-.471c-.098-.098-.256-.098-.354 0s-.098.256 0 .354l.471.471-.668.668-.275-.275c-.098-.098-.256-.098-.354 0s-.098.256 0 .354l1.33 1.33c-.185.475-.396.91-.641 1.304-.012-.035-.014-.073-.042-.1l-.373-.373.02-.02c.098-.098.098-.256 0-.353-.098-.098-.256-.098-.354 0l-.02.02-1.035-1.035c-.011-.042-.016-.086-.049-.119-.098-.098-.256-.098-.354 0l-.958.958-.393-.393c-.098-.098-.256-.098-.354 0s-.098.256 0 .354l.393.393-.707.707-.589-.589c-.098-.098-.256-.098-.354 0s-.098.256 0 .354l.589.589-.57.57-.53-.53c-.098-.098-.256-.098-.354 0s-.098.256 0 .354l.53.53-.649.649c-.08-.049-.164-.083-.243-.138-.609-.433-1.176-1.025-1.681-1.763z"/><path d="m27.231 48.682c-.191.2-.184.516.015.707s.515.185.707-.015l4.664-4.867c.984 1.024 3.436 3.381 5.006 4.882.199.19.515.185.707-.016.191-.2.184-.517-.016-.707-1.762-1.684-4.552-4.381-5.166-5.044.367-2.415.475-4.808.308-7.115-.02-.275-.265-.484-.535-.462-.275.02-.482.259-.462.535.163 2.255.06 4.598-.305 6.964z"/><path d="m20.053 31.867c.133-.038.21-.176.172-.309-1.027-3.623 4.992-5.062 8.869-5.14.138-.003.248-.117.245-.255s-.132-.252-.255-.245c-4.399.088-10.476 1.768-9.341 5.777.039.132.176.209.31.172z"/><path d="m23.844 59.771c.064 0 .128-.024.177-.073l.436-.436 1.66 1.66c.049.049.113.073.177.073s.128-.024.177-.073c.098-.098.098-.256 0-.354l-1.66-1.66.5-.5c.098-.098.098-.256 0-.353-.098-.098-.256-.098-.354 0l-.539.539c-.078-.014-.158-.005-.219.056-.06.06-.07.141-.056.219l-.475.475c-.098.098-.098.256 0 .354.048.048.112.073.176.073z"/></g></svg>