<svg id="Layer_1" enable-background="new 0 0 66 66" height="512" viewBox="0 0 66 66" width="512" xmlns="http://www.w3.org/2000/svg"><g><path d="m32.221 4.786c-3.298-.084-6.687-.175-10.146-.274-3.748-.094-4.892 1.127-4.939 4.734l-.114 6.075c-.008.763-.018 1.627.366 2.402.521 1.027 1.308 1.161 2.141 1.171.001.426.066 1.462.054 1.777-.081 1.467 1.11 2.151 2.462.902.944-.879 1.798-1.783 2.525-2.671.011-.012.022-.024.032-.037 8.08.017 8.461.083 9.312-.098.016.772.03 1.545.042 2.312 0 1.869.62 2.856 3.137 2.922l7.962.229.053.001c.007.009.014.017.021.024.734.957 1.561 1.886 2.45 2.761 1.261 1.264 2.523.695 2.483-.81 0-.317.097-1.34.113-1.784 2.117.088 2.57-1.43 2.614-3.497.022-1.997.059-4.014.084-6.078.017-1.364-.043-2.776-.953-3.755-.969-1.021-2.429-1.115-3.843-1.123-2.797-.006-4.878-.02-10.155-.046-.604 0-1.223.035-1.798.181l.049-1.073c.143-2.855-.709-4.151-3.952-4.245zm-7.853 13.072c-.141.01-.337.093-.434.23-.295.413-1.331 1.598-2.569 2.751-.164.15-.567.514-.725.349-.101-.101-.107-2.64-.098-2.783.016-.233-.249-.544-.622-.527-.879.045-1.312.041-1.638-.604-.275-.556-.268-1.262-.261-1.94l.114-6.074c.038-3.037.742-3.833 3.911-3.75 3.459.099 6.849.19 10.146.274 2.618.074 3.097.855 2.981 3.192l-.072 1.569c-1.18.79-1.274 2.08-1.262 3.493.021 1.23.041 2.461.055 3.702-.736.229-8.835.136-9.526.118zm23.705-6.891c3.2.018 3.837.826 3.8 3.867-.025 2.058-.062 4.075-.084 6.085-.057 2.627-.768 2.58-2.07 2.464-.291-.026-.553.21-.543.517.032.862-.114 1.562-.114 2.318.009.33-.003.577-.307.459-.154-.062-.305-.203-.473-.372-1.068-1.049-2.079-2.249-2.51-2.857-.091-.129-.237-.208-.396-.212l-8.256-.236c-1.979-.051-2.164-.616-2.164-1.93-.015-1-.03-1.999-.054-2.992-.015-1.357-.037-2.707-.061-4.052-.009-1.106.006-2.256.984-2.762.597-.318 1.394-.345 2.094-.345 5.269.028 7.359.041 10.154.048z"/><path d="m21.991 9.886c-1.013.015-1.967.749-2.319 1.785-.317.933-.06 1.873.672 2.452.752.597 1.85.646 2.668.135.997-.623 1.235-1.91.956-2.86-.28-.947-1.035-1.52-1.977-1.512zm.491 3.524c-.457.286-1.109.253-1.518-.07-.571-.453-.433-1.093-.346-1.347.179-.526.688-1.097 1.386-1.107h.02c.651 0 .896.497.983.795.172.581.022 1.387-.525 1.729z"/><path d="m26.791 9.886c-1.013.015-1.966.748-2.318 1.785-.317.933-.061 1.873.671 2.453.736.583 1.833.656 2.668.134.997-.623 1.235-1.91.956-2.86-.281-.947-1.071-1.52-1.977-1.512zm.491 3.524c-.454.283-1.107.254-1.518-.071-.571-.453-.432-1.093-.345-1.347.179-.526.688-1.097 1.385-1.107h.019c.652 0 .896.497.984.795.172.582.022 1.388-.525 1.73z"/><path d="m29.425 11.67c-.317.933-.06 1.873.671 2.453.737.583 1.833.656 2.668.134.997-.623 1.235-1.91.956-2.86-.656-2.217-3.561-1.884-4.295.273zm2.809 1.74c-.455.283-1.107.254-1.518-.071-.571-.453-.432-1.093-.345-1.347.418-1.23 2.015-1.578 2.388-.312.172.582.022 1.388-.525 1.73z"/><path d="m39.685 18.963c.997-.623 1.235-1.91.956-2.86-.637-2.166-3.549-1.918-4.295.274-.317.933-.06 1.872.672 2.452.742.588 1.837.653 2.667.134zm-2.391-2.265c.42-1.237 2.02-1.573 2.388-.313.172.581.021 1.388-.525 1.73-.455.284-1.106.254-1.517-.07-.572-.453-.433-1.093-.346-1.347z"/><path d="m44.486 18.963c.997-.623 1.235-1.91.956-2.86-.635-2.143-3.544-1.936-4.296.273-.317.933-.06 1.872.672 2.452.752.597 1.85.646 2.668.135zm-2.393-2.265c.418-1.23 2.016-1.578 2.389-.312.172.582.021 1.387-.525 1.729-.457.286-1.109.253-1.517-.07-.572-.453-.433-1.093-.347-1.347z"/><path d="m49.438 18.963c.997-.623 1.235-1.91.956-2.86-.652-2.207-3.556-1.896-4.296.274-.316.933-.06 1.872.672 2.452.753.596 1.85.645 2.668.134zm-2.392-2.264c.417-1.229 2.015-1.58 2.389-.313.172.582.021 1.387-.525 1.729-.457.286-1.109.253-1.518-.07-.572-.453-.432-1.093-.346-1.346z"/><path d="m55.557 32.348c-.97-1.095-2.347-1.689-4.094-1.765-7.381-.328-7.574 3.374-7.648 4.767l-.011.187c-.059.908-.058 1.834.001 2.758-.086.019-.172.043-.258.074-.552.209-.985.667-1.16 1.223-.178.558-.103 1.197.219 1.897.251.554.554.964.915 1.247.35.287.772.451 1.19.471.103.338.223.693.364 1.076.351.946.886 2.105 1.82 2.947-.122.274-.228.552-.321.825-.152.446-.297.867-.537 1.212-.278.401-.667.681-1.121.889-.082.01-.158.042-.227.09-.687.269-1.492.403-2.286.529l-.635.104c-1.745.305-3.135.85-4.247 1.667-1.369 1.005-2.273 2.438-2.478 3.933-.226 1.716.535 3.435 1.893 4.276 1.19.738 2.657.738 3.839.738 6.132-.023 12.271-.038 18.412-.053 1.168-.008 2.491-.017 3.627-.641.001 0 .002-.001.002-.001 1.619-.897 2.495-2.966 2.083-4.921-.361-1.702-1.62-3.25-3.368-4.143-.958-.491-1.99-.766-2.988-1.031-.564-.15-1.129-.3-1.678-.489-1.667-.581-2.671-1.384-2.983-2.386-.083-.271-.18-.517-.282-.75.861-.691 1.609-1.62 2.166-2.741.188-.38.346-.755.479-1.137.403-.027.806-.185 1.148-.458.374-.293.688-.715.932-1.254 0-.001 0-.001.001-.002.314-.706.385-1.343.213-1.883-.162-.55-.607-1.023-1.177-1.238-.068-.023-.137-.043-.205-.059.089-1.906-.154-4.327-1.6-5.958zm-6.369 14.299-.675-.675.722-.722 1.081 1.081-.406.406c-.098.098-.098.256 0 .354.049.049.112.073.177.073.064 0 .128-.024.177-.073l.406-.406.458.458c.045.045.104.064.163.068-1.233.366-2.554.184-3.481-.508-.003-.003-.011-.007-.015-.01l.366-.366.674.673c.049.049.112.073.177.073s.128-.024.177-.073c.097-.097.097-.256-.001-.353zm3.51-.12c-.276.195-.574.36-.913.505-.1.043-.203.074-.305.109.097-.098.097-.255 0-.353l-.458-.458.991-.991.936.936c.011.011.026.008.038.016-.097.078-.189.166-.289.236zm-6.26 3.802 3.505 1.682c-.282.541-.58 1.254-.772 1.886-.541-.461-1.053-.987-1.586-1.536-.536-.551-1.085-1.114-1.677-1.616.187-.122.366-.258.53-.416zm11.849 1.341c.99.263 1.926.512 2.789.955 1.483.757 2.547 2.05 2.846 3.46.318 1.51-.363 3.16-1.588 3.838-.914.502-2.104.51-3.149.517-6.14.015-12.28.03-18.41.053-1.107 0-2.362 0-3.31-.587-1.014-.628-1.601-1.984-1.429-3.293.168-1.226.926-2.414 2.078-3.26.985-.724 2.237-1.21 3.827-1.488l.62-.102c.772-.123 1.593-.254 2.344-.524.681.524 1.308 1.147 1.961 1.819.725.745 1.474 1.515 2.319 2.121.086.062.188.094.291.094.067 0 .135-.014.198-.041.161-.07.274-.219.298-.393.065-.492.364-1.318.673-1.985.309.668.608 1.493.674 1.985.023.174.137.323.298.393.063.027.131.041.198.041.102 0 .205-.032.291-.094.845-.605 1.594-1.375 2.317-2.12.691-.71 1.349-1.375 2.076-1.915.013.005.025.01.038.015.574.197 1.162.355 1.75.511zm-2.845-.972c-.614.514-1.182 1.096-1.735 1.664-.533.548-1.045 1.075-1.585 1.535-.192-.631-.491-1.345-.773-1.886l3.462-1.661c.196.122.407.238.631.348zm-1.52-1.03-3.276 1.572-3.609-1.732c.201-.369.355-.751.484-1.13.064-.189.127-.372.196-.547.035.019.074.033.11.051.014.007.029.013.043.02.197.097.402.178.613.247.029.009.057.019.087.028.46.139.946.211 1.442.213.008 0 .016.002.024.002.01 0 .02-.003.03-.003.348-.002.699-.035 1.047-.106.005-.001.01-.003.015-.004.355-.073.706-.178 1.046-.324.205-.087.403-.184.594-.29.056.144.108.297.158.459.18.573.518 1.086.996 1.544zm-.586-3.664c-.012-.028-.011-.059-.034-.082l-.936-.936 1.417-1.417.68.68c.046.046.106.067.167.069-.37.647-.802 1.223-1.294 1.686zm4.078-4.927c-.177.391-.391.686-.639.88-.244.193-.539.278-.796.235-.252-.05-.493.103-.567.345-.142.46-.319.904-.542 1.356-.01.019-.022.036-.031.055-.01-.017-.007-.039-.022-.054l-.68-.68.922-.922c.098-.098.098-.256 0-.354s-.256-.098-.354 0l-.922.922-.786-.787c-.098-.098-.256-.098-.354 0s-.098.256 0 .354l.786.787-1.417 1.417-.764-.764c-.098-.098-.256-.098-.354 0s-.098.256 0 .354l.764.764-.991.991-1.081-1.081 2.339-2.339c.098-.098.098-.256 0-.354s-.256-.098-.353 0l-2.356 2.356c-.095-.054-.213-.057-.294.025-.081.081-.078.199-.025.294l-.74.74-.585-.585c-.098-.098-.256-.098-.354 0s-.098.256 0 .353l.586.585-.38.38c-.688-.689-1.12-1.631-1.413-2.417-.187-.508-.336-.962-.451-1.389-.06-.222-.261-.37-.482-.37-.037 0-.075.004-.113.013-.255.058-.571-.03-.819-.234-.241-.188-.447-.477-.632-.882-.148-.322-.299-.788-.174-1.18.082-.263.297-.489.551-.585.136-.048.264-.064.392-.05.149.019.299-.033.406-.138.107-.104.162-.252.149-.401-.091-1.043-.103-2.092-.037-3.115l.012-.2c.07-1.332.186-4.108 6.605-3.821 1.466.064 2.606.545 3.39 1.429 1.329 1.5 1.455 3.898 1.324 5.664l-.401.401-.451-.451c-.098-.098-.256-.098-.354 0s-.098.256 0 .354l.451.451-.835.835c-.055.006-.111.021-.154.064-.042.042-.058.098-.064.154l-.608.608c-.098.098-.098.256 0 .354.049.049.112.073.177.073s.128-.024.177-.073l.54-.54 1.116 1.116c.049.049.112.073.177.073.064 0 .128-.024.177-.073.098-.098.098-.256 0-.354l-1.116-1.116.767-.767.565.565-.517.517c-.098.098-.098.256 0 .354.049.049.112.073.177.073.064 0 .128-.024.177-.073l.583-.583c.057-.005.114-.022.158-.065s.061-.101.065-.158l.598-.598c.012.028.038.05.047.08.123.386-.025.856-.17 1.182zm-.193-1.64c-.006.005-.015.003-.021.009l-.549.549-.565-.565.265-.265c.093.066.2.109.321.095.118-.009.238.007.351.045.075.028.133.086.198.132z"/><path d="m12.031 45.994c-.278.401-.667.681-1.121.889-.082.01-.158.042-.226.09-.687.269-1.492.403-2.287.53l-.634.104c-1.745.305-3.134.85-4.247 1.667-1.37 1.004-2.273 2.437-2.478 3.933-.226 1.716.535 3.435 1.893 4.276 1.188.738 2.656.738 3.838.738 6.13-.023 12.269-.038 18.413-.053 1.167-.008 2.49-.017 3.627-.641.001 0 .001-.001.002-.001 1.618-.896 2.494-2.966 2.083-4.921-.361-1.702-1.621-3.251-3.369-4.143-.958-.492-1.99-.766-2.988-1.032-.564-.15-1.129-.3-1.677-.489-1.668-.581-2.672-1.384-2.984-2.386-.085-.277-.18-.52-.281-.75.861-.691 1.608-1.62 2.166-2.741.188-.38.346-.755.48-1.137.402-.027.805-.185 1.146-.457.375-.293.69-.715.934-1.254 0-.001.001-.002.001-.003.313-.708.385-1.344.213-1.883-.164-.551-.609-1.023-1.177-1.237-.068-.023-.138-.043-.206-.059.089-1.904-.154-4.325-1.599-5.957-.97-1.096-2.349-1.69-4.096-1.766-7.394-.321-7.573 3.374-7.648 4.767l-.011.187c-.058.904-.058 1.829.001 2.758-.086.019-.172.043-.258.074-.551.208-.984.666-1.16 1.223-.177.557-.103 1.196.219 1.896.251.553.554.963.916 1.247.35.287.772.451 1.191.471.103.344.224.699.364 1.077.349.943.882 2.098 1.82 2.946-.123.275-.229.554-.322.827-.154.445-.298.865-.538 1.21zm.401 1.063 3.505 1.682c-.282.541-.581 1.255-.773 1.886-.54-.46-1.052-.986-1.585-1.535-.536-.551-1.085-1.115-1.677-1.617.187-.122.366-.258.53-.416zm11.848 1.34c.99.264 1.927.513 2.789.955 1.483.757 2.548 2.05 2.847 3.459.318 1.51-.364 3.16-1.587 3.838-.916.502-2.104.511-3.156.518-6.138.015-12.277.03-18.405.053-1.107 0-2.362 0-3.309-.587-1.015-.628-1.602-1.984-1.43-3.293.168-1.227.926-2.415 2.079-3.26.985-.724 2.237-1.21 3.827-1.488l.619-.102c.771-.123 1.593-.254 2.344-.524.682.525 1.309 1.148 1.963 1.82.724.745 1.473 1.515 2.317 2.12.086.062.189.094.291.094.067 0 .135-.014.198-.041.161-.07.274-.219.298-.393.065-.492.365-1.317.674-1.985.309.667.608 1.493.673 1.985.023.174.137.323.298.393.064.027.131.041.198.041.102 0 .205-.032.291-.094.846-.605 1.595-1.376 2.319-2.121.69-.71 1.348-1.374 2.075-1.914.014.005.025.01.039.015.573.198 1.16.355 1.748.511zm-2.844-.971c-.613.513-1.181 1.095-1.734 1.663-.533.549-1.045 1.075-1.586 1.536-.192-.631-.49-1.345-.773-1.886l3.461-1.661c.197.122.408.238.632.348zm-1.521-1.03-3.275 1.571-3.609-1.732c.2-.368.353-.75.483-1.128.065-.189.128-.373.197-.549.034.018.071.031.106.049.019.01.039.017.058.027.191.093.389.172.593.238.035.011.07.023.106.034.454.136.933.208 1.422.211.012 0 .024.003.036.003.015 0 .031-.005.046-.005.341-.003.684-.035 1.025-.104.011-.002.021-.006.032-.008.351-.073.7-.177 1.037-.321.208-.089.404-.185.592-.29.056.142.108.294.158.458.177.575.516 1.088.993 1.546zm-2.203-6.018.747.747-.779.779-.747-.746zm2.299 1.592-.846-.846 1.054-1.053.611.611c-.239.471-.516.899-.819 1.288zm-.325.382c-.31.343-.639.653-.994.902-.001.001-.002.001-.003.002.092-.098.093-.251-.003-.347l-.653-.653.779-.779zm-2.36-.095-.973.973-.746-.746.973-.973zm-1.052 1.601c.049.049.112.073.177.073.064 0 .128-.024.177-.073.067-.067.071-.157.046-.242l1.006-1.005.653.653c.049.049.112.073.177.073.056 0 .107-.027.153-.063-.268.187-.557.347-.884.486-1.057.453-2.231.472-3.197.093.081-.098.084-.241-.008-.333l-.001-.001.682-.682zm5.702-4.937-1.16-1.16 1.118-1.118.569.569-.6.6c-.098.098-.098.256 0 .354.049.049.112.073.177.073.064 0 .128-.024.177-.073l.6-.6.294.294c.049.049.112.073.177.073.005 0 .008-.005.013-.005-.164.325-.351.588-.572.76-.244.19-.545.276-.793.233zm1.537-1.394c-.006-.007-.003-.017-.01-.023l-.293-.294.402-.402c.024.209-.008.449-.099.719zm-.117-1.21-.54.54-.569-.569.31-.309c.022.001.043.011.066.009.126-.012.24.006.354.045.15.057.276.161.379.284zm-11.388 4.345c-.186-.497-.333-.951-.451-1.388-.06-.222-.261-.37-.482-.37-.037 0-.075.004-.113.013-.255.059-.571-.031-.82-.235-.241-.189-.447-.476-.631-.881-.148-.323-.3-.79-.176-1.179.084-.264.299-.49.552-.586.137-.049.266-.065.393-.051.149.018.299-.034.405-.138.107-.104.162-.252.149-.401-.09-1.049-.102-2.098-.037-3.115l.012-.2c.071-1.332.19-4.104 6.605-3.821 1.467.064 2.607.545 3.391 1.429 1.341 1.514 1.458 3.941 1.32 5.71-.007.086.015.168.05.245l-.24.24-.066-.066c-.098-.098-.256-.098-.354 0s-.098.256 0 .354l.066.066-1.878 1.878c-.098.098-.098.256 0 .354.049.049.112.073.177.073.064 0 .128-.024.177-.073l.406-.406 1.015 1.015c-.029.042-.055.086-.071.137-.097.316-.219.624-.353.933l-.48-.48.43-.43c.098-.098.098-.256 0-.354-.097-.097-.255-.099-.353 0l-.43.43-.551-.552c-.098-.098-.256-.098-.353 0-.098.098-.098.256 0 .354l.551.552-1.054 1.053-.774-.774c.033-.089.033-.188-.039-.259-.076-.076-.181-.075-.273-.033-.097-.071-.23-.075-.32.014-.079.079-.077.192-.028.286l-.799.799-.049-.05c-.098-.098-.256-.098-.354 0s-.098.256 0 .354l.049.05-.973.973-.373-.373c-.098-.098-.256-.098-.353 0-.098.098-.098.256 0 .354l.373.373-.681.681-.567-.567c-.098-.098-.256-.098-.354 0s-.098.256 0 .354l.42.419c-.008-.005-.018-.012-.023-.015-.869-.695-1.358-1.805-1.688-2.696z"/><path d="m50.883 35.372.669-.669c.098-.098.098-.256 0-.354-.097-.097-.255-.099-.353 0l-.67.669-.685-.685.128-.128c.098-.098.098-.256 0-.354s-.256-.098-.354 0l-.128.128-.236-.236c-.098-.098-.256-.098-.354 0s-.098.256 0 .354l.236.236-.656.657-.193-.193c-.098-.098-.256-.098-.354 0s-.098.256 0 .354l.193.193-.586.585-.535-.535c-.098-.098-.256-.098-.354 0s-.098.256 0 .354l.535.535-.961.962c-.098.098-.098.256 0 .354.049.049.112.073.177.073.064 0 .128-.024.177-.073l.961-.962 1.211 1.211c.049.049.112.073.177.073s.128-.024.177-.073c.098-.098.098-.256 0-.354l-.176-.176c.003-.003.008-.001.011-.005l.577-.577.491.491c.049.049.112.073.177.073.064 0 .128-.024.177-.073.098-.098.098-.256 0-.354l-.491-.491.657-.657.691.691c.049.049.112.073.177.073.064 0 .128-.024.177-.073.098-.098.098-.256 0-.354zm-2.295 1.587c-.003.003-.002.008-.005.011l-.688-.688.586-.585.685.685zm.931-.93-.685-.685.657-.657.685.685z"/><path d="m14.746 34.864c.049.049.112.073.177.073.064 0 .128-.024.177-.073.098-.098.098-.256 0-.354l-.976-.976.531-.531.531.531-.067.067c-.098.098-.098.256 0 .354.049.049.112.073.177.073.064 0 .128-.024.177-.073l.067-.067.095.095c.049.049.112.073.177.073.064 0 .128-.024.177-.073.098-.098.098-.256 0-.354l-.095-.095.836-.836.356.356c.049.049.112.073.177.073.064 0 .128-.025.177-.073.098-.098.098-.256 0-.354l-.356-.356.263-.263c.357-.03.673-.209.861-.491.076-.115.046-.27-.069-.347-.115-.076-.269-.046-.347.069-.114.171-.321.273-.554.273-.066 0-.13.026-.177.073l-.331.332-.531-.531.51-.51c.098-.098.098-.256 0-.354s-.256-.098-.354 0l-.51.51-.668-.668.665-.665c.098-.098.098-.256 0-.354s-.256-.098-.354 0l-.665.665-.052-.052c-.098-.097-.256-.099-.354 0-.098.098-.098.256 0 .354l.052.052-.976.976c-.017.01-.038.007-.052.022-.014.014-.011.036-.022.052l-.81.81c-.017.01-.039.007-.053.022-.015.015-.012.036-.022.053l-.069.069c-.098.098-.098.256 0 .354.049.049.112.073.177.073.028 0 .051-.023.077-.032l.697.697-.951.951c-.098.098-.098.256 0 .354.049.049.112.073.177.073.064 0 .128-.024.177-.073l.951-.951zm1.629-2.519-.836.836-.531-.531.836-.836zm-.885-.885-.836.836-.668-.668.836-.836zm-2.389 1.053.531-.531.668.668-.531.531z"/></g></svg>