<svg id="Layer_1" enable-background="new 0 0 66 66" height="512" viewBox="0 0 66 66" width="512" xmlns="http://www.w3.org/2000/svg"><g><path d="m9.805 36.889c-.084 2.364.109-.396-.556 8.399-.157 2.096 1.072 2.902 2.811 1.804 2.989-1.857 5.868-4.007 8.56-6.392 2.152.358 4.302.517 6.413.492-.169.61-.306 1.225-.377 1.841-.626 5.399 2.423 11.121 7.587 14.24 4.247 2.561 9.77 3.438 15.582 2.479 2.049 1.81 4.24 3.446 6.523 4.867 1.52.92 2.448.092 2.322-1.489-.461-6.234-.367-4.668-.416-6.354 1.495-.748 4.339-3.249 5.684-6.315 0 0 0 0 0-.001 2.438-5.602.537-13.997-7.48-18.415-2.385-1.313-5.073-2.191-7.812-2.602 1.827-3.355 2.59-6.944 2.182-10.427-.683-5.844-4.735-11.456-10.576-14.646-11.963-6.53-27.334-3.002-34.64 5.611-4.488 5.331-5.799 12.833-3.26 18.672 1.549 3.539 4.189 6.169 7.453 8.236zm53.217 13.172c-.999 2.279-2.795 4.286-5.187 5.799l-.109.068c-.072.046-.143.091-.219.131-.17.091-.272.272-.263.464.011.222.016.449.021.679.021 1 .006.57.408 6.005.073.926-.152.955-.802.56-2.296-1.43-4.504-3.086-6.562-4.921-.093-.083-.211-.127-.333-.127-.028 0-.057.002-.086.007-5.657.981-11.032.162-15.132-2.31-4.835-2.919-7.691-8.251-7.109-13.269 1.218-10.67 16.175-16.913 28.325-10.226 7.57 4.173 9.28 12.008 7.048 17.14zm-56.645-39.434c6.884-8.121 21.717-11.753 33.396-5.378 5.56 3.036 9.415 8.357 10.06 13.885.397 3.387-.374 6.892-2.231 10.155-8.316-.855-17.456 3.04-20.27 10.909-2.222.047-4.503-.13-6.78-.523-.151-.026-.304.018-.418.12-2.7 2.411-5.594 4.581-8.604 6.451-.966.609-1.384.451-1.283-.881.549-7.274.51-6.574.539-7.786.011-.506.145-1.208-.236-1.41-.088-.046-.173-.1-.259-.153l-.174-.106c-3.161-1.995-5.529-4.642-6.848-7.655-2.39-5.499-1.141-12.583 3.108-17.628z"/><path d="m16.689 25.33c2.041-1.102 3.092-3.784 2.341-5.979-1.016-2.969-5.195-4.684-8.018-2.05-.04.011-.083.016-.115.048-.027.027-.029.065-.041.099-.469.477-.85 1.053-1.108 1.711-.652 1.666-.406 3.479.659 4.849 1.422 1.83 4.24 2.424 6.282 1.322zm-6.162-4.173c.2.2.352.001.545-.191l1.167 1.167-.729.729c-.106-.106-.872-.906-1.014-.95-.118-.506-.132-1.035-.041-1.563l.264.264-.191.191c-.098.097-.098.255-.001.353zm.629 2.058-.049.049c-.07-.098-.141-.195-.201-.298zm5.058 1.235c-1.529.825-3.589.448-4.78-.806l.076-.076.124.124c.049.049.113.073.177.073.065 0 .128-.024.177-.073.098-.098.098-.256 0-.354l-.124-.124.729-.729c.138.138.286.21.425.072.098-.098.098-.256 0-.354l-.072-.072.344-.344c.098-.098.098-.256 0-.354-.097-.097-.255-.098-.354 0l-.344.344-1.167-1.167 1.19-1.19 1 1c.233.233.589-.118.353-.354l-1-1 .077-.077c.098-.098.098-.256 0-.354-.099-.098-.257-.097-.354 0l-.077.077-.8-.8c.234-.2.492-.368.767-.507l1.407 1.407c-.248.248.111.596.353.354.114.114.268.313.416.313.064 0 .128-.024.177-.073.098-.098.098-.256 0-.354l-.239-.24.822-.821.84.84c.097.097.255.098.354 0 .098-.098.098-.256 0-.354l-.846-.846c.066-.08.066-.183.017-.271 3.412 1.524 2.848 5.731.332 7.09zm-.789-7.257c.065.02.132.036.196.059-.034.009-.068.017-.097.04zm-.88-.173.621.621-.822.821-1.263-1.263c.507-.171.887-.224 1.464-.179zm-3.088 1.243.805.805-1.19 1.19-.469-.469c-.003-.003-.008-.002-.011-.004.028-.088.051-.177.085-.264.188-.476.455-.898.78-1.258z"/><path d="m26.083 25.884c.789 0 1.574-.179 2.269-.554 2.041-1.102 3.092-3.784 2.341-5.979-.751-2.194-3.224-3.673-5.512-3.293-1.712.283-3.122 1.442-3.771 3.101-.652 1.666-.406 3.479.659 4.849.94 1.206 2.485 1.876 4.014 1.876zm-3.991-5.393.459.459-.192.192c-.098.098-.098.256 0 .354.097.097.255.098.354 0l.192-.192 1.167 1.167-.729.729-.906-.906c-.052-.052-.12-.072-.187-.069-.181-.554-.238-1.143-.158-1.734zm7.656-.817c.599 1.753-.24 3.896-1.87 4.776-1.331.719-3.067.522-4.281-.366.016.003.028.018.044.018.064 0 .128-.024.177-.073.098-.098.098-.256 0-.354l-.123-.123.729-.729.072.072c.097.097.255.098.354 0 .098-.098.098-.256 0-.354l-.072-.072.343-.344c.098-.098.098-.256 0-.354s-.256-.098-.354 0l-.343.344-1.167-1.167 1.19-1.19 1 1c.097.097.255.098.354 0 .098-.098.098-.256 0-.354l-1-1 .077-.077c.098-.098.098-.256 0-.354s-.256-.098-.354 0l-.077.077-1.055-1.055c.227-.206.476-.383.744-.53l1.685 1.685-.008.007c-.098.098-.098.256 0 .354.096.097.255.099.354 0l.008-.007.24.24c.097.097.255.098.353 0s.098-.256 0-.354l-.24-.24.821-.821.841.84c.097.097.255.098.353 0s.098-.256 0-.354l-.847-.847c.081-.098.083-.241-.009-.333s-.234-.09-.333-.009l-.51-.51c1.303.325 2.468 1.286 2.904 2.558zm-4.402-2.631c.271-.045.545-.047.817-.029-.006.071.011.142.065.196l.768.768-.821.821-1.554-1.554c.234-.087.473-.16.725-.202zm-2.301 1.313 1.05 1.05-1.19 1.19-.468-.468c-.074-.074-.178-.074-.269-.035.045-.192.101-.382.175-.571.17-.438.412-.826.702-1.166z"/><path d="m40.397 25.33c2.041-1.102 3.092-3.784 2.341-5.979-.75-2.194-3.232-3.671-5.511-3.294-.001 0-.001 0-.001 0-1.712.283-3.122 1.442-3.77 3.101-.652 1.666-.406 3.479.659 4.849 1.422 1.831 4.24 2.425 6.282 1.323zm-5.94-2.683.685.684-.152.152c-.027-.032-.06-.058-.086-.091-.182-.232-.326-.484-.447-.745zm7.335-2.973c.599 1.753-.24 3.896-1.87 4.776-1.447.781-3.376.492-4.589-.603l.162-.162.124.124c.097.097.255.098.354 0 .098-.098.098-.256 0-.354l-.124-.124.729-.729.072.072c.097.097.255.098.354 0 .098-.098.098-.256 0-.354l-.072-.072.344-.344c.098-.098.098-.256 0-.354s-.256-.098-.354 0l-.344.344-1.167-1.167 1.19-1.19 1 1c.097.097.255.098.354 0 .098-.098.098-.256 0-.354l-1-1 .077-.077c.098-.098.098-.256 0-.354-.098-.097-.256-.098-.353 0l-.077.077-.99-.99c.241-.194.503-.359.785-.49l1.58 1.58-.008.007c-.098.098-.098.256 0 .354.097.097.255.098.354 0l.007-.007.24.24c.097.097.255.098.354 0 .098-.098.098-.256 0-.354l-.24-.24.821-.821.84.84c.097.097.255.098.354 0 .098-.098.098-.256 0-.354l-.847-.846c.061-.073.062-.165.026-.249.874.473 1.593 1.237 1.914 2.175zm-2.431-2.413c.084.032.164.071.246.108-.034.009-.069.017-.098.04zm-1.971-.218c.346-.057.697-.045 1.044-.002l.716.716-.821.821-1.422-1.422c.157-.047.318-.086.483-.113zm-2.148 1.137 1.005 1.005-1.19 1.19-.468-.468c-.089-.089-.225-.087-.323-.013.036-.125.072-.25.12-.373.201-.513.495-.965.856-1.341zm-1.045 1.987c.012.032.013.067.039.093l.468.468-.192.192c-.098.098-.098.256 0 .354.097.097.255.098.354 0l.192-.192 1.167 1.167-.729.729-.906-.906c-.096-.096-.251-.096-.349-.002-.171-.61-.184-1.26-.044-1.903z"/><path d="m52.813 47.98c1.632.883 3.809.428 4.951-1.043.84-1.081 1.035-2.51.521-3.822-.512-1.307-1.623-2.22-2.974-2.443-1.835-.307-3.742.836-4.344 2.596-.601 1.76.209 3.829 1.846 4.712zm4.541-4.5c.385.981.242 2.044-.379 2.844-.835 1.075-2.489 1.422-3.688.776-.044-.024-.081-.057-.123-.083.06-.003.119-.023.165-.068.098-.098.098-.256 0-.354l-.053-.053.476-.475.013.013c.049.049.112.073.177.073.064 0 .128-.024.177-.073.093-.092.109-.245-.013-.367l.222-.222c.098-.098.098-.256 0-.354s-.256-.098-.354 0l-.222.222-.812-.812.83-.829.725.725c.049.049.112.073.177.073.064 0 .128-.024.177-.073.098-.098.098-.256 0-.354l-.725-.725.018-.018c.098-.098.098-.256 0-.354-.097-.097-.255-.098-.354 0l-.018.018-.802-.802c.161-.116.332-.215.512-.299l1.275 1.275c-.06.097-.063.219.021.303.049.049.113.073.177.073.046 0 .086-.027.126-.052.109.109.196.23.334.23.221 0 .334-.269.177-.427l-.142-.142.547-.547.603.603c.049.049.112.073.177.073s.128-.024.177-.073c.098-.098.098-.256 0-.354l-.624-.624c.01-.022.024-.042.027-.066.433.324.788.76.999 1.299zm-2.633-1.857c.114 0 .228.013.342.028.012.024.01.053.03.073l.547.547-.547.547-1.092-1.092c.236-.062.477-.103.72-.103zm-2.808 1.968c.137-.4.376-.756.674-1.055l.829.829-.83.83-.318-.318c-.098-.098-.256-.098-.353 0-.098.098-.098.256 0 .353l.318.318-.106.106c-.098.098-.098.256 0 .354.049.049.112.073.177.073.064 0 .128-.024.177-.073l.106-.106.812.812-.476.476-.654-.653c-.084-.085-.208-.081-.304-.02-.226-.619-.264-1.305-.052-1.926z"/><path d="m42.051 43.267c-.603 1.759.207 3.83 1.844 4.713 1.637.884 3.812.425 4.952-1.043.84-1.081 1.035-2.51.521-3.822-.512-1.307-1.623-2.22-2.974-2.443-1.835-.308-3.742.836-4.343 2.595zm3.693-1.639c-.037.09-.037.192.036.265l.547.547-.547.547-1.117-1.117c.344-.146.71-.234 1.081-.242zm-2.339 1.209.698.698-.829.829-.318-.318c-.017-.017-.041-.014-.061-.026.023-.145.053-.29.101-.43.094-.272.235-.524.409-.753zm-.116 3.201c-.146-.249-.251-.52-.325-.799.01.001.018.011.028.011.063 0 .128-.024.177-.073l.106-.106.812.812-.476.476zm-.411-1.278c-.003-.032-.01-.064-.012-.097l.055.055zm5.559-1.28c.385.981.242 2.044-.379 2.844-.868 1.117-2.705 1.516-3.986.576-.02-.109-.033-.112-.109-.187l.476-.476c.254.254.602-.105.367-.34l-.013-.013.222-.222c.098-.098.098-.256 0-.354s-.256-.098-.354 0l-.222.222-.812-.811.829-.829.724.724c.049.049.112.073.177.073.064 0 .128-.024.177-.073.098-.098.098-.256 0-.354l-.724-.724.018-.018c.098-.098.098-.256 0-.354s-.256-.098-.354 0l-.018.018-.719-.719c.141-.132.298-.246.462-.35l1.242 1.243c-.06.097-.063.22.021.304.049.049.112.073.177.073.046 0 .087-.028.127-.053l.157.157c.049.049.112.073.177.073.063 0 .128-.024.177-.073.098-.098.098-.256 0-.354l-.143-.143.547-.546c.286.286.684.875.956.603.263-.263-.339-.693-.624-.978.044-.093.046-.202-.031-.279-.076-.076-.185-.076-.279-.031l-.442-.442c.985.175 1.798.847 2.176 1.813z"/><path d="m37.187 40.672c-1.834-.307-3.742.836-4.344 2.596-.601 1.76.208 3.83 1.845 4.712 1.632.883 3.809.428 4.951-1.043.84-1.081 1.035-2.51.521-3.822-.511-1.307-1.623-2.22-2.973-2.443zm.442 1.171c.005.002.01.002.015.004-.002.001-.005.002-.007.003zm-1.033-.22c.039 0 .078.008.117.01.001.001 0 .002.001.002l.547.547-.547.547-.97-.97c.277-.087.564-.136.852-.136zm-2.212.999.654.654-.829.829-.318-.318c-.037-.037-.087-.048-.136-.056.013-.047.018-.095.033-.141.125-.362.336-.686.596-.968zm-.635 2.296c.049.049.112.073.177.073s.128-.024.177-.073l.106-.106.811.811-.477.477-.653-.653c-.023-.023-.055-.022-.082-.034-.121-.37-.172-.759-.145-1.145l.192.192-.106.106c-.098.096-.098.255 0 .352zm5.101 1.406c-.836 1.075-2.49 1.422-3.688.776-.107-.058-.204-.131-.302-.203.031-.012.065-.012.09-.037.098-.098.098-.256 0-.354l-.054-.054.476-.476c.253.253.608-.099.354-.354.201-.201.425-.372.222-.576-.098-.098-.256-.098-.353 0l-.222.222-.811-.811.829-.829c.126.126.74.798.901.798.064 0 .128-.024.177-.073.098-.098.098-.256 0-.353l-.725-.725.018-.018c.098-.098.098-.256 0-.354s-.256-.098-.354 0l-.018.018-.639-.639c.155-.12.317-.23.491-.32l1.133 1.133c-.137.22.079.477.324.324l.157.157c.049.049.112.073.177.073.063 0 .128-.024.177-.073.185-.185.025-.329-.142-.496l.547-.547c.121.121.618.676.779.676.065 0 .128-.024.177-.073.098-.098.098-.256 0-.354l-.624-.624c.021-.045.036-.086.029-.135.553.324 1.004.817 1.254 1.454.383.984.241 2.047-.38 2.847z"/></g></svg>