<svg id="Layer_1" enable-background="new 0 0 66 66" height="512" viewBox="0 0 66 66" width="512" xmlns="http://www.w3.org/2000/svg"><g><path d="m49.707 1.944-29.682-.907c-2.713-.082-6.427-.196-9.165 1.731-3.652 2.569-4.236 7.67-4.082 11.497.514 12.846.737 25.925 1.093 38.792.221 7.93 2.336 11.129 12.244 11.351l25.923.582c7.988.18 11.25-1.937 12.083-11.5 1.241-14.235 1.456-28.685.638-42.95-.371-6.478-2.413-8.393-9.052-8.596zm-18.745 60.966.839.839-1.641-.037zm7.428.494-.427-.427.809-.809c-.021.077-.017.159.044.22l.721.721-.797.797-1.668-.037.565-.565.427.427c.09.09.236.09.326 0 .09-.091.09-.237 0-.327zm2.168.074-.37-.37.983-.983.852.852-.852.852c-.036.036-.046.083-.054.13l-1.741-.039.486-.486.37.37c.09.09.236.09.326 0 .09-.091.09-.236 0-.326zm2.545-.073-.429-.429.918-.918 1.016 1.016-.94.94-1.988-.044.668-.668.429.429c.09.09.236.09.326 0s.09-.236 0-.326zm-10.575.36.626-.627.655.655zm2.176.049.643-.642.672.672zm11.354.255-1.754-.039.629-.629.481.481c.09.09.236.09.326 0s.09-.236 0-.326l-.481-.481 1.376-1.376 1.049 1.048-.884.884c-.09.09-.09.236 0 .326s.236.09.326 0l.884-.884.867.867c.09.09.236.09.326 0s.09-.236 0-.326l-.867-.867 1.441-1.441 1.114 1.114-1.08 1.081c-.09.09-.09.236 0 .326s.236.09.326 0l1.08-1.08.499.499c.09.09.236.09.326 0s.09-.236 0-.326l-.5-.499 1.392-1.392 1.166 1.165c-2.116 1.907-4.895 1.947-8.042 1.875zm5.435-4.48 1.114 1.114-1.392 1.392-1.114-1.114zm2.953 2.301-1.187-1.187 1.227-1.227.928.929c.02.02.049.019.074.03-.296.529-.631 1.026-1.042 1.455zm2.501-6.362c.003.003.008.002.011.005-.085.597-.185 1.185-.313 1.755l-.804-.804 1.031-1.031zm1.298-21.609-.095-.095.099-.099c-.001.064-.003.129-.004.194zm-.243 7.309-.094-.094.102-.102c-.003.065-.005.13-.008.196zm-.279 5.107-.47-.47c-.042-.042-.097-.06-.152-.063l.696-.696c-.024.409-.048.819-.074 1.229zm-.153 2.364-.244-.244.285-.285c-.012.177-.028.352-.041.529zm.743-20.536-.718-.718c-.09-.09-.236-.09-.326 0s-.09.236 0 .326l.393.393-.786.786c-.09.09-.09.236 0 .326s.236.09.326 0l.786-.786.321.321c-.002.541-.004 1.082-.009 1.624-.058.001-.116.022-.161.067l-.151.151-.328-.328c-.09-.09-.236-.09-.326 0s-.09.236 0 .326l.328.328-.524.524c-.09.09-.09.236 0 .326s.236.09.326 0l.524-.524.305.305c-.006.483-.018.966-.027 1.45l-.454.454c-.089-.056-.203-.059-.28.019-.077.077-.075.192-.019.28l-.505.505c-.09.09-.09.236 0 .326s.236.09.326 0l.491-.492.405.405c-.014.596-.025 1.192-.043 1.787l-.137.136-.129-.129c-.09-.09-.236-.09-.326 0s-.09.236 0 .326l.129.129-.848.848c-.09.09-.09.236 0 .326s.236.09.326 0l.848-.848.116.116c-.017.535-.044 1.069-.065 1.604l-.612-.612c-.09-.09-.236-.09-.326 0s-.09.236 0 .326l.912.912c-.012.299-.025.597-.037.895-.009.007-.021.004-.03.012l-.426.426-.447-.447c-.09-.09-.236-.09-.326 0s-.09.236 0 .326l.447.447-1.034 1.034c-.09.09-.09.236 0 .326s.236.09.326 0l1.034-1.034.393.393c-.038.79-.082 1.579-.126 2.368l-.676-.676c-.09-.09-.236-.09-.326 0s-.09.236 0 .326l.766.766-1.457 1.457c-.09.09-.09.236 0 .326s.236.09.326 0l.382-.382c.003.055.021.11.063.152l.759.759c-.013.196-.022.393-.035.589-.035.011-.073.014-.101.042l-.549.549-.456-.456c-.09-.09-.236-.09-.326 0s-.09.236 0 .326l.456.456-.911.911c-.09.09-.09.236 0 .326s.236.09.326 0l.911-.911.522.522c-.038.523-.081 1.045-.122 1.568l-.343.343-.906-.906c-.09-.09-.236-.09-.326 0s-.09.236 0 .326l.906.906-1.688 1.688c-.09.09-.09.236 0 .326s.236.09.326 0l1.688-1.688.246.246c-.036.433-.064.867-.101 1.299-.034.395-.075.789-.12 1.181l-.211.211-.956-.956c-.09-.09-.236-.09-.326 0s-.09.236 0 .326l.956.956-1.031 1.031-.111-.111c-.09-.09-.236-.09-.326 0s-.09.236 0 .326l.111.111-.669.669c-.09.09-.09.236 0 .326s.236.09.326 0l.669-.669.997.997c-.206.795-.468 1.547-.808 2.237l-2.03-2.03c-.09-.09-.236-.09-.326 0s-.09.236 0 .326l.811.811-1.227 1.227-1.114-1.114.401-.401c.09-.09.09-.236 0-.326s-.236-.09-.326 0l-.426.426c-.083-.033-.175-.032-.242.034-.067.067-.067.16-.034.242l-1.416 1.416-.688-.688c-.09-.09-.236-.09-.326 0s-.09.236 0 .326l.688.688-1.441 1.441-1.049-1.048 1.584-1.584c.09-.09.09-.236 0-.326s-.236-.09-.326 0l-1.584 1.584-.164-.165c-.09-.09-.236-.09-.326 0s-.09.236 0 .326l.165.165-1.376 1.375-1.016-1.016.883-.883c.09-.09.09-.236 0-.326s-.236-.09-.326 0l-2.127 2.127-.852-.852.347-.347c.09-.09.09-.236 0-.326s-.236-.09-.326 0l-.43.431c-.039.01-.081.015-.111.046-.031.031-.037.072-.046.112l-1.067 1.067-.721-.72c-.061-.061-.142-.065-.22-.044l.239-.239c.09-.09.09-.236 0-.326s-.236-.09-.326 0l-1.198 1.198-.85-.856c-.09-.09-.236-.09-.326 0s-.09.236 0 .326l.851.851-.876.876h-.005c.05-.088.053-.197-.022-.272l-.735-.735.669-.669c.09-.09.09-.236 0-.326s-.236-.09-.326 0l-.669.669-.263-.263c-.09-.09-.236-.09-.326 0s-.09.236 0 .326l.263.263-.753.754-.787-.787.868-.868c.09-.09.09-.236 0-.326s-.236-.09-.326 0l-.868.868-.23-.23c-.09-.09-.236-.09-.326 0s-.09.236 0 .326l.23.23-.656.656-.885-.885.548-.548c.09-.09.09-.236 0-.326s-.236-.09-.326 0l-1.758 1.758-.557-.557c-.09-.09-.236-.09-.326 0s-.09.236 0 .326l.456.456-1.399-.032c-.011-.033-.013-.069-.04-.096l-.065-.065 1.507-1.507c.09-.09.09-.236 0-.326s-.236-.09-.326 0l-1.507 1.507-.197-.197c-.09-.09-.236-.09-.326 0s-.09.236 0 .326l.197.197-.141.142-6.891-.155c-9.446-.211-11.14-3.078-11.344-10.456-.355-12.769-.578-25.916-1.095-38.803-.397-9.933 3.828-12.532 12.3-12.27l29.683.907c6.223.189 7.819 1.811 8.16 7.728.334 5.835.485 11.701.473 17.57z"/><path d="m21.009 7.992c-2.395-.233-4.778-.403-7.58.088-.218.038-.378.226-.381.447l-.096 6.935c-.004.252.196.46.448.467 2.444.067 4.801.213 7.267.28h.013c.247 0 .451-.196.46-.444.044-1.225.093-2.435.142-3.646.049-1.213.098-2.425.142-3.653.009-.242-.173-.451-.415-.474zm-.577 2.299-.556-.557.602-.602c-.015.388-.031.773-.046 1.159zm-2.187 1.218 1.121 1.121-1.299 1.299-.981-.981 1.145-1.145c.081-.082.079-.204.014-.294zm-.504 2.745-.296.296c-.09.09-.09.236 0 .326s.236.09.326 0l.296-.296.635.634c-.547-.022-1.101-.042-1.644-.066-.011 0-.022-.001-.032-.001l-1.07-1.07.804-.804zm-1.394.866c-.456-.02-.918-.037-1.379-.055l.662-.662zm3.89.156c-.291-.009-.569-.023-.857-.034l-.987-.987 1.321-1.321c.044-.044.065-.102.066-.16.012-.008.029-.005.039-.016.09-.09.09-.236 0-.326l-1.766-1.766c-.09-.09-.236-.09-.326 0s-.09.236 0 .326l.471.471c-.09-.065-.212-.068-.293.013l-1.146 1.145-.261-.261c-.09-.09-.236-.09-.326 0s-.09.236 0 .326l.261.261-.804.804-.685-.685c-.09-.09-.236-.09-.326 0s-.09.236 0 .326l.685.685-.963.963c-.156-.005-.305-.014-.462-.018l.084-6.097c2.226-.346 4.201-.26 6.157-.087l-.57.571-.438-.438c-.09-.09-.236-.09-.326 0s-.09.236 0 .326l.438.438-.579.579c-.09.09-.09.236 0 .326s.236.09.326 0l.579-.579.586.586c.076.076.166.091.281.018-.019.472-.037.947-.056 1.419-.041 1.06-.084 2.121-.123 3.192z"/><path d="m51.889 8.953h-27.169c-.255 0-.461.206-.461.461s.206.461.461.461h27.169c.254 0 .461-.206.461-.461s-.206-.461-.461-.461z"/><path d="m24.72 15.157h18.491c.255 0 .461-.206.461-.461s-.206-.461-.461-.461h-18.491c-.255 0-.461.206-.461.461.001.255.206.461.461.461z"/><path d="m21.009 22.274c-2.395-.233-4.778-.402-7.58.088-.218.038-.378.226-.381.448l-.096 6.935c-.004.252.196.46.448.467 2.453.067 4.755.211 7.267.281h.013c.247 0 .451-.196.46-.444.044-1.226.093-2.437.142-3.648.049-1.212.098-2.425.142-3.651.009-.245-.173-.453-.415-.476zm-.584 2.479-.549-.549.594-.594c-.015.382-.03.762-.045 1.143zm-2.181 1.225 1.122 1.121-1.299 1.299-.981-.981 1.145-1.145c.081-.081.079-.204.013-.294zm-.503 2.746-.296.296c-.09.09-.09.236 0 .326s.236.09.326 0l.296-.296.439.439c-.404-.017-1.2-.046-1.676-.067l-.874-.874.804-.804zm-1.589.67c-.332-.014-.668-.027-1.003-.04l.482-.481zm4.085.163c-.357-.011-.701-.028-1.053-.042l-.792-.792 1.321-1.321c.044-.044.065-.102.066-.16.012-.008.029-.005.039-.016.09-.09.09-.236 0-.326l-1.766-1.766c-.09-.09-.236-.09-.326 0s-.09.236 0 .326l.472.472c-.09-.065-.213-.068-.294.013l-1.145 1.145-.261-.261c-.09-.09-.236-.09-.326 0s-.09.236 0 .326l.261.261-.804.804-.685-.685c-.09-.09-.236-.09-.326 0s-.09.236 0 .326l.685.685-.782.782c-.216-.008-.425-.019-.643-.026l.084-6.097c2.3-.357 4.332-.255 6.352-.072-.012.008-.029.005-.04.016l-.726.726-.438-.438c-.09-.09-.236-.09-.326 0s-.09.236 0 .326l.438.438-.579.579c-.09.09-.09.236 0 .326s.236.09.326 0l.579-.579.586.586c.095.095.182.075.274.021-.016.408-.032.819-.048 1.227-.041 1.063-.084 2.125-.123 3.196z"/><path d="m51.889 23.235h-27.169c-.255 0-.461.206-.461.461s.206.461.461.461h27.169c.254 0 .461-.206.461-.461s-.206-.461-.461-.461z"/><path d="m24.72 29.439h18.491c.255 0 .461-.206.461-.461 0-.254-.206-.461-.461-.461h-18.491c-.255 0-.461.206-.461.461.001.255.206.461.461.461z"/><path d="m21.009 36.555c-2.395-.233-4.778-.403-7.58.088-.218.038-.378.226-.381.447l-.096 6.936c-.004.252.196.46.448.467 2.476.067 4.781.212 7.267.28h.013c.247 0 .451-.196.46-.444.044-1.226.093-2.437.142-3.648.049-1.212.098-2.425.142-3.652.009-.242-.173-.45-.415-.474zm-.569 2.091-.565-.565.611-.611c-.014.395-.03.784-.046 1.176zm-.89-.891-.434-.434c.269.018.536.041.804.064zm-1.306 2.1 1.122 1.121-1.299 1.299-.981-.981 1.145-1.145c.081-.081.079-.204.013-.294zm-.503 2.746-.296.296c-.09.09-.09.236 0 .326s.236.09.326 0l.296-.296.86.86c-.614-.024-1.233-.046-1.842-.073.016-.074.009-.151-.049-.208l-1.081-1.081.805-.804zm-1.168 1.092c-.599-.026-1.206-.05-1.814-.072l.871-.871zm3.664.146c-.228-.007-.446-.019-.672-.027-.011-.022-.009-.048-.027-.066l-1.145-1.145 1.321-1.321c.044-.044.065-.102.066-.16.012-.008.029-.005.039-.016.09-.09.09-.236 0-.326l-1.766-1.766c-.09-.09-.236-.09-.326 0s-.09.236 0 .326l.473.472c-.09-.065-.213-.068-.294.013l-1.145 1.145-.261-.261c-.09-.09-.236-.09-.326 0s-.09.236 0 .326l.261.261-.804.804-.685-.685c-.09-.09-.236-.09-.326 0s-.09.236 0 .326l.685.685-1.171 1.171c-.086-.003-.167-.007-.253-.01l.084-6.097c1.736-.27 3.319-.277 4.86-.186-.011.008-.026.005-.037.015-.09.09-.09.236 0 .326l.438.438-.579.579c-.09.09-.09.236 0 .326s.236.09.326 0l.579-.579.586.586c.078.078.178.093.29.015-.022.545-.042 1.093-.064 1.637-.045 1.061-.088 2.122-.127 3.194z"/><path d="m51.889 37.516h-27.169c-.255 0-.461.206-.461.461 0 .254.206.461.461.461h27.169c.254 0 .461-.206.461-.461s-.206-.461-.461-.461z"/><path d="m24.72 43.72h18.491c.255 0 .461-.206.461-.461s-.206-.461-.461-.461h-18.491c-.255 0-.461.206-.461.461s.206.461.461.461z"/><path d="m21.009 50.837c-2.395-.233-4.778-.403-7.58.088-.218.038-.378.226-.381.447l-.096 6.936c-.004.252.196.46.448.467 2.46.067 4.766.211 7.267.28h.013c.247 0 .451-.196.46-.444.044-1.225.093-2.435.142-3.646.049-1.213.098-2.425.142-3.653.009-.244-.173-.452-.415-.475zm-.569 2.09-.565-.565.611-.611c-.014.395-.03.784-.046 1.176zm-.89-.89-.434-.434c.269.018.537.041.804.064zm-1.305 2.1 1.121 1.121-1.299 1.299-.981-.981 1.145-1.145c.081-.081.079-.204.014-.294zm-.504 2.746-.296.296c-.09.09-.09.236 0 .326s.236.09.326 0l.296-.296.86.86c-.614-.024-1.234-.047-1.842-.074.016-.074.009-.151-.049-.208l-1.081-1.081.804-.804zm-1.168 1.092c-.599-.026-1.206-.05-1.814-.072l.871-.871zm3.664.146c-.228-.007-.446-.019-.672-.027-.011-.022-.009-.048-.028-.067l-1.145-1.145 1.321-1.321c.044-.044.065-.102.066-.159.012-.008.029-.006.04-.016.09-.09.09-.236 0-.326l-1.766-1.766c-.09-.09-.236-.09-.326 0s-.09.236 0 .326l.471.472c-.09-.065-.212-.068-.293.013l-1.146 1.146-.261-.261c-.09-.09-.236-.09-.326 0s-.09.236 0 .326l.261.261-.803.803-.685-.685c-.09-.09-.236-.09-.326 0s-.09.236 0 .326l.685.685-1.171 1.171c-.086-.003-.167-.007-.253-.01l.084-6.097c1.736-.27 3.319-.277 4.86-.186-.012.008-.027.005-.037.015-.09.09-.09.236 0 .326l.437.437-.579.579c-.09.09-.09.236 0 .326s.236.09.326 0l.579-.579.586.586c.078.078.177.093.29.015-.022.546-.042 1.094-.064 1.639-.043 1.061-.086 2.122-.125 3.193z"/><path d="m51.889 51.798h-27.169c-.255 0-.461.206-.461.461s.206.461.461.461h27.169c.254 0 .461-.206.461-.461s-.206-.461-.461-.461z"/><path d="m43.211 57.081h-18.491c-.255 0-.461.206-.461.461 0 .254.206.461.461.461h18.491c.255 0 .461-.206.461-.461s-.206-.461-.461-.461z"/></g></svg>