<svg id="Layer_1" enable-background="new 0 0 66 66" height="512" viewBox="0 0 66 66" width="512" xmlns="http://www.w3.org/2000/svg"><g><path d="m61.042 29.016-4.666-4.657-.009-15.149c0-4.695-.977-7.278-5.57-7.38l-36.847-.823c-4.158-.082-5.208 1.375-5.117 4.782l.531 19.328s-.001.001-.001.001l-3.991 4.769c-.013.019-.021.037-.031.058-.07.11-.093.236-.07.359l-.447 26.65c-.024 1.491-.062 3.729 1.188 5.28.036.085.104.169.194.225 1.469 1.582 3.841 1.761 5.96 1.801l38.611.73c6.863.136 10.349-1.634 10.349-11.475l-.001-23.917c.099-.189.075-.425-.083-.582zm-.916 22.302-.639-.639.639-.639zm-.258-22.061c-1.161.788-2.325 1.561-3.488 2.339l-.003-5.823zm-45.94-27.25 36.848.823c4.027.09 4.592 2.34 4.592 6.38l.013 22.715c0 .105.04.197.095.277-1.11.739-2.219 1.474-3.33 2.204-.01-.046-.018-.094-.054-.13l-.683-.682.671-.671c.098-.098.098-.256 0-.354s-.256-.098-.354 0l-.671.671-.302-.302c-.099-.099-.257-.097-.354 0-.098.098-.098.256 0 .354l.302.302-2.323 2.323-.633-.633 2.117-2.117c.098-.098.098-.256 0-.354s-.256-.098-.354 0l-2.117 2.117-.358-.358c-.098-.098-.256-.098-.354 0s-.098.256 0 .353l.358.358-1.393 1.393-.527-.528c-.097-.098-.255-.098-.354 0-.098.098-.098.256 0 .354l.527.528-.809.809c-.098.098-.098.256 0 .354.097.097.255.098.354 0l.809-.809.754.754c-.764.489-1.528.966-2.292 1.45-.012-.032-.013-.067-.039-.093l-1.164-1.164c-.004-.005-.002-.012-.007-.017s-.012-.003-.017-.007l-.637-.637c-.098-.098-.256-.098-.354 0s-.098.256 0 .354l.472.472-1.845 1.844-.696-.697c-.098-.098-.256-.098-.354 0s-.098.256 0 .354l.696.697-1.486 1.485c-.098.098-.098.256 0 .354.097.097.255.098.354 0l1.486-1.485.498.497c-.84.525-1.681 1.041-2.521 1.561l-1.369-1.369.951-.951c.098-.098.098-.256 0-.354s-.256-.098-.354 0l-.951.951-.105-.105c-.098-.098-.256-.098-.354 0s-.098.256 0 .354l.105.105-1.337 1.337-.914-.914 1.3-1.3c.232-.232-.119-.588-.354-.354l-2.793 2.793-.725-.725c-.098-.098-.256-.098-.354 0s-.098.256 0 .354l.725.725-1.006 1.007c-.006.006-.004.016-.01.023-6.941-3.584-13.951-7.213-20.368-11.612l-.746-27.309c-.075-2.764.48-3.843 4.095-3.755zm32.867 35.88c-.012-.035-.014-.074-.042-.102l-.754-.755 1.393-1.393 1.129 1.129c-.575.373-1.15.752-1.726 1.121zm2.12-1.376c-.012-.033-.013-.07-.04-.097l-.144-.144 2.323-2.323.683.682c.011.011.027.008.039.016-.953.626-1.907 1.248-2.861 1.866zm-7.467 4.76-.577-.577 1.845-1.844.992.992c-.754.476-1.506.957-2.26 1.429zm-6.899 4.256-1.875-1.875 1.139-1.14.914.914-.781.781c-.098.098-.098.256 0 .354.097.097.255.098.354 0l.781-.781.585.585c.097.097.255.098.354 0 .098-.098.098-.256 0-.354l-.585-.585 1.337-1.337 1.285 1.285c-1.17.721-2.339 1.443-3.508 2.153zm-.438.269c-.154.093-.307.19-.461.283-.748-.39-1.495-.775-2.242-1.161l.913-.913zm-24.706-19.169.158 5.74c-1.039-.733-2.061-1.488-3.062-2.268zm-3.582 30.344.433-25.784c8.127 6.257 17.503 10.883 26.39 15.498-8.693 5.231-17.386 10.143-26.02 14.701-.785-1.155-.83-2.748-.803-4.415zm1.512 5.171c8.744-4.622 17.548-9.606 26.351-14.916 7.394 3.858 14.819 7.97 21.33 13.238l-1.3 1.3-1.169-1.169.24-.24c.098-.098.098-.256 0-.354s-.256-.098-.354 0l-.24.24-1.027-1.027c-.098-.098-.256-.098-.354 0s-.098.256 0 .354l1.027 1.027-1.807 1.807-.85-.85c-.028-.028-.066-.03-.101-.042l.337-.337c.098-.098.098-.256 0-.354s-.256-.098-.354 0l-2.042 2.042-.673-.673c-.098-.098-.256-.098-.354 0s-.098.256 0 .354l.673.673-.248.249c-.098.098-.098.256 0 .354s.256.097.353 0l.249-.249.356.356-2.215-.042c.003-.067-.018-.135-.069-.186l-.41-.41 2.063-2.064c.098-.098.098-.256 0-.354s-.256-.098-.354 0l-2.063 2.064-.39-.39.833-.833c.098-.098.098-.256 0-.354s-.256-.098-.353 0l-1.825 1.824-.709-.709c-.098-.098-.256-.098-.354 0s-.098.256 0 .354l.708.708-.14.143c-.041.041-.055.095-.061.148l-1.549-.029c.016-.08.008-.162-.054-.224l-.142-.142 2.004-2.004c.098-.098.098-.256 0-.354s-.256-.098-.354 0l-2.004 2.004-.39-.39c-.098-.098-.256-.098-.354 0s-.098.256 0 .354l.39.39-.342.342-27.058-.512c-1.793-.034-3.625-.156-4.851-1.117zm41.186 1.804-.744-.014c.076-.098.079-.236-.011-.327l-.39-.39 1.411-1.411c.012.035.014.073.042.101l.85.85-1.133 1.133c-.017.017-.014.04-.025.058zm-5.498-.339-.074-.074.638-.638.39.39-.46.46c-.029.029-.031.068-.043.104l-.402-.008c.021-.081.016-.168-.049-.234zm1.308.033.231.231-.454-.009zm-4.389.144h-.004l.002-.002zm9.24.175.85-.85.883.882c-.04-.001-.078-.001-.118-.001zm2.24.038c.028-.087.026-.18-.043-.249l-.993-.993 1.807-1.807 1.17 1.169-1.205 1.205c-.098.098-.098.256 0 .353.097.097.255.098.354 0l1.205-1.205.611.611c.097.097.255.098.354 0 .098-.098.098-.256 0-.354l-.611-.611 1.33-1.33c.414.34.823.688 1.229 1.039l-1.212 1.212c-.098.098-.098.256 0 .354.096.096.255.099.354 0l1.242-1.242c.155.136.318.261.471.398-1.666 1.371-3.906 1.471-6.063 1.45zm6.771-2.153c-.155-.138-.318-.265-.474-.402l.425-.425c.098-.098.098-.256 0-.354-.099-.099-.257-.097-.354 0l-.454.455c-.424-.366-.848-.73-1.28-1.085.003-.068-.017-.136-.069-.188-.06-.06-.141-.07-.219-.056-6.453-5.247-13.774-9.343-21.083-13.169 8.499-5.149 16.995-10.602 25.438-16.325l.001 19.134c-.059.004-.118.023-.163.068l-.829.829-.248-.248c-.097-.097-.255-.099-.354 0-.098.098-.098.256 0 .354l.248.248-.39.39c-.098.098-.098.256 0 .354.097.097.255.098.353 0l.39-.389.992.993v1.489c0 .257-.005.512-.009.768l-.913-.912.822-.823c.098-.098.098-.256 0-.354s-.256-.098-.353 0l-.823.823-.177-.177c-.099-.099-.257-.097-.354 0-.098.098-.098.256 0 .354l.177.177-.177.177c-.098.098-.098.256 0 .354.097.097.255.098.354 0l.177-.177.957.957-.922.922-.567-.567c-.097-.097-.255-.099-.354 0-.098.098-.098.256 0 .354l.567.567-.355.355c-.098.098-.098.256 0 .353.097.097.255.098.354 0l.355-.355.885.886c.041.041.095.055.148.061-.232 1.776-.721 3.389-1.722 4.584zm1.791-5.143-.745-.745.854-.854c-.02.541-.055 1.076-.109 1.599z"/><path d="m38.02 31.669c.233-.148.303-.457.154-.69-.147-.234-.458-.303-.689-.154-6.108 3.87-13.994-1.45-12.681-8.565 1.058-5.708 7.651-8.75 12.731-5.585 2.786 1.739 4.606 5.204 4.388 9.05-.143 2.483-1.584 3.03-2.906 2.066-.718-.523-.944-1.049-1.449-1.685.452-.83.808-1.757 1.144-2.715.187-.532-.521-.919-.867-.472-.729-4.053-6.491-4.966-8.902-1.502-3.013 4.327 2.045 9.815 6.511 7.062.622-.384 1.12-.884 1.541-1.458 2.584 3.696 5.716 2.46 5.927-1.239.238-4.165-1.729-8.003-4.857-9.954-5.696-3.557-13.067-.106-14.243 6.251-1.481 8.005 7.404 13.902 14.198 9.59zm-7.952-4.742c-1.189-1.306-1.323-3.476-.306-4.938 1.696-2.438 5.64-2.251 6.859.357.408.873.383 1.901-.068 2.683-.124.217-.069.487.119.639-1.954 3.537-5.299 2.689-6.604 1.259z"/><path d="m52.758 32.89-.161.161c-.098.098-.098.256 0 .354s.257.097.354 0l.199-.199c.082.017.136.034.224-.054.062-.062.07-.144.054-.224l1.596-1.596c.098-.098.098-.256 0-.354-.005-.005-.012-.003-.017-.007-.005-.056-.021-.112-.064-.155l-1.054-1.054 1.119-1.119c.098-.098.098-.256 0-.354s-.256-.098-.354 0l-1.119 1.119-.02-.02c-.098-.098-.256-.098-.354 0s-.098.256 0 .354l.035.035c-.06.096-.063.219.021.303.1.1.2.085.303.021l1.014 1.014-1.421 1.421-.95-.95c-.098-.098-.256-.098-.354 0s-.098.256 0 .354z"/><path d="m12.52 12.354h1.817v2.453h-.931c-.138 0-.25.112-.25.25s.112.25.25.25h.931v2.38h-1.005c-.138 0-.25.112-.25.25s.112.25.25.25h1.005v2.749h-.267c-.138 0-.25.112-.25.25s.112.25.25.25h.267v1.788h-.488c-.138 0-.25.112-.25.25s.112.25.25.25h.488v3.3c0 .138.112.25.25.25s.25-.112.25-.25v-3.3h2.262c.138 0 .25-.112.25-.25s-.112-.25-.25-.25h-2.262v-1.788h1.835c.138 0 .25-.112.25-.25s-.112-.25-.25-.25h-1.835v-2.749h1.463c.138 0 .25-.112.25-.25s-.112-.25-.25-.25h-1.463v-2.38h1.18c.138 0 .25-.112.25-.25s-.112-.25-.25-.25h-1.18v-2.453h1.676c.138 0 .25-.112.25-.25s-.112-.25-.25-.25h-1.676v-2.261c0-.138-.112-.25-.25-.25s-.25.112-.25.25v2.261h-1.817c-.138 0-.25.112-.25.25s.112.25.25.25z"/><path d="m11.236 43.755h-2.047v-1.945h1.236c.138 0 .25-.112.25-.25s-.112-.25-.25-.25h-1.236v-1.834c.01-.109.018-.22.025-.329.008-.117.017-.233.027-.351.013-.138-.088-.26-.226-.272-.139-.022-.259.088-.273.226-.012.12-.02.241-.028.362-.007.106-.014.212-.024.341v1.856h-1.45c-.138 0-.25.112-.25.25s.112.25.25.25h1.45v1.945h-.159c-.138 0-.25.112-.25.25s.112.25.25.25h.159v2.15h-.294c-.138 0-.25.112-.25.25s.112.25.25.25h.294v2.557h-.974c-.138 0-.25.112-.25.25s.112.25.25.25h.974v1.946h-.634c-.138 0-.25.112-.25.25s.112.25.25.25h.634v1.115c0 .138.112.25.25.25s.25-.112.25-.25v-1.115h1.158c.138 0 .25-.112.25-.25s-.112-.25-.25-.25h-1.159v-1.946h1.196c.138 0 .25-.112.25-.25s-.112-.25-.25-.25h-1.196v-2.557h.926c.138 0 .25-.112.25-.25s-.112-.25-.25-.25h-.926v-2.15h2.048c.138 0 .25-.112.25-.25s-.113-.249-.251-.249z"/><path d="m57.717 58.399.89-.89c.098-.098.098-.256 0-.353-.098-.098-.256-.098-.353 0l-.89.89-1.559-1.559 1.141-1.141c.098-.098.098-.256 0-.354s-.256-.098-.354 0l-1.141 1.141-.46-.46c-.098-.098-.256-.098-.354 0s-.098.256 0 .354l.46.46-.46.461c-.098.098-.098.256 0 .353.097.097.255.098.354 0l.46-.46 1.559 1.559-.885.886c-.098.098-.098.256 0 .354.097.097.255.098.354 0l.886-.886.974.974c.097.097.255.098.353 0s.098-.256 0-.353z"/></g></svg>