<svg id="Layer_1" enable-background="new 0 0 66 66" height="512" viewBox="0 0 66 66" width="512" xmlns="http://www.w3.org/2000/svg"><g><g id="XMLID_1_"><path d="m54.07 47.93c-.04 0-.08-.01-.11-.02.04.01.07.01.11.02z"/><path d="m15.25 42.82c.1.09.1.25 0 .35s-.25.1-.35 0l-.49-.49v.46c0 .14-.11.25-.25.25s-.25-.11-.25-.25v-.96l-.26-.26c-.1-.1-.1-.25 0-.35s.26-.1.35 0l.07.06c.03-.01.06-.04.09-.04.14 0 .25.12.25.25v.14z"/><path d="m13.99 61-.21.21c.13-.01.26-.02.39-.04zm-.6-14.92-.92.92.12.11c.07.08.07.19.02.29.41-.22.64-.32 1.21-.89zm-1.58 14.99-.29-.29-.41.4c.18.01.36.02.53.03.58.02 1.17.03 1.77.01-.1-.1-.1-.25 0-.35l.23-.23-.99-.99-.78.77.3.3c.09.1.09.25 0 .35-.1.1-.26.1-.36 0zm-.13-14.86.44.44.92-.92-.44-.44zm-1.46-.75-.63.63.75.75.63-.63zm-.77 14.61.7.7c.1.09.1.25 0 .35l.3.03.72-.72-1.04-1.04zm.32 1.02-.68-.67-.52.52c.4.06.79.12 1.2.15zm-1.69-13.49c1.36.54 2.96.53 4.3-.07-.06-.01-.11-.02-.15-.06l-.13-.14c-.09.04-.17.08-.28-.03-.07-.08-.07-.18-.03-.27l-.46-.47-.64.65c.06.1.07.22-.02.31-.08.08-.19.1-.31.02h-.01c-.1.1-.25.1-.35 0-.1-.09-.09-.24-.01-.34l-.75-.76-.37.37.6.6c.1.1.1.26 0 .36-.1.09-.25.09-.35 0l-.6-.6zm55.76 6.68c-.03-.15-.05-.29-.08-.44l-.18.18zm-.87 1.17.67-.67c0-.01-.01 0-.02-.01l-.39-.39-.67.67zm.68 2.55-1.71 1.7.32.33c.63-.51 1.1-1.2 1.39-2.03zm-1.73-.41-1.05 1.04.72.72 1.05-1.05zm-2.4 2.4-1.06 1.06c.03.05.05.1.04.16 1.21-.06 2.39-.29 3.35-.89l-.26-.26-.44.44c-.1.1-.26.1-.36 0s-.1-.26 0-.35l.44-.45-.71-.71-.65.64.62.62c.1.1.1.25 0 .35s-.26.1-.36 0zm-1.19-1.19-1.05 1.05.84.83 1.05-1.05zm-4.54 2.2-.02-.01-.01.01zm.45-.25c.09.09.09.21.02.31.72.08 1.54.13 2.29.15.52.02 1.01.03 1.41.02l-1.03-1.03-.38.38.18.18c.1.1.1.26 0 .36-.05.05-.11.08-.18.08s-.13-.03-.18-.08l-.18-.18-.08.08c-.1.1-.26.1-.35 0-.1-.1-.1-.26 0-.35l.08-.09-.84-.83-.88.88zm.08-12.93c-.07.07-.11.11-.21.12 1.31.2 2.73-.06 3.91-.92-.09.03-.2.01-.27-.06l-.23-.23-.79.8c-.1.1-.26.1-.36 0s-.1-.26 0-.35l.8-.8-.71-.71-1.06 1.07.65.66c.1.09.1.25 0 .35-.09.1-.25.1-.35 0l-.66-.66-.53.53c0 .05-.02.1-.05.14-.04.04-.09.05-.14.06zm-.92-1.46.84.83.45-.45-.83-.83zm-.35.35-.66.66c.49.26 1.02.45 1.57.54.03.01.07.02.11.02-.04-.01-.07-.01-.11-.02-.02-.01-.04-.03-.05-.04-.08-.09-.08-.22-.01-.31zm-2.21-.59c.3.35.65.67 1.05.95.01.02.04.02.06.04l.74-.75-.18-.18c-.1-.1-.1-.26 0-.36.1-.09.26-.09.36 0l.18.19 1.25-1.25c.09-.1.25-.1.35 0s.1.26 0 .35l-.44.44.83.84 1.07-1.07-.59-.59c-.1-.09-.1-.25 0-.35s.26-.1.36 0l.58.59.57-.57c.09-.1.25-.1.35 0s.1.26 0 .36l-.56.56.7.71.81-.82-1.15-1.15c-.1-.1-.1-.26 0-.36.09-.1.25-.1.35 0l1.16 1.16.59-.6c.24-.23.59.13.36.36l-.63.62c.04.09.04.19-.04.26-.1.1-.16.07-.25.04l-.84.84.23.23c.09.1.09.26 0 .35 1.44-1.09 2.13-2.76 2.13-4.33-.01.04-.02.08-.05.1-.1.1-.25.1-.35 0l-.24-.24-.39.39.76.76c.1.1.1.26 0 .35-.1.1-.26.1-.35 0l-.76-.75-.23.22c-.1.1-.25.1-.35 0s-.1-.25 0-.35l.27-.27c0-.07.01-.15.07-.2.05-.05.12-.07.19-.06l.44-.44-.34-.33c-.09-.1-.09-.26 0-.36.1-.09.26-.09.36 0l.34.35c.1-.07.23-.07.32.02.08.08.08.21.01.31l.25.25c.04.03.04.08.05.12 0-.29-.03-.58-.09-.87-.9-4.56-7.15-6.22-9.73-1.91-1.03 1.73-1.3 4.38.42 6.4zm8.6 1c-2.35 2.48-6.39 2.55-8.92.1-.03-.02-.06-.05-.09-.07-5.1 4.76-4.2 10.05-1.15 12.29 1.09.79 2.43 1.22 3.86 1.46l.27-.27-.56-.56c-.09-.1-.09-.26 0-.35.1-.1.26-.1.36 0l.56.56 1.72-1.73c.1-.1.26-.1.36 0s.1.26 0 .36l-.49.49.83.83.39-.38-.21-.21c-.1-.09-.1-.25 0-.35s.26-.1.36 0l.2.2 1.07-1.07c-.04-.09-.04-.2.04-.27.07-.08.18-.07.27-.03l.35-.35c.1-.1.25-.1.35 0 .1.09.1.25 0 .35l-.32.33.83.83.65-.64-.75-.75c-.1-.1-.1-.26 0-.36.09-.1.25-.1.35 0l.75.75 1.05-1.05-.87-.87c-.1-.09-.1-.25 0-.35s.25-.1.35 0l.87.87.11-.11c.24-.23.59.12.36.35l-.11.11.71.72.5-.5c.09-.09.22-.09.32-.01.17-.7.22-1.46.15-2.27l-.64.64.35.35c.1.09.1.25 0 .35s-.26.1-.35 0l-.35-.35-.35.35c-.1.1-.26.1-.35 0-.1-.1-.1-.26 0-.36l.34-.34-.42-.42c-.12.07-.22.06-.3-.02-.09-.09-.08-.21-.02-.31l-.32-.31c-.09-.1-.09-.26 0-.36.1-.09.26-.09.36 0l.3.3.66-.67-.75-.75c-.09-.09-.09-.25 0-.35.1-.1.26-.1.36 0l.75.75.22-.22c.05-.05.12-.07.18-.07-.63-2.34-2.09-4.55-4.19-6.26zm-17.81-23.43c.02-.41.02-.83-.03-1.27-.01-.02-.01-.04-.01-.06l-.65.65zm-.92 2.77-.73.72.14.14c.01.01.01.03.02.04.26-.25.48-.54.68-.86-.04 0-.08-.02-.11-.04zm-1.06-1.04-.72.71.7.7.71-.72zm-2.22 2.21.6.6c.06.06.07.13.06.2.58-.15 1.13-.37 1.61-.71.02-.01.04-.03.06-.05l-.13-.13-.3.29c-.09.1-.25.1-.35 0s-.1-.26 0-.35l.29-.3-.69-.69zm-1.15-15.62-.92.92.43.43.96-.96c.01 0 .02 0 .03-.01l-.47-.46c-.01.03-.01.06-.03.08zm-2.52.04-1.01 1 .89.89 1.01-1zm-2.53 14.93-.93.93.21.21c.07.07.07.16.04.25 1.13.22 2.33.31 3.51.35h.05c1.15.05 2.39.05 3.53-.17l-.56-.56-.06.06c-.1.09-.25.09-.35 0-.1-.1-.1-.26 0-.36l.06-.06-.76-.76-.99 1 .18.18c.09.1.09.26 0 .36-.1.1-.26.1-.36 0l-.18-.18-.38.37c-.05.05-.12.07-.18.07s-.13-.02-.18-.07c-.1-.1-.1-.25 0-.35l.38-.38-.71-.72-.74.74.21.22c.1.09.1.25 0 .35-.09.1-.25.1-.35 0l-.22-.22-.14.15c-.1.1-.26.1-.36 0-.09-.1-.09-.26 0-.35l.15-.15-.83-.83c-.02-.02-.02-.06-.04-.08zm-.59-12.52-.77-.77c-.1-.1-.1-.26 0-.35.1-.1.26-.1.36 0l.76.76 1.06-1.05-.24-.24c-.1-.1-.1-.25 0-.35s.25-.1.35 0l.24.24 1.01-1.02c-.08-.09-.08-.24.01-.33s.24-.09.33-.01l.34-.33c.09-.1.25-.1.35 0s.1.26 0 .36l-.32.32.89.89.92-.92c.02-.02.05-.02.08-.04l-.7-.7c-.09-.09-.09-.25 0-.35.1-.1.26-.1.36 0l1.54 1.54c.1.1.1.26 0 .36-.02.02-.05.01-.07.02.04.09.04.19-.04.27l-.95.96c.1.1.1.26 0 .36s-.26.1-.35 0l-.01-.01-.54.54c-.1.1-.25.1-.35 0s-.1-.26 0-.36l.54-.53-.43-.43-1.01 1 .18.19c.1.09.1.25 0 .35-.09.1-.25.1-.35 0l-.18-.18-.47.46c-.1.1-.26.1-.36 0-.09-.09-.09-.25 0-.35l.47-.47-.89-.89-1.05 1.05.54.54c.1.1.1.26 0 .36s-.26.1-.36 0l-.54-.54-.34.34c.62.23 1.29.36 1.97.36.98 0 1.97-.26 3.57-1.39l.46-.49c1.03-1.27 1.46-2.94 1.16-4.49-.01-.03-.02-.07-.03-.1l-.74.74.54.54c.09.09.09.25 0 .35-.1.1-.26.1-.36 0l-.54-.54-.23.24c-.1.1-.26.1-.36 0s-.1-.25 0-.35l.24-.24-.24-.24c-.1-.1-.1-.25 0-.35s.26-.1.35 0l.24.24.82-.82c.04-.04.09-.05.14-.06-.59-1.81-2.18-3.28-4.05-3.69-5.25-1.12-8.14 5.2-5.09 8.77.43.52.99.98 1.65 1.32zm-2.56.2c-5.85 5.47-4.1 11.89 1.31 13.45l.2-.2-.25-.25c-.1-.1-.1-.25 0-.35.09-.1.25-.1.35 0l.25.25 2.07-2.07c.09-.09.25-.09.35 0 .1.1.1.26 0 .36l-.83.82c.03.02.07.02.09.04l.83.83.74-.74-.04-.04c-.1-.1-.1-.25 0-.35s.26-.1.35 0l.04.04.83-.83c.1-.1.25-.1.35 0s.1.26 0 .35l-.82.83.71.72 1-1-.45-.44c-.09-.1-.09-.26 0-.36.1-.1.26-.1.36 0l.44.45.73-.73c.09-.1.25-.1.35 0s.1.26 0 .36l-.72.72.76.76 1.14-1.15-.78-.78c-.1-.1-.1-.26 0-.36.09-.09.25-.09.35 0l.79.79.71-.72-.36-.36c-.09-.09-.09-.25 0-.35.1-.1.26-.1.36 0l.36.37c.1-.08.24-.08.33.01s.09.23.01.33l.71.7.74-.75c.07-.25.12-.51.15-.78-.01 0-.01.01-.02.01-.07 0-.13-.03-.18-.08l-.8-.8-.27.28c-.1.09-.26.09-.36 0-.09-.1-.09-.26 0-.36l.28-.27-.02-.02c-.1-.1-.1-.25 0-.35s.26-.1.35 0l.02.01.76-.76-1-1c-.1-.09-.1-.25 0-.35s.26-.1.35 0l.68.67c-.12-.47-.27-.94-.45-1.4l-.91.91c-.1.1-.26.1-.36 0-.09-.1-.09-.25 0-.35l1.07-1.07c-.78-1.73-2.02-3.35-3.63-4.67-2.4 2.53-6.56 2.51-9.02.03zm-11.28 45.36.63-.63-.92-.92-.63.63zm1.01 1.01s-1.37 1.36-6.21 1.18c-2.75-.11-5.6-.42-7.72-1.96-3.13-2.3-3.46-6.5-2.17-9.46.67-1.54 1.76-2.99 3.29-4.41-1.49-2.05-1.62-4.87-.24-7.17.81-1.35 2.01-2.27 3.39-2.7.11-8.88 5.44-19.45 17.06-20.03.59-.88 1.34-1.74 2.25-2.58-3.22-4.43.42-11.28 6.34-10.01 2.45.53 4.5 2.61 4.99 5.06.33 1.68-.08 3.48-1.08 4.92 1.77 1.44 3.12 3.21 3.96 5.13 2.69.4 5.53 1.05 8.28 3.7 3.47 3.35 5.54 8.4 5.61 13.59 2.94.37 5.08 2.66 5.57 5.15.34 1.67-.07 3.47-1.07 4.91 2.74 2.25 4.52 5.29 4.87 8.44.04.36.06.71.06 1.05 0 2.24-.85 4.13-2.37 5.19-2.87 1.98-10.83 1.48-13.93-.78-1.84-1.36-2.71-3.37-2.85-5.4-8.03 6.03-18.22 6.72-25.8 2.44-.29 1.59-1.05 2.92-2.23 3.74zm-3.22.1c.66-.08 1.29-.24 1.86-.5-.04-.08-.04-.16.01-.24l-.93-.93-1.18 1.18.21.22c.08.07.08.18.03.27zm.33-2.99.61.61.63-.63-.4-.4c-.1-.1-.1-.25 0-.35s.26-.1.36 0l.4.4.94-.95-.59-.59c-.1-.1-.1-.25 0-.35s.25-.1.35 0l1.54 1.54c.1.1.1.25 0 .35s-.25.1-.35 0l-.6-.59-.94.94.92.92 1.06-1.06c.29-.83.37-1.65.31-2.51-.01-.28-.04-.57-.08-.86l-.34.34.34.34c.05.05.08.11.08.18 0 .06-.03.13-.08.17-.1.1-.26.1-.35 0l-.34-.34-.59.6c-.1.09-.26.09-.36 0-.1-.1-.1-.26 0-.36l.59-.59-.59-.59c-.1-.1-.1-.26 0-.36.1-.09.26-.09.36 0l.59.6.59-.6c-.53-2.56-2.07-5.02-4.34-6.88-2.41 2.54-6.57 2.49-9.02.03-1.4 1.31-2.38 2.64-2.99 4.04-1.13 2.59-.86 6.26 1.84 8.25 1 .73 2.21 1.15 3.51 1.4v-.01l.76-.76-.66-.67c-.1-.1-.1-.25 0-.35s.25-.1.35 0l.67.66 1.53-1.53c.09-.1.25-.1.35 0s.1.26 0 .36l-.5.49 1.04 1.04.78-.77-.33-.33c-.1-.1-.1-.26 0-.35.1-.1.25-.1.35 0l.33.32 1.32-1.31c.09-.1.25-.1.35 0s.1.25 0 .35l-1.32 1.32.99.99 1.19-1.18-.62-.62c-.1-.1-.1-.26 0-.35.1-.1.26-.1.36 0zm.5-18.88c.09-.06.21-.06.29.02.1.1.1.26 0 .36l-.03.03c.3.55.52 1.15.65 1.77.33 1.67-.08 3.47-1.08 4.91 2.98 2.44 5.08 6.11 4.92 9.86 7.96 4.74 18.27 3.29 25.67-2.6.21-2.92 1.83-5.24 3.97-7.23-1.49-2.05-1.62-4.87-.24-7.17 1.1-1.85 2.94-2.9 4.99-2.96-.12-6.93-3.98-14.77-12.47-16.17.24.73.41 1.48.5 2.23.3 2.68-.56 5.01-2.32 6.23-1.04.53-1.86 1.35-6.2 1.18-2.76-.1-5.61-.41-7.73-1.96-2.84-2.09-3.86-6.32-1.77-10.24-9.79.83-15.21 9.73-15.41 18.77 2.63-.34 4.93.93 6.26 2.97zm-1.24 6.86c1.04-1.27 1.47-2.95 1.16-4.49-.08-.42-.23-.83-.41-1.21l-.39.39.4.4c.09.09.09.25 0 .35-.1.1-.26.1-.36 0l-.4-.4c-.11.1-.25.08-.34-.01-.1-.09-.09-.24-.01-.34l-.23-.23c-.1-.1-.1-.26 0-.36s.25-.1.35 0l.23.23.5-.49c-2.03-3.39-6.91-3.84-9.06-.24-1.03 1.73-1.3 4.38.41 6.39.46.56.98.95 1.56 1.26l.57-.56-.62-.62c-.09-.09-.09-.25 0-.35.1-.1.26-.1.36 0l.61.61.37-.36-.09-.09c-.09-.1-.09-.26 0-.35.1-.1.26-.1.36 0l.08.08 1.37-1.36c.09-.1.25-.1.35 0s.1.26 0 .36l-.38.37.75.75.92-.91-.47-.48c-.1-.09-.1-.25 0-.35s.26-.1.36 0l.47.47.23-.23c.1-.1.26-.1.35 0 .1.1.1.25 0 .35l-.23.24.44.43.68-.68c.02-.02.04-.01.06-.02-.02-.02-.05-.02-.08-.04l-1.27-1.27c-.1-.1-.1-.26 0-.35.1-.1.26-.1.35 0l1.28 1.27c.1.1.1.25 0 .35-.02.02-.04.01-.06.03.03.01.06.01.08.03.1.1.1.25 0 .35l-.69.69.42.41c.01-.01.02-.01.02-.02z"/></g></g></svg>