<svg id="Layer_1" enable-background="new 0 0 66 66" height="512" viewBox="0 0 66 66" width="512" xmlns="http://www.w3.org/2000/svg"><g><path d="m22.316 21.332c2.399-2.48 3.509-6.131 2.896-9.528-.616-3.411-3.118-5.955-5.127-8.502-2.296-2.908-6.21-2.721-8.874-1.317-3.761 1.979-6.291 6.322-6.605 11.333-1.03 16.358 21.823 47.035 37.471 51.14 4.431 1.16 9.478.517 12.848-2.441 4.315-3.789 4.862-10.979 1.171-15.385-3.678-4.392-10.854-5.131-15.36-1.584-1.378 1.087-2.478 2.461-3.992 2.985-2.109.733-4.61-.261-7.435-2.95-4.46-4.25-13.306-15.171-10.142-20.495.747-1.258 2.066-2.136 3.149-3.256zm-2.606 1.062-.805-.805 1.537-1.537.77.77c.036.036.083.044.13.054-.867.843-.834.755-1.632 1.518zm1.831-1.949c.031.013.059.038.093.038.053 0 .102-.027.146-.06-.054.06-.101.126-.157.184-.008-.049-.019-.1-.057-.138zm2.624-8.718-.904-.904.48-.48c.179.448.322.909.424 1.384zm17.247 51.476.831-.831.829.829-.235.235c-.04.04-.054.094-.061.146-.149-.035-.298-.053-.447-.092-.31-.082-.611-.19-.917-.287zm2.041-2.041.829.829-.856.856-.829-.829zm-.16 2.526.133-.133.153.153c.097.097.255.098.354 0 .098-.098.098-.256 0-.354l-.153-.153.856-.856.945.945-.203.203c-.098.098-.098.256 0 .354.097.097.255.098.354 0l.203-.203.341.341c-.981 0-1.979-.099-2.983-.297zm8.489-5.892 1.176 1.176-1.596 1.596-1.176-1.176zm-.773 3.125-1.663 1.663-1.176-1.176 1.663-1.663zm-2.016 2.016-.037.037c-.098.098-.098.256 0 .354.097.097.255.098.354 0l.084-.084c.006 0 .011.007.017.007.064 0 .128-.024.177-.073.054-.054.071-.124.066-.194l1.709-1.71 1.174 1.174c-1.62.906-3.529 1.431-5.563 1.527l-.685-.685 1.529-1.529zm-3.058 0-.945-.945 1.529-1.529.945.945zm-26.615-29.425c2.419 4.582 5.547 8.718 9.299 12.293 3.116 2.968 5.958 4.037 8.452 3.171 1.751-.607 2.944-2.092 4.283-3.144 5.634-4.436 16.629-1.437 16.134 8.358l-1.916-1.916 1.348-1.348c.098-.098.098-.256 0-.354-.097-.097-.255-.099-.354 0l-1.348 1.348-.184-.184c-.098-.098-.256-.098-.354 0s-.098.256 0 .354l.184.184-.6.6c-.098.098-.098.256 0 .354.097.097.255.098.354 0l.6-.6 2.022 2.022c.075.075.129.071.21.059-.243 2.5-1.317 4.914-3.187 6.555-.393.345-.821.652-1.271.933l-1.277-1.277 1.596-1.596.566.566c.001.001.004.001.005.002l-.369.368c-.098.098-.098.256 0 .354.097.097.255.098.354 0l2.686-2.685c.098-.098.098-.256 0-.354s-.256-.098-.354 0l-1.967 1.966c-.001-.001-.001-.004-.002-.005l-.566-.566 2.066-2.067.163.163c.097.097.255.098.354 0 .098-.098.098-.256 0-.354l-1.144-1.144 1.217-1.218c.098-.098.098-.256 0-.354s-.256-.098-.354 0l-1.217 1.218-.926-.926c-.098-.098-.256-.098-.354 0s-.098.256 0 .354l.926.926-.478.478c-.098.098-.098.256 0 .354.097.097.255.098.354 0l.478-.478.628.627-2.066 2.067-1.176-1.176.378-.378c.098-.098.098-.256 0-.354s-.256-.098-.354 0l-.388.388c-.098-.07-.23-.073-.318.015s-.085.22-.015.318l-1.606 1.606-.983-.983c-.098-.098-.256-.098-.354 0s-.098.256 0 .354l.983.983-1.663 1.663-.945-.945.992-.992c.098-.098.098-.256 0-.354s-.256-.098-.354 0l-.992.992-.491-.491c-.098-.098-.256-.098-.354 0s-.098.256 0 .354l.491.491-1.529 1.529-.829-.829.48-.48c.098-.098.098-.256 0-.354s-.256-.098-.353 0l-.603.603c-.025.012-.055.01-.076.031s-.019.051-.031.076l-.979.979-.921-.921c-.098-.098-.256-.098-.354 0s-.098.256 0 .354l.921.921-1.016 1.016c-14.753-5.184-36.25-34.069-35.268-49.652.293-4.666 2.619-8.693 6.073-10.51 2.425-1.277 5.79-1.269 7.623 1.052 1.459 1.847 3.224 3.746 4.233 5.934-.006.005-.015.003-.021.009l-.604.604-.275-.275c-.098-.098-.256-.098-.354 0s-.098.256 0 .354l.275.275-.686.686c-.098.098-.098.256 0 .354.097.097.255.098.354 0l.686-.686 1.388 1.388c.229 1.967-.154 3.985-1.058 5.744-.122.072-1.681 1.648-1.781 1.748-.074.074-.074.178-.035.269l-.626-.626 1.401-1.401c.098-.098.098-.256 0-.354s-.256-.098-.354 0l-1.401 1.401-1.015-1.015c-.097-.097-.255-.099-.354 0-.098.098-.098.256 0 .354l1.015 1.015-1.537 1.537-.44-.44c-.098-.098-.256-.098-.354 0s-.098.256 0 .354l.44.44-.522.522c-.098.098-.098.256 0 .354.097.097.255.098.354 0l.522-.522.801.801c-.39.403-.752.837-1.046 1.332-1.394 2.343-1.053 5.518 1.014 9.434z"/><path d="m33.126 23.238c-.025.275.177.519.452.544 5.207.483 8.834 5.486 7.642 10.6-.063.269.104.538.374.6.259.063.537-.098.601-.374 1.319-5.669-2.681-11.279-8.524-11.822-.268-.022-.518.177-.545.452z"/><path d="m50.763 35.221c.27.053.533-.122.587-.394 2.031-10.253-5.465-20.023-15.896-20.719-.266-.011-.514.19-.532.466-.019.275.19.514.466.532 9.85.656 16.891 9.882 14.981 19.526-.053.272.122.536.394.589z"/><path d="m59.76 35.092c.26.081.542-.063.626-.329 4.744-15.205-7.365-30.395-23.067-29.408-.275.017-.485.254-.468.53.018.275.229.477.53.468 15.15-.927 26.551 13.685 22.05 28.113-.082.263.065.543.329.626z"/><path d="m22.962 18.134c.097.097.255.098.354 0 .098-.098.098-.256 0-.354l-1.874-1.874c.012-.009.029-.006.04-.017l1.426-1.426.899.899c.097.097.255.098.354 0 .098-.098.098-.256 0-.354l-.899-.899.464-.464c.098-.098.098-.256 0-.354s-.256-.098-.354 0l-.464.464-.522-.522c-.098-.098-.256-.098-.354 0s-.098.256 0 .354l.522.522-1.426 1.426c-.017.017-.014.041-.025.061-.096-.06-.219-.063-.303.021-.098.098-.098.256 0 .354z"/></g></svg>