<svg id="Layer_1" enable-background="new 0 0 66 66" height="512" viewBox="0 0 66 66" width="512" xmlns="http://www.w3.org/2000/svg"><g><path d="m47.555 39.498c2.204-2.204 4.761-4.323 6.22-7.195 1.362-2.685 1.791-5.962 1.349-10.316-.167-1.67-.423-3.225-.762-4.691l.24-.24c.098-.098.098-.256 0-.354s-.256-.098-.354 0l-.024.024c-1.391-5.545-4.361-10.557-9.218-13.314-7.474-4.242-21.098-2.966-28.664 4.51-4.827 4.757-6.81 11.906-4.935 17.788 2.457 7.72 9.941 11.565 12.714 20.202-2.199.436-3.418 1.582-2.583 3.637.44 1.052 1.482 1.627 3.171 1.757-.201 1.216-.381 2.187-.486 2.883-1.388.259-2.273.736-2.684 1.456-.572 1-.627 4.094 4.234 3.98l2.138-.044c.151 4.533 4.994 7.433 9.736 3.707 1.255-1.001 2.323-2.35 2.259-3.953l1.106-.023c6.069-.169 4.984-4.662 1.989-5.521.131-.979.167-2.023.068-3.011 1.405-.365 2.138-1.25 2.291-2.161.216-1.247-.681-2.364-1.729-2.871.285-1.157.327-2.652 3.924-6.25zm-4.699 5.229c-.011-.043-.017-.088-.05-.121l-.616-.616 1.83-1.83c-.808 1.22-.919 1.543-1.164 2.567zm10.028-12.877c-1.37 2.698-3.864 4.77-6.035 6.941-.809.809-1.767 1.836-2.611 3.043-.001-.063-.024-.125-.072-.173-.098-.098-.256-.098-.353 0l-1.976 1.976-.898-.898 2.338-2.338.788.788c.098.098.256.098.354 0s.098-.256 0-.354l-.788-.788 1.513-1.513c.098-.098.098-.256 0-.354s-.256-.098-.354 0l-1.513 1.513-1.102-1.102c.013.002.024.016.038.016.064 0 .128-.024.177-.073l2.702-2.702 1.588 1.588c.098.098.256.098.354 0s.098-.256 0-.354l-1.588-1.588 1.9-1.9.961.961-1.638 1.638c-.098.098-.098.256 0 .354s.256.098.353 0l1.638-1.638.64.64c.098.098.256.098.354 0s.098-.256 0-.354l-.64-.64 2.526-2.526.14.14c.098.098.256.098.354 0s.098-.256 0-.354l-.14-.14.263-.263c.098-.098.098-.256 0-.354s-.256-.098-.354 0l-.263.263-1.024-1.024 2.651-2.65.349.349c.098.098.256.098.354 0s.098-.256 0-.354l-.349-.349.329-.329c.098-.098.098-.256 0-.354s-.256-.098-.354 0l-.329.329-1.149-1.149 1.462-1.462.137.138c.098.098.256.098.354 0s.098-.256 0-.354l-.137-.138.413-.413c.194 3.438-.246 6.103-1.363 8.305zm.881-12.462-.746-.746.507-.507c.085.41.166.827.239 1.253zm-13.55-16.038-.92-.92c.512.098 1.01.213 1.494.346zm-4.218-1.305-.165.165-.173-.173c.112.003.227.003.338.008zm-1.063-.027.545.545-1.039 1.039c-.047.047-.068.108-.07.169-.007-.053-.02-.106-.061-.147l-.909-.908.259-.259c.098-.098.098-.256 0-.354-.035-.035-.082-.043-.127-.053.731-.031-.093-.042 1.402-.032zm-1.888.344-.258-.258c.208-.014.414-.035.623-.045-.037.012-.077.014-.106.044zm-2.874.037-.444.444-.323-.323c.253-.047.511-.08.767-.121zm-7.334 3.889-1.084-1.083c.528-.288 1.072-.554 1.629-.805l.82.82c-.097-.067-.227-.07-.313.017zm-2.35.019c-.098-.098-.256-.098-.354 0l-.159.158-.109-.109c.463-.315.943-.612 1.437-.896l1.181 1.181-1.166 1.166-.989-.989.158-.158c.098-.097.098-.255.001-.353zm-1.036.342.17.17-1.951 1.951-.365-.365c.662-.63 1.385-1.21 2.146-1.756zm4.42-2.468c.623-.264 1.263-.502 1.917-.719l.494.495-1.318 1.318zm-6.932 4.566.377.377-1.647 1.648-.268-.268c.47-.616.984-1.202 1.538-1.757zm-3.615 18.98.243.243-.083.083c-.057-.107-.105-.218-.16-.326zm-.964-2.318c-.216-.677-.376-1.373-.484-2.08.061-.002.123-.024.17-.07l.076-.077 1.293 1.293-1.023 1.022c-.009-.03-.022-.059-.032-.088zm-.618-3.314c-.035-.521-.036-1.047-.017-1.574.041-.011.085-.016.117-.049l.71-.71 1.141 1.141-1.572 1.572zm.016-2.246c.021-.266.05-.532.084-.799l.357.357zm.178-1.411c.091-.545.205-1.089.349-1.628.089.037.158.073.267-.036l.279-.279 1.141 1.141-1.419 1.42zm.716-2.831c.296-.855.665-1.693 1.093-2.506l.887.887-1.799 1.799zm1.42-2.885c-.028-.027-.065-.029-.099-.041.34-.608.719-1.197 1.131-1.767l1.301 1.301-1.42 1.42zm-.332 15.782.181-.181.33.33c.098.098.256.098.354 0s.098-.256 0-.353l-.33-.33 1.901-1.902c.098-.098.098-.256 0-.354s-.256-.098-.353 0l-1.901 1.902-1.178-1.178c-.056-.141-.106-.284-.158-.426l1.184-1.184.136.136c.098.098.256.098.354 0s.098-.256 0-.354l-.136-.136 1.008-1.008c.098-.098.098-.256 0-.354s-.256-.098-.354 0l-1.008 1.008-1.293-1.293 2.712-2.712c.098-.098.098-.256 0-.354s-.256-.098-.353 0l-.787.787-1.141-1.141 1.443-1.443c.091.041.165.075.273-.033.075-.076.074-.181.033-.273l.966-.966c.098-.098.098-.256 0-.354s-.256-.098-.354 0l-.942.942-1.141-1.141 1.799-1.8.983.983c.098.098.256.098.354 0s.098-.256 0-.354l-.983-.983 1.42-1.42c.106.106.263.098.357.003.098-.098.098-.256 0-.354l-1.092-1.093 1.648-1.648.846.846c.098.098.256.098.354 0s.098-.256 0-.354l-.846-.846 1.951-1.951.989.989-.102.102c-.098.098-.098.256 0 .354s.256.098.354 0l.102-.102.096.095c.098.098.256.098.353 0s.098-.256 0-.354l-.095-.095 1.206-1.206c.015.003.028.018.043.018.064 0 .128-.024.177-.073.061-.061.07-.141.056-.22l1.091-1.091c.087-.087.084-.216.017-.313l.352.352-.056.056c-.098.098-.098.256 0 .354s.256.098.354 0l.051-.051.007.007c.098.098.256.098.354 0s.098-.256 0-.353l-.007-.007 1.318-1.318.845.845c.098.098.256.098.353 0 .098-.098.098-.256 0-.353l-.845-.845.305-.305c.098-.098.098-.256 0-.354s-.256-.098-.354 0l-.305.305-.321-.321c.813-.252 1.642-.472 2.493-.651l.565.565-.659.659c-.098.098-.098.256 0 .354s.256.098.354 0l.659-.659.908.908c.098.098.256.098.354 0s.098-.256 0-.353l-.908-.908.456-.457c.098-.098.098-.256 0-.354-.022-.022-.052-.021-.079-.033.552-.082 1.108-.151 1.671-.202l.563.563-.887.887c-.098.098-.098.256 0 .354s.256.098.354 0l.887-.887.909.909c.151.151.416.059.424-.169.007.053.02.106.061.147.098.098.256.098.354 0l1.039-1.039.929.929c-.011.076.001.153.059.211.098.098.256.098.354 0l.047-.047c.013-.009.03-.006.042-.017.011-.011.008-.029.017-.042l1.092-1.092c.098-.098.098-.256 0-.354s-.256-.098-.354 0l-.944.944-.888-.888.27-.27c.06-.06.07-.139.057-.216.662.044 1.304.112 1.929.206l1.42 1.42c-.098.098-.098.256 0 .354s.256.098.354 0l1.128-1.128c.092.028.179.063.27.092l.514.514c.098.098.256.098.353 0 .05-.05.073-.115.072-.181.687.27 1.343.577 1.963.929 4.804 2.727 7.622 7.782 8.884 13.272l-.779.779c-.069-.005-.139.014-.192.067s-.071.123-.067.192l-.309.309c-.098.098-.098.256 0 .354s.256.098.354 0l.261-.261.898.898-1.388 1.388c-.098.098-.098.256 0 .354s.256.098.354 0l1.372-1.372c.087.594.166 1.199.229 1.825.028.277.043.538.064.806l-.714.715-1.201-1.2c-.098-.098-.256-.098-.354 0s-.098.256 0 .354l1.201 1.2-1.576 1.576c-.066.066-.071.155-.047.239-.023.084-.019.173.047.239l1.263 1.263-2.651 2.65-.386-.386c-.098-.098-.256-.098-.354 0s-.098.256 0 .354l.434.434c-.005.069.014.139.067.192.049.049.113.073.177.073.006 0 .01-.006.016-.007l1.071 1.071-2.526 2.526-.961-.961.451-.451c.098-.098.098-.256 0-.354s-.256-.098-.354 0l-.451.451-.199-.199c-.098-.098-.256-.098-.353 0-.098.098-.098.256 0 .354l.199.199-1.9 1.9-.575-.574c-.098-.098-.256-.098-.354 0s-.098.256 0 .354l.574.574-2.702 2.702c-.059.059-.07.138-.058.214l-.34-.34c-.098-.098-.256-.098-.354 0s-.098.256 0 .354l1.638 1.639-2.338 2.338-.829-.826c-.098-.098-.256-.098-.354 0s-.098.256 0 .354l.825.825-2.076 2.076c-.098.098-.098.256 0 .354s.256.098.354 0l2.076-2.076.898.898-.574.574c-.098.098-.098.256 0 .354s.256.098.354 0l.574-.574.616.616c.089.089.234.105.344.004 0 0-.11.461-.11.463-.715-.164-1.593-.164-2.302-.146-.877.014-1.763.011-2.648.01-1.68-8.99 1.155-18.705 7.414-25.373.189-.202.179-.518-.022-.707-.202-.189-.519-.179-.707.022-1.027 1.095-1.955 2.276-2.799 3.514-.036.002-.072-.003-.109.007-2.181.581-3.915-2.305-5.263-3.547-.684-.631-2.069-1.641-3.67-1.328-.982.194-1.865.853-2.699 2.015-.717 1-2.139 3.809-4.035 3.147-.054-.019-.109-.022-.164-.022-.563-.817-1.154-1.615-1.785-2.382-.176-.213-.49-.245-.704-.069-.213.175-.244.491-.069.704 5.402 6.57 8.289 15.125 8.002 23.621-.184.097-.279.299-.254.504-.001 0-5.755.373-5.755.373-2.779-8.363-7.77-10.844-11.377-17.267zm18.36 16.839c.34-7.442-1.696-14.947-5.691-21.225 2.288-.048 3.432-2.452 4.285-3.643.679-.945 1.359-1.474 2.08-1.616 1.211-.241 2.36.677 2.799 1.082 1.377 1.27 2.805 3.823 5.349 3.875-3.935 6.333-5.521 14.128-4.197 21.478-1.525-.006-3.076-.002-4.625.049zm1.969 3.704.89.89c.034.034.08.041.124.051-.018.055-.017.104.003.157-.334.007-1.317.027-1.651.034.096-.098.096-.254-.001-.352l-.073-.074zm8.03 1.92c.067.763.013 1.987-.069 2.639-1.002-.098-10.388-.145-16.644.426l1.629-1.629.917.917c.098.098.256.098.354 0s.098-.256 0-.354l-.917-.917.761-.761.769-.016.742.742-.406.405c-.098.098-.098.256 0 .354s.256.098.354 0l.406-.405.24.24c.098.098.256.098.354 0s.098-.256 0-.354l-.24-.24.788-.788.849-.017.703.703-.029.029c-.098.098-.098.256 0 .354s.256.098.354 0l.061-.061c.088.026.146.051.243-.046.067-.067.071-.158.046-.243l.78-.779.729-.015.525.525c-.091.098-.092.25.003.346.091.091.238.104.346.003l.363.363c.098.098.256.098.354 0s.098-.256 0-.354l-.361-.361.559-.559 1.231-.025.248.248c-.117.021-.211.111-.211.234 0 .138.112.25.25.25h.445l.609.609c.098.098.256.098.354 0s.098-.256 0-.354l-.255-.255h.666c.066 0 .13-.026.177-.073l.351-.352.868.868c.098.098.256.098.354 0s.098-.256 0-.354l-.868-.868.015-.015c.474-.01 1.014-.041 1.203-.06zm-15.438 1.083-1.283 1.283c.073-.418.288-1.648.345-1.995l.222-.005zm-.023-.731.769-.016-.392.392zm2.953-.06.823-.017-.42.42zm5.973-.123.374-.008-.191.191zm-2.522.423-.364-.364.743-.015zm7.132-.517-.278.278h-1.065l-.246-.246zm-2.879-.941c-.098-.084-.243-.085-.335.007l-1.376.028.952-.952.84.84c.047.047.109.07.172.071zm-4.214.081c.003.003.009.002.012.005l-.168.003.082-.082zm-.923 13.654.028-.028.049.049c-.026-.007-.052-.014-.077-.021zm.881.163c-.012-.026-.011-.056-.032-.078l-.467-.467.537-.537 1.007 1.007c-.36.064-.461.117-1.045.075zm3.986-1.493c-.837.658-1.666 1.097-2.476 1.324.01-.075-.003-.15-.061-.208l-1.059-1.059.777-.777 1.353 1.353c.098.098.256.098.354 0 .037-.037.048-.087.056-.136.019-.011.042-.008.058-.024l1.707-1.707.272.272c-.272.325-.585.646-.981.962zm1.858-2.659c-.075.439-.266.875-.561 1.307l-.235-.235.647-.647c.098-.098.098-.256 0-.354s-.256-.098-.354 0l-.647.647-.68-.679c-.098-.098-.256-.098-.354 0s-.098.256 0 .354l.68.679-1.667 1.667-1.153-1.153 1.192-1.192c.098-.098.098-.256 0-.354s-.256-.098-.354 0l-1.209 1.209c-.096-.056-.215-.059-.297.023s-.079.201-.023.297l-.793.793-.269-.269c-.098-.098-.256-.098-.354 0s-.098.256 0 .354l.269.269-.535.537-.885-.885c-.098-.098-.256-.098-.354 0s-.098.256 0 .354l.885.885-.198.198c-1.691-.71-2.67-2.159-2.742-4.089 2.202-.046 7.776-.16 10.016-.206.008.163-.001.327-.025.49zm-6.727-1.352.236-.236.226.226zm8.821-.181-1.639.034c-.002 0-.002-.001-.004-.001l-.253.005-.308-.308 1.188-1.188 1.266 1.267c-.007.066.011.128.056.182-.103.002-.204.006-.306.009zm1.091-.058-.179-.179 1.017-1.016.715.715c.001.001.003.001.004.002-.306.204-.724.393-1.557.478zm1.924-.791c-.009-.013-.006-.031-.018-.043l-.715-.715.513-.512c.098-.098.098-.256 0-.354s-.256-.098-.354 0l-.513.512-.645-.645c-.098-.098-.256-.098-.353 0-.098.098-.098.256 0 .354l.645.645-1.017 1.016-1.222-1.222.221-.221c.098-.098.098-.256 0-.354s-.256-.098-.354 0l-1.762 1.762-.748-.748c-.098-.098-.256-.098-.354 0s-.098.256 0 .354l.748.748-.131.132c-.056.056-.071.129-.063.202l-2.081.043c-.001-.001-.001-.004-.002-.005l-.269-.269 2.266-2.265c.098-.098.098-.256 0-.354s-.256-.098-.354 0l-2.265 2.265-.371-.371c-.098-.098-.256-.098-.354 0s-.098.256 0 .354l.371.371-.097.097c-.055.055-.071.128-.063.201l-1.371.028c-.01-.017-.007-.038-.022-.052l-.514-.514 1.719-1.719c.098-.098.098-.256 0-.354s-.256-.098-.354 0l-1.719 1.719-.132-.132c-.098-.098-.256-.098-.353 0-.098.098-.098.256 0 .354l.132.132-.604.604c-.614.013-5.066.104-5.685.117-1.883.044-2.943-.341-3.287-1.168-.225-.558-.244-.988-.056-1.316.776-1.359 4.911-1.139 6.099-1.273 1.9-.209 13.138-.641 14.651.033 1.023.469 1.702 1.628.837 2.563zm.382-9.014c0 .001-.001.002-.001.003-.092.553-.588 1.132-1.618 1.381-.011-.041-.016-.084-.048-.116l-.99-.99 1.079-1.08c.029-.029.031-.068.043-.104l.533.533-.851.85c-.098.098-.098.256 0 .354s.256.098.354 0l.851-.85.029.029c.098.098.256.098.354 0s.098-.256 0-.354l-.029-.029.135-.136c.096-.096.095-.248.003-.346.141.265.208.557.156.855zm-.16-.864c-.098-.096-.254-.096-.352.001l-.135.136-.714-.714c-.098-.098-.256-.098-.354 0-.06.06-.07.14-.056.218-.058.004-.116.022-.16.066l-1.08 1.08-.268-.269c-.098-.098-.256-.098-.354 0s-.098.256 0 .354l.268.269-.611.611c-.098.098-.098.256 0 .354s.256.098.354 0l.611-.611.858.857c-.7.093-1.474.091-2.214.106.034-.012.071-.014.099-.041.098-.098.098-.256 0-.354l-.923-.922 1.073-1.073c.098-.098.098-.256 0-.354s-.256-.098-.354 0l-1.073 1.073-.2-.2c-.098-.098-.256-.098-.354 0s-.098.256 0 .354l.2.2-.611.611c-.098.098-.098.256 0 .354s.256.098.354 0l.611-.611.923.922c.029.029.069.032.106.044l-2.301.047c.062-.001.124-.024.171-.071.098-.098.098-.256 0-.354l-.84-.84.435-.435c.098-.098.098-.256 0-.354s-.256-.098-.354 0l-.435.435-.029-.029c-.098-.098-.256-.098-.354 0s-.098.256 0 .354l.029.029-.835.835c-.012-.028-.011-.059-.034-.082l-.89-.89 1.223-1.223c.098-.098.098-.256 0-.354s-.256-.098-.354 0l-2.285 2.285-.474-.474c-.098-.098-.256-.098-.354 0s-.098.256 0 .354l.474.474-.2.2c-.068.068-.071.16-.044.246l-.599.012c-.003-.003-.002-.008-.004-.011-.098-.098-.256-.098-.354 0l-.018.018-2.523.052c-.012-.029-.012-.062-.035-.085-.098-.098-.256-.098-.353 0l-.095.096c-3.016.062-2.446.055-3.124.055-1.594-.026-2.524-.41-2.841-1.169-.431-1.06-.294-1.988 2.379-2.364.092-.012 5.247-.373 6.498-.431.182.101.342.105.521-.022 3.263-.12 5.434-.024 8.544-.073 1.036-.027 1.833-.018 2.756.346.423.189.831.541 1.055.962z"/><path d="m23.541 13.789c.064 0 .128-.024.177-.073l.246-.246 1.719 1.719-1.896 1.896c-.098.098-.098.256 0 .354.049.049.113.073.177.073s.128-.024.177-.073l1.896-1.896.577.577-1.219 1.22c-.098.098-.098.256 0 .354.049.049.113.073.177.073s.128-.024.177-.073l1.219-1.22 1.348 1.348c.049.049.113.073.177.073s.128-.024.177-.073c.098-.098.098-.256 0-.353l-1.107-1.108c.04.024.08.052.125.052.064 0 .128-.024.177-.073l1.727-1.727 1.498 1.498c.049.049.113.073.177.073s.128-.024.177-.073c.098-.098.098-.256 0-.354l-1.498-1.498 1.508-1.508.825.825c.049.049.113.073.177.073s.128-.024.177-.073c.098-.098.098-.256 0-.354l-.825-.825 1.03-1.03c.098-.098.098-.256 0-.353-.098-.098-.256-.098-.354 0l-1.03 1.03-.958-.958 1.635-1.635.972.972c.049.049.113.073.177.073s.128-.024.177-.073c.098-.098.098-.256 0-.354l-.972-.972 1.104-1.104c.098-.098.098-.256 0-.354s-.256-.098-.354 0l-1.104 1.104-.965-.966c-.098-.098-.256-.098-.354 0s-.098.256 0 .353l.965.966-1.635 1.635-1.719-1.719.56-.559c.098-.098.098-.256 0-.354s-.256-.098-.354 0l-.634.634c-.052.007-.105.02-.145.06s-.053.093-.06.145l-3.824 3.824-.077-.077c-.098-.098-.256-.098-.354 0s-.098.256 0 .353l.077.077-.246.246c-.098.098-.098.256 0 .354.047.05.111.074.175.074zm3.969 2.197c-.083.083-.08.205-.021.302l-.167-.167.465-.465c.098-.098.098-.256 0-.354s-.256-.098-.354 0l-.465.465-.577-.577 1.889-1.889.958.958zm3.589-3.589-1.508 1.508-.958-.958 1.508-1.508zm-1.312-1.311-1.508 1.508-1.685-1.685c-.014-.014-.033-.01-.049-.02l1.522-1.522zm-3.566.127c.01.016.007.035.02.049l1.685 1.685-1.889 1.889-1.719-1.72z"/></g></svg>