<svg id="Layer_1" enable-background="new 0 0 66 66" height="512" viewBox="0 0 66 66" width="512" xmlns="http://www.w3.org/2000/svg"><g><path d="m64.347 9.936c.046-.081.046-.172-.006-.251-.012-.667-.041-1.349-.107-2.026.072-.098.075-.232-.014-.32-.007-.007-.019-.005-.027-.011-.576-4.819-3.164-6.133-7.972-6.073l-28.316.321-.267-.266c-.098-.098-.256-.098-.354 0-.076.076-.075.182-.033.274l-3.777.043-.234-.237c-.098-.098-.256-.098-.354 0-.067.067-.071.158-.046.243l-3.058.035c-.043-.011-.079-.011-.122.001l-9.583.109c-7.17.082-8.853 2.45-8.894 8.473-.028 4.295-.164 38.377-.164 46.481-.185 5.519 1.443 7.548 7.49 7.606l44.234.423c9.628.089 12.382-2.902 12.247-11.94zm-.955 3.022c-.004-.058-.022-.116-.066-.16l-.477-.477.526-.525zm-.09-4.338-.005-.005.005-.005zm-2.238-2.472c-.005-.006-.003-.014-.008-.019l-1.018-1.018 1.539-1.539c.361.342.655.737.882 1.181zm-2.198-3.775c.876.125 1.666.377 2.338.866l-1.519 1.519-1.602-1.602zm-1.137.429-.546-.546c.359.005.708.02 1.046.046zm-1.496-.547c.138-.001.275-.002.411-.003-.017.08-.009.163.053.225l.679.679-1.72 1.72c-.088.088-.085.222-.014.319l-1.877-1.877 1.048-1.048zm-2.822.71-.671-.671 1.358-.015zm-3.186-.642-1.132 1.132-1.106-1.106zm-10.446.154c.01-.01.007-.025.015-.036l2.602-.03-1.817 1.817-1.276-1.276zm-.829.122-.146-.147.296-.003zm7.484-.233-1.455 1.455-1.423-1.423zm-16.867.871.688-.688 1.51-.017-1.452 1.452zm5.659-.744-.921.921-.9-.9zm-5.686.064-.326.327-.319-.319zm23.213 61.205-44.234-.423c-5.499-.053-6.666-1.644-6.5-6.581 0-.005 0-.011 0-.017 0-8.087.135-42.187.164-46.483.036-5.426 1.263-7.404 7.905-7.48l10.052-.114.288.289-.464.464c-.098.098-.098.256 0 .354s.256.098.354 0l.464-.464.815.815c.098.098.256.098.354 0s.098-.256 0-.354l-.815-.815.303-.303 2.169-.025-1.14 1.14c-.098.098-.098.256 0 .354s.256.098.354 0l1.219-1.219.897.897c.098.098.256.098.354 0s.098-.256 0-.354l-.827-.827 2.522-.029-1.828 1.828c-.098.098-.098.256 0 .353.098.098.256.098.354 0l2.19-2.19.494-.006.665.665-1.337 1.338c-.098.098-.098.256 0 .353.098.098.256.098.354 0l1.337-1.337.768.768c-.045.093-.047.203.03.281.107.107.187.076.281.03l.509.509c.098.098.256.098.354 0s.098-.256 0-.353l-.488-.488 1.813-1.813.226-.003 1.246 1.246-.368.368c-.098.098-.098.256 0 .353.098.098.256.098.354 0l.368-.368 1.217 1.217c.098.098.256.098.354 0s.098-.256 0-.353l-1.217-1.217 1.282-1.283 2.163-.024.492.492-2.061 2.061c-.098.098-.098.256 0 .353.098.098.256.098.354 0l2.061-2.061 1.276 1.276-.327.327c-.098.098-.098.256 0 .354s.256.098.354 0l.327-.327.441.441c.098.098.256.098.354 0s.098-.256 0-.353l-.441-.441 2.05-2.05 1.643 1.642-.312.312c-.098.098-.098.256 0 .353.098.098.256.098.354 0l.312-.312 1.207 1.207c.098.098.256.098.354 0s.098-.256 0-.353l-1.207-1.207 1.816-1.817.139-.002 1.452 1.452-1.464 1.464c-.098.098-.098.256 0 .353.098.098.256.098.353 0l1.464-1.464 1.472 1.472c.098.098.256.098.354 0s.098-.256 0-.354l-1.472-1.472 1.249-1.249c.067-.067.071-.157.046-.242l1.299-.015 1.017 1.017-1.656 1.656c-.098.098-.098.256 0 .353.098.098.256.098.353 0l1.656-1.656 2.404 2.403c.098.098.256.098.354 0s.098-.256 0-.353l-.485-.477c.122.089.235.07.319-.014l1.72-1.72 1.602 1.602-1.515 1.514c-.098.098-.098.256 0 .354s.256.098.354 0l1.515-1.515 1.018 1.018c.005.005.014.003.019.008l-.81.809c-.098.098-.098.256 0 .354s.256.098.354 0l2.416-2.416c.326.824.494 1.754.577 2.708l-.315.315-.924-.923c-.098-.098-.256-.098-.354 0s-.098.256 0 .354l.923.923-1.211 1.211c-.098.098-.098.256 0 .354s.256.098.353 0l1.211-1.211.389.389c.005.172.011.344.013.514l.019 1.268c-.023.012-.049.01-.068.028l-.801.801-1.127-1.127c-.098-.098-.256-.098-.354 0s-.098.256 0 .354l1.127 1.127-.64.64c-.098.098-.098.256 0 .354s.256.098.354 0l.64-.64.477.477c.098.098.256.098.354 0 .044-.044.063-.103.067-.161l.598 39.847c.125 8.337-2.029 11.005-11.237 10.922z"/><path d="m58.771 15.613c-17.155-.092-34.091-.065-51.247-.156 0 0-.001 0-.002 0-.257 0-.472.195-.498.45-1.409 14.136-1.701 28.492-.866 42.67.016.265.234.471.499.471h.006l52.446-.623c.264-.003.479-.21.494-.473.756-14.179.644-28.268-.336-41.874-.018-.261-.235-.463-.496-.465zm-3.974.985-.269.269-.272-.271c.181 0 .361.001.541.002zm-5.236 1.339-1.238-1.238.126-.126c.708.002 1.415.006 2.123.008l.173.173zm-8.165-1.384-.259.259-.26-.26c.173.001.346.001.519.001zm-3.395-.007-.596.596-.598-.598c.398 0 .796.001 1.194.002zm-3.724-.008-.603.604-.606-.606h.077c.377 0 .754.001 1.132.002zm-8.753 1.948-1.595-1.595.375-.375c1.061.002 2.122.005 3.182.007zm-5.93-.387 1.251-1.251c.094-.094.092-.241.006-.339.663.002 1.329.003 1.992.004l.378.378-2.417 2.418zm-2.561-1.605-1.662 1.662-1.675-1.675c1.112.005 2.224.01 3.337.013zm2.207 1.251-1.247-1.247c.829.003 1.655.007 2.485.01zm4.312-1.231h.047l-.023.023zm7.275.016-1.132 1.132-1.137-1.137c.756.002 1.512.004 2.269.005zm-23.832 38.685.558.558-.508.508c-.017-.355-.033-.71-.05-1.066zm-.138-3.322.423.423-.4.4c-.01-.274-.014-.549-.023-.823zm-.12-4.4 1.064 1.064-1.009 1.009c-.018-.691-.043-1.381-.055-2.073zm-.026-3.099.706.706-.694.694c-.006-.467-.009-.934-.012-1.4zm.005-3.963c.058-.004.117-.022.161-.067l.317-.317 1.046 1.046-1.544 1.544c0-.735.013-1.47.02-2.206zm.006-.619c.001-.078.002-.156.003-.234l.116.116zm.01-.933c.01-.702.016-1.403.032-2.105.034.016.064.042.101.042.064 0 .128-.024.177-.073l.756-.756 1.375 1.375-1.979 1.978zm.192-7.224.904.904-.968.967c.022-.623.039-1.247.064-1.871zm.187-3.786c.013-.009.029-.006.04-.017l.07-.07.936.936-1.145 1.145c.032-.665.062-1.33.099-1.994zm.464-.441 1.265-1.265.872.872c.044.044.101.061.159.066-.059.004-.117.022-.162.067l-1.197 1.197zm-.429-.278c.039-.668.088-1.335.131-2.003l.273-.273.936.936zm.334-3.054c-.035-.035-.082-.043-.127-.053.06-.871.114-1.743.183-2.613l.975-.975 1.375 1.375-2.336 2.336zm.125-3.441c.028-.339.06-.678.09-1.017l.463.464zm.315-1.499c-.049-.049-.113-.073-.177-.073.077-.875.146-1.75.231-2.624.109.001.22.001.329.001l1.747 1.747-1.54 1.54zm50.709 38.274-51.5.612c-.021-.361-.032-.723-.051-1.085l.83-.829.595.595c.098.098.256.098.354 0s.098-.256 0-.354l-.595-.595 1.71-1.71c.098-.098.098-.256 0-.354s-.256-.098-.354 0l-1.711 1.71-.947-.947c-.016-.364-.037-.728-.052-1.093.007-.005.017-.003.023-.009l.702-.701.674.674c.098.098.256.098.354 0s.098-.256 0-.354l-.674-.674 1.694-1.694c.098-.098.098-.256 0-.354s-.256-.098-.353 0l-1.694 1.694-.797-.797c-.011-.338-.019-.677-.028-1.015l.002.001c.064 0 .128-.024.177-.073l1.168-1.168.106.106c.098.098.256.098.354 0s.098-.256 0-.354l-.106-.106 1.461-1.461c.098-.098.098-.256 0-.354s-.256-.098-.354 0l-1.461 1.461-1.425-1.422c-.001-.095-.001-.19-.002-.285l1.042-1.042.157.157c.098.098.256.098.354 0s.098-.256 0-.354l-.158-.156.793-.792c.098-.098.098-.256 0-.354s-.256-.098-.354 0l-.793.792-1.066-1.066c0-.127-.003-.253-.003-.38.021-.012.047-.009.066-.027l2.468-2.468c.098-.098.098-.256 0-.354s-.256-.098-.354 0l-.287.289-1.046-1.046 3.656-3.656c.098-.098.098-.256 0-.354s-.256-.098-.354 0l-1.324 1.324-1.375-1.375 1.966-1.966c.098-.098.098-.256 0-.353-.098-.098-.256-.098-.354 0l-1.966 1.966-.152-.152c-.098-.098-.256-.098-.353 0-.098.098-.098.256 0 .354l.152.152-.666.666c.016-.681.04-1.362.061-2.043l1.343-1.343.316.316c.098.098.256.098.354 0s.098-.256 0-.353l-.316-.316 1.722-1.722c.098-.098.098-.256 0-.354s-.256-.098-.354 0l-1.722 1.722-1.141-1.14c-.024-.024-.057-.024-.086-.036.008-.176.018-.352.026-.528.062-.002.123-.024.17-.07l1.36-1.36 1.102 1.102c.098.098.256.098.354 0s.098-.256 0-.353l-1.102-1.102 1.197-1.197c.098-.098.098-.256 0-.354-.044-.044-.101-.061-.159-.066.059-.004.117-.022.162-.067.098-.098.098-.256 0-.354l-.871-.872 1.933-1.933c.098-.098.098-.256 0-.354s-.256-.098-.354 0l-1.933 1.933-.936-.936 2.336-2.336.182.182c.098.098.256.098.354 0s.098-.256 0-.354l-.182-.182.536-.536c.098-.098.098-.256 0-.354s-.256-.098-.353 0l-.536.536-1.375-1.375 1.54-1.54 2.226 2.226c.098.098.256.098.353 0 .098-.098.098-.256 0-.353l-2.226-2.226.789-.789c.098-.098.098-.256 0-.354s-.256-.098-.353 0l-.789.789-1.391-1.391c1.322.007 2.649.01 3.973.015l2.031 2.031-1.634 1.635c-.098.098-.098.256 0 .354s.256.098.353 0l1.635-1.635.873.873c.098.098.256.098.354 0s.098-.256 0-.354l-.873-.873 1.787-1.787 1.375 1.375-1.223 1.223c-.098.098-.098.256 0 .353.098.098.256.098.354 0l1.223-1.223 1.943 1.943c.098.098.256.098.354 0s.098-.256 0-.354l-.379-.379 2.418-2.418 1.595 1.595-.043.043c-.098.098-.098.256 0 .353.098.098.256.098.354 0l.057-.058c.103.063.202.08.303-.021.084-.084.081-.206.021-.303l2.119-2.12c.015-.015.012-.038.023-.055l1.337 1.336-1.14 1.14c-.098.098-.098.256 0 .354s.256.098.354 0l1.14-1.14.746.746c.098.098.256.098.354 0s.098-.256 0-.353l-.746-.746 1.484-1.484c.276 0 .551.001.826.002l.961.961-1.113 1.113c-.098.098-.098.256 0 .354s.256.098.354 0l1.113-1.113.467.467c.098.098.256.098.354 0s.098-.256 0-.354l-.467-.467.955-.956c.372.001.744.002 1.116.003l.953.953-1.113 1.113c-.098.098-.098.256 0 .354s.256.098.354 0l1.113-1.113.813.813c.098.098.256.098.353 0 .098-.098.098-.256 0-.354l-.813-.813.825-.824c.034-.034.041-.08.051-.123.512.001 1.023.002 1.534.003l.615.615-1.113 1.113c-.098.098-.098.256 0 .354s.256.098.353 0l1.113-1.113.694.694c.049.049.113.073.177.073s.128-.024.177-.073c.098-.098.098-.256 0-.354l-.694-.694.611-.611 1.587.003.278.278-1.387 1.387c-.098.098-.098.256 0 .354.049.049.113.073.177.073s.128-.024.177-.073l1.387-1.387 1.244 1.244c.098.098.256.098.354 0s.098-.256 0-.354l-1.244-1.244.275-.275c.847.002 1.691.006 2.538.008l.13.129-1.469 1.469c-.098.098-.098.256 0 .354s.256.098.353 0l1.47-1.469 1.238 1.238-.317.317c-.098.098-.098.256 0 .354s.256.098.354 0l1.854-1.854 1.019 1.018-.208.208c-.098.098-.098.256 0 .354s.256.098.354 0l1.322-1.322c.098-.098.098-.256 0-.353-.098-.098-.256-.098-.354 0l-.761.761-1.188-1.188 2.265.009.628.628-.455.454c-.098.098-.098.256 0 .354s.256.098.354 0l.455-.455.104.104c.098.098.256.098.354 0s.098-.256 0-.353l-.104-.104.55-.55c.019-.019.017-.047.029-.07.946.004 1.897.006 2.842.011.927 13.273 1.037 27.002.318 40.82z"/><path d="m10.921 12.754c.874.136 1.834-.138 2.538-.789.656-.606 1.044-1.513 1.039-2.425-.007-1.318-.824-2.558-2.03-3.086-2.476-1.084-5.357 1.127-4.564 3.751.394 1.307 1.606 2.331 3.017 2.549zm.152-.988c-.333-.052-.639-.18-.927-.339.015-.01.035-.007.048-.02l.695-.695.998.998c-.268.071-.547.097-.814.056zm1.707-.535c-.132.122-.284.22-.444.304-.008-.051-.02-.103-.059-.142l-1.035-1.035.695-.695.518.518-.448.448c-.098.098-.098.256 0 .354.049.049.113.073.177.073s.128-.024.177-.073l.449-.449c.235.221.572-.114.35-.35l.303-.303c-.073.515-.31 1.005-.683 1.35zm-1.649-4.052c.321 0 .641.062.935.19.795.348 1.349 1.174 1.41 2.038-.008-.004-.016-.007-.025-.01-.011-.02-.008-.044-.025-.06l-1.724-1.724c-.098-.098-.256-.098-.354 0s-.098.256 0 .353l1.661 1.661-.2.2-.542-.542c.041-.092.042-.197-.034-.272-.075-.075-.181-.074-.272-.034l-.471-.471c-.098-.098-.256-.098-.354 0s-.098.256 0 .354l.448.447-.695.695-.341-.342c-.098-.098-.256-.098-.354 0s-.098.256 0 .354l.342.342-.695.695c-.04.04-.052.092-.059.143-.431-.332-.767-.772-.92-1.28-.435-1.439.791-2.737 2.269-2.737z"/><path d="m19.772 12.754c.88.137 1.838-.142 2.538-.789.655-.606 1.043-1.512 1.038-2.425-.007-1.318-.824-2.558-2.03-3.086-1.209-.529-2.673-.287-3.645.602-.932.85-1.267 1.998-.918 3.15.395 1.306 1.607 2.33 3.017 2.548zm-.97-1.451.262-.262.666.666c-.337-.078-.647-.217-.928-.404zm2.83-.072c-.336.311-.781.501-1.229.545-.001-.063-.024-.126-.072-.174l-.913-.914.931-.93.612.612-.447.447c-.098.098-.098.256 0 .354.25.25.549-.196.801-.448l.177.177c.049.049.113.073.177.073s.128-.024.177-.073c.098-.098.098-.256 0-.353l-.177-.177.464-.464c.014.002.024.016.038.016.053 0 .103-.027.148-.061-.072.523-.309 1.021-.687 1.37zm-3.285-3.438c.678-.618 1.733-.79 2.57-.424.82.359 1.392 1.224 1.422 2.118l-1.615-1.615c-.098-.098-.256-.098-.353 0-.098.098-.098.256 0 .354l1.366 1.366-.424.424-.612-.612.205-.205c.098-.098.098-.256 0-.354s-.256-.098-.354 0l-.204.205-.212-.212c-.098-.098-.256-.098-.354 0s-.098.256 0 .354l.212.212-.93.93-.294-.294c-.098-.098-.256-.098-.354 0s-.098.256 0 .354l.294.294-.305.305c-.315-.304-.569-.664-.694-1.076-.234-.781-.009-1.535.636-2.124z"/><path d="m29.219 12.754c.88.137 1.838-.142 2.538-.789.655-.606 1.043-1.512 1.038-2.425-.007-1.318-.824-2.558-2.03-3.086-2.475-1.082-5.357 1.127-4.563 3.752.394 1.306 1.606 2.33 3.017 2.548zm.152-.988c-.348-.054-.666-.192-.963-.362l.492-.492.867.867c-.133.007-.266.007-.396-.013zm.982-.108-1.1-1.099.66-.66.636.636-.377.377c-.098.098-.098.256 0 .354.049.049.113.073.177.073s.128-.024.177-.073l.377-.377.226.226c.011.01.026.007.038.016-.031.032-.055.071-.087.101-.21.191-.461.331-.727.426zm.864-3.606c.232.282.403.604.492.956l-.724-.724zm-.853-.683c.184.081.351.196.507.322l-.239.24-.2-.2c-.098-.098-.256-.098-.354 0s-.098.256 0 .354l.2.2-.082.083c-.098.098-.098.256 0 .354.049.049.113.073.177.073s.128-.024.177-.073l.083-.083.992.992c.043.043.1.06.157.065-.023.371-.134.729-.32 1.043l-.204-.204.361-.361c.098-.098.098-.256 0-.354s-.256-.098-.354 0l-.361.361-.636-.636.149-.149c.098-.098.098-.256 0-.354s-.256-.098-.354 0l-.149.149-.142-.141c-.098-.098-.256-.098-.353 0-.098.098-.098.256 0 .354l.141.141-.66.66-.212-.212c-.098-.098-.256-.098-.354 0s-.098.256 0 .354l.212.212-.57.57c-.384-.323-.676-.742-.817-1.212-.549-1.819 1.526-3.284 3.205-2.548z"/><path d="m39.43 28.597c-.244-.13-.547-.037-.676.207l-9.941 18.737c-.129.244-.037.546.208.676.243.129.547.037.676-.207l9.941-18.737c.129-.244.037-.546-.208-.676z"/><path d="m52.022 35.64-9.43-4.704c-.248-.125-.547-.022-.67.224-.123.247-.023.547.224.67l8.831 4.405c-2.774 2.917-5.907 5.175-9.095 6.55-.254.109-.371.403-.261.657.082.189.266.302.459.302 1.001 0 6.151-3.016 10.088-7.32.105-.116.151-.274.122-.429-.029-.153-.128-.285-.268-.355z"/><path d="m25.806 42.785c-3.188-1.375-6.32-3.633-9.095-6.55l8.831-4.405c.247-.123.348-.423.224-.67-.123-.246-.421-.349-.67-.224l-9.43 4.704c-.141.07-.24.202-.269.356-.028.154.017.313.123.429 3.021 3.303 6.349 5.752 9.891 7.279.603.26 1.009-.654.395-.919z"/></g></svg>