<svg id="Layer_1" enable-background="new 0 0 66 66" height="512" viewBox="0 0 66 66" width="512" xmlns="http://www.w3.org/2000/svg"><g><g id="XMLID_1_"><path d="m63.24 40.13c.1.1.1.26 0 .36l-.91.91.95.95c.1.1.1.26 0 .36s-.25.1-.35 0l-.95-.95-.46.45c-.1.1-.26.1-.35 0-.1-.1-.1-.25 0-.35l.45-.46-.81-.81c-.1-.1-.1-.26 0-.36.09-.1.25-.1.35 0l.82.82.91-.92c.1-.1.26-.1.35 0z"/><path d="m45.06 39.83-.39-.39c-.1-.1-.1-.25 0-.35.09-.1.25-.1.35 0l.39.39.8-.8c.1-.1.26-.1.35 0 .1.1.1.26 0 .35l-.8.8 1.13 1.13c.1.1.1.26 0 .35-.1.1-.25.1-.35 0l-1.13-1.12-.05.05c-.1.09-.26.09-.35 0-.1-.1-.1-.26 0-.36z"/><path d="m41.14 17.22c.1.1.1.26 0 .35l-.59.6.5.5c.1.1.1.26 0 .36s-.26.1-.35 0l-.51-.51-.05.05c-.1.1-.25.1-.35 0-.1-.09-.1-.25 0-.35l.05-.05-.69-.68c-.09-.1-.09-.26 0-.36.1-.1.26-.1.36 0l.68.69.6-.6c.1-.1.25-.1.35 0z"/><path d="m27.52 36.28 1.26 1.26 1.41-1.42-1.25-1.25zm-.35.36-1.21 1.21c-.1.1-.26.1-.36 0s-.1-.26 0-.35l1.22-1.22-1.01-1c-.1-.1-.1-.26 0-.36.1-.09.26-.09.35 0l1.01 1.01 1.5-1.5c.01-.05.01-.09.05-.13.05-.05.12-.07.19-.07.09-.05.2-.05.28.03.06.06.07.14.06.21l1.3 1.3.85-.85c.1-.1.26-.1.35 0 .1.1.1.25 0 .35l-.85.85.93.94 1.06-1.05-1.11-1.11-1.29-1.29c-.1-.1-.1-.25 0-.35s.26-.1.35 0l3.59 3.59c.1.1.1.26 0 .35-.09.1-.25.1-.35 0l-.84-.84-1.05 1.05.38.38c.1.1.1.26 0 .36s-.26.1-.35 0l-.39-.38-.96.97c-.1.09-.26.09-.36 0-.1-.1-.1-.26 0-.36l.97-.97-.93-.93-1.42 1.41 1.1 1.1c.09.09.09.25 0 .35-.1.1-.26.1-.36 0l-1.09-1.09-1.21 1.21c-.1.1-.26.1-.36 0s-.1-.26 0-.35l1.22-1.22z"/><path d="m29.99 54.02c.44.05.87.09 1.29.12.29.03.58.05.88.07l.76-.77-1.18-1.18-1.17 1.18.16.16c.1.1.1.26 0 .36s-.26.1-.35 0l-.17-.16zm5.96-2.9 1.59 1.58c.04.04.05.09.06.15l2.24-2.24-1.69-1.69zm.53-24.52 1.14-1.14-1.51-1.5-1.14 1.14zm.61 1.32-.61-.61-1.22 1.21c.39-.08 1.25-.35 1.83-.6zm-3.81 25.17 1.97-1.97-1.18-1.18-1.97 1.97zm.35.35c.09.1.09.25-.01.35-.09.09-.23.1-.34 0l-.46.46c1.24.06 2.53.06 3.83-.05-.01-.01-.03-.01-.04-.01-.09-.1-.09-.26 0-.36l.72-.72c-.05 0-.11-.02-.15-.06l-1.58-1.58zm.41-25.41-1-.99-.69.68c-.09.1-.25.1-.35 0s-.1-.26 0-.36l.68-.68-.77-.77-1.1 1.09.86.86c.1.1.1.26.01.36-.1.1-.26.1-.36 0l-.86-.86-.85.84c1.72.58 3.61.69 5.37.37-.03-.01-.06-.01-.08-.04-.1-.09-.1-.25 0-.35l1.22-1.23-1.5-1.5-1.23 1.23 1 1c.1.1.1.26 0 .35-.1.1-.25.1-.35 0zm9.2 22.24-1.17-1.18-1.52 1.52 1.17 1.17zm-1.82 1.92-1.23-1.23-3.2 3.2c1.74-.18 3.46-.6 5-1.41l-.32-.31c-.08 0-.13-.02-.18-.07s-.07-.12-.07-.18zm-29.44-6.23 1.3 1.3 1.23-1.23-1.3-1.3zm-2.05-16.14-.11-.1-.05.04c.05.02.11.04.16.06zm19.93 20.47-1.22 1.22 1.57 1.58 1.18-1.18-1.47-1.47c-.04-.04-.05-.09-.06-.15zm-1.58 1.58-.89.89.52.52c.1.1.1.26 0 .35-.03.04-.08.04-.12.05.53.1 1.05.19 1.57.26l.5-.5zm-.69 1.78c-.01-.01-.02-.01-.03-.02l-.52-.52-.34.34c.3.07.59.14.89.2zm10.09-40.75c-5.68-3.22-13.02.43-13.7 6.89-.33 3.33 1.19 6.54 4.95 8.12l-.82-.83c-.1-.09-.1-.25 0-.35.09-.1.25-.1.35 0l.96.96.68-.69-1-1c-.1-.1-.1-.26 0-.36.1-.09.26-.09.36 0l1 1.01 1.09-1.1-.55-.55c-.09-.1-.09-.25 0-.35.1-.1.26-.1.36 0l.55.55 1.23-1.23c.09-.1.25-.1.35 0s.1.25 0 .35l-1.23 1.23.77.78 1.23-1.23-.09-.1c-.1-.1-.1-.26 0-.35.1-.1.26-.1.35 0l.1.09 1.14-1.14-.05-.05c-.1-.1-.1-.25 0-.35s.26-.1.35 0l.05.05.33-.33c.09-.1.25-.1.35 0s.1.26 0 .36l-.32.32 1.5 1.5 1.73-1.73-1.46-1.45c-.09-.1-.09-.25 0-.35.1-.1.26-.1.36 0l.32.32 1.14-1.14-.91-.91c-.1-.1-.1-.26 0-.36.1-.09.26-.09.35 0l.91.91.83-.82c.1-.1.26-.1.35 0 .1.1.1.25 0 .35l-.82.83.64.64c.1.1.1.25 0 .35s-.26.1-.35 0l-.64-.64-1.14 1.14 1.5 1.51c.1.1.1.26 0 .35-.1.1-.25.1-.35 0l-.38-.37-1.72 1.73.2.2c.1.1.1.26 0 .36-.1.09-.26.09-.35 0l-.21-.21-1.14 1.14.73.73c5.89-3.12 6.04-11.43.12-14.78zm23.14 35.05c.02-.01.04-.02.06-.04-.02.01-.04.03-.06.04zm-.98-23.97c-.01-.36-.06-.72-.14-1.07l-.46.47zm-.85 21.66 1.27 1.27 1.45-1.45-1.27-1.27zm-.1-21.9-.82.81c-.05.05-.12.07-.18.07-.02 0-.03-.01-.05-.02l1.23 1.23.17-.17c.09-.1.25-.1.35 0 .02.02.02.05.03.07.11-.37.18-.75.21-1.13-.15-.04-.82-.73-.94-.86zm-3.68 3.12 1.41 1.41.83-.82-1.42-1.41zm1.41 2.12-1.04 1.04c.44-.15.87-.32 1.26-.56 1.29-.8 2.21-2.02 2.68-3.37l-1.37 1.36.26.25c.24.24-.12.59-.35.36l-.26-.26-.82.83.2.2c.1.1.1.26 0 .35-.05.05-.11.08-.18.08-.06 0-.12-.03-.17-.08zm.68-4.2-.91.9 1.41 1.42.91-.92zm-3.81 3.8 1.36 1.36c.08.09.08.2.03.3.03-.01.07-.02.1-.03-.06-.1-.07-.22.02-.31l1.27-1.27-1.41-1.41zm2.21 17.01-1.49 1.5 1.31 1.31 1.5-1.49zm-3.29-15.55c.09.09.09.24.01.34.7.06 1.4.03 2.08-.08l-1.36-1.36-.92.91zm-.42.28-.12-.12-.09.1c.07.01.14.01.21.02zm.2 18.79-.48.48c.04 0 .08.01.12.01 3.07.26 6.51.2 8.97-1.64-.1.03-.19 0-.26-.06l-.27-.27-.73.72c-.1.09-.26.09-.35 0-.1-.1-.1-.26 0-.36l.72-.72-1.27-1.27-.91.91 1.27 1.27c.1.09.1.25 0 .35s-.25.1-.35 0l-1.27-1.27-1.5 1.5.18.18c.1.1.1.26 0 .35-.09.1-.25.1-.35 0l-.18-.18-.23.23c-.1.1-.26.1-.36 0-.09-.1-.09-.26 0-.36l.23-.22-1.31-1.32-1.32 1.32.41.41c.16.15.05.42-.18.42-.15 0-.46-.36-.58-.48zm-2.76-.39c.1.09.1.25 0 .35-.19.2-.35 0-.54-.19l-.25.26c.93.21 1.84.33 2.67.41-.06-.1-.06-.21.02-.3l.5-.5-1.4-1.4-1.18 1.18zm-.14-19.63.77-.77c-.02-.08-.02-.16.05-.23.06-.06.15-.07.23-.05l3.92-3.93c.1-.09.26-.09.36 0 .1.1.1.26 0 .36l-3.89 3.89 1.14 1.14.91-.92-.86-.86c-.1-.1-.1-.26 0-.36.09-.09.25-.09.35 0l.87.87 3.8-3.81c.06-.05.13-.07.2-.06.01-.03.01-.05.03-.07.1-.1.25-.1.35 0l.14.13c-.02-.08-.01-.16.05-.22l.82-.82-.91-.91c-.1-.1-.1-.26 0-.36s.26-.1.36 0l.91.91.67-.67c-.48-1.52-1.54-2.87-2.97-3.67-4.18-2.38-9.65.29-10.16 5.11-.2 1.97.53 3.98 2.25 5.23 0 .01 0 .01.01.01.18.13.38.24.58.36-.06-.1-.06-.22.02-.3zm1.09-.38-.73.73c-.05.05-.11.07-.17.07.43.23 1.06.49 1.72.65l.32-.31zm-2.84 14.55c.13-3.5-.97-7.29-2.97-10.53-1.27-2.07-2.9-3.89-5-5.17-3.56 2.93-9.24 2.77-12.86.31-7.31 4.2-14.02 21.7-.57 25.43l.54-.54-.84-.84c-.1-.1-.1-.26 0-.36s.25-.1.35 0l.85.85 1.07-1.07 1.45-1.46c.1-.1.25-.1.35 0 .05.05.08.12.07.18.1-.05.21-.05.29.03l1.47 1.47 1.97-1.98-.27-.27c-.1-.1-.1-.26 0-.36.1-.09.25-.09.35 0l.28.28.33-.33c.1-.1.26-.1.36 0 .1.09.1.25 0 .35l-.34.33 1.18 1.18 2.2-2.2-.73-.73c-.1-.09-.1-.25 0-.35.09-.1.25-.1.35 0l.73.73 1.19-1.19c.1-.1.26-.1.36 0 .09.1.09.25 0 .35l-1.2 1.19 1.69 1.69 1.52-1.52-2.03-2.03c-.1-.1-.1-.26 0-.35.09-.1.25-.1.35 0l2.03 2.03 1.86-1.86-1.26-1.26c-.03.01-.05.04-.09.04-.06 0-.12-.03-.17-.08-.08-.07-.08-.17-.04-.26l-.19-.19c-.1-.1-.1-.26 0-.35.1-.1.26-.1.35 0l.17.16 1.74-1.74-.33-.34c-.1-.09-.1-.25 0-.35s.25-.1.35 0l.34.33.79-.79c.1-.1.26-.1.36 0 .09.09.09.25 0 .35l-.8.8 1.06 1.06.83-.82c.1-.1.25-.1.35 0 .05.05.08.11.08.18 0 .06-.03.12-.08.17l-.82.82.3.3c.1.1.1.26 0 .36s-.26.1-.35 0l-.3-.3-.62.61c-.1.1-.26.1-.35 0-.1-.09-.1-.25 0-.35l.61-.62-1.06-1.06-1.75 1.74 1.24 1.24.57-.58c.1-.1.26-.1.36 0s.1.26 0 .36l-.58.57.99.99c.1.1.1.26 0 .36s-.25.1-.35 0l-.99-.99-1.86 1.86 1.18 1.17 1.66-1.66c.1-.1.26-.1.36 0 .09.09.09.25 0 .35l-1.67 1.67.33.33c.1.1.1.25 0 .35s-.25.1-.35 0l-.33-.33-1.52 1.52.36.36c3.4-2.01 4.96-5.45 5.1-9.24zm.53 5.74.47-.47-.87-.87c-.1.25-.43.99-.48 1.08.29.1.59.18.88.26zm-30.36-8.33-.56.57.41.41c.03-.32.09-.65.15-.98zm-.69-13.19-.79.79.84.84c.34-.26.36-.22.84-.74zm-.17 20.18 1.45 1.45c.13-.04.27-.08.4-.13-.36-.68-.74-1.75-.88-2.29zm-.28-2.97-1.35 1.34 1.27 1.28 1.21-1.21c-.28-1.37-.32-2.48-.21-3.81l-.7-.7-1.3 1.31 1.17 1.17c.04 0 .09.01.12.05.04.03.05.08.06.12l.49.5c.1.1.1.26 0 .36-.09.09-.25.09-.35 0zm-1.05-16.42-.92-.93-.96.96.93.93zm-.41 1.83c.52-.16 1.03-.36 1.49-.64.02-.02.04-.04.07-.05l-.79-.78-.96.95c.18.18.36.32.19.52zm-.23.07c-.14-.03-.24-.16-.35-.28-.08.02-.14.03-.22-.05-.06-.06-.07-.14-.06-.22l-.97-.97-.57.58.47.47c.1.09.1.25 0 .35s-.25.1-.35 0l-.47-.47-.15.15c-.1.1-.26.1-.36 0-.09-.1-.09-.26 0-.36l.15-.15-.84-.84-.99.98.32.32c.09.09.09.25 0 .35 1.42.46 2.99.51 4.39.14zm-6.7 16.07 1.4 1.41 1.69-1.69-1.32-1.32c-.03-.03-.04-.08-.05-.11zm-1.99-22.45c-.2 1.99.54 4 2.25 5.23 0 0 .01 0 .01.01.26.19.55.36.84.51l.17-.18-1.16-1.16c-.1-.1-.1-.25 0-.35s.26-.1.36 0l1.16 1.16.98-.98-.15-.16c-.1-.09-.1-.25 0-.35s.26-.1.36 0l.15.15 2.07-2.07c.09-.1.25-.1.35 0s.1.26 0 .35l-2.07 2.08.85.84.57-.57-.58-.59c-.1-.1-.1-.26 0-.35.09-.1.25-.1.35 0l.58.58 1.01-1c0-.07.02-.13.07-.18s.12-.08.18-.08l.4-.39c.1-.1.25-.1.35 0s.1.26 0 .35l-.34.35.93.93.79-.8-.89-.88c-.09-.1-.09-.26 0-.36.1-.1.26-.1.36 0l.88.89.46-.45c.09-.1.25-.1.35 0s.1.25 0 .35l-.45.45.86.86c.38-.48.68-1.01.91-1.57.16-.4.28-.82.36-1.25-.09.04-.15.06-.26-.04l-1.13-1.14-.72.72c.09-.04.19-.04.26.04l1.4 1.39c.08.07.09.18.06.27-.02.03-.04.06-.06.08-.1.1-.26.1-.35 0l-1.4-1.39c-.07-.07-.07-.17-.04-.26l-.04.04c-.1.1-.26.1-.36 0-.09-.1-.09-.25 0-.35l.89-.89-.18-.18c-.09-.1-.09-.25 0-.35.1-.1.26-.1.36 0l.17.18.7-.7c.1-.1.26-.1.36 0 .09.1.09.26 0 .35l-.7.7 1.11 1.11c.25-2.44-1.1-4.86-3.23-6.06-4.21-2.4-9.65.31-10.16 5.11zm1.35 25.01-.96-.96-.51.52c2.92 1.35 8.58 1.74 11.69.92l-1.27-1.27-1.53 1.54c-.1.1-.26.1-.36 0-.09-.1-.09-.26 0-.36l1.54-1.53-1.27-1.27-1.23 1.23.71.71c.1.1.1.26 0 .36-.09.1-.25.1-.35 0l-.72-.72-1.32 1.32c-.1.1-.26.1-.35 0-.1-.09-.1-.25 0-.35l1.32-1.32-1.31-1.31-1.68 1.69.94.94c.1.1.1.26 0 .36s-.26.1-.35 0l-.95-.95-.68.69c-.1.1-.26.1-.36 0-.09-.1-.09-.26 0-.35l.69-.69-1.4-1.4-.89.89.95.95c.1.1.1.26 0 .36s-.26.1-.35 0zm-.96-1.66.9-.89-.15-.15c-.09-.09-.09-.25 0-.35.1-.1.26-.1.36 0l.14.14 2.73-2.73c.09-.09.25-.09.35 0 .1.1.1.26 0 .36l-.72.72c.04.01.08.01.11.04l1.32 1.32 1.23-1.23-.76-.76c-.1-.1-.1-.26 0-.36.1-.09.25-.09.35 0l.77.77.22-.22c.1-.1.26-.1.35 0 .1.1.1.25 0 .35l-.22.22 1.31 1.31 1.35-1.35-1.87-1.86c-.1-.1-.1-.26 0-.36s.26-.1.35 0l.43.43 1.31-1.3-.56-.56c-.1-.1-.1-.26 0-.35.1-.1.26-.1.36 0l.55.55.59-.59c.1-.09.26-.09.35 0 .03.03.03.06.04.09.08-.38.17-.76.27-1.14-.01 0-.02.01-.03.01-.07 0-.13-.02-.18-.07l-.62-.62-.4.4c-.1.09-.26.09-.35 0-.1-.1-.1-.26 0-.36l.39-.4-.14-.14c-.1-.09-.1-.25 0-.35s.26-.1.36 0l.14.14.97-.97c.1-.1.26-.1.35 0 .1.1.1.25 0 .35l-.97.98.6.59c.19-.67.43-1.37.71-2.09l-.71-.7-.01.01c-.1.1-.26.1-.35 0-.1-.1-.1-.25 0-.35l1.12-1.13c.1-.1.26-.1.36 0s.1.26 0 .35l-.76.76.55.55c.6-1.49 1.21-2.71 1.74-3.62-.9-1.22-1.86-2.09-2.96-2.78-2.79 2.23-7.1 1.97-9.72.22-1.14.67-2.2 1.6-3.12 2.94-1.46 2.11-3.01 5.81-3.01 8.74-.01 2.69 1.08 5.08 3.59 6.43l.64-.64-1-1c-.1-.1-.1-.26 0-.36.09-.1.25-.1.35 0zm57.34-4.75c.1-.79.11-1.61.02-2.45l-1.38-1.39-.05.05c-.1.1-.25.1-.35 0-.1-.09-.1-.25 0-.35l.05-.05-.59-.59c-.1-.1-.1-.26 0-.35.09-.1.25-.1.35 0l.59.59.46-.46c.09-.1.25-.1.35 0s.1.26 0 .35l-.46.46.92.92c-.35-2.09-1.27-4.35-2.4-6.01-.88-1.31-1.98-2.47-3.34-3.31-2.77 2.22-7.06 2-9.73.22-1.05.63-1.96 1.42-2.77 2.48 2.56 4.31 3.88 9.95 2.24 14.71.15.01.95.86 1.06.97l1.18-1.18-.36-.37c-.1-.09-.1-.25 0-.35.09-.1.25-.1.35 0l.36.37 1.62-1.62c.09-.09.25-.09.35 0 .1.1.1.26 0 .36l-.12.12-1.49 1.49 1.4 1.4 1.32-1.31-1.18-1.18c-.09-.1-.09-.25 0-.35.1-.1.26-.1.36 0l1.18 1.17 1.49-1.49-.68-.68c-.1-.1-.1-.26 0-.36.1-.09.26-.09.36 0l.68.68.82-.82c.1-.1.26-.1.35 0 .1.1.1.25 0 .35l-.82.83 1.31 1.31.91-.91-1.17-1.17c-.1-.1-.1-.26 0-.36.1-.09.25-.09.35 0l1.18 1.18 1.45-1.45-1.09-1.09c-.09-.1-.09-.25 0-.35.1-.1.26-.1.36 0l1.15 1.15c.06.01.11.02.16.07.04.04.05.09.06.15l1.38 1.38c.07-.01.15 0 .21.06.07.07.07.16.05.24.09.19-.04.35-.21.35-.02 0-.04-.01-.06-.02l-1.48 1.49.28.28c.09.09.09.24 0 .34 1.74-1.35 2.75-3.37 3.02-5.49zm-1.66-9.84c1.82 2.66 3.1 6.56 2.65 9.97-.31 2.51-1.58 4.85-3.58 6.31-4.07 2.93-11.69 1.85-14.62.77-3.27 5.4-9.2 6.07-15.51 5.54-4.6-.38-9.43-1.4-11.98-5.31-2.44.98-5.1.98-7.71.77-6.08-.51-10.53-2.76-10.51-8.9 0-3.2 1.65-7.09 3.19-9.31 1.05-1.52 2.06-2.34 3.12-3.02-1.68-1.51-2.32-3.63-2.11-5.69.59-5.6 6.89-8.57 11.65-5.87 3.95 2.23 5.18 7.63 1.75 11.28.02.01.03.02.05.03 1.01.67 1.92 1.54 2.72 2.57 1.41-2.16 2.77-3.39 4.53-4.47-2.32-1.99-3.18-4.82-2.91-7.53.76-7.2 8.9-11.22 15.18-7.66 5.22 2.95 6.77 10.11 2.15 14.83 1.91 1.2 3.46 2.86 4.71 4.75.78-.95 1.4-1.52 2.52-2.24-1.68-1.51-2.32-3.64-2.11-5.69.58-5.56 6.85-8.59 11.65-5.87 3.95 2.23 5.17 7.63 1.76 11.28 1.36.89 2.5 2.1 3.41 3.46z"/></g></g></svg>