<svg id="Layer_1" enable-background="new 0 0 66 66" height="512" viewBox="0 0 66 66" width="512" xmlns="http://www.w3.org/2000/svg"><g><g id="XMLID_1_"><path d="m59.74 48.27.71.72.7-.7-1.1-1.1c-.09-.1-.09-.26 0-.36.1-.09.26-.09.36 0l1.1 1.1.19-.19c.1-.1.26-.1.36 0 .09.1.09.25 0 .35l-.2.2.96.95c.04.05.07.11.07.17v.01c0 .07-.03.13-.07.18-.1.09-.26.09-.36 0l-.95-.95-.7.69.88.89c.1.1.1.25 0 .35s-.26.1-.35 0l-.89-.88-.04.04c-.1.1-.26.1-.36 0-.1-.09-.1-.25 0-.35l.05-.05-.72-.71c-.09-.1-.09-.26 0-.36.1-.09.26-.09.36 0z"/><path d="m39.23 36.64c-.23-.16-.28-.47-.13-.7.16-.22.47-.28.7-.12l7.14 4.95c.28.2.28.61.01.82-2.57 1.9-4.87 3.91-7.48 5.85-.23.17-.54.12-.71-.1-.16-.23-.11-.54.11-.7 2.39-1.77 4.54-3.63 6.93-5.44z"/><path d="m55.12 12.98.41-.42c-.27-.02-.54-.03-.81-.03l-.02.02zm.88-.18-.52.53.25.25.53-.52zm-2.93.67.92-.92-.01-.01-1.14.02c.02.09.02.18-.05.25l-.19.19zm-.82-.83.07-.06h-.13zm-2.39.21.22-.22-.43.01zm-2.44.04.21-.21-.41.01zm-2.32.27.43-.43-.85.01zm-1.96-.45c-.13-.01-.29-.02-.44-.02l-.17.16.42.41.54-.53c-.12-.01-.23-.02-.35-.02zm-3.25-.02 1.01 1.01c.03.04.04.08.05.13 0-.06.03-.12.07-.17l.81-.81-.21-.2c-.6-.01-1.04-.02-1.73.04zm-1.34.59.46-.47c-.26.05-.51.12-.72.21zm.07.78-.79-.79c-.26.19-.43.43-.46.75-.01.14.01.29.04.43l.42.41zm.36.36-.8.8.23.23c.06.07.07.16.04.24.59.33 1.27.48 1.94.57 2.14.3 15.04.67 16.47.13 1.78-.68 1.95-2.54.2-3.44l-.1.1.61.61c.09.09.09.25 0 .35-.1.1-.26.1-.36 0l-.6-.6-.53.52.01.01c.24.24-.12.59-.35.36l-.62-.62-.38.39c-.1.09-.26.09-.36 0-.09-.1-.09-.26 0-.36l.39-.38-.43-.43-1.1 1.11c-.1.1-.26.1-.36 0-.01-.02-.01-.04-.02-.05l-.61-.61-.69.69c-.09.1-.25.09-.35 0-.1-.1-.1-.26 0-.36l.69-.69-.4-.4-.7.02-.59.59.2.2c.1.1.1.26 0 .35-.09.1-.25.1-.35 0l-.2-.2-.26.26c-.1.09-.26.09-.35 0-.1-.1-.1-.26 0-.36l.25-.25-.55-.55-.6.01-.58.58.26.26c.1.1.1.26 0 .35-.1.1-.25.1-.35 0l-.26-.26-.27.27c-.1.1-.26.1-.36 0-.09-.09-.09-.25 0-.35l.27-.27-.53-.54-.27.01-.81.8.25.26c.1.09.1.25 0 .35s-.25.1-.35 0l-.25-.25c-.14.13-.29.12-.38.02-.1-.09-.1-.25 0-.35l.02-.03-.67-.67-.77.78.01.01c.1.1.1.26 0 .35-.1.1-.25.1-.35 0l-.06-.05c-.01 0-.02.01-.03.01-.06 0-.13-.03-.17-.07-.06-.06-.07-.14-.07-.21l-.45-.45-.8.8c-.05.05-.12.07-.18.07-.07 0-.13-.02-.18-.07-.03-.03-.04-.08-.05-.13 0 .07-.02.13-.07.17-.1.1-.26.1-.36 0l-1.03-1.03-.61.61.08.08c.1-.1.26-.1.36 0 .09.1.09.25 0 .35l-.01.01.07.07c.1.09.1.25 0 .35s-.26.1-.35 0zm1.27 2.83c-3.04-.43-3.98-1.99-3.87-3.31.21-2.59 4.34-2.36 6.81-2.23 1.21.06-.11.07 10.78-.17 1.04-.02 2.22-.05 3.29.4 2.69 1.11 2.74 4.32-.04 5.38-1.77.68-14.92.22-16.97-.07z"/><path d="m31.29 12.71.31-.3-.1-.1c-.02-.02-.02-.05-.03-.08-.11-.02-.2-.06-.31-.07-.13-.02-.25-.03-.37-.03-.03 0-.05.01-.07.01zm-1.93.29.76-.76-.02-.01c-.37.09-.71.26-1.01.5zm-.41.76c-.1-.1-.11-.24.06-.41l-.28-.28c-.19.24-.32.61-.37 1.04l1.11 1.11.59-.59c.04-.04.09-.06.15-.07l-.85-.85c-.17.16-.3.16-.41.05zm.52 2.16-.58.58c.1.12.2.22.32.28.26.13.62.11.96.07 3.2-.3 3.68-1.97 2.99-3.32-.05-.11-.13-.2-.2-.3-.01.05-.02.09-.06.13-.05.05-.11.07-.17.07-.07 0-.13-.02-.18-.07l-.6-.6-.3.3.23.24c.1.1.1.26 0 .36-.1.09-.25.09-.35 0l-.24-.24-.04.04c-.1.1-.26.1-.35 0-.1-.1-.1-.26 0-.35l.04-.05-.47-.46-.76.75.86.85c.09.1.09.26 0 .36-.05.04-.11.06-.16.07.1.1.1.25 0 .35l-.59.59.18.18c.1.1.1.26 0 .35-.1.1-.25.1-.35 0zm-1.13-1.13c.01.18.02.36.05.55.05.27.14.51.23.73l.5-.5zm5.71-1.71c1.94 3.79-3.51 5.5-5.3 4.59-.66-.34-1.15-1.12-1.34-2.15-.6-3.21 1.81-4.64 3.88-4.35 1.21.15 2.22.85 2.76 1.91z"/><path d="m34.99 35.06c.14-.24.45-.32.69-.18.24.15.31.45.17.69l-8.33 14.05c-.09.15-.26.24-.43.24-.09 0-.17-.02-.25-.07-.24-.14-.32-.45-.18-.69z"/><path d="m19.55 16.24.33.32c.08.09.08.22.01.31.5.04 1.72-.11 2.45-.43 1.33-.58 1.7-1.77 1.12-2.91-.47-.91-1.47-1.51-2.7-1.37l.49.5c.22-.22.42-.5.63-.28.1.1.1.25 0 .35l-.27.28.49.49c.09.1.09.26 0 .36-.1.09-.26.09-.36 0l-.49-.5c-.11.11-.26.1-.36.01-.09-.1-.09-.26 0-.35l.01-.01-.36-.35-.44.44 1.12 1.12c.1.1.1.26 0 .36-.05.04-.11.07-.17.07 0 .06-.02.12-.07.16l-.63.63c0 .07-.02.14-.07.19s-.11.07-.18.07c0 0 0 0-.01 0zm1.16-1.82-.97-.97-.6.61c-.02.02-.04.01-.05.02l.96.96.58-.58c.02-.02.05-.02.08-.04zm-.97-1.67.45-.45h-.01c-.21.07-.41.16-.6.28zm-1.43-.4c1.69-1.88 4.88-1.54 6.04.73.83 1.62.27 3.45-1.61 4.28-.88.38-2.8.76-3.69.31-.66-.34-1.15-1.12-1.35-2.15-.19-1.03-.07-2.41.61-3.17zm.75.67c-.15.17-.25.43-.33.73.01.01.02.01.03.02.01-.02.01-.04.02-.06l.61-.61-.2-.2c-.04.04-.09.08-.13.12zm-.36 2.37.5.5.49-.49-1.05-1.05c-.02.32-.01.65.05.99 0 .01.01.03.01.05z"/><path d="m18.34 41.75c2 .98 3.81 2.35 5.3 4 .18.21.17.52-.04.71-.2.18-.52.17-.7-.04-1.58-1.75-3.55-3.17-5.71-4.11-.16-.07-.28-.22-.3-.39-.02-.18.05-.35.19-.46l6.92-5.36c.22-.17.53-.13.7.09s.13.53-.09.7z"/><path d="m11.24 12.14.67.67.41-.41c-.44-.2-.73-.25-1.08-.26zm-1.49.87.82-.82c-.41.09-.79.27-1.11.53zm-.33 2.77-.7-.7c.01.09.01.17.03.26.06.31.16.59.28.83zm2.14-2.61-.63-.63-.82.83 1.11 1.11c.1.1.1.26 0 .35-.1.1-.26.1-.36 0l-1.11-1.11-.22.22c-.1.1-.26.1-.35 0-.1-.1-.1-.25 0-.35l.22-.22-.31-.31c-.22.28-.36.76-.39 1.29l1.07 1.07.34-.34c.1-.1.26-.1.36 0s.1.26 0 .35l-.35.35.39.38c.24.24-.12.59-.35.36l-.39-.39-.46.46c.08.08.16.14.25.19 1 .51 5.38-.47 3.96-3.25-.18-.35-.44-.64-.75-.87l-.51.5.29.29c.1.1.1.26 0 .36-.1.09-.26.09-.35 0l-.29-.29-.17.17c-.1.1-.25.1-.35 0s-.1-.26 0-.36zm-2.45 4.5c-.66-.34-1.15-1.12-1.35-2.15-.19-1.03-.07-2.41.61-3.17 1.69-1.88 4.88-1.55 6.04.73 1.97 3.85-3.64 5.44-5.3 4.59z"/><path d="m32 59.31-.57.56 1.11-.02zm-2.68-.11-.7.7 1.39-.02zm-2.26-.09-.81.82 1.61-.02zm35.73-23.35.47.48.03-.98zm.4 3.04.01-.32-.17.17zm.24-8.7-.23.24c-.02.01-.05.01-.07.02l.29.29zm-.05 2.01-.65.64.61.61zm-.65 13.3.26.26.02-.54zm-.67 8.86-1.7 1.71 1.17 1.16c.5-.7.81-1.51.99-2.41zm-3.46 3.46.83.82c.06.06.07.14.06.22.65-.3 1.24-.68 1.73-1.22l-1.22-1.22zm1.45-5.29-1.61 1.61 1.57 1.57 1.7-1.7-.48-.48-.71.7c-.1.1-.26.1-.35 0-.1-.1-.1-.26 0-.35l.7-.71-.77-.77c-.01.04-.02.09-.05.13zm-3.37 3.36 1.57 1.57 1.4-1.4-1.57-1.57zm-1.25-1.25.9.9 1.4-1.4-.9-.89zm-1.79 1.78.9.9 1.43-1.43-.9-.9zm-3.67.39 1.29 1.29 1.68-1.68-1.29-1.29zm.36 2.93 3.68-.04c1.79-.02 3.6-.12 5.11-.69-.01 0-.03 0-.04-.01l-2.75-2.75-1.43 1.43 1.31 1.31c.1.1.1.25 0 .35s-.26.1-.35 0l-1.31-1.3-.77.76c-.1.1-.26.1-.36 0-.1-.09-.1-.25 0-.35l.77-.77-.9-.9-1.68 1.68.7.7c.1.1.1.26 0 .35-.1.1-.26.1-.35 0l-.7-.69zm13.61-47.61c.12-4.33-.9-5.64-5.59-5.73-15.8-.3-31.84-.42-47.64-.37-6.06.02-6.97 1.87-7.09 6.21-.05 1.93-.21 5.49-.41 9.81l60.46-.25zm-16.36 47.08-.58.57 2.61-.03 1.29-1.29-1.29-1.29-1.68 1.68.35.35c.1.1.1.26 0 .36-.09.09-.25.09-.35 0zm-3.11-.59.95.95c.06.07.07.15.06.23l.97-.02c-.01-.08 0-.16.06-.22l.71-.71-1.48-1.49zm-.35.36-.84.84 1.66-.02zm-2.54-.36.88.89c.09.09.09.22.01.32h.32c-.03-.09-.03-.19.04-.27l.94-.94-.94-.93c-.08-.08-.08-.2-.03-.29zm-.36.36-.87.87 1.73-.02zm-2.72.9-.87-.87-.89.89zm-3.31.03-.77-.76-.79.78zm18.84.79-39.98.46c-4.81.05-10.23-.33-12.36-4.83-1.68-3.55.41-24.6.93-44.11.14-4.93 1.53-7.17 8.08-7.19 15.81-.05 31.84.07 47.67.37 5.28.1 6.71 1.89 6.57 6.75l-1.11 39.33c-.18 6.65-2.07 9.13-9.8 9.22zm-18.01-.8 1.25-1.25-.63-.63c-.1-.1-.1-.25 0-.35s.26-.1.36 0l.63.63 2.05-2.05c.09-.1.25-.1.35 0s.1.26 0 .35l-2.05 2.05.97.97c.06.07.07.16.04.25l.84-.01c-.03-.08-.02-.17.04-.24l1-1-.72-.71c-.1-.1-.1-.26 0-.35.1-.1.26-.1.36 0l.71.71 2.5-2.5c.1-.1.26-.1.36 0 .09.1.09.26 0 .35l-1.18 1.19c.09-.05.2-.06.28.02l.94.94 3.9-3.9c.09-.09.25-.09.35 0 .1.1.1.26 0 .36l-2.28 2.28 1.49 1.48 1.68-1.68-.58-.57c-.1-.1-.1-.26 0-.36.1-.09.26-.09.36 0l.57.58 3.07-3.06c.09-.1.25-.1.35 0 .1.09.1.25 0 .35l-1.03 1.03 1.29 1.29 1.43-1.43-.8-.8c-.1-.1-.1-.26 0-.35.1-.1.26-.1.36 0l.8.79 1.39-1.39-.21-.22c-.1-.09-.1-.25 0-.35s.26-.1.35 0l.22.21 1.33-1.33c.1-.1.26-.1.36 0 .09.09.09.25 0 .35l-1.34 1.34.9.9 1.62-1.62c.03-.03.08-.04.12-.05l-1.21-1.21c-.1-.1-.1-.26 0-.35.1-.1.26-.1.36 0l2.26 2.26 1.05-1.06c.1-.09.25-.09.35 0 .1.1.1.26 0 .36l-1.05 1.05 1.05 1.05c.13-.88.18-1.81.2-2.76l.06-1.95v-.01l.08-3.08c-.01-.01-.04-.01-.05-.02l-.54-.54-1.25 1.24c-.09.1-.25.1-.35 0s-.1-.26 0-.35l1.24-1.25-1.38-1.38c-.09-.09-.09-.25 0-.35.1-.1.26-.1.36 0l1.38 1.38.65-.65.06-2.05-.3-.3-1.27 1.27c-.1.1-.25.1-.35 0s-.1-.26 0-.35l1.27-1.27-.94-.94c-.1-.1-.1-.26 0-.35.1-.1.26-.1.35 0l.94.93.29-.28c.01-.01.03-.01.04-.02l.05-1.76c-.02.01-.04.03-.07.03-.07 0-.13-.02-.18-.07l-.25-.25-.92.93c-.1.09-.26.1-.36 0s-.1-.26 0-.36l.93-.92-.61-.61c-.09-.1-.09-.25 0-.35.1-.1.26-.1.36 0l.6.6.46-.45c.02-.02.05-.02.09-.03l.02-.9c-.01 0-.01 0-.02 0l-.79-.79-.63.63c-.1.1-.25.1-.35 0s-.1-.25 0-.35l.63-.63-.07-.08c-.1-.1-.1-.25 0-.35.09-.1.25-.1.35 0l.07.07.88-.87.01-.49-.96-.96c-.1.07-.2.08-.3-.02s-.1-.25 0-.35l.98-.98c.09-.1.25-.09.35 0l.01-.4-.78-.78c-.1-.1-.1-.25 0-.35.04-.05.1-.06.16-.07 0-.06.02-.11.06-.16l.61-.61.19-6.66-60.47.25c-1.47 31.37-1.42 31.06-.57 32.85 1.94 4.12 7.12 4.31 11.43 4.25l5.69-.06.02-.02-.22-.21c-.09-.1-.09-.26 0-.35.1-.1.26-.1.36 0l.21.21 1.97-1.97c.09-.09.25-.09.35 0 .1.1.1.26 0 .36l-1.97 1.96.01.01 1.81-.02.04-.04-.38-.38c-.1-.1-.1-.26 0-.36s.26-.1.35 0l.39.38 1.72-1.73c.1-.09.26-.09.36 0 .1.1.1.26 0 .36l-1.73 1.73.01.01s0 .02.01.02l2.24-.02-.84-.84c-.1-.1-.1-.25 0-.35s.25-.1.35 0l.97.96 1.01-1c-.01-.07.02-.14.07-.19s.11-.07.18-.07l.55-.55c.1-.1.26-.1.36 0s.1.25 0 .35l-.51.51.82.81 2.22-2.22c.1-.09.26-.09.35 0 .1.1.1.26 0 .36l-1.13 1.13.94.94c.03.03.03.06.04.1l.11-.01c.01-.02.01-.04.03-.06l.85-.86-.02-.02c-.1-.09-.1-.25 0-.35s.26-.1.36 0l.01.02.85-.85c.1-.1.26-.1.36 0s.1.26 0 .35l-.85.85.73.74.99-.99-.27-.27c-.1-.1-.1-.25 0-.35s.25-.1.35 0l.27.27 1.23-1.23c.1-.1.26-.1.35 0 .1.1.1.26 0 .35l-1.23 1.23 1.03 1.02c.02.03.02.06.03.1z"/></g></g></svg>