<svg id="Layer_1" enable-background="new 0 0 66 66" height="512" viewBox="0 0 66 66" width="512" xmlns="http://www.w3.org/2000/svg"><g><path d="m52.703 16.418-39.763.556c-4.815.069-6.725 1.261-6.607 5.678.222 8.159-.156 16.219-.495 25.082-.25 6.78 2.601 8.753 10.28 8.593l38.017-.847c4.204-.094 5.949-1.184 5.962-5.805l.079-26.792c.013-4.626-1.398-6.529-7.473-6.465zm-9.63 1.135-.045.045-.043-.044zm-7.829.109-.074.074-.072-.072zm-2.081.029-.104.104-.101-.101zm-2.723.038-.009.009-.008-.008zm-8.66.682c-.006-.008-.003-.019-.011-.026l-.527-.527 1.105-.015zm-5.502.765-.429-.429.571-.571c.069-.069.072-.164.042-.251l.873-.012.103.104zm-.783-.783-.449-.449.91-.013zm-2.541-.419.279-.004-1.022 1.022-.933-.933c.542-.053 1.107-.077 1.676-.085zm-3.283.388-.593.593-.252-.253c.255-.14.543-.248.845-.34zm-1.266.626.32.32-1.261 1.262c.177-.807.453-1.197.941-1.582zm-.672 9.479-.343.344c.001-.227.008-.451.008-.679zm-.805 22.166.6.6-.377.377c-.098-.315-.173-.64-.223-.977zm-.077-3.207.045-1.193.482-.482.817.818c.031.031.072.035.111.046l-1.133 1.133zm.073-1.928.007-.194.093.093zm.226-6.013.227.227-.244.244c.005-.157.011-.313.017-.471zm.176-5.856.475.475-.504.504c.009-.328.022-.651.029-.979zm.043-3.14.719.719-.738.737c.009-.484.013-.97.019-1.456zm-.006-5.374.518.518-.506.506c-.002-.341-.007-.683-.012-1.024zm-.03-2.491c-.005-.182-.003-.353-.004-.528l.647.646-.633.633c-.007-.25-.003-.499-.01-.751zm51.763 27.048c-.013 3.925-1.187 4.723-4.983 4.808l-38.017.847c-3.367.083-7.411-.095-8.758-3.197l.543-.543.103.103c.097.097.255.098.353 0s.098-.256 0-.354l-.103-.103.896-.896c.098-.098.098-.256 0-.354s-.256-.098-.354 0l-.895.897-1.036-1.036c-.022-.338-.03-.683-.029-1.034l.356-.356.739.739c.097.097.255.098.353 0s.098-.256 0-.354l-.739-.739 1.187-1.187c.098-.098.098-.256 0-.354-.038-.038-.088-.048-.137-.057.05-.094.053-.209-.027-.289l-.817-.818 1.852-1.852c.098-.098.098-.256 0-.354s-.256-.098-.354 0l-1.851 1.852-.421-.421c.036-.945.053-1.413.053-1.413l.293-.293.755.755c.097.097.255.098.353 0s.098-.256 0-.354l-.755-.755 1.869-1.869c.098-.098.098-.256 0-.354s-.256-.098-.353 0l-1.869 1.873-.246-.246c.016-.424.032-.848.048-1.273l.625-.625.543.543c.097.097.255.098.354 0 .098-.098.098-.256 0-.354l-.543-.543 1.191-1.191c.098-.098.098-.256 0-.353-.098-.098-.256-.098-.353 0l-1.192 1.191-.555-.555c.014-.398.022-.803.035-1.202l.287-.287.717.717c.097.097.255.098.353 0s.098-.256 0-.354l-.717-.717 1.563-1.561c.098-.098.098-.256 0-.354s-.256-.098-.354 0l-1.562 1.562-.251-.251c.01-.34.02-.68.03-1.021l.885-.885c.119.097.246.076.331-.009.092-.092.089-.233.009-.331l.653-.653c.098-.098.098-.256 0-.354s-.256-.098-.354 0l-.645.646-.817-.816c.002-.091.002-.183.003-.274l1.099-1.099.245.245c.097.097.255.098.353 0s.098-.256 0-.354l-.245-.245 1.156-1.156c.098-.098.098-.256 0-.354-.097-.097-.255-.099-.354 0l-1.156 1.156-.793-.793c-.076-.076-.182-.075-.274-.033.002-.168.005-.335.006-.502l.706-.706.545.545c.099.099.257.096.353 0 .098-.098.098-.256 0-.354l-.542-.543 1.539-1.539c.098-.098.098-.256 0-.354s-.256-.098-.353 0l-1.539 1.539-.695-.696c0-.193-.006-.388-.007-.581l.851-.851.686.686c.099.099.257.097.354 0 .098-.098.098-.256 0-.354l-.686-.686 1.56-1.56c.098-.098.098-.256 0-.354s-.256-.098-.354 0l-1.56 1.56-.88-.881c-.002-.108-.002-.216-.004-.324l.978-.979.76.76c.097.097.255.098.354 0 .098-.098.098-.256 0-.354l-.76-.76 1.293-1.294c.098-.098.098-.256 0-.354s-.256-.098-.354 0l-1.294 1.299-.98-.98c.007-.114.013-.227.025-.337.042.028.086.056.135.056.064 0 .128-.024.177-.073l1.393-1.394 1.931 1.931c.097.097.255.098.354 0 .098-.098.098-.256 0-.354l-1.931-1.931.737-.737c.095-.095.094-.245.004-.343.156-.034.312-.067.475-.092l1.209 1.209-.573.573c-.098.098-.098.256 0 .354.097.097.255.098.353 0l.574-.574.693.693c.096.096.255.099.354 0 .098-.098.098-.256 0-.354l-.693-.693 1.386-1.386.399-.006.793.792-1.172 1.172c-.098.098-.098.256 0 .354.097.097.255.098.354 0l1.172-1.172.433.433c.104.104.174.074.265.036.108.147.272.125.366.031l1.231-1.231.566.566c.099.099.257.097.354 0 .098-.098.098-.256 0-.353l-.566-.566.116-.116 1.666-.023-1.446 1.446c-.098.098-.098.256 0 .354.097.097.255.098.354 0l1.594-1.594c.059-.059.07-.137.058-.214l.059-.001.87.871c.007.007.018.004.026.01l-.536.536c-.098.098-.098.256 0 .354.097.097.255.098.354 0l1.557-1.557.539.538c.096.096.254.099.353 0 .098-.098.098-.256 0-.354l-.441-.434 1.556-.022.307.307-.499.499c-.098.098-.098.256 0 .354.097.097.255.098.354 0l.499-.499.152.152c.097.097.255.098.354 0 .098-.098.098-.256 0-.354l-.152-.152.326-.326 1.308-.018.232.232-.909.909c-.098.098-.098.256 0 .354.097.097.255.098.353 0l.909-.909.264.264c.097.097.255.098.354 0 .098-.098.098-.256 0-.354l-.264-.264.249-.249 1.065-.015.352.352-.71.709c-.098.098-.098.256 0 .354.097.097.255.098.354 0l.708-.708.407.407c.097.097.255.098.354 0 .098-.098.098-.256 0-.354l-.407-.407.32-.32c.014-.014.011-.035.022-.052l1.134-.016.445.445-.427.427c-.098.098-.098.256 0 .353.096.096.255.099.354 0l.427-.427.088.088c.099.099.257.096.354 0 .098-.098.098-.256 0-.354l-.088-.088.468-.468.521-.007.416.416-.673.673c-.098.098-.098.256 0 .354.097.097.255.098.354 0l.673-.673.41.41c.097.097.255.098.354 0 .098-.098.098-.256 0-.353l-.41-.41.437-.437 1.313-.018.323.323-.62.62c-.098.098-.098.256 0 .353.097.097.255.098.354 0l.62-.62.371.372c.097.097.255.098.354 0 .098-.098.098-.256 0-.354l-.372-.372.342-.342 1.388-.019.118.118-.639.639c-.098.098-.098.256 0 .354.097.097.255.098.354 0l.639-.639.216.216c.099.099.257.096.354 0 .098-.098.098-.256 0-.354l-.216-.216.132-.132 1.296-.018.387.387-.327.326c-.098.098-.098.256 0 .354.099.099.257.097.354 0l.327-.326.316.316c.097.097.255.098.354 0 .098-.098.098-.256 0-.354l-.316-.316.384-.383c.007-.007.004-.017.01-.024l.961-.014-.413.413c-.098.098-.098.256 0 .354.096.096.255.099.354 0l.427-.427.637.637c.097.097.255.098.354 0 .098-.098.098-.256 0-.354l-.633-.633 7.254-.101c5.608-.061 6.471 1.515 6.459 5.462z"/><path d="m64.861 13.453c0-.003 0-.006 0-.01-.155-5.993-2.879-7.565-8.686-7.468l-46.766.758c-6.578.106-7.801 2.537-7.684 7.55.262 11.145-.185 22.166-.582 34.211-.268 8.488 2.368 11.766 12.002 11.523l44.712-1.154c4.937-.127 6.908-1.585 6.924-7.731l.061-23.559c.008-.037.009-.067 0-.103l.033-12.864c.001-.389-.004-.773-.014-1.153zm-1.027 16.978-.431.431-.89-.89.814-.813.509.509zm-.002.708-.001.151-.075-.075zm-.007 2.929-.243-.243.244-.244zm.013-5.106-.157-.157.158-.158zm-.063-15.459-.799-.799.779-.779c.074.613.107 1.253.116 1.912l-.925.925-1.014-1.014.69-.691.799.799c.097.097.255.098.354 0 .098-.097.098-.255 0-.353zm.099 1.038v.062l-.003 1.103c-.007-.009-.004-.022-.013-.031l-.56-.56zm-.007 3.068-.064-.064.064-.064zm-.007 2.654-.07-.07.07-.07zm-.002.705-.004 1.537-.002.002-1.188-1.188.772-.773zm-.005 2.246-.003 1.215-.606-.606zm-.009 3.298-.352-.352.354-.354zm-.284-15.681-.747-.747.355-.355c.163.346.295.712.392 1.102zm-3.991-3.569c.019-.019.017-.047.029-.07.591.117 1.154.293 1.663.555l-1.048 1.048-1.089-1.088zm-.798.091-.317-.317c.192.017.383.035.572.061zm-2.581-.378c.496-.009 1.003-.006 1.509.013l.719.719-1.182 1.182-1.536-1.536.24-.24c.037-.037.047-.086.056-.135zm-2.297 1.618-.96-.96.615-.615 1.092-.018.352.352-1.037 1.038c-.056.056-.071.13-.062.203zm-1.314-1.313-.242-.242.492-.008zm2.757-.291h.021l-.01.01zm-5.236.084-.359.359-.348-.348zm-2.981.049-.167.167-.162-.162zm-3.033.049-.15.15-.145-.145zm-3.184.052-.172.171-.166-.166zm-5.824.902-.795-.795 1.615-.026zm3.5-.865-.543.543-.526-.526zm-7.53.122-.024.024-.023-.023zm26.784 50.481-44.712 1.154c-9.449.255-11.213-3.023-10.977-10.491.405-12.283.843-23.171.582-34.266-.105-4.429.677-6.431 6.7-6.527l20.88-.338.365.365-.443.444c-.098.098-.098.256 0 .353.096.097.255.099.354 0l.443-.444.906.907c.097.097.255.098.354 0 .098-.098.098-.256 0-.354l-.907-.906.389-.389 1.707-.028-.986.986c-.098.098-.098.256 0 .354.097.097.255.098.354 0l1.044-1.044 1.183 1.183c.097.097.255.098.354 0 .094-.094.092-.241.006-.339l1.19-1.19.195-.003.868.868-.063.062c-.098.098-.098.256 0 .354.097.097.255.098.354 0l.063-.063.741.741c.097.097.255.098.354 0 .098-.098.098-.256 0-.354l-.741-.741.908-.908.573-.009.508.508-.587.587c-.098.098-.098.256 0 .354.097.097.255.098.353 0l.587-.587.929.928c.097.097.255.098.354 0 .098-.098.098-.256 0-.353l-.929-.929.537-.537 1.474-.024.488.487-.587.587c-.098.098-.098.256 0 .353.097.097.255.098.354 0l.587-.587 1.344 1.343c.097.097.255.098.354 0 .098-.098.098-.256 0-.353l-1.344-1.344.515-.515 1.29-.021.504.504-.071.071c-.098.098-.098.256 0 .353.096.096.255.099.354 0l.071-.071 1.22 1.22c.097.097.255.098.354 0 .098-.098.098-.256 0-.354l-1.22-1.22.532-.532.86-.014.69.69-.219.219c-.098.098-.098.256 0 .354.097.097.255.098.354 0l.219-.219 1.043 1.042c.097.097.255.098.354 0 .098-.098.098-.256 0-.353l-1.043-1.042.724-.724.822-.013.584.585-.794.794c-.098.098-.098.256 0 .354.097.097.255.098.354 0l.794-.794 1.398 1.398c.097.097.255.098.354 0 .098-.098.098-.256 0-.354l-.226-.226c.01.001.017.011.027.011.064 0 .128-.024.177-.073l1.038-1.038 1.536 1.536-.587.582c-.098.098-.098.256 0 .353.097.097.256.098.353 0l.582-.582.648.648c.097.097.255.098.353 0s.098-.256 0-.354l-.648-.648 1.182-1.182 1.089 1.089-1.282 1.282c-.098.098-.098.256 0 .354.097.097.255.098.354 0l1.282-1.282.747.747c.097.097.255.098.354 0 .098-.098.098-.256 0-.354l-.747-.747 1.13-1.13c.664.441.928.773 1.224 1.25l-.462.463-.62-.62c-.098-.098-.256-.098-.354 0s-.098.256 0 .354l.62.62-2.326 2.326c-.098.098-.098.256 0 .354.097.097.255.098.354 0l2.326-2.326.788.788c.097.097.255.098.354 0 .02-.02.018-.048.029-.071.011.052.024.102.034.155l-1.041 1.041-.783-.783c-.098-.098-.256-.098-.354 0s-.098.256 0 .354l.783.783-.69.691-.066-.066c-.098-.098-.256-.098-.354 0s-.098.256 0 .353l.066.066-.323.323c-.098.098-.098.256 0 .354.097.097.255.098.354 0l.323-.323 1.014 1.014-.842.842c-.098.098-.098.256 0 .353.097.097.255.098.354 0l.842-.842.56.56c.097.097.255.098.354 0 .008-.008.005-.02.012-.029l-.002.773-.419.419-.71-.71c-.098-.098-.256-.098-.353 0-.098.098-.098.256 0 .354l.71.71-.807.807c-.098.098-.098.256 0 .354.097.097.255.098.354 0l.807-.807.415.415-.003 1.1-.425.425-.778-.779c-.097-.098-.255-.098-.354 0-.098.098-.098.256 0 .354l.778.779-.867.867c-.041.011-.084.016-.117.048-.098.098-.098.256 0 .354l1.398 1.398-.608.608-.231-.231c-.097-.097-.255-.099-.354 0-.098.098-.098.256 0 .354l.256.256c-.039.091-.039.195.035.269.108.108.18.073.269.035l.887.888c.026.026.063.027.095.04v.018l-.709.71-.603-.603c-.098-.098-.256-.098-.354 0s-.098.256 0 .354l.603.603-.461.462c-.098.098-.098.256 0 .354.096.096.255.099.353 0l.461-.462.704.704-.002.722-.513.513-.955-.955c-.098-.098-.256-.098-.354 0s-.098.256 0 .354l.955.955-1.207 1.207c-.098.098-.098.256 0 .354.099.099.257.096.354 0l.04-.04.89.89-1.291 1.291c-.098.098-.098.256 0 .354.097.097.255.098.353 0l1.291-1.291.427.427-.002.877-.599.6-.365-.365c-.098-.098-.256-.098-.354 0s-.098.256 0 .353l.366.366-.385.385c-.098.098-.098.256 0 .354.096.096.255.099.354 0l.385-.385.594.594-.003 1.339-.306.306-.651-.651c-.098-.098-.256-.098-.354 0s-.098.256 0 .354l.651.651-.396.396c-.098.098-.098.256 0 .354.097.097.255.098.354 0l.396-.396.302.302-.004 1.576-.33.331-.66-.66c-.098-.098-.256-.098-.354 0s-.098.256 0 .354l.66.66-.41.41c-.098.098-.098.256 0 .354.097.097.255.098.354 0l.41-.41.327.327-.028 10.761c-.018 5.614-1.605 6.612-5.951 6.724z"/><path d="m12.102 12.36c-.248-1.141-1.366-2.012-2.549-1.907-.51.039-.982.254-1.358.58-.692-.149-1.596 1.771-.622 3.208 1.517 2.236 5.109.782 4.529-1.881zm-3.745.422c.016-.659.61-1.282 1.273-1.334.663-.049 1.352.464 1.495 1.124.333 1.531-1.787 2.487-2.725 1.107-.107-.159-.181-.34-.221-.527.107-.089.174-.221.178-.37z"/><path d="m18.577 14.704c.936-.701 1.435-1.857 1.271-2.944-.278-1.846-2.452-3.046-4.046-1.696-.274.232-.485.511-.621.815-1 .169-1.783 2.514-.359 3.788.97.87 2.622.886 3.755.037zm-3.299-2.667c.351.179.702-.074.727-.407.023-.296.181-.581.443-.803.96-.815 2.244-.028 2.411 1.081.107.718-.246 1.519-.882 1.995-.752.564-1.869.573-2.49.018-.514-.459-.591-1.366-.209-1.884z"/><path d="m27.384 11.082c-.559-2.031-3.178-2.509-4.169-.729-.03-.03-.065-.058-.105-.08-.238-.135-.544-.053-.683.187-.586 1.028-.393 2.432.447 3.264 1.952 1.927 5.237-.001 4.51-2.642zm-4.28.45c.087.097.211.159.35.166.306-.024.51-.203.522-.477.056-1.243 2.028-1.378 2.442.127.458 1.66-1.616 2.876-2.841 1.664-.376-.373-.545-.948-.473-1.48z"/><path d="m25.534 30.211c-.261-.076-.543.072-.621.338l-1.347 4.54c-.19.645-.406 1.375-.862 1.863-.358.385-1.012.63-1.443.355-.327-.208-.5-.669-.664-1.164-.201-.605-.427-1.229-.652-1.854-.224-.619-.447-1.238-.646-1.839-.198-.596-1.099-.35-.963.266.417 1.885-.088 3.98-1.319 5.469-1.001 1.215-2.359 1.56-2.727-.793-.282-1.804-.336-3.641-.157-5.46.026-.275-.175-.52-.449-.547-.269-.011-.519.175-.547.449-.186 1.904-.13 3.826.165 5.712.498 3.182 2.883 3.216 4.486 1.275.775-.938 1.302-2.085 1.542-3.287.11.311.218.619.318.923.903 2.735 3.692 2.922 4.878-1.085l1.347-4.541c.077-.263-.073-.542-.339-.62z"/><path d="m39.857 30.224c-.269-.054-.535.118-.591.39-.532 2.601-1.476 5.085-2.804 7.385-.691 1.201-1.329 1.224-1.521-.232l-.538-4.096c-.03-.225-.206-.4-.431-.431-.219-.028-.44.095-.526.304l-1.806 4.32c-.652 1.557-1.301 1.43-1.687.055l-1.734-6.171c-.075-.266-.351-.419-.616-.347-.267.075-.421.351-.347.616l1.734 6.173c.625 2.208 2.524 2.57 3.571.06l1.091-2.608.296 2.256c.307 2.29 2.135 2.757 3.379.601 1.382-2.392 2.363-4.979 2.918-7.684.056-.271-.117-.535-.388-.591z"/><path d="m53.642 30.691c-.263-.081-.543.07-.623.334l-1.622 5.376c-.568 1.881-1.503 2.339-2.221.811-.624-1.329-1.276-2.883-1.394-4.332-.021-.26-.237-.46-.498-.46-.001 0-.001 0-.002 0-.261.001-.478.202-.497.463-.145 1.947-.927 3.834-2.201 5.313-.34.393-.414.41-.578-.194l-1.652-6.037c-.072-.266-.344-.421-.614-.351-.267.073-.423.348-.35.614l1.652 6.036c.395 1.451 1.471 1.544 2.3.585.886-1.026 1.557-2.23 1.975-3.519.274.808.619 1.589.956 2.307.978 2.084 3.137 2.181 4.083-.946l1.622-5.376c.078-.266-.071-.544-.336-.624z"/></g></svg>