<svg id="Layer_1" enable-background="new 0 0 66 66" height="512" viewBox="0 0 66 66" width="512" xmlns="http://www.w3.org/2000/svg"><g><path d="m64.725 58.708c-1.17.006-3.965.018-7.095.047.467-1.693.353-1.279 1.049-23.885.252-7.575-2.284-9.407-8.535-9.48-2.297-.035-4.584-.058-6.879-.082.153-9.698-3.86-16.956-10.356-24.208-.236-.263-.614-.193-.782.048-3.08 4.405-4.707 7.271-4.707 7.271-3.042 5.12-5.448 10.675-5.651 16.611l-5.588-.069c-7.12-.106-8.5 2.43-8.462 7.563.337 29.081.261 24.023.122 26.618-2.215.025-5.093.043-6.094.048-1.445 1.589-.483 3.66.828 4.483 1.342.838 2.997.804 4.327.783 6.117-.121 39.176.232 49.442.581 1.762.057 3.946.129 5.825-.769l.001-.001c1.868-.898 3.427-2.966 2.555-5.559zm-23.738-2.527 1.521 1.521-.955.956c-.062.062-.07.143-.054.223-.619.005-1.237.009-1.856.014.04-.092.041-.197-.034-.271l-.686-.686 2.031-2.031c-.042.091-.043.198.033.274zm2.928 2.22-.7-.7 2.005-2.005 1.297 1.297-1.861 1.861c-.872.007-1.743.013-2.614.021l.82-.821.7.7c.049.049.113.073.177.073s.128-.024.177-.073c.097-.097.097-.255-.001-.353zm4.512-.204-1.203-1.203 1.722-1.722 1.817 1.816-1.569 1.569c-.045.045-.064.104-.068.163-1.252.009-2.505.02-3.758.03l1.502-1.502 1.203 1.203c.049.049.113.073.177.073s.128-.024.177-.073c.098-.098.098-.256 0-.354zm2.594-5 .826.826-.672.672c-.098.098-.098.256 0 .354.049.049.113.073.177.073s.128-.024.177-.073l.672-.672.637.637-1.722 1.721-1.816-1.817zm3.798-.165-1.628 1.628-.637-.637 1.628-1.628zm-15.642 5.866c-.408.004-.816.006-1.224.01l.617-.617zm-4.457.035.406-.406.4.4c-.269.002-.537.004-.806.006zm2.5-22.416.981.98-.881.881-.98-.981zm-1.234 1.233.98.981-.59.59c-.098.098-.098.256 0 .354s.256.098.354 0l.59-.59.805.806c-.91-.018-1.824-.022-2.733-.018-.007-.053-.021-.108-.062-.149l-.659-.659zm-1.209 2.128c-.311.002-.618.005-.927.008l.467-.467zm8.303-11.59c3.969 4.059 4.942 10.054 2.679 15.086-.954-2.57-2.674-4.823-4.949-6.46 1.046-2.43 1.929-5.614 2.27-8.626zm-5.537-19.474c-3.15.961-6.234.739-8.969-.378 1.247-2.106 2.609-4.175 4.01-6.195 1.815 2.07 3.447 4.198 4.959 6.573zm-9.471.483c3.085 1.293 6.646 1.539 10.008.381 3.044 5.101 4.365 10.472 4.184 16.106v.003.001c-.001.022-.004.045-.004.067-.018.481-.054.958-.094 1.434-.064.793-.158 1.58-.284 2.358-.022.134-.053.265-.076.398-.103.589-.225 1.172-.363 1.75-.069.286-.143.57-.22.853-.12.442-.253.88-.393 1.315-.092.285-.178.572-.279.853-.224.627-.468 1.247-.735 1.857-.42.957-.902 1.88-1.424 2.778l-.718-.718.912-.912c.084.026.143.058.246-.045.068-.068.071-.16.045-.246l.89-.89c.098-.098.098-.256 0-.354s-.256-.098-.354 0l-.859.859-.981-.981.4-.4c.098-.098.098-.256 0-.354s-.256-.098-.354 0l-.445.445c-.071-.007-.143.01-.198.064-.055.055-.071.126-.064.198l-2.594 2.594-.39-.39c-.098-.098-.256-.098-.354 0s-.098.256 0 .354l.39.39-.59.59c-.065.065-.07.152-.049.235-.132.001-.267.002-.398.003v-12.206c0-.276-.224-.5-.5-.5s-.5.224-.5.5v12.215c-1 .01-2.475.029-4.113-.001-7.727-8.774-5.77-20.283.258-30.604zm-3.31 27.961c-2.035 1.584-3.594 3.714-4.487 6.119-2.015-4.476-1.551-9.883 1.761-14.046.429 2.65 1.357 5.471 2.726 7.927zm-8.595-11.297 5.583.069c.01.811.05 1.36.115 1.97-4.305 4.741-4.946 11.557-1.923 16.934.219.39.802.316.919-.114.716-2.636 2.282-4.986 4.424-6.686.795 1.28 1.435 2.051 1.932 2.599.149.081.11.159.36.164 1.409.029 2.884.02 4.351.004v3.158c0 .276.224.5.5.5s.5-.224.5-.5v-3.167c1.8-.02 3.656-.04 5.48.004.184.019.342-.083.436-.236.161-.115 1.427-2.604 1.527-2.814 2.351 1.744 4.052 4.193 4.801 6.972.117.431.699.506.919.115 3.26-5.799 2.198-13.222-2.809-17.844-.027-.028-.063-.05-.093-.075.006-.064.007-.128.012-.193.011-.173.033-.343.042-.516 2.298.023 4.587.048 6.889.083 5.66.068 7.781 1.441 7.549 8.448v.001l-.377 12.235-1.246-1.246c-.098-.098-.256-.098-.354 0s-.098.256 0 .354l1.021 1.021c-.09-.036-.191-.036-.264.037l-1.701 1.702c-.098.098-.098.256 0 .354.049.049.113.073.177.073s.128-.024.177-.073l.153-.154 1.204 1.204c.049.049.113.073.177.073s.128-.024.177-.073c.098-.098.098-.256 0-.354l-1.204-1.204 1.194-1.194c.073-.073.073-.174.037-.264l.11.11c.049.049.113.073.177.073.055 0 .107-.027.153-.063-.276 8.94-.215 9.841-.69 11.312-2.283.015-4.573.037-6.858.054l1.373-1.374 1.195 1.195c.049.049.113.073.177.073s.128-.024.177-.073c.098-.098.098-.256 0-.354l-1.195-1.195 1.721-1.722 1.297 1.297-1.615 1.615c-.098.098-.098.256 0 .354.049.049.113.073.177.073s.128-.024.177-.073l1.615-1.615 1.382 1.382c.049.049.113.073.177.073s.128-.024.177-.073c.098-.098.098-.256 0-.354l-1.382-1.382.714-.714c.098-.098.098-.256 0-.354s-.256-.098-.354 0l-.714.714-1.297-1.297 1.628-1.628 1.096 1.097c.049.049.113.073.177.073s.128-.024.177-.073c.098-.098.098-.256 0-.354l-1.097-1.097.121-.121c.098-.098.098-.256 0-.354s-.256-.098-.353 0l-.121.121-.669-.669c.026-.086.023-.178-.045-.245-.068-.068-.16-.071-.245-.045l-.044-.044c-.098-.098-.256-.098-.354 0s-.098.256 0 .354l.012.012-1.628 1.628-.826-.826 1.271-1.271c.098-.098.098-.256 0-.354s-.256-.098-.353 0l-1.286 1.286c-.096-.06-.22-.063-.303.021s-.081.207-.021.303l-1.736 1.736-.719-.719c-.098-.098-.256-.098-.354 0s-.098.256 0 .354l.72.719-1.722 1.722-1.297-1.297 1.731-1.731c.098-.098.098-.256 0-.354s-.256-.098-.354 0l-1.73 1.731-.201-.201c-.098-.098-.256-.098-.353 0-.098.098-.098.256 0 .354l.201.201-2.004 2.005-1.521-1.521c-.076-.076-.182-.075-.274-.033l.931-.931c.098-.098.098-.256 0-.353-.098-.098-.256-.098-.354 0l-3.074 3.074-1.003-1.003c-.098-.098-.256-.098-.354 0s-.098.256 0 .354l1.002 1.003-.908.908c-.019.019-.016.045-.028.067-.464.004-.926.007-1.39.011.09-.098.091-.249-.004-.344l-.406-.406 1.924-1.924c.098-.098.098-.256 0-.354s-.256-.098-.354 0l-1.924 1.924-.672-.673c-.098-.098-.256-.098-.354 0s-.098.256 0 .354l.672.673-.484.484c-.077.077-.076.186-.031.279-.489.004-.977.007-1.466.012-.404.003-.807.006-1.211.009l.431-.431.341.341c.049.049.113.073.177.073s.128-.024.177-.073c.098-.098.098-.256 0-.354l-.341-.341 2.175-2.175c.098-.098.098-.256 0-.354s-.256-.098-.353 0l-2.175 2.175-.201-.2c-.098-.098-.256-.098-.353 0-.098.098-.098.256 0 .354l.2.2-.766.766c-.007.007-.004.017-.01.024-7.353.063-14.705.125-22.044.172.134-2.322.215 2.329-.12-26.62-.034-4.485.841-6.66 7.447-6.55zm45.571 37.407c-3.424 1.633-24.424-.514-54.853.089-1.472.029-2.77-.003-3.777-.631-.858-.536-1.408-1.837-.893-2.639 2.554-.015 17.168-.124 30.586-.239 6.862-.059 24.282-.205 31.179-.236.261 1.475-.899 3.009-2.242 3.656z"/><path d="m30.141 22.902c.698.348 1.472.517 2.247.517 1.267 0 2.539-.45 3.495-1.306 1.514-1.355 2.125-3.66 1.486-5.606-.578-1.757-2.572-3.939-4.822-3.472-2.688.561-4.365 1.815-4.985 3.729-.749 2.305.408 5.059 2.579 6.138zm.283-.996.677-.677 1.177 1.177c-.59-.013-1.173-.14-1.692-.398-.057-.029-.106-.07-.162-.102zm5.975-2.415-1.606-1.606.794-.794.707.707c.084.084.185.1.309.019.039.564-.032 1.134-.204 1.674zm-.388.319c-.014.009-.033.006-.046.019l-1.213 1.214-.411-.412 1.246-1.246zm-1.612 1.587-.206.206c-.105.105-.12.29.073.384-.442.209-.92.34-1.409.393-.001-.063-.024-.126-.072-.174l-.051-.051c.051-.007.104-.02.144-.059l1.11-1.11zm-1.875.344c-.04.04-.052.092-.06.144l-1.01-1.01 1.211-1.211.967.967zm2.595-.3c-.008-.013-.007-.029-.017-.041l.68-.681c-.168.233-.352.455-.566.647-.03.028-.066.049-.097.075zm-6.606-4.369c.501-1.547 1.927-2.576 4.238-3.059.134-.028.268-.041.402-.041 1.454 0 2.845 1.568 3.265 2.847.056.172.096.348.128.525l-.607-.607.188-.188c.098-.098.098-.256 0-.354s-.256-.098-.354 0l-.188.188-.482-.483c-.098-.098-.256-.098-.354 0s-.098.256 0 .354l.484.484-.794.794-.102-.102c-.098-.098-.256-.098-.354 0s-.098.256 0 .354l.102.101-.102.102c-.098.098-.098.256 0 .354s.256.098.354 0l.102-.102.794.794-1.246 1.246-.967-.969.171-.171c.098-.098.098-.256 0-.354s-.256-.098-.354 0l-.171.171-.206-.206c-.098-.098-.256-.098-.354 0s-.098.256 0 .354l.206.206-1.211 1.211-.797-.797c-.098-.098-.256-.098-.354 0s-.098.256 0 .353l.797.797-.759.759c-1.349-1.027-2.004-2.932-1.475-4.561z"/><path d="m39.572 36.067c.098.098.256.098.354 0s.098-.256 0-.354l-1.409-1.409c.027-.012.058-.011.081-.033l.824-.823.728.728c.098.098.256.098.354 0s.098-.256 0-.353l-.728-.728.691-.691c.098-.098.098-.256 0-.353-.098-.098-.256-.098-.354 0l-.691.691-.29-.29c-.098-.098-.256-.098-.354 0s-.098.256 0 .354l.29.29-.824.823c-.03.03-.033.07-.044.107-.095-.051-.209-.053-.289.027-.098.098-.098.256 0 .354z"/><path d="m39.985 30.876.895.895c.098.098.256.098.354 0s.098-.256 0-.354l-.891-.891.747-.747.205.205c.098.098.256.098.354 0s.098-.256 0-.354l-.217-.217c.066-.097.069-.226-.017-.312s-.215-.083-.312-.017l-.37-.37c-.098-.098-.256-.098-.354 0s-.098.256 0 .353l.357.357-1.091 1.091c-.098.098-.098.256 0 .354.086.087.224.108.34.007z"/></g></svg>