<svg id="Layer_1" enable-background="new 0 0 66 66" height="512" viewBox="0 0 66 66" width="512" xmlns="http://www.w3.org/2000/svg"><g><g id="XMLID_1_"><path d="m57.7 21.42c.14 0 .25.11.25.25s-.11.25-.25.25h-12.13c-.13 0-.25-.11-.25-.25s.12-.25.25-.25z"/><path d="m57.7 25.33c.14 0 .25.11.25.25s-.11.25-.25.25h-3.28c-.14 0-.25-.11-.25-.25s.11-.25.25-.25z"/><path d="m52.32 25.33c.13 0 .25.11.25.25s-.12.25-.25.25h-22.7c-.14 0-.25-.11-.25-.25s.11-.25.25-.25z"/><path d="m54.08 33.27c-.63-.47-1.45-.39-2.03.05-.22.16-.89.76-.54 1.72.22.58.83 1.01 1.45 1.02.72 0 1.33-.63 1.53-1.23.09-.23.29-1.05-.41-1.56zm.6-.8c.82.61 1.12 1.64.76 2.68-.38 1.13-1.39 1.91-2.47 1.91-.01 0-.02 0-.03 0-1.03-.01-2.01-.7-2.36-1.67-.39-1.06-.05-2.19.87-2.87.98-.74 2.28-.76 3.23-.05z"/><path d="m43.47 21.42c.13 0 .25.11.25.25s-.12.25-.25.25h-9.2c-.14 0-.25-.11-.25-.25s.11-.25.25-.25z"/><path d="m44.03 41.08c-2.7-2.47-.93-8.39 1.95-9.71.13-.06.28 0 .33.12.06.13.01.28-.12.33-2.61 1.19-4.23 6.7-1.83 8.9.11.09.11.25.02.35-.1.1-.25.11-.35.01z"/><path d="m41.17 29.49c0 .14-.11.25-.25.25h-6.55c-.14 0-.25-.11-.25-.25 0-.13.11-.25.25-.25h6.55c.14 0 .25.12.25.25z"/><path d="m32.26 29.24c.14 0 .25.12.26.25 0 .14-.12.25-.25.25h-23.97c-.14 0-.25-.11-.25-.25 0-.13.11-.25.25-.25z"/><path d="m31.73 21.42c.13 0 .25.11.25.25s-.12.25-.25.25h-12.69c-.13 0-.25-.11-.25-.25s.12-.25.25-.25z"/><path d="m31.73 40.98c.13 0 .25.12.25.25 0 .14-.12.25-.25.25h-12.69c-.13 0-.25-.11-.25-.25 0-.13.12-.25.25-.25z"/><path d="m27.08 25.33c.14 0 .25.11.25.25s-.11.25-.25.25h-6.55c-.14 0-.25-.11-.25-.25s.11-.25.25-.25z"/><path d="m22.1 37.07c.14 0 .25.11.25.25s-.11.25-.25.25h-6.55c-.14 0-.25-.11-.25-.25s.11-.25.25-.25z"/><path d="m22.01 33.16c.14 0 .25.11.25.25s-.11.25-.25.25h-6.55c-.13 0-.25-.11-.25-.25s.12-.25.25-.25z"/><path d="m18.89 11.79c-.07-1 .45-1.8 1.38-2.15h.01c1.53-.59 2.61.81 2.28 2.04-.36 1.32-2.07 1.99-2.99 1.39-.4-.26-.65-.73-.68-1.28zm1.13-.71c.06-.02.11-.03.17-.03-.02-.06-.02-.11-.02-.17-.06.06-.11.13-.15.2z"/><path d="m18.42 25.33c.14 0 .25.11.25.25s-.11.25-.25.25h-10.12c-.14 0-.25-.11-.25-.25s.11-.25.25-.25z"/><path d="m16.94 21.42c.14 0 .25.11.25.25s-.11.25-.25.25h-8.64c-.14 0-.25-.11-.25-.25s.11-.25.25-.25z"/><path d="m16.94 40.98c.14 0 .25.12.25.25 0 .14-.11.25-.25.25h-8.64c-.14 0-.25-.11-.25-.25 0-.13.11-.25.25-.25z"/><path d="m15.4 13.64c-.02 0-.05 0-.08 0-.79 0-1.54-.5-1.81-1.22-.8-2.14 2.38-4.24 3.66-1.99.33.58.36 1.33.06 1.96-.34.73-1.06 1.22-1.83 1.25zm-.04-2.74c0-.05 0-.09.01-.13-.05-.07-.08-.15-.09-.23-.54.21-.96.77-.88 1.33.02-.01.04-.03.06-.04.02-.43.53-.62.84-.33l.01-.01c-.12-.19-.1-.42.05-.59z"/><path d="m13.44 37.07c.14 0 .25.11.25.25s-.11.25-.25.25h-5.14c-.14 0-.25-.11-.25-.25s.11-.25.25-.25z"/><path d="m13.36 33.16c.13 0 .25.11.25.25s-.12.25-.25.25h-5.06c-.14 0-.25-.11-.25-.25s.11-.25.25-.25z"/><path d="m9.81 11.18c-.1-.02-.2-.06-.28-.13-.08-.08-.12-.18-.13-.27-.18.17-.31.37-.37.58-.06.24-.01.47.14.69l.01-.01c-.15-.39.23-.78.63-.64-.02-.07-.02-.15 0-.22zm1.86-1.39c.36.33.57.83.57 1.36 0 .45-.14.9-.42 1.31-.34.51-.82.86-1.35.99-.15.04-.31.06-.46.06-.49 0-1.06-.25-1.2-.39v-.01c-.63-.46-.95-1.23-.75-2.01.2-.72.8-1.34 1.58-1.64.3-.12.62-.15.93-.12.2-.1.44-.07.61.14.18.08.34.18.49.31z"/><path d="m35.84 15.46-.38-.38-.38.38zm24.88-4.26-1.44 1.44 1.41 1.41 1.44-1.44zm-9.21 34.3c.04.04.06.1.06.16.62-.1 1.21-.25 1.77-.48l-.97-.97-1.07 1.08zm-.21-2.37-1.08 1.08.72.72 1.08-1.07-.72-.71c0-.01 0-.01 0-.02zm-1.74 2.61c.49.03.98.03 1.47-.02l-.14-.13c-.07 0-.13-.02-.18-.07s-.07-.12-.07-.18l-.78-.78-.69.7.32.32c.04.05.06.1.07.16zm-.69-.07-.05-.06-.04.04c.03.01.06.01.09.02zm-.06-31.96-1.19 1.19.16.16c.1.1.1.26.01.35-.03.04-.08.04-.12.05h2.99c-.06 0-.12-.02-.17-.07l-.21-.21-.15.14c-.1.1-.25.1-.35 0-.1-.09-.1-.25 0-.35l.14-.15zm-1.54 1.54-.17.17c-.03.03-.06.03-.09.04h.53c-.04-.01-.08-.01-.11-.05zm-1.79 30.43h.07c-.02-.01-.04-.02-.07-.03zm.37.14c-.04-.02-.08-.03-.12-.05.04.04.07.1.07.16 0 .14-.11.25-.25.25h-.06v.51c.23-.23.48-.46.71-.7-.13-.05-.23-.12-.35-.17zm-6.18.56h1.06v-1.58c0-.04.03-.08.05-.12-.41.46-.83.92-1.24 1.38.07.04.13.1.13.2zm-.81.42c-.24.27-.49.54-.73.81.07.05.14.11.14.21v.5h.98c-.05-.04-.08-.1-.08-.18v-1.26h-.13c-.07 0-.13-.03-.18-.08zm-1.09 1.52v-.31c-.1.1-.19.21-.28.31zm7.19-33.69.59.58c.07.07.07.17.04.25h1.25c-.04-.01-.07-.01-.1-.04-.09-.09-.09-.25 0-.35l.18-.17-1.07-1.07c-.02-.02-.02-.04-.03-.06zm-.35.35-.48.48h.96zm-.42 29.88v.82h.8c0-.13-.01-.16.02-.28-.04-.03-.74-.48-.82-.54zm-.48-.38c-.54-.46-.53-.45-.97-.96v.98c.15 0 .83-.03.95.06 0-.08.01-.02.02-.08zm-1.3-29.02-.54-.53-.53.53zm-1.38 29.04h1.21v-1.55c-.47.67-.78.97-1.35 1.61.04-.03.09-.06.14-.06zm.2 2.29v.17c0 .14-.11.25-.25.25s-.25-.11-.25-.25v-.08h-1.06v1.26c0 .07-.03.14-.08.18h.04c.14 0 .25.11.25.25s-.11.25-.25.25h-1.36v.94c0 .13-.11.25-.25.25s-.25-.12-.25-.25v-.94h-.74c-3.67 4.07-4.84 5.13-5.34 6.74-.9 2.99 1.97 4.86 4.46 2.46 1.48-1.44 2.93-4.69 4.89-6.92.3-.32.84-.88 1.38-1.41.53-.53 1.06-1.05 1.31-1.29.49-.47.97-.94 1.46-1.42-.11-.02-.2-.11-.2-.23v-.57h-.8v.63c0 .14-.11.25-.25.25s-.25-.11-.25-.25v-1.87c-.04.03-.08.06-.13.06h-.82v.88c0 .14-.11.25-.25.25s-.25-.11-.25-.25v-.88h-1.01v1.47c.04.05.06.1.06.16s-.02.12-.06.16zm16.14-32.24.84.84c.02.02.02.05.03.07h1.17c-.01-.07.01-.14.06-.19l.87-.87-1.41-1.41zm-3.12-8.62c8.93-.48 10.58 3.69 10.64 12.37l.1 17.6c.02 3.23-.06 6.32-1.34 8.8-2.03 3.89-6.02 4.47-9.65 4.53-1.35.01-4.97.03-9.72.04-1.19 1.18-1.76 1.68-2.5 2.5-1.91 2.18-3.32 5.39-4.94 6.96-3.21 3.1-7.31.54-6.1-3.46.55-1.8 1.85-3.03 4.54-5.99-4.38 0-19.47 0-23.29-.05-9.62-.15-11.03-4.93-10.98-13.77.03-5.67.05-11.4.09-17.16.03-8.75 1.79-12.85 10.65-12.37 5.75.29 36.73.29 42.5 0zm2.45 36.1-1.12 1.13.34.35c.41-.38.77-.79 1.1-1.23-.04-.01-.08-.01-.11-.04zm-1.15 1.81-.33-.33-.33.34c-.1.1-.26.1-.36 0-.09-.1-.09-.26 0-.36l.34-.33-.72-.72-1.43 1.42 1.11 1.1c.11-.05.23-.1.35-.16.48-.27.94-.6 1.37-.96zm-1.56 4.39c3.5-.06 6.99-.58 8.77-3.99 1.18-2.27 1.25-5.24 1.23-8.33l-.1-17.6c0-.63-.01-1.25-.03-1.85h-61.73c-.02.61-.03 1.22-.03 1.85-.04 5.76-.07 11.48-.09 17.16-.05 8.45 1.07 12.62 9.99 12.76 2.7.03 13.52.06 24.18.05.25-.28.87-.96 1.06-1.18 3.74-4.12 3.78-4.1 4.43-5.1-.09-.17-.18-.34-.26-.52h-7.14c-.14 0-.25-.11-.25-.25 0-.13.11-.25.25-.25h6.9c-.42-1.08-.62-2.24-.63-3.41h-15.89c-.14 0-.25-.11-.25-.25s.11-.25.25-.25h15.88c.05-1.17.33-2.33.8-3.41h-16.77c-.14 0-.25-.11-.25-.25s.11-.25.25-.25h16.99c1.43-2.85 4.13-4.82 7.43-4.94 3.13-.09 6.53 1.52 9.03 4.36 1.5 1.72 2.08 3.84 1.67 6.14-.49 2.82-2.47 5.55-5.02 6.95-2.02 1.11-4.71 1.45-7.39.68 0 0-1.12 1.09-1.96 1.92 4.24-.01 7.42-.03 8.68-.04zm1.28-7.27c.1.09.1.25 0 .35l-.77.77.72.72 1.13-1.12-1.17-1.17c-.1-.1-.1-.26 0-.36.1-.09.26-.09.35 0l1.17 1.17.37-.37c.1-.1.26-.1.36 0s.1.26 0 .36l-.37.37.2.2c.01.01.01.03.02.04.58-.85 1.01-1.79 1.27-2.75-.01 0-.01.01-.02.01-.06 0-.13-.03-.18-.08l-.62-.62-.78.77.91.91c.1.1.1.26 0 .36-.1.09-.26.09-.35 0l-.94-.94c-.03.01-.05.03-.08.03-.07 0-.13-.02-.18-.07-.07-.07-.07-.17-.04-.26l-.17-.17c-.1-.1-.1-.26 0-.36.09-.09.25-.09.35 0l.15.15.77-.78-.25-.25c-.1-.1-.1-.26 0-.35.1-.1.25-.1.35 0l.26.25.28-.28c.1-.1.25-.1.35 0s.1.25 0 .35l-.28.28.58.58c.01-.05.03-.1.04-.15.06-.32.09-.68.1-1.05 0 0 0 .01-.01.01-.05.05-.12.08-.18.08s-.13-.03-.18-.08l-.68-.68c-.03.01-.05.04-.08.04-.06 0-.13-.03-.18-.08-.07-.07-.07-.17-.04-.25l-.06-.07c-.1-.1-.1-.26 0-.35.09-.1.25-.1.35 0l.04.03.42-.41c.09-.1.25-.1.35 0 .1.09.1.25 0 .35l-.41.42.65.65c0 .01 0 .02.01.03-.03-1.21-.38-2.62-1.55-3.95-2.09-2.38-5.18-4.15-8.24-4.02-8.39.29-10.75 13.21-1.74 16.09.3.09.6.17.9.24l.29-.29-.44-.45c-.1-.09-.1-.25 0-.35.09-.1.25-.1.35 0l.44.44.71-.7c-.08-.1-.09-.24.01-.33.09-.09.23-.09.33-.01l2.02-2.03c.1-.09.26-.09.36 0 .09.1.09.26 0 .36l-.59.59.01.01.71.71 1.42-1.42-.39-.39c-.1-.1-.1-.25 0-.35s.26-.1.36 0l.39.39.77-.77c.09-.1.25-.1.35 0zm1.39-26.41-1.29-1.28-1.15 1.16.51.51c.09.1.09.26 0 .36-.1.1-.26.1-.36 0l-.52-.52c-.1.1-.25.09-.34 0-.1-.1-.1-.25-.01-.35l-1.23-1.24-1.64 1.63.21.22c.1.1.1.25 0 .35-.04.05-.11.07-.17.07h6.9l-.56-.55-.32.32c-.09.09-.25.09-.35 0-.1-.1-.1-.26 0-.36zm-1.29-1.99 1.15-1.15c.1-.1.25-.1.35 0s.1.26 0 .35l-1.14 1.15 1.28 1.29 1.56-1.56-.59-.6c-.1-.09-.1-.25 0-.35s.26-.1.35 0l.6.59 1.44-1.43-.1-.1c-.1-.1-.1-.26 0-.35.1-.1.25-.1.35 0l.13.13c.09-.03.18-.02.24.04.07.07.08.16.05.24l2.49 2.49c.05.05.07.12.07.18s-.02.13-.07.18c-.1.09-.26.09-.36 0l-.69-.69-1.43 1.43.52.53c.1.09.1.25 0 .35s-.26.1-.35 0l-.53-.52-.7.7h3.83c-.04-.71-.11-1.37-.2-1.98-.82-5.47-3.72-6.85-9.32-6.55-5.98.3-36.63.3-42.6 0-6.25-.34-9.12 1.42-9.52 8.53h32.21c.01-.01.01-.03.02-.04l.7-.7-.55-.54c-.1-.1-.1-.26 0-.35.1-.1.26-.1.36 0l.54.54.7-.7c.1-.1.26-.1.35 0 .1.1.1.26 0 .35l-.7.7.74.74h.48c-.01-.07.01-.14.07-.19l1.09-1.09-.55-.55c-.1-.1-.1-.25 0-.35s.26-.1.36 0l.54.54.49-.48c.09-.1.25-.1.35 0s.1.25 0 .35l-.49.49.85.85c.1.09.1.25 0 .35-.04.05-.11.08-.17.08-.07 0-.13-.03-.18-.08l-.85-.85-.93.93h1.96 1.06l.89-.89-.55-.54c-.09-.1-.09-.26 0-.35.1-.1.26-.1.36 0l.54.54.32-.32c.1-.1.26-.1.36 0 .09.1.09.26 0 .35l-.32.32.88.89h.57c-.05-.09-.05-.21.03-.29l.54-.55-.39-.39c-.1-.1-.1-.26 0-.35.1-.1.25-.1.35 0l.4.39 1.86-1.86c.1-.1.25-.1.35 0s.1.26 0 .35l-.69.69c.03.01.05.01.07.03l1.07 1.07 2.11-2.11c.09-.1.25-.1.35 0 .1.09.1.25 0 .35l-.57.57 1.12 1.11 2.34-2.34c.09-.1.25-.1.35 0s.1.25 0 .35l-.35.35 1.24 1.24 1.16-1.16-.32-.32c-.1-.1-.1-.26 0-.35.1-.1.25-.1.35 0z"/></g></g></svg>