<svg id="Layer_1" enable-background="new 0 0 66 66" height="512" viewBox="0 0 66 66" width="512" xmlns="http://www.w3.org/2000/svg"><g><path d="m2.508 56.727c1.091.649 2.413.692 3.475.725 11.939.384 24.004.581 36.095.431 13.23-.165 17.638.256 21.525-2.641 1.824-1.361 2.259-4.082-1.106-4.071l-57.647.578c-1.329.014-2.939.195-3.612 1.489-.669 1.291.138 2.816 1.27 3.489zm53.101-.076-.801-.801.765-.766 1.443 1.443c-.459.053-.929.094-1.407.124zm-.675.033c-.331.015-.662.031-1 .041l.52-.521zm-52.808-2.984c.427-.822 1.685-.939 2.734-.95l57.648-.579c2.323-.029 1.498 1.524.498 2.269-.019.014-.04.024-.059.038l-.426-.426.371-.371.064.016c.137.029.243-.066.27-.201.028-.135-.084-.274-.219-.302-.099-.027-.274-.063-.376.04l-.464.464-1.062-1.062c-.098-.098-.256-.098-.354 0s-.098.256 0 .353l1.062 1.062-.023.023c-.098.098-.098.256 0 .354s.256.098.354 0l.023-.023.348.348c-1.168.757-2.472 1.231-3.893 1.517l1.026-1.026.31.31c.098.098.256.098.354 0s.098-.256 0-.354l-.31-.31.607-.607c.098-.098.098-.256 0-.354s-.256-.098-.354 0l-.607.607-.526-.526 1.126-1.126c.098-.098.098-.256 0-.354s-.256-.098-.354 0l-1.126 1.126-.303-.303c-.098-.098-.256-.098-.354 0s-.098.256 0 .354l.303.303-.542.542c-.098.098-.098.256 0 .354s.256.098.354 0l.542-.542.526.526-1.529 1.529c-.075.011-.15.022-.226.032.001-.065-.023-.13-.072-.179l-1.542-1.542.695-.695c.098-.098.098-.256 0-.354s-.256-.098-.354 0l-.694.695-.143-.143c-.098-.098-.256-.098-.353 0-.098.098-.098.256 0 .354l.143.143-.765.766-1.182-1.182c-.098-.098-.256-.098-.354 0s-.098.256 0 .354l1.182 1.182-.703.703c-.051.051-.072.117-.07.183-1 .019.481 0-3.937.055l.907-.907.803.803c.098.098.256.098.354 0s.098-.256 0-.354l-.803-.803 1.557-1.557c.098-.098.098-.256 0-.354s-.256-.098-.354 0l-1.557 1.557-1.102-1.102c-.098-.098-.256-.098-.354 0s-.098.256 0 .354l1.102 1.102-1.022 1.022c-.067.067-.071.159-.045.244l-4.505.056 1.529-1.529 1.321 1.321c.098.098.256.098.353 0 .098-.098.098-.256 0-.354l-1.321-1.321.774-.774c.098-.098.098-.256 0-.354s-.256-.098-.354 0l-.774.774-.303-.303c-.098-.098-.256-.098-.354 0s-.098.256 0 .354l.303.303-1.325 1.325-1.502-1.502c-.098-.098-.256-.098-.354 0s-.098.256 0 .354l1.502 1.502-.213.213c-2.867.036-1.693.022-3.89.041l.5-.5.056.056c.098.098.256.098.354 0s.098-.256 0-.354l-.053-.054 1.634-1.634c.098-.098.098-.256 0-.354s-.256-.098-.354 0l-1.634 1.634-1.142-1.142c-.098-.098-.256-.098-.354 0s-.098.256 0 .354l1.142 1.142-.743.743c-.032.032-.038.076-.049.117-1.168.009-2.348.015-3.536.018l.604-.604.396.396c.098.098.256.098.353 0 .098-.098.098-.256 0-.354l-.396-.396 1.372-1.372c.098-.098.098-.256 0-.354s-.256-.098-.354 0l-1.372 1.372-.742-.742c-.098-.098-.256-.098-.354 0s-.098.256 0 .353l.742.742-.96.96c-1.059.002-2.13 0-3.206-.003l1.043-1.043.972.972c.098.098.256.098.354 0s.098-.256 0-.354l-.972-.972.639-.639c.098-.098.098-.256 0-.354s-.256-.098-.354 0l-.639.639-.383-.383c-.098-.098-.256-.098-.354 0s-.098.256 0 .354l.383.383-1.394 1.394c-7.786-.031-16.027-.185-24.951-.472-.997-.032-2.127-.068-2.997-.585-.724-.433-1.271-1.43-.888-2.166z"/><path d="m12.577 45.56c1.718.02 39.128.02 40.847 0 1.537-.021 3.26-.142 4.249-1.321.985-1.173.979-.406.527-28.407-.041-3.075-.109-4.913-4.52-5.032-3.231-.073-17.324-.099-28.312-.078-.104-.123-.256-.124-.38.001-2.364.005-10.265.023-12.66.078-4.591.124-4.495 2.059-4.538 5.72-.051 5.38-.078 7.659-.255 24.425-.038 3.164.869 4.557 5.042 4.614zm.404-33.403-.947.947-.835-.835c.062-.097.065-.221-.02-.306-.043-.043-.1-.06-.157-.065.426-.063.88-.086 1.332-.098.076-.002.177-.003.265-.005zm.334-.373c.013 0 .026 0 .04-.001l-.02.02zm-2.441.159-.016-.016c.032-.006.063-.012.095-.017-.028.007-.054.017-.079.033zm-.368.34-1.01 1.01-.332-.332c.211-.383.474-.675 1.126-.894zm-1.542 1.184.179.179-.013.012c-.098.098-.098.256 0 .354s.256.098.354 0l.012-.012.874.874c-.091-.038-.194-.038-.268.036l-.942.942-.357-.356c.009-.661-.006-1.393.161-2.029zm.744 2.544.748-.748c.074-.074.074-.177.036-.268l.206.206c.098.098.256.098.354 0s.098-.256 0-.354l-1.201-1.201 1.01-1.01.842.842c-.046.093-.048.204.03.281.098.098.256.098.353 0l1.25-1.25.464.464c.098.098.256.098.353 0 .098-.098.098-.256 0-.354l-.464-.464.142-.142c.066-.066.071-.154.048-.238.451-.005.95-.01 1.517-.014.012.022.009.049.028.068l.809.809-.264.264c-.098.098-.098.256 0 .354s.256.098.354 0l.264-.264.015.015c.098.098.256.098.354 0s.098-.256 0-.353l-.015-.015.892-.893c.184-.001.374-.002.564-.003-.085.098-.087.244.006.338l1.14 1.14c.106.106.301.08.388-.007l1.483-1.483c.069 0 .133-.001.202-.001.008.051.02.102.059.141l1.072 1.071c.098.098.256.098.354 0s.098-.256 0-.353l-.861-.861c.57-.002 1.152-.003 1.747-.005l-.717.717c-.098.098-.098.256 0 .354s.256.098.354 0l1.072-1.072h.183c.011.022.009.048.027.066l.966.966c.098.098.256.098.354 0s.098-.256 0-.354l-.679-.679c.663-.001 1.335-.002 2.017-.003l.25.25-.516.516c-.098.098-.098.256 0 .354s.256.098.354 0l.515-.515.04.04c.098.098.256.098.354 0s.098-.256 0-.353l-.04-.04.251-.252c.559 0 1.12-.001 1.685-.001l-.307.307c-.098.098-.098.256 0 .354s.256.098.354 0l.453-.453.42.42c.098.098.256.098.354 0s.098-.256 0-.354l-.274-.275c3.64-.001 18.574.003 22.2.085 3.43.092 3.512 1.131 3.538 3.59-2.925.272-2.326.205-39.857.552-2.548.02-5.088.043-7.63.068zm6.35-4.253c.339-.002.693-.005 1.063-.007l-.535.535zm3.674.947-.963-.963c.616-.003 1.265-.005 1.934-.008zm37.175 30.892c-.717.855-2.181.946-3.496.963-1.716.02-39.106.02-40.822 0-3.617-.049-4.087-1.021-4.055-3.604.176-16.725.199-18.672.25-23.936 2.854-.029 5.703-.055 8.558-.079 37.152-.343 36.771-.276 39.859-.557.287 26.541.545 26.212-.294 27.213z"/><path d="m10.461 49.629c1.879.026 43.205.026 45.077 0 1.69-.021 3.583-.16 4.664-1.559 1.202-1.554.888-.838.545-35.105-.039-3.282-1.004-4.679-4.927-4.794-5.541-.139-40.084-.139-45.634 0-3.868.113-4.893 1.457-4.932 4.795-.063 6.705-.098 10.144-.306 31.233-.039 3.836 1.023 5.375 5.513 5.43zm-4.207-36.653c.033-2.805.655-3.711 3.959-3.806 5.526-.139 40.055-.139 45.579 0 3.339.098 3.922 1.032 3.955 3.805.344 34.308.572 33.31-.335 34.482v.001c-.808 1.047-2.429 1.153-3.886 1.171-1.892.026-43.152.026-45.051 0-3.963-.048-4.559-1.196-4.527-4.42.207-21.047.243-24.527.306-31.233z"/><path d="m45.573 15.34c.588-.272 1.254-1.121 1.27-1.904.022-1.138-1.263-1.574-2.452-1.124-.599.225-1.046.618-1.229 1.076-.554 1.385.955 2.624 2.411 1.952zm-1.483-1.582c.106-.267.645-.621 1.23-.621 1.308 0-.209 2.017-1.1 1.21-.157-.143-.211-.385-.13-.589z"/><path d="m49.162 15.52c.281 0 .567-.059.83-.181.588-.272 1.255-1.121 1.27-1.904.022-1.132-1.255-1.575-2.452-1.125-.599.226-1.047.618-1.23 1.076v.001c-.397 1.001.304 2.133 1.582 2.133zm-.653-1.762c.245-.615 1.763-.858 1.753-.342-.007.356-.4.882-.689 1.015-.594.275-1.287-.108-1.064-.673z"/><path d="m54.506 15.34c.588-.272 1.254-1.121 1.27-1.904.022-1.131-1.252-1.576-2.452-1.124-.599.225-1.047.618-1.229 1.076-.237.593-.081 1.277.389 1.702.516.466 1.353.559 2.022.25zm-1.483-1.582c.242-.605 1.763-.856 1.753-.341-.014.731-1.027 1.471-1.622.931-.158-.144-.212-.386-.131-.59z"/><path d="m45.694 29.287c-.009-.263-.22-.474-.483-.482-1.435-.05-1.745-.062-2.326-.079-.146-1.025-.418-1.974-.805-2.816-.013-.029-.026-.059-.039-.087l1.572-1.544c.202-.199.2-.529-.011-.724-.956-.883-2.051-1.848-2.959-2.696-.193-.179-.504-.164-.696.013-.458.426-.911.846-1.362 1.275-.92-.544-1.932-.934-2.968-1.144l.018-2.206c.002-.317-.291-.539-.518-.503-1.339.047-2.672.132-4 .179-.263.009-.474.22-.482.483-.026.783-.052 1.566-.071 2.343-.909.306-1.772.735-2.573 1.278-.619-.595-1.238-1.189-1.857-1.776-.175-.165-.441-.183-.636-.043-.902.648-2.049 1.561-2.919 2.881-.13.197-.104.458.062.626l1.907 1.936c-.475.786-.846 1.603-1.107 2.438-.875.016-1.744.033-2.621.058-.239.007-.44.182-.479.417-.273 1.629-.285 2.896-.039 4.104.047.232.25.399.486.4l2.337.018c.2.985.556 1.916 1.062 2.774-.524.541-1.04 1.082-1.548 1.623-.163.173-.181.438-.043.632.947 1.336 1.832 2.239 2.871 2.931.197.13.458.106.627-.06l1.639-1.612c.835.499 1.753.892 2.736 1.175.016.752.033 1.509.057 2.259.007.238.182.438.417.477 1.398.232 2.724.309 4.105.029.231-.047.398-.249.4-.486l.017-1.953c1.143-.172 2.177-.51 3.085-1.008l1.337 1.356c.201.205.53.195.722-.01.894-.959 1.822-2.014 2.698-2.952.179-.192.179-.49 0-.682l-1.347-1.439c.407-.876.701-1.854.878-2.916l2.53.019c.328-.02.513-.26.503-.518-.046-1.351-.131-2.679-.177-3.988zm-3.28 3.485c-.001 0-.003 0-.004 0-.25 0-.462.185-.496.434-.167 1.251-.503 2.378-.998 3.349-.096.187-.064.414.079.567l1.264 1.351c-.653.709-1.384 1.529-2.026 2.227l-1.242-1.26c-.164-.166-.42-.196-.618-.075-.973.6-2.136.978-3.458 1.125-.251.028-.442.24-.445.493l-.017 1.973c-.879.131-1.814.118-2.94-.043-.021-.735-.037-1.475-.052-2.208-.005-.225-.159-.419-.376-.474-1.156-.295-2.215-.752-3.149-1.357-.195-.128-.456-.102-.622.063l-1.623 1.595c-.712-.529-1.36-1.201-2.039-2.113.501-.53 1.01-1.06 1.524-1.59.163-.167.188-.425.061-.621-.618-.951-1.02-2.008-1.198-3.143-.038-.242-.245-.421-.49-.423l-2.336-.018c-.129-.87-.112-1.803.051-2.937.855-.022 1.705-.038 2.563-.053.222-.004.415-.154.473-.368.269-.984.706-1.946 1.301-2.86.128-.197.102-.457-.063-.624l-1.893-1.921c.521-.707 1.191-1.356 2.104-2.045.617.587 1.234 1.18 1.851 1.774.188.18.481.187.675.017.037-.032.074-.058.187-.139.843-.585 1.764-1.03 2.736-1.32.208-.062.352-.251.357-.468.017-.737.039-1.48.063-2.224 1.016-.042 2.068-.102 3.011-.141l-.017 2.104c-.002.248.179.46.424.498 1.174.18 2.329.623 3.341 1.281.195.127.452.103.619-.06.431-.414.862-.818 1.305-1.23.799.736 1.483 1.341 2.234 2.028l-1.458 1.433c-.159.156-.195.398-.089.594.061.111.121.223.178.355.401.873.663 1.866.779 2.952.026.25.235.442.486.447.713.015 1.547.047 2.281.072.041 1 .101 2.04.141 3.002z"/><path d="m35.112 27.429c-1.322-.784-3.04-.571-4.38.543-1.365 1.135-1.901 2.813-1.364 4.275.534 1.456 2.043 2.469 3.607 2.469.12 0 .24-.006.359-.018 1.641-.166 3.106-1.472 3.482-3.105.371-1.607-.346-3.357-1.704-4.164zm-2.625.753.035.035c-.028.012-.06.011-.083.034l-.615.615-.262-.262c.263-.191.568-.354.905-.471.01.016.007.036.02.049zm-2.181 3.721c-.162-.441-.172-.873-.095-1.278l1.352 1.352-.75.75c-.218-.245-.395-.521-.507-.824zm5.536-.535c-.283 1.229-1.38 2.211-2.608 2.335-.728.078-1.477-.179-2.054-.635l.738-.738.15.15c.098.098.256.098.354 0s.098-.256 0-.354l-.15-.15.446-.446c.098-.098.098-.256 0-.354s-.256-.098-.353 0l-.446.446-1.546-1.547c.189-.452.485-.844.804-1.152l.296.296-.571.57c-.098.098-.098.256 0 .354s.256.098.354 0l.571-.571.758.758c.098.098.256.098.354 0s.098-.256 0-.354l-.758-.758.615-.616c.023-.023.022-.055.034-.083l.418.418-.243.243c-.098.098-.098.256 0 .354s.256.098.354 0l.243-.243.053.052c.098.098.256.098.354 0s.098-.256 0-.354l-.053-.052.302-.302c.098-.098.098-.256 0-.354s-.256-.098-.354 0l-.302.302-.585-.585c.127-.019.253-.042.382-.042.401 0 .812.096 1.206.33.974.584 1.507 1.907 1.237 3.082z"/><path d="m16.842 21.128.545-.545c.098-.098.098-.256 0-.354s-.256-.098-.354 0l-.545.545-.485-.485c-.098-.098-.256-.098-.353 0-.098.098-.098.256 0 .354l.485.485-1.09 1.09-.906-.906c-.098-.098-.256-.098-.354 0s-.098.256 0 .354l.906.906-.88.88-.695-.696c-.098-.098-.256-.098-.353 0-.098.098-.098.256 0 .354l.695.696-1.879 1.879c-.098.098-.098.256 0 .354s.256.098.354 0l1.879-1.879 1.098 1.098c.098.098.256.098.354 0s.098-.256 0-.353l-1.098-1.098.88-.88.614.614c.098.098.256.098.353 0 .098-.098.098-.256 0-.354l-.614-.614 1.09-1.09.949.949c.098.098.256.098.353 0 .098-.098.098-.256 0-.354z"/><path d="m53.851 32.62-.426.426-.365-.365c-.098-.098-.256-.098-.354 0s-.098.256 0 .354l.365.365-1.03 1.03-.485-.485c-.098-.098-.256-.098-.353 0-.098.098-.098.256 0 .354l.485.485-1.602 1.601-1.056-1.056c-.098-.098-.256-.098-.353 0-.098.098-.098.256 0 .354l1.056 1.056-1.839 1.839c-.098.098-.098.256 0 .354s.256.098.354 0l1.839-1.839.519.519c.098.098.256.098.354 0s.098-.256 0-.354l-.519-.519 1.602-1.601.756.756c.098.098.256.098.354 0s.098-.256 0-.354l-.756-.756 1.03-1.03.293.293.011.034c.044.134.19.202.316.159.131-.044.202-.185.159-.316l-.03-.09c-.012-.037-.033-.071-.06-.098l-.338-.336.426-.426c.098-.098.098-.256 0-.354-.098-.097-.256-.097-.353 0z"/></g></svg>