<svg id="Layer_1" enable-background="new 0 0 66 66" height="512" viewBox="0 0 66 66" width="512" xmlns="http://www.w3.org/2000/svg"><g><path d="m21.637 28.389c.195.195.512.195.707 0s.195-.512 0-.707l-2.626-2.626c-.195-.195-.512-.195-.707 0s-.195.512 0 .707z"/><path d="m44.353 28.389 2.626-2.625c.195-.195.195-.512 0-.707s-.512-.195-.707 0l-2.626 2.625c-.195.195-.195.512 0 .707s.512.195.707 0z"/><path d="m48.558 39.54h3.714c.276 0 .5-.224.5-.5s-.224-.5-.5-.5h-3.714c-.276 0-.5.224-.5.5 0 .277.224.5.5.5z"/><path d="m13.719 39.54h3.714c.276 0 .5-.224.5-.5s-.224-.5-.5-.5h-3.714c-.276 0-.5.224-.5.5 0 .277.224.5.5.5z"/><path d="m32.996 23.978c.276 0 .5-.224.5-.5v-3.714c0-.276-.224-.5-.5-.5s-.5.224-.5.5v3.714c0 .276.223.5.5.5z"/><path d="m32.709 33.227-1.199 1.199-.761-.761.745-.745c.098-.098.098-.256 0-.354s-.256-.098-.353 0l-.745.745-1.046-1.046.748-.749c.098-.098.098-.256 0-.354s-.256-.098-.354 0l-.748.749-.423-.423c-.098-.098-.256-.098-.353 0-.098.098-.098.256 0 .354l.423.423-.789.789-.48-.48c-.098-.098-.256-.098-.354 0s-.098.256 0 .353l.48.48-1.075 1.075-.332-.332.852-.852c.098-.098.098-.256 0-.354s-.256-.098-.354 0l-.852.852-.423-.423c-.098-.098-.256-.098-.354 0s-.098.256 0 .354l.423.423-.708.708c-.098.098-.098.256 0 .354.097.097.255.098.353 0l.708-.708.332.332-1.394 1.395c-.098.098-.098.256 0 .354.097.097.255.098.353 0l1.394-1.395 1.652 1.652c.097.097.255.098.354 0 .098-.098.098-.256 0-.354l-.252-.252 1.075-1.075.943.944c.099.099.257.097.354 0 .054-.053.071-.124.066-.194.003 0 .005.003.008.003.064 0 .128-.024.177-.073l.709-.709.559.559c.097.097.255.098.354 0 .098-.098.098-.256 0-.354l-.559-.559 1.199-1.199c.098-.098.098-.256 0-.354-.097-.096-.255-.096-.353.002zm-3.713-.608 1.046 1.047-.789.789-1.046-1.047zm-1.171 3.264-1.047-1.047 1.075-1.075 1.046 1.047zm2.623-.395c-.031.032-.036.074-.047.114l-.794-.794.789-.789.761.761z"/><path d="m8.856 55.336c14.741.286 10.784.166 15.504.367.156.347.353.689.62 1.003.785.892 1.836 1.451 2.831 1.88-1.146 3.45 2.003 6.837 5.522 6.165 2.13-.41 4.083-2.472 3.877-5.085 1.204-.48 2.19-1.23 2.845-2.217.21-.324.367-.679.498-1.047 3.68.15 7.355.307 11.032.466l5.538.238c.397.017.798.029 1.196.029 1.673 0 3.309-.225 4.536-1.303 1.705-1.498 1.858-3.962 1.869-6.152l.271-38.19c.059-7.213-2.11-9.631-9.863-9.744-13.76-.189-27.521-.38-41.281-.579-7.364-.087-11.348 1.559-11.859 11.576-.089.151-.103.296-.022.463-.029.696.043-1.711-.955 33.425-.198 6.877 2.053 8.588 7.841 8.705zm16.382-2.22c.617-1.06 2.112-1.286 3.369-1.361h.004c3.208-.204 6.343-.115 9.481.558 1.489.348 1.958 1.855 1.657 3.284l-1.166-1.166.474-.474c.098-.098.098-.256 0-.354s-.256-.098-.354 0l-.478.478c-.098-.086-.245-.088-.339.006s-.092.241-.006.339l-.511.511c-.098.098-.098.256 0 .353.097.097.255.098.354 0l.506-.506.592.592c-.026.012-.056.011-.078.032l-.902.902-.783-.783c-.098-.098-.256-.098-.354 0s-.098.256 0 .354l.783.783-.606.606-.623-.623c.057-.096.059-.216-.023-.298s-.202-.079-.298-.023l-.134-.134c-.098-.098-.256-.098-.354 0s-.098.256 0 .354l.118.118-.957.957-.58-.58c-.06-.06-.14-.07-.218-.056l.075-.075c.098-.098.098-.256 0-.354s-.256-.098-.354 0l-1.083 1.083-.155-.155c-.098-.098-.256-.098-.354 0s-.098.256 0 .354l.155.155-.746.746c-.017.017-.015.042-.026.063-1.579-.435-4.507-1.523-5.589-2.75-.677-.8-1.033-2.044-.497-2.936zm19.307-12.62-.701-.701c.075-.098.077-.234-.012-.324-.09-.09-.226-.086-.324-.012l-.555-.555c-.098-.098-.256-.098-.354 0s-.098.256 0 .354l.546.547-.619.619c-.098.098-.098.256 0 .354.096.096.255.099.354 0l.619-.619.922.922c-.338 1.287-.916 2.498-1.735 3.528v.001c-.023.029-.051.056-.074.085-.012-.032-.013-.068-.039-.094l-1.287-1.287 1.346-1.346.406.406-.872.872c-.098.098-.098.256 0 .354.097.097.255.098.353 0l.885-.885c.041.027.084.055.132.055.063 0 .128-.024.177-.073.085-.085.082-.212.019-.309l.271-.271c.098-.098.098-.256 0-.354s-.256-.098-.354 0l-.258.258-.457-.458c0-.065-.023-.129-.073-.179-.049-.049-.114-.073-.178-.073l-.38-.38c-.097-.097-.255-.099-.354 0-.098.098-.098.256 0 .354l.329.329-1.346 1.346-.221-.221c-.098-.098-.256-.098-.354 0s-.098.256 0 .354l.222.222-1.233 1.234c-.044.044-.062.102-.066.159l-.376-.376c-.099-.099-.257-.097-.354 0-.098.098-.098.256 0 .354l1.342 1.342-1.105 1.105-1.31-1.311.468-.468c.098-.098.098-.256 0-.354s-.256-.098-.354 0l-.468.468-.009-.009c-.098-.098-.256-.098-.354 0s-.098.256 0 .354l.009.009-1.111 1.111-.985-.985c-.098-.098-.256-.098-.354 0s-.098.256 0 .354l.985.985-1.28 1.28-1.342-1.342c-.03-.03-.071-.033-.108-.045l.762-.762c.098-.098.098-.256 0-.354s-.256-.098-.354 0l-3.985 3.985-.51-.51c-.099-.098-.257-.098-.354 0-.098.098-.098.256 0 .354l.51.51-.382.382c-.388.031-.809.087-.995.12-.81-1-4.068-5.632-5.256-8.847-2.059-5.654-.256-10.313 4.717-12.959 9.441-4.991 19.636 2.382 17.818 11.397zm-11.927 10.18 1.407-1.407 1.31 1.31-.248.248c-.672-.067-1.53-.126-2.469-.151zm-2.962.027-.304-.304 1.129-1.129 1.391 1.392c-.825-.007-1.588.014-2.216.041zm2.629-3.237c.012.038.015.078.045.108l1.342 1.342-1.418 1.418-1.419-1.418zm4.684 1.48-1.28 1.28-1.31-1.31 1.28-1.28zm-.957-1.664 1.111-1.111 1.31 1.31-1.111 1.111zm-.286 3.614.027-.027c.135-.011.213-.09.224-.224l1.345-1.345.816.815c-.168.308-.429.785-.594 1.063-.57-.111-1.277-.217-1.818-.282zm2.665-1.235-.715-.715 1.111-1.111.335.335c.088.088.142.071.225.053-.311.402-.377.412-.956 1.438zm1.153-1.678c-.003-.06-.023-.121-.069-.167l-.334-.335 1.105-1.105.381.381c.005.005.013.003.018.007-.384.386-.75.793-1.101 1.219zm1.442-1.564c-.091-.103-.29-.298-.387-.395l.222-.222c.098-.098.098-.256 0-.354s-.256-.098-.354 0l-.222.222-.706-.706c.058-.004.115-.022.159-.066l1.233-1.234 1.287 1.287c.033.033.078.039.12.05-.29.334-.678.753-1.352 1.418zm-.165 8.214.466.466-.319.319c-.06-.003-.121-.005-.181-.008.034-.264.044-.522.034-.777zm2.254-.614 1.553 1.553c-.829-.035-1.657-.071-2.486-.105.034-.089.033-.188-.039-.26l-.108-.108zm-5.24 4.206-.6-.6.606-.607.676.676c-.208.194-.435.37-.682.531zm-7.413 2.061c-.002.002-.001.006-.004.009l-.602-.602.233-.233c.028.009.058.018.086.027.147.049.295.096.446.142.001 0 .003.001.004.001l.246.246zm-1.524 1.207c-.028-.065-.064-.128-.088-.194l.141.141zm.629-2.217-.064.064-.14-.14c.001 0 .203.075.204.076zm2.334-.339.589-.589.831.831c-.407-.042-.623-.055-1.42-.242zm1.816-1.541.58.58-.736.736-.718-.718.817-.817c-.013.078-.003.158.057.219zm2.851.229-.783.783c-.095.095-.094.245-.004.343l-.776-.776.957-.957zm-1.109 1.513c-.714.113-1.003.101-1.46.086-.01-.045-.018-.092-.053-.127l-.031-.031.736-.736zm-2.014 1.063c.054.005.108.005.162.008.019.001.037.004.056.006l-.102.102zm2.589-1.196-.239-.239c.111.102.255.084.344-.004l.783-.783.516.516c-.672.354-.812.361-1.404.51zm-2.85 4.764c-1.547.293-3.217-.462-4.017-1.798l.177-.177.135.135c.097.097.255.098.353 0s.098-.256 0-.354l-.135-.135.032-.032c.098-.098.098-.256 0-.354-.099-.098-.257-.098-.354 0l-.032.032-.708-.708c-.036-.373-.002-.748.08-1.119l.432.432-.398.397c-.098.098-.098.256 0 .354.099.099.257.096.354 0l.398-.397.631.631c.097.097.255.098.354 0 .006-.006.004-.016.01-.023.122.089.236.07.32-.014l.41-.41.381.381c.097.097.255.098.354 0 .098-.098.098-.256 0-.354l-.364-.364c.28.067.569.127.865.178l-.24.24c-.098.098-.098.256 0 .354.097.097.255.098.354 0l.313-.313.708.708c.097.097.255.098.353 0s.098-.256 0-.354l-.036-.036.434-.434h.009c.019 0 .037.002.055.002l.187.187c-.004.069.015.138.067.191.049.049.112.073.177.073.005 0 .009-.005.014-.006l.141.14c.097.097.255.098.353 0s.098-.256 0-.353l-.093-.093.23-.231c.073-.011.386-.073.419-.08.123-.025.25-.04.37-.071.03 1.854-1.408 3.45-3.093 3.775zm6.074-6.869c-.102.154-.229.294-.353.436l-.671-.671.902-.902c.022-.022.02-.052.032-.078l.458.458c-.099.266-.216.523-.368.757zm6.631-1.276.968-.968 1.053 1.053c-.674-.029-1.348-.057-2.021-.085zm7.723.328-1.388-.059-1.431-1.431 1.717-1.717 2.154 2.155zm1.406-.699.793.793-1.52-.065zm-3.532.608c-.669-.029-1.338-.056-2.007-.085l.961-.961zm5.721.245-.657-.028-1.178-1.178 1.956-1.955 2.274 2.274-.54.54c-.098.098-.098.256 0 .354.001.001.004.001.005.002-.609.03-1.238.018-1.86-.009zm4.903-6.104-1.376 1.376c-.098.098-.098.256 0 .354.049.049.112.073.177.073.064 0 .128-.024.177-.073l1.376-1.376.836.836c.049.049.112.073.177.073.064 0 .128-.024.177-.073s.073-.112.073-.176c-.07 1.19-.279 2.358-.844 3.272l-.821-.821 1.217-1.217c.098-.098.098-.256 0-.354s-.256-.098-.354 0l-1.217 1.217-2.274-2.274 1.757-1.757zm-.757 3.464-1.398 1.398-2.274-2.274 1.398-1.398zm-1.398 2.106.384.384c-.291.061-.591.106-.9.133zm.941.234-.588-.588 1.398-1.398.881.88c-.11.132-.22.264-.352.38-.385.339-.843.566-1.339.726zm2.951-17.752-.61-.61c-.024-.024-.058-.024-.088-.036l.707-.707zm-.019 2.768-.533-.533.541-.541zm-.021 3.003-.631-.631.64-.641zm-.026 3.559-.606-.606.615-.615zm-6.228-44.522c-.052.095-.055.211.026.292l.979.979-1.849 1.849-1.302-1.302 1.85-1.85c.1.008.197.022.296.032zm.493.052c.502.063.987.154 1.455.274l-.591.591zm2.007.43c.603.2 1.161.469 1.658.829l-1.203 1.202-1.243-1.243zm-3.465-.552-1.534 1.534-1.271-1.27.325-.325c.35.005.701.01 1.051.015.476.006.954.022 1.429.046zm-6.897 1.607 1.706-1.706c.445.006.889.013 1.334.019l.345.345-2.364 2.363zm-12.157-1.901c.599.008 1.197.017 1.796.025l.017.016-.896.896-.927-.927zm2.526.035c.61.009 1.219.017 1.829.026l-.908.908-.927-.927zm5.576.079c.55.007 1.1.016 1.65.023.011.04.016.082.047.113l.026.026-1.802 1.802-.943-.943zm-1.376.668-.697-.697c.458.006.917.013 1.375.019zm3.933-.632c.836.011 1.671.024 2.507.035l-1.363 1.363-1.271-1.271zm-34.315-.482c7.639.111 15.278.215 22.917.321l.021.021-1.337 1.337c-.098.098-.098.256 0 .354.097.097.255.098.354 0l1.337-1.337.927.927-.35.351c-.098.098-.098.256 0 .354.097.097.255.098.353 0l.351-.351.191.191c.098.097.256.098.354 0s.098-.256 0-.353l-.191-.191.896-.896.927.927-.544.544c-.098.098-.098.256 0 .353.097.097.255.098.354 0l.544-.544 1.239 1.239c.097.097.255.098.354 0 .098-.098.098-.256 0-.353l-1.241-1.24 1.252-1.252c.087.001.173.002.26.004l1.061 1.061-.969.968c-.098.098-.098.256 0 .353.099.099.257.096.354 0l.969-.968.943.943-.186.186c-.098.098-.098.256 0 .353.097.097.255.098.354 0l.185-.185 1.54 1.54c.097.097.255.098.354 0 .098-.098.098-.256 0-.354l-1.54-1.54 1.802-1.802 1.271 1.271-1.556 1.556c-.098.098-.098.256 0 .354.097.097.255.098.354 0l1.556-1.556 3.001 3.001c.097.097.255.098.354 0 .098-.098.098-.256 0-.353l-1.627-1.626 2.364-2.364 1.27 1.27-2.167 2.167c-.098.098-.098.256 0 .354.097.097.255.098.354 0l2.167-2.167 1.302 1.302-.688.688c-.098.098-.098.256 0 .354.097.097.255.098.354 0l.688-.688.772.772c.097.097.255.098.354 0 .098-.098.098-.256 0-.353l-.772-.772 1.849-1.849 1.243 1.243-1.886 1.885c-.098.098-.098.256 0 .353.099.099.257.097.354 0l1.886-1.885.76.76c.097.097.255.098.354 0 .098-.098.098-.256 0-.353l-.76-.76 1.231-1.231c.346.309.518.414.936 1.13l-.67.67c-.098.098-.098.256 0 .353.097.097.255.098.354 0l.557-.557c.715 1.552.782 3.491.767 5.386l-.007.924h-.367c.093-.098.094-.252-.002-.348l-.896-.896.851-.851c.023-.012.051-.01.07-.029s.017-.047.029-.07l.154-.154c.098-.098.098-.256 0-.354s-.256-.098-.353 0l-.026.026-1.162-1.162.71-.713c.098-.098.098-.256 0-.354s-.256-.098-.354 0l-.713.714-.729-.729c-.098-.097-.256-.099-.354 0-.098.098-.098.256 0 .353l.729.73-.448.448c-.098.098-.098.256 0 .354.096.096.255.099.354 0l.448-.448 1.161 1.162-.724.724-.979-.98c-.097-.097-.255-.099-.354 0-.098.098-.098.256 0 .353l.979.98-.792.792c-.098.098-.098.256 0 .353.097.097.255.098.354 0l.792-.792.891.891-60.258.084c.502-9.235 4.202-10.398 10.835-10.324zm-11.823 44.494c.017-.597.923-32.577.944-33.171l61.023-.084-.155 21.881-.709-.709c-.098-.098-.256-.098-.354 0s-.098.256 0 .354l1.057 1.057-1.296 1.296c-.098.098-.098.256 0 .354.049.049.113.073.177.073.033 0 .06-.025.09-.038.01.044.017.089.051.123l.958.959-.001.304c-.012.008-.029.006-.04.017l-.859.859-.182-.182c-.098-.098-.256-.098-.354 0s-.098.256 0 .354l.182.182-.341.341c-.098.098-.098.256 0 .354.049.049.112.073.177.073.064 0 .128-.024.177-.073l.341-.341.779.779c.028.028.067.031.103.043l-.003.435c-.033.012-.07.014-.097.04l-.902.902-.222-.221c-.099-.099-.257-.097-.353 0-.098.098-.098.256 0 .354l.221.221-.778.779c-.098.098-.098.256 0 .354.049.049.113.073.177.073.065 0 .128-.024.177-.073l.778-.779.98.979-.007 1.002c-.047.009-.096.018-.133.055l-.84.84-.619-.619c-.098-.098-.256-.098-.354 0s-.098.256 0 .354l.619.619-.619.619c-.098.098-.098.256 0 .354.049.049.112.073.177.073.064 0 .128-.024.177-.073l.619-.619.886.886c.019.019.046.017.069.029l-.012 1.629c-.002.44-.013.891-.039 1.34 0-.064-.024-.128-.073-.176l-.836-.836.861-.861c.098-.098.098-.256 0-.354s-.256-.098-.354 0l-.861.861-1.694-1.694c-.098-.098-.256-.098-.354 0s-.098.256 0 .354l.42.42-1.757 1.757-.221-.221c-.098-.098-.256-.098-.353 0-.098.098-.098.256 0 .354l.221.221-1.398 1.398-1.973-1.973c-.098-.098-.256-.098-.354 0s-.098.256 0 .354l1.973 1.973-1.955 1.955-2.155-2.155 3.101-3.101c.098-.098.098-.256 0-.354s-.256-.098-.354 0l-3.101 3.101-.182-.182c-.097-.098-.255-.098-.354 0-.098.098-.098.256 0 .354l.182.182-1.714 1.713-1.137-1.137c-.098-.098-.256-.098-.354 0s-.098.256 0 .354l1.137 1.137-1.286 1.286c-.052-.002-.104-.004-.156-.007-.001-.002-.001-.004-.002-.006l-1.432-1.432 2.233-2.233c.098-.098.098-.256 0-.354s-.256-.098-.354 0l-2.233 2.233-.58-.58c-.098-.098-.256-.098-.354 0s-.098.256 0 .354l.579.58-1.293 1.293c-.008 0-.016-.001-.023-.001.03-.087.028-.182-.042-.252l-1.677-1.677 1.207-1.207c.098-.098.098-.256 0-.353-.098-.098-.256-.098-.354 0l-2.641 2.641-.899-.898c-.007-.007-.019-.005-.027-.011-.304-1.304-1.064-2.075-2.165-2.418 2.554-4.499 3.022-3.793 4.919-6.188 7.677-9.655-4.397-23.788-17.209-17.018-5.37 2.858-7.435 8.016-5.186 14.187 1.189 3.219 4.249 7.601 5.143 8.779-.84.305-1.463.781-1.84 1.432-.359.598-.473 1.332-.347 2.079-.222-.009-5.728-.285-5.924-.18-3.075-.056-6.151-.112-9.23-.171-5.167-.109-7.043-1.333-6.858-7.68z"/><path d="m10.738 10.528c.023 0 .044.001.066.001 2.102 0 3.94-1.934 3.929-3.782-.005-.809-.401-1.489-1.115-1.916-1.753-1.044-4.442.094-5.259 1.809-.85 1.78.221 3.843 2.379 3.888zm.021-1c-.207-.004-.402-.048-.588-.11l.809-.808.734.734c-.322.115-.644.178-.955.184zm1.443-.403-.868-.868.758-.758c.003-.003.002-.007.004-.01l.236.236-.285.285c-.098.098-.098.256 0 .354.096.096.254.099.354 0l.285-.285.214.212c.049.049.113.073.177.073.008 0 .014-.008.021-.009-.333.425-.59.602-.896.77zm1.103-1.063c-.01-.044-.017-.09-.052-.124l-.214-.214.666-.667c-.056.344-.202.691-.4 1.005zm-4.044-.991c0-.001 0-.001 0 0 .581-1.218 2.636-2.105 3.844-1.381.312.186.504.426.584.728-.03.012-.065.012-.089.037l-.914.915-.605-.604c-.098-.099-.256-.097-.354 0-.098.098-.098.256 0 .353l.021.021c-.003.003-.007.001-.01.004l-.758.759-.072-.072c-.098-.098-.256-.098-.354 0s-.098.256 0 .353l.072.072-.93.93c-.689-.492-.769-1.414-.435-2.115z"/><path d="m21.766 6.946c-.117-1.19-1.046-2.312-2.21-2.665-1.883-.564-3.484 1.027-3.616 3.039-.06.936.203 1.738.739 2.261 1.655 1.613 5.341-.046 5.087-2.635zm-4.124 2.105.53-.53.65.649c-.414.083-.841.061-1.18-.119zm3.129-2.007c.034.341-.05.657-.218.949l-.465-.465.64-.641c.011.053.038.104.043.157zm-1.506-1.806c.548.167 1.018.605 1.284 1.121l-.814.815-.587-.587c-.098-.098-.256-.098-.354 0s-.098.256 0 .354l.587.587-.303.303c-.098.098-.098.256 0 .353.096.097.255.099.354 0l.303-.303.506.506c-.289.292-.565.473-.881.613l-.834-.833.258-.258c.098-.098.098-.256 0-.353-.098-.098-.256-.098-.354 0l-.258.258-.054-.054c-.098-.099-.257-.097-.354 0-.098.098-.098.256 0 .354l.054.054-.552.552c-.239-.32-.363-.788-.328-1.334.09-1.374 1.082-2.521 2.327-2.148z"/><path d="m25.911 9.75c.02 0 .039.001.059.001 1.244 0 2.568-.911 3.084-2.833.291-1.087-.059-2.034-.934-2.533-1.48-.844-3.869-.07-4.344 2.496-.37 1.986 1.047 2.842 2.135 2.869zm.023-1c-.227-.005-.445-.075-.635-.183l.561-.561.635.635c-.187.064-.377.107-.561.109zm-1.176-1.686c.327-1.759 1.865-2.381 2.865-1.81.477.271.637.758.463 1.406-.045.168-.115.304-.174.454l-.456-.456.558-.558c.098-.098.098-.256 0-.353-.099-.099-.257-.097-.354 0l-.558.558-.462-.463c-.098-.098-.256-.098-.353 0-.098.098-.098.256 0 .353l.463.463-.214.214c-.098.098-.098.256 0 .353.096.096.255.099.354 0l.214-.214.587.589c-.204.349-.379.585-.718.812l-.797-.797c.016-.079.007-.161-.054-.223-.061-.061-.143-.07-.223-.054l-.181-.181c-.098-.098-.256-.098-.354 0s-.098.256 0 .353l.143.143-.578.577c-.167-.231-.289-.531-.171-1.166z"/><path d="m6.443 19.976h.88v2.062h-.767c-.138 0-.25.112-.25.25s.112.25.25.25h.767v2.25h-.692c-.138 0-.25.112-.25.25s.112.25.25.25h.691v2.1h-.578c-.138 0-.25.112-.25.25s.112.25.25.25h.579v1.828c0 .138.112.25.25.25s.25-.112.25-.25v-1.828h.807c.138 0 .25-.112.25-.25s-.112-.25-.25-.25h-.807v-2.1h.735c.138 0 .25-.112.25-.25s-.112-.25-.25-.25h-.735v-2.25h1.071c.138 0 .25-.112.25-.25s-.112-.25-.25-.25h-1.071v-2.062h1.106c.138 0 .25-.112.25-.25s-.112-.25-.25-.25h-1.106v-2.236c0-.138-.112-.25-.25-.25s-.25.112-.25.25v2.236h-.88c-.138 0-.25.112-.25.25s.112.25.25.25z"/></g></svg>