<svg id="Layer_1" enable-background="new 0 0 66 66" height="512" viewBox="0 0 66 66" width="512" xmlns="http://www.w3.org/2000/svg"><g><path d="m4.365 27.939c.255 2.571 2 2.017 4.477 1.975 1.893-.032 2.835-.712 2.701-3.213-.202-3.769-1.869-3.776-3.764-3.713-.389.012-.756.024-.995-.014-1.751-.28-2.863.478-2.658 2.559zm.755-2.506c-.04-.401-.055-.777.065-1.047l.663.663c.056.102-.035.02.087.087l.471.471-1.154 1.155zm5.424 1.322c.107 1.984-.461 2.138-1.719 2.159-3.127.054-3.331.285-3.464-1.074l-.043-.435 1.453-1.454c.123.09.237.07.321-.014.098-.098.098-.256 0-.354l-.06-.06c-.025-.129-.058-.162-.188-.188l-.421-.421.92-.92c.153-.002.306-.004.467-.009 1.682-.051 2.58-.12 2.734 2.77zm-4.376-2.831c.195 0 .366.022.457.037.013.002.03.001.043.003l-.599.599-.524-.524c.193-.083.419-.115.623-.115z"/><path d="m11.826 27.927c.102 1.391.501 2.082 1.91 2.051 3.284-.077 5.014.539 4.862-3.271-.154-3.903-1.42-3.784-3.792-3.72-.403.01-.859.022-1.009-.01-1.305-.284-2.308.373-2.148 2.541zm2.077-2.064-1.143 1.144-.115-1.56c-.018-.242-.036-.561-.002-.844zm3.695.885c.101 2.584-.267 2.145-3.886 2.231-.423.011-.582-.033-.685-.178-.15-.208-.183-.653-.205-.947l-.014-.189 1.448-1.449.097.097c.098.098.256.098.353 0 .098-.098.098-.256 0-.354l-.144-.144c.005-.07-.013-.14-.066-.194-.054-.054-.124-.071-.194-.066l-.223-.223c.115-.108 1.249-1.244 1.36-1.356 1.422-.009 2.04-.211 2.159 2.772zm-4.314-2.828c.091 0 .191.012.301.036.239.052.598.049 1.136.034l-.986.986c-.002.002-.001.005-.003.008l-.883-.883c.105-.109.24-.181.435-.181z"/><path d="m21.395 29.979 2.734-.065c1.892-.045 2.203-1.3 2.128-3.206-.154-3.886-1.402-3.785-3.792-3.72-.403.01-.859.022-1.009-.01-1.303-.283-2.308.373-2.148 2.54.222 3.02-.002 4.506 2.087 4.461zm3.863-3.231c.069 1.769-.152 2.144-1.152 2.167-3.681.087-3.516.403-3.636-1.232l.865-.865.769.769c.098.098.256.098.354 0s.098-.256 0-.354l-.77-.769.443-.443c.03-.03.033-.07.045-.108l.079.079c.098.098.256.098.353 0 .098-.098.098-.256 0-.354l-.811-.812.841-.841c1.941-.047 2.5-.24 2.62 2.763zm-4.014-2.792c.162.035.385.044.673.042l-.474.474-.543-.543c.016-.001.026-.009.042-.009.092 0 .193.012.302.036zm-.807.216.654.653-.042.042c-.098.098-.098.256 0 .354.1.1.241.113.395-.042l.442.442c-.038.012-.078.015-.108.045l-.443.443-.369-.369c-.098-.098-.256-.098-.354 0s-.098.256 0 .354l.369.369-.56.561-.116-1.578c-.029-.388-.076-.949.132-1.274z"/><path d="m27.145 27.927c.102 1.391.501 2.082 1.91 2.051l2.734-.065c1.892-.045 2.203-1.3 2.128-3.206-.154-3.896-1.415-3.785-3.792-3.72-.403.01-.859.022-1.009-.01-1.304-.283-2.308.373-2.148 2.54zm.819-2.481c-.013-.183-.03-.412-.023-.636l.412.412-.378.378zm.178 2.408-.024-.33.331.331-.281.281c-.012-.101-.02-.198-.026-.282zm2.009-3.866c2.1-.054 2.646-.264 2.767 2.76.069 1.769-.152 2.144-1.152 2.167l-2.734.065c-.367.009-.613.012-.744-.304.028-.012.06-.012.083-.035l.432-.432.109.109c.233.233.589-.118.354-.353l-.109-.109.906-.906c.098-.098.098-.256 0-.354s-.256-.098-.354 0l-.906.906-.74-.74-.047-.641c.012.002.021.014.033.014.064 0 .128-.024.177-.073l.484-.484.781.781c.233.233.589-.118.354-.354l-.781-.781.548-.549.14.14-.138.138c-.098.098-.098.256 0 .354s.256.098.353 0l.138-.138.16.16c.098.098.256.098.354 0s.098-.256 0-.354l-.16-.16.324-.324c.098-.098.098-.256 0-.353-.098-.098-.256-.098-.354 0l-.324.324-.462-.462c.149-.003.314-.007.508-.012zm-1.548-.068c.086 0 .182.012.286.034l.366.366-.548.549-.61-.61c-.012-.012-.03-.009-.044-.018.005-.011.007-.027.012-.037.101-.189.281-.284.538-.284z"/><path d="m34.805 27.927c.102 1.39.497 2.082 1.909 2.051l2.734-.065c1.891-.045 2.204-1.299 2.128-3.205-.153-3.896-1.415-3.785-3.792-3.72-.403.01-.858.022-1.01-.01-1.295-.278-2.308.362-2.148 2.54zm.974-.377-.085-1.153.619.619zm3.324-3.561c-.137.027-.274.196-.391.314l-.326-.326c.233-.002.483.001.717.012zm-1.848.009-.379.378-.435-.435c.041.006.077.005.122.014.165.036.393.045.692.043zm-1.395.069.662.662-.431.431c-.098.098-.098.256 0 .353.098.098.256.098.354 0l.431-.431.747.747c.098.098.256.098.354 0s.098-.256 0-.354l-.747-.745.511-.511c.035-.035.043-.082.053-.127l.564.564-.002.001c-.098.098-.098.256 0 .354s.256.098.354 0l.001-.002.337.337c.098.098.256.098.353 0 .098-.098.098-.256 0-.354l-.337-.337.259-.259c.119-.119.112-.344-.12-.403 1 .062 1.286.565 1.372 2.754.071 1.766-.151 2.143-1.151 2.166l-2.735.065c-.615.014-.768-.057-.855-.779 0 0 .001 0 .002-.001l.83-.83.388.388c.098.098.256.098.353 0 .098-.098.098-.256 0-.354l-.388-.388.53-.53c.232-.232-.119-.588-.354-.354l-.53.53-1.019-1.019c-.003-.003-.007-.001-.01-.004l-.014-.194c-.03-.435-.093-1.095.238-1.376z"/><path d="m42.464 27.926c.102 1.403.514 2.083 1.909 2.052l2.734-.065c1.897-.045 2.203-1.31 2.127-3.206-.153-3.873-1.386-3.786-3.791-3.72-.402.01-.859.022-1.01-.01-1.301-.28-2.308.37-2.147 2.54zm.97-.439-.065-.881.473.473zm4.802-.739c.071 1.766-.151 2.143-1.151 2.166l-2.735.065c-.623.014-.783-.056-.865-.852.008-.006.02-.004.028-.012l.683-.683.138.139c.098.098.256.098.354 0s.098-.256 0-.354l-.139-.138.397-.397c.098-.098.098-.256 0-.353-.098-.098-.256-.098-.354 0l-.397.397-.883-.883-.029-.397c-.025-.335-.053-.816.069-1.142l.427.427-.389.389c-.098.098-.098.256 0 .354s.256.098.353 0l.39-.389.922.923c.049.049.113.073.177.073s.128-.024.177-.073c.098-.098.098-.256 0-.354l-.922-.923.532-.532c.006-.006.004-.016.009-.023l.712.712-.085.085c-.098.098-.098.256 0 .354s.256.098.354 0l.085-.085.286.286c.098.098.256.098.354 0s.098-.256 0-.354l-.286-.286.312-.312c.098-.098.098-.256 0-.354s-.256-.098-.354 0l-.312.312-.548-.548c2.015-.051 2.57-.254 2.69 2.762zm-4.314-2.828c.091 0 .191.012.301.036.082.018.184.027.297.034l-.387.386-.412-.412c.064-.018.122-.044.201-.044z"/><path d="m50.327 27.926c.102 1.403.514 2.083 1.909 2.052.914-.022 6.626-.043 7.537-.065 1.891-.045 2.204-1.299 2.127-3.205-.167-4.263-1.246-3.783-7.299-3.72-.991.011-2.116.024-2.305-.01-1.305-.281-2.308.374-2.147 2.54zm.984-.262-.068-.925.497.497zm8.941-3.508c.569.528.624 1.919.65 2.592.071 1.766-.151 2.143-1.151 2.166-.913.022-6.628.043-7.537.065-.621.014-.769-.063-.855-.773.004 0 .007.004.011.004.064 0 .128-.024.177-.073l.547-.547.227.227c.098.098.256.098.353 0 .098-.098.098-.256 0-.354l-.227-.227.544-.544c.098-.098.098-.256 0-.354s-.256-.098-.354 0l-.544.544-.906-.906-.039-.531c-.028-.379-.073-.935.12-1.261l.472.472-.442.442c-.098.098-.098.256 0 .354s.256.098.354 0l.442-.442 1.169 1.169c.098.098.256.098.354 0s.098-.256 0-.354l-1.169-1.169.655-.656h.077l.898.898-.159.159c-.098.098-.098.256 0 .354s.256.098.354 0l.159-.159.36.36c.098.098.256.098.354 0s.098-.256 0-.354l-.361-.36.619-.619c.082-.082.08-.202.023-.298.103-.001.205-.002.312-.003l.855.855c.098.098.256.098.354 0s.098-.256 0-.354l-.504-.504c1.633-.003 3.41.025 3.808.181zm-5.262-.171-.559.56-.548-.548c.531-.006.64-.007 1.107-.012zm-2.904-.029c.068.015.174.025.321.032l-.315.315-.369-.369c.023-.002.038-.014.062-.014.091 0 .191.012.301.036z"/><path d="m4.365 35.728c.153 1.543.77 2.067 2.393 2.039 1.29-.022 5.326-.043 6.585-.064 1.889-.034 2.835-.707 2.701-3.213-.072-1.341-.289-2.679-1.379-3.371-.539-.343-2.185-.382-5.668-.341-2.876.036-5.193-.72-4.872 2.544zm2.65-1.419-1.007 1.007-.62-.62c-.035-.035-.081-.042-.126-.052l-.142-1.423c-.029-.295-.043-.574-.005-.812zm-1.655 1.319-.028-.282.323.322-.258.258c-.015-.095-.027-.195-.037-.298zm3.649-3.851c.342-.004.747-.009 1.176-.011l.017.017-.62.62c-.098.098-.098.256 0 .354s.256.098.354 0l.62-.62.855.855c.098.098.256.098.354 0s.098-.256 0-.354l-.855-.855.019-.019c1.42.001 2.885.038 3.205.201.705.451.855 1.506.912 2.579.153 2.824-.463 2.088-8.305 2.224-.443.009-1 .019-1.207-.367.06-.003.119-.023.165-.068l.309-.309.461.461c.098.098.256.098.353 0 .098-.098.098-.256 0-.354l-.461-.461 1.219-1.219c.098-.098.098-.256 0-.354-.034-.034-.079-.04-.122-.05l-.961-.962 1.007-1.007 1.733 1.733c.098.098.256.098.354 0s.098-.256 0-.354l-1.671-1.671c.313-.001.662-.004 1.089-.009zm-1.914.003-.951.951-.787-.787c.443-.369 1.162-.181 1.738-.164z"/><path d="m16.15 33.307.177 2.408c.104 1.409.52 2.082 1.91 2.051l2.735-.064c1.899-.047 2.202-1.314 2.126-3.206-.154-3.896-1.41-3.786-3.792-3.719-.401.011-.858.022-1.009-.01-1.318-.285-2.308.389-2.147 2.54zm1.936-1.562c.096.021.218.031.356.037l-.347.347-.4-.4c.032-.004.054-.019.089-.019.092-.001.192.011.302.035zm-.944 1.419c-.024-.336-.058-.88.108-1.174l.492.492-.542.542c-.038.039-.05.09-.058.14zm.267 3.111c-.049-.208-.071-.448-.084-.633l-.019-.254.495.495zm2.89-4.508c.124.002.244.006.362.012l-.175.175zm-.966.009c.075-.002.165-.004.262-.006l.537.537-.329.329c-.098.098-.098.256 0 .354s.256.098.354 0l.329-.329.408.408c.098.098.256.098.354 0s.098-.256 0-.354l-.408-.408.254-.254c.062-.062.07-.144.054-.224.837.153.918 1.856.952 2.707.071 1.766-.151 2.143-1.151 2.167l-2.735.064c-.261.008-.418-.011-.529-.06l.47-.47.037.037c.049.049.113.073.177.073s.128-.024.177-.073c.098-.098.098-.256 0-.354l-.037-.037 1.33-1.33c.098-.098.098-.256 0-.354s-.256-.098-.354 0l-1.33 1.33-.905-.905-.101-1.371c.01.044.017.09.052.125.098.098.256.098.354 0l.542-.542 1.252 1.252c.049.049.113.073.177.073s.128-.024.177-.073c.098-.098.098-.256 0-.354l-1.252-1.252.701-.701c.06-.002.114-.003.181-.005z"/><path d="m23.809 33.308.178 2.408c.102 1.391.497 2.082 1.91 2.051l2.735-.064c1.898-.047 2.203-1.312 2.127-3.206-.052-1.321-.213-2.64-1.025-3.336-.871-.746-2.776-.18-3.776-.393-1.309-.284-2.309.375-2.149 2.54zm1.314-1.529.315.315-.653.653c-.004-.36.022-.806.338-.968zm-.07 4.431c-.038-.192-.057-.402-.069-.568l-.028-.377.521.521zm2.238-4.441.246.246-.348.348c-.098.098-.098.256 0 .354s.256.098.353 0l.348-.348.557.557c.098.098.256.098.354 0s.098-.256 0-.354l-.557-.557.229-.229c.287.022.521.062.61.133.593.508.649 1.932.677 2.616.069 1.768-.152 2.143-1.152 2.167l-2.734.064c-.33.007-.498-.019-.605-.099.019-.011.043-.008.059-.025l.503-.503.471.471c.049.049.113.073.177.073s.128-.025.177-.073c.098-.098.098-.256 0-.354l-.471-.471.457-.457c.098-.098.098-.256 0-.354s-.256-.098-.354 0l-.457.457-.931-.93c-.175-2.368-.042-.569-.098-1.331.098.054.187.079.292-.026l.698-.698.992.992c.098.098.256.098.354 0s.098-.256 0-.354l-.992-.992.307-.307c.316-.001.524-.009.838-.016z"/><path d="m31.469 33.308.178 2.408c.102 1.391.501 2.082 1.91 2.051l2.735-.064c1.892-.047 2.202-1.301 2.127-3.206-.206-5.216-2.796-3.302-4.801-3.729-1.317-.285-2.309.384-2.149 2.54zm1.937-1.563c.02.004.046.006.067.009l-.219.219-.243-.244c.034-.004.057-.02.094-.02.091 0 .191.012.301.036zm-.839.248.334.334-.456.456c-.005-.288.014-.587.122-.79zm.121 4.082c-.022-.152-.035-.307-.045-.434l-.028-.374.44.44zm3.131-4.141-.167-.167c.137.002.271.007.398.015-.048.009-.098.019-.135.056zm-.863-.165c.004.004.002.011.006.015l.503.503-.581.581c-.098.098-.098.256 0 .354s.256.098.354 0l.581-.581.582.582c.098.098.256.098.354 0s.098-.256 0-.354l-.582-.582.096-.096c.098-.098.098-.256 0-.354-.033-.033-.077-.039-.12-.049.278.022.506.061.593.131.593.508.649 1.932.677 2.616.069 1.769-.152 2.143-1.152 2.167l-2.734.064c-.404.009-.565-.032-.668-.162.001-.001.002 0 .003-.001l.542-.542.236.236c.098.098.256.098.354 0s.098-.256 0-.354l-.236-.236.396-.396c.098-.098.098-.256 0-.354s-.256-.098-.354 0l-.396.396-.85-.85-.094-1.271c-.002-.024-.003-.054-.005-.079.045.036.097.063.152.063.064 0 .128-.024.177-.073l.465-.465 1.051 1.051c.098.098.256.098.354 0s.098-.256 0-.354l-1.051-1.051.54-.54c.296-.001.506-.008.807-.015z"/><path d="m39.128 33.307.178 2.408c.108 1.461.532 2.075 1.971 2.05l2.673-.063c1.892-.047 2.202-1.301 2.127-3.206-.207-5.245-2.757-3.294-4.801-3.729-1.315-.284-2.307.385-2.148 2.54zm1.636-1.598c.091 0 .191.012.301.036.103.022.234.033.386.038l-.404.404-.443-.443c.054-.012.097-.035.16-.035zm2.051.109-.051-.051c.034 0 .067-.001.103-.001zm-2.512 3.824-.068-.916.536.536-.461.461c-.002-.027-.005-.057-.007-.081zm4.775-1.106c.069 1.769-.152 2.143-1.152 2.167l-2.734.064c-.562.012-.725-.042-.826-.58.021.005.037.024.059.024.064 0 .128-.024.177-.073l.523-.523.337.337c.098.098.256.098.354 0s.098-.256 0-.354l-.337-.337.416-.416c.232-.232-.119-.588-.354-.354l-.416.416-.795-.795c-.04-.04-.092-.052-.144-.06l-.06-.819c-.025-.347-.057-.857.081-1.18l.487.487-.173.173c-.098.098-.098.256 0 .354s.256.098.354 0l.173-.173.718.718c.098.098.256.098.353 0 .098-.098.098-.256 0-.354l-.719-.718.685-.686c.012-.012.009-.029.018-.042l.408.408c-.003.067.018.135.069.186.049.049.113.073.177.073.003 0 .006-.004.009-.004l.121.121c.098.098.256.098.354 0s.098-.256 0-.354l-.072-.072.372-.372c1.359-.202 1.478 1.262 1.537 2.738z"/><path d="m46.788 33.307.178 2.408c.102 1.391.497 2.082 1.91 2.051l2.735-.064c1.897-.047 2.202-1.311 2.127-3.206-.206-5.25-2.769-3.295-4.801-3.729-1.312-.283-2.309.381-2.149 2.54zm1.636-1.598c.091 0 .191.012.301.036.038.008.086.013.131.018l-.424.424-.371-.371c.097-.065.213-.107.363-.107zm-.461 3.933-.03-.41.359.359-.307.307c-.01-.091-.016-.179-.022-.256zm3.102-3.873-.282.281-.285-.285c.181-.001.376-.001.567.004zm-1.26.011.624.624-.27.27c-.098.098-.098.256 0 .353.098.098.256.098.354 0l.27-.27.42.42c.098.098.256.098.354 0s.098-.256 0-.354l-.42-.42.31-.309.116.074c.117.073.271.04.345-.078.048-.076.036-.161-.001-.237.707.194.803 1.95.832 2.682.071 1.766-.151 2.143-1.151 2.167l-2.734.064c-.367.008-.612.012-.744-.304.108-.078.444-.424.538-.518l.472.472c.098.098.256.098.354 0s.098-.256 0-.354l-.472-.472.534-.534c.098-.098.098-.256 0-.354s-.256-.098-.354 0l-.534.534-.769-.769-.091-1.235c-.02-.279-.048-.665.013-.974l.28.28-.212.212c-.098.098-.098.256 0 .354.049.049.113.073.177.073s.128-.024.177-.073l.212-.212.854.854c.098.098.256.098.354 0s.098-.256 0-.354l-.854-.854.468-.467c.079-.079.077-.192.028-.286.146.003.322 0 .52-.005z"/><path d="m57.906 30.776c-.445.011-.951.023-1.108-.012-1.306-.276-2.328.368-2.151 2.676.05.664-.027 1.616.095 2.209-.039.489.11.532.02 1.238-.097.796-.477 1.459-1.015 1.774-.576.338-4.317.278-4.806.205-1.3-.286-2.319.373-2.149 2.536l.174 2.411c.112 1.374.474 2.084 1.91 2.049 1-.02 7.082.128 10.227.011 2.515-.089 3.337-1.064 3.154-3.506-.163-2.177-.35-7.81-.352-7.87-.165-3.899-1.355-3.783-3.999-3.721zm-2.18 4.753.679.679-.641.642c.018-.22.036-.566-.038-1.321zm-3.759 4.368-.493.493-.47-.47c.318-.002.643-.009.963-.023zm-3.241-.054c.065.014.349.034.749.051-.008.006-.018.004-.026.011l-.463.463-.555-.555c.101 0 .202.01.295.03zm-.737.132c.001.161.525.628.644.747l-.829.83c-.034-.462-.146-1.257.185-1.577zm.019 4.19c-.023-.161-.039-.336-.053-.514l-.051-.708.663.663zm11.057.709c-2.77.101-9.169-.012-10.169-.012-.02 0-.034 0-.044 0-.4.012-.572-.032-.673-.16l.743-.743.036.036c.098.098.256.098.354 0s.098-.256 0-.354l-.036-.036.621-.621c.098-.098.098-.256 0-.354s-.256-.098-.354 0l-.621.621-1.072-1.071-.018-.256c.123.09.236.07.32-.014l.836-.836.797.797c.098.098.256.098.354 0s.098-.256 0-.353l-.797-.797.463-.463c.097-.097.097-.255 0-.353.157.005.322.009.498.012.003.004.002.009.005.013l.814.814-.286.286c-.098.098-.098.256 0 .354s.256.098.354 0l.286-.286.154.154c.098.098.256.098.353 0 .098-.098.098-.256 0-.354l-.154-.154.659-.659 1.057 1.058c.098.098.256.098.354 0s.098-.256 0-.354l-.959-.96c.576-.061 1.059-.156 1.311-.304.677-.396 1.164-1.131 1.388-2.005.081.014.134.029.218-.056l.902-.902.425.425c.098.098.256.098.354 0s.098-.256 0-.354l-.425-.425.533-.532c.098-.098.098-.256 0-.354s-.256-.098-.354 0l-.533.532c-.091-.091-.994-.998-1.09-1.083-.037-.911.062-.267-.025-1.407-.04-.516-.077-1.003.106-1.37.138-.256.423-.34.837-.253.194.044.472.05.892.044-.052.007-.104.02-.144.059l-.51.51-.528-.528c-.098-.098-.256-.098-.354 0s-.098.256 0 .354l.528.528-.528.528c-.098.098-.098.256 0 .354s.256.098.354 0l.528-.528.903.903c.098.098.256.098.354 0s.098-.256 0-.354l-.903-.903.51-.51c.033-.033.038-.076.049-.118l1.305 1.305c.098.098.256.098.354 0s.098-.256 0-.354l-.368-.368.44-.44c.098-.098.098-.256 0-.353-.098-.098-.256-.098-.354 0l-.44.44-.539-.539c.704-.015 1.852-.027 2.088.144.592.512.651 1.938.68 2.619.001.056.19 5.711.354 7.907.139 1.859-.229 2.364-2.193 2.433z"/><path d="m4.365 43.824c.152 1.53.756 2.067 2.393 2.039 1.29-.022 5.326-.043 6.585-.064 1.885-.034 2.835-.701 2.701-3.213-.226-4.217-1.94-3.772-7.047-3.712-.971.012-1.977.023-2.214-.015-1.754-.282-2.863.481-2.658 2.558zm1.059.346c-.028-.138-.048-.288-.064-.445l-.024-.243.388.388zm9.621-1.53c.106 1.972-.447 2.137-1.719 2.16-1.232.021-5.362.043-6.586.064-.426.009-.859-.008-1.089-.214l.426-.425.2.2c.098.098.256.098.354 0s.098-.256 0-.353l-.2-.2.988-.988c.232-.232-.119-.588-.354-.353l-.988.988-.819-.819-.138-1.382c-.033-.333-.052-.65.01-.904l.528.528c-.097.098-.097.255.001.353.097.097.254.098.352 0l.97.97c.098.098.256.098.353 0 .098-.098.098-.256 0-.354l-.97-.97.961-.961c.003-.003.001-.006.004-.009l1.413 1.413c.098.098.256.098.353 0 .033-.033.039-.077.049-.119.011-.008.026-.005.037-.015l1.289-1.289c.028-.028.03-.066.042-.101h.228l1.316 1.317c.098.098.256.098.354 0s.098-.256 0-.354l-.96-.961c2.63.022 3.436-.213 3.595 2.778zm-5.184-2.775-.965.965-.948-.948c.75-.003 1.197-.011 1.913-.017zm-3.693-.055c.195 0 .366.022.458.037.029.005.081.006.118.01l-.732.732-.599-.599c.21-.141.502-.18.755-.18z"/><path d="m18.237 45.863 2.735-.064c1.898-.047 2.202-1.312 2.126-3.207-.052-1.321-.213-2.64-1.025-3.336-.872-.745-2.776-.18-3.776-.393-1.293-.28-2.31.363-2.147 2.54l.177 2.408c.104 1.414.522 2.083 1.91 2.052zm-.89-1.863.023.023-.018.018c-.001-.013-.004-.027-.005-.041zm4.752-1.367c.069 1.771-.151 2.142-1.151 2.167l-2.735.064c-.317.01-.582.019-.721-.255l.231-.231.33.33c.049.049.113.073.177.073s.128-.024.177-.073c.098-.098.098-.256 0-.354l-.33-.33 1.108-1.108c.233-.232-.119-.588-.354-.354l-1.108 1.108-.437-.437-.14-1.903c-.022-.295-.047-.706.029-1.023l.415.415-.132.132c-.098.098-.098.256 0 .354s.256.098.354 0l.132-.132 1.04 1.04c.098.098.256.098.354 0s.098-.256 0-.354l-1.04-1.04.844-.844c.032-.001.167-.004.198-.005l.408.408-.264.264c-.098.098-.098.256 0 .354s.256.098.353 0l.264-.264.226.226c.098.098.256.098.353 0 .098-.098.098-.256 0-.353l-.186-.186c.047.001.096.014.137-.012l.128-.079c.118-.072.137-.215.064-.333-.004-.007-.014-.008-.019-.014.29.021.527.062.617.134.594.507.651 1.931.678 2.615zm-1.997-2.705-.066-.066c.044 0 .087-.001.133 0zm-2.317-.122c.091 0 .191.012.301.036.094.021.214.03.348.036l-.491.49-.489-.489c.092-.048.201-.073.331-.073z"/><path d="m25.896 45.863 2.735-.064c1.897-.047 2.203-1.31 2.127-3.207-.155-3.91-1.426-3.783-3.792-3.719-.401.01-.858.022-1.009-.01-1.308-.283-2.308.377-2.148 2.541l.178 2.408c.101 1.382.489 2.083 1.909 2.051zm-.912-2.125-.051-.694.496.496-.426.426c-.008-.081-.014-.159-.019-.228zm4.775-1.105c.069 1.77-.152 2.142-1.152 2.167l-2.734.064c-.366.011-.62.007-.749-.312l.658-.658.088.088c.098.098.256.098.353 0 .098-.098.098-.256 0-.354l-.088-.088.465-.466c.098-.098.098-.256 0-.354s-.256-.098-.354 0l-.465.465-.836-.836c-.018-.018-.045-.016-.066-.028l-.073-.992c-.002-.022-.003-.05-.005-.074.02.005.036.023.056.023.064 0 .128-.024.177-.073l.528-.528.594.594c.098.098.256.098.354 0s.098-.256 0-.354l-.594-.594.442-.442c.141 0 .302-.002.485-.007.012.033.013.07.04.097l.308.308-.087.087c-.098.098-.098.256 0 .354s.256.098.354 0l.088-.088.349.349c.098.098.256.098.354 0s.098-.256 0-.354l-.35-.349.407-.406c.997.052 1.358.373 1.453 2.761zm-2.216-2.705-.065-.065c.043-.001.086-.001.131-.001zm-1.845-.092-.136.136-.157-.157c.016-.001.025-.009.041-.009.075 0 .162.013.252.03zm-.759.221.269.269-.424.424c.003-.247.022-.488.155-.693z"/><path d="m33.556 45.863 2.735-.064c1.898-.047 2.201-1.31 2.127-3.207-.154-3.892-1.407-3.784-3.792-3.719-.401.01-.858.022-1.009-.01-.859-.186-1.58.096-1.931.754-.282.528-.262 1.172-.217 1.787l.178 2.408c.101 1.382.488 2.083 1.909 2.051zm-.686-5.406-.425.425c-.005-.268.016-.541.106-.743zm-.257 2.87.499.499-.374.374c-.022.022-.021.052-.033.078-.034-.184-.05-.382-.062-.539zm3.012-3.463c.028 0 .055.001.083.001l-.041.041zm-2.52-.058c.091 0 .191.012.301.036.255.056.64.047 1.247.032.076-.002.168-.004.268-.006l.393.393-.638.638c-.098.098-.098.256 0 .354s.256.098.354 0l.638-.638.429.429c.233.232.589-.118.354-.354l-.429-.429.11-.11c.072-.072.073-.172.038-.261.268.022.488.061.573.129.593.508.649 1.932.677 2.616.069 1.772-.152 2.143-1.152 2.167l-2.734.064c-.406.013-.582-.035-.685-.177-.021-.029-.035-.072-.052-.11.038.022.076.049.119.049.064 0 .128-.024.177-.073l.374-.374.187.188c.049.049.113.073.177.073s.128-.024.177-.073c.098-.098.098-.256 0-.354l-.187-.187.743-.742c.232-.233-.119-.588-.354-.354l-.743.742-.909-.909-.08-1.083c.046-.01.094-.018.131-.054l.616-.616 1.37 1.37c.098.098.256.098.354 0s.098-.256 0-.354l-1.37-1.37.102-.102c.098-.098.098-.256 0-.354s-.256-.098-.353 0l-.102.102-.266-.266c.047-.01.087-.032.145-.032z"/><path d="m41.277 45.862 2.673-.063c1.898-.047 2.201-1.31 2.127-3.207-.154-3.892-1.407-3.784-3.792-3.719-.401.01-.858.022-1.009-.01-1.315-.285-2.307.384-2.148 2.54l.178 2.408c.108 1.474.538 2.076 1.971 2.051zm-.92-1.62c-.029-.174-.043-.357-.054-.504l-.069-.936.782.782zm.935-4.37-.143.143-.187-.187c.035.005.065.004.103.012.066.016.142.026.227.032zm-.922.072.425.425-.395.396c-.098.098-.098.256 0 .354s.256.098.354 0l.396-.396.727.727c.098.098.256.098.354 0s.098-.256 0-.354l-.727-.727.44-.44c.013-.013.01-.033.02-.048h.018l.18.18-.043.043c-.098.098-.098.256 0 .354s.256.098.354 0l.043-.044.309.309c.098.098.256.098.354 0s.098-.256 0-.354l-.285-.285.329-.209c.005-.003.005-.01.009-.013 1.072.012 1.73-.19 1.849 2.77.069 1.772-.152 2.143-1.152 2.167l-2.734.064c-.348.011-.52-.026-.628-.122l.805-.804.178.178c.098.098.256.098.354 0s.098-.256 0-.354l-.178-.178.677-.676c.098-.098.098-.256 0-.354s-.256-.098-.354 0l-.677.676-1.192-1.192-.052-.708c-.035-.439-.1-1.11.242-1.385z"/><path d="m4.365 51.51c.158 1.592.826 2.063 2.393 2.039 1.23-.022 5.358-.043 6.585-.065 1.89-.034 2.835-.707 2.701-3.213-.072-1.341-.289-2.679-1.379-3.371-1.002-.637-6.882-.196-7.882-.356-1.762-.28-2.862.486-2.658 2.558zm.995-.099-.09-.899.696.696-.559.559c-.019-.114-.035-.232-.047-.356zm4.142-3.858-.688.688-.674-.673c.396-.004.915-.01 1.362-.015zm-4.148.175.671.671-.275.275c-.098.098-.098.256 0 .353.098.098.256.098.353 0l.275-.275.727.728c.098.098.256.098.353 0 .098-.098.098-.256 0-.354l-.727-.728.405-.405c.098-.098.098-.256 0-.354s-.256-.098-.353 0l-.405.405-.525-.525c.106-.016.213-.026.314-.026.195 0 .366.022.457.037.161.026.455.036.881.038.01.043.017.089.051.123l.936.936c-.025.085-.021.175.046.242.049.049.113.073.177.073.024 0 .043-.02.066-.027l.289.289c.098.098.256.098.354 0s.098-.256 0-.354l-.256-.256.71-.71c.093-.093.091-.237.008-.335.054 0 .105-.001.16-.001l1.203 1.203c.098.098.256.098.353 0 .098-.098.098-.256 0-.354l-.853-.853c1.475-.001 3.051.032 3.384.201.705.452.855 1.506.912 2.579.108 1.991-.469 2.137-1.719 2.159-1.231.022-5.358.043-6.585.065-.374.006-.906.017-1.141-.268l.72-.72.333.333c.098.098.256.098.353 0 .098-.098.098-.256 0-.354l-.333-.333.385-.385c.098-.098.098-.256 0-.354s-.256-.098-.354 0l-.384.387-.962-.963c-.043-.043-.099-.059-.155-.064l-.083-.824c-.044-.446-.103-.991.234-1.275z"/><path d="m37.881 46.943c-.8-.686-18.049-.264-19.095-.394-1.299-.28-2.308.366-2.148 2.54l.178 2.409c.103 1.402.515 2.083 1.91 2.051.879-.021 17.153-.044 18.054-.065 1.897-.047 2.202-1.31 2.126-3.206-.052-1.321-.213-2.639-1.025-3.335zm-12.711.611c.183-.001.363-.001.554-.002l-.278.278zm-2.798.012-.126.126-.125-.125c.081-.001.165-.001.251-.001zm-3.33-.008-.233.232-.268-.268c.012.002.022.001.034.004.066.015.206.025.467.032zm-1.279 3.192.437.437-.376.376c-.017-.213-.044-.581-.061-.813zm18.993 1.734c-.882.021-17.152.043-18.053.065-.596.017-.694-.112-.778-.378l.63-.63.292.292c.098.098.256.098.354 0s.098-.256 0-.354l-.292-.292.629-.629c.098-.098.098-.256 0-.353-.098-.098-.256-.098-.354 0l-.629.629-.847-.847-.072-.971c-.034-.468-.1-1.239.314-1.454.009.047.018.095.054.131l.452.452-.53.53c-.098.098-.098.256 0 .353.098.098.256.098.354 0l.53-.53 1.042 1.042c.098.098.256.098.354 0s.098-.256 0-.354l-1.042-1.042.488-.488c.024-.025.025-.058.037-.089.417.003.974.003 1.728.002l.477.477-.628.628c-.098.098-.098.256 0 .353.098.098.256.098.354 0l.628-.628.591.591c.098.098.256.098.354 0s.098-.256 0-.354l-.591-.591.483-.483c.317-.001.86-.004 1.384-.006l.635.635c-.076.098-.078.236.012.325.084.084.204.105.325.012l.531.531c.098.098.256.098.353 0 .098-.098.098-.256 0-.354l-.525-.522.634-.634c.381-.001.769-.002 1.165-.003l.322.322-.098.098c-.098.098-.098.256 0 .354s.256.098.354 0l.098-.098.444.444c.098.098.256.098.354 0s.098-.256 0-.354l-.444-.444.323-.323c3.779.001 7.649.038 8.332.205.544.545.599 1.904.625 2.568.069 1.767-.153 2.142-1.153 2.166z"/><path d="m42.653 46.559c-.403.01-.86.022-1.009-.01-1.299-.279-2.308.365-2.148 2.54l.178 2.409c.103 1.402.515 2.083 1.91 2.051l2.735-.065c1.891-.047 2.202-1.298 2.127-3.206-.155-3.897-1.414-3.784-3.793-3.719zm.982.99-.202.202-.203-.203c.131-.002.268-.001.405.001zm-2.202-.023c.047.01.104.016.16.023l-.791.791-.297-.297c.085-.43.338-.645.928-.517zm-.71 4.388c-.028-.17-.042-.348-.052-.491l-.04-.546.564.564zm3.571.57-2.734.065c-.365.01-.53-.027-.636-.129l.624-.624.394.394c.098.098.256.098.354 0s.098-.256 0-.354l-.394-.394.413-.413c.098-.098.098-.256 0-.354s-.256-.098-.353 0l-.413.413-.726-.726c-.064-.065-.151-.07-.233-.05l-.096-1.297c-.006-.09-.014-.191-.019-.297l.057.056c.009.048.018.097.056.134.037.037.086.047.134.056l.88.88c.098.098.256.098.354 0s.098-.256 0-.354l-.798-.798.909-.909c.06-.06.07-.139.057-.216.124-.001.263-.003.416-.007l.543.543-.373.373c-.098.098-.098.256 0 .354s.256.098.354 0l.373-.373.633.633c.098.098.256.098.354 0s.098-.256 0-.354l-.633-.633.52-.52c1.009.11 1.091 1.529 1.139 2.733.065 1.771-.156 2.144-1.156 2.168z"/><path d="m50.313 46.559c-.402.011-.859.022-1.009-.01-1.299-.28-2.308.366-2.148 2.54l.178 2.409c.101 1.372.485 2.083 1.91 2.051l2.735-.065c1.889-.047 2.203-1.295 2.126-3.205-.153-3.894-1.412-3.784-3.792-3.72zm1.473 1.008-.282.282-.302-.302c.2.002.402.007.584.02zm-2.162.003-.28.28-.332-.332c.028.005.051.003.081.01.135.028.31.039.531.042zm-1.19 4.567c-.065-.222-.088-.505-.103-.714l-.046-.629.746.746zm3.52.347-2.734.065c-.211.006-.355-.002-.461-.03l1.607-1.607c.098-.098.098-.256 0-.353-.098-.098-.256-.098-.354 0l-.629.629-1.156-1.156-.075-1.016c-.034-.464-.099-1.216.301-1.443.012.157.423.515.537.63l-.51.51c-.098.098-.098.256 0 .354s.256.098.354 0l.51-.51.806.806c.098.098.256.098.354 0s.098-.256 0-.354l-.806-.806.314-.314c.089-.089.086-.224.013-.322.1-.002.199-.004.314-.008.047-.001.107-.003.164-.004l.648.648-.236.236c-.098.098-.098.256 0 .354s.256.098.354 0l.235-.235.275.275c.098.098.256.098.353 0 .098-.098.098-.256 0-.354l-.275-.276.461-.461c.021-.021.019-.05.031-.075.028.012.061.022.079.036.594.508.65 1.932.677 2.616.071 1.766-.151 2.141-1.151 2.165z"/><path d="m57.972 46.559c-.403.011-.859.022-1.01-.01-1.309-.282-2.309.379-2.148 2.54l.178 2.408c.1 1.373.485 2.084 1.909 2.052l2.735-.065c1.889-.047 2.203-1.295 2.126-3.205-.151-3.894-1.409-3.784-3.79-3.72zm1.435 1.006-.402.402-.419-.419c.269-.003.561.001.821.017zm-2.655-.039c.128.028.287.04.491.043l-.594.594-.563-.563c.203-.137.425-.126.666-.074zm-.652 4.642c-.067-.21-.09-.48-.106-.693l.4.4zm-.288-3.151v-.002c-.021-.277-.049-.661.012-.97l.471.471-.471.471c-.008.009-.005.021-.012.03zm1.067 3.532c-.19.003-.322-.005-.426-.027l.293-.293.26.26c.037.037.085.046.132.055zm2.735-.065-2.381.056c.235-.051.25-.284.127-.406l-.259-.26.574-.574c.098-.098.098-.256 0-.354s-.256-.098-.354 0l-.574.574-.81-.81-.101-1.365c.114.102.255.082.341-.005l.471-.471.888.889c.098.098.256.098.354 0s.098-.256 0-.354l-.888-.889.923-.923.727.727-.275.275c-.098.098-.098.256 0 .354s.256.098.354 0l.275-.275.272.272c.098.098.256.098.354 0s.098-.256 0-.354l-.273-.272.413-.413c.083-.083.08-.204.022-.3.857.148.937 1.842.971 2.71.071 1.769-.151 2.144-1.151 2.168z"/><path d=""/><path d="m9.366 58.389c1.634-.082 22.42-.369 48.171.105 5.284.105 7.479-1.488 7.463-7.994l-.052-24.777c0-3.861-1.123-5.532-5.064-5.572.674-1.684.238-3.487-1.201-3.89-.054-4.929-5.255-10.383-14.689-8.308-6.755 1.485-14.498 6.89-24.184 7.198-5.76.168-10.915-1.718-14.161-5.214-.189-.203-.506-.214-.707-.026-.202.188-.214.504-.026.707 3.443 3.708 8.887 5.736 14.925 5.533 9.905-.314 17.749-5.765 24.368-7.22 8.614-1.893 13.378 2.869 13.474 7.293-1.879.346-2.144 2.073-2.152 3.939l-14.864.056c-10.727.04-21.455.081-32.18.116-5.045.018-7.337 1.423-7.37 8.047-.041 6.235-.075 15.267-.116 21.398-.05 7.318 2.58 8.882 8.365 8.609zm47.887-40.906c1.443-1.169 2.575.79 1.537 2.668-.751.004-1.504.007-2.257.009.007-1.038-.07-2.03.72-2.677zm-55.136 10.905c.03-6.074 1.883-7.038 6.373-7.053 10.725-.035 21.453-.076 32.18-.116.485-.002 18.292-.069 18.796-.069 3.435 0 4.481.765 4.481 4.575l.053 24.778c.015 6.129-1.928 7.085-6.443 6.991-23.905-.44-46.083-.211-48.239-.104-5.207.241-7.362-.865-7.317-7.604.042-6.486.076-15.353.116-21.398z"/></g></svg>