<svg id="Layer_1" enable-background="new 0 0 66 66" height="512" viewBox="0 0 66 66" width="512" xmlns="http://www.w3.org/2000/svg"><g><path d="m59.773 56.778c-.128-7.057-5.393-13.625-12.246-15.28-4.075-.986-6.992-.859-7.066-5.494 3.053-2.198 4.7-5.61 5.6-9.258.93.077 1.693-.168 2.262-.581 1.02-.738 1.148-1.98.608-2.82.361-.543.644-1.075.814-1.61.722-2.232-.395-4.424-2.466-4.585.098-2.677.116-6.758-.816-9.267-1.676-4.512-5.734-5.008-7.777-3.927-1.355-4.061-8.984-3.355-12.829-1.145-5.565 3.201-6.431 8.415-5.571 14.284.107.72.239 1.441.378 2.164-1.049 1.27-.977 3.847-.742 5.38.328 2.207 1.608 2.869 2.989 2.41.927 2.445 2.45 5.931 4.157 7.915.484 7.154-2.767 7.311-7.763 8.671-9.228 2.522-15.511 12.034-12.173 17.568 1.271 2.109 3.658 3.24 6.143 3.615 2.534.404 39.26-.102 40.742-.33 4.138-.626 5.829-3.586 5.756-7.71zm-15.666-15.002c-1.043 2.746-2.542 5.408-5.744 5.644-1.628.118-3.297-.801-3.949-2.105 2.603-1.298 4.798-3.22 6.22-5.453.953 1.071 2.175 1.574 3.473 1.914zm-10.332 2.731c-.353-.17-.697-.353-1.033-.547l.152-.152.456.456c.097.097.255.098.354 0 .098-.098.098-.256 0-.354l-.456-.455.678-.678 1.054 1.054c.008.008.02.005.028.012-.4.237-.81.46-1.233.664zm-5.657-8.467c3.419 2.937 8.855 2.002 11.359.605.012.231.034.465.065.7-.09-.036-.191-.036-.264.037l-.531.531-.023-.023c-.097-.097-.255-.098-.354 0-.098.098-.098.256 0 .354l.023.023-.622.622c-.067.067-.071.158-.046.243-.025.085-.021.176.046.243l1.052 1.052c.034.034.08.041.123.051-.639.788-1.384 1.52-2.216 2.179-.059-.114-.119-.16-.225-.266l.777-.777.127.127c.097.097.255.098.354 0 .098-.098.098-.256 0-.354l-.127-.127.529-.53c.098-.098.098-.256 0-.354s-.256-.098-.354 0l-.529.53-.489-.489c-.098-.098-.256-.098-.354 0s-.098.256 0 .354l.489.489-.777.777-.745-.744.4-.4c.098-.098.098-.256 0-.354s-.256-.098-.354 0l-1.531 1.531-.056-.056c-.098-.098-.256-.098-.354 0s-.098.256 0 .354l.056.056-.678.678-.622-.621c-.098-.098-.256-.098-.353 0-.098.098-.098.256 0 .354l.622.622-.242.242c-1.883-1.165-3.467-2.68-4.551-4.392.309-1.047.394-2.166.375-3.267zm11.093 4.114c-.012-.027-.011-.058-.033-.081l-.941-.942.511-.511.422.422c.099.099.257.096.354 0 .098-.098.098-.256 0-.354l-.422-.422.504-.504c.119.609.274.957.482 1.331-.11.034-.212.1-.279.205-.185.292-.386.576-.598.856zm-3.821 3.462c-.025-.151-.995-1.076-1.112-1.192l.777-.777 1.294 1.294c.004.004.011.003.016.007-.314.233-.64.456-.975.668zm4.473-8.424c.034-.089.033-.188-.039-.26l-.524-.524 1.243-1.243.443.443c.099.099.257.096.354 0 .098-.098.098-.256 0-.354l-.443-.443 1.243-1.243.489.489c.036.036.083.044.129.053-.824 1.251-1.801 2.296-2.895 3.082zm7.874-9.836c-.914.66-2.774.611-2.671-.571.042-.486.447-1.046 1.33-1.298.484-.128 1.21-.108 1.579.246.395.389.385 1.171-.238 1.623zm1.057-3.926s-.001.001-.001.002c-.131.41-.328.82-.599 1.246-.348-.178-.823-.29-1.345-.268.125-.917.324-2.846.396-4.269 1.303.131 2.093 1.605 1.549 3.289zm-22.439-17.751c4.021-2.311 11.351-2.381 11.485 1.143.017.422.52.634.836.351 1.366-1.238 5.27-1.192 6.85 3.06.906 2.44.857 6.928.742 9.395 0 .002-.001.003-.001.004-.029.731-.086 1.462-.148 2.193-.193-.526-.14-1.873-.114-2.433.017-.319-.272-.569-.578-.517-4.048.652-7.347-3.08-7.189-6.161.029-.553-.735-.732-.956-.227-.331.749-.744 1.455-1.215 2.12-.002-.003-.001-.007-.004-.009l-.46-.46.568-.568c.098-.098.098-.256 0-.354-.099-.098-.257-.097-.354 0l-.568.568-.139-.139c-.098-.098-.256-.098-.354 0s-.098.256 0 .354l.139.139-1.013 1.013-.314-.314c-.098-.097-.256-.099-.354 0-.098.098-.098.256 0 .353l.314.314-1.118 1.118-.768-.768.383-.384c.098-.098.098-.256 0-.354s-.256-.098-.354 0l-1.575 1.575-.243-.243c-.098-.098-.256-.098-.354 0s-.098.256 0 .353l.243.243-1.223 1.223-.699-.699c-.098-.098-.256-.098-.354 0s-.098.256 0 .354l.699.699-.279.279c-.098.098-.098.256 0 .353.097.097.255.098.353 0l.279-.279.391.391c-.647.127-1.319.208-2.009.236.01-.075-.002-.151-.06-.208l-.666-.666 2.697-2.697c.098-.098.098-.256 0-.354s-.256-.098-.354 0l-2.697 2.696-.173-.174c-.098-.097-.256-.098-.354 0s-.098.256 0 .354l.173.173-.792.792c-.308-.035-.616-.073-.924-.128-.417-.071-.727.373-.521.739.599 1.059.858 2.307.731 3.514-.042.4-.12.692-.245.917-.31.552-.846.578-.998.298-.05-.093-.13-.156-.218-.2-.311-1.107-.587-2.229-.818-3.363 0-.001-.001-.001-.001-.001-.153-.782-.295-1.564-.409-2.345-.804-5.493-.088-10.294 5.084-13.269zm3.105 13.563c-.068-.12-.483-.519-.584-.619l1.223-1.223 1.208 1.208c-.577.262-1.196.474-1.847.634zm2.328-.861-1.335-1.335.838-.838.768.768-.524.524c-.098.098-.098.256 0 .353.097.097.255.098.354 0l.524-.524.314.314c.047.047.107.068.168.07-.384.259-.699.454-1.107.668zm1.291-1.091-.314-.314 1.118-1.118.59.59c-.425.402-.88.77-1.358 1.108.038-.09.038-.192-.036-.266zm1.749-1.194-.591-.591 1.013-1.013.46.46c.023.023.056.023.084.035-.299.389-.623.758-.966 1.109zm-8.476 3.513c-.338.001-.677-.011-1.02-.035l.493-.493zm-5.441 6.882c-.232-1.507-.114-3.093.069-3.733.417 1.794 1.065 3.937 1.577 5.366-1.061.314-1.485-.549-1.646-1.633zm1.999-.479c.734.083 1.342-.353 1.684-.963.254-.457.33-.961.365-1.3.115-1.092-.041-2.212-.44-3.236 5.7.663 10.28-1.787 12.904-6.136.75 2.882 3.702 5.836 7.562 5.554-.014.528-.009 1.089.052 1.61.082.702.291 1.221.964 1.464-.059.542-.121 1.084-.198 1.621-1.05.396-1.662 1.243-1.733 2.073-.048.544.141 1.101.53 1.473-2.088 3.767-6.575 5.33-10.483 3.827-.019-.96-.77-1.768-1.568-1.995-1.515-.428-2.959 1.058-2.236 2.526.569 1.15 2.185 1.513 3.182.759.13-.099.24-.212.331-.334 3.846 1.444 8.289.283 10.91-3.153-.52 1.703-1.072 2.862-1.736 3.944-.009-.013-.006-.031-.018-.043l-.489-.489 1.253-1.254c.098-.098.098-.256 0-.354s-.256-.098-.354 0l-1.254 1.254-.089-.089c-.098-.098-.256-.098-.354 0s-.098.256 0 .354l.089.089-1.243 1.243-.156-.156c-.097-.097-.255-.099-.353 0-.098.098-.098.256 0 .354l.156.156-1.243 1.243-.246-.246.266-.266c.098-.098.098-.256 0-.354s-.256-.098-.354 0l-.266.266-.089-.089c-.098-.098-.256-.098-.354 0s-.098.256 0 .354l.089.089-1.11 1.11-1.029-1.029c-.008-.011-.005-.026-.015-.036s-.025-.007-.036-.015l-.207-.207c-.098-.098-.256-.098-.354 0s-.098.256 0 .354l.056.056-1.243 1.243-.588-.588c-.099-.099-.257-.097-.354 0-.098.098-.098.256 0 .354l.589.588-.721.721c-.098.098-.098.256 0 .354.097.097.255.098.354 0l.721-.722.622.622c.096.096.255.099.354 0 .098-.098.098-.256 0-.354l-.622-.622 1.243-1.243.877.877-.422.422c-.098.098-.098.256 0 .354.097.097.255.098.354 0l.422-.422.604.604c.097.097.255.098.354 0 .098-.098.098-.256 0-.354l-.604-.604 1.11-1.11.291.292c-.006.071.01.143.065.197.049.049.112.073.177.073.007 0 .013-.008.02-.008l.57.57c.049.049.112.073.177.073.003 0 .005-.003.009-.004-.174.119-.359.239-.543.346-2.454 1.433-6.328 1.56-8.303.81l.487-.487.498.498c.096.096.255.099.354 0 .098-.098.098-.256 0-.354l-.498-.498 1.371-1.371c.098-.098.098-.256 0-.354s-.256-.098-.354 0l-1.371 1.371-.09-.089c-.099-.099-.257-.097-.354 0-.098.098-.098.256 0 .354l.089.089-.617.617c-.965-.466-1.816-1.155-2.384-1.834-.003-.004-.006-.006-.008-.01-2.103-2.361-4.071-7.4-5.022-10.43zm10.208 5.885c.047.25-.027.444-.228.595-.496.377-1.389.185-1.682-.405-.337-.684.384-1.314 1.066-1.121.391.111.769.528.844.931zm-5.811 10.533c1.419 1.989 3.45 3.699 5.828 4.884-.652 1.305-2.327 2.221-3.949 2.105-2.335-.172-4.032-1.799-5.103-4.1 1.447-.614 2.515-1.478 3.224-2.889zm-13.6 23.434c-.794-2.204-.857-5.139-.808-7.744.067-4.137 1.659-4.911 5.293-4.957l28.8-.415c3.112-.036 5.651.191 6.635 3.152l-.762.762c-.094-.047-.205-.049-.283.029s-.076.19-.029.283l-.056.056c-.098.098-.098.256 0 .354.097.097.255.098.354 0l.035-.035.686.685-.643.643-.374-.374c-.098-.098-.256-.098-.354 0s-.098.256 0 .354l.374.374-.587.587c-.098.098-.098.256 0 .354.097.097.255.098.354 0l.587-.587.831.831c.097.097.255.098.354 0 .034-.034.04-.079.051-.122.066 1.584.079 3.012-.284 4.482-.01-.044-.017-.09-.051-.124l-.546-.546.499-.499c.098-.098.098-.256 0-.354s-.256-.098-.354 0l-.499.499-.961-.96 1.003-1.003.761.761c.234.234.586-.121.354-.354l-.92-.92c-.006-.007-.004-.018-.01-.025-.007-.007-.018-.005-.025-.011l-.957-.957c-.098-.098-.256-.098-.354 0s-.098.256 0 .354l.798.798-1.003 1.003-.629-.629c-.098-.098-.256-.098-.354 0s-.098.256 0 .354l.629.629-1.173 1.173-1.046-1.046.875-.875c.098-.098.098-.256 0-.354s-.256-.098-.354 0l-.875.875-.077-.078c-.098-.098-.256-.098-.354 0s-.098.256 0 .354l.078.077-1.257 1.257-1.003-1.003.392-.392c.098-.098.098-.256 0-.353-.098-.098-.256-.098-.354 0l-1.854 1.854-.6-.6.076-.076c.098-.098.098-.256 0-.354s-.256-.098-.354 0l-.114.114c-.08-.016-.162-.008-.223.054-.062.062-.07.144-.054.223l-1.042 1.041-.798-.798c-.098-.098-.256-.098-.354 0s-.098.256 0 .354l.798.798-.756.756c-.051.051-.072.117-.07.184l-2.186.024.843-.844.588.588c.097.097.255.098.354 0 .098-.098.098-.256 0-.354l-.588-.588 1.13-1.13c.098-.098.098-.256 0-.353-.098-.098-.256-.098-.354 0l-1.13 1.13-.268-.268c-.098-.098-.256-.098-.354 0s-.098.256 0 .354l.268.268-.579.579-.664-.664.731-.731c.098-.098.098-.256 0-.353s-.256-.099-.354 0l-.76.76c-.088-.031-.183-.029-.253.042-.07.07-.072.166-.042.253l-.587.587-.544-.544c-.098-.097-.256-.099-.354 0-.098.098-.098.256 0 .354l.544.544c-.133.133-.284.235-.271.4-20.393.228-20.307.296-22.232.033zm38.26-.221-.226-.226c.016-.01.036-.007.05-.021l1.138-1.138.546.546c.094.094.249.101.351.001-.069.249-.147.49-.236.721-.479.061-1.066.102-1.623.117zm-.55-.55-.975-.975 1.173-1.173.961.961-1.138 1.138c-.014.013-.011.033-.021.049zm2.719-5.671c.009.191.015.366.023.549-.043-.143-.771-.836-.876-.941l.778-.778c.032.388.057.78.075 1.17zm-.173-1.704-.723-.722.549-.549c.098.403.165.825.215 1.254-.015 0-.027.014-.041.017zm-5.631 7.976-2.29.025 1.036-1.036.812.812c.097.097.255.098.354 0 .098-.098.098-.256 0-.354l-.812-.812 1.257-1.257 1.045 1.045-1.35 1.349c-.062.063-.069.147-.052.228zm-5.611-.437-.419-.419 1.003-1.003.6.6-1.074 1.074c-.068.068-.071.16-.045.246l-1.418.016.579-.579.419.419c.097.097.255.098.354 0s.099-.256.001-.354zm1.538-.468.756.756c.099.099.257.096.354 0 .098-.098.098-.256 0-.354l-.756-.756 1.109-1.109 1.003 1.003-1.095 1.095c-.083.083-.08.203-.022.299l-2.309.026zm-7.263.721-.078-.078.558-.558.693.694c-.028.083-.025.17.036.239l-1.191.013c.065-.097.068-.224-.018-.31zm-.393.314-.078.001.04-.04zm12.268-.136 1.217-1.217 1.188 1.188s.084.001-2.405.029zm5.837-.357c.599-1.944.527-3.918.426-5.957-.267-6.032-2.266-7.699-8.154-7.626l-28.8.415c-4.08.051-6.2 1.146-6.28 5.94-.049 2.617.012 5.316.691 7.56-1.887-.433-3.633-1.366-4.603-2.976-2.922-4.845 2.884-13.711 11.581-16.086 1.144-.313 2.387-.543 3.576-.927 1.454 3.161 3.688 4.576 5.968 4.743 1.88.138 3.724-.817 4.661-2.244.938 1.427 2.782 2.382 4.661 2.244 3.632-.266 5.414-3.129 6.652-6.405 1.286.265 1.667.328 2.204.458 6.426 1.551 11.362 7.71 11.481 14.326.055 3.138-.995 5.755-4.064 6.535z"/><path d="m33.233 56.71c-1.043-.267-2.081.041-2.848.851-1.199 1.268-.828 2.742.071 3.642 1.014 1.012 2.802 1.414 4.125.161 1.852-1.756.648-4.14-1.348-4.654zm-.929.964-.036-.036c.027-.004.053-.005.08-.007zm-1.497 1.006.632.632-.652.652c-.184-.381-.219-.829.02-1.284zm3.087 1.958c-.861.816-2.05.536-2.73-.143-.035-.035-.065-.074-.097-.111.004-.004.01-.002.014-.006l.76-.76c.005 0 .009.006.015.006.134 0 .254-.103.244-.265l.133-.133c.098-.098.098-.256 0-.354s-.256-.098-.354 0l-.085.086-.694-.694c.005-.005.008-.011.013-.016.202-.214.409-.349.614-.446l.225.225-.296.296c-.098.098-.098.256 0 .354.099.099.257.096.353 0l.296-.296.255.255c.099.099.257.096.354 0 .098-.098.098-.256 0-.354l-.255-.255.341-.342c1.191.318 2.18 1.733.894 2.953z"/><path d="m22.245 54.261-1.53 1.529-1.034-1.034 1.077-1.077c.098-.098.098-.256 0-.354s-.256-.098-.354 0l-1.077 1.077-.549-.549c-.098-.098-.256-.098-.354 0s-.098.256 0 .354l.549.549-.735.735-.906-.906.594-.594c.098-.098.098-.256 0-.354s-.256-.098-.354 0l-.594.594-.293-.293c-.098-.098-.256-.098-.354 0s-.098.256 0 .354l.293.293-.592.591c-.098.098-.098.256 0 .354.097.097.255.098.354 0l.592-.592.906.906-1.211 1.21c-.098.098-.098.256 0 .354.097.097.255.098.354 0l1.211-1.211.865.865c.097.097.255.098.354 0 .098-.098.098-.256 0-.354l-.865-.865.735-.735 1.034 1.034-.399.399c-.098.098-.098.256 0 .354.097.097.255.098.354 0l.399-.399.398.398c.097.097.255.098.354 0 .098-.098.098-.256 0-.354l-.398-.398 1.53-1.529c.098-.098.098-.256 0-.354-.098-.095-.256-.095-.354.002z"/></g></svg>