<svg id="Layer_1" enable-background="new 0 0 66 66" height="512" viewBox="0 0 66 66" width="512" xmlns="http://www.w3.org/2000/svg"><path d="m19.783 62.879c2.202-1.477 3.439-2.795 12.095-11.412 2.495-2.48 7.72-7.365 2.77-14.034 1.056-.951 2.115-1.991 3.162-3.11 3.519 1.974 7.224 1.963 11.256-.727 2.191-1.469 3.418-2.777 12.095-11.412 2.478-2.464 8.088-7.77 2.355-14.583-1.753-2.081-4.11-3.522-6.187-4.657-5.35-2.924-8.378-2.861-13.834 2.304-2.763 2.644-11.905 11.781-13.531 15.263-1.617 3.48-.345 4.57 1.846 7.829-1.186 1.133-2.363 2.344-3.593 3.704-.051.059-.118.122-.174.182-1.852-1.011-4.016-2.074-6.355-1.923-2.972.186-5.416 2.279-7.476 4.228-3.802 3.628-7.481 7.515-10.937 11.553-4.64 5.443-3.45 7.248-1.942 9.679 1.132 1.833 2.486 3.933 4.255 5.644 4.207 4.116 9.168 4.826 14.195 1.472zm15.045-30.184.88.879-1.198 1.198-.879-.879zm-1.551 1.551.879.879-.221.221c-.098.098-.098.256 0 .354.097.097.255.098.354 0l.221-.221.371.371c-1.705 1.619-.968.9-1.968 1.779l-1.518-1.518c.01-.007.023-.004.031-.013zm1.969 1.262-.383-.383 1.198-1.198.376.376c-.397.41-.792.819-1.191 1.205zm2.868-3.027c-.259.293-.506.601-.77.887-.185.2-.373.381-.558.576l-.371-.371 1.396-1.396zm-7.243-11.548c1.551-3.318 10.646-12.408 13.315-14.961 5.096-4.825 7.649-4.888 12.665-2.151 1.994 1.091 4.255 2.469 5.9 4.424 2.669 3.171 2.116 5.602 2.116 6.602-.461 2.7-2.651 4.878-4.411 6.628-8.651 8.608-9.85 9.884-11.945 11.29-3.239 2.16-6.55 2.672-10.009.818.405-.448.789-.919 1.18-1.383.789-.936 1.186-1.378 2.362-2.995 3.898 1.607 6.895-.797 9.694-3.565 5.667-5.627 7.376-6.953 7.798-9.396.001 0 .001-.002.001-.002.614-3.625-2.389-6.214-5.586-7.971-3.517-1.901-5.569-1.872-9.104 1.515-2.455 2.335-4.832 4.842-7.066 7.453-3.619 4.261-1.81 5.552-1.074 6.746-1.128.92-2.554 2.124-4.166 3.654-2.099-3.15-3.013-3.817-1.67-6.706zm6.616 2.418c-.189-.307-.115-.189-.24-.368.13-.054.506-.455.614-.563l.13.13c.234.234.586-.121.354-.354l-.13-.129 2.499-2.498c.232-.232-.119-.588-.353-.354l-1.398 1.398c-.01-.046-.018-.093-.053-.128l-1.35-1.351c.311-.444.657-.862.982-1.245.197-.23.401-.455.601-.684l.175.175-1.33 1.33c-.098.098-.098.256 0 .354.097.097.255.098.354 0l1.33-1.33.249.249-.192.192c-.098.098-.098.256 0 .354.097.097.255.098.354 0l.192-.192.295.295c.097.097.255.098.354 0 .098-.098.098-.256 0-.354l-.295-.295 1.287-1.287.363.363c.097.097.255.098.354 0 .098-.098.098-.256 0-.354l-.363-.363 1.169-1.169c.098-.098.098-.256 0-.354s-.256-.098-.354 0l-1.169 1.169-.25-.25.4-.4c.098-.098.098-.256 0-.353-.098-.098-.256-.098-.354 0l-.4.4-.282-.282c.584-.633 1.175-1.257 1.773-1.873l1.323 1.323c.097.097.255.098.354 0 .098-.098.098-.256 0-.354l-.479-.479c.01-.008.025-.005.034-.014l1.53-1.531.496.496c.099.099.257.096.354 0 .098-.098.098-.256 0-.354l-.496-.496 1.03-1.03c.098-.098.098-.256 0-.354s-.256-.098-.354 0l-1.03 1.03-.497-.497c.158-.152.313-.309.471-.46.285-.273.583-.55.893-.816l1.056 1.055-.727.727c-.098.098-.098.256 0 .354s.256.098.354 0l.741-.741c.125.08.224.064.307-.019.085-.085.082-.21.019-.307l1.501-1.502 1.046 1.046c.233.233.589-.118.353-.354l-.079-.079c.046-.01.093-.018.129-.053l.858-.861.866.866c.097.097.255.098.354 0 .098-.098.098-.256 0-.354l-.866-.866.014-.014c3.121 1.404 6.775 4.032 6.193 7.481-.363 2.091-1.942 3.32-7.517 8.855-2.231 2.208-4.947 4.72-8.383 3.451.627-.894 1.222-1.942 1.398-3.016.667-.998-.834-6.474-6.562-2.012zm-.209-3.791 1.278 1.278c.035.035.083.043.128.053l-.822.822-1.078-1.079c.136-.43.259-.686.494-1.074zm-.628 1.649.857.858-.527.527s0 .001-.001.002c-.332-.469-.426-.707-.329-1.387zm4.038-5.739.269.268-1.287 1.287-.197-.198c.401-.455.805-.908 1.215-1.357zm.622.622.249.249-1.287 1.287-.249-.249zm3.398-4.772.501.501-1.53 1.531c-.009.01-.007.024-.014.034l-.515-.515c.514-.524 1.034-1.041 1.558-1.551zm6.521-3.143c.078.111.312.334.408.43l-.861.861c-.036.036-.044.083-.053.129l-1.358-1.358.181-.181c.507-.071.935-.085 1.683.119zm-2.633.123-.431.431c-.098.098-.098.256 0 .354.097.097.255.098.354 0l.493-.493.316.316-1.488 1.488-1.021-1.02c.554-.441 1.145-.828 1.777-1.076zm-6.261 14.629c.744.608 1.145 2.002.174 3.804-.259.481-.569.93-.861 1.335-.095.114-.11.156-.169.24l-.006-.003c-.514.716-1.058 1.41-1.607 2.1-.012-.036-.014-.076-.043-.105l-.982-.982 1.436-1.436.422.422c.097.097.255.098.353 0s.098-.256 0-.354l-.422-.422.234-.234c.098-.098.098-.256 0-.354s-.256-.098-.354 0l-.234.234-.658-.658c-.098-.098-.256-.098-.354 0s-.098.256 0 .354l.658.658-1.436 1.436-.141-.141c-.098-.098-.256-.098-.354 0s-.098.256 0 .354l.141.141-.46.459c-.098.098-.098.256 0 .354.097.097.255.098.354 0l.459-.46.982.982c.043.043.1.06.157.065-.383.474-.785.925-1.183 1.384l-1.609-1.609c-.098-.098-.256-.098-.354 0s-.098.256 0 .353l.977.977-1.396 1.396-.88-.879.541-.541c.098-.098.098-.256 0-.354s-.256-.098-.354 0l-2.173 2.173c-.049.009-.098.019-.136.056-.038.038-.048.087-.056.136l-1.932 1.932c-.009.009-.006.022-.013.031l-.747-.747c-.098-.098-.256-.098-.354 0s-.098.256 0 .354l2.572 2.572c-.671.578-1.353 1.143-2.058 1.688l-.54-.54 1.334-1.334c.098-.098.098-.256 0-.354s-.256-.098-.354 0l-1.334 1.334-.68-.68 1.228-1.228c.098-.098.098-.256 0-.354s-.256-.098-.354 0l-1.228 1.228-.38-.38c-.098-.098-.256-.098-.354 0s-.098.256 0 .354l.38.38-1.237 1.237-.301-.301c-.098-.098-.256-.098-.354 0s-.098.256 0 .354l.301.301-1.515 1.515-1.056-1.056c-.097-.097-.255-.098-.354 0-.098.098-.098.256 0 .354l1.056 1.056-.959.959-.698-.698c-.098-.098-.256-.098-.354 0s-.098.256 0 .354l.698.698-.937.937c-.234.234.121.586.354.354l.937-.937.368.368c.097.097.255.098.354 0 .098-.098.098-.256 0-.354l-.368-.368.959-.959.874.874c.011.011.027.008.039.016-1.087.679-2.827 1.936-3.853 1.263-1.08-.699-.406-2.614.228-3.777 1.174-2.146 16.925-19.81 19.966-17.327zm-34.636 26.465.747.747-1.071 1.071c-.118-.598.071-1.267.324-1.818zm4.448-5.445.134.135-1.128 1.128-.089-.09c.356-.395.719-.784 1.083-1.173zm-1.417 1.545.07.07-.485.485c-.098.098-.098.256 0 .354.097.097.255.098.354 0l.485-.485.757.757-1.419 1.419-.987-.987c-.039-.039-.09-.05-.14-.058.448-.522.904-1.04 1.365-1.555zm-1.624 1.858c.012.038.015.079.045.109l.987.987-1.339 1.339-.854-.854c.332-.572.754-1.1 1.161-1.581zm-.307 3.142.935.935c.097.097.255.098.354 0 .098-.098.098-.256 0-.353l-.935-.935 1.339-1.339.33.33c.097.097.255.098.353 0s.098-.256 0-.354l-.33-.33 1.419-1.419.304.304c.097.097.255.098.353 0s.098-.256 0-.354l-.304-.304.422-.422c.098-.098.098-.256 0-.354s-.256-.098-.354 0l-.422.422-.757-.757 1.128-1.128.643.643c.097.097.255.098.353 0s.098-.256 0-.354l-.661-.661c.054-.095.057-.213-.025-.294-.081-.081-.198-.078-.294-.025l-.166-.166c.356-.378.719-.75 1.081-1.122l.513.513-.114.114c-.098.098-.098.256 0 .354.097.097.255.098.354 0l.114-.114.405.405c.097.097.255.098.354 0 .098-.098.098-.256 0-.353l-.405-.405.89-.89.333.333c.099.099.257.096.354 0 .098-.098.098-.256 0-.354l-.333-.333.512-.512c.098-.098.098-.256 0-.354s-.256-.098-.354 0l-.512.512-.519-.519c.36-.354.717-.712 1.081-1.06.201-.189.406-.376.612-.56l.165.165-.617.617c-.098.098-.098.256 0 .354.097.097.255.098.353 0l.617-.617 1.147 1.146c.097.097.255.098.354 0 .098-.098.098-.256 0-.354l-1.147-1.146.943-.943.652.651-.697.696c-.098.098-.098.256 0 .354.099.099.257.096.354 0l.736-.735c.016.003.028.018.044.018.144 0 .267-.111.232-.294l.856-.856c.243.198.528-.109.34-.34.325-.325-.092-.617-.308-.399l-.039.039-.294-.294c.074-.004.15-.007.225-.007.627 0 1.286.151 2.061.476-1.632 2.108-3.431 5.68-1.226 7.106 1.626 1.061 3.898-.448 7.025-2.623 1.785 3.154-.14 5.277-2.159 7.278-5.432 5.394-6.266 6.313-7.667 7.243-2.886 1.914-5.624 1.566-8.105-.852-.979-.948-1.75-2.076-2.614-3.486-.12-.19-.321-.45-.497-.724zm6.002-9.288.522.522-.89.89-.518-.518c.294-.3.588-.598.886-.894zm5.123-3.817.557.557-.81.81-.916-.916c.377-.2.766-.358 1.169-.451zm-1.615.714.003.003-.943.943-.141-.141c.35-.296.71-.569 1.081-.805zm8.003 4.299-.874-.874 1.516-1.515.688.688c-.078.098-.08.238.01.328.084.084.208.107.329.01l.156.156c.043.043.1.06.156.065-.617.435-1.258.861-1.923 1.283-.008-.051-.019-.102-.058-.141zm2.219-1.308c.03-.088.028-.183-.042-.253l-.149-.148 1.237-1.237.489.489c-.508.386-1.01.782-1.535 1.149zm-.543-.755-.681-.681 1.237-1.237.68.68zm-23.951 6.394c3.434-4.012 7.089-7.875 10.865-11.478 2.019-1.911 4.212-3.79 6.852-3.955.129-.009.258-.013.387-.013 1.841 0 3.627.845 5.18 1.683-1.578 1.632-2.617 2.591-3.83 4.003-.792-.361-1.855-.744-3.018-.672-1.519.093-2.792.91-3.952 1.897l-.032-.032c-.098-.098-.256-.098-.354 0s-.098.256 0 .354l.008.008c-.2.179-.397.361-.592.544-2.468 2.358-4.84 4.865-7.054 7.452-3.519 4.144-1.902 5.441-1.264 6.441.898 1.466 1.713 2.652 2.765 3.672 2.719 2.651 5.966 3.218 9.355.969 1.503-.997 2.365-1.949 7.819-7.366 1.495-1.483 2.759-2.861 3.079-4.711.198-.198.183-2.162-.813-3.863 1.275-.908 2.775-2.039 4.477-3.561 2.358 3.237 1.669 6.025 1.669 6.025-.46 2.7-2.651 4.878-4.411 6.628-8.607 8.565-9.826 9.869-11.945 11.29-4.551 3.035-8.996 2.503-12.941-1.358-1.688-1.632-3.002-3.67-4.102-5.454-1.219-1.959-2.567-3.323 1.852-8.503z"/><path d="m23.406 6.847c-.002 0-.005 0-.008 0-.276.004-.496.232-.492.508l.143 9.365c.004.273.228.492.5.492h.008c.276-.004.496-.231.492-.508l-.143-9.365c-.004-.273-.228-.492-.5-.492z"/><path d="m18.968 19.965c.165-.221.12-.534-.101-.7-2.644-1.983-5.226-4.105-7.673-6.304-.205-.183-.522-.168-.706.038-.185.205-.168.521.038.706 2.469 2.219 5.073 4.359 7.741 6.36.222.166.535.121.701-.1z"/><path d="m5.831 23.338c-.273-.023-.501.222-.502.499-.001.276.223.5.498.501l9.465.03h.002c.275 0 .499-.223.5-.498.001-.276-.223-.5-.498-.502z"/><path d="m39.515 57.912h.008c.275-.004.496-.231.492-.507l-.142-9.366c-.004-.273-.228-.492-.5-.492-.002 0-.005 0-.008 0-.276.004-.496.231-.492.508l.142 9.365c.004.273.228.492.5.492z"/><path d="m43.954 44.794c-.165.221-.12.534.101.7 2.638 1.978 5.22 4.099 7.673 6.304.208.186.523.166.706-.038.185-.205.168-.521-.038-.706-2.475-2.225-5.079-4.364-7.741-6.359-.221-.165-.534-.123-.701.099z"/><path d="m57.092 41.42h.002c.275 0 .499-.223.5-.499s-.223-.5-.498-.501l-9.466-.029c-.001 0-.001 0-.002 0-.275 0-.499.223-.5.499s.223.5.498.501z"/><path d="m40.4 25.222-.181.181c-.098.098-.098.256 0 .354.097.097.255.098.354 0l.181-.181.938.938c.097.097.255.098.354 0 .098-.098.098-.256 0-.354l-.938-.938.942-.941c.098-.098.098-.256 0-.354s-.256-.098-.353 0l-.942.941-.261-.261c-.098-.098-.256-.098-.354 0s-.098.256 0 .354z"/></svg>