<svg id="Layer_1" enable-background="new 0 0 66 66" height="512" viewBox="0 0 66 66" width="512" xmlns="http://www.w3.org/2000/svg"><path d="m55.203 18.523c1.608-9.636-5.911-17.731-14.725-17.195-4.356.259-8.464 2.799-10.594 6.505-1.399-.962-3.02-1.602-4.725-1.809-7.15-.873-13.249 5.565-11.662 12.852-.031 0-.062-.005-.093-.005-4.894 0-9.418 4.219-9.858 9.628-.242 2.853.694 5.735 2.569 7.908 1.642 1.906 4.076 3.34 7.037 4.146.537.147 1.069.257 1.607.363l-.285 9.119c-.175 5.445 1.522 7.166 6.875 7.226l24.249.25c6.787.098 9.135-2.059 8.846-9.261-.14-3.479-.28-6.959-.41-10.442l-.016-.356c2.256-1.137 4.037-2.423 5.406-3.935 2.157-2.361 3.265-5.298 3.039-8.056-.3-3.825-3.409-7.256-7.26-6.938zm6.263 7.019c.005.059 0 .119.004.177 0 0 0 0 0-.001l-.548-.548.424-.424c.05.263.098.526.12.796zm-55.54-1.063.164.164-.67.67c.143-.309.302-.61.477-.903.011.023.009.05.029.069zm-1.015 7.596c.024-.012.053-.01.074-.03l1.015-1.016 1.18 1.18-1.593 1.593c-.277-.554-.504-1.131-.676-1.727zm.918 2.192 1.704-1.704 1.18 1.18-1.18 1.18-.709-.709c-.098-.098-.256-.098-.353 0-.098.098-.098.256 0 .354l.709.709-.383.382c-.362-.433-.686-.899-.968-1.392zm1.303 1.763.401-.401 1.35 1.35-.323.323c-.525-.391-1.002-.816-1.428-1.272zm2.34 1.538c.098.098.256.098.353 0 .098-.098.098-.256 0-.354l-.235-.235 1.18-1.18 1.112 1.112-1.511 1.512c-.495-.252-.963-.526-1.401-.823l.267-.266zm3.068 1.753c-.592-.195-1.154-.42-1.691-.669l.736-.736c-.005.07.012.14.066.194l1.05 1.05zm-.536-1.564c-.054-.054-.124-.071-.194-.066l.426-.426 1.125 1.125c.022.022.052.021.078.033l-.385.385zm1.411 1.831c-.034-.009-.066-.021-.1-.03.033-.012.07-.013.096-.04.098-.098.098-.256 0-.354l-.004-.004 1.274-1.274c.098-.098.098-.256 0-.354s-.256-.098-.354 0l-.581.581c-.012-.026-.011-.057-.032-.078l-1.125-1.125 1.261-1.262c.098-.098.098-.256 0-.354s-.256-.098-.354 0l-1.261 1.262-1.112-1.112.927-.927c.098-.098.098-.256 0-.354s-.256-.098-.354 0l-.927.927-.335-.334c-.098-.098-.256-.098-.353 0-.098.098-.098.256 0 .354l.334.334-1.18 1.18-1.35-1.35 1.18-1.18.214.214c.098.098.256.098.354 0s.098-.256 0-.354l-.213-.212.335-.335c.098-.098.098-.256 0-.354s-.256-.098-.353 0l-.335.335-1.18-1.18.506-.506c.098-.098.098-.256 0-.354s-.256-.098-.354 0l-.506.506-1.18-1.18.744-.744c.098-.098.098-.256 0-.354s-.256-.098-.353 0l-.744.746-.403-.403c-.098-.098-.256-.098-.353 0-.098.098-.098.256 0 .353l.403.403-.878.879c-.144-.62-.227-1.252-.248-1.884.122.095.243.073.327-.011l1.731-1.731 2.177 2.178c.098.098.256.098.354 0s.098-.256 0-.354l-2.177-2.178.414-.414c.098-.098.098-.256 0-.354s-.256-.098-.354 0l-.414.414-1.05-1.05c-.098-.098-.256-.098-.354 0s-.098.256 0 .354l1.05 1.05-1.705 1.706c.002-.233.003-.466.023-.698.072-.892.279-1.762.591-2.593.121.095.243.073.328-.011l.982-.982 2.086 2.087c.098.098.256.098.354 0s.098-.256 0-.354l-2.087-2.087.229-.229c.098-.098.098-.256 0-.354s-.256-.098-.353 0l-.23.231-.164-.164c-.048-.048-.11-.07-.173-.072 1.746-2.664 4.578-4.183 7.298-4.183 1.998 0 3.912.84 5.121 2.246.18.211.496.233.705.053s.233-.495.053-.705c-1.163-1.353-2.884-2.242-4.746-2.504-1.67-6.643 3.903-12.758 10.502-11.945 3.114.38 6.038 2.435 7.448 5.237.125.246.425.345.671.222.247-.124.346-.425.222-.671-.654-1.299-1.587-2.427-2.691-3.348 1.944-3.486 5.775-5.886 9.849-6.129 8.378-.495 15.361 7.333 13.629 16.367-1.995.502-3.702 1.929-4.208 3.904-.068.268.093.54.36.608.268.07.54-.094.608-.36 1.092-4.258 8.481-5.031 10.277 1.334l-.638.638-1.603-1.603c-.098-.098-.256-.098-.354 0s-.098.256 0 .354l1.603 1.603-1.805 1.805-.958-.958c-.098-.098-.256-.098-.353 0-.098.098-.098.256 0 .354l.957.958-.869.869c-.098.098-.098.256 0 .354.049.049.113.073.177.073s.128-.024.177-.073l.869-.869 1.054 1.054c.014.014.035.011.051.021-.052.007-.104.02-.144.06l-1.451 1.451-1.314-1.314c-.098-.098-.256-.098-.354 0s-.098.256 0 .353l1.314 1.314-.714.714-.824-.824c-.098-.098-.256-.098-.354 0s-.098.256 0 .353l.824.825-.157.157c-.098.098-.098.256 0 .354.049.049.113.073.177.073s.128-.024.177-.073l.157-.157.492.492-1.07 1.07-1.804-1.804c-.232-.232-.588.119-.354.353l1.804 1.804-.492.492-.913-.914c-.098-.098-.256-.098-.354 0s-.098.256 0 .354l.913.914-1.169 1.169c-.503-4.548-2.715-5.755-6.901-6.259-8.012-.964-16.14-.897-24.16.201-1.487.211-2.929.469-4.269 1.054l-1.014-1.014c.017-.08.01-.163-.053-.226-.098-.098-.256-.098-.354 0l-1.62 1.62c-.036.036-.044.084-.054.13-.004.004-.01.002-.014.006-.098.098-.098.256 0 .353l.765.765c-.138.163-.26.331-.372.504.034-.089.033-.188-.039-.26-.098-.098-.256-.098-.354 0l-.659.659c-.096-.055-.215-.058-.296.024-.082.082-.079.201-.024.296l-.59.589c-.098.098-.098.256 0 .354s.256.098.354 0l.573-.573.383.382c-.215.769-.294 1.59-.33 2.439l-.762-.761c-.098-.098-.256-.098-.354 0s-.098.256 0 .354l1.025 1.024c.019.019.046.017.069.028-.004.16-.008.321-.011.482l-.055 1.752c-.454-.095-.91-.185-1.371-.311zm42.177-4.266c.02.02.049.018.073.03-.356.232-.722.461-1.113.681l.876-.876zm-2.362 7.518-.304-.304.281-.281c.008.194.016.39.023.585zm-36.655-10.599-.612-.612 1.282-1.282.839.839c-.614.315-1.109.669-1.509 1.055zm-1.19 1.809-.205-.206.583-.583c-.151.254-.274.518-.378.789zm9.38 22.17.571-.571.659.659-1.219-.013c.003-.026-.005-.048-.011-.075zm2.217.099.535-.535.546.546zm4.666-1.693.998.997-.746.746-.972-.01c.056-.005.113-.021.156-.064.098-.098.098-.256 0-.354l-.375-.375zm7.122-1.332 1.036 1.036-.959.959-1.036-1.036zm-.276 2.349-.21.21c-.098.098-.098.256 0 .354s.256.098.354 0l.246-.246c.084.019.139.039.229-.052.063-.063.07-.148.052-.229l.996-.995 1.133 1.132-.152.152c-.098.098-.098.256 0 .354s.256.098.354 0l.152-.152.031.031c.098.098.256.098.354 0s.098-.256 0-.354l-.033-.032.804-.804 1.485 1.485-7.88-.081c.029-.012.063-.012.087-.036.098-.098.098-.256 0-.354l-.229-.229 1.191-1.191zm4.967-4.26 1.132 1.133-1.789 1.789-1.132-1.133zm-1.01 3.275-.804.804-1.133-1.132.805-.805zm-6.309 1.722c.023.023.055.022.082.034l-.568-.006.257-.257zm-1.139-.026c-.013.013-.01.032-.019.047l-1.175-.012c.074-.098.076-.234-.013-.323l-.443-.443 1.017-1.017 1.191 1.191zm-1.596.031-.808-.008.4-.4zm-2.677-.09c.043.043.099.059.154.064l-.96-.01.43-.43zm14.879.216-.866-.009c.049-.094.051-.207-.028-.286l-1.557-1.557 1.789-1.789 1.268 1.268-1.483 1.483c-.098.098-.098.256 0 .354s.256.098.354 0l1.483-1.483 1.902 1.902c-.922.117-1.896.131-2.862.117zm2.7-7.283 1.408 1.408-1.136 1.136-1.268-1.268.975-.975c.082-.083.079-.205.021-.301zm.476 6.36c.098.098.256.098.353 0l1.275-1.275 1.019 1.019c-.687.509-1.507.813-2.403.979-.041-.144-2.001-2.067-2.107-2.173l1.658-1.659 1.48 1.48-1.275 1.275c-.097.098-.097.256 0 .354zm.149-3.462 1.136-1.136 1.48 1.48-1.136 1.136zm-.707 0-1.658 1.658-1.269-1.268 1.658-1.658zm3.667 2.827c-.002.004-.069.056-.073.06l-1.054-1.054 1.136-1.136.037.037c.049.049.113.073.177.073s.128-.024.177-.073c.098-.098.098-.256 0-.354l-.037-.037 1.003-1.003c.098-.098.098-.256 0-.354s-.256-.098-.354 0l-1.003 1.003-1.48-1.48.123-.123c.098-.098.098-.256 0-.354s-.256-.098-.354 0l-.123.123-1.496-1.496c-.098-.098-.256-.098-.354 0s-.098.256 0 .354l.014.014c-.096-.059-.218-.061-.301.022l-.975.975-.654-.654c-.098-.098-.256-.098-.354 0s-.098.256 0 .354l.653.654-1.658 1.658-1.15-1.15c.054-.095.057-.213-.024-.295-.098-.098-.256-.098-.354 0l-2.101 2.101-.48-.48c-.098-.098-.256-.098-.354 0s-.098.256 0 .354l.48.48-.805.805-1.036-1.036.612-.612c.098-.098.098-.256 0-.354s-.256-.098-.354 0l-1.92 1.925-.634-.634c-.098-.098-.256-.098-.354 0s-.098.256 0 .354l.634.634-1.191 1.191-1.191-1.191 1.841-1.841c.098-.098.098-.256 0-.354s-.256-.098-.354 0l-1.84 1.841-.132-.132c-.098-.098-.256-.098-.353 0-.098.098-.098.256 0 .354l.132.132-1.017 1.017-.998-.997 1.052-1.052c.098-.098.098-.256 0-.354s-.256-.098-.354 0l-1.101 1.101c-.067-.003-.134.018-.185.069s-.072.118-.07.185l-.989.989-.866-.866c-.098-.098-.256-.098-.353 0-.098.098-.098.256 0 .354l.866.866-.672.672c-.029.029-.031.068-.043.104l-.746-.008c.04-.091.04-.196-.035-.27l-.634-.634 1.661-1.66c.098-.098.098-.256 0-.354s-.256-.098-.354 0l-1.66 1.66-.344-.345c-.098-.098-.256-.098-.354 0s-.098.256 0 .354l.344.344-.692.692c-.053.053-.072.122-.067.191h-.035c.088-.098.089-.247-.005-.342l-.675-.675 1.688-1.687c.098-.098.098-.256 0-.354s-.256-.098-.354 0l-1.688 1.687-.209-.21c-.098-.098-.256-.098-.354 0s-.098.256 0 .354l.209.21-.535.534-.827-.827c-.098-.098-.256-.098-.354 0s-.098.256 0 .354l.836.836c-.022.029-.032.062-.04.096l-1.528-.016-.283-.283 2.153-2.152c.098-.098.098-.256 0-.354s-.256-.098-.354 0l-2.15 2.154-.75-.75c-.098-.098-.256-.098-.354 0s-.098.256 0 .354l.75.75-.269.269c-.455-.006-.911-.02-1.358-.055l-.387-.387 2.043-2.043c.098-.098.098-.256 0-.354s-.256-.098-.354 0l-2.043 2.043-.615-.615c-.098-.098-.256-.098-.354 0s-.098.256 0 .354l.615.615-.201.201c-2.964-.668-3.247-2.935-3.15-5.952l.372-11.898c.09-4.259.432-6.308 7.137-7.262 7.926-1.087 15.978-1.154 23.902-.199 4.287.518 5.841 1.633 6.121 6.476v.005l.03.661c.047 1.241.098 2.483.146 3.724l-.608.608-.543-.542c-.098-.098-.256-.098-.354 0s-.098.256 0 .354l.543.542-.384.384c-.098.098-.098.256 0 .354s.256.098.354 0l.384-.384.657.657c.008.008.02.005.029.012.036.904.07 1.808.106 2.712-.057.004-.115.022-.159.066l-1.37 1.369-.928-.928c-.098-.098-.256-.098-.354 0s-.098.256 0 .354l.928.928-.922.922c-.098.098-.098.256 0 .354s.256.098.354 0l.922-.922.917.917c.098.098.256.098.354 0s.098-.256 0-.354l-.917-.917 1.198-1.198c.019.477.037.953.056 1.43.101 2.505.065 5.083-1.55 6.661zm6.789-22.108c-.749.827-1.644 1.58-2.672 2.283-.004-.058-.022-.115-.066-.159l-.164-.164.518-.517c.031.013.057.037.09.037.064 0 .128-.024.177-.073.074-.074.074-.176.036-.267l1.096-1.096.076.076c.049.049.113.073.177.073s.128-.024.177-.073c.098-.098.098-.256 0-.354l-.076-.076.404-.404c.098-.098.098-.256 0-.354s-.256-.098-.354 0l-.404.404-.492-.492.714-.715.507.507c.049.049.113.073.177.073s.128-.024.177-.073c.098-.098.098-.256 0-.354l-.507-.507 1.45-1.451c.098-.098.098-.256 0-.354-.014-.014-.035-.011-.051-.021.052-.007.104-.02.144-.06.098-.098.098-.256 0-.354l-1.054-1.054 1.805-1.805.548.548c.049.049.113.073.177.073s.128-.024.177-.073c.005-.005.003-.013.007-.018.035 2.337-.956 4.783-2.794 6.794z"/><path d="m53.939 60.064c-42.089-.3-39.811-.447-41.149.136-.881.383-1.75 1.353-1.628 2.396.412 3.509 24.474 1.59 42.923 1.471 4.2-.031 4.057-3.975-.146-4.003zm.14 3.002c-7.873.051-32.887 1.254-41.092-.058-.695-.109-.789-.169-.831-.53-.067-.566.558-1.154 1.034-1.362 1.107-.481-1.229-.351 40.743-.052 2.833.019 3.026 1.98.146 2.002z"/><path d="m37.192 61.69h-7.989c-.276 0-.5.224-.5.5s.224.5.5.5h7.989c.276 0 .5-.224.5-.5s-.224-.5-.5-.5z"/><path d="m50.799 46.053.881-.881.713.713c.098.098.256.098.354 0s.098-.256 0-.353l-.713-.713.688-.688c.098-.098.098-.256 0-.354s-.256-.098-.354 0l-.688.688-.116-.116c-.098-.098-.256-.098-.354 0s-.098.256 0 .354l.116.116-.881.881c-.098.098-.098.256 0 .354.098.096.256.096.354-.001z"/><path d="m33.77 38.898-1.154 1.154-1.415-1.415 1.341-1.341c.098-.098.098-.256 0-.354s-.256-.098-.354 0l-1.341 1.341-1.578-1.578 1.381-1.381c.098-.098.098-.256 0-.354s-.256-.098-.354 0l-1.381 1.381-.394-.394c-.098-.098-.256-.098-.354 0s-.098.256 0 .354l.394.394-1.523 1.524-.64-.64c-.098-.098-.256-.098-.353 0-.098.098-.098.256 0 .354l.639.64-1.36 1.36-1.374-1.374c-.098-.098-.256-.098-.354 0s-.098.256 0 .354l1.374 1.374-1.97 1.973c-.098.098-.098.256 0 .354s.256.098.353 0l1.972-1.973.871.871-1.51 1.51c-.098.098-.098.256 0 .353.098.098.256.098.354 0l1.51-1.51.382.382c-.032.089-.031.186.04.257.102.102.167.073.257.04l.655.655c.098.098.256.098.354 0s.098-.256 0-.354l-.627-.627 1.36-1.36 1.103 1.104c.098.098.256.098.354 0s.098-.256 0-.354l-1.103-1.104 1.524-1.524 1.415 1.415-1.864 1.865c-.098.098-.098.256 0 .354s.256.098.354 0l1.863-1.864.514.514c.098.098.256.098.354 0s.098-.256 0-.354l-.514-.514 1.154-1.154c.098-.098.098-.256 0-.354-.099-.097-.257-.097-.355 0zm-8.09 1.399 1.36-1.36.87.871-1.36 1.36zm1.577 1.578-.354-.354 1.36-1.36.354.354zm1.714-1.714-.354-.354.944-.944c.098-.098.098-.256 0-.354s-.256-.098-.354 0l-.944.944-.87-.871 1.524-1.524 1.578 1.578z"/><path d="m35.499 7.333c.657-.456 1.373-.824 2.122-1.107l.086.549c.02.123.126.211.247.211.013 0 .026-.001.039-.003.137-.022.23-.15.208-.286l-.098-.626c1.008-.325 2.062-.499 3.121-.506l.096.721c.017.125.125.217.248.217.011 0 .022-.001.034-.002.137-.018.233-.145.215-.281l-.086-.64c.921.039 1.836.188 2.709.48.186.062.367.135.548.207-.001.008-.002.016-.003.025l-.011.078c-.105.732.14 1.069.364 1.222.112.078.269.05.348-.066.078-.113.048-.269-.066-.347-.196-.134-.183-.49-.154-.709.742.334 1.451.74 2.138 1.186-.141.314-.356.593-.631.797-.111.083-.134.239-.052.351.083.111.239.133.35.052.322-.238.575-.563.751-.925.649.44 1.28.906 1.904 1.367.109.082.267.059.35-.053.082-.11.059-.268-.053-.35-.663-.49-1.335-.986-2.03-1.452.067-.259.109-.523.091-.788-.01-.139-.143-.246-.267-.232-.138.01-.242.129-.232.267.011.156-.002.314-.029.469-.713-.457-1.453-.873-2.233-1.213.011-.244-.014-.498-.163-.72-.077-.116-.233-.146-.347-.069-.115.077-.146.233-.069.347.046.068.065.152.075.241-.139-.053-.277-.11-.419-.158-.946-.317-1.938-.472-2.935-.506l-.097-.73c-.019-.137-.149-.232-.281-.215-.137.019-.233.145-.215.281l.087.65c-1.062.013-2.119.19-3.132.508l-.144-.924c-.019-.121-.124-.211-.247-.211l-.19-.002c-.001 0-.003 0-.004 0-.136 0-.248.109-.25.246-.002.133.1.243.23.253l.124.792c-.823.302-1.61.696-2.329 1.195-.113.078-.142.234-.063.348.076.113.232.14.345.061z"/><path d="m20.113 12.335c.087-.106.072-.264-.035-.352-.192-.157-.364-.339-.551-.503.598-.481 1.281-.863 2.092-1.132l.855.594c.113.079.269.051.348-.063.079-.113.051-.269-.063-.348l-.513-.357c.511-.119 1.036-.183 1.561-.19.139.25.256.512.331.785.036.128.167.211.308.175.133-.037.212-.174.175-.308-.059-.217-.143-.427-.239-.631.638.043 1.268.16 1.866.377.128.047.273-.021.32-.15.047-.13-.02-.274-.15-.32-.741-.268-1.531-.402-2.324-.421-.191-.291-.414-.562-.671-.793-.101-.092-.26-.083-.353.019-.092.102-.084.261.019.352.146.132.277.279.4.435-.602.032-1.198.132-1.774.302l-.27-.188c-.114-.079-.27-.053-.348.063-.074.103-.047.236.043.319-.824.315-1.375.644-1.982 1.142-.244-.225-.502-.435-.733-.67-.096-.098-.254-.101-.354-.004-.098.097-.1.255-.003.353.226.231.48.435.718.656-.53.5-.988 1.076-1.359 1.707l-.508-.686c-.082-.109-.239-.133-.35-.052-.111.083-.134.239-.052.351l.643.866c-.387.779-.645 1.619-.739 2.477-.015.138.084.261.221.275.112.024.259-.069.276-.221.078-.715.284-1.414.583-2.073l.321.433c.083.112.24.134.35.053.111-.083.134-.239.052-.35l-.471-.635c.37-.674.844-1.287 1.404-1.808.205.182.395.381.606.554.104.089.262.074.35-.033z"/></svg>