<svg id="Layer_1" enable-background="new 0 0 66 66" height="512" viewBox="0 0 66 66" width="512" xmlns="http://www.w3.org/2000/svg"><path d="m3.27 53.621c-.169 7.218 1.826 9.305 8.033 10.186 8.553 1.186 17.438 1.503 26.414.812 6.846-.531 8.32-3.019 8.32-8.766 0-1.192.001-2.393.009-3.586.538-.287 1.059-.609 1.562-.959.781.86.574.51 1.467 1.51-.141 2.194 1.08 4.016 2.579 5.634 1.147 1.25 2.44 2.393 3.846 3.396.772.545 1.702 1.141 2.746 1.432 4.427 1.297 7.284-3.769 3.47-8.017-.823-.918-4.861-5.013-6.342-5.798-.761-.396-1.612-.586-2.418-.567l-1.589-1.361c4.562-6.6 3.084-17.035-5.28-21.46.01-2.718.019-5.436.019-8.153 0-5.115-1.418-7.133-7.397-7.253l-2.646-.051c.201-3.507-1.229-4.56-4.158-4.857-.668-.07-1.336-.132-2.004-.193-.024-.089-.05-.176-.078-.259-1.79-5.667-9.391-5.772-11.214-.006-.029.087-.056.176-.08.266-.668.061-1.336.123-2.003.192-1.103.112-2.25.288-3.096 1.075-.952.899-1.115 2.213-1.088 3.383-6.154.262-9.406 3.306-9.821 8.916-.184 2.573.903 28.07.749 34.484zm15.694 9.994.358-.358.412.412c-.257-.017-.513-.034-.77-.054zm4.643-1.214.917.917-.385.385c-.055.055-.071.128-.064.2-.489-.017-.978-.042-1.466-.065-.011-.041-.016-.084-.048-.116l-.138-.138zm2.49.052c.01.045.017.091.052.126l.887.887-.492.492c-.352-.005-.705-.01-1.057-.018.002-.002.006-.001.009-.004.098-.098.098-.256 0-.354l-.264-.264zm1.292 1.366.156.156c-.102-.001-.204-.004-.306-.005zm-2.25.114c-.172-.004-.343-.004-.514-.009l.253-.253zm3.009.044c0-.064-.024-.129-.073-.178l-.333-.333 1.09-1.09c.012.029.012.061.035.085l1.495 1.495c-.737.012-1.475.021-2.214.021zm7.75-.807-.649-.649.829-.828 1.272 1.272-.503.503c-.058.058-.07.135-.06.21-.954.067-1.908.125-2.864.169l.972-.972.649.649c.098.098.256.098.354 0 .098-.099.098-.257 0-.354zm1.569-2.867 1.272 1.272-1.036 1.036-1.272-1.272zm.173 3.319c-.086.007-.173.01-.259.017l1.71-1.71.636.636c.233.233.589-.118.354-.354l-.636-.636.947-.947 1.065 1.065-1.124 1.123c-.098.098-.098.256 0 .354.036.037.085.046.132.055-.896.209-1.859.322-2.825.397zm3.106-3.348 1.124-1.124 1.065 1.065-1.124 1.124zm1.064 1.772.509.509c-.498.261-1.045.46-1.629.61zm3.228-6.736c-.096-.055-.214-.057-.295.024l-.065.065-.533-.533.896-.896c-.002.447-.003.894-.003 1.34zm-.001.437v.013l-.007-.007zm11.848 5.815.119-.119.429.429c-.187-.097-.37-.2-.548-.31zm1.637.757c-.138-.038-.269-.093-.402-.143.081-.098.083-.241-.009-.333l-.754-.754.822-.822 1.082 1.082-.439.439c-.098.098-.098.256 0 .353.098.098.256.098.354 0l.439-.439.699.699c-.548.12-1.167.101-1.792-.082zm.387-2.781c.009.015.007.034.019.047l1.049 1.049-.362.362-1.082-1.082zm3.479.734-1.354-1.354.662-.663.004.004c.098.098.256.098.354 0s.098-.256 0-.354l-.136-.136c-.011-.021-.009-.046-.026-.063-.018-.018-.043-.015-.063-.026l-.689-.689.376-.377c.759 1.083 1.194 2.368.872 3.658zm-1.415-4.341c.078.087.159.181.239.281l-.426.426-.236-.236c-.098-.098-.256-.098-.354 0s-.098.256 0 .354l.237.237c-.096.098-.096.254.001.351.095.094.249.1.351.001l.558.558-.663.663-.13-.13c-.098-.098-.256-.098-.354 0s-.098.256 0 .354l.131.131c-.095.098-.096.254.001.351.094.095.249.1.351.001l1.475 1.475c.018.018.044.015.065.027-.292.69-.744 1.209-1.488 1.5.014-.077.003-.157-.057-.217l-.706-.706.362-.362.377.377c.098.098.256.098.354 0s.098-.256 0-.354l-.377-.377.361-.361c.098-.098.098-.256 0-.354s-.256-.098-.354 0l-.361.361-1.049-1.049c-.013-.013-.032-.01-.047-.019l.222-.222c.098-.098.098-.256 0-.354s-.256-.098-.354 0l-.922.922-.068-.068c-.098-.098-.256-.098-.354 0s-.098.256 0 .354l.068.068-.822.822-.454-.454c-.098-.098-.256-.098-.354 0s-.098.256 0 .354l.454.454-.197.197c-.125-.084-.252-.168-.373-.254-1.347-.962-2.588-2.057-3.689-3.258-4.899-5.286-1.136-9.331 2.52-7.424 1.226.65 5.022 4.421 6.062 5.58zm-11.689-4.361c-.276-.272-.607-.572-.868-.846.813-.643 1.623-1.417 2.367-2.371l.877.751c-1.123.382-1.998 1.289-2.376 2.466zm.917-20.742c3.313 4.444 3.615 10.847.733 15.573-4.336 6.942-13.727 8.91-20.349 3.877-13.064-9.986-.118-30.996 14.779-23.467 1.943.978 3.615 2.366 4.837 4.017zm-6.832-17.964-.474-.474c.207.104.403.223.587.361zm-1.968-.116-.807-.807c.025-.052.032-.102.019-.157.404.046.798.11 1.173.204l.187.187zm-1.709-1.04c.011.022.009.048.027.066l.19.19-.515.515-.809-.809.107.002c.334.005.668.018 1 .036zm-3.639 1.802c.098.098.256.098.354 0l.653-.653.573.573-1.016 1.016-.94-.94c.125-.515.23-1.215.289-1.744l.741.741-.653.653c-.099.098-.099.256-.001.354zm.485-1.881 1.023.02-.501.501zm-10.557-9.264-.003.003-.007-.007c.003.001.007.002.01.004zm-1.314-.347-.401.401-.408-.408c.348-.033.31-.048.809.007zm-3.293 1 .431.431-1.088 1.088c-.098.098-.098.256 0 .353.098.098.256.098.354 0l1.088-1.088.503.503c.098.098.256.098.354 0s.098-.256 0-.353l-.503-.503.814-.814c.098-.098.098-.256 0-.353-.098-.098-.256-.098-.354 0l-.814.814-.368-.368c.575-.368.994-.514 1.457-.62l.665.665-.488.487c-.098.098-.098.256 0 .354s.256.098.354 0l.488-.487.17.17c.098.098.256.098.354 0s.098-.256 0-.354l-.17-.17.528-.528.477.477-.181.181c-.098.098-.098.256 0 .353.098.098.256.098.354 0l.181-.181.389.388c.098.098.256.098.353 0 .098-.098.098-.256 0-.354l-.389-.388.115-.115c1.122.648 2.028 1.742 2.43 3.013.051.159.095.326.122.493.036.226.22.399.449.42.785.071 1.571.143 2.357.225 2.528.256 3.524.901 3.226 4.309l-.02.218c-.171 1.69-.438 3.416-1.636 4.328-.935.709-2.23.762-3.692.748-6.559-.074-4.305-.075-10.557-.004-.011-.039-.015-.081-.046-.112-.098-.098-.256-.098-.354 0l-.117.116c-.403.003-.791-.003-1.163-.027-1.775-.112-2.991-.652-3.6-2.635l.506-.506.576.576c.098.098.256.098.354 0s.098-.256 0-.354l-.576-.575 1.053-1.053c.098-.098.098-.256 0-.354s-.256-.098-.354 0l-1.053 1.053-.669-.669.962-.962.4.4c.098.098.256.098.354 0s.098-.256 0-.354l-.4-.4.929-.929c.033-.033.038-.077.049-.118l.094.094c.098.098.256.098.354 0s.098-.256 0-.353l-1.133-1.133.898-.898.924.924-.002.002c-.098.098-.098.256 0 .353.098.098.256.098.354 0l.003-.002.476.476c.098.098.256.098.354 0s.098-.256 0-.353l-.476-.476.809-.809.7.7c.098.098.256.098.354 0s.098-.256 0-.354l-.7-.699.799-.799c.098-.098.098-.256 0-.353-.069-.069-.164-.072-.251-.043.012-.039.017-.079.03-.118.056-.178.127-.352.203-.522l.906.907c.098.098.256.098.354 0s.098-.256 0-.353l-1.02-1.021c.349-.619.815-1.171 1.366-1.605zm11.95 13.781c.008-.004.016-.007.023-.011l-.282.282-.107-.107c.111-.041.272-.118.366-.164zm-4.256 1.644c-.007.007-.004.017-.01.025-.012-.023-.01-.051-.029-.071l-.646-.646.402-.402.888.01c.129.001.263.002.4.002h.03.041c.001.001.001.003.001.003zm-1.038-1.045-.058-.058.115.001zm-2.157-.081-.043.043-.044-.044zm-3.553.002-.117.117-.115-.115zm-1.991.023-.076.076-.074-.074zm-6.223-9.762.481.481-.82.819c-.098.098-.098.256 0 .354s.256.098.354 0l.819-.82.754.754c-.042.011-.086.016-.118.049l-.93.929-1.212-1.212c.102-.516.301-.997.672-1.354zm.417-.29c.366-.208.794-.335 1.25-.414l-.832.832zm-.229 3.211-.86.86c-.003-.025-.006-.051-.008-.076l-.06-.617c-.022-.349-.031-.727-.008-1.102zm-.294 2.338-.301.301c-.054-.24-.096-.486-.135-.736zm4.633-6.268-.004-.004c.003 0 .006-.001.009-.001zm-.621.054c.01.017.007.039.022.054l.245.245-.809.809-.952-.953c.001-.003.003-.006.004-.01.037-.004.074-.01.111-.014.459-.047.919-.088 1.379-.131zm-14.49 12.584c.403-5.441 3.573-7.773 8.892-7.994l.016.169c.339 3.353 1.173 5.557 4.566 5.914l.338.338c-.273.273-.79.638-.537.891.098.098.256.098.354 0l.537-.537.846.847c.098.098.256.098.354 0s.098-.256 0-.354l-.846-.846.275-.275c.154 0 .306-.001.45-.002l.715-.008.42.42-.711.711c-.098.098-.098.256 0 .354s.256.098.354 0l.711-.711.411.411c.098.098.256.098.353 0 .098-.098.098-.256 0-.354l-.411-.411.437-.437.344-.004.46.461-.73.73c-.098.098-.098.256 0 .354s.256.098.354 0l.73-.73.576.576c.098.098.256.098.353 0s.098-.256 0-.354l-.576-.576.443-.443c.01-.01.007-.025.015-.036 1.445-.016 1.009-.016 2.057-.004l.405.406-.846.846c-.098.098-.098.256 0 .354s.256.098.354 0l.846-.846.427.427c.098.098.256.098.353 0 .098-.098.098-.256 0-.353l-.427-.427.389-.389.774.009c.006.055.021.109.063.151l.267.267-.692.692c-.098.098-.098.256 0 .354s.256.098.354 0l.691-.692.646.646c.093.093.253.114.364-.025.098.195.28.174.383.071l1.078-1.078.894.894c.098.098.256.098.353 0 .098-.098.098-.256 0-.354l-.894-.894.023-.023c.607-.029 1.164-.115 1.543-.211l.293.293-.749.749c-.098.098-.098.256 0 .354s.256.098.353 0l.749-.749.348.348c.098.098.256.098.354 0s.098-.256 0-.354l-.348-.348 1.113-1.113.633.633c.098.098.256.098.354 0s.098-.256 0-.354l-.863-.863c.299-.375.213-.268.381-.563.198-.348.31-.562.483-1.108l.743.742-.981.981c-.098.098-.098.256 0 .354s.256.098.354 0l.986-.986c.047.04.102.066.16.066.064 0 .128-.024.177-.073.093-.093.091-.238.007-.336l1.207-1.207c.098-.098.098-.256 0-.353-.033-.033-.077-.039-.119-.049-.012-.03-.012-.064-.037-.088l-.603-.603.65-.65.978.978-.209.209c-.098.098-.098.256 0 .354s.256.098.354 0l.226-.227c.1.057.191.079.295-.024.081-.081.079-.199.024-.295l.532-.532.826.826c-.012.076 0 .154.058.213.076.076.129.071.213.058.128.128.278.114.373.019.089-.089.086-.225.013-.323l.582-.582.688.688-.363.363c-.098.098-.098.256 0 .354s.256.098.354 0l.409-.408c.008.001.015.01.023.01.064 0 .128-.024.177-.073.055-.055.071-.128.064-.2l.176-.175c.056.056.119.102.171.163 1 1.142 1.083 2.862 1.083 4.674 0 2.551-.008 5.102-.017 7.653-6.82-3.014-14.301-.312-18.356 5.587-4.736 6.889-2.359 15.628 3.243 19.91 4.197 3.189 9.843 4.015 15.063 1.695-.001.164 0 .329-.001.493l-1.251 1.251-.03-.03c-.098-.098-.256-.098-.354 0s-.098.256 0 .354l.917.917-1.065 1.065-.207-.207c-.098-.098-.256-.098-.354 0s-.098.256 0 .354l.207.207-.089.089c-.098.098-.098.256 0 .354.049.049.113.073.177.073s.128-.024.177-.073l.089-.089 1.095 1.095c.098.098.256.098.354 0s.098-.256 0-.354l-1.095-1.095 1.065-1.065.355.355c-.035 2.434-.311 4.548-2.267 5.831l-.604-.604 1.124-1.124.217.217c.098.098.256.098.354 0s.098-.256 0-.354l-.217-.217.419-.419c.098-.098.098-.256 0-.354s-.256-.098-.354 0l-.419.419-1.065-1.065.645-.645c.098-.098.098-.256 0-.354s-.256-.098-.354 0l-.645.645-.296-.296c-.098-.098-.256-.098-.354 0s-.098.256 0 .354l.296.296-1.124 1.124-1.064-1.064c-.098-.098-.256-.098-.354 0s-.098.256 0 .354l1.064 1.064-.947.947-1.272-1.272.834-.834c.098-.098.098-.256 0-.354s-.256-.098-.354 0l-2.223 2.223-.175-.177c-.098-.098-.256-.098-.354 0s-.098.256 0 .354l.178.178-.828.828-.887-.887c-.098-.098-.256-.098-.354 0s-.098.256 0 .354l.887.887-1.352 1.352c-.739.03-1.477.061-2.217.077-.002-.028-.02-.051-.032-.077l.94-.94.762.762c.098.098.256.098.354 0s.098-.256 0-.353l-.762-.762 2.435-2.435c.098-.098.098-.256 0-.354s-.256-.098-.353 0l-2.436 2.435-.473-.473c-.098-.098-.256-.098-.354 0s-.098.256 0 .354l.473.473-.917.917-1.389-1.389c-.023-.023-.056-.023-.085-.035l2.293-2.293c.098-.098.098-.256 0-.354s-.256-.098-.354 0l-3.687 3.687-.887-.887c-.035-.035-.081-.042-.126-.052l1.299-1.299c.098-.098.098-.256 0-.354s-.256-.098-.354 0l-2.444 2.444-.917-.917h-.001l.678-.677c.098-.098.098-.256 0-.354s-.256-.098-.354 0l-2.212 2.213-1.005-1.005c-.098-.098-.256-.098-.354 0s-.098.256 0 .353l1.005 1.005-.205.205c-.361-.02-.721-.047-1.082-.07-.012-.036-.015-.076-.044-.105l-.71-.71 2.04-2.041c.098-.098.098-.256 0-.354s-.256-.098-.354 0l-2.041 2.041-.444-.444c-.098-.098-.256-.098-.354 0s-.098.256 0 .354l.444.444-.503.503c-.046.046-.067.107-.069.168-2.324-.188-4.643-.438-6.953-.758-5.598-.795-7.331-2.39-7.172-9.172.154-6.408-.927-31.962-.747-34.435z"/><path d="m25.149 10.933c.93-.6 1.485-1.761 1.414-2.958-.05-.855-.409-1.639-.983-2.151-.675-.602-1.62-.793-2.407-.49-.957.37-1.548 1.622-1.763 2.581-.259 1.153-.1 2.138.435 2.701.803.843 2.253.995 3.304.317zm-2.746-1.29c-.073-.188-.101-.433-.102-.704l.403.403zm3.161-1.609c.049.83-.335 1.657-.957 2.058-.584.378-1.381.33-1.885-.062l.335-.335.094.094c.098.098.256.098.354 0s.098-.256 0-.353l-.095-.094.632-.632c.098-.098.098-.256 0-.354s-.256-.098-.354 0l-.632.632-.696-.696c.01-.054.012-.104.024-.16.077-.343.195-.669.337-.952l.12.121c-.081.098-.083.241.009.333.085.085.214.106.333.009l.466.466c.098.098.256.098.354 0s.098-.256 0-.354l-.059-.058c.009.001.016.011.026.011.064 0 .128-.024.177-.073l.37-.37c.101.059.196.079.298-.023.082-.082.079-.202.023-.298l.031-.031c.098-.098.098-.256 0-.354s-.256-.098-.354 0l-.015.015-.358-.358c.275.041.549.156.771.354.379.337.616.871.651 1.464zm-1.417-1.107-.354.353c-.056.056-.071.13-.063.202l-.188-.188.486-.486zm-.645-.644.173.173-.485.486-.2-.2c.162-.221.338-.382.512-.459z"/><path d="m39.224 29.418c-2.903-.094-5.838 1.707-7.454 3.535-1.113 1.249-1.882 2.744-2.224 4.325-.76 3.571.676 7.458 3.575 9.673 8.941 6.792 20.427-4.658 13.742-13.622-.859-1.162-2.033-2.138-3.393-2.821-1.316-.665-2.785-1.042-4.246-1.09zm-1.501 1.22.863.863-.931.931-1.433-1.432c.476-.195.971-.335 1.471-.436.011.025.009.054.03.074zm-2.679 1.822c-.098-.098-.256-.098-.354 0l-.402.402-.46-.462c.574-.446 1.223-.845 1.913-1.174l1.561 1.561-1.543 1.543-1.115-1.115.401-.401c.097-.098.097-.256-.001-.354zm-2.526 1.157c.268-.303.586-.602.925-.894l.492.492-1.237 1.237-.468-.468c.098-.121.184-.25.288-.367zm-.302 1.672c.098.098.256.098.354 0l.129-.129.625.625-1.849 1.849-.741-.741c-.009-.009-.024-.006-.034-.014.265-.884.67-1.729 1.219-2.499l.426.426-.129.129c-.098.098-.098.256 0 .354zm-1.643 5.822.976.976-.494.494c-.197-.478-.368-.966-.482-1.47zm-.131-.839c-.052-.403-.076-.807-.071-1.212.112.136.27.115.363.022l.741-.741 1.744 1.744c.085.085.197.102.319.015l-1.634 1.634zm-.062-1.543c-.009.009-.006.023-.014.033.021-.429.069-.855.159-1.274.005-.025.016-.049.021-.074l.575.575zm15.681-4.803c5.969 8.005-4.271 18.357-12.333 12.23-1.049-.802-1.874-1.882-2.454-3.086l.63-.63.56.56c.098.098.256.098.354 0s.098-.256 0-.354l-.56-.56 1.941-1.941c.098-.098.098-.256 0-.354s-.256-.098-.354 0l-.257.257c.07-.098.073-.23-.015-.319l-1.744-1.744 1.849-1.849.863.863c.098.098.256.098.354 0s.098-.256 0-.354l-.91-.91c.005-.07-.013-.14-.066-.194-.054-.054-.124-.071-.194-.066l-.672-.672 1.237-1.237 1.115 1.115-.374.374c-.098.098-.098.256 0 .354s.256.098.354 0l.374-.374.074.074c.098.098.256.098.354 0s.098-.256 0-.354l-.074-.074 1.543-1.543.313.313c.098.098.256.098.354 0s.098-.256 0-.354l-.313-.313.931-.932 1.054 1.054-.435.435c-.098.098-.098.256 0 .354s.256.098.354 0l.605-.605c.003-.003.007-.001.01-.004s.002-.007.004-.01l1.043-1.043c.098-.098.098-.256 0-.353-.098-.098-.256-.098-.354 0l-.874.873-1.054-1.054.014-.014c.098-.098.098-.256 0-.353-.098-.098-.256-.098-.354 0l-.014.014-.678-.678c.244-.029.489-.056.734-.056.065 0 .13.001.195.003 1.317.043 2.641.384 3.83.984 1.221.617 2.272 1.489 3.04 2.527z"/><path d="m41.503 30.897c-.098-.098-.256-.098-.354 0s-.098.256 0 .354l1.353 1.353-.864.863c-.098.098-.098.256 0 .354s.256.098.354 0l.864-.863.732.732c.098.098.256.098.353 0 .098-.098.098-.256 0-.354l-.732-.732.251-.251c.098-.098.098-.256 0-.354s-.256-.098-.354 0l-.251.251z"/><path d="m8.628 34.312 3.868-3.869 1.13 1.13-3.153 3.153-.498-.498c-.098-.098-.256-.098-.354 0s-.098.256 0 .354l.498.498-1.307 1.307c-.098.098-.098.256 0 .354s.256.098.354 0l1.307-1.307 2.074 2.074-2.074 2.074-.363-.363c-.098-.098-.256-.098-.354 0s-.098.256 0 .354l.363.363-1.035 1.034c-.098.098-.098.256 0 .354s.256.098.354 0l1.037-1.037 2.572 2.572c.098.098.256.098.354 0s.098-.256 0-.354l-2.572-2.572 2.074-2.074 3.065 3.065c.098.098.256.098.354 0s.098-.256 0-.354l-3.065-3.065 3.152-3.153 1.101 1.101-1.826 2.019c-.092.102-.085.26.018.353.104.093.261.084.353-.018l1.809-2 .466.466c.098.098.256.098.354 0s.098-.256 0-.354l-.483-.483 2.85-3.152c.089-.099.086-.25-.009-.344l-3.537-3.537.477-.477c.098-.098.098-.256 0-.353-.098-.098-.256-.098-.354 0l-.477.477-1.13-1.13 1.934-1.934c.098-.098.098-.256 0-.354s-.256-.098-.354 0l-1.934 1.934-1.239-1.239c-.098-.098-.256-.098-.354 0s-.098.256 0 .353l1.239 1.239-2.815 2.815-1.578-1.574c-.098-.098-.256-.098-.354 0s-.098.256 0 .354l1.576 1.576-3.868 3.868c-.098.098-.098.256 0 .354.098.097.257.097.354 0zm4.273 2.841-2.074-2.074 3.153-3.152 2.074 2.073zm7.617-5.026-2.674 2.957-1.083-1.084.426-.426c.098-.098.098-.256 0-.354s-.256-.098-.354 0l-.426.426-2.074-2.074 2.815-2.815zm-4.852-4.853 1.13 1.13-2.815 2.815-1.13-1.13z"/></svg>