<svg id="Layer_1" enable-background="new 0 0 66 66" height="512" viewBox="0 0 66 66" width="512" xmlns="http://www.w3.org/2000/svg"><g><g><path d="m31.394 12.804c-2.938.21-5.896 1.149-8.55 2.716-3.783 2.232-7.51 6.325-9.728 10.682-2.467 4.848-1.129 12.044 1.467 16.646 6.523 11.561 22.206 13.814 31.757 4.917 6.046-5.631 8.101-15.215 4.886-22.788-3.246-7.643-11.597-12.768-19.832-12.173zm-.759 1.082-.812.812-.587-.587c.465-.094.932-.168 1.399-.225zm-6.367 1.989-.143.143-.041-.041c.062-.034.122-.07.184-.102zm-2.754 4.999-.545-.545.582-.582c.098-.098.098-.256 0-.354s-.256-.098-.354 0l-.582.582-.853-.853c.358-.333.719-.656 1.085-.959l1.688 1.688zm-2.122-1.417.871.871-1.387 1.387-.844-.844c.442-.49.894-.965 1.36-1.414zm-6.17 16.793.977.977-.598.598c-.145-.517-.27-1.044-.379-1.575zm-.417-3.954 1.619 1.619-1.376 1.376c-.157-.999-.244-2.005-.243-2.995zm.325-.382c-.087-.087-.218-.084-.316-.016.019-.78.091-1.545.227-2.286l1.355 1.355-1.106 1.106zm.128-2.792-.092-.092c.192-.824.46-1.613.826-2.341l.713.713-1.423 1.423c-.082.083-.08.202-.024.297zm32.4 17.911c-9.088 8.465-24.002 6.316-30.204-4.676-.667-1.182-1.243-2.544-1.689-3.988l.788-.788 1.078 1.078c.098.098.256.098.354 0s.098-.256 0-.354l-1.078-1.078.595-.595c.098-.098.098-.256 0-.354s-.256-.098-.354 0l-.595.595-1.19-1.19 1.467-1.467c.007-.007.005-.019.011-.027.054-.006.108-.021.149-.062.098-.098.098-.256 0-.354l-1.347-1.347 1.106-1.106.072.072c.098.098.256.098.354 0s.098-.256 0-.354l-.072-.072.491-.491c.098-.098.098-.256 0-.354s-.256-.098-.354 0l-.491.491-1.411-1.411c.1.058.194.079.297-.023l1.423-1.423.325.325c.098.098.256.098.354 0s.098-.256 0-.354l-.325-.325.251-.251c.098-.098.098-.256 0-.354s-.256-.098-.354 0l-.251.251-.816-.816c.457-.854.969-1.701 1.541-2.524l.578.578-1.115 1.115c-.098.098-.098.256 0 .354s.256.098.354 0l1.115-1.115.558.558c.098.098.256.098.354 0s.098-.256 0-.354l-.558-.558.739-.739c.098-.098.098-.256 0-.354s-.256-.098-.354 0l-.739.739-.634-.634c.509-.706 1.055-1.389 1.626-2.046l.831.831c-.059.096-.062.219.021.302.101.101.2.084.302.021l.309.309c.098.098.256.098.354 0s.098-.256 0-.354l-.294-.294 1.387-1.387.654.654c.012.033.013.069.039.095.098.098.256.098.354 0l1.995-1.995c.098-.098.098-.256 0-.354s-.256-.098-.354 0l-.415.415-1.644-1.644c.698-.55 1.402-1.058 2.106-1.473.097-.057.198-.108.296-.164.01.016.007.035.02.049l.104.104-1.396 1.396c-.098.098-.098.256 0 .354s.256.098.354 0l1.395-1.395.723.723c.098.098.256.098.354 0s.098-.256 0-.354l-.723-.723 1.12-1.12c.178-.076.357-.152.537-.222l.864.869-.918.918c-.098.098-.098.256 0 .354s.256.098.354 0l.918-.918.331.331c.098.098.256.098.354 0s.098-.256 0-.354l-.331-.331 1.103-1.103c.098-.098.098-.256 0-.354s-.256-.098-.354 0l-1.103 1.103-.702-.702c.662-.238 1.332-.437 2.008-.597l.811.811-.862.862c-.098.098-.098.256 0 .354s.256.098.354 0l.862-.862.304.305c.098.098.256.098.354 0s.098-.256 0-.354l-.304-.305.826-.826.433.433-.525.525c-.098.098-.098.256 0 .354s.256.098.354 0l.525-.525.275.275c.098.098.256.098.354 0s.098-.256 0-.354l-.275-.275.19-.19c.098-.098.098-.256 0-.354s-.256-.098-.354 0l-.19.19-.487-.487c.055-.004.109-.013.164-.017 7.838-.565 15.757 4.306 18.84 11.566 3.053 7.199 1.098 16.311-4.651 21.666z"/></g><g><path d="m41.529 29.083c-3.042-7.163-13.803-8.851-18.595.566-1.215 2.387-.566 5.914.703 8.163 1.469 2.603 4.217 4.505 7.171 4.962 7.932 1.226 13.621-6.863 10.721-13.691zm-10.495-4.833-.998.998-.462-.462c-.042-.042-.096-.056-.151-.063.528-.208 1.066-.373 1.611-.473zm-1.82.554c-.083.098-.085.243.007.336l.462.462-.006.006c-.098.098-.098.256 0 .354s.256.098.354 0l.006-.006.194.194-1.334 1.334-1.576-1.576c.609-.466 1.074-.755 1.893-1.104zm-2.291 1.412.479.479-1.151 1.151-.499-.499c.374-.409.768-.791 1.171-1.131zm-3.108 3.914 1.581 1.581-1.699 1.699-.39-.39c-.045-1.044.093-2.059.508-2.89zm-.358 4.171c.034-.012.071-.014.099-.041l.142-.142 1.425 1.425-.999.999c-.297-.682-.523-1.453-.667-2.241zm7.504 7.484c-2.659-.412-5.131-2.123-6.453-4.465-.054-.095-.1-.205-.151-.305l1.128-1.128c.123.093.24.07.323-.013.089-.089.086-.225.013-.323l.79-.79c.098-.098.098-.256 0-.354s-.256-.098-.354 0l-.781.781-1.425-1.425 1.699-1.699.396.396c.098.098.256.098.354 0s.098-.256 0-.354l-.396-.396.614-.614c.098-.098.098-.256 0-.354s-.256-.098-.354 0l-.614.614-1.685-1.685c.383-.676.846-1.334 1.361-1.944l.472.472-1.328 1.328c-.098.098-.098.256 0 .354s.256.098.354 0l1.328-1.328 1.009 1.009c.098.098.256.098.354 0s.098-.256 0-.354l-1.009-1.009 1.151-1.151.787.787-.872.872c-.098.098-.098.256 0 .354s.256.098.354 0l.907-.907c.02.005.036.023.056.023.064 0 .128-.024.177-.073.064-.064.07-.15.05-.233l1.369-1.369.421.421c.098.098.256.098.354 0s.098-.256 0-.354l-.421-.421.052-.052c.098-.098.098-.256 0-.354s-.256-.098-.354 0l-.052.052-.194-.194 1.253-1.253c.052-.052.072-.12.068-.188.227-.022.148-.047.767-.047.493 0 .982.057 1.466.144l-.626.626-.644-.644c-.098-.098-.256-.098-.354 0s-.098.256 0 .354l.644.644-.644.644c-.098.098-.098.256 0 .354s.256.098.354 0l.644-.644.423.423c.098.098.256.098.354 0s.098-.256 0-.354l-.423-.423.667-.667c.057-.057.07-.132.061-.206.087.02.174.038.26.061.012.026.011.056.032.077l.689.689-.416.416c-.098.098-.098.256 0 .354s.256.098.354 0l.416-.416.03.03c.098.098.256.098.354 0s.098-.256 0-.354l-.065-.065c.021-.083.016-.17-.049-.235s-.152-.07-.235-.049l-.113-.113c2.171.865 4.031 2.548 4.95 4.714 2.604 6.131-2.513 13.425-9.647 12.313z"/></g><g><path d="m64.704 38.249c.18-.083.294-.265.291-.462-.062-3.611-.167-7.07-.237-10.63-.005-.236-.174-.437-.405-.481l-6.077-1.186c-.485-1.788-1.208-3.593-2.088-5.172 1.184-1.945 2.174-3.97 2.946-6.024.07-.187.022-.398-.122-.536-2.649-2.545-5.145-4.894-7.694-7.343-.17-.164-.43-.186-.626-.054-1.994 1.345-3.456 2.333-5.077 3.421-1.658-.933-3.409-1.688-5.214-2.248-.533-2.173-1.259-4.271-2.158-6.24-.082-.183-.274-.29-.464-.294-3.487.069-6.942.174-10.618.248-.235.005-.436.173-.481.403l-1.146 5.832c-1.93.588-3.814 1.417-5.606 2.468-1.969-1.148-3.989-2.095-6.009-2.813-.187-.066-.397-.016-.533.13-2.473 2.645-4.739 5.129-7.23 7.796-.161.172-.18.433-.045.626l3.191 4.587c-1.079 1.577-2.398 3.763-3.039 5.657-1.773.508-3.443 1.119-4.966 1.818-.181.083-.295.265-.292.463.061 3.623.163 6.921.237 10.63.005.236.173.436.405.481 1.691.328 3.342.649 4.955.971.648 2.133 1.545 4.287 2.715 6.22-.987 1.723-1.811 3.468-2.451 5.193-.069.187-.021.396.123.534 2.587 2.486 5.091 4.844 7.694 7.343.169.164.431.185.626.054l4.611-3.106c1.854.979 3.791 1.733 5.768 2.248.524 2.076 1.22 4.068 2.07 5.925.08.178.257.292.453.292h.01c3.628-.072 6.985-.175 10.619-.247.235-.005.436-.173.481-.403l1.178-5.979c1.917-.599 3.753-1.403 5.467-2.395 2.019 1.19 4.075 2.161 6.117 2.887.188.066.397.016.533-.13 2.485-2.66 4.699-5.086 7.23-7.796.161-.172.18-.432.046-.625-1.235-1.787-2.452-3.525-3.64-5.243.725-1.429 1.331-2.962 1.804-4.567 2.377-.556 4.613-1.314 6.648-2.253zm-5.011-.705c.011.04.016.082.047.114l.651.651-.194.194c-.098.098-.098.256 0 .354.009.009.023.006.033.014-.145.045-.291.089-.437.132l-.779-.78zm1.618.977-.212-.212.532-.532.431.431c.016.016.04.013.059.024-.268.1-.538.195-.81.289zm-.526.182c-.038.012-.078.023-.116.035l.076-.076zm3.144-4.133-.26-.26.196-.196c.034-.034.04-.079.051-.122.004.193.009.385.013.578zm-7.007-17.689-.051-.051.141-.141c-.03.064-.059.129-.09.192zm.716-1.568-1.167-1.167.734-.734c.291.279.579.553.874.836-.137.357-.289.711-.441 1.065zm-53.064 23.567c-.128-.025-.257-.051-.385-.076l-.372-.371.781-.421.422.422zm.8-.092.31.311c-.173-.034-.346-.068-.519-.102zm9.709 19.799c-.345-.331-.682-.652-1.022-.977l.801-.801.908.908c-.055.14-.025.256.147.308zm1.014-1.25-.882-.882.882-.882.882.882zm1.235-.528.157.157-.963.649zm13.666 7.13c-.178.004-.361.008-.54.012l-.758-.759.938-.938 1.022 1.022zm1.015-.309.277.277c-.189.005-.378.009-.568.014zm-2.247.336c-.286.006-.57.013-.859.019l.439-.439zm3.214-.076-.613-.613.994-.994 1.05 1.05-.413.413c-.033.033-.039.078-.05.121-.125.002-.862.02-.968.023zm1.62-.04.164-.164.056.056c.098.098.256.098.354 0s.098-.256 0-.354l-.056-.056 1.19-1.19c.115.115 1.08 1.139 1.243 1.139.064 0 .128-.024.177-.073.048-.048.07-.11.071-.172.052-.007.105-.02.145-.06l.781-.781-.309 1.567c-1.296.026-2.558.057-3.816.088zm17.509-6.04c-.844-.31-1.69-.672-2.534-1.066l1.317-1.317.96.96-.166.166c-.098.098-.098.256 0 .354s.256.098.354 0l.166-.166.465.465c-.188.202-.372.4-.562.604zm.902-.971-.452-.452.96-.96.416.416c-.304.33-.615.664-.924.996zm2.609-2.817-.805-.805.76-.76.775.775c-.243.263-.487.527-.73.79zm1.516-2.461-.875.875-.332-.332.875-.875zm-.446 1.304-.076-.076.875-.875.042.042c-.281.304-.562.607-.841.909zm.485-12.921c-.495 1.745-1.151 3.403-1.95 4.931-.086.165-.074.363.032.516 1.208 1.748 2.349 3.378 3.582 5.158-.328.351-.646.695-.967 1.041l-.029-.029.226-.226c.098-.098.098-.256 0-.354s-.256-.098-.354 0l-.226.226-1.166-1.166c-.098-.098-.256-.098-.354 0s-.098.256 0 .354l.48.48-.875.875-.338-.338c-.098-.098-.256-.098-.354 0s-.098.256 0 .354l.338.338-.76.76-.195-.195c-.098-.098-.256-.098-.354 0s-.098.256 0 .354l1.366 1.366c-.334.361-.669.724-1.005 1.087l-.403-.403.224-.224c.098-.098.098-.256 0-.354s-.256-.098-.354 0l-.224.224-.794-.794c-.098-.098-.256-.098-.354 0s-.098.256 0 .354l.794.794-.96.96-.96-.96.489-.489c.098-.098.098-.256 0-.354s-.256-.098-.354 0l-.489.489-.109-.109c-.098-.098-.256-.098-.354 0s-.098.256 0 .354l.109.109-1.366 1.366c-.028.028-.03.066-.042.101-.974-.471-1.945-.996-2.907-1.573-.158-.095-.355-.095-.513-.001-1.802 1.07-3.75 1.924-5.79 2.536-.178.053-.311.201-.347.382l-.577 2.929-1.559-1.559c-.098-.098-.256-.098-.354 0s-.098.256 0 .354l1.685 1.686c.029.029.069.032.106.044l-1.286 1.286c-.019.019-.016.045-.028.068l-.901-.901.977-.977c.098-.098.098-.256 0-.354s-.256-.098-.354 0l-.977.977-.441-.441c-.098-.098-.256-.098-.354 0s-.098.256 0 .354l.441.441-1.19 1.19-1.05-1.05 1.482-1.483c.098-.098.098-.256 0-.354s-.256-.098-.354 0l-1.482 1.483-.525-.525c-.098-.098-.256-.098-.354 0s-.098.256 0 .354l.525.525-.994.994-1.022-1.022.85-.85c.098-.098.098-.256 0-.354s-.256-.098-.354 0l-.85.85-.104-.104c-.098-.098-.256-.098-.354 0s-.098.256 0 .354l.104.104-.938.938-.665-.666c-.098-.098-.256-.098-.354 0s-.098.256 0 .354l.665.666-.562.562c-.754-1.734-1.377-3.579-1.846-5.501-.044-.181-.185-.322-.366-.367-2.091-.518-4.141-1.317-6.092-2.374-.166-.09-.365-.078-.518.025l-.498.34c.048-.094.05-.206-.029-.284l-1.226-1.226c-.098-.098-.256-.098-.354 0s-.098.256 0 .354l1.226 1.226c.048.048.11.071.173.072l-.979.66-.226-.226.301-.301c.098-.098.098-.256 0-.354s-.256-.098-.354 0l-.301.301-.881-.882.241-.241c.098-.098.098-.256 0-.354s-.256-.098-.354 0l-.241.241-.048-.048c-.098-.098-.256-.098-.354 0s-.098.256 0 .354l.048.048-.882.882-.385-.385c-.098-.098-.256-.098-.354 0s-.098.256 0 .354l.385.385-.809.809c-2.346-2.239-3.739-3.554-5.781-5.513.636-1.659 1.447-3.337 2.413-4.992.095-.162.091-.364-.011-.522-1.194-1.862-2.194-4.291-2.846-6.513-.053-.179-.2-.313-.382-.35-.207-.041-.414-.081-.622-.122-.01-.045-.018-.093-.053-.128l-.69-.69.389-.39c.098-.098.098-.256 0-.354s-.256-.098-.354 0l-.389.39-.553-.553c-.077-.077-.196-.096-.295-.043l-1.077.58-.646-.649c-.098-.098-.256-.098-.354 0s-.098.256 0 .354l.543.543-.351.187c-.135-.026-.27-.053-.405-.079-.07-3.418-.164-6.551-.223-9.895 1.469-.655 3.075-1.227 4.778-1.703.163-.045.291-.169.342-.33.63-1.978 2.035-4.279 3.188-5.932.12-.172.12-.4 0-.572l-3.158-4.54c2.296-2.463 4.331-4.689 6.729-7.26 1.945.715 3.889 1.646 5.784 2.772.138.083.356.096.694-.112 1.831-1.08 3.76-1.919 5.736-2.495.18-.052.315-.2.351-.383l1.127-5.733c3.263-.067 6.532-.164 9.885-.233.848 1.907 1.53 3.936 2.028 6.036.041.174.172.313.343.364 1.927.576 3.793 1.381 5.547 2.395.164.094.37.089.528-.018 1.595-1.069 3.399-2.287 5.001-3.369 1.934 1.855 3.541 3.374 5.928 5.653l-.726.726-.195-.195c-.098-.098-.256-.098-.354 0s-.098.256 0 .354l.195.195-.08.08c-.098.098-.098.256 0 .354s.256.098.354 0l.08-.08 1.189 1.189-.789.789-.415-.418.511-.511c.098-.098.098-.256 0-.354s-.256-.098-.354 0l-.511.511-.452-.452c-.098-.098-.256-.098-.354 0s-.098.256 0 .354l.452.452-1.017 1.017-.623-.623c-.098-.098-.256-.098-.354 0s-.098.256 0 .354l.623.623-.337.337c-.098.098-.098.256 0 .354s.256.098.354 0l.337-.337.88.88c.098.098.256.098.354 0s.098-.256 0-.354l-.88-.88 1.017-1.017.418.418-.594.594c-.098.098-.098.256 0 .354s.256.098.354 0l.594-.594.171.171c-.461.91-.962 1.808-1.507 2.688-.097.156-.1.353-.008.513.974 1.693 1.734 3.614 2.214 5.488.048.187.2.33.39.366l5.989 1.169c.025 1.25.055 2.467.084 3.679-.023.007-.044.014-.065.027l-.379-.379c-.098-.098-.256-.098-.354 0s-.098.256 0 .354l.366.366-.594.594c-.098.098-.098.256 0 .354s.256.098.354 0l.594-.594c.12.12.017.018.097.071.015.608.029 1.217.043 1.827-.011-.041-.016-.084-.048-.116-.098-.098-.256-.098-.354 0l-.196.196-.252-.252c-.098-.098-.256-.098-.354 0s-.098.256 0 .354l.252.252-.651.651c-.098.098-.098.256 0 .354.281.281.724-.371 1.005-.651l.437.437c.049.049.113.073.177.073.005 0 .008-.005.012-.005.017.762.033 1.526.047 2.306-.499.224-1.011.436-1.534.638.033-.089.032-.187-.039-.258l-.431-.431.738-.738c.098-.098.098-.256 0-.354s-.256-.098-.354 0l-.738.734-.451-.451c-.098-.098-.256-.098-.354 0s-.098.256 0 .354l.451.451-.532.532-.651-.651c-.031-.031-.074-.036-.114-.047l.731-.731c.098-.098.098-.256 0-.354s-.256-.098-.354 0l-2.274 2.274c-.098.098-.098.256 0 .354s.256.098.354 0l.223-.223.59.59c-.559.154-1.127.297-1.704.427-.178.039-.32.174-.37.349z"/></g><g><path d="m63.371 36.833c.098.098.256.098.354 0s.098-.256 0-.354l-1.003-1.003c-.098-.098-.256-.098-.354 0s-.098.256 0 .354z"/></g><g><path d="m11.895 23.872-.298-.216c.5-.86 1.046-1.694 1.635-2.497l.095.07c.113.083.268.058.35-.052.083-.111.059-.268-.052-.35l-.098-.073c.542-.711 1.119-1.396 1.726-2.053.155.108.319.203.496.275.13.052.274-.012.326-.138.052-.128-.01-.274-.138-.326-.118-.047-.23-.108-.336-.176.77-.806 1.589-1.565 2.447-2.277.222.121.465.204.72.204h.041c.138-.004.247-.119.243-.257s-.128-.255-.257-.243c-.114.007-.227-.011-.336-.046.663-.528 1.351-1.022 2.058-1.489.107.117.22.227.346.322.111.084.267.062.35-.047.084-.11.063-.267-.047-.35-.08-.061-.138-.146-.209-.218.734-.465 1.491-.892 2.265-1.286l.265.349c.083.109.239.131.351.048.11-.083.131-.241.048-.351l-.207-.272c.785-.381 1.585-.729 2.403-1.031.13-.048.196-.191.148-.321s-.193-.197-.321-.148c-.865.319-1.711.687-2.539 1.093l-.402-.529c-.083-.109-.241-.131-.351-.048s-.131.241-.048.351l.347.457c-.776.398-1.537.827-2.273 1.296-.088-.144-.174-.291-.226-.451-.042-.132-.184-.203-.314-.162-.132.042-.204.183-.162.314.066.206.164.4.279.584-.755.5-1.489 1.034-2.194 1.603-.105-.109-.195-.23-.243-.371-.044-.13-.187-.202-.317-.155-.13.044-.2.187-.155.317.069.201.192.372.335.525-.85.71-1.662 1.466-2.426 2.268-.169-.177-.311-.379-.409-.605-.055-.126-.202-.185-.329-.13-.126.055-.185.202-.13.329.125.288.307.546.524.769-.613.666-1.198 1.358-1.746 2.078l-.606-.45c-.11-.082-.268-.059-.35.052-.083.111-.059.268.052.35l.609.452c-.591.804-1.139 1.638-1.641 2.499l-.623-.452c-.111-.081-.268-.057-.349.055s-.057.268.055.349l.667.484c-.558.997-1.062 2.024-1.49 3.082-.052.128.01.274.138.326.13.052.274-.012.326-.138.413-1.021.897-2.012 1.433-2.974l.255.185c.112.081.269.056.349-.056.077-.111.052-.267-.06-.348z"/></g><g><path d="m47.928 36.992c.173-.477.336-.963.481-1.464.038-.133-.038-.271-.17-.31-.134-.039-.271.038-.31.17-.127.438-.265.867-.412 1.285l-.154-.119c-.108-.083-.265-.065-.351.045-.084.109-.064.266.045.351l.273.211c-.19.504-.394.993-.614 1.466l-.342-.259c-.11-.083-.267-.062-.35.048s-.062.267.048.35l.428.324c-.283.573-.594 1.116-.922 1.641l-.381-.339c-.104-.091-.261-.083-.353.021-.092.103-.083.261.021.353l.446.396c-.412.621-.857 1.203-1.332 1.752l-.522-.616c-.09-.105-.248-.117-.353-.029-.105.089-.118.247-.029.353l.564.665c-.474.515-.975.998-1.506 1.443-.468-.585.09.151-.676-.859-.083-.11-.241-.131-.351-.048-.11.084-.131.241-.048.351.839 1.104.157.207.684.867-.695.546-1.433 1.04-2.218 1.47l-.608-.744c-.088-.107-.245-.123-.352-.035-.107.087-.123.245-.035.352l.541.662c-.58.295-1.177.566-1.802.798l-.4-.63c-.074-.118-.229-.151-.345-.077-.117.074-.151.228-.077.345l.334.526c-.604.205-1.221.39-1.865.539-.134.031-.218.165-.188.3.031.135.166.218.3.188.698-.161 1.37-.365 2.026-.595l.256.403c.073.116.227.152.345.077.117-.074.151-.229.077-.345l-.195-.308c.638-.245 1.254-.526 1.848-.837l.085.104c.087.107.245.123.352.035.107-.087.123-.245.035-.352l-.025-.03c.778-.437 1.514-.934 2.209-1.484.036.039.063.083.1.121.096.1.255.103.354.007.1-.096.103-.254.007-.354-.025-.026-.046-.059-.07-.086.533-.448 1.035-.933 1.513-1.447l.091.108c.09.106.248.118.353.029s.118-.247.029-.353l-.13-.153c.493-.563.954-1.163 1.382-1.797l.269.239c.102.091.26.083.353-.021.092-.103.083-.261-.021-.353l-.328-.291c.34-.533.659-1.087.952-1.665l.265.201c.113.085.269.059.35-.048.083-.11.062-.267-.048-.35l-.344-.26c.223-.469.43-.954.623-1.451l.478.37c.109.084.266.065.351-.045.084-.109.064-.266-.045-.351z"/></g></g></svg>