<svg id="Layer_1" enable-background="new 0 0 66 66" height="512" viewBox="0 0 66 66" width="512" xmlns="http://www.w3.org/2000/svg"><g><path d="m44.57 25.75c0 .27.22.5.5.5h9.32c.28 0 .5-.23.5-.5 0-.28-.22-.5-.5-.5h-9.32c-.28 0-.5.22-.5.5z"/><path d="m54.15 28.05h-9.08c-.28 0-.5.23-.5.5 0 .28.22.5.5.5h9.08c.28 0 .5-.22.5-.5 0-.27-.22-.5-.5-.5z"/><path d="m48.16 30.86h-3.48c-.28 0-.5.22-.5.5 0 .27.22.5.5.5h3.48c.28 0 .5-.23.5-.5 0-.28-.22-.5-.5-.5z"/><path d="m26.39 13.47h20.47c.28 0 .5-.23.5-.5 0-.28-.22-.5-.5-.5h-20.47c-.28 0-.5.22-.5.5 0 .27.22.5.5.5z"/><path d="m26.39 16.49h20.22c.28 0 .5-.23.5-.5 0-.28-.22-.5-.5-.5h-20.22c-.28 0-.5.22-.5.5 0 .27.22.5.5.5z"/><path d="m46.33 49.59-.43-.43c-.1-.1-.25-.1-.35 0s-.1.26 0 .35l.42.43-1.02 1.03c-.1.09-.1.25 0 .35.09.1.25.1.35 0l1.03-1.02 1.02 1.02c.11.1.2.08.3.02-.02.09-.02.17.05.24.05.05.11.07.17.07.07 0 .13-.02.18-.07l1.63-1.63.9.9c.1.1.26.1.35 0 .1-.1.1-.25 0-.35l-.9-.9 1.61-1.61c.1-.1.1-.26 0-.36s-.25-.1-.35 0l-1.61 1.61-.51-.51c-.1-.1-.26-.1-.36 0-.09.1-.09.26 0 .35l.51.51-1.54 1.55c0-.06-.02-.13-.07-.17l-1.03-1.03 1.7-1.7c.09-.09.09-.25 0-.35-.1-.1-.26-.1-.36 0z"/><path d="m25.97 19.51h14.19c.28 0 .5-.23.5-.5 0-.28-.22-.5-.5-.5h-14.19c-.28 0-.5.22-.5.5 0 .27.22.5.5.5z"/><path d="m38.73 24.13c-4.14-.45-4.28.59-4.21 2.54.02.63.03.17-.15 3.41-.01.12-.01.24-.01.35 0 1.5.64 2.14 2.38 2.22l3.3.16c1.6.07 2.4-.4 2.56-2.34l.23-2.71c.31-3.71-1.94-3.39-4.1-3.63zm-2.24 7.5.1-.1.12.12c-.07-.01-.15-.01-.22-.02zm2.07-.22c-.09.09-.09.23-.01.33l-1.39-.07c.06-.1.06-.22-.02-.3l-.19-.19.86-.87.92.92zm.36.34.17-.16.18.18zm2.68-1.36c-.11 1.32-.39 1.48-1.52 1.42h-.08c0-.01 0-.01 0-.02l-.56-.56 1.03-1.02.59.59c.1.1.26.1.36 0 .09-.1.09-.26 0-.36l-.6-.59.26-.26c.1-.1.1-.26 0-.35-.1-.1-.25-.1-.35 0l-.26.26-.96-.97c-.1-.09-.26-.09-.36 0-.09.1-.09.26 0 .36l.96.96-1.02 1.03-.92-.92.39-.39c.1-.1.1-.26 0-.36s-.26-.1-.35 0l-.43.42c-.08-.03-.18-.03-.25.04s-.07.17-.04.26l-.9.89-.39-.39c-.1-.1-.26-.1-.35 0-.1.1-.1.26 0 .36l.39.39-.34.33c-.59-.21-.57-.73-.54-1.38.18-3.09.18-2.82.16-3.5-.05-1.39-.29-1.87 3.1-1.51 1.58.18 3.05-.08 3.22 1.48-.01-.02-.02-.04-.03-.05-.1-.09-.25-.09-.35 0l-.53.53-.12-.12c-.1-.09-.26-.1-.36 0s-.1.26 0 .36l.12.12-.39.39c-.1.1-.1.26 0 .35.1.1.26.1.35 0l.4-.39.69.7c.04.03.09.04.13.05zm.23-2.71-.02.28-.53-.52.53-.53c.03-.03.03-.07.04-.1.02.27 0 .57-.02.87z"/><path d="m32.5 43.01c-.01 0-.01 0-.02 0-.92 0-1.68.43-2.09 1.18-.46.82-.42 1.89.08 2.68.48.76 1.3 1.1 2.18 1.04 1.25-.08 2.32-1.26 2.28-2.52-.03-1.26-1.17-2.37-2.43-2.38zm.08 3.91c-.17.01-.33 0-.47-.03l.25-.25.22.22c.03.03.07.03.1.04-.03 0-.06.01-.1.02zm1.31-1.18c.03-.08.01-.17-.06-.23l-.82-.82c-.1-.1-.25-.1-.35 0s-.1.25 0 .35l.82.82c.09.1.25.1.35 0 .03-.02.04-.06.05-.09-.11.47-.48.88-.93 1.06.07-.1.08-.23-.01-.32l-.22-.23.34-.34c.09-.09.09-.25 0-.35-.1-.1-.26-.1-.36 0l-.34.34-.64-.64c-.1-.1-.25-.1-.35 0s-.1.26 0 .35l.64.64-.3.3c-.03.03-.03.07-.04.11-.11-.07-.19-.15-.26-.23.03-.04.06-.08.06-.13 0-.14-.12-.25-.25-.25h-.02c-.18-.45-.17-.99.06-1.4.17-.31.52-.67 1.22-.67h.01c.74.01 1.42.68 1.44 1.41 0 .11-.01.22-.04.32z"/><path d="m31.07 25.25h-9.32c-.27 0-.5.22-.5.5 0 .27.23.5.5.5h9.32c.28 0 .5-.23.5-.5 0-.28-.22-.5-.5-.5z"/><path d="m30.83 28.05h-9.08c-.27 0-.5.23-.5.5 0 .28.23.5.5.5h9.08c.28 0 .5-.22.5-.5 0-.27-.22-.5-.5-.5z"/><path d="m24.84 30.86h-3.48c-.27 0-.5.22-.5.5 0 .27.23.5.5.5h3.48c.28 0 .5-.23.5-.5 0-.28-.22-.5-.5-.5z"/><path d="m19.33 44.8-3.35 3.36c-.1.1-.1.26 0 .35.09.1.25.1.35 0l3.36-3.36c.1-.09.1-.25 0-.35s-.26-.1-.36 0z"/><path d="m17.42 20.36 3.55.17c1.76.08 2.55-.45 2.72-2.48l.24-2.91c.33-3.9-1.92-3.61-4.37-3.87-4.43-.48-4.56.61-4.48 2.69.02.67.02.24-.17 3.67-.11 1.87.52 2.63 2.51 2.73zm.14-.99c-.01-.02-.01-.03-.02-.05l-.27-.26.71-.7 1.05 1.05c.02.02.05.02.08.03zm1.72.08c.03-.01.07-.02.1-.04.1-.1.1-.26 0-.36l-1.05-1.05.98-.97 1.14 1.14-.88.88c-.1.1-.1.26 0 .36.04.04.1.06.16.06zm3.41-1.48c-.12 1.46-.45 1.62-1.67 1.56l-1.25-.06c.05 0 .11-.02.16-.06l.87-.88.58.58c.1.09.26.09.36 0 .1-.1.1-.26 0-.36l-.58-.58.99-.99c.04-.04.06-.1.07-.15.09.04.16.07.27-.03.1-.1.1-.26 0-.36l-.99-.99.91-.9.49.48c0 .01.01.01.02.01zm-6.78-.28c.18-3.34.19-3.04.16-3.76-.05-1.52-.3-2.07 3.38-1.67 2.16.24 3.63-.12 3.52 2.34l-.24-.24c.04-.08.04-.18-.04-.25-.07-.08-.17-.08-.26-.04l-.73-.74c-.1-.1-.26-.1-.36 0-.09.1-.09.26 0 .35l.71.71-.9.91-.13-.13c-.1-.1-.26-.1-.36 0s-.1.26 0 .35l.13.13-.2.2c-.09.1-.09.26 0 .36.1.09.26.09.36 0l.2-.2.77.77c-.04.01-.09.02-.12.05l-1 .99-1.14-1.14.14-.14c.1-.1.1-.26 0-.36s-.26-.1-.35 0l-.15.15c-.1-.09-.25-.09-.34 0-.1.1-.1.25-.01.35l-.97.97-.17-.16c-.1-.1-.25-.1-.35 0s-.1.26 0 .35l.16.17-.7.7-.34-.33c-.1-.1-.25-.1-.35 0-.1.09-.1.25 0 .35l.33.33-.12.13c-.59-.25-.57-.85-.53-1.5z"/><path d="m13.42 32.65 3.3.16c1.64.07 2.4-.42 2.56-2.34l.23-2.71c.32-3.82-2.18-3.42-4.1-3.63-4.93-.54-4.1 1.13-4.2 3.09l-.16 2.86c-.01.12-.01.24-.01.35 0 1.5.63 2.14 2.38 2.22zm.05-1c-.06 0-.12-.01-.18-.01l.4-.41.45.45zm-1.42-1.52.16-2.86c.1-1.84-.82-2.57 3.1-2.15 2.32.26 3.43-.12 3.2 2.56l-.03.31-.2 2.4c-.1 1.32-.39 1.48-1.52 1.42l-2.09-.1c.03-.09.03-.18-.04-.25l-.58-.58.86-.86.92.92-.36.36c-.1.1-.1.26 0 .35.09.1.25.1.35 0l.37-.36.31.31c.1.1.25.1.35 0s.1-.26 0-.35l-.31-.32.83-.83c.04-.03.05-.08.06-.12l.13.13c.1.1.25.09.35 0 .1-.1.1-.26 0-.36l-.93-.93.86-.87.21.21c.1.1.26.1.36 0 .05-.04.07-.11.07-.17 0-.07-.02-.13-.07-.18l-1.18-1.17c-.1-.1-.25-.1-.35 0s-.1.25 0 .35l.61.61-.87.87c-.1-.08-.24-.08-.34.01-.09.1-.09.26 0 .35l.87.87c-.05.01-.09.01-.13.05l-.83.83-.96-.96c.01-.08 0-.15-.06-.21s-.14-.07-.22-.06l-.05-.05c-.1-.1-.26-.1-.35 0-.1.09-.1.25 0 .35l.01.01-.87.87-.36-.37c-.1-.09-.26-.09-.36 0-.09.1-.09.26 0 .36l.37.36-.48.48c-.06.06-.07.14-.05.22-.78-.16-.81-.62-.76-1.45z"/><path d="m15.91 47.1-.81-.81.81-.81 1.18 1.19c.1.1.26.1.36 0s.1-.25 0-.35l-1.19-1.19.28-.28c.1-.1.1-.26 0-.36s-.25-.1-.35 0l-.29.28-.36-.36c-.1-.1-.26-.1-.36 0-.09.1-.09.25 0 .35l.37.37-.81.81-1.44-1.45.88-.89c.1-.1.1-.26 0-.35-.09-.1-.25-.1-.35 0l-.89.88-.46-.46c-.1-.1-.26-.1-.36 0s-.1.25 0 .35l.47.47-2.49 2.49c-.1.09-.1.25 0 .35s.25.1.35 0l1.26-1.26c0 .07.02.13.07.17l1.33 1.33-.64.64c-.1.1-.1.26 0 .35.1.1.25.1.35 0l.64-.63.44.44c.1.1.26.1.36 0s.1-.26 0-.36l-.45-.44.93-.93.82.82c.09.09.25.09.35 0 .1-.1.1-.26 0-.36zm-2.45.12-1.33-1.33c-.04-.05-.11-.07-.17-.07l.98-.98 1.45 1.45z"/><path d="m59.76 6.02-52.8-1.14c-.25 0-.47.18-.51.44-1.34 10.01-1.63 20.06-.88 30.71.02.26.24.46.5.46l53.58.4c.28 0 .5-.22.5-.49.08-9.85.02-19.96.1-29.88 0-.27-.22-.49-.49-.5zm-.61 29.87-52.61-.39c-.7-10.25-.42-19.95.85-29.61l51.85 1.12c-.07 9.61-.01 19.36-.09 28.88z"/><path d="m64.6 9.38c.03-5.7-1.65-8.37-9.26-8-7.5.35-37.58-.12-44.59-.36-6.57-.22-9.19 1.7-9.22 9.32-.02 6.53-.1 25-.13 31.48-.06 9.02 2.91 11.01 10.17 10.98 3.33-.01 6.65-.02 9.98-.04-1.52 2.93-2 3.92-3.18 6.2-1.1.21-2.05.52-2.88.97-1.01.54-2.33 2.08-2.18 3.34.26 2.06 3.34 1.33 4.34 1.38 10.53.53 20.12.48 30.98-.42 4.42-.33 4.15-3.57 2.04-4.42-.89-.36-1.95-.31-3.52-.36-.79-2.39-1.86-4.66-3.2-6.78l11.57-.04c7.32 0 8.87-2.58 8.9-8.16l.02-3.74c.21-.2.21-.52 0-.72zm-37.15 54.59.75-.74.75.76c-.5-.01-1-.01-1.5-.02zm4.3.01c-.58.01-1.15.01-1.72.01l.88-.88.85.85h.01zm.71 0 .96-.96.94.94c-.64.01-1.27.01-1.9.02zm2.69-.04.8-.8.76.75c-.52.02-1.04.04-1.56.05zm2.99-.09.62-.62.58.58c-.14 0-.94.03-1.2.04zm1.82-.07c-.01-.04-.02-.07-.04-.1l-.81-.8 1.16-1.15.23-.24c.09-.1.09-.25 0-.35-.1-.1-.26-.1-.36 0l-1.38 1.38-.49-.49c-.1-.09-.26-.09-.35 0-.1.1-.1.26 0 .36l.48.49-.79.78c-.05.06-.07.14-.06.21-.05 0-.1 0-.16 0l-1.09-1.08 1.21-1.21c.09-.1.09-.25 0-.35-.1-.1-.26-.1-.36 0l-1.2 1.2-.52-.52c-.1-.09-.25-.09-.35 0-.1.1-.1.26 0 .36l.52.52-.86.85-.97-.98.78-.77c.1-.1.1-.26 0-.36s-.26-.1-.36 0l-.78.78-.27-.28c-.1-.09-.26-.09-.36 0-.09.1-.09.26 0 .36l.28.27-.94.95-.85-.86.77-.77c.09-.09.09-.25 0-.35-.1-.1-.26-.1-.36 0l-.82.82c-.06-.01-.13.01-.18.07-.06.05-.08.12-.07.19l-1.2 1.19c.02-.08.01-.16-.05-.22l-.81-.81.68-.68c.1-.09.1-.25 0-.35s-.26-.1-.35 0l-1.68 1.68-.64-.64c-.09-.1-.25-.1-.35 0s-.1.25 0 .35l.64.64-.1.1c-.43-.01-.87-.02-1.3-.03-.01-.04-.02-.08-.05-.11l-.11-.11 1.46-1.47c.1-.09.1-.25 0-.35-.09-.1-.25-.1-.35 0l-1.46 1.46-.25-.24c-.1-.1-.26-.1-.35 0-.1.1-.1.26 0 .35l.24.25-.19.19c-3.54-.08-7.01-.26-6.9-.26-.97 0-3.07.46-3.19-.51-.08-.69.86-1.9 1.66-2.33 2.97-1.6 4.4-1.17 29.86-.4l-2.26 2.26-.8-.79.58-.57c.1-.1.1-.26 0-.36s-.26-.1-.36 0l-1.57 1.57-.78-.79c-.1-.1-.26-.1-.36 0s-.1.26 0 .36l.79.79-.89.88c-.07.01-.14.01-.21.02zm2.67-.18c-.01.01-.01.03-.02.04-.56.03-1.12.06-1.69.09l.5-.5.21.22c.1.09.26.09.36 0 .09-.1.09-.26 0-.36l-.22-.21.64-.65.8.8zm.71 0 .22-.22.2.2c-.14.01-.28.01-.42.02zm1.08-.07-.51-.5.91-.92 1.3 1.3c-.57.04-1.13.08-1.7.12zm2.81-.2.58-.58.47.46c.02.03.05.03.08.04-.37.03-.76.05-1.13.08zm1.4-.47-.46-.47.88-.88.58.58-.93.93c0-.06-.02-.12-.07-.16zm2.51-1.19v.01c.06.54-.42 1.27-1.86 1.47l.71-.71.19.2c.05.05.11.07.17.07.07 0 .13-.02.18-.07.1-.1.1-.26 0-.36l-.19-.19.7-.71c.05.1.08.19.1.29zm-4.71-1.24c2.17.07 3.15.01 3.86.31.15.06.3.16.43.26l-.74.74-.66-.67c-.03-.03-.08-.03-.11-.05-.01 0-.01-.01-.01-.01-.1-.1-.26-.1-.36 0l-1.03 1.03-.67-.67c-.09-.09-.25-.1-.35 0s-.1.26 0 .36l.67.66-.83.83-1.45-1.46 1.2-1.2c.03-.03.04-.08.05-.13zm-.33-1.02c-24.69-.74-24.68-.8-26.51-.63.95-1.85 1.62-3.2 2.82-5.52l1.44 1.44-.77.78c-.1.09-.1.25 0 .35.09.1.25.1.35 0l.78-.77.62.61c.1.1.25.1.35 0 .1-.09.1-.25 0-.35l-.62-.62c.1-.1 1.85-1.83 1.92-1.96h.12l1.45 1.45-.9.9c-.1.1-.1.26 0 .36.09.1.25.1.35 0l.9-.91.92.92c.1.1.25.1.35 0s.1-.26 0-.35l-.09-.09 1.75-1.75 1.68 1.68-.27.27c-.1.1-.1.26 0 .36.1.09.26.09.35 0l.27-.27.32.31c.09.1.25.1.35 0s.1-.25 0-.35l-.31-.32 2.24-2.24 2.23-.01-.82.82-.71-.71c-.1-.1-.26-.1-.36 0-.1.09-.1.25 0 .35l.72.71-.59.59c-.1.1-.1.25 0 .35s.25.1.35 0l.59-.58 1.03 1.03c.1.09.25.09.35 0 .1-.1.1-.26 0-.36l-1.03-1.03.99-.98c.05-.05.07-.12.07-.19l1.13-.01.73.74-1.16 1.16c-.1.09-.1.25 0 .35s.26.1.36 0l1.15-1.16.79.79-.65.65c-.09.1-.09.26 0 .36.1.09.26.09.36 0l.65-.65.02.01c.09.1.25.1.35 0 .1-.09.1-.25 0-.35l-.02-.02.53-.52c.1-.1.1-.26 0-.36-.1-.09-.26-.09-.36 0l-.52.53-.79-.79.14-.14c.1-.1.1-.26 0-.36s-.26-.1-.36 0l-.14.14-.38-.38 2.18-.01c1.38 2.1 2.49 4.36 3.31 6.73zm-23.45-6.62c.01-.01.01-.02.02-.03l3.14-.02-1.6 1.61zm6.95.21c-.1-.1-.26-.1-.36 0l-.84.84-1.09-1.1 3.5-.01c.01.01.01.03.02.05l.15.14-1.75 1.74-.47-.47.84-.84c.1-.1.1-.26 0-.35zm2.07-.09c.04-.06.05-.12.04-.19l3.54-.01-1.89 1.89zm31.74-8.44c0 .5-.01.98-.03 1.45l-1.14-1.14.77-.77c.1-.1.1-.26 0-.36s-.26-.1-.36 0l-.77.77-.34-.34c-.09-.09-.25-.09-.35 0-.1.1-.1.26 0 .36l.34.34-.77.77c-.1.09-.1.25 0 .35.08.08.2.1.32.01l-.66.66-.68-.68c-.1-.1-.26-.1-.36 0-.09.1-.09.26 0 .35l.69.69-1.33 1.32-1.41-1.41c-.1-.1-.25-.1-.35 0-.1.09-.1.25 0 .35l1.41 1.41-.98.98-1.28-1.28.72-.71c.1-.1.1-.26 0-.36s-.26-.1-.36 0l-.71.72-.77-.77c-.1-.1-.26-.1-.36 0-.09.1-.09.26 0 .35l.77.77-1.66 1.67-1.24-1.24c-.1-.1-.26-.1-.36 0s-.1.25 0 .35l1.24 1.24-.81.81c-.1.1-.1.26 0 .36.05.05.11.07.18.07s.13-.02.18-.07l.81-.81.77.77c.1.1.26.1.35 0 .1-.1.1-.26 0-.36l-.77-.77 1.67-1.66 1.28 1.28-1.03 1.02c-.1.1-.1.26 0 .36.1.09.26.09.36 0l1.02-1.03.48.48c.1.1.26.1.36 0 .09-.1.09-.25 0-.35l-.48-.48.97-.98.77.76-.04.04c-.1.1-.1.26 0 .35.1.1.24.12.39-.03l.2.2c.1.1.26.09.36 0 .09-.1.09-.26 0-.36l-.2-.2 1.33-1.34c.13.08.23.07.31-.02.08-.08.08-.2.02-.3l.18-.18c.1-.1.1-.26 0-.36s-.25-.1-.35 0l-.17.17-.76-.76.68-.69c.1-.1.1-.26 0-.36-.09-.08-.22-.08-.32-.01l.74-.74 1.16 1.16c.05.05.11.07.18.07.05 0 .09-.02.13-.05-.36 4.52-3.28 5.32-7.83 5.32l-2.75.01-15.5.06.55-.55.38.38c.1.1.26.1.36 0 .09-.1.09-.25 0-.35l-.39-.38 1.08-1.08c.01.01.01.03.03.05l1.63 1.63c.14.14.4.09.42-.15l1.35-1.35 1.33 1.34c.1.09.26.1.36 0 .09-.1.09-.26 0-.36l-1.34-1.33.59-.59c.1-.1.1-.26 0-.36-.09-.1-.25-.1-.35 0l-.61.61c-.1-.04-.21-.05-.29.03s-.08.19-.03.29l-1.3 1.3-1.41-1.42c-.01-.01-.04-.01-.05-.02l.07-.07c.1-.1.1-.26 0-.35-.1-.1-.26-.1-.36 0l-1.47 1.47-.25-.25c-.1-.1-.26-.1-.36 0-.09.09-.09.25 0 .35l.26.25c-.11.11-.8.76-.83.91-22.71.08-15.68.07-25.07.09-6.69.03-9.22-1.5-9.17-9.97l.01-1.37c20.38.57 40.67.71 61.02.42zm-2.22 3.58-1.33 1.32-.76-.76 1.32-1.33zm2.25-8.17c-20.26.28-40.78.14-61.03-.43l.13-29.1c.02-7.13 2.26-8.51 8.18-8.33 7.02.24 37.15.71 44.67.36 7.05-.35 8.24 1.91 8.21 6.99z"/></g></svg>