<svg id="Layer_1" enable-background="new 0 0 66 66" height="512" viewBox="0 0 66 66" width="512" xmlns="http://www.w3.org/2000/svg"><g><g><path d="m54.537 5.653-39.232-.175c-11.681-.101-14.584 3.219-14.275 11.47.428 11.307.408 22.662.879 34.076.318 7.731 3.437 9.5 11.288 9.5.299 0 37.581-.063 37.88-.063 9.102-.019 12.8-1.873 13.029-10.643l.875-33.595c.225-8.664-3.204-10.537-10.444-10.57zm-3.462 53.808c-.299 0-37.581.063-37.88.063-8.312 0-10.028-2.242-10.286-8.541-.45-10.829-.443-21.404-.832-32.673l61.841.335-.811 31.148c-.206 7.87-3.035 9.651-12.032 9.668zm12.906-43.263-.038 1.447-61.9-.336c-.28-7.605 1.514-10.926 13.258-10.831l39.232.175c6.608.032 9.662 1.347 9.448 9.545z"/></g><g><path d="m7.634 11.098c-.52.383-.044 1.698.41 2.224 1.675 1.938 4.433.354 4.302-1.742-.178-2.816-4.274-3.175-4.712-.482zm.832.949c.121-.111.185-.28.155-.454-.287-1.646 2.605-1.897 2.727.05.097 1.577-2.372 2.317-2.882.404z"/></g><g><path d="m15.331 11.098c-.842.62.353 3.104 2.24 3.104 1.359 0 2.557-1.262 2.472-2.622-.178-2.816-4.273-3.175-4.712-.482zm.832.949c.121-.111.185-.28.155-.454-.287-1.646 2.605-1.897 2.727.05.102 1.652-2.39 2.249-2.882.404z"/></g><g><path d="m26.73 9.43c-1.361-.555-2.923.205-3.161 1.669-.755.561.259 3.045 2.182 3.102.02 0 .04.001.06.001 1.358 0 2.556-1.26 2.471-2.622-.059-.93-.683-1.794-1.552-2.15zm-.951 3.771c-.64-.018-1.217-.552-1.378-1.155.121-.11.185-.279.155-.453-.156-.895.827-1.634 1.796-1.236.514.21.896.739.931 1.286.054.876-.859 1.65-1.504 1.558z"/></g><g><path d="m52.89 9.025c-1.417-.584-16.572-.053-17.572-.02-1.314.036-3.301.092-3.889 1.668-.844 2.269 1.567 3.495 3.968 3.559 5.069.133 10.361-.079 15.726-.7 4.293-.498 3.875-3.636 1.767-4.507zm-8.278.779-.002.002-.002-.002c.001 0 .003.001.004 0zm-3.368.961c-.004.004-.002.01-.006.014-.011-.019-.008-.043-.025-.06l-.856-.856c.59-.011 1.17-.019 1.759-.027l.028.028zm-2.95-.303-.525-.525c.36-.011.72-.021 1.081-.03zm-5.016-.201c.167-.057.346-.101.534-.134l-.334.334zm17.73 2.277c-5.156.598-10.394.832-15.585.694-.575-.015-1.401-.146-2.067-.433.028-.075.025-.151-.022-.22l.386-.386c.098-.098.098-.256 0-.354s-.256-.098-.354 0l-.374.374-.723-.723c.026-.489.222-.788.531-1.001l.327.327c-.089.098-.091.248.004.343.088.088.232.106.343.004l.566.566c.097.097.255.098.354 0 .098-.098.098-.256 0-.354l-.563-.563.66-.66 1.073 1.073c-.067.097-.07.226.017.313.084.084.19.101.313.017l.015.015c.097.097.255.098.354 0 .098-.098.098-.256 0-.354l-.003-.003.813-.813c.098-.098.098-.256 0-.354s-.256-.098-.354 0l-.813.813-.849-.849c.097-.003.195-.007.288-.009 1.248-.037 1.748-.049 1.748-.049.006.007.003.017.01.023l.84.84c-.089.098-.09.248.005.342.097.097.255.098.354 0l.01-.01c.099.056.189.078.293-.025.081-.081.078-.198.025-.293l.902-.902c.012-.012.009-.031.019-.045.04-.001.08-.003.121-.003l1.19 1.19c.097.097.255.098.354 0 .004-.004.002-.01.006-.014.011.019.008.043.025.06.096.096.254.099.354 0l.9-.901.695.696c.099.099.257.096.354 0 .098-.098.098-.256 0-.354l-.732-.733c.366-.005.731-.01 1.096-.014l.346.346-.436.436c-.098.098-.098.256 0 .354.097.097.255.098.354 0l.436-.436.513.513c.099.099.257.096.354 0 .098-.098.098-.256 0-.354l-.513-.513.365-.365c.044 0 .421-.006.459-.006l.138.138-.161.161c-.098.098-.098.256 0 .354.096.096.255.099.354 0l.161-.161.217.217c.096.096.255.099.354 0 .098-.098.098-.256 0-.354l-.217-.217.15-.151c3.91-.043 4.878-.178 5.726.172 1.244.524 1.622 2.237-1.506 2.595z"/></g><g><path d="m47.216 30.382c-1-.697-3.84-4.155-5.682-2.041-.839.965-.715 2.634.289 3.883 1.499 1.867 4.409 2.698 4.925 4.882.663 2.822-3.04 4.863-4.693 6.484-.464.454-1.108 1.165-1.356 2.094-.405 1.523.501 3.045 2.094 3.045 1.503 0 2.606-.966 7.428-4.266 1.844-1.263 3.541-2.563 4.061-4.582 1.265-4.923-5.181-8.182-7.066-9.499zm.488 8.251.432.432c-.09-.037-.192-.037-.265.037l-.507.507c.151-.325.266-.651.34-.976zm-3.836 4.704c.01.016.007.036.021.05l-.529.529-.081-.081c.194-.17.388-.336.589-.498zm-1.487 1.365c.112-.129.234-.261.373-.397.048-.047.103-.09.152-.136l.1.1-.529.529zm-.309.398.631.631-.755.755-.314-.314c.01-.077.011-.154.031-.23.074-.278.21-.556.407-.842zm11.239-5.468c-.433 1.684-1.977 2.855-3.656 4.005-4.466 3.056-6.75 5.055-7.783 3.631l.075-.075.081.081c.097.097.255.098.354 0 .098-.098.098-.256 0-.354l-.081-.081.755-.755.049.049c.097.097.255.098.354 0 .098-.098.098-.256 0-.354l-.049-.049.202-.202c.098-.098.098-.256 0-.354s-.256-.098-.354 0l-.202.202-.226-.226.529-.529.667.667c.097.097.255.098.354 0 .098-.098.098-.256 0-.354l-.667-.667.529-.529.455.455c.097.097.255.098.354 0 .098-.098.098-.256 0-.354l-.808-.808c.016-.013.033-.027.049-.04.423-.338.848-.695 1.261-1.069l.453.453-.606.608c-.098.098-.098.256 0 .354.097.097.255.098.354 0l.616-.616c.122.087.233.069.317-.015.088-.088.085-.219.015-.317l.414-.414c.098-.098.098-.256 0-.354s-.256-.098-.354 0l-.403.403-.442-.442c.284-.28.1-.049.54-.575.027.009.049.032.078.032.064 0 .128-.024.177-.073l.403-.403.26.26c.234.234.586-.121.354-.354l-.26-.26.756-.756c.085-.085.082-.21.019-.307.122.083.227.067.312-.017.098-.098.098-.256 0-.354l-.754-.754c.031-.39.006-.774-.081-1.145-.628-2.668-3.714-3.532-5.118-5.28-.764-.95-.758-2.089-.314-2.6 1.066-1.225 3.302 1.469 4.355 2.205 2.051 1.433 7.728 4.313 6.667 8.431z"/></g><g><path d="m20.358 40.68c-1.088-1.145-1.585-2.481-1.328-3.574.517-2.188 3.411-2.996 4.925-4.882 1.004-1.249 1.128-2.918.289-3.883-.698-.804-1.842-.852-3.063-.124-1.02.61-1.689 1.517-2.618 2.165-1.668 1.165-8.348 4.51-7.064 9.498.677 2.634 2.983 3.846 8.683 7.745 1.299.89 2.94 1.613 4.167.637.7-.558.994-1.594.732-2.578-.558-2.086-3.149-3.349-4.723-5.004zm-2.139-8.377-.302-.302c.298-.19.593-.384.886-.581l.149.149zm-2.214.96.167.167-.838.838-.281-.281c.174-.147.349-.294.526-.426.137-.103.284-.198.426-.298zm-2.544 2.432.704.703-.964.964-.444-.444c.184-.425.425-.833.704-1.223zm-.971 4.004.212.212-.102.102c-.039-.104-.08-.206-.11-.314zm11.234 7.781c-.757.604-2.037-.034-2.979-.68-5.269-3.604-7.016-4.591-7.926-6.3l.236-.236.408.408c.097.097.255.098.354 0 .098-.098.098-.256 0-.354l-.408-.408 1.503-1.504c.098-.098.098-.256 0-.354-.099-.099-.257-.097-.354 0l-1.503 1.504-.691-.691c-.02-.483.061-.96.207-1.426l.276.276-.032.032c-.098.098-.098.256 0 .354.097.097.255.098.354 0l.032-.032.409.409c.097.097.255.098.354 0 .098-.098.098-.256 0-.354l-.409-.409 1.011-1.011c.006 0 .011.007.017.007.064 0 .128-.024.177-.073.053-.053.071-.124.066-.193l.707-.707c.098-.098.098-.256 0-.354s-.256-.098-.354 0l-.66.66-.752-.752c.281-.346.588-.671.912-.973l.301.301-.116.116c-.098.098-.098.256 0 .354.099.099.257.096.354 0l.116-.116.055.055c.097.097.255.098.354 0 .098-.098.098-.256 0-.354l-.055-.055.838-.838.402.402c.097.097.255.098.354 0 .098-.098.098-.256 0-.354l-.859-.859c.355-.237.713-.468 1.067-.693l.376.376-.242.242c-.098.098-.098.256 0 .354.096.096.255.099.354 0l1.345-1.346c.038.022.075.049.119.049.064 0 .128-.024.177-.073.098-.098.098-.256 0-.354l-.044-.044c-.009-.046-.018-.094-.054-.13s-.084-.044-.13-.054l-.168-.168c.234-.17.458-.356.676-.55.004.058.022.116.066.16.097.097.255.098.354 0l.116-.116.201.201c.097.097.255.098.354 0 .098-.098.098-.256 0-.354l-.201-.201.608-.608.555.555c.097.097.255.098.354 0 .098-.098.098-.256 0-.354l-.601-.601c.005-.058-.015-.111-.05-.16.013-.008.026-.021.039-.029.414-.247.792-.371 1.11-.371.282 0 .517.097.687.292.443.511.449 1.649-.314 2.6-1.388 1.729-4.493 2.626-5.118 5.28-.34 1.443.235 3.081 1.576 4.492 1.58 1.661 4.034 2.905 4.479 4.572.158.601-.002 1.233-.39 1.542z"/></g><g><path d="m38.146 22.944c-1.138-.24-2.164.602-2.9 2.354-.84 1.997-1.764 4.002-2.657 5.94-.962 2.086-1.956 4.242-2.853 6.405-1.008 2.431-1.743 4.495-2.313 6.494-.061.211-.159.5-.273.839-.783 2.309-1.414 4.462-.541 5.433 1.391 1.546 3.441.149 4.638-1.525 1.373-1.914 1.423-2.524 8.069-21.696.232-.673.497-1.436.423-2.251-.076-.818-.606-1.791-1.593-1.993zm-.412.977-.912.913-.131-.131c.276-.41.632-.757 1.043-.782zm-1.31 1.222.044.044-.132.133c.029-.059.055-.116.088-.177zm-1.035 2.322.599.599-1.564 1.564c.328-.717.645-1.436.965-2.163zm-2.291 5.064.453.453-1.214 1.214c.253-.56.507-1.115.761-1.667zm-2.214 4.981.108.108-.273.273c.053-.127.112-.254.165-.381zm-2.721 7.59.311.311-.62.62c.089-.275.175-.533.243-.733.024-.071.043-.131.066-.198zm10.208-18.239c-6.574 18.962-6.643 19.637-7.937 21.441-.716 1-2.19 2.368-3.05 1.464l.168-.168c.114.101.254.081.34-.005.094-.094.093-.242.005-.34l.89-.89c.098-.098.098-.256 0-.354s-.256-.098-.354 0l-.886.886-.328-.327c.06-.478.183-1.023.335-1.56.016-.01.036-.007.049-.021l.143-.143.467.467c.097.097.255.098.354 0 .098-.098.098-.256 0-.354l-.467-.467.765-.765c.015.003.026.017.041.017.063 0 .128-.024.177-.073.06-.06.07-.14.056-.217l.991-.991c.098-.098.098-.256 0-.354s-.256-.098-.354 0l-.951.951-.491-.491c.015-.05.036-.11.048-.154.103-.362.219-.731.334-1.1.002-.002.004-.001.006-.002l.463-.463.264.264c.097.097.255.098.354 0 .098-.098.098-.256 0-.354l-.264-.264 1.241-1.241c.098-.098.098-.256 0-.354s-.256-.098-.354 0l-1.241 1.241-.063-.063c.227-.666.472-1.35.746-2.065l.583.583c.097.097.255.098.354 0 .098-.098.098-.256 0-.354l-.739-.739c.054-.137.114-.283.17-.423l1.109-1.109.269.269c.096.096.255.099.354 0 .098-.098.098-.256 0-.354l-.269-.269.704-.704c.098-.098.098-.256 0-.354s-.256-.098-.354 0l-.704.704-.247-.247c.272-.636.543-1.272.826-1.904l.645.644c.096.096.255.099.354 0 .098-.098.098-.256 0-.354l-.544-.543 1.541-1.541c.102.062.2.079.301-.022.083-.083.08-.205.022-.301l1.099-1.099c.098-.098.098-.256 0-.354s-.256-.098-.354 0l-1.084 1.084-.584-.584c.059-.127.118-.259.176-.385.18-.39.362-.792.543-1.188.034.017.066.043.104.043.035 0 .065-.026.097-.04l.629.628c.096.096.254.099.354 0 .098-.098.098-.256 0-.354l-.605-.605 2.262-2.262c.098-.098.098-.256 0-.354s-.256-.098-.354 0l-.184.184-.738-.738c.147-.337.298-.672.442-1.01.049.049.112.073.176.073s.128-.024.177-.073l.423-.423.319.319c.097.097.255.098.354 0 .098-.098.098-.256 0-.354l-.32-.32 1.027-1.027c.027-.027.028-.064.04-.097.288.212.468.611.501.965.055.606-.162 1.233-.372 1.838z"/></g></g></svg>