<svg id="Layer_1" enable-background="new 0 0 66 66" height="512" viewBox="0 0 66 66" width="512" xmlns="http://www.w3.org/2000/svg"><g><g><g id="XMLID_1_"><path d="m59.33 54.47 1.94-1.94c.1-.1.26-.1.35 0 .1.1.1.26 0 .35l-1.94 1.94c-.1.1-.25.1-.35 0-.1-.09-.1-.25 0-.35z"/><path d="m44.67 35.37 1.32 1.31 1.75-1.75c.1-.1.26-.1.35 0 .1.1.1.25 0 .35l-1.75 1.76 1.33 1.33c.1.1.1.26 0 .35-.09.1-.25.1-.35 0l-1.33-1.33-2.56 2.56c-.1.1-.26.1-.36 0s-.1-.26 0-.35l2.56-2.56-1.31-1.31-.04.03c-.09.1-.25.1-.35 0-.1-.09-.1-.25 0-.35l.04-.04-.9-.89c-.1-.1-.1-.26 0-.36s.26-.1.35 0l.9.9 3.71-3.71c.1-.1.26-.1.35 0 .1.1.1.26 0 .35z"/><path d="m41.96 23.14-.77-.77c-.23-.23.12-.59.36-.35l.76.76c.1.1.1.26 0 .36-.09.1-.25.1-.35 0z"/><path d="m41.02 21.59c-.1-.1-.1-.25 0-.35l1.08-1.08-.39-.39c-.1-.09-.1-.25 0-.35s.26-.1.35 0l.39.39.47-.48c.1-.09.26-.09.36 0 .09.1.09.26 0 .36l-.48.47.04.04c.1.1.1.26 0 .35-.09.1-.25.1-.35 0l-.04-.04-1.08 1.08c-.09.1-.25.1-.35 0z"/><path d="m40.63 55.8c0 .28-.22.5-.5.5h-11.54c-.28 0-.5-.22-.5-.5 0-.27.22-.5.5-.5h11.54c.28 0 .5.23.5.5z"/><path d="m29.37 14.56c-.1.1-.26.1-.36 0s-.1-.25 0-.35l.98-.98-.98-.98c-.1-.1-.1-.26 0-.35.1-.1.26-.1.36 0l.97.98 1.14-1.14-.49-.48c-.09-.1-.09-.26 0-.36.1-.09.26-.09.36 0l.48.49.89-.89c.1-.1.26-.1.36 0 .09.1.09.25 0 .35l-.89.89 1.03 1.03c.09.1.09.26 0 .36-.1.1-.26.1-.36 0l-1.03-1.03-1.13 1.13 1.66 1.66 1.63-1.63c.09-.09.25-.09.35 0 .1.1.1.26 0 .36l-1.63 1.62.01.01c.1.1.1.26 0 .36-.1.09-.25.09-.35 0l-.01-.01-1.29 1.3.37.37c.1.1.1.26 0 .36s-.26.1-.36 0l-.37-.38-1.68 1.67c-.09.1-.25.1-.35 0-.1-.09-.1-.25 0-.35l1.67-1.67-2.66-2.67c-.1-.09-.1-.25 0-.35s.26-.1.35 0l2.67 2.66 1.3-1.3-1.67-1.66z"/><path d="m16.71 32.37-1-1.01c-.1-.09-.1-.25 0-.35s.26-.1.35 0l1.01 1 3.26-3.26c.1-.1.26-.1.36 0 .1.09.1.25 0 .35l-3.27 3.27 1.26 1.25.99-.99c.1-.1.26-.1.36 0s.1.25 0 .35l-1 1 .9.9c.1.09.1.25 0 .35s-.26.1-.35 0l-.9-.89-4.01 4c-.1.1-.26.1-.35 0-.1-.1-.1-.26 0-.35l4-4.01-1.25-1.26-1.54 1.54c-.1.1-.26.1-.36 0-.09-.1-.09-.25 0-.35z"/><path d="m37.55 29.97c.62-.89 1.02-1.41 1.73-2.3l-2.01 2.01zm-3.27 5.38.55.55c.07.07.08.17.05.25.04.01.3.09.33.1.05-.73.1-1.41.29-2.12zm-.08.62-.27-.27-.17.17c0 .01-.01.01-.01.01.07.02.37.08.45.09zm.33-3.64-1.63 1.64 1.03 1.03 1.58-1.59c.02-.02.05-.02.08-.03zm27.04 23.15-1.37 1.36.91.91c.12.12.11.34-.12.4.6-.09 1.18-.28 1.66-.7h.01c.72-.61 1.17-1.73 1.3-2.9-.09.04-.17.07-.27-.03l-.61-.61c-.01.03-.01.06-.04.09l-1.12 1.13.74.74.22-.22c.1-.1.26-.1.36 0s.1.25 0 .35l-1.36 1.36c-.1.1-.26.1-.35 0-.1-.1-.1-.26 0-.35l.78-.79zm-1.72 1.72-1.06 1.05h.7c.47-.01.95-.02 1.41-.09-.05 0-.1-.02-.14-.06zm-2.09 1.06-1.58-1.57-1.05 1.05.54.54c.7-.01 1.4-.01 2.09-.02zm-2.99-.17-.2.2h.4zm-3.94.23c1.13-.01 2.25-.02 3.34-.03-.07-.1-.08-.23.01-.32l.24-.24-1.5-1.5-1.09 1.09.14.14c.09.1.09.25 0 .35-.1.1-.26.1-.36 0l-.13-.13zm-.45 0c-.05-.09-.05-.2.03-.28l.71-.72-1.22-1.22-1.12 1.12 1.06 1.06c.02.02.01.04.02.05.17 0 .35 0 .52-.01zm-1.95-.74-.78.77c.51-.01 1.03-.01 1.54-.01zm-2 .74-.99-.99-.64.64.07.08c.09.09.09.23.02.32.54 0 1.08-.01 1.62-.01-.02-.01-.06-.01-.08-.04zm-2.75.06.41-.41-1.33-1.32-.91.91.34.34c.1.1.1.26 0 .36-.1.09-.26.09-.36 0l-.34-.34-.49.49c.91-.01 1.8-.02 2.68-.03zm.81 0-.05-.05-.04.05zm-34.38-35.59c.04.02.07.02.1.04l.51.52 1.01-1.01-.75-.75c-.43.39-.62.71-.87 1.2zm-.08 19.67c.44-.41.68-.62-.05-1.3.01.43.03.87.04 1.31.01-.01.01-.01.01-.01zm-.3-9.26c-.02.01-.03.01-.05.01-.01 0-.01 0-.01 0s0 .01 0 .02c.02-.01.04-.02.06-.03zm.04 2.2.84-.84-.92-.92c.03.59.06 1.17.08 1.76zm.15 3.07c-.01.01-.03.01-.04.01 0 .12.06 1.74.07 1.84l1.17-1.17c-.07 0-.13-.02-.18-.07l-.82-.82zm-.53-11.79.47-.46-.47-.47c0-.01 0-.02-.01-.03-.03.35-.03.71-.03 1.08.01-.04.01-.09.04-.12zm22.04 8.75-.44.44c.82-.13 1.42-.15 2.4-.03-.07-.1-.08-.23.01-.32l.17-.17-1.03-1.03-.78.78c.07.1.07.23-.02.32-.08.08-.19.1-.31.01zm-.37-.34-.7-.71c.09.42.15.83.18 1.23zm-.69 7.51c-.04.46.11.97.41 1.35 1.28 1.56 4.16.84 3.97-.93-.99.09-3.31-.12-4.38-.42zm-3.98-15.12c1.62 2.05 3.14 3.98 3.88 6.52.01-.01.01-.03.02-.04.09-.09.25-.09.35 0l.77.78.78-.77-.09-.09c-.09-.09-.09-.25 0-.35.1-.1.26-.1.36 0l.08.08 1.64-1.63-.52-.52c-.1-.1-.1-.26 0-.35.1-.1.26-.1.36 0l.51.51.22-.22c.1-.09.26-.09.35 0 .1.1.1.26 0 .36l-.21.22 1 1c.35-.85.81-1.71 1.38-2.58l-.38-.38c-.09.05-.18.08-.29-.03-.07-.08-.07-.19-.02-.29l-.88-.88-1.25 1.25c-.1.1-.26.1-.35 0-.1-.09-.1-.25 0-.35l1.25-1.25-.04-.04c-.1-.1-.1-.26 0-.35.09-.1.25-.1.35 0l.04.04 1.29-1.3c.1-.1.26-.1.36 0 .09.1.09.26 0 .36l-1.3 1.29.86.86 2.02-2.02c.1-.1.26-.1.35 0 .08.07.09.18.06.27.03-.03.06-.07.08-.1.05-.05.09-.11.13-.16-.05-.01-.1-.02-.13-.06l-.95-.94c-.08.02-.13.03-.22-.05-.06-.07-.07-.15-.05-.23l-.21-.21c-.1-.1-.1-.25 0-.35s.25-.1.35 0l.17.17 1.77-1.77-.56-.56c-.1-.1-.1-.25 0-.35s.26-.1.35 0l.56.56.36-.36c.1-.1.26-.1.36 0 .09.1.09.25 0 .35l-.36.36.34.34c.1.1.1.26 0 .36s-.26.1-.35 0l-.35-.34-1.76 1.76.9.91c.02.02.02.05.04.08.85-1.08 1.64-2.13 2.27-3.24.64-1.12 1.12-2.31 1.34-3.66 1.07-6.58-3.58-12.57-10.53-12.78-8.21.24-12.58 8.44-9.85 15.02.77 1.88 2.03 3.47 3.35 5.15zm10.41 11.06c-1.28-2.17-7.57-2.59-8.47.16-1.06 3.22 6.81 4.35 8.41 2.37.52-.67.54-1.73.06-2.53zm-19.84-17.47.63-.64c-.43 0-.85-.01-1.28-.01zm-13.56 36.41c2.22 1.67 2.44 1.23 36.99.93 0-.06.02-.12.07-.17l.68-.68-.55-.54c-.1-.1-.1-.26 0-.36s.26-.1.36 0l.54.55 2.04-2.04c.09-.1.25-.1.35 0s.1.26 0 .35l-.77.77 1.33 1.33 2.83-2.82c.09-.1.25-.1.35 0 .1.09.1.25 0 .35l-1.83 1.83.99.99c.11.11.12.29-.07.39.1 0 .19 0 .29-.01.04-.14.96-1.02 1.07-1.13l-.82-.82c-.1-.1-.1-.25 0-.35s.26-.1.35 0l.82.82 1.12-1.13-.02-.02c-.1-.1-.1-.26 0-.36.09-.1.25-.1.35 0l.03.03 1.25-1.25c.1-.1.26-.1.36 0 .09.1.09.25 0 .35l-1.26 1.25 1.23 1.23 3.16-3.16c.1-.1.26-.1.35 0 .1.09.1.25 0 .35l-1.72 1.72 1.5 1.5 1.05-1.05-.47-.48c-.1-.09-.1-.25 0-.35s.26-.1.35 0l.48.47 2.36-2.36c.1-.1.26-.1.35 0 .1.1.1.26 0 .36l-2.36 2.36 1.75 1.75c.01-.01.01-.03.02-.04l1.19-1.2-1.26-1.26c-.1-.1-.1-.26 0-.36.1-.09.26-.09.35 0l1.27 1.27 1.36-1.36-.3-.31c-.1-.09-.1-.25 0-.35s.25-.1.35 0l.3.3 1.13-1.12c.03-.03.06-.03.09-.04l-.57-.57c-.1-.1-.1-.26 0-.36.1-.09.26-.09.35 0l1.43 1.43c.02-.66-.05-1.33-.26-1.92-5.95.01-45.56.45-60.91.5-1.4 1.1-.88 3.69.58 4.79zm8.8-41.47 9.31-.23c1.2-5.81 5.99-9.31 11.38-9.47 4.8.14 9.76 3 11.26 8.9 2.89-.07 5.78-.14 8.66-.21 6.53-.14 8.22 2.01 8.1 7.57-.5 26.88-.36 26.7-1.11 28.64 1.45-.01 2.88-.02 4.26-.02.2 0 .38.12.46.3.98 2.16.4 5.36-1.22 6.72-1.16.99-2.56 1.02-3.8 1.04-55.43.46-54.04 1.03-56.7-.97-2.03-1.53-2.57-5.05-.42-6.5.08-.06.18-.09.28-.09l2.98-.01c-.08-7.6-.15-14.23-.33-29.6-.03-4.57 1.89-5.91 6.89-6.07zm-3.73 13.5c-.49-6.86.6-10.17 7.31-10.09 1.84.01 3.69.03 5.53.04-.08-.91-.07-1.88.03-2.68l-9.11.23c-5.33.17-5.94 1.82-5.92 5.06.18 15.57.25 21.74.33 29.6 20-.09 37.9-.39 52.08-.45.43-.91.6-1.36.73-4.93.13-3.58.21-10.29.46-23.74.11-4.87-1.03-6.7-7.07-6.55-2.82.07-5.64.14-8.45.2.17 1 .22 2.26.09 3.47l5.96.06c4.51.05 6.21 1.36 6.21 5.29 0 .34-.02.7-.04 1.08l-1.16 17.83c-.19 3.12-1.15 4.85-6.21 4.91-11.61.11-23.21.22-34.82.34-3.63.03-5.16-1.06-5.36-5.54-.19-4.81-.28-9.69-.59-14.13zm4.6-5.83-.99-.98-1 1 1.21 1.21c.1.1.1.26 0 .36s-.26.1-.35 0l-1.22-1.21-.2.2c-.1.1-.26.1-.36 0-.1-.09-.1-.25 0-.35l.21-.21-.46-.46c-.27.68-.42 1.4-.5 2.15.1-.08.25-.08.34.01l.46.46.79-.79c.1-.1.26-.1.36 0s.1.25 0 .35l-.79.8.91.91c.1.1.1.26 0 .36-.1.09-.25.09-.35 0l-.92-.92-.46.46c-.1.1-.26.1-.36 0-.03-.03-.03-.07-.04-.11 0 .85.06 1.7.12 2.52l.03.47.87-.87-.77-.78c-.1-.09-.1-.25 0-.35s.26-.1.35 0l.78.77.52-.52c.1-.1.26-.1.35 0 .1.1.1.25 0 .35l-.52.52.18.19c.1.1.1.25 0 .35-.09.1-.25.1-.35 0l-.18-.18-.88.87c-.05.05-.11.08-.17.08s-.11-.03-.15-.07v.19c.06 0 .12.02.17.07l.8.79c.09.1.09.26 0 .36-.1.1-.26.1-.36 0l-.57-.58c.03.51.05 1.02.07 1.54l2-2c.1-.1.26-.1.36 0 .1.09.1.25 0 .35l-2.15 2.15c-.03.02-.05.04-.08.05.08-.03.17-.01.23.05l.99.99c.09-.04.19-.04.27.04.07.07.07.18.03.27l.42.42c.1.09.1.25 0 .35s-.26.1-.35 0l-.4-.4-1.17 1.17c.02.4.03.79.05 1.19l.28.29.85-.86c.1-.09.26-.09.36 0 .1.1.1.26 0 .36l-.85.85.81.81c.07.08.07.17.04.26.1-.05.21-.05.28.03.1.1.1.26 0 .35l-1.36 1.37c1.11 1 .77 1.45-.1 2.31-.03.02-.07.03-.1.04 0 .17.01.34.01.51.18 4.11 1.44 4.61 4.35 4.58 6.1-.06 12.19-.12 18.29-.18 5.51-.05 11.02-.11 16.53-.16 4.73-.05 5.08-1.58 5.23-3.97l1.16-17.83c.25-4.05-.74-5.25-5.19-5.3l-6.1-.06c-1.32 6.54-7.53 8.58-8.15 16.02.65.35 1.17.81 1.48 1.34.9 1.5.72 4.02-1.93 4.8.26 1.83-1.35 2.97-3.05 2.97-.98 0-1.98-.38-2.67-1.22-.54-.67-.73-1.53-.58-2.32-1.49-.7-2.56-2.33-2.05-3.87.31-.96 1.09-1.68 2.21-2.13v-.03c-.21-3.24-1.65-5.18-3.98-8.13-1.31-1.66-2.67-3.38-3.5-5.39-.27-.67-.53-1.56-.67-2.25-.88 0-1.76-.01-2.65-.02l.37.37.16-.16c.1-.1.26-.1.36 0 .09.1.09.25 0 .35l-.17.16.34.34c.1.1.1.26 0 .36-.09.1-.25.1-.35 0l-.34-.34-.18.18c-.1.1-.26.1-.35 0-.1-.1-.1-.26 0-.35l.18-.19-.66-.66c-.01.05-.02.1-.06.14l-.78.78.39.38c.1.1.1.26 0 .36s-.26.1-.36 0l-.38-.39-.03.03c-.1.1-.26.1-.36 0-.09-.1-.09-.26 0-.35l.03-.03c-.1-.1-.9-.89-.97-1.01-.82 0-1.67.03-2.48.18l.96.96.79-.79c.1-.1.26-.1.35 0 .1.1.1.26 0 .36l-.79.78.52.52c.1.1.1.26 0 .35-.1.1-.26.1-.35 0l-.52-.51-.77.77c-.04.04-.1.06-.15.06l.23.23c.1.1.1.26 0 .36-.1.09-.26.09-.35 0zm-.63-1.34.48.49c.01-.06.02-.11.06-.15l.78-.77-1.19-1.19c-.43.13-.84.31-1.2.55l.71.72.06-.06c.1-.1.26-.1.35 0 .1.1.1.26 0 .35z"/></g></g></g></svg>