<svg id="Layer_1" enable-background="new 0 0 66 66" height="512" viewBox="0 0 66 66" width="512" xmlns="http://www.w3.org/2000/svg"><g><g><path d="m64.506 41.831c-5.73-.074-11.483-.078-17.242-.027l-2.214-4.567 16.62-.373c.276-.006.495-.235.489-.511-.006-.275-.208-.485-.511-.489l-17.078.383-7.873-16.24 21.071.089h.002c.275 0 .499-.223.5-.498.001-.276-.222-.501-.498-.502l-21.56-.092-.028-.057c2.122-3.901 4.304-7.766 6.561-11.577.141-.237.062-.544-.175-.686-.238-.139-.544-.061-.685.176-2.143 3.618-4.213 7.286-6.235 10.985l-4.032-8.318c.662-1.196 1.332-2.388 2.019-3.572.139-.238.058-.545-.181-.684s-.544-.058-.683.182c-.574.988-1.129 1.984-1.685 2.98l-1.419-2.928c-.12-.248-.419-.354-.668-.232-.249.121-.352.42-.231.668l1.722 3.552c-1.476 2.681-2.891 5.389-4.261 8.108l-4.136-8.634c-.12-.25-.419-.354-.667-.235-.249.119-.354.418-.235.667l4.475 9.34c-.036.073-.072.146-.109.219l-19.284-.08s-.001 0-.002 0c-.275 0-.499.223-.5.498-.001.276.222.501.498.502l18.792.08c-2.785 5.644-5.396 11.319-7.95 16.906l-15.624.35c-.276.006-.495.235-.489.511.006.272.229.489.5.489h.011l15.139-.34c-.739 1.616-1.487 3.251-2.242 4.892-3.374.168-6.744.349-10.103.56-.275.018-.485.255-.468.53.018.286.273.491.53.468 3.182-.199 6.373-.373 9.568-.534-1.072 2.325-2.159 4.66-3.269 6.993-1.969.041-3.945.104-5.91.132-.276.004-.497.231-.493.507.004.274.227.493.5.493h.007c1.798-.026 3.607-.083 5.409-.12-.43.897-.857 1.796-1.293 2.69-.121.249-.018.548.23.669.257.124.551.01.668-.229.511-1.048 1.014-2.101 1.516-3.154 2.691-.058 5.378-.105 8.075-.188-1.193 2.833-2.362 5.673-3.48 8.53-.101.258.026.548.283.648.06.023.122.034.182.034.2 0 .388-.12.465-.317 1.172-2.993 2.401-5.969 3.655-8.937 6.819-.218 13.645-.531 20.463-.904l4.273 8.919c.119.251.42.354.667.235.249-.119.354-.418.235-.667l-4.094-8.546c.793-.044 1.588-.082 2.381-.128l.063.063c.098.098.256.098.354 0 .024-.024.024-.058.036-.088 1.773-.105 3.541-.219 5.311-.334l2.652 5.47c.123.253.425.35.668.232.249-.121.352-.42.231-.668l-2.477-5.11c3.32-.22 6.642-.436 9.947-.693.275-.021.481-.262.46-.537-.021-.274-.259-.498-.537-.459-3.436.267-6.888.493-10.34.72l-3.029-6.249c5.594-.046 11.181-.039 16.748.033h.006c.273 0 .497-.22.5-.493.005-.275-.215-.502-.492-.506zm-16.221 4.37-.06-.06.021-.021zm-.11 3.027-.224-.224.516-.516.673.673c-.323.021-.643.047-.965.067zm-1.713.11-.717-.717.558-.558.941.941-.309.309c-.158.009-.316.016-.473.025zm-6.381-2.821.197-.197.982.982-.543.543zm-20.467 4.055-.299-.299.797-.797.116.116c-.139.324-.278.648-.416.973-.066.002-.132.005-.198.007zm-2.222.062.788-.788.427.427-.342.342c-.291.008-.581.011-.873.019zm-3.782.084 1.447-1.448.53.53-.894.894c-.361.009-.722.015-1.083.024zm-1.681.038.519-.519.468.468-.03.03c-.319.007-.638.013-.957.021zm27.285-23.268-.539.539-1.167-1.167.944-.944zm.724 1.495-.154.154-.756-.756.417-.417zm.814 14.646.558-.558.756.756-.558.558zm.402 1.109-.876.876-.756-.756.876-.876zm-6.587-2.805c-.01-.044-.017-.089-.051-.123l-.386-.386 1.205-1.205.148.148c.098.098.256.098.354 0s.098-.256 0-.354l-.148-.148.066-.066.323.675c-.03.012-.064.012-.089.037zm-3.681-.149-.829-.829 1.448-1.449.829.829zm-7.153-.13-.498.499-.53-.53 1.167-1.167.277.277c-.141.307-.276.615-.416.921zm-1.588 3.52-.287.287-.612-.612.797-.797.419.419c-.105.235-.213.468-.317.703zm-3.965 3.965-.612-.612.797-.797.612.612zm1.151-.444.427.427-.797.797-.427-.427zm-6.061 1.656-.468-.468 1.434-1.434.468.468zm1.319-2.256.92-.92.468.468-.92.92zm2.232-8.19.537-.537.345.345-.797.797-.248-.248c.054-.12.109-.239.163-.357zm1.236.161.468.468-.797.797-.468-.468zm1.47-6.072.338-.338.489.489-1.044 1.044-.227-.227c.148-.324.296-.645.444-.968zm1.233-2.672.892-.892.366.366-.982.982-.333-.333c.019-.041.038-.082.057-.123zm1.325-2.845.287-.287.406.406-1.126 1.126-.103-.103c.177-.38.358-.761.536-1.142zm3.019-6.019.448.448-.756.756-.288-.288c.099-.205.196-.41.295-.615zm4.246-1.743.852.852-.427.428-.852-.852zm14.704 21.124c-.043 0-.087.001-.13.001l-.692-.692.409-.409.756.756zm-.299 2.97-.982-.982.516-.516.982.982zm.869-.163.941.941-.516.516-.941-.941zm-2.205-1.173-.61-.61c.34-.005.679-.007 1.019-.012l.106.106zm-18.051-3.227-.144-.144.38-.38c-.08.175-.155.35-.236.524zm17.419-2.633-.283.283-.566-.566.553-.012zm-.987 4.241.516-.516.509.509-.016.016c-.327.005-.653.014-.98.02zm-10.523-5.286c-.011-.022-.009-.048-.027-.066-.098-.098-.256-.098-.354 0l-.076.076-2.642.059c1.163-2.443 2.352-4.874 3.569-7.291l3.418 7.134zm-5.018 1.775-.459-.459.197-.197.581-.013c-.105.224-.214.446-.319.669zm-2.555.239.863-.863.353-.008.172.172-1.044 1.044zm-.008.699-1.167 1.167-.345-.345 1.167-1.167zm12.436-3.095-.547-1.143.218-.218.941.941-.516.516zm-.385-3.523.41-.41.756.756-.41.41zm.402 1.109-.346.346-.756-.756.346-.346zm-.756-1.462-1.167-1.167.41-.41 1.167 1.167zm-1.52-1.521-.597-.597c-.005-.005-.013-.003-.019-.008l-.148-.309.335-.335.838.838zm-.076-1.601.283-.282.838.838-.283.282zm-.353-.354-.777-.777.282-.282.777.777zm-.354.354-.21.21-.386-.807zm1.95 3.475-.346.346-.146-.146c-.003-.003-.007-.001-.009-.004l-.641-1.339zm.409 1.809-.094.094-.172-.359zm.707 0 .346-.346.941.941-.346.346zm1.641.949.979.979-.676.015-.649-.649zm3.038 1.933.412-.009.904.904-.409.409-1.105-1.105zm-1.163-.974.305-.305.292.292zm-.458-.249-1.064-1.064.409-.41 1.064 1.064zm-1.417-1.417-.941-.941.41-.41.941.941zm-.178-1.705.283-.283.941.941-.283.283zm-.354-.353-.755-.756.283-.282.756.756zm-1.109-1.109-1.167-1.167.283-.282 1.167 1.167zm-.531-1.803.685-.685 1.167 1.167-.685.685zm-.353-.354-.838-.838.685-.685.838.838zm-1.192-1.192-.777-.777.685-.685.777.777zm-1.13-1.13-.041-.041c.064-.125.128-.251.192-.377.025-.012.055-.01.076-.031.06-.061.07-.141.056-.219.047-.092.097-.183.145-.275l.258.258zm-.675-.997c-.171.333-.338.669-.508 1.003l-.161-.336.668-.668zm-7.934 10.354.818-.818.407.407-.698.698-.234.005zm6.539-8.889-.605.605-.345-.345.726-.726zm-.548-.85-.756.756-.406-.406.756-.756zm-1.109 1.11-.674.674-.406-.406.674-.674zm.353.353.345.345-.674.674-.345-.345zm.956 1.392c-.007.005-.016.003-.022.009l-.44.44-.468-.468.674-.674.361.361c.014.014.035.011.051.021-.053.104-.105.207-.156.311zm-1.637-.019-1.044 1.044-.345-.345 1.044-1.044zm.353.353.468.468-1.044 1.044-.468-.468zm-.929 1.866-.345.345-.468-.468.345-.345zm.702.817-.287.287-.406-.406.345-.345.387.387c-.013.026-.026.051-.039.077zm-1.401-.119-1.126 1.126-.468-.468 1.126-1.126zm.354.353.406.406-1.126 1.126-.407-.407zm-1.073 1.886-.982.982-.407-.407.982-.982zm-.982 1.689.314.314-.643.014zm.354-.353.982-.982.379.379c-.041.011-.084.016-.116.048l-.9.9zm1.603-1.069-.267-.267.752-.752c-.165.339-.322.68-.485 1.019zm1.419-2.935-.27-.27.81-.81c-.178.361-.362.719-.54 1.08zm1.618-3.231-.284-.284.48-.48.091.191c-.096.19-.191.382-.287.573zm.464-2.52-.533-1.113.253-.254.823.823zm-.763-1.591-.237-.495.366.366zm-1.225-.244-.306.306-.366-.366.435-.434zm.229.478.331.691-.001.001-.511-.511zm-.046 1.024-.756.756-.489-.489.756-.756zm-1.109 1.11-.674.674-.489-.49.674-.674zm-1.027 1.027-1.044 1.044-.489-.489 1.044-1.044zm.353.353.406.406-1.044 1.044-.406-.406zm-.991 1.804-.345.345-.406-.406.345-.345zm.354.354.345.345-.345.345-.345-.345zm-.353 1.043-1.126 1.126-.345-.345 1.126-1.126zm-1.48 1.48-.982.982-.345-.345.982-.982zm.354.353.468.468-.982.982-.468-.468zm-.867 1.804-.818.818-.468-.468.818-.818zm-1.172 1.171-.322.322-.958.021.812-.812zm3.386.239.073-.073c-.011.024-.023.048-.034.072zm10.078-.544.311.311-.636.014zm2.657 1.259.174.174-.346.346-.505-.505zm.528.527 1.105 1.105-.346.346-1.105-1.105zm1.459 1.459.92.92-.346.346-.92-.92zm.221 1.62-.516.516-.92-.92.516-.516zm1.57.863.346-.346.346.346c-.228.003-.456.004-.685.007zm-.354-.354-.509-.509.346-.346.509.509zm.19-1.209.409-.409.509.509-.409.409zm-.353-.353-.92-.92.409-.409.92.92zm-.158-1.683.283-.283.92.92-.283.283zm-1.723-1.902-.175.004-.63-.63.283-.283.715.715zm-1.158-.979-1.064-1.064.283-.283 1.064 1.064zm-.427-1.7.685-.685 1.064 1.064-.685.685zm-.354-.354-.941-.941.685-.685.941.941zm-1.294-1.294-.756-.756.685-.685.756.756zm.282-1.795.542-.542.756.756-.542.542zm-.353-.353-1.167-1.167.542-.542 1.167 1.167zm-1.52-1.521-.838-.838.542-.542.838.838zm-1.192-1.192-.777-.777.542-.542.777.777zm-1.13-1.13-.368-.368c.123-.238.25-.473.373-.71l.537.536zm.249-1.541c.136-.26.274-.52.41-.78l.831.831-.595.595zm-1.075-.105-.778-.778.428-.428.646.645c-.1.188-.199.374-.296.561zm-.309.399-.58.58-.823-.823.58-.58zm-1.757-.596-.903-.903.581-.581.903.903zm-2.174-.734-.559.559-.406-.406.702-.702zm-.913.912-.756.756-.406-.406.756-.756zm.354.354.366.366-.756.756-.366-.366zm-.744 1.475-.674.674-.366-.366.674-.674zm-1.027 1.027-1.044 1.044-.366-.366 1.044-1.044zm-1.397 1.398-.345.345-.366-.366.345-.345zm.353.353.489.489-.345.345-.489-.489zm-.209 1.187-1.126 1.126-.489-.489 1.126-1.126zm.354.354.406.406-1.126 1.126-.406-.406zm-1.073 1.886-.982.982-.406-.406.982-.982zm-1.336 1.335-.818.818-.406-.406.818-.818zm.354.354.345.345-.818.818-.345-.345zm-.826 1.516-1.044 1.044-.345-.345 1.044-1.044zm-1.604 1.191-.284.006.145-.145zm1.803.96.832-.019-.493.493-.407-.407zm-.015.828-1.167 1.167-.407-.407 1.167-1.167zm-1.52 1.521-.838.838-.407-.407.838-.838zm.354.353.345.345-.838.838-.345-.345zm-.847 1.537-.531.531c-.17.007-.339.016-.509.023l-.102-.102.797-.797zm.354.353.138.138c-.095.004-.191.007-.286.011zm-1.935 1.228-.407.407-.345-.345.027-.027c.241-.011.483-.024.725-.035zm-.761.761-.982.982-.345-.345.982-.982zm.354.354.468.468-.982.982-.468-.468zm-.868 1.803-.797.797-.468-.468.797-.797zm.354.354.53.53-.797.797-.53-.53zm.353-.354.982-.982.53.53-.982.982zm1.336-1.335.838-.838.53.53-.838.838zm-.354-.354-.468-.468.797-.797c.026-.001.053-.003.079-.004l.431.431zm1.087-1.296c.073-.003.145-.005.218-.009l-.113.113zm1.259-1.05c-.003 0-.005 0-.008 0l-.465-.464.838-.838.468.468zm1.188-.481.418.418c-.29.011-.58.022-.87.034zm-.468-1.175 1.167-1.167.468.468-1.167 1.167zm1.52-1.52 1.044-1.044.468.468-1.044 1.044zm3.094-1.212c.011.019.008.042.024.058l.255.255-.817.818c.177-.379.361-.754.538-1.131zm.378-.295c-.058-.058-.134-.07-.209-.06.01-.021.021-.043.031-.064l.832-.019-.399.399zm1.378-.16.544-.012-1.047 1.047-.266-.266zm2.234-.05-.108.108-.104-.104zm.723-.016 1.515-.034c.001.016.015.03.019.046l-1.239 1.239-.773-.773zm2.288-.035c.005-.005.003-.012.007-.017l1.135-.025.241.503c-.083-.021-.17-.016-.235.049l-.4.4-.829-.829zm1.501.864c.023-.023.022-.055.034-.083l.492 1.027-.191.191-.735-.735zm.783-.834.51.51-.18.18zm.596-.111.547-.012-.28.28zm1.137.105.715.715-.516.516-.715-.715zm1.068 1.069 1.105 1.105-.516.516-1.105-1.105zm.237 1.974-.558.558-1.105-1.105.558-.558zm.353.354.92.92-.045.045c-.335.006-.67.014-1.005.02l-.428-.428zm4.822-.549.283-.283.756.756-.283.283zm-.354-.353-.509-.509.283-.283.509.509zm.127-1.146.654-.654.333.686-.477.477zm-.353-.353-.92-.92.325-.325.704-.016.576.576zm-2.21-2.21-.169-.169.685-.685.824.824zm-.523-.523-.715-.715.685-.685.715.715zm.324-1.753.542-.542.715.715-.542.542zm-.354-.354-1.064-1.064.542-.542 1.064 1.064zm-1.417-1.417-.941-.941.542-.542.941.941zm-.046-1.837.595-.595.941.941-.595.595zm-.353-.353-.756-.756.595-.595.756.756zm-1.11-1.11-1.167-1.167.595-.595 1.167 1.167zm-1.52-1.52-.838-.838.595-.595.838.838zm-1.192-1.192-.777-.777.595-.595.777.777zm.172-1.725 1.3-1.3.777.777-1.3 1.3zm-.354-.353-.838-.838 1.3-1.3.838.838zm-.385-1.999c.114-.215.225-.432.34-.646l.153.153zm-1.746 1.172-.536-.536 1.141-1.141.181.181c-.264.499-.524.998-.786 1.496zm-.889-.889-.903-.903 1.141-1.141.903.903zm-.354.354-.428.428-.903-.903.428-.428zm-2.037-.475-.581.581-.113-.113-.479-.999.32-.32zm-1.401-1.01-.36-.751.556.556zm-.589 1.085-.827.827-.345-.345.948-.948zm-1.181 1.18-.756.756-.345-.345.756-.756zm-1.971.247.164.164-.467.467c.101-.21.202-.421.303-.631zm.517.518.345.345-.674.674-.345-.345zm.699.698.406.406-.674.674-.406-.406zm-.621 1.434-1.044 1.044-.406-.406 1.044-1.044zm-1.397 1.397-.345.345-.406-.406.345-.345zm-.345 1.052.366.366-1.126 1.126-.366-.366zm-.76 2.199.489.489-.982.982-.489-.489zm-.847 1.824-.818.818-.489-.489.817-.818zm-.817 1.525.406.406-1.044 1.044-.406-.406zm-.991 1.804-.515.515-.832.019.94-.94zm-.109 1.506-.359.359-.343-.343zm.723-.016.857-.019.049.049-1.167 1.167-.468-.468zm-.614 1.55-.838.838-.468-.468.838-.838zm-.838 1.546.407.407-.797.797-.407-.407zm-.744 1.557-.148.148c-.285.013-.57.028-.855.041l.597-.596zm-1.2 1.2-.973.973-.407-.407.525-.525c.285-.013.57-.027.855-.041zm-1.327 1.327-.797.797-.407-.407.797-.797zm.353.354.345.345-.797.797-.345-.345zm-.805 1.495-.92.92-.345-.345.92-.92zm1.175 1.176.53.53-.92.92-.53-.53zm.883.883.612.612-.92.92-.612-.612zm1.505-1.504.982-.982.612.612-.982.982zm1.335-1.336.838-.838.612.612-.838.838zm1.185 1.185-.219-.219.545-.545c-.111.254-.216.51-.326.764zm-.347-2.73-.53-.53.495-.495c.193-.008.387-.015.58-.023l.251.251zm4.571-4.243c.012.002.021.014.034.014.002 0 .004-.003.007-.003l.316.316-.919.919c.189-.414.37-.832.562-1.246zm.444-.293 1.224-1.223.266.266-1.224 1.224zm1.843-.603.473.472-1.224 1.224-.473-.473zm.354-.354 1.416-1.417.063-.001.442.442-1.449 1.449zm2.274-.623.773.773-1.449 1.449-.773-.773zm1.48.773 1.205-1.205.829.829-1.205 1.205zm2.388-.022.735.735-1.205 1.205-.735-.735zm2.095-.42.304-.304.715.715-.556.556zm1.567 2.782-.158.158-.291-.608zm.354.353.088.088c-.06.001-.12.002-.18.004zm2.528 1.039-.391.391-.376-.376c.255-.004.511-.011.767-.015zm1.629 1.296.982.982-.558.558-.982-.982zm1.336 1.336.941.941-.558.558-.941-.941zm1.294 1.294.9.9-.558.558-.9-.9zm.354-.354.516-.516.9.9-.516.516zm1.769.738.941.941-.516.516-.941-.941zm.353-.354.346-.346.836.836c.041.041.095.055.149.062l-.39.39zm-.353-.353-.9-.9.346-.346.9.9zm-1.254-1.254-.941-.941.346-.346.941.941zm-1.294-1.294-.982-.982.116-.116c.151-.002.303-.003.454-.005l.757.757zm.48-2.444.283-.283.605.605c-.186.002-.373.004-.559.006zm.283-.989-.756-.756.355-.355.494 1.019zm-2.207-4.285-1.105-1.105.542-.542.062.062.681 1.405zm-1.167-2.958-.112-.112.039-.039zm-.465-.465-1.064-1.064.531-.531.695 1.433zm-1.319-3.216-.091-.091.031-.031zm-3.075-3.075-.838-.838 1.358-1.358.547 1.129zm-.037-3.344-.278-.278.096-.096zm-.631-.631-.838-.838.51-.51.547 1.129zm-1.192-1.192-.263-.263c.189-.352.372-.707.562-1.058l.334.688zm-1.563.061-.072-.072.208-.208c.098-.098.098-.256 0-.354s-.256-.098-.354 0l-.208.208-.903-.903.084-.084 1.982.008c-.249.467-.489.939-.737 1.405zm-2.122-1.415.088.087-1.141 1.141-.852-.852.352-.352c.008-.009.006-.021.013-.031zm-2.283.047c-.092-.04-.196-.041-.271.034s-.074.18-.034.271l-.451.452-.82-.82 1.633.007zm-2.666.784.318.663-1.073 1.073-.448-.448 1.143-1.143c.04-.04.053-.093.06-.145zm-3.337 5.025.446-.446.345.345-1.044 1.044-.13-.13c.128-.272.255-.542.383-.813zm-.606 1.296-.007.007c.002-.003.003-.007.005-.01zm-2.237 4.79.203.203-.55.55c.115-.251.231-.502.347-.753zm-1.618 3.518.095.095-.257.257c.054-.117.108-.234.162-.352zm.033 3.075-.838.838-.345-.345.838-.838zm-2.459 2.225.117.117-.314.314c.066-.144.131-.287.197-.431zm.47.47.468.468-.838.838-.468-.468zm-1.705 2.642-.123-.123c.086-.004.173-.008.259-.013zm-.357.35.003.003-.009.009c.002-.003.004-.007.006-.012zm-.727 1.575.34.34-.92.92-.004-.004c.196-.419.39-.837.584-1.256zm-1.215 2.602.635-.635.345.345-1.434 1.434-.056-.056c.171-.363.34-.725.51-1.088zm3.039 1.769.501.501c-.342.009-.683.014-1.026.023zm4.96-2.138c-.02.011-.045.009-.062.026l-.727.727-.427-.427.982-.982.361.361c-.044.097-.085.196-.127.295zm1.781-4.032-.286-.286.3-.3c.085-.003.169-.007.254-.01-.089.199-.179.397-.268.596zm3.491-3.051.473.473-.872.872c-.328.012-.656.026-.984.038zm.826.826.35.35c.098.098.256.098.354 0s.098-.256 0-.354l-.35-.35 1.224-1.224.773.773-1.244 1.244c-.532.017-1.064.032-1.596.05zm2.704-.451.82.819c-.563.017-1.126.032-1.689.05zm2.985-.619.735.735-.637.637c-.505.013-1.01.03-1.515.045zm1.088 1.089.247.247c-.169.004-.339.011-.508.015zm2.514-.861.502 1.048c-.527.011-1.055.019-1.582.032zm2.738 2.002-.453.453-.211-.44c.221-.004.443-.008.664-.013zm.507.2.509.51-.883.883c-.015-.012-.034-.013-.052-.021l-.306-.64zm.39 2.848-.072.072-.133-.277zm.707 0 .876-.876.982.982-.876.876zm2.211.46.941.941-.876.876-.941-.941zm1.295 1.294.9.9-.839.839c-.023.001-.047.002-.07.004l-.866-.866zm1.253 1.254.4.4c-.281.017-.563.029-.845.045zm4.21-.059-.782-.781.271-.271zm-1.73-3.128-.9-.9.409-.409.135.135.5 1.031zm-1.253-1.254-.941-.941.409-.409.941.941zm-1.294-1.294-.411-.411.81-.009.011.011zm-14.295-32.636 4.03 8.313c-.015.027-.031.055-.045.082l-8.131-.035-.104-.218c1.367-2.73 2.779-5.448 4.25-8.142zm-4.777 9.359.3.625c-.096-.061-.22-.064-.305.02l-.772.772c.232-.473.468-.945.702-1.418zm-8.073 17.877-.761.761c.061-.133.123-.269.184-.401.053-.116.107-.234.16-.35zm-2.538 4.642.074-.074.282.282c-.154.007-.308.015-.462.022.035-.077.071-.154.106-.23zm5.276 8.041c1.024-2.403 2.074-4.795 3.15-7.178 4.396-.166 8.797-.296 13.199-.39l3.212 6.705c-6.518.354-13.042.651-19.561.863zm20.03-2.199.667-.667.941.941-.8.8c-.054.054-.071.126-.065.197-.044.002-.087.005-.131.007zm1.35 1.238.611-.611.549.549c-.386.022-.773.04-1.16.062zm4.553-6.321-.41-.41.019-.019c.061-.001.122-.001.183-.002z"/></g></g></svg>