<svg id="Layer_1" enable-background="new 0 0 66 66" height="512" viewBox="0 0 66 66" width="512" xmlns="http://www.w3.org/2000/svg"><g><g><g id="XMLID_1_"><path d="m62.78 43.91-1.51-1.51-.44.44c-.1.1-.25.1-.35 0s-.1-.26 0-.35l.44-.44-.75-.74c-.1-.1-.1-.26 0-.36s.26-.1.36 0l.74.74 1.03-1.02-.9-.9c-.1-.1-.1-.26 0-.35.1-.1.26-.1.35 0l1.9 1.89c.1.1.1.26 0 .36-.1.09-.26.09-.35 0l-.65-.65-1.03 1.03 1.51 1.51c.1.1.1.26 0 .35-.09.1-.25.1-.35 0z"/><path d="m58.51 31.82c.25-.02.5.21.52.48.01.28-.21.51-.49.52l-13.51.48h-.01c-.27 0-.49-.21-.5-.48s.2-.51.48-.52z"/><path d="m47.99 26.03-.44-.45-.45.45c.22 0 .45-.01.67-.01.07 0 .15.01.22.01zm10.46-1.91c0-.15 0-.31 0-.47l-.24.24zm-1.53 1.84c.04.05.06.1.07.16.48-.01.96 0 1.46-.02 0-.5 0-1.01 0-1.54-.1.06-.19.08-.3-.02l-.29-.29-1.33 1.32zm-.06-2.71-1.33 1.33.65.64 1.32-1.33zm-2.8 2.87c.76.02 1.54.01 2.32.01l-.2-.21-.08.08c-.09.09-.25.09-.35 0-.1-.1-.1-.26 0-.36l.07-.07-.64-.64-1.14 1.13c.01.02.02.04.02.06zm-.19-2.5-1.11 1.11.96.95 1.11-1.11zm-1.46 1.46-.99 1h.41c.53.02 1.07.02 1.61.03zm-1.9.98-.28-.29-.28.28c.19 0 .38 0 .56.01zm8.47 1.03c-4.53.19-8.37-.14-12.9-.04l-.07.07c-.05.05-.11.07-.18.07-.06 0-.12-.02-.17-.07-.02-.02-.02-.04-.03-.06-.31.01-.61.01-.92.02-.26.03-.52-.2-.52-.5 0-2.46-.11-4.07-.11-6.53 0-.28.23-.5.5-.5l14.35-.06c.28 0 .5.22.5.5.03 2.08 0 4.55.03 6.59 0 .27-.21.5-.48.51zm-8.4-1.67.39.39 1.09-1.08-.3-.29c-.04-.04-.05-.09-.06-.15zm-.35-.36 1.47-1.47c.09-.1.25-.1.35 0s.1.25 0 .35l-.08.08c.05.01.11.02.15.06l.29.3 1.28-1.29h.01l.64-.64c.09-.1.25-.1.35 0s.1.25 0 .35l-.46.47.95.95 1.33-1.33-.2-.19c-.1-.1-.1-.26 0-.36s.26-.1.35 0l.22.22c.1-.04.21-.05.28.03.08.08.08.19.03.28l.67.67.26-.26c.09-.09.23-.09.33-.01 0-.94 0-1.88-.01-2.78l-13.36.05c.02 2.04.09 3.49.1 5.52.18 0 .36 0 .54-.01l-.38-.37c-.09-.09-.09-.25 0-.35.1-.1.26-.1.36 0l.69.69.8-.79-.1-.11c-.1-.1-.1-.25 0-.35s.25-.1.35 0l.11.1 1.06-1.06c.1-.1.26-.1.36 0 .09.09.09.25 0 .35l-1.07 1.07.81.8h.54l.62-.62-.79-.79c-.09-.09-.09-.25 0-.35.1-.1.26-.1.36 0z"/><path d="m58.52 28.85c.25.04.5.22.51.5 0 .27-.23.5-.5.5l-13.51.08h-.01c-.27 0-.49-.22-.5-.49 0-.28.22-.51.5-.51z"/><path d="m40.43 28.85c.28 0 .5.22.5.5 0 .27-.22.5-.5.5l-13.51.08c-.28 0-.5-.22-.5-.49 0-.28.22-.51.5-.51z"/><path d="m31.46 40.04c1.34 0 2.65.62 3.07 1.95.27.87.05 1.88-.59 2.62-.09.1-.18.19-.27.28-1.64 1.5-4.42 1.04-5.44-.88-.48-.92-.36-1.93.35-2.77.66-.78 1.78-1.2 2.88-1.2zm-2.34 3.5c.75 1.42 2.95 1.71 4.06.42.3-.35.46-.8.46-1.23 0-.15-.02-.3-.06-.44-.5-1.6-3.24-1.58-4.23-.4-.57.66-.44 1.26-.23 1.65z"/><path d="m29.61 25.4-.64.63c.23 0 .47-.01.7-.01.19 0 .38.01.57.01zm7.13.46-.27.27c.19 0 .36.01.55.01zm-2.39-.35.44.43c.04.05.06.11.07.16.31.01.62.02.94.02.01-.01.01-.03.02-.04l.57-.57-1.02-1.02zm-.35.35-.22.23h.45zm-.9-.9-.52.52.47.47c.03.03.04.07.05.11l.55-.55zm-.87.87-.22.22c.15 0 .29 0 .44.01zm8.11-1.2-1.49 1.49c.5-.01.99 0 1.51-.02-.01-.48-.01-.98-.01-1.49 0 .01 0 .01-.01.02zm.54 2.45c-4.53.19-8.38-.13-12.92-.03-.21.21-.4.47-.61.26-.07-.07-.07-.16-.05-.24-.23 0-.46 0-.69.01-.25.03-.52-.2-.52-.5 0-2.45-.1-3.97-.1-6.53 0-.28.22-.5.49-.5l14.36-.06c.27 0 .49.22.5.49.03 2.09-.01 4.56.02 6.6.01.27-.21.49-.48.5zm-2.95-2.39-.83.82.48.48c.04.04.05.09.06.14.28 0 .58 0 .86-.01-.1-.1-.1-.25 0-.35l.28-.29c-.03-.01-.06-.01-.09-.04zm-1.19.47.83-.83-.88-.89c-.08-.07-.1-.18-.05-.28.01-.02.03-.05.05-.07.1-.1.25-.1.35 0l.88.88.83-.82c.1-.1.26-.1.35 0 .1.09.1.25 0 .35l-.82.83.76.76c.03.03.03.06.04.09l.91-.91c.09-.08.22-.08.32-.01l-1.51-1.51-.39.38c-.1.1-.25.1-.35 0s-.1-.25 0-.35l.4-.41c-.04-.09-.04-.2.04-.28.07-.08.18-.07.28-.03l.71-.71c.1-.1.26-.1.35 0 .1.1.1.25 0 .35l-.69.69 1.2 1.2c0-1.06 0-2.13-.01-3.1l-13.35.05c.01 2.04.09 3.49.09 5.53.11-.01.22-.01.32-.01-.09-.1-.09-.26 0-.35.1-.1.26-.1.36 0l.34.34h.15l1.04-1.04c-.03-.08-.02-.17.04-.24.07-.06.16-.07.24-.05l.59-.58c.1-.1.25-.1.35 0 .1.09.1.25 0 .35l-.55.55.91.92c.03.02.02.05.04.08h.4l.56-.56-.85-.85c-.1-.1-.1-.26 0-.36s.25-.09.35 0l.85.85.52-.51-.23-.23c-.1-.1-.1-.26 0-.36.1-.09.26-.09.36 0l.22.23 1.09-1.08c.1-.1.25-.1.35 0s.1.25 0 .35l-1.08 1.09.55.55 1.02-1.02-.2-.2c-.1-.1-.1-.25 0-.35s.25-.1.35 0l.2.19.81-.81c.1-.1.26-.1.36 0 .05.05.08.11.08.18 0 .06-.03.13-.08.17l-.82.82z"/><path d="m40.41 31.82c.28-.02.51.21.52.48.01.28-.21.51-.48.52l-13.51.48c-.01 0-.01 0-.02 0-.27 0-.49-.21-.5-.48s.21-.51.48-.52z"/><path d="m22.35 32.82-13.51.48s-.01 0-.02 0c-.27 0-.49-.21-.5-.48s.21-.51.49-.52l13.51-.48c.26-.02.5.21.51.48.01.28-.2.51-.48.52z"/><path d="m11.76 9.84h1.42l.02-.53c0-.14.11-.25.25-.25.14.01.25.12.25.26l-.02.51 2.23-.01.02-.58c0-.13.11-.24.25-.24s.25.12.25.26l-.02.56 3.82-.02.01-.49c.01-.14.12-.24.25-.24h.01c.14 0 .25.12.24.25l-.01.48 1.74-.01-.09-.55c-.03-.14.07-.27.2-.29.15-.02.27.07.29.21l.1.63 2.16-.01-.03-.58c-.01-.13.1-.25.24-.26.16-.01.25.1.26.24l.03.59h1.33c.14 0 .25.11.26.25 0 .14-.11.25-.25.25l-1.31.01.07 1.2c0 .14-.1.26-.24.27-.01 0-.01 0-.01 0-.14 0-.25-.11-.25-.24l-.07-1.23-2.11.01.15.87c.02.14-.08.27-.21.29-.02 0-.03 0-.04 0-.12 0-.23-.09-.25-.21l-.15-.95-1.83.01-.03.96c-.01.13-.12.24-.25.24h-.01c-.14-.01-.25-.12-.24-.26l.03-.94-3.82.02-.03.87c-.01.14-.12.24-.25.24h-.01c-.14 0-.25-.12-.24-.26l.02-.85-2.22.01-.03 1.17c-.01.14-.12.24-.25.24-.01 0-.01 0-.01 0-.14 0-.25-.12-.24-.25l.03-1.15h-1.4-.01c-.13 0-.24-.11-.25-.25 0-.14.11-.25.25-.25z"/><path d="m21.98 22.25-.52.52.79.79c0-.13 0-.91 0-1.04zm-.87 3.06-.64.63.01.02c.04.04.06.1.07.16.57 0 1.13 0 1.71-.02 0-.59-.01-1.21-.01-1.83l-.09-.1c-.01.05-.02.1-.06.14l-.64.64.44.43c.09.1.09.26 0 .35-.1.1-.26.1-.36 0zm-1.77-.49.77.77.64-.64-.76-.77zm-2.68 1.2-.47-.47-.54.53c1.3.03 2.63.05 3.99.05.01-.04.02-.08.05-.12l.07-.07-.77-.77-.63.64c-.1.1-.26.09-.36 0-.09-.1-.09-.26 0-.36l.64-.63-.86-.86-1.24 1.23.47.47c.1.1.1.26 0 .36-.1.09-.26.1-.35 0zm-4.04.01-.08-.07-.07.07zm.49-.22c.06.06.07.15.05.23.39 0 .78.01 1.17.02l-.93-.94c-.01 0-.01-.01-.01-.01l-.49.49zm9.68 1.27c-5.02.22-9.32-.21-14.27 0-.29.03-.53-.22-.53-.5 0-2.46-.1-4.07-.1-6.53 0-.28.22-.5.5-.5l14.35-.06c.28 0 .5.22.5.49.03 2.1 0 4.51.02 6.6.01.27-.2.49-.47.5zm-10.96-1.83c-.09-.1-.09-.26 0-.35.1-.1.26-.1.36 0l.35.35 2.69-2.69c.1-.1.26-.1.36 0 .09.1.09.25 0 .35l-1.86 1.86h.02l.98.98c.08.09.08.22.01.32h.33c0-.06.02-.13.07-.18l.69-.69-.57-.57c-.1-.1-.1-.26 0-.36s.26-.09.36 0l.57.57 1.77-1.77c.1-.1.26-.1.36 0 .1.09.1.25 0 .35l-.19.19.86.86.64-.64-.26-.26c-.09-.1-.09-.26 0-.36.1-.09.26-.09.36 0l.3.3c.07-.01.15 0 .21.06s.07.14.06.22l.81.81.63-.64c.04-.04.09-.05.15-.06l-1.33-1.33c-.1-.1-.1-.25 0-.35.09-.1.25-.1.35 0l.2.2.52-.52-.57-.57c-.1-.1-.1-.26 0-.36.09-.1.25-.1.35 0l.57.57.27-.27c0-.26 0-.52 0-.78l-13.36.05c.01 2.04.09 3.49.1 5.53 1.02-.04 1.82-.05 2.77-.04l.43-.43z"/><path d="m8.82 28.93 13.51-.08c.28 0 .5.22.51.5 0 .27-.23.5-.5.5l-13.51.08c-.01 0-.01 0-.01 0-.27 0-.5-.22-.5-.49 0-.28.22-.51.5-.51z"/><path d="m46.02 14.9-.45.45c.3 0 .6 0 .89-.01zm-.98.28.63-.63-.95-.95c-.02-.03-.03-.07-.04-.1l-.92.92.67.67c.08.08.08.19.03.28.17 0 .34 0 .51-.01-.01-.06.02-.13.07-.18zm-1.03.2-.6-.6-.63.62c.41-.01.82-.02 1.23-.02zm-3.88-.14c.04.07.05.13.03.2.49-.01.97-.01 1.46-.02l-.83-.83zm-2.32-.17.25.25c.04.04.06.1.06.15.38 0 .77-.01 1.15-.02.01-.02.01-.06.04-.08l.13-.14-.88-.88c-.01-.01 0-.01-.01-.01zm-.3.41-.05-.05-.06.05zm20-4.79-.61.62.3.3.2-.2c.09-.09.25-.09.35 0 .1.1.1.26 0 .36l-.19.19.66.67c-.02-.35-.09-1.79-.1-1.86-.05.23-.28.25-.41.13zm-.31 1.62-.98.99.77.77 1-1.01c-.02-.01-.05-.01-.07-.03zm-2.32 2.33.58.58c.96-.02 1.94-.03 2.9-.04-.03-.56-.06-1.13-.09-1.69l-.93.93.23.23c.1.1.1.25 0 .35s-.26.1-.36 0l-.22-.23-.33.33c-.1.09-.25.09-.35 0-.1-.1-.1-.26 0-.36l.32-.32-.77-.77zm-.35.35-.23.23c-.01.01-.03.01-.04.01h.5zm-4.45-2.41 1.3 1.3 1.02-1.02-.7-.69c-.1-.1-.1-.26 0-.35.1-.1.26-.1.35 0l.7.69 1-1c.1-.1.25-.1.35 0s.1.26 0 .36l-1 .99 1.42 1.42.99-.98-1.07-1.07c-.1-.1-.1-.26 0-.35.1-.1.26-.1.36 0l1.06 1.06.99-.98-.3-.3-.2.2c-.1.09-.25.09-.35 0-.1-.1-.1-.26 0-.36l.22-.22c-.05-.09-.05-.2.03-.28.08-.07.19-.07.28-.03l.63-.63-.48-.48c-.09-.1-.09-.25 0-.35.1-.1.26-.1.36 0l1.03 1.03c.03.03.03.07.05.11-.05-.76-.09-1.53-.13-2.28-16.28-.93-32.77-.89-49.04.13-.3 2.48-.25 4.9-.54 7.42 8.71-.1 17.56-.25 28.27-.42l.42-.43-.35-.35c-.1-.1-.1-.25 0-.35s.26-.1.35 0l.36.35 1.7-1.7c.09-.1.25-.1.35 0s.1.26 0 .35l-.61.62h.01l.88.89.65-.65-.01-.01c-.1-.09-.1-.25 0-.35.09-.1.25-.1.35 0l.01.01 1.13-1.13c.1-.1.26-.1.35 0 .1.1.1.26 0 .35l-1.13 1.13.94.94c.04.05.06.1.07.16l.9-.91-.32-.32c-.1-.1-.1-.26 0-.35.1-.1.26-.1.35 0l.33.32 1.43-1.44c.1-.1.26-.1.36 0 .09.1.09.26 0 .36l-.22.22c.03.01.07.01.1.04l.94.94.93-.92-.23-.23c-.1-.1-.1-.26 0-.35.1-.1.25-.1.35 0l.23.22.63-.63c.1-.1.26-.1.35 0 .1.1.1.26 0 .36l-.63.63.52.52 1.24-1.24c-.02-.08-.02-.17.05-.24.06-.06.15-.07.23-.05l1.56-1.55c.1-.1.26-.1.35 0 .1.1.1.25 0 .35zm-.06 2.66 1.01-1.01-1.3-1.29-1.2 1.2.55.55c.09.1.09.25 0 .35-.1.1-.26.1-.36 0l-.55-.55-.6.61c-.1.09-.26.09-.35 0-.1-.1-.1-.26 0-.36l.6-.6-.52-.52-.92.92.45.45c.09.1.09.25 0 .34 1.06-.01 2.11-.02 3.17-.04.01-.02.01-.04.02-.05zm.66.04c1.1-.01 2.2-.03 3.3-.04-.01-.01-.03-.01-.04-.02-.1-.1-.1-.26 0-.35l.23-.23-1.42-1.42-1.02 1.01.17.17c.1.1.1.26 0 .35-.1.1-.26.1-.36 0l-.16-.16zm8.21.89c-16.81.2-34.19.56-51.03.76-.01 0-.01 0-.01 0-.3 0-.54-.27-.5-.57.38-2.81.27-5.53.66-8.4.03-.24.22-.42.46-.43 16.6-1.06 33.43-1.1 50.03-.13.25.01.45.21.47.47.13 2.59.3 5.37.42 7.78.01.28-.21.52-.5.52z"/><path d="m45.99 62.01-.02-.02-.07.07c.04-.02.06-.03.09-.05zm.34-.37.02.01c.02.03.02.06.03.09.05-.04.11-.07.15-.12.21-.18.39-.43.52-.7zm-3.3 1.33c.07-.01.13-.02.2-.03l-.08-.08zm-14.66-13.74 1.42 1.43 1.22-1.22c.04-.04.09-.05.13-.06l-.15-.15c-.88 0-1.75 0-2.62 0zm.8 13.67-.68.67 1.38-.01c-.02-.01-.04 0-.06-.02zm-3.85-13.55 1.58 1.58 1.23-1.23-.47-.46c-.78 0-1.57 0-2.35 0 0 .04.01.07.01.11zm.27 5.47.59-.59-.63-.63c.01.4.03.81.04 1.22zm.04.89.7.7.91-.91c.06-.05.12-.08.17-.08-.03-.01-.07-.02-.09-.05l-.78-.78-.92.91c0 .07 0 .14.01.21zm.04 1.36.3-.3-.32-.33c.01.21.02.42.02.63zm10.26 4.86-.91.91.57.57c.03.03.04.08.05.12.31 0 .63-.01.94-.01-.01-.08 0-.15.06-.21l.31-.32-.99-.99c-.02-.02-.01-.04-.03-.07zm-1.44-12.71.95.95.96-.96c-.64 0-1.27.01-1.91.01zm.18 13.98-.34.34.68-.01zm-2.98-13.98 1.06 1.06.91-.92c.06-.05.14-.07.22-.05l-.09-.09c-.7 0-1.4 0-2.1 0zm-.62 14.34 1.31-.01-.65-.65zm12.1-16.63-1.27 1.27h.72 2.47c1.32 0 2.65 0 4.01-.01l1.31-1.31-1.95-1.95-1.68 1.68.9.9c.1.1.1.26 0 .35-.09.1-.25.1-.35 0l-.9-.9-1.16 1.17c-.05.05-.11.07-.18.07s-.13-.02-.18-.07c-.1-.1-.1-.26 0-.36l1.17-1.16-1.3-1.3-1.25 1.26.93.93c.09.1.09.26 0 .36-.1.09-.26.09-.36 0zm-2.89 2.28.13.13.13-.13zm-.22 13.87-.32.32c.19-.01.39-.03.59-.05zm-1.7-14.87 3.07-.01c-.02-.04-.03-.08-.03-.13l-1.45-1.44-.92.91c.09.09.09.24 0 .33-.09.08-.22.11-.34.01zm.45 13.63-1.15 1.15.49.49c.29-.01.58-.02.88-.03.01-.03 0-.05.02-.07l.65-.65zm-1.16-12.63.4.4.4-.4zm-.18 14.3-.16-.16-.17.16zm.23-13.55-.59-.6c-.05-.04-.07-.1-.07-.16-.08 0-.17.01-.25.01.08.09.08.23-.01.33l-.98.97.81.81c.1.1.1.26 0 .36-.1.09-.26.09-.35 0l-.81-.81-.65.64c-.09.1-.25.1-.35 0-.1-.09-.1-.25 0-.35l.64-.65-1.01-1.01c.01.08 0 .15-.06.21l-.91.92.51.52c.1.09.1.25 0 .35s-.25.1-.35 0l-.52-.52-.73.74c-.1.1-.26.1-.36 0-.09-.1-.09-.26 0-.36l.74-.73-.98-.98c-.01.05-.02.1-.05.14l-1.22 1.22.49.49c.1.1.1.26 0 .36-.1.09-.26.09-.35 0l-.5-.5-.64.65c-.1.09-.26.09-.35 0-.1-.1-.1-.26 0-.36l.64-.64-.96-.96-1.22 1.23.93.93c.09.1.09.25 0 .35-.1.1-.26.1-.36 0l-.93-.93-.74.74c-.1.1-.26.1-.35 0-.1-.09-.1-.25 0-.35l.74-.74-1.13-1.13c.02.26.09 2.47.1 2.71l1.02 1.01.92-.92c.1-.1.26-.1.36 0 .09.09.09.25 0 .35l-.92.93.78.78c.09.1.09.26 0 .36-.05.05-.11.07-.17.07.15.07.24.26.09.41l-.92.92.27.26c.1.1.1.26 0 .36-.1.09-.26.09-.35 0l-.27-.26-.62.61s-.01 0-.01.01v.02c1-.02 11.41-.27 16.05-.4.26-1 .26-2.03.37-8.17h-.86l-.49.49.38.38c.1.1.1.25 0 .35s-.25.1-.35 0l-.38-.38-.7.69c-.1.1-.26.1-.35 0-.1-.09-.1-.25 0-.35l.69-.69-.48-.49h-.45c-.01.02-.01.05-.03.06l-.69.7.61.61c.1.1.1.26 0 .36-.09.1-.25.1-.35 0l-.62-.62-.87.88c-.1.09-.25.09-.35 0-.1-.1-.1-.26 0-.36zm-14.99 8.89c-2.69.08-4.03 3.15-1.04 4.34 1.24.49 2.57.41 5.99.39l-.37-.37c-.1-.1-.1-.26 0-.36s.26-.09.35 0l.43.43.83-.83c.01-.04.01-.09.05-.12.03-.04.08-.05.13-.06l.8-.79c.09-.1.25-.1.35 0 .1.09.1.25 0 .35l-.71.71.64.65c.1.09.1.25 0 .35-.01.01-.03.01-.05.02h.24l1.02-1.02-.01-.01c-.1-.1-.1-.26 0-.35.1-.1.26-.1.36 0l.01.01.99-1c.1-.09.26-.09.36 0 .09.1.09.26 0 .36l-1 .99.91.91c.03.02.03.06.04.1l.59-.01s0 0 .01-.01l.69-.69-.77-.76c-.1-.1-.1-.26 0-.36.1-.09.26-.09.35 0l.77.77 1.74-1.75c.1-.1.26-.1.35 0 .1.1.1.26 0 .36l-.52.52c.02.01.05.01.07.03l.99.99 2.41-2.41c.1-.1.26-.1.35 0 .1.1.1.26 0 .36l-.9.9.89.89 2.48-2.48c.09-.09.25-.09.35 0 .1.1.1.26 0 .36l-.99.99-1.48 1.48.56.57c.41-.05.82-.1 1.22-.17.01-.01.01-.03.02-.05l.58-.57-.88-.88c-.09-.1-.09-.26 0-.36.1-.1.26-.09.36 0l.88.88 1.25-1.26c.1-.1.26-.1.36 0s.1.26 0 .35l-1.26 1.27.24.23c.02.02.01.05.02.07.21-.05.42-.1.63-.16.3-.08.64-.19.97-.32-.02-.01-.04-.01-.05-.02-.1-.1-.1-.26 0-.36l.31-.31-1.59-1.6c-.1-.09-.1-.25 0-.35.09-.1.25-.1.35 0l1.59 1.59.96-.95c.09-.09.21-.09.31-.02.07-.63-.24-1.1-.77-1.46l-.48.49.66.66c.24.24-.12.59-.35.35l-.68-.67c-.12.09-.23.07-.31-.01-.09-.09-.09-.22-.02-.32l-.13-.14c-.1-.09-.1-.25 0-.35.09-.1.25-.1.35 0l.12.13.38-.38c-.07-.03-.14-.07-.2-.09-.51-.16-1.06-.2-1.62-.2-.2 0-2.06.04-2.06.04-2.78.08-19.24.49-19.42.49zm34.7-13.89 1.44 1.45 1.38-1.37-1.45-1.45zm7.16-35.29c.14-5.58-1.33-7.27-7.47-7.27l-45.55.15c-7.07.03-9.56 1.66-9.91 9.69-.35 8.27-.3 16.69.15 25.04 1-.02 60.52-.96 62.2-.82zm-7.52 35.65-2.83 2.83c.61 0 1.21-.01 1.82-.02 1.27-.01 2.45-.07 3.51-.32l-.69-.68-.55.54c-.1.1-.26.1-.36 0s-.1-.26 0-.35l.55-.55zm-3.86-.51 1.83 1.83 1.68-1.68-1.83-1.83zm-2.43 1.71 1.72-1.71-.74-.75c-.1-.09-.1-.25 0-.35.09-.1.25-.1.35 0l.74.74 1.68-1.67-.24-.25c-.1-.1-.1-.26 0-.35.09-.1.25-.1.35 0l.25.24.65-.66c.1-.1.26-.1.36 0s.1.26 0 .36l-.66.66 1.83 1.83 1.37-1.37-1.01-1.02c-.1-.09-.1-.25 0-.35s.26-.1.36 0l1.01 1.01.27-.27c.1-.1.26-.1.35 0 .1.1.1.26 0 .35l-.27.28 1.45 1.44 1.13-1.12c.1-.1.25-.1.35 0s.1.25 0 .35l-1.13 1.13.56.56c.1.09.1.25 0 .35s-.26.1-.35 0l-.56-.56-1.37 1.37.88.88v.02c3.33-1.09 3.75-4.37 3.83-7.98l.04-2.22c-.82-.07-16.92.14-32.53.37-14.78.21-29.1.44-29.59.45.06 1.04.13 2.09.19 3.13.4 5.76 2.07 7.26 8.11 7.08 4.37-.13 9.14-.21 14.58-.25 3.05-.02 6.08-.02 9.12-.02.01-.02.01-.05.03-.06l1.01-1.01-.17-.17c-.1-.1-.1-.26 0-.36.1-.09.26-.09.35 0l.17.17.17-.17 1.82-1.81c.09-.1.25-.1.35 0s.1.25 0 .35l-1.98 1.99.49.49c.1.1.1.26 0 .36s-.25.1-.35 0l-.5-.5-.71.72c.56 0 2.07-.01 3.38-.01-.04-.09-.05-.2.03-.28l.4-.4-1.24-1.24c-.1-.1-.1-.26 0-.35.09-.1.25-.1.35 0l1.24 1.24.91-.91-.05-.06c-.1-.1-.1-.25 0-.35s.26-.1.36 0l.05.05.86-.86c.09-.09.25-.09.35 0 .1.1.1.26 0 .36l-.86.86 1.41 1.41 1.11-1.11-.9-.89c-.1-.1-.1-.26 0-.36s.25-.1.35 0l.9.9 1.43-1.43v-.01l1.45-1.44c.09-.1.25-.1.35 0s.1.26 0 .36l-1.27 1.26 1.3 1.3 1.69-1.69c-.07-.1-.08-.23.01-.32s.22-.09.32-.02l2.18-2.17c.1-.1.26-.1.35 0 .1.09.1.25 0 .35l-2.16 2.17zm5.3 2.61c-4.44.06-8.83.07-12.95.07-.14 5.73-.06 6.89-.33 8.15 1.26-.03 2.33-.1 3.33.22 2.93.93 3.25 4.76-1.45 6.05-3.09.87-6.35.89-9.5.91-11.51.07-12.27.22-13.85-.41-3.99-1.58-2.41-6.16 1.38-6.27.67-.02 1.34-.04 2.02-.05-.26-5.11-.17-6.93-.41-8.55-5.25.03-9.88.11-14.12.24-6.49.19-8.69-1.59-9.14-8.01-.02-.37-.22-3.3-.23-3.69-.64-.64-.33-21.82-.17-25.59.38-8.66 3.36-10.62 10.91-10.65l45.55-.15c6.83 0 8.62 2.26 8.47 8.3l-.65 30c-.17 7.65-2.67 9.34-8.86 9.43zm-5.3-1.9-.95.96c1.25-.01 2.51-.02 3.78-.03.01-.06.02-.11.06-.15l1.02-1.02-1.84-1.83-1.71 1.72.53.53c.09.1.09.25 0 .35-.1.1-.26.1-.36 0z"/></g></g></g></svg>