<?xml version="1.0" standalone="no"?>
<!DOCTYPE svg PUBLIC "-//W3C//DTD SVG 20010904//EN"
 "http://www.w3.org/TR/2001/REC-SVG-20010904/DTD/svg10.dtd">
<svg version="1.0" xmlns="http://www.w3.org/2000/svg"
 width="1080.000000pt" height="1080.000000pt" viewBox="0 0 1080.000000 1080.000000"
 preserveAspectRatio="xMidYMid meet">
<metadata>
Created by potrace 1.14, written by Peter Selinger 2001-2017
</metadata>
<g transform="translate(0.000000,1080.000000) scale(0.100000,-0.100000)"
fill="#000000" stroke="none">
<path d="M2423 8385 c-10 -11 -13 -222 -13 -985 l0 -970 90 0 90 0 0 895 0
895 895 0 895 0 0 90 0 90 -972 0 c-828 -1 -975 -3 -985 -15z"/>
<path d="M6410 8310 l0 -90 910 0 910 0 0 -895 0 -895 80 0 80 0 0 971 c0 828
-2 973 -14 985 -12 12 -158 14 -990 14 l-976 0 0 -90z"/>
<path d="M2985 7808 c-3 -7 -4 -312 -3 -678 l3 -665 678 -3 677 -2 0 680 0
680 -675 0 c-531 0 -677 -3 -680 -12z m1145 -668 l0 -470 -470 0 -470 0 0 470
0 470 470 0 470 0 0 -470z"/>
<path d="M3370 7140 l0 -290 290 0 290 0 0 290 0 290 -290 0 -290 0 0 -290z"/>
<path d="M4720 7625 l0 -195 95 0 95 0 0 -95 0 -95 -95 0 -95 0 0 -195 0 -195
-95 0 -95 0 0 -195 0 -195 100 0 100 0 0 95 0 95 90 0 90 0 0 -190 0 -190
-190 0 -190 0 0 -95 0 -95 -95 0 -95 0 0 95 0 95 -195 0 -195 0 0 -190 0 -190
-95 0 -95 0 0 190 0 190 -100 0 -100 0 0 -190 0 -190 -95 0 -95 0 0 -195 0
-195 -195 0 -196 0 3 -97 3 -98 193 -3 192 -2 0 -95 0 -95 290 0 290 0 0 -195
0 -195 95 0 95 0 0 -95 0 -95 195 0 195 0 0 -95 0 -95 100 0 100 0 0 95 0 95
380 0 380 0 0 -95 0 -95 -95 0 -95 0 0 -95 0 -95 -95 0 -95 0 0 95 0 95 -100
0 -101 0 3 -97 3 -98 98 -3 97 -3 0 -189 0 -190 95 0 95 0 0 -100 0 -100 95 0
95 0 0 -285 0 -285 100 0 100 0 0 190 0 190 190 0 190 0 0 -90 0 -90 -95 0
-95 0 0 -100 0 -100 295 0 296 0 -3 98 -3 97 -97 3 -98 3 0 89 0 90 285 0 285
0 0 -95 0 -95 100 0 100 0 0 -95 0 -95 100 0 101 0 -3 98 -3 97 -97 3 -98 3 0
89 0 90 100 0 100 0 0 195 0 194 -97 3 -98 3 -3 188 -2 187 95 0 95 0 0 -95 0
-95 95 0 95 0 0 -95 0 -95 100 0 100 0 0 100 0 100 -95 0 -95 0 0 90 0 90 190
0 190 0 0 100 0 100 -95 0 -95 0 0 95 0 95 95 0 95 0 0 100 0 100 -95 0 -95 0
0 95 0 95 95 0 95 0 0 195 0 195 -385 0 -385 0 0 90 0 89 98 3 97 3 3 198 2
197 -200 0 -200 0 0 -95 0 -95 -90 0 -90 0 0 185 0 185 95 0 96 0 -3 103 -3
102 -95 0 -95 0 -3 -97 -3 -98 -89 0 -89 0 -3 98 -3 97 -100 0 -100 0 -3 -97
-3 -98 -94 0 -95 0 0 -100 0 -100 95 0 95 0 0 -95 0 -95 195 0 195 0 0 -95 0
-95 -95 0 -95 0 0 -95 0 -94 -97 -3 -98 -3 -3 -287 -2 -288 -90 0 -90 0 0 95
0 95 -95 0 -94 0 -3 98 -3 97 -100 0 -100 0 -3 -97 -3 -98 -89 0 -90 0 0 190
0 190 95 0 95 0 0 200 0 200 -95 0 -95 0 0 95 0 95 -100 0 -100 0 0 -100 0
-100 95 0 95 0 0 -95 0 -95 -190 0 -190 0 0 195 0 195 -95 0 -95 0 0 90 0 90
483 2 482 3 3 98 3 97 94 0 95 0 0 95 0 95 95 0 95 0 0 100 0 100 -95 0 -95 0
0 95 0 95 95 0 95 0 0 290 0 290 -95 0 -95 0 0 95 0 95 95 0 95 0 0 100 0 100
-100 0 -100 0 0 -95 0 -95 -90 0 -89 0 -3 93 -3 92 -387 3 -388 2 0 -195 0
-195 -95 0 -95 0 0 195 0 195 -100 0 -100 0 0 -195z m1160 -195 l0 -190 -190
0 -190 0 0 95 0 95 95 0 95 0 0 95 0 95 95 0 95 0 0 -190z m-580 -95 l0 -95
-95 0 -95 0 0 95 0 95 95 0 95 0 0 -95z m-190 -195 l0 -90 -95 0 -95 0 0 90 0
90 95 0 95 0 0 -90z m380 0 l0 -90 -90 0 -90 0 0 90 0 90 90 0 90 0 0 -90z
m-190 -195 l0 -95 -95 0 -95 0 0 95 0 95 95 0 95 0 0 -95z m580 0 l0 -95 -95
0 -95 0 0 95 0 95 95 0 95 0 0 -95z m-390 -190 l0 -95 -90 0 -90 0 0 95 0 95
90 0 90 0 0 -95z m-190 -200 l0 -95 100 0 100 0 0 95 0 95 90 0 89 0 3 -92 3
-93 98 -3 97 -3 0 -89 0 -90 -67 0 c-38 0 -211 -3 -385 -7 l-318 -6 0 192 0
191 95 0 95 0 0 -95z m770 5 l0 -90 -90 0 -90 0 0 90 0 90 90 0 90 0 0 -90z
m-1740 -580 l0 -90 -90 0 -90 0 0 90 0 90 90 0 90 0 0 -90z m390 0 l0 -90 -95
0 -95 0 0 90 0 90 95 0 95 0 0 -90z m1740 0 l0 -90 -95 0 -95 0 0 90 0 90 95
0 95 0 0 -90z m-2710 -290 l0 -190 100 0 100 0 0 190 0 190 95 0 95 0 0 -95 0
-95 95 0 95 0 0 -95 0 -95 -190 0 -190 0 0 -95 0 -95 -285 0 -285 0 0 95 0 95
95 0 95 0 0 190 0 190 90 0 90 0 0 -190z m780 100 l0 -90 -95 0 -95 0 0 90 0
90 95 0 95 0 0 -90z m382 -102 l3 -193 98 -3 97 -3 0 -89 0 -90 -100 0 -100 0
0 -195 0 -195 -90 0 -89 0 -3 98 -3 97 -97 3 -98 3 0 89 0 90 100 0 100 0 0
100 0 100 -100 0 -100 0 0 -95 0 -95 -95 0 -95 0 0 95 0 95 95 0 95 0 0 95 0
95 100 0 100 0 0 95 0 95 90 0 90 0 2 -192z m2128 -93 l0 -95 -95 0 -95 0 0
95 0 95 95 0 95 0 0 -95z m-200 -195 l0 -90 -90 0 -90 0 0 90 0 90 90 0 90 0
0 -90z m-2510 -190 l0 -90 -90 0 -90 0 0 90 0 90 90 0 90 0 0 -90z m2710 -5
l0 -95 95 0 95 0 0 -95 0 -95 95 0 95 0 0 -385 0 -385 -90 0 -90 0 0 95 0 95
-100 0 -100 0 0 95 0 95 100 0 100 0 0 100 0 100 -195 0 -195 0 0 95 0 95 -95
0 -95 0 0 95 0 95 95 0 95 0 0 95 0 95 95 0 95 0 0 -95z m-2510 -285 l0 -190
-190 0 -190 0 0 95 0 95 95 0 95 0 0 95 0 95 95 0 95 0 0 -190z m770 0 l0
-190 -190 0 -190 0 0 95 0 95 95 0 95 0 0 95 0 95 95 0 95 0 0 -190z m2320 95
l0 -95 -95 0 -95 0 0 95 0 95 95 0 95 0 0 -95z m-1740 -195 l0 -100 95 0 95 0
0 -90 0 -90 -285 0 -285 0 0 90 0 90 95 0 95 0 0 100 0 100 95 0 95 0 0 -100z
m770 5 l0 -95 -90 0 -90 0 0 95 0 95 90 0 90 0 0 -95z m190 -580 l0 -285 -285
0 -285 0 0 285 0 285 285 0 285 0 0 -285z m-1160 -195 l0 -90 -90 0 -90 0 0
90 0 90 90 0 90 0 0 -90z m390 -100 l0 -190 -90 0 -90 0 0 190 0 190 90 0 90
0 0 -190z m-580 -95 l0 -95 -90 0 -90 0 0 95 0 95 90 0 90 0 0 -95z m390 -190
l0 -95 -95 0 -95 0 0 95 0 95 95 0 95 0 0 -95z m770 0 l0 -95 -195 0 -195 0 0
-95 0 -95 -90 0 -90 0 0 190 0 190 285 0 285 0 0 -95z"/>
<path d="M6460 4240 l0 -100 100 0 100 0 0 100 0 100 -100 0 -100 0 0 -100z"/>
<path d="M6460 7140 l0 -680 675 0 675 0 0 680 0 680 -675 0 -675 0 0 -680z
m1150 0 l0 -470 -470 0 -470 0 0 470 0 470 470 0 470 0 0 -470z"/>
<path d="M6840 7140 l0 -290 295 0 295 0 0 290 0 290 -295 0 -295 0 0 -290z"/>
<path d="M2982 6173 l3 -98 98 -3 97 -3 0 101 0 100 -100 0 -101 0 3 -97z"/>
<path d="M7420 5885 l0 -195 195 0 195 0 0 195 0 195 -195 0 -195 0 0 -195z"/>
<path d="M2987 5883 c-4 -3 -7 -48 -7 -100 l0 -93 100 0 100 0 0 100 0 100
-93 0 c-52 0 -97 -3 -100 -7z"/>
<path d="M2987 5113 c-4 -3 -7 -48 -7 -100 l0 -93 95 0 95 0 0 -95 0 -94 -92
-3 -93 -3 -3 -98 -3 -97 198 2 198 3 3 93 3 92 94 0 95 0 0 100 0 100 -195 0
-195 0 0 100 0 100 -93 0 c-52 0 -97 -3 -100 -7z"/>
<path d="M2410 3399 c0 -828 2 -973 14 -985 12 -12 158 -14 991 -14 l976 0 -3
88 -3 87 -907 3 -908 2 0 895 0 895 -80 0 -80 0 0 -971z"/>
<path d="M8210 3475 l0 -895 -897 -2 -898 -3 -3 -87 -3 -88 976 0 c833 0 979
2 991 14 12 12 14 157 14 985 l0 971 -90 0 -90 0 0 -895z"/>
<path d="M2980 3665 l0 -675 680 0 680 0 0 675 0 675 -680 0 -680 0 0 -675z
m1150 -5 l0 -470 -470 0 -470 0 0 470 0 470 470 0 470 0 0 -470z"/>
<path d="M3370 3665 l0 -295 290 0 290 0 0 295 0 295 -290 0 -290 0 0 -295z"/>
<path d="M4530 4050 l0 -100 95 0 95 0 0 -95 0 -95 -95 0 -95 0 0 -100 0 -100
95 0 95 0 0 -95 0 -95 195 0 195 0 0 -95 0 -95 100 0 101 0 -3 98 -3 97 -97 3
-98 3 0 94 0 95 -95 0 -95 0 0 195 0 195 -95 0 -95 0 0 95 0 95 -100 0 -100 0
0 -100z"/>
<path d="M7620 3470 l0 -100 95 0 95 0 0 100 0 100 -95 0 -95 0 0 -100z"/>
<path d="M4530 3090 l0 -100 195 0 196 0 -3 98 -3 97 -192 3 -193 2 0 -100z"/>
<path d="M7427 3183 c-4 -3 -7 -48 -7 -100 l0 -93 195 0 195 0 0 100 0 100
-188 0 c-104 0 -192 -3 -195 -7z"/>
</g>
</svg>
